<svg width="170" height="41" viewBox="0 0 170 41" fill="none" xmlns="http://www.w3.org/2000/svg">
<path d="M26.846 22.83H22.59L21.806 25H20.462L23.99 15.298H25.46L28.974 25H27.63L26.846 22.83ZM26.482 21.794L24.718 16.866L22.954 21.794H26.482ZM31.7856 14.64V25H30.5116V14.64H31.7856ZM35.2309 14.64V25H33.9569V14.64H35.2309Z" fill="white"/>
<path d="M126.222 18.0791C125.926 18.3752 125.926 18.8609 126.222 19.1571L130.001 22.9241C130.289 23.2124 130.755 23.2203 131.051 22.9478L134.775 19.236C134.925 19.086 135 18.8925 135 18.6951C135 18.5016 134.925 18.3042 134.779 18.1581C134.483 17.8619 134.001 17.858 133.701 18.1581L130.502 21.3091L127.3 18.0751C127.004 17.779 126.522 17.779 126.222 18.0791Z" fill="white"/>
<rect x="0.5" y="0.5" width="169" height="40" rx="9.5" stroke="white"/>
</svg>
