<svg width="85" height="63" viewBox="0 0 85 63" fill="none" xmlns="http://www.w3.org/2000/svg">
<path d="M36.5 11H35.5V24C35.5 24.2652 35.6054 24.5196 35.7929 24.7071C35.9804 24.8946 36.2348 25 36.5 25H49.5V24H36.5V11Z" fill="#525252"/>
<path d="M49.5 14.5H46V15.5H47.795L44 19.295L41.855 17.145C41.8085 17.0981 41.7532 17.0609 41.6923 17.0356C41.6314 17.0102 41.566 16.9971 41.5 16.9971C41.434 16.9971 41.3686 17.0102 41.3077 17.0356C41.2468 17.0609 41.1915 17.0981 41.145 17.145L37.5 20.795L38.205 21.5L41.5 18.205L43.645 20.355C43.6915 20.4019 43.7468 20.4391 43.8077 20.4644C43.8686 20.4898 43.934 20.5029 44 20.5029C44.066 20.5029 44.1314 20.4898 44.1923 20.4644C44.2532 20.4391 44.3085 20.4019 44.355 20.355L48.5 16.205V18H49.5V14.5Z" fill="#525252"/>
<path d="M21.934 46.438H18.733L18.183 48H16.874L19.613 40.344H21.065L23.804 48H22.484L21.934 46.438ZM21.582 45.415L20.339 41.862L19.085 45.415H21.582ZM28.0529 41.84C28.5296 41.84 28.9549 41.939 29.3289 42.137C29.7103 42.335 30.0073 42.6283 30.2199 43.017C30.4326 43.4057 30.5389 43.875 30.5389 44.425V48H29.2959V44.612C29.2959 44.0693 29.1603 43.655 28.8889 43.369C28.6176 43.0757 28.2473 42.929 27.7779 42.929C27.3086 42.929 26.9346 43.0757 26.6559 43.369C26.3846 43.655 26.2489 44.0693 26.2489 44.612V48H24.9949V41.939H26.2489V42.632C26.4543 42.3827 26.7146 42.1883 27.0299 42.049C27.3526 41.9097 27.6936 41.84 28.0529 41.84ZM31.7205 44.942C31.7205 44.3333 31.8451 43.7943 32.0945 43.325C32.3511 42.8557 32.6958 42.4927 33.1285 42.236C33.5685 41.972 34.0525 41.84 34.5805 41.84C35.0571 41.84 35.4715 41.9353 35.8235 42.126C36.1828 42.3093 36.4688 42.5403 36.6815 42.819V41.939H37.9465V48H36.6815V47.098C36.4688 47.384 36.1791 47.6223 35.8125 47.813C35.4458 48.0037 35.0278 48.099 34.5585 48.099C34.0378 48.099 33.5611 47.967 33.1285 47.703C32.6958 47.4317 32.3511 47.0577 32.0945 46.581C31.8451 46.097 31.7205 45.5507 31.7205 44.942ZM36.6815 44.964C36.6815 44.546 36.5935 44.183 36.4175 43.875C36.2488 43.567 36.0251 43.3323 35.7465 43.171C35.4678 43.0097 35.1671 42.929 34.8445 42.929C34.5218 42.929 34.2211 43.0097 33.9425 43.171C33.6638 43.325 33.4365 43.556 33.2605 43.864C33.0918 44.1647 33.0075 44.524 33.0075 44.942C33.0075 45.36 33.0918 45.7267 33.2605 46.042C33.4365 46.3573 33.6638 46.5993 33.9425 46.768C34.2285 46.9293 34.5291 47.01 34.8445 47.01C35.1671 47.01 35.4678 46.9293 35.7465 46.768C36.0251 46.6067 36.2488 46.372 36.4175 46.064C36.5935 45.7487 36.6815 45.382 36.6815 44.964ZM40.8476 39.86V48H39.5936V39.86H40.8476ZM47.9499 41.939L44.2319 50.849H42.9339L44.1659 47.901L41.7789 41.939H43.1759L44.8809 46.559L46.6519 41.939H47.9499ZM50.3593 42.962V46.317C50.3593 46.5443 50.4106 46.7093 50.5133 46.812C50.6233 46.9073 50.8066 46.955 51.0633 46.955H51.8333V48H50.8433C50.2786 48 49.846 47.868 49.5453 47.604C49.2446 47.34 49.0943 46.911 49.0943 46.317V42.962H48.3793V41.939H49.0943V40.432H50.3593V41.939H51.8333V42.962H50.3593ZM53.6271 41.136C53.3997 41.136 53.2091 41.059 53.0551 40.905C52.9011 40.751 52.8241 40.5603 52.8241 40.333C52.8241 40.1057 52.9011 39.915 53.0551 39.761C53.2091 39.607 53.3997 39.53 53.6271 39.53C53.8471 39.53 54.0341 39.607 54.1881 39.761C54.3421 39.915 54.4191 40.1057 54.4191 40.333C54.4191 40.5603 54.3421 40.751 54.1881 40.905C54.0341 41.059 53.8471 41.136 53.6271 41.136ZM54.2431 41.939V48H52.9891V41.939H54.2431ZM55.4715 44.964C55.4715 44.3407 55.5961 43.7943 55.8455 43.325C56.1021 42.8483 56.4541 42.4817 56.9015 42.225C57.3488 41.9683 57.8621 41.84 58.4415 41.84C59.1748 41.84 59.7798 42.016 60.2565 42.368C60.7405 42.7127 61.0668 43.2077 61.2355 43.853H59.8825C59.7725 43.5523 59.5965 43.3177 59.3545 43.149C59.1125 42.9803 58.8081 42.896 58.4415 42.896C57.9281 42.896 57.5175 43.0793 57.2095 43.446C56.9088 43.8053 56.7585 44.3113 56.7585 44.964C56.7585 45.6167 56.9088 46.1263 57.2095 46.493C57.5175 46.8597 57.9281 47.043 58.4415 47.043C59.1675 47.043 59.6478 46.724 59.8825 46.086H61.2355C61.0595 46.702 60.7295 47.1933 60.2455 47.56C59.7615 47.9193 59.1601 48.099 58.4415 48.099C57.8621 48.099 57.3488 47.9707 56.9015 47.714C56.4541 47.45 56.1021 47.0833 55.8455 46.614C55.5961 46.1373 55.4715 45.5873 55.4715 44.964ZM64.6852 48.099C64.2085 48.099 63.7795 48.0147 63.3982 47.846C63.0242 47.67 62.7272 47.4353 62.5072 47.142C62.2872 46.8413 62.1698 46.5077 62.1552 46.141H63.4532C63.4752 46.3977 63.5962 46.614 63.8162 46.79C64.0435 46.9587 64.3258 47.043 64.6632 47.043C65.0152 47.043 65.2865 46.977 65.4772 46.845C65.6752 46.7057 65.7742 46.5297 65.7742 46.317C65.7742 46.0897 65.6642 45.921 65.4442 45.811C65.2315 45.701 64.8905 45.58 64.4212 45.448C63.9665 45.3233 63.5962 45.2023 63.3102 45.085C63.0242 44.9677 62.7748 44.788 62.5622 44.546C62.3568 44.304 62.2542 43.985 62.2542 43.589C62.2542 43.2663 62.3495 42.973 62.5402 42.709C62.7308 42.4377 63.0022 42.225 63.3542 42.071C63.7135 41.917 64.1242 41.84 64.5862 41.84C65.2755 41.84 65.8292 42.016 66.2472 42.368C66.6725 42.7127 66.8998 43.1857 66.9292 43.787H65.6752C65.6532 43.5157 65.5432 43.2993 65.3452 43.138C65.1472 42.9767 64.8795 42.896 64.5422 42.896C64.2122 42.896 63.9592 42.9583 63.7832 43.083C63.6072 43.2077 63.5192 43.3727 63.5192 43.578C63.5192 43.7393 63.5778 43.875 63.6952 43.985C63.8125 44.095 63.9555 44.183 64.1242 44.249C64.2928 44.3077 64.5422 44.3847 64.8722 44.48C65.3122 44.5973 65.6715 44.7183 65.9502 44.843C66.2362 44.9603 66.4818 45.1363 66.6872 45.371C66.8925 45.6057 66.9988 45.9173 67.0062 46.306C67.0062 46.6507 66.9108 46.9587 66.7202 47.23C66.5295 47.5013 66.2582 47.714 65.9062 47.868C65.5615 48.022 65.1545 48.099 64.6852 48.099Z" fill="#525252"/>
</svg>
