<svg width="86" height="63" viewBox="0 0 86 63" fill="none" xmlns="http://www.w3.org/2000/svg">
<rect x="0.5" width="85" height="63" rx="10" fill="#F1F8FF" fill-opacity="0.7"/>
<path d="M37 11H36V24C36 24.2652 36.1054 24.5196 36.2929 24.7071C36.4804 24.8946 36.7348 25 37 25H50V24H37V11Z" fill="white"/>
<path d="M50 14.5H46.5V15.5H48.295L44.5 19.295L42.355 17.145C42.3085 17.0981 42.2532 17.0609 42.1923 17.0356C42.1314 17.0102 42.066 16.9971 42 16.9971C41.934 16.9971 41.8686 17.0102 41.8077 17.0356C41.7468 17.0609 41.6915 17.0981 41.645 17.145L38 20.795L38.705 21.5L42 18.205L44.145 20.355C44.1915 20.4019 44.2468 20.4391 44.3077 20.4644C44.3686 20.4898 44.434 20.5029 44.5 20.5029C44.566 20.5029 44.6314 20.4898 44.6923 20.4644C44.7532 20.4391 44.8085 20.4019 44.855 20.355L49 16.205V18H50V14.5Z" fill="white"/>
<path d="M22.434 46.438H19.233L18.683 48H17.374L20.113 40.344H21.565L24.304 48H22.984L22.434 46.438ZM22.082 45.415L20.839 41.862L19.585 45.415H22.082ZM28.5529 41.84C29.0296 41.84 29.4549 41.939 29.8289 42.137C30.2103 42.335 30.5073 42.6283 30.7199 43.017C30.9326 43.4057 31.0389 43.875 31.0389 44.425V48H29.7959V44.612C29.7959 44.0693 29.6603 43.655 29.3889 43.369C29.1176 43.0757 28.7473 42.929 28.2779 42.929C27.8086 42.929 27.4346 43.0757 27.1559 43.369C26.8846 43.655 26.7489 44.0693 26.7489 44.612V48H25.4949V41.939H26.7489V42.632C26.9543 42.3827 27.2146 42.1883 27.5299 42.049C27.8526 41.9097 28.1936 41.84 28.5529 41.84ZM32.2205 44.942C32.2205 44.3333 32.3451 43.7943 32.5945 43.325C32.8511 42.8557 33.1958 42.4927 33.6285 42.236C34.0685 41.972 34.5525 41.84 35.0805 41.84C35.5571 41.84 35.9715 41.9353 36.3235 42.126C36.6828 42.3093 36.9688 42.5403 37.1815 42.819V41.939H38.4465V48H37.1815V47.098C36.9688 47.384 36.6791 47.6223 36.3125 47.813C35.9458 48.0037 35.5278 48.099 35.0585 48.099C34.5378 48.099 34.0611 47.967 33.6285 47.703C33.1958 47.4317 32.8511 47.0577 32.5945 46.581C32.3451 46.097 32.2205 45.5507 32.2205 44.942ZM37.1815 44.964C37.1815 44.546 37.0935 44.183 36.9175 43.875C36.7488 43.567 36.5251 43.3323 36.2465 43.171C35.9678 43.0097 35.6671 42.929 35.3445 42.929C35.0218 42.929 34.7211 43.0097 34.4425 43.171C34.1638 43.325 33.9365 43.556 33.7605 43.864C33.5918 44.1647 33.5075 44.524 33.5075 44.942C33.5075 45.36 33.5918 45.7267 33.7605 46.042C33.9365 46.3573 34.1638 46.5993 34.4425 46.768C34.7285 46.9293 35.0291 47.01 35.3445 47.01C35.6671 47.01 35.9678 46.9293 36.2465 46.768C36.5251 46.6067 36.7488 46.372 36.9175 46.064C37.0935 45.7487 37.1815 45.382 37.1815 44.964ZM41.3476 39.86V48H40.0936V39.86H41.3476ZM48.4499 41.939L44.7319 50.849H43.4339L44.6659 47.901L42.2789 41.939H43.6759L45.3809 46.559L47.1519 41.939H48.4499ZM50.8593 42.962V46.317C50.8593 46.5443 50.9106 46.7093 51.0133 46.812C51.1233 46.9073 51.3066 46.955 51.5633 46.955H52.3333V48H51.3433C50.7786 48 50.346 47.868 50.0453 47.604C49.7446 47.34 49.5943 46.911 49.5943 46.317V42.962H48.8793V41.939H49.5943V40.432H50.8593V41.939H52.3333V42.962H50.8593ZM54.1271 41.136C53.8997 41.136 53.7091 41.059 53.5551 40.905C53.4011 40.751 53.3241 40.5603 53.3241 40.333C53.3241 40.1057 53.4011 39.915 53.5551 39.761C53.7091 39.607 53.8997 39.53 54.1271 39.53C54.3471 39.53 54.5341 39.607 54.6881 39.761C54.8421 39.915 54.9191 40.1057 54.9191 40.333C54.9191 40.5603 54.8421 40.751 54.6881 40.905C54.5341 41.059 54.3471 41.136 54.1271 41.136ZM54.7431 41.939V48H53.4891V41.939H54.7431ZM55.9715 44.964C55.9715 44.3407 56.0961 43.7943 56.3455 43.325C56.6021 42.8483 56.9541 42.4817 57.4015 42.225C57.8488 41.9683 58.3621 41.84 58.9415 41.84C59.6748 41.84 60.2798 42.016 60.7565 42.368C61.2405 42.7127 61.5668 43.2077 61.7355 43.853H60.3825C60.2725 43.5523 60.0965 43.3177 59.8545 43.149C59.6125 42.9803 59.3081 42.896 58.9415 42.896C58.4281 42.896 58.0175 43.0793 57.7095 43.446C57.4088 43.8053 57.2585 44.3113 57.2585 44.964C57.2585 45.6167 57.4088 46.1263 57.7095 46.493C58.0175 46.8597 58.4281 47.043 58.9415 47.043C59.6675 47.043 60.1478 46.724 60.3825 46.086H61.7355C61.5595 46.702 61.2295 47.1933 60.7455 47.56C60.2615 47.9193 59.6601 48.099 58.9415 48.099C58.3621 48.099 57.8488 47.9707 57.4015 47.714C56.9541 47.45 56.6021 47.0833 56.3455 46.614C56.0961 46.1373 55.9715 45.5873 55.9715 44.964ZM65.1852 48.099C64.7085 48.099 64.2795 48.0147 63.8982 47.846C63.5242 47.67 63.2272 47.4353 63.0072 47.142C62.7872 46.8413 62.6698 46.5077 62.6552 46.141H63.9532C63.9752 46.3977 64.0962 46.614 64.3162 46.79C64.5435 46.9587 64.8258 47.043 65.1632 47.043C65.5152 47.043 65.7865 46.977 65.9772 46.845C66.1752 46.7057 66.2742 46.5297 66.2742 46.317C66.2742 46.0897 66.1642 45.921 65.9442 45.811C65.7315 45.701 65.3905 45.58 64.9212 45.448C64.4665 45.3233 64.0962 45.2023 63.8102 45.085C63.5242 44.9677 63.2748 44.788 63.0622 44.546C62.8568 44.304 62.7542 43.985 62.7542 43.589C62.7542 43.2663 62.8495 42.973 63.0402 42.709C63.2308 42.4377 63.5022 42.225 63.8542 42.071C64.2135 41.917 64.6242 41.84 65.0862 41.84C65.7755 41.84 66.3292 42.016 66.7472 42.368C67.1725 42.7127 67.3998 43.1857 67.4292 43.787H66.1752C66.1532 43.5157 66.0432 43.2993 65.8452 43.138C65.6472 42.9767 65.3795 42.896 65.0422 42.896C64.7122 42.896 64.4592 42.9583 64.2832 43.083C64.1072 43.2077 64.0192 43.3727 64.0192 43.578C64.0192 43.7393 64.0778 43.875 64.1952 43.985C64.3125 44.095 64.4555 44.183 64.6242 44.249C64.7928 44.3077 65.0422 44.3847 65.3722 44.48C65.8122 44.5973 66.1715 44.7183 66.4502 44.843C66.7362 44.9603 66.9818 45.1363 67.1872 45.371C67.3925 45.6057 67.4988 45.9173 67.5062 46.306C67.5062 46.6507 67.4108 46.9587 67.2202 47.23C67.0295 47.5013 66.7582 47.714 66.4062 47.868C66.0615 48.022 65.6545 48.099 65.1852 48.099Z" fill="white"/>
</svg>
