<svg width="16" height="20" viewBox="0 0 16 20" fill="none" xmlns="http://www.w3.org/2000/svg">
<path d="M7.8913 20C7.38406 20 6.94928 19.8044 6.58696 19.4131C6.22464 19.0219 6.04348 18.5603 6.04348 18.0282H9.73913C9.73913 18.5603 9.55797 19.0219 9.19565 19.4131C8.83333 19.8044 8.39855 20 7.8913 20ZM13.913 13.9906L15.7826 16.0094V16.9953H0V16.0094L1.86957 13.9906V8.49765C1.86957 6.96401 2.30435 5.61033 3.17391 4.43662C4.04348 3.26291 5.14493 2.50391 6.47826 2.15962V1.50235C6.47826 1.06416 6.61594 0.704225 6.8913 0.422535C7.16667 0.140845 7.5 0 7.8913 0C8.28261 0 8.6087 0.140845 8.86957 0.422535C9.13043 0.704225 9.26087 1.06416 9.26087 1.50235V2.15962C10.6232 2.50391 11.7391 3.26291 12.6087 4.43662C13.4783 5.61033 13.913 6.96401 13.913 8.49765V13.9906ZM12.0435 15.0235V8.49765C12.0435 7.2457 11.6377 6.18153 10.8261 5.30516C10.0145 4.4288 9.02899 3.99061 7.86957 3.99061C6.71014 3.99061 5.72464 4.4288 4.91304 5.30516C4.10145 6.18153 3.69565 7.2457 3.69565 8.49765V15.0235H12.0435Z" fill="white"/>
</svg>
