<svg width="1009" height="142" viewBox="0 0 1009 142" fill="none" xmlns="http://www.w3.org/2000/svg">
<g filter="url(#filter0_d_97_1155)">
<rect x="6" y="6" width="220" height="130" rx="10" fill="white"/>
<path d="M33.08 41.14C32.1467 41.14 31.3067 40.98 30.56 40.66C29.8133 40.3267 29.2267 39.86 28.8 39.26C28.3733 38.66 28.16 37.96 28.16 37.16H30.6C30.6533 37.76 30.8867 38.2533 31.3 38.64C31.7267 39.0267 32.32 39.22 33.08 39.22C33.8667 39.22 34.48 39.0333 34.92 38.66C35.36 38.2733 35.58 37.78 35.58 37.18C35.58 36.7133 35.44 36.3333 35.16 36.04C34.8933 35.7467 34.5533 35.52 34.14 35.36C33.74 35.2 33.18 35.0267 32.46 34.84C31.5533 34.6 30.8133 34.36 30.24 34.12C29.68 33.8667 29.2 33.48 28.8 32.96C28.4 32.44 28.2 31.7467 28.2 30.88C28.2 30.08 28.4 29.38 28.8 28.78C29.2 28.18 29.76 27.72 30.48 27.4C31.2 27.08 32.0333 26.92 32.98 26.92C34.3267 26.92 35.4267 27.26 36.28 27.94C37.1467 28.6067 37.6267 29.5267 37.72 30.7H35.2C35.16 30.1933 34.92 29.76 34.48 29.4C34.04 29.04 33.46 28.86 32.74 28.86C32.0867 28.86 31.5533 29.0267 31.14 29.36C30.7267 29.6933 30.52 30.1733 30.52 30.8C30.52 31.2267 30.6467 31.58 30.9 31.86C31.1667 32.1267 31.5 32.34 31.9 32.5C32.3 32.66 32.8467 32.8333 33.54 33.02C34.46 33.2733 35.2067 33.5267 35.78 33.78C36.3667 34.0333 36.86 34.4267 37.26 34.96C37.6733 35.48 37.88 36.18 37.88 37.06C37.88 37.7667 37.6867 38.4333 37.3 39.06C36.9267 39.6867 36.3733 40.1933 35.64 40.58C34.92 40.9533 34.0667 41.14 33.08 41.14ZM50.5503 29.98V41H48.2703V39.7C47.9103 40.1533 47.437 40.5133 46.8503 40.78C46.277 41.0333 45.6636 41.16 45.0103 41.16C44.1436 41.16 43.3636 40.98 42.6703 40.62C41.9903 40.26 41.4503 39.7267 41.0503 39.02C40.6636 38.3133 40.4703 37.46 40.4703 36.46V29.98H42.7303V36.12C42.7303 37.1067 42.977 37.8667 43.4703 38.4C43.9636 38.92 44.637 39.18 45.4903 39.18C46.3436 39.18 47.017 38.92 47.5103 38.4C48.017 37.8667 48.2703 37.1067 48.2703 36.12V29.98H50.5503ZM55.8386 31.62C56.2253 31.0867 56.7519 30.6533 57.4186 30.32C58.0986 29.9733 58.8519 29.8 59.6786 29.8C60.6519 29.8 61.5319 30.0333 62.3186 30.5C63.1053 30.9667 63.7253 31.6333 64.1786 32.5C64.6319 33.3533 64.8586 34.3333 64.8586 35.44C64.8586 36.5467 64.6319 37.54 64.1786 38.42C63.7253 39.2867 63.0986 39.9667 62.2986 40.46C61.5119 40.94 60.6386 41.18 59.6786 41.18C58.8253 41.18 58.0653 41.0133 57.3986 40.68C56.7453 40.3467 56.2253 39.92 55.8386 39.4V41H53.5586V26.2H55.8386V31.62ZM62.5386 35.44C62.5386 34.68 62.3786 34.0267 62.0586 33.48C61.7519 32.92 61.3386 32.5 60.8186 32.22C60.3119 31.9267 59.7653 31.78 59.1786 31.78C58.6053 31.78 58.0586 31.9267 57.5386 32.22C57.0319 32.5133 56.6186 32.94 56.2986 33.5C55.9919 34.06 55.8386 34.72 55.8386 35.48C55.8386 36.24 55.9919 36.9067 56.2986 37.48C56.6186 38.04 57.0319 38.4667 57.5386 38.76C58.0586 39.0533 58.6053 39.2 59.1786 39.2C59.7653 39.2 60.3119 39.0533 60.8186 38.76C61.3386 38.4533 61.7519 38.0133 62.0586 37.44C62.3786 36.8667 62.5386 36.2 62.5386 35.44ZM80.4533 29.8C81.3199 29.8 82.0933 29.98 82.7733 30.34C83.4666 30.7 84.0066 31.2333 84.3933 31.94C84.7933 32.6467 84.9933 33.5 84.9933 34.5V41H82.7333V34.84C82.7333 33.8533 82.4866 33.1 81.9933 32.58C81.4999 32.0467 80.8266 31.78 79.9733 31.78C79.1199 31.78 78.4399 32.0467 77.9333 32.58C77.4399 33.1 77.1933 33.8533 77.1933 34.84V41H74.9333V34.84C74.9333 33.8533 74.6866 33.1 74.1933 32.58C73.6999 32.0467 73.0266 31.78 72.1733 31.78C71.3199 31.78 70.6399 32.0467 70.1333 32.58C69.6399 33.1 69.3933 33.8533 69.3933 34.84V41H67.1133V29.98H69.3933V31.24C69.7666 30.7867 70.2399 30.4333 70.8133 30.18C71.3866 29.9267 71.9999 29.8 72.6533 29.8C73.5333 29.8 74.3199 29.9867 75.0133 30.36C75.7066 30.7333 76.2399 31.2733 76.6133 31.98C76.9466 31.3133 77.4666 30.7867 78.1733 30.4C78.8799 30 79.6399 29.8 80.4533 29.8ZM89.0545 28.52C88.6412 28.52 88.2945 28.38 88.0145 28.1C87.7345 27.82 87.5945 27.4733 87.5945 27.06C87.5945 26.6467 87.7345 26.3 88.0145 26.02C88.2945 25.74 88.6412 25.6 89.0545 25.6C89.4545 25.6 89.7945 25.74 90.0745 26.02C90.3545 26.3 90.4945 26.6467 90.4945 27.06C90.4945 27.4733 90.3545 27.82 90.0745 28.1C89.7945 28.38 89.4545 28.52 89.0545 28.52ZM90.1745 29.98V41H87.8945V29.98H90.1745ZM97.168 41.18C96.3013 41.18 95.5213 41.0267 94.828 40.72C94.148 40.4 93.608 39.9733 93.208 39.44C92.808 38.8933 92.5946 38.2867 92.568 37.62H94.928C94.968 38.0867 95.188 38.48 95.588 38.8C96.0013 39.1067 96.5146 39.26 97.128 39.26C97.768 39.26 98.2613 39.14 98.608 38.9C98.968 38.6467 99.148 38.3267 99.148 37.94C99.148 37.5267 98.948 37.22 98.548 37.02C98.1613 36.82 97.5413 36.6 96.688 36.36C95.8613 36.1333 95.188 35.9133 94.668 35.7C94.148 35.4867 93.6946 35.16 93.308 34.72C92.9346 34.28 92.748 33.7 92.748 32.98C92.748 32.3933 92.9213 31.86 93.268 31.38C93.6146 30.8867 94.108 30.5 94.748 30.22C95.4013 29.94 96.148 29.8 96.988 29.8C98.2413 29.8 99.248 30.12 100.008 30.76C100.781 31.3867 101.195 32.2467 101.248 33.34H98.968C98.928 32.8467 98.728 32.4533 98.368 32.16C98.008 31.8667 97.5213 31.72 96.908 31.72C96.308 31.72 95.848 31.8333 95.528 32.06C95.208 32.2867 95.048 32.5867 95.048 32.96C95.048 33.2533 95.1546 33.5 95.368 33.7C95.5813 33.9 95.8413 34.06 96.148 34.18C96.4546 34.2867 96.908 34.4267 97.508 34.6C98.308 34.8133 98.9613 35.0333 99.468 35.26C99.988 35.4733 100.435 35.7933 100.808 36.22C101.181 36.6467 101.375 37.2133 101.388 37.92C101.388 38.5467 101.215 39.1067 100.868 39.6C100.521 40.0933 100.028 40.48 99.388 40.76C98.7613 41.04 98.0213 41.18 97.168 41.18ZM107.852 41.18C106.985 41.18 106.205 41.0267 105.512 40.72C104.832 40.4 104.292 39.9733 103.892 39.44C103.492 38.8933 103.278 38.2867 103.252 37.62H105.612C105.652 38.0867 105.872 38.48 106.272 38.8C106.685 39.1067 107.198 39.26 107.812 39.26C108.452 39.26 108.945 39.14 109.292 38.9C109.652 38.6467 109.832 38.3267 109.832 37.94C109.832 37.5267 109.632 37.22 109.232 37.02C108.845 36.82 108.225 36.6 107.372 36.36C106.545 36.1333 105.872 35.9133 105.352 35.7C104.832 35.4867 104.378 35.16 103.992 34.72C103.618 34.28 103.432 33.7 103.432 32.98C103.432 32.3933 103.605 31.86 103.952 31.38C104.298 30.8867 104.792 30.5 105.432 30.22C106.085 29.94 106.832 29.8 107.672 29.8C108.925 29.8 109.932 30.12 110.692 30.76C111.465 31.3867 111.878 32.2467 111.932 33.34H109.652C109.612 32.8467 109.412 32.4533 109.052 32.16C108.692 31.8667 108.205 31.72 107.592 31.72C106.992 31.72 106.532 31.8333 106.212 32.06C105.892 32.2867 105.732 32.5867 105.732 32.96C105.732 33.2533 105.838 33.5 106.052 33.7C106.265 33.9 106.525 34.06 106.832 34.18C107.138 34.2867 107.592 34.4267 108.192 34.6C108.992 34.8133 109.645 35.0333 110.152 35.26C110.672 35.4733 111.118 35.7933 111.492 36.22C111.865 36.6467 112.058 37.2133 112.072 37.92C112.072 38.5467 111.898 39.1067 111.552 39.6C111.205 40.0933 110.712 40.48 110.072 40.76C109.445 41.04 108.705 41.18 107.852 41.18ZM115.695 28.52C115.282 28.52 114.935 28.38 114.655 28.1C114.375 27.82 114.235 27.4733 114.235 27.06C114.235 26.6467 114.375 26.3 114.655 26.02C114.935 25.74 115.282 25.6 115.695 25.6C116.095 25.6 116.435 25.74 116.715 26.02C116.995 26.3 117.135 26.6467 117.135 27.06C117.135 27.4733 116.995 27.82 116.715 28.1C116.435 28.38 116.095 28.52 115.695 28.52ZM116.815 29.98V41H114.535V29.98H116.815ZM124.589 41.18C123.549 41.18 122.609 40.9467 121.769 40.48C120.929 40 120.269 39.3333 119.789 38.48C119.309 37.6133 119.069 36.6133 119.069 35.48C119.069 34.36 119.315 33.3667 119.809 32.5C120.302 31.6333 120.975 30.9667 121.829 30.5C122.682 30.0333 123.635 29.8 124.689 29.8C125.742 29.8 126.695 30.0333 127.549 30.5C128.402 30.9667 129.075 31.6333 129.569 32.5C130.062 33.3667 130.309 34.36 130.309 35.48C130.309 36.6 130.055 37.5933 129.549 38.46C129.042 39.3267 128.349 40 127.469 40.48C126.602 40.9467 125.642 41.18 124.589 41.18ZM124.589 39.2C125.175 39.2 125.722 39.06 126.229 38.78C126.749 38.5 127.169 38.08 127.489 37.52C127.809 36.96 127.969 36.28 127.969 35.48C127.969 34.68 127.815 34.0067 127.509 33.46C127.202 32.9 126.795 32.48 126.289 32.2C125.782 31.92 125.235 31.78 124.649 31.78C124.062 31.78 123.515 31.92 123.009 32.2C122.515 32.48 122.122 32.9 121.829 33.46C121.535 34.0067 121.389 34.68 121.389 35.48C121.389 36.6667 121.689 37.5867 122.289 38.24C122.902 38.88 123.669 39.2 124.589 39.2ZM138.123 29.8C138.989 29.8 139.763 29.98 140.443 30.34C141.136 30.7 141.676 31.2333 142.063 31.94C142.449 32.6467 142.643 33.5 142.643 34.5V41H140.383V34.84C140.383 33.8533 140.136 33.1 139.643 32.58C139.149 32.0467 138.476 31.78 137.623 31.78C136.769 31.78 136.089 32.0467 135.583 32.58C135.089 33.1 134.843 33.8533 134.843 34.84V41H132.563V29.98H134.843V31.24C135.216 30.7867 135.689 30.4333 136.263 30.18C136.849 29.9267 137.469 29.8 138.123 29.8Z" fill="#525252"/>
<path d="M31.428 103.42C33.732 101.428 35.544 99.796 36.864 98.524C38.208 97.228 39.324 95.884 40.212 94.492C41.1 93.1 41.544 91.708 41.544 90.316C41.544 88.876 41.196 87.748 40.5 86.932C39.828 86.116 38.76 85.708 37.296 85.708C35.88 85.708 34.776 86.164 33.984 87.076C33.216 87.964 32.808 89.164 32.76 90.676H28.8C28.872 87.94 29.688 85.852 31.248 84.412C32.832 82.948 34.836 82.216 37.26 82.216C39.876 82.216 41.916 82.936 43.38 84.376C44.868 85.816 45.612 87.736 45.612 90.136C45.612 91.864 45.168 93.532 44.28 95.14C43.416 96.724 42.372 98.152 41.148 99.424C39.948 100.672 38.412 102.124 36.54 103.78L34.92 105.22H46.332V108.64H28.836V105.652L31.428 103.42ZM64.0493 88.84C63.7853 87.736 63.3053 86.908 62.6093 86.356C61.9133 85.804 60.9413 85.528 59.6933 85.528C57.7973 85.528 56.3813 86.26 55.4453 87.724C54.5093 89.164 54.0173 91.564 53.9693 94.924C54.5933 93.868 55.5053 93.052 56.7053 92.476C57.9053 91.9 59.2013 91.612 60.5933 91.612C62.1773 91.612 63.5693 91.96 64.7693 92.656C65.9933 93.328 66.9413 94.312 67.6133 95.608C68.3093 96.904 68.6573 98.452 68.6573 100.252C68.6573 101.932 68.3213 103.432 67.6493 104.752C67.0013 106.072 66.0293 107.116 64.7333 107.884C63.4373 108.628 61.8773 109 60.0533 109C57.5813 109 55.6373 108.46 54.2213 107.38C52.8293 106.276 51.8453 104.728 51.2693 102.736C50.7173 100.744 50.4413 98.26 50.4413 95.284C50.4413 86.5 53.5373 82.108 59.7293 82.108C62.1293 82.108 64.0133 82.756 65.3813 84.052C66.7733 85.348 67.5893 86.944 67.8293 88.84H64.0493ZM59.6933 95.068C58.2293 95.068 56.9813 95.512 55.9493 96.4C54.9413 97.264 54.4373 98.524 54.4373 100.18C54.4373 101.836 54.9053 103.156 55.8413 104.14C56.8013 105.1 58.1333 105.58 59.8373 105.58C61.3493 105.58 62.5373 105.112 63.4013 104.176C64.2893 103.24 64.7333 101.992 64.7333 100.432C64.7333 98.8 64.3013 97.504 63.4373 96.544C62.5973 95.56 61.3493 95.068 59.6933 95.068Z" fill="#525252"/>
<g filter="url(#filter1_d_97_1155)">
<path d="M155 104.653L166.167 85L182.5 107L190.333 93.2133L205 103.187" stroke="#2A8EF1" stroke-linecap="round"/>
</g>
</g>
<g filter="url(#filter2_d_97_1155)">
<rect x="265" y="6" width="220" height="130" rx="10" fill="white"/>
<path d="M299.48 27.1L294.26 41H291.62L286.38 27.1H288.82L292.94 38.66L297.08 27.1H299.48ZM302.547 28.52C302.133 28.52 301.787 28.38 301.507 28.1C301.227 27.82 301.087 27.4733 301.087 27.06C301.087 26.6467 301.227 26.3 301.507 26.02C301.787 25.74 302.133 25.6 302.547 25.6C302.947 25.6 303.287 25.74 303.567 26.02C303.847 26.3 303.987 26.6467 303.987 27.06C303.987 27.4733 303.847 27.82 303.567 28.1C303.287 28.38 302.947 28.52 302.547 28.52ZM303.667 29.98V41H301.387V29.98H303.667ZM310.66 41.18C309.793 41.18 309.013 41.0267 308.32 40.72C307.64 40.4 307.1 39.9733 306.7 39.44C306.3 38.8933 306.087 38.2867 306.06 37.62H308.42C308.46 38.0867 308.68 38.48 309.08 38.8C309.493 39.1067 310.007 39.26 310.62 39.26C311.26 39.26 311.753 39.14 312.1 38.9C312.46 38.6467 312.64 38.3267 312.64 37.94C312.64 37.5267 312.44 37.22 312.04 37.02C311.653 36.82 311.033 36.6 310.18 36.36C309.353 36.1333 308.68 35.9133 308.16 35.7C307.64 35.4867 307.187 35.16 306.8 34.72C306.427 34.28 306.24 33.7 306.24 32.98C306.24 32.3933 306.413 31.86 306.76 31.38C307.107 30.8867 307.6 30.5 308.24 30.22C308.893 29.94 309.64 29.8 310.48 29.8C311.733 29.8 312.74 30.12 313.5 30.76C314.273 31.3867 314.687 32.2467 314.74 33.34H312.46C312.42 32.8467 312.22 32.4533 311.86 32.16C311.5 31.8667 311.013 31.72 310.4 31.72C309.8 31.72 309.34 31.8333 309.02 32.06C308.7 32.2867 308.54 32.5867 308.54 32.96C308.54 33.2533 308.647 33.5 308.86 33.7C309.073 33.9 309.333 34.06 309.64 34.18C309.947 34.2867 310.4 34.4267 311 34.6C311.8 34.8133 312.453 35.0333 312.96 35.26C313.48 35.4733 313.927 35.7933 314.3 36.22C314.673 36.6467 314.867 37.2133 314.88 37.92C314.88 38.5467 314.707 39.1067 314.36 39.6C314.013 40.0933 313.52 40.48 312.88 40.76C312.253 41.04 311.513 41.18 310.66 41.18ZM318.504 28.52C318.09 28.52 317.744 28.38 317.464 28.1C317.184 27.82 317.044 27.4733 317.044 27.06C317.044 26.6467 317.184 26.3 317.464 26.02C317.744 25.74 318.09 25.6 318.504 25.6C318.904 25.6 319.244 25.74 319.524 26.02C319.804 26.3 319.944 26.6467 319.944 27.06C319.944 27.4733 319.804 27.82 319.524 28.1C319.244 28.38 318.904 28.52 318.504 28.52ZM319.624 29.98V41H317.344V29.98H319.624ZM325.277 31.84V37.94C325.277 38.3533 325.371 38.6533 325.557 38.84C325.757 39.0133 326.091 39.1 326.557 39.1H327.957V41H326.157C325.131 41 324.344 40.76 323.797 40.28C323.251 39.8 322.977 39.02 322.977 37.94V31.84H321.677V29.98H322.977V27.24H325.277V29.98H327.957V31.84H325.277ZM339.794 27.1C341.274 27.1 342.567 27.3867 343.674 27.96C344.794 28.52 345.654 29.3333 346.254 30.4C346.867 31.4533 347.174 32.6867 347.174 34.1C347.174 35.5133 346.867 36.74 346.254 37.78C345.654 38.82 344.794 39.62 343.674 40.18C342.567 40.7267 341.274 41 339.794 41H335.254V27.1H339.794ZM339.794 39.14C341.421 39.14 342.667 38.7 343.534 37.82C344.401 36.94 344.834 35.7 344.834 34.1C344.834 32.4867 344.401 31.2267 343.534 30.32C342.667 29.4133 341.421 28.96 339.794 28.96H337.534V39.14H339.794ZM359.414 29.98V41H357.134V39.7C356.774 40.1533 356.3 40.5133 355.714 40.78C355.14 41.0333 354.527 41.16 353.874 41.16C353.007 41.16 352.227 40.98 351.534 40.62C350.854 40.26 350.314 39.7267 349.914 39.02C349.527 38.3133 349.334 37.46 349.334 36.46V29.98H351.594V36.12C351.594 37.1067 351.84 37.8667 352.334 38.4C352.827 38.92 353.5 39.18 354.354 39.18C355.207 39.18 355.88 38.92 356.374 38.4C356.88 37.8667 357.134 37.1067 357.134 36.12V29.98H359.414ZM364.702 31.58C365.035 31.02 365.475 30.5867 366.022 30.28C366.582 29.96 367.242 29.8 368.002 29.8V32.16H367.422C366.529 32.16 365.849 32.3867 365.382 32.84C364.929 33.2933 364.702 34.08 364.702 35.2V41H362.422V29.98H364.702V31.58ZM369.338 35.44C369.338 34.3333 369.564 33.3533 370.018 32.5C370.484 31.6467 371.111 30.9867 371.898 30.52C372.698 30.04 373.578 29.8 374.538 29.8C375.404 29.8 376.158 29.9733 376.798 30.32C377.451 30.6533 377.971 31.0733 378.358 31.58V29.98H380.658V41H378.358V39.36C377.971 39.88 377.444 40.3133 376.778 40.66C376.111 41.0067 375.351 41.18 374.498 41.18C373.551 41.18 372.684 40.94 371.898 40.46C371.111 39.9667 370.484 39.2867 370.018 38.42C369.564 37.54 369.338 36.5467 369.338 35.44ZM378.358 35.48C378.358 34.72 378.198 34.06 377.878 33.5C377.571 32.94 377.164 32.5133 376.658 32.22C376.151 31.9267 375.604 31.78 375.018 31.78C374.431 31.78 373.884 31.9267 373.378 32.22C372.871 32.5 372.458 32.92 372.138 33.48C371.831 34.0267 371.678 34.68 371.678 35.44C371.678 36.2 371.831 36.8667 372.138 37.44C372.458 38.0133 372.871 38.4533 373.378 38.76C373.898 39.0533 374.444 39.2 375.018 39.2C375.604 39.2 376.151 39.0533 376.658 38.76C377.164 38.4667 377.571 38.04 377.878 37.48C378.198 36.9067 378.358 36.24 378.358 35.48ZM386.312 31.84V37.94C386.312 38.3533 386.406 38.6533 386.592 38.84C386.792 39.0133 387.126 39.1 387.592 39.1H388.992V41H387.192C386.166 41 385.379 40.76 384.832 40.28C384.286 39.8 384.012 39.02 384.012 37.94V31.84H382.712V29.98H384.012V27.24H386.312V29.98H388.992V31.84H386.312ZM392.254 28.52C391.84 28.52 391.494 28.38 391.214 28.1C390.934 27.82 390.794 27.4733 390.794 27.06C390.794 26.6467 390.934 26.3 391.214 26.02C391.494 25.74 391.84 25.6 392.254 25.6C392.654 25.6 392.994 25.74 393.274 26.02C393.554 26.3 393.694 26.6467 393.694 27.06C393.694 27.4733 393.554 27.82 393.274 28.1C392.994 28.38 392.654 28.52 392.254 28.52ZM393.374 29.98V41H391.094V29.98H393.374ZM401.147 41.18C400.107 41.18 399.167 40.9467 398.327 40.48C397.487 40 396.827 39.3333 396.347 38.48C395.867 37.6133 395.627 36.6133 395.627 35.48C395.627 34.36 395.874 33.3667 396.367 32.5C396.861 31.6333 397.534 30.9667 398.387 30.5C399.241 30.0333 400.194 29.8 401.247 29.8C402.301 29.8 403.254 30.0333 404.107 30.5C404.961 30.9667 405.634 31.6333 406.127 32.5C406.621 33.3667 406.867 34.36 406.867 35.48C406.867 36.6 406.614 37.5933 406.107 38.46C405.601 39.3267 404.907 40 404.027 40.48C403.161 40.9467 402.201 41.18 401.147 41.18ZM401.147 39.2C401.734 39.2 402.281 39.06 402.787 38.78C403.307 38.5 403.727 38.08 404.047 37.52C404.367 36.96 404.527 36.28 404.527 35.48C404.527 34.68 404.374 34.0067 404.067 33.46C403.761 32.9 403.354 32.48 402.847 32.2C402.341 31.92 401.794 31.78 401.207 31.78C400.621 31.78 400.074 31.92 399.567 32.2C399.074 32.48 398.681 32.9 398.387 33.46C398.094 34.0067 397.947 34.68 397.947 35.48C397.947 36.6667 398.247 37.5867 398.847 38.24C399.461 38.88 400.227 39.2 401.147 39.2ZM414.681 29.8C415.548 29.8 416.321 29.98 417.001 30.34C417.694 30.7 418.234 31.2333 418.621 31.94C419.008 32.6467 419.201 33.5 419.201 34.5V41H416.941V34.84C416.941 33.8533 416.694 33.1 416.201 32.58C415.708 32.0467 415.034 31.78 414.181 31.78C413.328 31.78 412.648 32.0467 412.141 32.58C411.648 33.1 411.401 33.8533 411.401 34.84V41H409.121V29.98H411.401V31.24C411.774 30.7867 412.248 30.4333 412.821 30.18C413.408 29.9267 414.028 29.8 414.681 29.8Z" fill="#525252"/>
<path d="M290.428 103.42C292.732 101.428 294.544 99.796 295.864 98.524C297.208 97.228 298.324 95.884 299.212 94.492C300.1 93.1 300.544 91.708 300.544 90.316C300.544 88.876 300.196 87.748 299.5 86.932C298.828 86.116 297.76 85.708 296.296 85.708C294.88 85.708 293.776 86.164 292.984 87.076C292.216 87.964 291.808 89.164 291.76 90.676H287.8C287.872 87.94 288.688 85.852 290.248 84.412C291.832 82.948 293.836 82.216 296.26 82.216C298.876 82.216 300.916 82.936 302.38 84.376C303.868 85.816 304.612 87.736 304.612 90.136C304.612 91.864 304.168 93.532 303.28 95.14C302.416 96.724 301.372 98.152 300.148 99.424C298.948 100.672 297.412 102.124 295.54 103.78L293.92 105.22H305.332V108.64H287.836V105.652L290.428 103.42ZM323.049 88.84C322.785 87.736 322.305 86.908 321.609 86.356C320.913 85.804 319.941 85.528 318.693 85.528C316.797 85.528 315.381 86.26 314.445 87.724C313.509 89.164 313.017 91.564 312.969 94.924C313.593 93.868 314.505 93.052 315.705 92.476C316.905 91.9 318.201 91.612 319.593 91.612C321.177 91.612 322.569 91.96 323.769 92.656C324.993 93.328 325.941 94.312 326.613 95.608C327.309 96.904 327.657 98.452 327.657 100.252C327.657 101.932 327.321 103.432 326.649 104.752C326.001 106.072 325.029 107.116 323.733 107.884C322.437 108.628 320.877 109 319.053 109C316.581 109 314.637 108.46 313.221 107.38C311.829 106.276 310.845 104.728 310.269 102.736C309.717 100.744 309.441 98.26 309.441 95.284C309.441 86.5 312.537 82.108 318.729 82.108C321.129 82.108 323.013 82.756 324.381 84.052C325.773 85.348 326.589 86.944 326.829 88.84H323.049ZM318.693 95.068C317.229 95.068 315.981 95.512 314.949 96.4C313.941 97.264 313.437 98.524 313.437 100.18C313.437 101.836 313.905 103.156 314.841 104.14C315.801 105.1 317.133 105.58 318.837 105.58C320.349 105.58 321.537 105.112 322.401 104.176C323.289 103.24 323.733 101.992 323.733 100.432C323.733 98.8 323.301 97.504 322.437 96.544C321.597 95.56 320.349 95.068 318.693 95.068ZM334.231 109.252C333.487 109.252 332.863 109 332.359 108.496C331.855 107.992 331.603 107.368 331.603 106.624C331.603 105.88 331.855 105.256 332.359 104.752C332.863 104.248 333.487 103.996 334.231 103.996C334.951 103.996 335.563 104.248 336.067 104.752C336.571 105.256 336.823 105.88 336.823 106.624C336.823 107.368 336.571 107.992 336.067 108.496C335.563 109 334.951 109.252 334.231 109.252ZM340.179 86.5V82.756H347.667V109H343.527V86.5H340.179ZM352.657 89.092C352.657 87.34 353.161 85.972 354.169 84.988C355.201 83.98 356.521 83.476 358.129 83.476C359.737 83.476 361.045 83.98 362.053 84.988C363.085 85.972 363.601 87.34 363.601 89.092C363.601 90.844 363.085 92.224 362.053 93.232C361.045 94.24 359.737 94.744 358.129 94.744C356.521 94.744 355.201 94.24 354.169 93.232C353.161 92.224 352.657 90.844 352.657 89.092ZM374.617 83.944L360.253 109H356.221L370.585 83.944H374.617ZM358.129 85.96C356.617 85.96 355.861 87.004 355.861 89.092C355.861 91.204 356.617 92.26 358.129 92.26C358.849 92.26 359.401 92.008 359.785 91.504C360.193 90.976 360.397 90.172 360.397 89.092C360.397 87.004 359.641 85.96 358.129 85.96ZM367.309 103.816C367.309 102.064 367.813 100.696 368.821 99.712C369.853 98.704 371.173 98.2 372.781 98.2C374.365 98.2 375.661 98.704 376.669 99.712C377.701 100.696 378.217 102.064 378.217 103.816C378.217 105.568 377.701 106.948 376.669 107.956C375.661 108.964 374.365 109.468 372.781 109.468C371.173 109.468 369.853 108.964 368.821 107.956C367.813 106.948 367.309 105.568 367.309 103.816ZM372.745 100.684C371.233 100.684 370.477 101.728 370.477 103.816C370.477 105.904 371.233 106.948 372.745 106.948C374.257 106.948 375.013 105.904 375.013 103.816C375.013 101.728 374.257 100.684 372.745 100.684Z" fill="#525252"/>
<g filter="url(#filter3_d_97_1155)">
<path d="M414 87.3467L425.167 107L441.5 85L449.333 98.7867L464 88.8133" stroke="#00CC66" stroke-linecap="round"/>
</g>
</g>
<g filter="url(#filter4_d_97_1155)">
<rect x="524" y="6" width="220" height="130" rx="10" fill="white"/>
<path d="M542.78 27.1V41H540.5V27.1H542.78ZM551.333 29.8C552.2 29.8 552.973 29.98 553.653 30.34C554.347 30.7 554.887 31.2333 555.273 31.94C555.66 32.6467 555.853 33.5 555.853 34.5V41H553.593V34.84C553.593 33.8533 553.347 33.1 552.853 32.58C552.36 32.0467 551.687 31.78 550.833 31.78C549.98 31.78 549.3 32.0467 548.793 32.58C548.3 33.1 548.053 33.8533 548.053 34.84V41H545.773V29.98H548.053V31.24C548.427 30.7867 548.9 30.4333 549.473 30.18C550.06 29.9267 550.68 29.8 551.333 29.8ZM558.002 35.48C558.002 34.3467 558.228 33.3533 558.682 32.5C559.148 31.6333 559.788 30.9667 560.602 30.5C561.415 30.0333 562.348 29.8 563.402 29.8C564.735 29.8 565.835 30.12 566.702 30.76C567.582 31.3867 568.175 32.2867 568.482 33.46H566.022C565.822 32.9133 565.502 32.4867 565.062 32.18C564.622 31.8733 564.068 31.72 563.402 31.72C562.468 31.72 561.722 32.0533 561.162 32.72C560.615 33.3733 560.342 34.2933 560.342 35.48C560.342 36.6667 560.615 37.5933 561.162 38.26C561.722 38.9267 562.468 39.26 563.402 39.26C564.722 39.26 565.595 38.68 566.022 37.52H568.482C568.162 38.64 567.562 39.5333 566.682 40.2C565.802 40.8533 564.708 41.18 563.402 41.18C562.348 41.18 561.415 40.9467 560.602 40.48C559.788 40 559.148 39.3333 558.682 38.48C558.228 37.6133 558.002 36.6133 558.002 35.48ZM575.534 41.18C574.494 41.18 573.554 40.9467 572.714 40.48C571.874 40 571.214 39.3333 570.734 38.48C570.254 37.6133 570.014 36.6133 570.014 35.48C570.014 34.36 570.261 33.3667 570.754 32.5C571.247 31.6333 571.921 30.9667 572.774 30.5C573.627 30.0333 574.581 29.8 575.634 29.8C576.687 29.8 577.641 30.0333 578.494 30.5C579.347 30.9667 580.021 31.6333 580.514 32.5C581.007 33.3667 581.254 34.36 581.254 35.48C581.254 36.6 581.001 37.5933 580.494 38.46C579.987 39.3267 579.294 40 578.414 40.48C577.547 40.9467 576.587 41.18 575.534 41.18ZM575.534 39.2C576.121 39.2 576.667 39.06 577.174 38.78C577.694 38.5 578.114 38.08 578.434 37.52C578.754 36.96 578.914 36.28 578.914 35.48C578.914 34.68 578.761 34.0067 578.454 33.46C578.147 32.9 577.741 32.48 577.234 32.2C576.727 31.92 576.181 31.78 575.594 31.78C575.007 31.78 574.461 31.92 573.954 32.2C573.461 32.48 573.067 32.9 572.774 33.46C572.481 34.0067 572.334 34.68 572.334 35.48C572.334 36.6667 572.634 37.5867 573.234 38.24C573.847 38.88 574.614 39.2 575.534 39.2ZM596.848 29.8C597.714 29.8 598.488 29.98 599.168 30.34C599.861 30.7 600.401 31.2333 600.788 31.94C601.188 32.6467 601.388 33.5 601.388 34.5V41H599.128V34.84C599.128 33.8533 598.881 33.1 598.388 32.58C597.894 32.0467 597.221 31.78 596.368 31.78C595.514 31.78 594.834 32.0467 594.328 32.58C593.834 33.1 593.588 33.8533 593.588 34.84V41H591.328V34.84C591.328 33.8533 591.081 33.1 590.588 32.58C590.094 32.0467 589.421 31.78 588.568 31.78C587.714 31.78 587.034 32.0467 586.528 32.58C586.034 33.1 585.788 33.8533 585.788 34.84V41H583.508V29.98H585.788V31.24C586.161 30.7867 586.634 30.4333 587.208 30.18C587.781 29.9267 588.394 29.8 589.048 29.8C589.928 29.8 590.714 29.9867 591.408 30.36C592.101 30.7333 592.634 31.2733 593.008 31.98C593.341 31.3133 593.861 30.7867 594.568 30.4C595.274 30 596.034 29.8 596.848 29.8ZM614.389 35.22C614.389 35.6333 614.362 36.0067 614.309 36.34H605.889C605.956 37.22 606.282 37.9267 606.869 38.46C607.456 38.9933 608.176 39.26 609.029 39.26C610.256 39.26 611.122 38.7467 611.629 37.72H614.089C613.756 38.7333 613.149 39.5667 612.269 40.22C611.402 40.86 610.322 41.18 609.029 41.18C607.976 41.18 607.029 40.9467 606.189 40.48C605.362 40 604.709 39.3333 604.229 38.48C603.762 37.6133 603.529 36.6133 603.529 35.48C603.529 34.3467 603.756 33.3533 604.209 32.5C604.676 31.6333 605.322 30.9667 606.149 30.5C606.989 30.0333 607.949 29.8 609.029 29.8C610.069 29.8 610.996 30.0267 611.809 30.48C612.622 30.9333 613.256 31.5733 613.709 32.4C614.162 33.2133 614.389 34.1533 614.389 35.22ZM612.009 34.5C611.996 33.66 611.696 32.9867 611.109 32.48C610.522 31.9733 609.796 31.72 608.929 31.72C608.142 31.72 607.469 31.9733 606.909 32.48C606.349 32.9733 606.016 33.6467 605.909 34.5H612.009ZM631.888 31.1C631.528 30.4067 631.028 29.8867 630.388 29.54C629.748 29.18 629.008 29 628.168 29C627.248 29 626.428 29.2067 625.708 29.62C624.988 30.0333 624.421 30.62 624.008 31.38C623.608 32.14 623.408 33.02 623.408 34.02C623.408 35.02 623.608 35.9067 624.008 36.68C624.421 37.44 624.988 38.0267 625.708 38.44C626.428 38.8533 627.248 39.06 628.168 39.06C629.408 39.06 630.415 38.7133 631.188 38.02C631.961 37.3267 632.435 36.3867 632.608 35.2H627.388V33.38H635.048V35.16C634.901 36.24 634.515 37.2333 633.888 38.14C633.275 39.0467 632.468 39.7733 631.468 40.32C630.481 40.8533 629.381 41.12 628.168 41.12C626.861 41.12 625.668 40.82 624.588 40.22C623.508 39.6067 622.648 38.76 622.008 37.68C621.381 36.6 621.068 35.38 621.068 34.02C621.068 32.66 621.381 31.44 622.008 30.36C622.648 29.28 623.508 28.44 624.588 27.84C625.681 27.2267 626.875 26.92 628.168 26.92C629.648 26.92 630.961 27.2867 632.108 28.02C633.268 28.74 634.108 29.7667 634.628 31.1H631.888ZM647.397 35.22C647.397 35.6333 647.37 36.0067 647.317 36.34H638.897C638.964 37.22 639.29 37.9267 639.877 38.46C640.464 38.9933 641.184 39.26 642.037 39.26C643.264 39.26 644.13 38.7467 644.637 37.72H647.097C646.764 38.7333 646.157 39.5667 645.277 40.22C644.41 40.86 643.33 41.18 642.037 41.18C640.984 41.18 640.037 40.9467 639.197 40.48C638.37 40 637.717 39.3333 637.237 38.48C636.77 37.6133 636.537 36.6133 636.537 35.48C636.537 34.3467 636.764 33.3533 637.217 32.5C637.684 31.6333 638.33 30.9667 639.157 30.5C639.997 30.0333 640.957 29.8 642.037 29.8C643.077 29.8 644.004 30.0267 644.817 30.48C645.63 30.9333 646.264 31.5733 646.717 32.4C647.17 33.2133 647.397 34.1533 647.397 35.22ZM645.017 34.5C645.004 33.66 644.704 32.9867 644.117 32.48C643.53 31.9733 642.804 31.72 641.937 31.72C641.15 31.72 640.477 31.9733 639.917 32.48C639.357 32.9733 639.024 33.6467 638.917 34.5H645.017ZM655.201 29.8C656.067 29.8 656.841 29.98 657.521 30.34C658.214 30.7 658.754 31.2333 659.141 31.94C659.527 32.6467 659.721 33.5 659.721 34.5V41H657.461V34.84C657.461 33.8533 657.214 33.1 656.721 32.58C656.227 32.0467 655.554 31.78 654.701 31.78C653.847 31.78 653.167 32.0467 652.661 32.58C652.167 33.1 651.921 33.8533 651.921 34.84V41H649.641V29.98H651.921V31.24C652.294 30.7867 652.767 30.4333 653.341 30.18C653.927 29.9267 654.547 29.8 655.201 29.8ZM672.729 35.22C672.729 35.6333 672.702 36.0067 672.649 36.34H664.229C664.296 37.22 664.622 37.9267 665.209 38.46C665.796 38.9933 666.516 39.26 667.369 39.26C668.596 39.26 669.462 38.7467 669.969 37.72H672.429C672.096 38.7333 671.489 39.5667 670.609 40.22C669.742 40.86 668.662 41.18 667.369 41.18C666.316 41.18 665.369 40.9467 664.529 40.48C663.702 40 663.049 39.3333 662.569 38.48C662.102 37.6133 661.869 36.6133 661.869 35.48C661.869 34.3467 662.096 33.3533 662.549 32.5C663.016 31.6333 663.662 30.9667 664.489 30.5C665.329 30.0333 666.289 29.8 667.369 29.8C668.409 29.8 669.336 30.0267 670.149 30.48C670.962 30.9333 671.596 31.5733 672.049 32.4C672.502 33.2133 672.729 34.1533 672.729 35.22ZM670.349 34.5C670.336 33.66 670.036 32.9867 669.449 32.48C668.862 31.9733 668.136 31.72 667.269 31.72C666.482 31.72 665.809 31.9733 665.249 32.48C664.689 32.9733 664.356 33.6467 664.249 34.5H670.349ZM677.253 31.58C677.586 31.02 678.026 30.5867 678.573 30.28C679.133 29.96 679.793 29.8 680.553 29.8V32.16H679.973C679.079 32.16 678.399 32.3867 677.933 32.84C677.479 33.2933 677.253 34.08 677.253 35.2V41H674.973V29.98H677.253V31.58ZM681.888 35.44C681.888 34.3333 682.115 33.3533 682.568 32.5C683.035 31.6467 683.662 30.9867 684.448 30.52C685.248 30.04 686.128 29.8 687.088 29.8C687.955 29.8 688.708 29.9733 689.348 30.32C690.002 30.6533 690.522 31.0733 690.908 31.58V29.98H693.208V41H690.908V39.36C690.522 39.88 689.995 40.3133 689.328 40.66C688.662 41.0067 687.902 41.18 687.048 41.18C686.102 41.18 685.235 40.94 684.448 40.46C683.662 39.9667 683.035 39.2867 682.568 38.42C682.115 37.54 681.888 36.5467 681.888 35.44ZM690.908 35.48C690.908 34.72 690.748 34.06 690.428 33.5C690.122 32.94 689.715 32.5133 689.208 32.22C688.702 31.9267 688.155 31.78 687.568 31.78C686.982 31.78 686.435 31.9267 685.928 32.22C685.422 32.5 685.008 32.92 684.688 33.48C684.382 34.0267 684.228 34.68 684.228 35.44C684.228 36.2 684.382 36.8667 684.688 37.44C685.008 38.0133 685.422 38.4533 685.928 38.76C686.448 39.0533 686.995 39.2 687.568 39.2C688.155 39.2 688.702 39.0533 689.208 38.76C689.715 38.4667 690.122 38.04 690.428 37.48C690.748 36.9067 690.908 36.24 690.908 35.48ZM698.863 31.84V37.94C698.863 38.3533 698.956 38.6533 699.143 38.84C699.343 39.0133 699.676 39.1 700.143 39.1H701.543V41H699.743C698.716 41 697.93 40.76 697.383 40.28C696.836 39.8 696.563 39.02 696.563 37.94V31.84H695.263V29.98H696.563V27.24H698.863V29.98H701.543V31.84H698.863ZM713.745 35.22C713.745 35.6333 713.718 36.0067 713.665 36.34H705.245C705.311 37.22 705.638 37.9267 706.225 38.46C706.811 38.9933 707.531 39.26 708.385 39.26C709.611 39.26 710.478 38.7467 710.985 37.72H713.445C713.111 38.7333 712.505 39.5667 711.625 40.22C710.758 40.86 709.678 41.18 708.385 41.18C707.331 41.18 706.385 40.9467 705.545 40.48C704.718 40 704.065 39.3333 703.585 38.48C703.118 37.6133 702.885 36.6133 702.885 35.48C702.885 34.3467 703.111 33.3533 703.565 32.5C704.031 31.6333 704.678 30.9667 705.505 30.5C706.345 30.0333 707.305 29.8 708.385 29.8C709.425 29.8 710.351 30.0267 711.165 30.48C711.978 30.9333 712.611 31.5733 713.065 32.4C713.518 33.2133 713.745 34.1533 713.745 35.22ZM711.365 34.5C711.351 33.66 711.051 32.9867 710.465 32.48C709.878 31.9733 709.151 31.72 708.285 31.72C707.498 31.72 706.825 31.9733 706.265 32.48C705.705 32.9733 705.371 33.6467 705.265 34.5H711.365ZM715.228 35.44C715.228 34.3333 715.455 33.3533 715.908 32.5C716.375 31.6467 717.002 30.9867 717.788 30.52C718.588 30.04 719.475 29.8 720.448 29.8C721.168 29.8 721.875 29.96 722.568 30.28C723.275 30.5867 723.835 31 724.248 31.52V26.2H726.548V41H724.248V39.34C723.875 39.8733 723.355 40.3133 722.688 40.66C722.035 41.0067 721.282 41.18 720.428 41.18C719.468 41.18 718.588 40.94 717.788 40.46C717.002 39.9667 716.375 39.2867 715.908 38.42C715.455 37.54 715.228 36.5467 715.228 35.44ZM724.248 35.48C724.248 34.72 724.088 34.06 723.768 33.5C723.462 32.94 723.055 32.5133 722.548 32.22C722.042 31.9267 721.495 31.78 720.908 31.78C720.322 31.78 719.775 31.9267 719.268 32.22C718.762 32.5 718.348 32.92 718.028 33.48C717.722 34.0267 717.568 34.68 717.568 35.44C717.568 36.2 717.722 36.8667 718.028 37.44C718.348 38.0133 718.762 38.4533 719.268 38.76C719.788 39.0533 720.335 39.2 720.908 39.2C721.495 39.2 722.042 39.0533 722.548 38.76C723.055 38.4667 723.462 38.04 723.768 37.48C724.088 36.9067 724.248 36.24 724.248 35.48Z" fill="#525252"/>
<path d="M558.584 101.872C558.584 103.072 558.284 104.2 557.684 105.256C557.108 106.312 556.244 107.2 555.092 107.92C553.964 108.64 552.62 109.072 551.06 109.216V112.132H548.72V109.216C546.464 109 544.64 108.292 543.248 107.092C541.856 105.892 541.16 104.308 541.16 102.34H545.552C545.624 103.276 545.924 104.056 546.452 104.68C546.98 105.28 547.736 105.664 548.72 105.832V97.912C547.112 97.504 545.804 97.096 544.796 96.688C543.788 96.256 542.924 95.584 542.204 94.672C541.508 93.76 541.16 92.512 541.16 90.928C541.16 88.936 541.856 87.292 543.248 85.996C544.64 84.676 546.464 83.908 548.72 83.692V80.776H551.06V83.692C553.172 83.884 554.864 84.556 556.136 85.708C557.432 86.836 558.164 88.396 558.332 90.388H553.94C553.868 89.644 553.58 88.984 553.076 88.408C552.572 87.808 551.9 87.4 551.06 87.184V94.96C552.668 95.344 553.976 95.752 554.984 96.184C555.992 96.592 556.844 97.252 557.54 98.164C558.236 99.052 558.584 100.288 558.584 101.872ZM545.336 90.712C545.336 91.696 545.624 92.464 546.2 93.016C546.8 93.568 547.64 94.012 548.72 94.348V87.076C547.688 87.196 546.86 87.568 546.236 88.192C545.636 88.816 545.336 89.656 545.336 90.712ZM551.06 105.832C552.116 105.664 552.944 105.244 553.544 104.572C554.144 103.876 554.444 103.048 554.444 102.088C554.444 101.128 554.144 100.384 553.544 99.856C552.968 99.304 552.14 98.86 551.06 98.524V105.832ZM564.502 89.236C564.646 87.004 565.498 85.264 567.058 84.016C568.642 82.768 570.658 82.144 573.106 82.144C574.786 82.144 576.238 82.444 577.462 83.044C578.686 83.644 579.61 84.46 580.234 85.492C580.858 86.524 581.17 87.688 581.17 88.984C581.17 90.472 580.774 91.744 579.982 92.8C579.19 93.856 578.242 94.564 577.138 94.924V95.068C578.554 95.5 579.658 96.292 580.45 97.444C581.242 98.572 581.638 100.024 581.638 101.8C581.638 103.216 581.314 104.476 580.666 105.58C580.018 106.684 579.058 107.56 577.786 108.208C576.514 108.832 574.99 109.144 573.214 109.144C570.622 109.144 568.486 108.484 566.806 107.164C565.15 105.82 564.262 103.9 564.142 101.404H568.102C568.198 102.676 568.69 103.72 569.578 104.536C570.466 105.328 571.666 105.724 573.178 105.724C574.642 105.724 575.77 105.328 576.562 104.536C577.354 103.72 577.75 102.676 577.75 101.404C577.75 99.724 577.21 98.536 576.13 97.84C575.074 97.12 573.442 96.76 571.234 96.76H570.298V93.376H571.27C573.214 93.352 574.69 93.028 575.698 92.404C576.73 91.78 577.246 90.796 577.246 89.452C577.246 88.3 576.874 87.388 576.13 86.716C575.386 86.02 574.33 85.672 572.962 85.672C571.618 85.672 570.574 86.02 569.83 86.716C569.086 87.388 568.642 88.228 568.498 89.236H564.502ZM590.989 104.068L586.633 114.004H583.969L586.525 104.068H590.989ZM593.495 86.5V82.756H600.983V109H596.843V86.5H593.495ZM606.081 86.5V82.756H613.569V109H609.429V86.5H606.081ZM621.475 103.42C623.779 101.428 625.591 99.796 626.911 98.524C628.255 97.228 629.371 95.884 630.259 94.492C631.147 93.1 631.591 91.708 631.591 90.316C631.591 88.876 631.243 87.748 630.547 86.932C629.875 86.116 628.807 85.708 627.343 85.708C625.927 85.708 624.823 86.164 624.031 87.076C623.263 87.964 622.855 89.164 622.807 90.676H618.847C618.919 87.94 619.735 85.852 621.295 84.412C622.879 82.948 624.883 82.216 627.307 82.216C629.923 82.216 631.963 82.936 633.427 84.376C634.915 85.816 635.659 87.736 635.659 90.136C635.659 91.864 635.215 93.532 634.327 95.14C633.463 96.724 632.419 98.152 631.195 99.424C629.995 100.672 628.459 102.124 626.587 103.78L624.967 105.22H636.379V108.64H618.883V105.652L621.475 103.42ZM645.024 104.068L640.668 114.004H638.004L640.56 104.068H645.024ZM647.53 86.5V82.756H655.018V109H650.878V86.5H647.53ZM660.584 89.236C660.728 87.004 661.58 85.264 663.14 84.016C664.724 82.768 666.74 82.144 669.188 82.144C670.868 82.144 672.32 82.444 673.544 83.044C674.768 83.644 675.692 84.46 676.316 85.492C676.94 86.524 677.252 87.688 677.252 88.984C677.252 90.472 676.856 91.744 676.064 92.8C675.272 93.856 674.324 94.564 673.22 94.924V95.068C674.636 95.5 675.74 96.292 676.532 97.444C677.324 98.572 677.72 100.024 677.72 101.8C677.72 103.216 677.396 104.476 676.748 105.58C676.1 106.684 675.14 107.56 673.868 108.208C672.596 108.832 671.072 109.144 669.296 109.144C666.704 109.144 664.568 108.484 662.888 107.164C661.232 105.82 660.344 103.9 660.224 101.404H664.184C664.28 102.676 664.772 103.72 665.66 104.536C666.548 105.328 667.748 105.724 669.26 105.724C670.724 105.724 671.852 105.328 672.644 104.536C673.436 103.72 673.832 102.676 673.832 101.404C673.832 99.724 673.292 98.536 672.212 97.84C671.156 97.12 669.524 96.76 667.316 96.76H666.38V93.376H667.352C669.296 93.352 670.772 93.028 671.78 92.404C672.812 91.78 673.328 90.796 673.328 89.452C673.328 88.3 672.956 87.388 672.212 86.716C671.468 86.02 670.412 85.672 669.044 85.672C667.7 85.672 666.656 86.02 665.912 86.716C665.168 87.388 664.724 88.228 664.58 89.236H660.584ZM681.527 103.528V100.432L693.623 83.08H698.591V99.964H701.939V103.528H698.591V109H694.559V103.528H681.527ZM694.739 87.256L686.243 99.964H694.739V87.256Z" fill="#525252"/>
</g>
<g filter="url(#filter5_d_97_1155)">
<rect x="783" y="6" width="220" height="130" rx="10" fill="white"/>
<path d="M812.48 27.1V28.96H808.78V41H806.5V28.96H802.78V27.1H812.48ZM819.569 41.18C818.529 41.18 817.589 40.9467 816.749 40.48C815.909 40 815.249 39.3333 814.769 38.48C814.289 37.6133 814.049 36.6133 814.049 35.48C814.049 34.36 814.296 33.3667 814.789 32.5C815.282 31.6333 815.956 30.9667 816.809 30.5C817.662 30.0333 818.616 29.8 819.669 29.8C820.722 29.8 821.676 30.0333 822.529 30.5C823.382 30.9667 824.056 31.6333 824.549 32.5C825.042 33.3667 825.289 34.36 825.289 35.48C825.289 36.6 825.036 37.5933 824.529 38.46C824.022 39.3267 823.329 40 822.449 40.48C821.582 40.9467 820.622 41.18 819.569 41.18ZM819.569 39.2C820.156 39.2 820.702 39.06 821.209 38.78C821.729 38.5 822.149 38.08 822.469 37.52C822.789 36.96 822.949 36.28 822.949 35.48C822.949 34.68 822.796 34.0067 822.489 33.46C822.182 32.9 821.776 32.48 821.269 32.2C820.762 31.92 820.216 31.78 819.629 31.78C819.042 31.78 818.496 31.92 817.989 32.2C817.496 32.48 817.102 32.9 816.809 33.46C816.516 34.0067 816.369 34.68 816.369 35.48C816.369 36.6667 816.669 37.5867 817.269 38.24C817.882 38.88 818.649 39.2 819.569 39.2ZM830.203 31.84V37.94C830.203 38.3533 830.296 38.6533 830.483 38.84C830.683 39.0133 831.016 39.1 831.483 39.1H832.883V41H831.083C830.056 41 829.27 40.76 828.723 40.28C828.176 39.8 827.903 39.02 827.903 37.94V31.84H826.603V29.98H827.903V27.24H830.203V29.98H832.883V31.84H830.203ZM834.224 35.44C834.224 34.3333 834.451 33.3533 834.904 32.5C835.371 31.6467 835.998 30.9867 836.784 30.52C837.584 30.04 838.464 29.8 839.424 29.8C840.291 29.8 841.044 29.9733 841.684 30.32C842.338 30.6533 842.858 31.0733 843.244 31.58V29.98H845.544V41H843.244V39.36C842.858 39.88 842.331 40.3133 841.664 40.66C840.998 41.0067 840.238 41.18 839.384 41.18C838.438 41.18 837.571 40.94 836.784 40.46C835.998 39.9667 835.371 39.2867 834.904 38.42C834.451 37.54 834.224 36.5467 834.224 35.44ZM843.244 35.48C843.244 34.72 843.084 34.06 842.764 33.5C842.458 32.94 842.051 32.5133 841.544 32.22C841.038 31.9267 840.491 31.78 839.904 31.78C839.318 31.78 838.771 31.9267 838.264 32.22C837.758 32.5 837.344 32.92 837.024 33.48C836.718 34.0267 836.564 34.68 836.564 35.44C836.564 36.2 836.718 36.8667 837.024 37.44C837.344 38.0133 837.758 38.4533 838.264 38.76C838.784 39.0533 839.331 39.2 839.904 39.2C840.491 39.2 841.038 39.0533 841.544 38.76C842.051 38.4667 842.458 38.04 842.764 37.48C843.084 36.9067 843.244 36.24 843.244 35.48ZM850.819 26.2V41H848.539V26.2H850.819ZM868.728 31.24C868.728 31.9467 868.561 32.6133 868.228 33.24C867.894 33.8667 867.361 34.38 866.628 34.78C865.894 35.1667 864.954 35.36 863.808 35.36H861.288V41H859.008V27.1H863.808C864.874 27.1 865.774 27.2867 866.508 27.66C867.254 28.02 867.808 28.5133 868.168 29.14C868.541 29.7667 868.728 30.4667 868.728 31.24ZM863.808 33.5C864.674 33.5 865.321 33.3067 865.748 32.92C866.174 32.52 866.388 31.96 866.388 31.24C866.388 29.72 865.528 28.96 863.808 28.96H861.288V33.5H863.808ZM870.142 35.44C870.142 34.3333 870.369 33.3533 870.822 32.5C871.289 31.6467 871.916 30.9867 872.702 30.52C873.502 30.04 874.382 29.8 875.342 29.8C876.209 29.8 876.962 29.9733 877.602 30.32C878.256 30.6533 878.776 31.0733 879.162 31.58V29.98H881.462V41H879.162V39.36C878.776 39.88 878.249 40.3133 877.582 40.66C876.916 41.0067 876.156 41.18 875.302 41.18C874.356 41.18 873.489 40.94 872.702 40.46C871.916 39.9667 871.289 39.2867 870.822 38.42C870.369 37.54 870.142 36.5467 870.142 35.44ZM879.162 35.48C879.162 34.72 879.002 34.06 878.682 33.5C878.376 32.94 877.969 32.5133 877.462 32.22C876.956 31.9267 876.409 31.78 875.822 31.78C875.236 31.78 874.689 31.9267 874.182 32.22C873.676 32.5 873.262 32.92 872.942 33.48C872.636 34.0267 872.482 34.68 872.482 35.44C872.482 36.2 872.636 36.8667 872.942 37.44C873.262 38.0133 873.676 38.4533 874.182 38.76C874.702 39.0533 875.249 39.2 875.822 39.2C876.409 39.2 876.956 39.0533 877.462 38.76C877.969 38.4667 878.376 38.04 878.682 37.48C879.002 36.9067 879.162 36.24 879.162 35.48ZM894.377 29.98L887.617 46.18H885.257L887.497 40.82L883.157 29.98H885.697L888.797 38.38L892.017 29.98H894.377ZM900.878 41.18C899.838 41.18 898.898 40.9467 898.058 40.48C897.218 40 896.558 39.3333 896.078 38.48C895.598 37.6133 895.358 36.6133 895.358 35.48C895.358 34.36 895.604 33.3667 896.098 32.5C896.591 31.6333 897.264 30.9667 898.118 30.5C898.971 30.0333 899.924 29.8 900.978 29.8C902.031 29.8 902.984 30.0333 903.838 30.5C904.691 30.9667 905.364 31.6333 905.858 32.5C906.351 33.3667 906.598 34.36 906.598 35.48C906.598 36.6 906.344 37.5933 905.838 38.46C905.331 39.3267 904.638 40 903.758 40.48C902.891 40.9467 901.931 41.18 900.878 41.18ZM900.878 39.2C901.464 39.2 902.011 39.06 902.518 38.78C903.038 38.5 903.458 38.08 903.778 37.52C904.098 36.96 904.258 36.28 904.258 35.48C904.258 34.68 904.104 34.0067 903.798 33.46C903.491 32.9 903.084 32.48 902.578 32.2C902.071 31.92 901.524 31.78 900.938 31.78C900.351 31.78 899.804 31.92 899.298 32.2C898.804 32.48 898.411 32.9 898.118 33.46C897.824 34.0067 897.678 34.68 897.678 35.48C897.678 36.6667 897.978 37.5867 898.578 38.24C899.191 38.88 899.958 39.2 900.878 39.2ZM918.832 29.98V41H916.552V39.7C916.192 40.1533 915.718 40.5133 915.132 40.78C914.558 41.0333 913.945 41.16 913.292 41.16C912.425 41.16 911.645 40.98 910.952 40.62C910.272 40.26 909.732 39.7267 909.332 39.02C908.945 38.3133 908.752 37.46 908.752 36.46V29.98H911.012V36.12C911.012 37.1067 911.258 37.8667 911.752 38.4C912.245 38.92 912.918 39.18 913.772 39.18C914.625 39.18 915.298 38.92 915.792 38.4C916.298 37.8667 916.552 37.1067 916.552 36.12V29.98H918.832ZM924.5 31.84V37.94C924.5 38.3533 924.593 38.6533 924.78 38.84C924.98 39.0133 925.313 39.1 925.78 39.1H927.18V41H925.38C924.353 41 923.567 40.76 923.02 40.28C922.473 39.8 922.2 39.02 922.2 37.94V31.84H920.9V29.98H922.2V27.24H924.5V29.98H927.18V31.84H924.5ZM933.281 41.18C932.415 41.18 931.635 41.0267 930.941 40.72C930.261 40.4 929.721 39.9733 929.321 39.44C928.921 38.8933 928.708 38.2867 928.681 37.62H931.041C931.081 38.0867 931.301 38.48 931.701 38.8C932.115 39.1067 932.628 39.26 933.241 39.26C933.881 39.26 934.375 39.14 934.721 38.9C935.081 38.6467 935.261 38.3267 935.261 37.94C935.261 37.5267 935.061 37.22 934.661 37.02C934.275 36.82 933.655 36.6 932.801 36.36C931.975 36.1333 931.301 35.9133 930.781 35.7C930.261 35.4867 929.808 35.16 929.421 34.72C929.048 34.28 928.861 33.7 928.861 32.98C928.861 32.3933 929.035 31.86 929.381 31.38C929.728 30.8867 930.221 30.5 930.861 30.22C931.515 29.94 932.261 29.8 933.101 29.8C934.355 29.8 935.361 30.12 936.121 30.76C936.895 31.3867 937.308 32.2467 937.361 33.34H935.081C935.041 32.8467 934.841 32.4533 934.481 32.16C934.121 31.8667 933.635 31.72 933.021 31.72C932.421 31.72 931.961 31.8333 931.641 32.06C931.321 32.2867 931.161 32.5867 931.161 32.96C931.161 33.2533 931.268 33.5 931.481 33.7C931.695 33.9 931.955 34.06 932.261 34.18C932.568 34.2867 933.021 34.4267 933.621 34.6C934.421 34.8133 935.075 35.0333 935.581 35.26C936.101 35.4733 936.548 35.7933 936.921 36.22C937.295 36.6467 937.488 37.2133 937.501 37.92C937.501 38.5467 937.328 39.1067 936.981 39.6C936.635 40.0933 936.141 40.48 935.501 40.76C934.875 41.04 934.135 41.18 933.281 41.18Z" fill="#525252"/>
<path d="M821.584 101.872C821.584 103.072 821.284 104.2 820.684 105.256C820.108 106.312 819.244 107.2 818.092 107.92C816.964 108.64 815.62 109.072 814.06 109.216V112.132H811.72V109.216C809.464 109 807.64 108.292 806.248 107.092C804.856 105.892 804.16 104.308 804.16 102.34H808.552C808.624 103.276 808.924 104.056 809.452 104.68C809.98 105.28 810.736 105.664 811.72 105.832V97.912C810.112 97.504 808.804 97.096 807.796 96.688C806.788 96.256 805.924 95.584 805.204 94.672C804.508 93.76 804.16 92.512 804.16 90.928C804.16 88.936 804.856 87.292 806.248 85.996C807.64 84.676 809.464 83.908 811.72 83.692V80.776H814.06V83.692C816.172 83.884 817.864 84.556 819.136 85.708C820.432 86.836 821.164 88.396 821.332 90.388H816.94C816.868 89.644 816.58 88.984 816.076 88.408C815.572 87.808 814.9 87.4 814.06 87.184V94.96C815.668 95.344 816.976 95.752 817.984 96.184C818.992 96.592 819.844 97.252 820.54 98.164C821.236 99.052 821.584 100.288 821.584 101.872ZM808.336 90.712C808.336 91.696 808.624 92.464 809.2 93.016C809.8 93.568 810.64 94.012 811.72 94.348V87.076C810.688 87.196 809.86 87.568 809.236 88.192C808.636 88.816 808.336 89.656 808.336 90.712ZM814.06 105.832C815.116 105.664 815.944 105.244 816.544 104.572C817.144 103.876 817.444 103.048 817.444 102.088C817.444 101.128 817.144 100.384 816.544 99.856C815.968 99.304 815.14 98.86 814.06 98.524V105.832ZM827.034 86.5V82.756H834.522V109H830.382V86.5H827.034ZM845.2 104.068L840.844 114.004H838.18L840.736 104.068H845.2ZM850.514 103.42C852.818 101.428 854.63 99.796 855.95 98.524C857.294 97.228 858.41 95.884 859.298 94.492C860.186 93.1 860.63 91.708 860.63 90.316C860.63 88.876 860.282 87.748 859.586 86.932C858.914 86.116 857.846 85.708 856.382 85.708C854.966 85.708 853.862 86.164 853.07 87.076C852.302 87.964 851.894 89.164 851.846 90.676H847.886C847.958 87.94 848.774 85.852 850.334 84.412C851.918 82.948 853.922 82.216 856.346 82.216C858.962 82.216 861.002 82.936 862.466 84.376C863.954 85.816 864.698 87.736 864.698 90.136C864.698 91.864 864.254 93.532 863.366 95.14C862.502 96.724 861.458 98.152 860.234 99.424C859.034 100.672 857.498 102.124 855.626 103.78L854.006 105.22H865.418V108.64H847.922V105.652L850.514 103.42ZM871.291 103.42C873.595 101.428 875.407 99.796 876.727 98.524C878.071 97.228 879.187 95.884 880.075 94.492C880.963 93.1 881.407 91.708 881.407 90.316C881.407 88.876 881.059 87.748 880.363 86.932C879.691 86.116 878.623 85.708 877.159 85.708C875.743 85.708 874.639 86.164 873.847 87.076C873.079 87.964 872.671 89.164 872.623 90.676H868.663C868.735 87.94 869.551 85.852 871.111 84.412C872.695 82.948 874.699 82.216 877.123 82.216C879.739 82.216 881.779 82.936 883.243 84.376C884.731 85.816 885.475 87.736 885.475 90.136C885.475 91.864 885.031 93.532 884.143 95.14C883.279 96.724 882.235 98.152 881.011 99.424C879.811 100.672 878.275 102.124 876.403 103.78L874.783 105.22H886.195V108.64H868.699V105.652L871.291 103.42ZM889.729 89.236C889.873 87.004 890.725 85.264 892.285 84.016C893.869 82.768 895.885 82.144 898.333 82.144C900.013 82.144 901.465 82.444 902.689 83.044C903.913 83.644 904.837 84.46 905.461 85.492C906.085 86.524 906.397 87.688 906.397 88.984C906.397 90.472 906.001 91.744 905.209 92.8C904.417 93.856 903.469 94.564 902.365 94.924V95.068C903.781 95.5 904.885 96.292 905.677 97.444C906.469 98.572 906.865 100.024 906.865 101.8C906.865 103.216 906.541 104.476 905.893 105.58C905.245 106.684 904.285 107.56 903.013 108.208C901.741 108.832 900.217 109.144 898.441 109.144C895.849 109.144 893.713 108.484 892.033 107.164C890.377 105.82 889.489 103.9 889.369 101.404H893.329C893.425 102.676 893.917 103.72 894.805 104.536C895.693 105.328 896.893 105.724 898.405 105.724C899.869 105.724 900.997 105.328 901.789 104.536C902.581 103.72 902.977 102.676 902.977 101.404C902.977 99.724 902.437 98.536 901.357 97.84C900.301 97.12 898.669 96.76 896.461 96.76H895.525V93.376H896.497C898.441 93.352 899.917 93.028 900.925 92.404C901.957 91.78 902.473 90.796 902.473 89.452C902.473 88.3 902.101 87.388 901.357 86.716C900.613 86.02 899.557 85.672 898.189 85.672C896.845 85.672 895.801 86.02 895.057 86.716C894.313 87.388 893.869 88.228 893.725 89.236H889.729ZM916.216 104.068L911.86 114.004H909.196L911.752 104.068H916.216ZM936.182 86.284H924.122V93.448C924.626 92.776 925.37 92.212 926.354 91.756C927.362 91.3 928.43 91.072 929.558 91.072C931.574 91.072 933.206 91.504 934.454 92.368C935.726 93.232 936.626 94.324 937.154 95.644C937.706 96.964 937.982 98.356 937.982 99.82C937.982 101.596 937.634 103.18 936.938 104.572C936.266 105.94 935.246 107.02 933.878 107.812C932.534 108.604 930.878 109 928.91 109C926.294 109 924.194 108.352 922.61 107.056C921.026 105.76 920.078 104.044 919.766 101.908H923.762C924.026 103.036 924.614 103.936 925.526 104.608C926.438 105.256 927.578 105.58 928.946 105.58C930.65 105.58 931.922 105.064 932.762 104.032C933.626 103 934.058 101.632 934.058 99.928C934.058 98.2 933.626 96.88 932.762 95.968C931.898 95.032 930.626 94.564 928.946 94.564C927.77 94.564 926.774 94.864 925.958 95.464C925.166 96.04 924.59 96.832 924.23 97.84H920.342V82.684H936.182V86.284ZM956.366 88.84C956.102 87.736 955.622 86.908 954.926 86.356C954.23 85.804 953.258 85.528 952.01 85.528C950.114 85.528 948.698 86.26 947.762 87.724C946.826 89.164 946.334 91.564 946.286 94.924C946.91 93.868 947.822 93.052 949.022 92.476C950.222 91.9 951.518 91.612 952.91 91.612C954.494 91.612 955.886 91.96 957.086 92.656C958.31 93.328 959.258 94.312 959.93 95.608C960.626 96.904 960.974 98.452 960.974 100.252C960.974 101.932 960.638 103.432 959.966 104.752C959.318 106.072 958.346 107.116 957.05 107.884C955.754 108.628 954.194 109 952.37 109C949.898 109 947.954 108.46 946.538 107.38C945.146 106.276 944.162 104.728 943.586 102.736C943.034 100.744 942.758 98.26 942.758 95.284C942.758 86.5 945.854 82.108 952.046 82.108C954.446 82.108 956.33 82.756 957.698 84.052C959.09 85.348 959.906 86.944 960.146 88.84H956.366ZM952.01 95.068C950.546 95.068 949.298 95.512 948.266 96.4C947.258 97.264 946.754 98.524 946.754 100.18C946.754 101.836 947.222 103.156 948.158 104.14C949.118 105.1 950.45 105.58 952.154 105.58C953.666 105.58 954.854 105.112 955.718 104.176C956.606 103.24 957.05 101.992 957.05 100.432C957.05 98.8 956.618 97.504 955.754 96.544C954.914 95.56 953.666 95.068 952.01 95.068ZM981.983 85.924L971.975 109H967.835L977.951 86.356H964.631V82.864H981.983V85.924Z" fill="#525252"/>
</g>
<defs>
<filter id="filter0_d_97_1155" x="0" y="0" width="232" height="142" filterUnits="userSpaceOnUse" color-interpolation-filters="sRGB">
<feFlood flood-opacity="0" result="BackgroundImageFix"/>
<feColorMatrix in="SourceAlpha" type="matrix" values="0 0 0 0 0 0 0 0 0 0 0 0 0 0 0 0 0 0 127 0" result="hardAlpha"/>
<feOffset/>
<feGaussianBlur stdDeviation="3"/>
<feComposite in2="hardAlpha" operator="out"/>
<feColorMatrix type="matrix" values="0 0 0 0 0 0 0 0 0 0 0 0 0 0 0 0 0 0 0.25 0"/>
<feBlend mode="normal" in2="BackgroundImageFix" result="effect1_dropShadow_97_1155"/>
<feBlend mode="normal" in="SourceGraphic" in2="effect1_dropShadow_97_1155" result="shape"/>
</filter>
<filter id="filter1_d_97_1155" x="146.5" y="78.0862" width="67" height="39.8276" filterUnits="userSpaceOnUse" color-interpolation-filters="sRGB">
<feFlood flood-opacity="0" result="BackgroundImageFix"/>
<feColorMatrix in="SourceAlpha" type="matrix" values="0 0 0 0 0 0 0 0 0 0 0 0 0 0 0 0 0 0 127 0" result="hardAlpha"/>
<feOffset dy="2"/>
<feGaussianBlur stdDeviation="4"/>
<feComposite in2="hardAlpha" operator="out"/>
<feColorMatrix type="matrix" values="0 0 0 0 0.165521 0 0 0 0 0.555677 0 0 0 0 0.945833 0 0 0 1 0"/>
<feBlend mode="normal" in2="BackgroundImageFix" result="effect1_dropShadow_97_1155"/>
<feBlend mode="normal" in="SourceGraphic" in2="effect1_dropShadow_97_1155" result="shape"/>
</filter>
<filter id="filter2_d_97_1155" x="259" y="0" width="232" height="142" filterUnits="userSpaceOnUse" color-interpolation-filters="sRGB">
<feFlood flood-opacity="0" result="BackgroundImageFix"/>
<feColorMatrix in="SourceAlpha" type="matrix" values="0 0 0 0 0 0 0 0 0 0 0 0 0 0 0 0 0 0 127 0" result="hardAlpha"/>
<feOffset/>
<feGaussianBlur stdDeviation="3"/>
<feComposite in2="hardAlpha" operator="out"/>
<feColorMatrix type="matrix" values="0 0 0 0 0 0 0 0 0 0 0 0 0 0 0 0 0 0 0.25 0"/>
<feBlend mode="normal" in2="BackgroundImageFix" result="effect1_dropShadow_97_1155"/>
<feBlend mode="normal" in="SourceGraphic" in2="effect1_dropShadow_97_1155" result="shape"/>
</filter>
<filter id="filter3_d_97_1155" x="405.5" y="78.0862" width="67" height="39.8276" filterUnits="userSpaceOnUse" color-interpolation-filters="sRGB">
<feFlood flood-opacity="0" result="BackgroundImageFix"/>
<feColorMatrix in="SourceAlpha" type="matrix" values="0 0 0 0 0 0 0 0 0 0 0 0 0 0 0 0 0 0 127 0" result="hardAlpha"/>
<feOffset dy="2"/>
<feGaussianBlur stdDeviation="4"/>
<feComposite in2="hardAlpha" operator="out"/>
<feColorMatrix type="matrix" values="0 0 0 0 0.054902 0 0 0 0 0.807843 0 0 0 0 0.431373 0 0 0 1 0"/>
<feBlend mode="normal" in2="BackgroundImageFix" result="effect1_dropShadow_97_1155"/>
<feBlend mode="normal" in="SourceGraphic" in2="effect1_dropShadow_97_1155" result="shape"/>
</filter>
<filter id="filter4_d_97_1155" x="518" y="0" width="232" height="142" filterUnits="userSpaceOnUse" color-interpolation-filters="sRGB">
<feFlood flood-opacity="0" result="BackgroundImageFix"/>
<feColorMatrix in="SourceAlpha" type="matrix" values="0 0 0 0 0 0 0 0 0 0 0 0 0 0 0 0 0 0 127 0" result="hardAlpha"/>
<feOffset/>
<feGaussianBlur stdDeviation="3"/>
<feComposite in2="hardAlpha" operator="out"/>
<feColorMatrix type="matrix" values="0 0 0 0 0 0 0 0 0 0 0 0 0 0 0 0 0 0 0.25 0"/>
<feBlend mode="normal" in2="BackgroundImageFix" result="effect1_dropShadow_97_1155"/>
<feBlend mode="normal" in="SourceGraphic" in2="effect1_dropShadow_97_1155" result="shape"/>
</filter>
<filter id="filter5_d_97_1155" x="777" y="0" width="232" height="142" filterUnits="userSpaceOnUse" color-interpolation-filters="sRGB">
<feFlood flood-opacity="0" result="BackgroundImageFix"/>
<feColorMatrix in="SourceAlpha" type="matrix" values="0 0 0 0 0 0 0 0 0 0 0 0 0 0 0 0 0 0 127 0" result="hardAlpha"/>
<feOffset/>
<feGaussianBlur stdDeviation="3"/>
<feComposite in2="hardAlpha" operator="out"/>
<feColorMatrix type="matrix" values="0 0 0 0 0 0 0 0 0 0 0 0 0 0 0 0 0 0 0.25 0"/>
<feBlend mode="normal" in2="BackgroundImageFix" result="effect1_dropShadow_97_1155"/>
<feBlend mode="normal" in="SourceGraphic" in2="effect1_dropShadow_97_1155" result="shape"/>
</filter>
</defs>
</svg>
