<svg width="1085" height="303" viewBox="0 0 1085 303" fill="none" xmlns="http://www.w3.org/2000/svg">
<g filter="url(#filter0_d_97_1159)">
<rect x="6" y="6" width="1073" height="291" rx="10" fill="white" shape-rendering="crispEdges"/>
<path d="M30.704 32.848C31.92 32.848 32.9707 33.0773 33.856 33.536C34.752 33.984 35.4347 34.6293 35.904 35.472C36.384 36.3147 36.624 37.3067 36.624 38.448C36.624 39.5893 36.384 40.5813 35.904 41.424C35.4347 42.256 34.752 42.896 33.856 43.344C32.9707 43.7813 31.92 44 30.704 44H27.232V32.848H30.704ZM30.704 42.8C32.144 42.8 33.2427 42.4213 34 41.664C34.7573 40.896 35.136 39.824 35.136 38.448C35.136 37.0613 34.752 35.9787 33.984 35.2C33.2267 34.4213 32.1333 34.032 30.704 34.032H28.688V42.8H30.704ZM39.2965 33.808C39.0192 33.808 38.7845 33.712 38.5925 33.52C38.4005 33.328 38.3045 33.0933 38.3045 32.816C38.3045 32.5387 38.4005 32.304 38.5925 32.112C38.7845 31.92 39.0192 31.824 39.2965 31.824C39.5632 31.824 39.7872 31.92 39.9685 32.112C40.1605 32.304 40.2565 32.5387 40.2565 32.816C40.2565 33.0933 40.1605 33.328 39.9685 33.52C39.7872 33.712 39.5632 33.808 39.2965 33.808ZM40.0005 35.232V44H38.5445V35.232H40.0005ZM45.586 44.144C44.914 44.144 44.3113 44.032 43.778 43.808C43.2447 43.5733 42.8233 43.2533 42.514 42.848C42.2047 42.432 42.034 41.9573 42.002 41.424H43.506C43.5487 41.8613 43.7513 42.2187 44.114 42.496C44.4873 42.7733 44.9727 42.912 45.57 42.912C46.1247 42.912 46.562 42.7893 46.882 42.544C47.202 42.2987 47.362 41.9893 47.362 41.616C47.362 41.232 47.1913 40.9493 46.85 40.768C46.5087 40.576 45.9807 40.3893 45.266 40.208C44.6153 40.0373 44.082 39.8667 43.666 39.696C43.2607 39.5147 42.9087 39.2533 42.61 38.912C42.322 38.56 42.178 38.1013 42.178 37.536C42.178 37.088 42.3113 36.6773 42.578 36.304C42.8447 35.9307 43.2233 35.6373 43.714 35.424C44.2047 35.2 44.7647 35.088 45.394 35.088C46.3647 35.088 47.1487 35.3333 47.746 35.824C48.3433 36.3147 48.6633 36.9867 48.706 37.84H47.25C47.218 37.3813 47.0313 37.0133 46.69 36.736C46.3593 36.4587 45.9113 36.32 45.346 36.32C44.8233 36.32 44.4073 36.432 44.098 36.656C43.7887 36.88 43.634 37.1733 43.634 37.536C43.634 37.824 43.7247 38.064 43.906 38.256C44.098 38.4373 44.3327 38.5867 44.61 38.704C44.898 38.8107 45.2927 38.9333 45.794 39.072C46.4233 39.2427 46.9353 39.4133 47.33 39.584C47.7247 39.744 48.0607 39.9893 48.338 40.32C48.626 40.6507 48.7753 41.0827 48.786 41.616C48.786 42.096 48.6527 42.528 48.386 42.912C48.1193 43.296 47.7407 43.6 47.25 43.824C46.77 44.0373 46.2153 44.144 45.586 44.144ZM52.6174 36.432V41.6C52.6174 42.0267 52.708 42.3307 52.8894 42.512C53.0707 42.6827 53.3854 42.768 53.8334 42.768H54.9054V44H53.5934C52.7827 44 52.1747 43.8133 51.7694 43.44C51.364 43.0667 51.1614 42.4533 51.1614 41.6V36.432H50.0254V35.232H51.1614V33.024H52.6174V35.232H54.9054V36.432H52.6174ZM58.1255 36.656C58.3815 36.1547 58.7442 35.7653 59.2135 35.488C59.6935 35.2107 60.2748 35.072 60.9575 35.072V36.576H60.5735C58.9415 36.576 58.1255 37.4613 58.1255 39.232V44H56.6695V35.232H58.1255V36.656ZM63.3903 33.808C63.1129 33.808 62.8783 33.712 62.6863 33.52C62.4943 33.328 62.3983 33.0933 62.3983 32.816C62.3983 32.5387 62.4943 32.304 62.6863 32.112C62.8783 31.92 63.1129 31.824 63.3903 31.824C63.6569 31.824 63.8809 31.92 64.0623 32.112C64.2543 32.304 64.3503 32.5387 64.3503 32.816C64.3503 33.0933 64.2543 33.328 64.0623 33.52C63.8809 33.712 63.6569 33.808 63.3903 33.808ZM64.0943 35.232V44H62.6383V35.232H64.0943ZM68.0318 36.864C68.3304 36.3413 68.7678 35.9147 69.3438 35.584C69.9198 35.2533 70.5758 35.088 71.3118 35.088C72.1011 35.088 72.8104 35.2747 73.4398 35.648C74.0691 36.0213 74.5651 36.5493 74.9278 37.232C75.2904 37.904 75.4718 38.688 75.4718 39.584C75.4718 40.4693 75.2904 41.2587 74.9278 41.952C74.5651 42.6453 74.0637 43.184 73.4237 43.568C72.7944 43.952 72.0904 44.144 71.3118 44.144C70.5544 44.144 69.8878 43.9787 69.3118 43.648C68.7464 43.3173 68.3198 42.896 68.0318 42.384V44H66.5758V32.16H68.0318V36.864ZM73.9838 39.584C73.9838 38.9227 73.8504 38.3467 73.5838 37.856C73.3171 37.3653 72.9544 36.992 72.4958 36.736C72.0478 36.48 71.5518 36.352 71.0078 36.352C70.4744 36.352 69.9784 36.4853 69.5198 36.752C69.0718 37.008 68.7091 37.3867 68.4318 37.888C68.1651 38.3787 68.0318 38.9493 68.0318 39.6C68.0318 40.2613 68.1651 40.8427 68.4318 41.344C68.7091 41.8347 69.0718 42.2133 69.5198 42.48C69.9784 42.736 70.4744 42.864 71.0078 42.864C71.5518 42.864 72.0478 42.736 72.4958 42.48C72.9544 42.2133 73.3171 41.8347 73.5838 41.344C73.8504 40.8427 73.9838 40.256 73.9838 39.584ZM85.1643 35.232V44H83.7083V42.704C83.4309 43.152 83.0416 43.504 82.5403 43.76C82.0496 44.0053 81.5056 44.128 80.9083 44.128C80.2256 44.128 79.6123 43.9893 79.0683 43.712C78.5243 43.424 78.0923 42.9973 77.7723 42.432C77.4629 41.8667 77.3083 41.1787 77.3083 40.368V35.232H78.7483V40.176C78.7483 41.04 78.9669 41.7067 79.4043 42.176C79.8416 42.6347 80.4389 42.864 81.1963 42.864C81.9749 42.864 82.5883 42.624 83.0363 42.144C83.4843 41.664 83.7083 40.9653 83.7083 40.048V35.232H85.1643ZM89.3986 36.432V41.6C89.3986 42.0267 89.4893 42.3307 89.6706 42.512C89.852 42.6827 90.1666 42.768 90.6146 42.768H91.6866V44H90.3746C89.564 44 88.956 43.8133 88.5506 43.44C88.1453 43.0667 87.9426 42.4533 87.9426 41.6V36.432H86.8066V35.232H87.9426V33.024H89.3986V35.232H91.6866V36.432H89.3986ZM94.2028 33.808C93.9254 33.808 93.6908 33.712 93.4988 33.52C93.3068 33.328 93.2108 33.0933 93.2108 32.816C93.2108 32.5387 93.3068 32.304 93.4988 32.112C93.6908 31.92 93.9254 31.824 94.2028 31.824C94.4694 31.824 94.6934 31.92 94.8748 32.112C95.0668 32.304 95.1628 32.5387 95.1628 32.816C95.1628 33.0933 95.0668 33.328 94.8748 33.52C94.6934 33.712 94.4694 33.808 94.2028 33.808ZM94.9068 35.232V44H93.4508V35.232H94.9068ZM101.212 44.144C100.391 44.144 99.6443 43.9573 98.9723 43.584C98.3109 43.2107 97.7883 42.6827 97.4043 42C97.0309 41.3067 96.8443 40.5067 96.8443 39.6C96.8443 38.704 97.0363 37.9147 97.4203 37.232C97.8149 36.5387 98.3483 36.0107 99.0203 35.648C99.6923 35.2747 100.444 35.088 101.276 35.088C102.108 35.088 102.86 35.2747 103.532 35.648C104.204 36.0107 104.732 36.5333 105.116 37.216C105.511 37.8987 105.708 38.6933 105.708 39.6C105.708 40.5067 105.506 41.3067 105.1 42C104.706 42.6827 104.167 43.2107 103.484 43.584C102.802 43.9573 102.044 44.144 101.212 44.144ZM101.212 42.864C101.735 42.864 102.226 42.7413 102.684 42.496C103.143 42.2507 103.511 41.8827 103.788 41.392C104.076 40.9013 104.22 40.304 104.22 39.6C104.22 38.896 104.082 38.2987 103.804 37.808C103.527 37.3173 103.164 36.9547 102.716 36.72C102.268 36.4747 101.783 36.352 101.26 36.352C100.727 36.352 100.236 36.4747 99.7883 36.72C99.3509 36.9547 98.9989 37.3173 98.7323 37.808C98.4656 38.2987 98.3323 38.896 98.3323 39.6C98.3323 40.3147 98.4603 40.9173 98.7163 41.408C98.9829 41.8987 99.3349 42.2667 99.7723 42.512C100.21 42.7467 100.69 42.864 101.212 42.864ZM111.895 35.072C112.961 35.072 113.825 35.3973 114.487 36.048C115.148 36.688 115.479 37.616 115.479 38.832V44H114.039V39.04C114.039 38.1653 113.82 37.4987 113.383 37.04C112.945 36.5707 112.348 36.336 111.591 36.336C110.823 36.336 110.209 36.576 109.751 37.056C109.303 37.536 109.079 38.2347 109.079 39.152V44H107.623V35.232H109.079V36.48C109.367 36.032 109.756 35.6853 110.247 35.44C110.748 35.1947 111.297 35.072 111.895 35.072ZM121.579 38.416C121.579 37.328 121.824 36.352 122.315 35.488C122.805 34.6133 123.472 33.9307 124.315 33.44C125.168 32.9493 126.112 32.704 127.147 32.704C128.363 32.704 129.424 32.9973 130.331 33.584C131.237 34.1707 131.899 35.0027 132.315 36.08H130.571C130.261 35.408 129.813 34.8907 129.227 34.528C128.651 34.1653 127.957 33.984 127.147 33.984C126.368 33.984 125.669 34.1653 125.051 34.528C124.432 34.8907 123.947 35.408 123.595 36.08C123.243 36.7413 123.067 37.52 123.067 38.416C123.067 39.3013 123.243 40.08 123.595 40.752C123.947 41.4133 124.432 41.9253 125.051 42.288C125.669 42.6507 126.368 42.832 127.147 42.832C127.957 42.832 128.651 42.656 129.227 42.304C129.813 41.9413 130.261 41.424 130.571 40.752H132.315C131.899 41.8187 131.237 42.6453 130.331 43.232C129.424 43.808 128.363 44.096 127.147 44.096C126.112 44.096 125.168 43.856 124.315 43.376C123.472 42.8853 122.805 42.208 122.315 41.344C121.824 40.48 121.579 39.504 121.579 38.416ZM138.834 35.072C139.495 35.072 140.093 35.216 140.626 35.504C141.159 35.7813 141.575 36.2027 141.874 36.768C142.183 37.3333 142.338 38.0213 142.338 38.832V44H140.898V39.04C140.898 38.1653 140.679 37.4987 140.242 37.04C139.805 36.5707 139.207 36.336 138.45 36.336C137.682 36.336 137.069 36.576 136.61 37.056C136.162 37.536 135.938 38.2347 135.938 39.152V44H134.482V32.16H135.938V36.48C136.226 36.032 136.621 35.6853 137.122 35.44C137.634 35.1947 138.205 35.072 138.834 35.072ZM144.172 39.584C144.172 38.688 144.354 37.904 144.716 37.232C145.079 36.5493 145.575 36.0213 146.204 35.648C146.844 35.2747 147.554 35.088 148.332 35.088C149.1 35.088 149.767 35.2533 150.332 35.584C150.898 35.9147 151.319 36.3307 151.596 36.832V35.232H153.068V44H151.596V42.368C151.308 42.88 150.876 43.3067 150.3 43.648C149.735 43.9787 149.074 44.144 148.316 44.144C147.538 44.144 146.834 43.952 146.204 43.568C145.575 43.184 145.079 42.6453 144.716 41.952C144.354 41.2587 144.172 40.4693 144.172 39.584ZM151.596 39.6C151.596 38.9387 151.463 38.3627 151.196 37.872C150.93 37.3813 150.567 37.008 150.108 36.752C149.66 36.4853 149.164 36.352 148.62 36.352C148.076 36.352 147.58 36.48 147.132 36.736C146.684 36.992 146.327 37.3653 146.06 37.856C145.794 38.3467 145.66 38.9227 145.66 39.584C145.66 40.256 145.794 40.8427 146.06 41.344C146.327 41.8347 146.684 42.2133 147.132 42.48C147.58 42.736 148.076 42.864 148.62 42.864C149.164 42.864 149.66 42.736 150.108 42.48C150.567 42.2133 150.93 41.8347 151.196 41.344C151.463 40.8427 151.596 40.2613 151.596 39.6ZM156.985 36.656C157.241 36.1547 157.604 35.7653 158.073 35.488C158.553 35.2107 159.134 35.072 159.817 35.072V36.576H159.433C157.801 36.576 156.985 37.4613 156.985 39.232V44H155.529V35.232H156.985V36.656ZM163.274 36.432V41.6C163.274 42.0267 163.364 42.3307 163.546 42.512C163.727 42.6827 164.042 42.768 164.49 42.768H165.562V44H164.25C163.439 44 162.831 43.8133 162.426 43.44C162.02 43.0667 161.818 42.4533 161.818 41.6V36.432H160.682V35.232H161.818V33.024H163.274V35.232H165.562V36.432H163.274Z" fill="#2A8EF1"/>
<rect x="36" y="70" width="40" height="40" rx="20" fill="#00CC66"/>
<path d="M56.0001 89.1667C55.116 89.1667 54.2682 88.8155 53.6431 88.1904C53.0179 87.5652 52.6667 86.7174 52.6667 85.8333C52.6667 84.9493 53.0179 84.1014 53.6431 83.4763C54.2682 82.8512 55.116 82.5 56.0001 82.5C56.8841 82.5 57.732 82.8512 58.3571 83.4763C58.9822 84.1014 59.3334 84.9493 59.3334 85.8333C59.3334 86.7174 58.9822 87.5652 58.3571 88.1904C57.732 88.8155 56.8841 89.1667 56.0001 89.1667Z" stroke="white" stroke-width="2" stroke-linecap="round"/>
<path d="M49.3334 97.4998V96.6665C49.3334 95.3404 49.8602 94.0687 50.7978 93.131C51.7355 92.1933 53.0073 91.6665 54.3334 91.6665H57.6667C58.9928 91.6665 60.2646 92.1933 61.2022 93.131C62.1399 94.0687 62.6667 95.3404 62.6667 96.6665V97.4998" stroke="white" stroke-width="2" stroke-linecap="round"/>
<path d="M94.384 76.88V78.368H91.424V88H89.6V78.368H86.624V76.88H94.384ZM100.055 88.144C99.2233 88.144 98.4713 87.9573 97.7993 87.584C97.1273 87.2 96.5993 86.6667 96.2153 85.984C95.8313 85.2907 95.6393 84.4907 95.6393 83.584C95.6393 82.688 95.8366 81.8933 96.2313 81.2C96.6259 80.5067 97.1646 79.9733 97.8473 79.6C98.5299 79.2267 99.2926 79.04 100.135 79.04C100.978 79.04 101.741 79.2267 102.423 79.6C103.106 79.9733 103.645 80.5067 104.039 81.2C104.434 81.8933 104.631 82.688 104.631 83.584C104.631 84.48 104.429 85.2747 104.023 85.968C103.618 86.6613 103.063 87.2 102.359 87.584C101.666 87.9573 100.898 88.144 100.055 88.144ZM100.055 86.56C100.525 86.56 100.962 86.448 101.367 86.224C101.783 86 102.119 85.664 102.375 85.216C102.631 84.768 102.759 84.224 102.759 83.584C102.759 82.944 102.637 82.4053 102.391 81.968C102.146 81.52 101.821 81.184 101.415 80.96C101.01 80.736 100.573 80.624 100.103 80.624C99.6339 80.624 99.1966 80.736 98.7913 80.96C98.3966 81.184 98.0819 81.52 97.8473 81.968C97.6126 82.4053 97.4953 82.944 97.4953 83.584C97.4953 84.5333 97.7353 85.2693 98.2153 85.792C98.7059 86.304 99.3193 86.56 100.055 86.56ZM108.562 80.672V85.552C108.562 85.8827 108.637 86.1227 108.786 86.272C108.946 86.4107 109.213 86.48 109.586 86.48H110.706V88H109.266C108.445 88 107.816 87.808 107.378 87.424C106.941 87.04 106.722 86.416 106.722 85.552V80.672H105.682V79.184H106.722V76.992H108.562V79.184H110.706V80.672H108.562ZM111.78 83.552C111.78 82.6667 111.961 81.8827 112.324 81.2C112.697 80.5173 113.198 79.9893 113.828 79.616C114.468 79.232 115.172 79.04 115.94 79.04C116.633 79.04 117.236 79.1787 117.748 79.456C118.27 79.7227 118.686 80.0587 118.996 80.464V79.184H120.836V88H118.996V86.688C118.686 87.104 118.265 87.4507 117.732 87.728C117.198 88.0053 116.59 88.144 115.908 88.144C115.15 88.144 114.457 87.952 113.828 87.568C113.198 87.1733 112.697 86.6293 112.324 85.936C111.961 85.232 111.78 84.4373 111.78 83.552ZM118.996 83.584C118.996 82.976 118.868 82.448 118.612 82C118.366 81.552 118.041 81.2107 117.636 80.976C117.23 80.7413 116.793 80.624 116.324 80.624C115.854 80.624 115.417 80.7413 115.012 80.976C114.606 81.2 114.276 81.536 114.02 81.984C113.774 82.4213 113.652 82.944 113.652 83.552C113.652 84.16 113.774 84.6933 114.02 85.152C114.276 85.6107 114.606 85.9627 115.012 86.208C115.428 86.4427 115.865 86.56 116.324 86.56C116.793 86.56 117.23 86.4427 117.636 86.208C118.041 85.9733 118.366 85.632 118.612 85.184C118.868 84.7253 118.996 84.192 118.996 83.584ZM125.055 76.16V88H123.231V76.16H125.055ZM133.414 76.88V83.968C133.414 84.8107 133.633 85.4453 134.07 85.872C134.518 86.2987 135.137 86.512 135.926 86.512C136.726 86.512 137.345 86.2987 137.782 85.872C138.23 85.4453 138.454 84.8107 138.454 83.968V76.88H140.278V83.936C140.278 84.8427 140.081 85.6107 139.686 86.24C139.292 86.8693 138.764 87.3387 138.102 87.648C137.441 87.9573 136.71 88.112 135.91 88.112C135.11 88.112 134.38 87.9573 133.718 87.648C133.068 87.3387 132.55 86.8693 132.166 86.24C131.782 85.6107 131.59 84.8427 131.59 83.936V76.88H133.414ZM145.853 88.144C145.16 88.144 144.536 88.0213 143.981 87.776C143.437 87.52 143.005 87.1787 142.685 86.752C142.365 86.3147 142.194 85.8293 142.173 85.296H144.061C144.093 85.6693 144.269 85.984 144.589 86.24C144.92 86.4853 145.33 86.608 145.821 86.608C146.333 86.608 146.728 86.512 147.005 86.32C147.293 86.1173 147.437 85.8613 147.437 85.552C147.437 85.2213 147.277 84.976 146.957 84.816C146.648 84.656 146.152 84.48 145.469 84.288C144.808 84.1067 144.269 83.9307 143.853 83.76C143.437 83.5893 143.074 83.328 142.765 82.976C142.466 82.624 142.317 82.16 142.317 81.584C142.317 81.1147 142.456 80.688 142.733 80.304C143.01 79.9093 143.405 79.6 143.917 79.376C144.44 79.152 145.037 79.04 145.709 79.04C146.712 79.04 147.517 79.296 148.125 79.808C148.744 80.3093 149.074 80.9973 149.117 81.872H147.293C147.261 81.4773 147.101 81.1627 146.813 80.928C146.525 80.6933 146.136 80.576 145.645 80.576C145.165 80.576 144.797 80.6667 144.541 80.848C144.285 81.0293 144.157 81.2693 144.157 81.568C144.157 81.8027 144.242 82 144.413 82.16C144.584 82.32 144.792 82.448 145.037 82.544C145.282 82.6293 145.645 82.7413 146.125 82.88C146.765 83.0507 147.288 83.2267 147.693 83.408C148.109 83.5787 148.466 83.8347 148.765 84.176C149.064 84.5173 149.218 84.9707 149.229 85.536C149.229 86.0373 149.09 86.4853 148.813 86.88C148.536 87.2747 148.141 87.584 147.629 87.808C147.128 88.032 146.536 88.144 145.853 88.144ZM159.28 83.376C159.28 83.7067 159.259 84.0053 159.216 84.272H152.48C152.533 84.976 152.795 85.5413 153.264 85.968C153.733 86.3947 154.309 86.608 154.992 86.608C155.973 86.608 156.667 86.1973 157.072 85.376H159.04C158.773 86.1867 158.288 86.8533 157.584 87.376C156.891 87.888 156.027 88.144 154.992 88.144C154.149 88.144 153.392 87.9573 152.72 87.584C152.059 87.2 151.536 86.6667 151.152 85.984C150.779 85.2907 150.592 84.4907 150.592 83.584C150.592 82.6773 150.773 81.8827 151.136 81.2C151.509 80.5067 152.027 79.9733 152.688 79.6C153.36 79.2267 154.128 79.04 154.992 79.04C155.824 79.04 156.565 79.2213 157.216 79.584C157.867 79.9467 158.373 80.4587 158.736 81.12C159.099 81.7707 159.28 82.5227 159.28 83.376ZM157.376 82.8C157.365 82.128 157.125 81.5893 156.656 81.184C156.187 80.7787 155.605 80.576 154.912 80.576C154.283 80.576 153.744 80.7787 153.296 81.184C152.848 81.5787 152.581 82.1173 152.496 82.8H157.376ZM162.899 80.464C163.166 80.016 163.518 79.6693 163.955 79.424C164.403 79.168 164.931 79.04 165.539 79.04V80.928H165.075C164.36 80.928 163.816 81.1093 163.443 81.472C163.08 81.8347 162.899 82.464 162.899 83.36V88H161.075V79.184H162.899V80.464ZM170.416 88.144C169.722 88.144 169.098 88.0213 168.544 87.776C168 87.52 167.568 87.1787 167.248 86.752C166.928 86.3147 166.757 85.8293 166.736 85.296H168.624C168.656 85.6693 168.832 85.984 169.152 86.24C169.482 86.4853 169.893 86.608 170.384 86.608C170.896 86.608 171.29 86.512 171.568 86.32C171.856 86.1173 172 85.8613 172 85.552C172 85.2213 171.84 84.976 171.52 84.816C171.21 84.656 170.714 84.48 170.032 84.288C169.37 84.1067 168.832 83.9307 168.416 83.76C168 83.5893 167.637 83.328 167.328 82.976C167.029 82.624 166.88 82.16 166.88 81.584C166.88 81.1147 167.018 80.688 167.296 80.304C167.573 79.9093 167.968 79.6 168.48 79.376C169.002 79.152 169.6 79.04 170.272 79.04C171.274 79.04 172.08 79.296 172.688 79.808C173.306 80.3093 173.637 80.9973 173.68 81.872H171.856C171.824 81.4773 171.664 81.1627 171.376 80.928C171.088 80.6933 170.698 80.576 170.208 80.576C169.728 80.576 169.36 80.6667 169.104 80.848C168.848 81.0293 168.72 81.2693 168.72 81.568C168.72 81.8027 168.805 82 168.976 82.16C169.146 82.32 169.354 82.448 169.6 82.544C169.845 82.6293 170.208 82.7413 170.688 82.88C171.328 83.0507 171.85 83.2267 172.256 83.408C172.672 83.5787 173.029 83.8347 173.328 84.176C173.626 84.5173 173.781 84.9707 173.792 85.536C173.792 86.0373 173.653 86.4853 173.376 86.88C173.098 87.2747 172.704 87.584 172.192 87.808C171.69 88.032 171.098 88.144 170.416 88.144Z" fill="#525252"/>
<path d="M102.96 108.808H92.24V115.176C92.688 114.579 93.3493 114.077 94.224 113.672C95.12 113.267 96.0693 113.064 97.072 113.064C98.864 113.064 100.315 113.448 101.424 114.216C102.555 114.984 103.355 115.955 103.824 117.128C104.315 118.301 104.56 119.539 104.56 120.84C104.56 122.419 104.251 123.827 103.632 125.064C103.035 126.28 102.128 127.24 100.912 127.944C99.7173 128.648 98.2453 129 96.496 129C94.1707 129 92.304 128.424 90.896 127.272C89.488 126.12 88.6453 124.595 88.368 122.696H91.92C92.1547 123.699 92.6773 124.499 93.488 125.096C94.2987 125.672 95.312 125.96 96.528 125.96C98.0427 125.96 99.1733 125.501 99.92 124.584C100.688 123.667 101.072 122.451 101.072 120.936C101.072 119.4 100.688 118.227 99.92 117.416C99.152 116.584 98.0213 116.168 96.528 116.168C95.4827 116.168 94.5973 116.435 93.872 116.968C93.168 117.48 92.656 118.184 92.336 119.08H88.88V105.608H102.96V108.808ZM112.294 116.808C110.075 115.699 108.966 113.949 108.966 111.56C108.966 110.408 109.254 109.352 109.83 108.392C110.406 107.432 111.27 106.675 112.422 106.12C113.574 105.544 114.982 105.256 116.646 105.256C118.288 105.256 119.686 105.544 120.838 106.12C122.011 106.675 122.885 107.432 123.462 108.392C124.038 109.352 124.326 110.408 124.326 111.56C124.326 112.755 124.016 113.811 123.398 114.728C122.8 115.624 122 116.317 120.998 116.808C122.214 117.256 123.174 117.992 123.878 119.016C124.582 120.019 124.934 121.203 124.934 122.568C124.934 123.955 124.582 125.181 123.878 126.248C123.174 127.315 122.192 128.136 120.934 128.712C119.675 129.288 118.246 129.576 116.646 129.576C115.046 129.576 113.616 129.288 112.358 128.712C111.12 128.136 110.15 127.315 109.446 126.248C108.742 125.181 108.39 123.955 108.39 122.568C108.39 121.181 108.742 119.987 109.446 118.984C110.15 117.981 111.099 117.256 112.294 116.808ZM120.838 112.008C120.838 110.813 120.464 109.896 119.718 109.256C118.971 108.616 117.947 108.296 116.646 108.296C115.366 108.296 114.352 108.616 113.606 109.256C112.859 109.896 112.486 110.824 112.486 112.04C112.486 113.107 112.87 113.981 113.638 114.664C114.427 115.325 115.43 115.656 116.646 115.656C117.862 115.656 118.864 115.315 119.654 114.632C120.443 113.949 120.838 113.075 120.838 112.008ZM116.646 118.408C115.238 118.408 114.086 118.76 113.19 119.464C112.315 120.147 111.878 121.139 111.878 122.44C111.878 123.656 112.304 124.648 113.158 125.416C114.011 126.163 115.174 126.536 116.646 126.536C118.096 126.536 119.238 126.152 120.07 125.384C120.923 124.616 121.35 123.635 121.35 122.44C121.35 121.16 120.912 120.168 120.038 119.464C119.184 118.76 118.054 118.408 116.646 118.408Z" fill="#525252"/>
<rect x="648" y="60" width="40" height="40" rx="20" fill="#9FCFFF"/>
<path d="M658 79H663V81H658V79ZM673 79H678V81H673V79ZM667 85H669V90H667V85ZM667 70H669V75H667V70ZM660.222 73.636L661.636 72.222L665.172 75.758L663.758 77.172L660.222 73.636ZM675.778 86.364L674.364 87.778L670.828 84.242L672.242 82.828L675.778 86.364ZM663.758 82.828L665.172 84.242L661.636 87.778L660.222 86.364L663.758 82.828ZM670.828 75.757L674.364 72.222L675.778 73.637L672.242 77.172L670.828 75.757Z" fill="white"/>
<path d="M712.976 70.192C712.976 70.7573 712.843 71.2907 712.576 71.792C712.309 72.2933 711.883 72.704 711.296 73.024C710.709 73.3333 709.957 73.488 709.04 73.488H707.024V78H705.2V66.88H709.04C709.893 66.88 710.613 67.0293 711.2 67.328C711.797 67.616 712.24 68.0107 712.528 68.512C712.827 69.0133 712.976 69.5733 712.976 70.192ZM709.04 72C709.733 72 710.251 71.8453 710.592 71.536C710.933 71.216 711.104 70.768 711.104 70.192C711.104 68.976 710.416 68.368 709.04 68.368H707.024V72H709.04ZM722.796 73.376C722.796 73.7067 722.774 74.0053 722.732 74.272H715.996C716.049 74.976 716.31 75.5413 716.78 75.968C717.249 76.3947 717.825 76.608 718.508 76.608C719.489 76.608 720.182 76.1973 720.588 75.376H722.556C722.289 76.1867 721.804 76.8533 721.1 77.376C720.406 77.888 719.542 78.144 718.508 78.144C717.665 78.144 716.908 77.9573 716.236 77.584C715.574 77.2 715.052 76.6667 714.668 75.984C714.294 75.2907 714.108 74.4907 714.108 73.584C714.108 72.6773 714.289 71.8827 714.652 71.2C715.025 70.5067 715.542 69.9733 716.204 69.6C716.876 69.2267 717.644 69.04 718.508 69.04C719.34 69.04 720.081 69.2213 720.732 69.584C721.382 69.9467 721.889 70.4587 722.252 71.12C722.614 71.7707 722.796 72.5227 722.796 73.376ZM720.892 72.8C720.881 72.128 720.641 71.5893 720.172 71.184C719.702 70.7787 719.121 70.576 718.428 70.576C717.798 70.576 717.26 70.7787 716.812 71.184C716.364 71.5787 716.097 72.1173 716.012 72.8H720.892ZM729.039 69.04C729.732 69.04 730.351 69.184 730.895 69.472C731.449 69.76 731.881 70.1867 732.191 70.752C732.5 71.3173 732.655 72 732.655 72.8V78H730.847V73.072C730.847 72.2827 730.649 71.68 730.255 71.264C729.86 70.8373 729.321 70.624 728.639 70.624C727.956 70.624 727.412 70.8373 727.007 71.264C726.612 71.68 726.415 72.2827 726.415 73.072V78H724.591V69.184H726.415V70.192C726.713 69.8293 727.092 69.5467 727.551 69.344C728.02 69.1413 728.516 69.04 729.039 69.04ZM734.373 73.552C734.373 72.6667 734.555 71.8827 734.917 71.2C735.291 70.5173 735.792 69.9893 736.421 69.616C737.061 69.232 737.771 69.04 738.549 69.04C739.125 69.04 739.691 69.168 740.245 69.424C740.811 69.6693 741.259 70 741.589 70.416V66.16H743.429V78H741.589V76.672C741.291 77.0987 740.875 77.4507 740.341 77.728C739.819 78.0053 739.216 78.144 738.533 78.144C737.765 78.144 737.061 77.952 736.421 77.568C735.792 77.1733 735.291 76.6293 734.917 75.936C734.555 75.232 734.373 74.4373 734.373 73.552ZM741.589 73.584C741.589 72.976 741.461 72.448 741.205 72C740.96 71.552 740.635 71.2107 740.229 70.976C739.824 70.7413 739.387 70.624 738.917 70.624C738.448 70.624 738.011 70.7413 737.605 70.976C737.2 71.2 736.869 71.536 736.613 71.984C736.368 72.4213 736.245 72.944 736.245 73.552C736.245 74.16 736.368 74.6933 736.613 75.152C736.869 75.6107 737.2 75.9627 737.605 76.208C738.021 76.4427 738.459 76.56 738.917 76.56C739.387 76.56 739.824 76.4427 740.229 76.208C740.635 75.9733 740.96 75.632 741.205 75.184C741.461 74.7253 741.589 74.192 741.589 73.584ZM746.753 68.016C746.422 68.016 746.145 67.904 745.921 67.68C745.697 67.456 745.585 67.1787 745.585 66.848C745.585 66.5173 745.697 66.24 745.921 66.016C746.145 65.792 746.422 65.68 746.753 65.68C747.073 65.68 747.345 65.792 747.569 66.016C747.793 66.24 747.905 66.5173 747.905 66.848C747.905 67.1787 747.793 67.456 747.569 67.68C747.345 67.904 747.073 68.016 746.753 68.016ZM747.649 69.184V78H745.825V69.184H747.649ZM754.492 69.04C755.185 69.04 755.804 69.184 756.348 69.472C756.902 69.76 757.334 70.1867 757.644 70.752C757.953 71.3173 758.108 72 758.108 72.8V78H756.3V73.072C756.3 72.2827 756.102 71.68 755.708 71.264C755.313 70.8373 754.774 70.624 754.092 70.624C753.409 70.624 752.865 70.8373 752.46 71.264C752.065 71.68 751.868 72.2827 751.868 73.072V78H750.044V69.184H751.868V70.192C752.166 69.8293 752.545 69.5467 753.004 69.344C753.473 69.1413 753.969 69.04 754.492 69.04ZM763.986 69.04C764.669 69.04 765.272 69.1787 765.794 69.456C766.328 69.7227 766.744 70.0587 767.042 70.464V69.184H768.882V78.144C768.882 78.9547 768.712 79.6747 768.37 80.304C768.029 80.944 767.533 81.4453 766.882 81.808C766.242 82.1707 765.474 82.352 764.578 82.352C763.384 82.352 762.392 82.0693 761.602 81.504C760.813 80.9493 760.365 80.192 760.258 79.232H762.066C762.205 79.6907 762.498 80.0587 762.946 80.336C763.405 80.624 763.949 80.768 764.578 80.768C765.314 80.768 765.906 80.544 766.354 80.096C766.813 79.648 767.042 78.9973 767.042 78.144V76.672C766.733 77.088 766.312 77.44 765.778 77.728C765.256 78.0053 764.658 78.144 763.986 78.144C763.218 78.144 762.514 77.952 761.874 77.568C761.245 77.1733 760.744 76.6293 760.37 75.936C760.008 75.232 759.826 74.4373 759.826 73.552C759.826 72.6667 760.008 71.8827 760.37 71.2C760.744 70.5173 761.245 69.9893 761.874 69.616C762.514 69.232 763.218 69.04 763.986 69.04ZM767.042 73.584C767.042 72.976 766.914 72.448 766.658 72C766.413 71.552 766.088 71.2107 765.682 70.976C765.277 70.7413 764.84 70.624 764.37 70.624C763.901 70.624 763.464 70.7413 763.058 70.976C762.653 71.2 762.322 71.536 762.066 71.984C761.821 72.4213 761.698 72.944 761.698 73.552C761.698 74.16 761.821 74.6933 762.066 75.152C762.322 75.6107 762.653 75.9627 763.058 76.208C763.474 76.4427 763.912 76.56 764.37 76.56C764.84 76.56 765.277 76.4427 765.682 76.208C766.088 75.9733 766.413 75.632 766.658 75.184C766.914 74.7253 767.042 74.192 767.042 73.584Z" fill="#525252"/>
<path d="M707.936 114.04C709.984 112.269 711.595 110.819 712.768 109.688C713.963 108.536 714.955 107.341 715.744 106.104C716.533 104.867 716.928 103.629 716.928 102.392C716.928 101.112 716.619 100.109 716 99.384C715.403 98.6587 714.453 98.296 713.152 98.296C711.893 98.296 710.912 98.7013 710.208 99.512C709.525 100.301 709.163 101.368 709.12 102.712H705.6C705.664 100.28 706.389 98.424 707.776 97.144C709.184 95.8427 710.965 95.192 713.12 95.192C715.445 95.192 717.259 95.832 718.56 97.112C719.883 98.392 720.544 100.099 720.544 102.232C720.544 103.768 720.149 105.251 719.36 106.68C718.592 108.088 717.664 109.357 716.576 110.488C715.509 111.597 714.144 112.888 712.48 114.36L711.04 115.64H721.184V118.68H705.632V116.024L707.936 114.04ZM723.941 114.136V111.384L734.693 95.96H739.109V110.968H742.085V114.136H739.109V119H735.525V114.136H723.941ZM735.685 99.672L728.133 110.968H735.685V99.672Z" fill="#525252"/>
<g clip-path="url(#clip0_97_1159)">
<path d="M938 80C938 85.3043 935.893 90.3914 932.142 94.1421C928.391 97.8929 923.304 100 918 100C912.696 100 907.609 97.8929 903.858 94.1421C900.107 90.3914 898 85.3043 898 80C898 74.6957 900.107 69.6086 903.858 65.8579C907.609 62.1071 912.696 60 918 60C923.304 60 928.391 62.1071 932.142 65.8579C935.893 69.6086 938 74.6957 938 80ZM928.075 72.425C927.896 72.247 927.684 72.1069 927.45 72.013C927.216 71.9191 926.965 71.8734 926.713 71.8785C926.461 71.8837 926.213 71.9396 925.983 72.0429C925.753 72.1463 925.546 72.2949 925.375 72.48L916.693 83.5425L911.46 78.3075C911.105 77.9763 910.634 77.796 910.149 77.8046C909.663 77.8131 909.199 78.0099 908.856 78.3534C908.512 78.697 908.316 79.1604 908.307 79.6462C908.298 80.1319 908.479 80.6021 908.81 80.9575L915.425 87.575C915.603 87.7529 915.815 87.893 916.049 87.9871C916.283 88.0812 916.533 88.1273 916.784 88.1226C917.036 88.118 917.284 88.0627 917.514 87.96C917.744 87.8573 917.951 87.7094 918.122 87.525L928.103 75.05C928.443 74.6962 928.631 74.2232 928.626 73.7324C928.621 73.2416 928.424 72.7722 928.077 72.425H928.075Z" fill="#2A8EF1"/>
</g>
<path d="M961.904 75.728H957.248L956.448 78H954.544L958.528 66.864H960.64L964.624 78H962.704L961.904 75.728ZM961.392 74.24L959.584 69.072L957.76 74.24H961.392ZM968.18 70.48C968.49 70.0747 968.911 69.7333 969.444 69.456C969.978 69.1787 970.58 69.04 971.252 69.04C972.02 69.04 972.719 69.232 973.348 69.616C973.988 69.9893 974.49 70.5173 974.852 71.2C975.215 71.8827 975.396 72.6667 975.396 73.552C975.396 74.4373 975.215 75.232 974.852 75.936C974.49 76.6293 973.988 77.1733 973.348 77.568C972.719 77.952 972.02 78.144 971.252 78.144C970.58 78.144 969.983 78.0107 969.46 77.744C968.938 77.4667 968.511 77.1253 968.18 76.72V82.192H966.356V69.184H968.18V70.48ZM973.54 73.552C973.54 72.944 973.412 72.4213 973.156 71.984C972.911 71.536 972.58 71.2 972.164 70.976C971.759 70.7413 971.322 70.624 970.852 70.624C970.394 70.624 969.956 70.7413 969.54 70.976C969.135 71.2107 968.804 71.552 968.548 72C968.303 72.448 968.18 72.976 968.18 73.584C968.18 74.192 968.303 74.7253 968.548 75.184C968.804 75.632 969.135 75.9733 969.54 76.208C969.956 76.4427 970.394 76.56 970.852 76.56C971.322 76.56 971.759 76.4427 972.164 76.208C972.58 75.9627 972.911 75.6107 973.156 75.152C973.412 74.6933 973.54 74.16 973.54 73.552ZM979.024 70.48C979.333 70.0747 979.755 69.7333 980.288 69.456C980.821 69.1787 981.424 69.04 982.096 69.04C982.864 69.04 983.563 69.232 984.192 69.616C984.832 69.9893 985.333 70.5173 985.696 71.2C986.059 71.8827 986.24 72.6667 986.24 73.552C986.24 74.4373 986.059 75.232 985.696 75.936C985.333 76.6293 984.832 77.1733 984.192 77.568C983.563 77.952 982.864 78.144 982.096 78.144C981.424 78.144 980.827 78.0107 980.304 77.744C979.781 77.4667 979.355 77.1253 979.024 76.72V82.192H977.2V69.184H979.024V70.48ZM984.384 73.552C984.384 72.944 984.256 72.4213 984 71.984C983.755 71.536 983.424 71.2 983.008 70.976C982.603 70.7413 982.165 70.624 981.696 70.624C981.237 70.624 980.8 70.7413 980.384 70.976C979.979 71.2107 979.648 71.552 979.392 72C979.147 72.448 979.024 72.976 979.024 73.584C979.024 74.192 979.147 74.7253 979.392 75.184C979.648 75.632 979.979 75.9733 980.384 76.208C980.8 76.4427 981.237 76.56 981.696 76.56C982.165 76.56 982.603 76.4427 983.008 76.208C983.424 75.9627 983.755 75.6107 984 75.152C984.256 74.6933 984.384 74.16 984.384 73.552ZM989.868 70.464C990.134 70.016 990.486 69.6693 990.924 69.424C991.372 69.168 991.9 69.04 992.508 69.04V70.928H992.044C991.329 70.928 990.785 71.1093 990.412 71.472C990.049 71.8347 989.868 72.464 989.868 73.36V78H988.044V69.184H989.868V70.464ZM998.008 78.144C997.176 78.144 996.424 77.9573 995.752 77.584C995.08 77.2 994.552 76.6667 994.168 75.984C993.784 75.2907 993.592 74.4907 993.592 73.584C993.592 72.688 993.79 71.8933 994.184 71.2C994.579 70.5067 995.118 69.9733 995.8 69.6C996.483 69.2267 997.246 69.04 998.088 69.04C998.931 69.04 999.694 69.2267 1000.38 69.6C1001.06 69.9733 1001.6 70.5067 1001.99 71.2C1002.39 71.8933 1002.58 72.688 1002.58 73.584C1002.58 74.48 1002.38 75.2747 1001.98 75.968C1001.57 76.6613 1001.02 77.2 1000.31 77.584C999.619 77.9573 998.851 78.144 998.008 78.144ZM998.008 76.56C998.478 76.56 998.915 76.448 999.32 76.224C999.736 76 1000.07 75.664 1000.33 75.216C1000.58 74.768 1000.71 74.224 1000.71 73.584C1000.71 72.944 1000.59 72.4053 1000.34 71.968C1000.1 71.52 999.774 71.184 999.368 70.96C998.963 70.736 998.526 70.624 998.056 70.624C997.587 70.624 997.15 70.736 996.744 70.96C996.35 71.184 996.035 71.52 995.8 71.968C995.566 72.4053 995.448 72.944 995.448 73.584C995.448 74.5333 995.688 75.2693 996.168 75.792C996.659 76.304 997.272 76.56 998.008 76.56ZM1007.8 76.368L1010.29 69.184H1012.23L1008.87 78H1006.69L1003.35 69.184H1005.3L1007.8 76.368ZM1021.69 73.376C1021.69 73.7067 1021.66 74.0053 1021.62 74.272H1014.89C1014.94 74.976 1015.2 75.5413 1015.67 75.968C1016.14 76.3947 1016.72 76.608 1017.4 76.608C1018.38 76.608 1019.07 76.1973 1019.48 75.376H1021.45C1021.18 76.1867 1020.69 76.8533 1019.99 77.376C1019.3 77.888 1018.43 78.144 1017.4 78.144C1016.56 78.144 1015.8 77.9573 1015.13 77.584C1014.46 77.2 1013.94 76.6667 1013.56 75.984C1013.18 75.2907 1013 74.4907 1013 73.584C1013 72.6773 1013.18 71.8827 1013.54 71.2C1013.92 70.5067 1014.43 69.9733 1015.09 69.6C1015.77 69.2267 1016.53 69.04 1017.4 69.04C1018.23 69.04 1018.97 69.2213 1019.62 69.584C1020.27 69.9467 1020.78 70.4587 1021.14 71.12C1021.5 71.7707 1021.69 72.5227 1021.69 73.376ZM1019.78 72.8C1019.77 72.128 1019.53 71.5893 1019.06 71.184C1018.59 70.7787 1018.01 70.576 1017.32 70.576C1016.69 70.576 1016.15 70.7787 1015.7 71.184C1015.25 71.5787 1014.99 72.1173 1014.9 72.8H1019.78ZM1022.87 73.552C1022.87 72.6667 1023.05 71.8827 1023.42 71.2C1023.79 70.5173 1024.29 69.9893 1024.92 69.616C1025.56 69.232 1026.27 69.04 1027.05 69.04C1027.63 69.04 1028.19 69.168 1028.75 69.424C1029.31 69.6693 1029.76 70 1030.09 70.416V66.16H1031.93V78H1030.09V76.672C1029.79 77.0987 1029.37 77.4507 1028.84 77.728C1028.32 78.0053 1027.72 78.144 1027.03 78.144C1026.27 78.144 1025.56 77.952 1024.92 77.568C1024.29 77.1733 1023.79 76.6293 1023.42 75.936C1023.05 75.232 1022.87 74.4373 1022.87 73.552ZM1030.09 73.584C1030.09 72.976 1029.96 72.448 1029.71 72C1029.46 71.552 1029.13 71.2107 1028.73 70.976C1028.32 70.7413 1027.89 70.624 1027.42 70.624C1026.95 70.624 1026.51 70.7413 1026.11 70.976C1025.7 71.2 1025.37 71.536 1025.11 71.984C1024.87 72.4213 1024.75 72.944 1024.75 73.552C1024.75 74.16 1024.87 74.6933 1025.11 75.152C1025.37 75.6107 1025.7 75.9627 1026.11 76.208C1026.52 76.4427 1026.96 76.56 1027.42 76.56C1027.89 76.56 1028.32 76.4427 1028.73 76.208C1029.13 75.9733 1029.46 75.632 1029.71 75.184C1029.96 74.7253 1030.09 74.192 1030.09 73.584Z" fill="#525252"/>
<path d="M955.856 101.432C955.984 99.448 956.741 97.9013 958.128 96.792C959.536 95.6827 961.328 95.128 963.504 95.128C964.997 95.128 966.288 95.3947 967.376 95.928C968.464 96.4613 969.285 97.1867 969.84 98.104C970.395 99.0213 970.672 100.056 970.672 101.208C970.672 102.531 970.32 103.661 969.616 104.6C968.912 105.539 968.069 106.168 967.088 106.488V106.616C968.347 107 969.328 107.704 970.032 108.728C970.736 109.731 971.088 111.021 971.088 112.6C971.088 113.859 970.8 114.979 970.224 115.96C969.648 116.941 968.795 117.72 967.664 118.296C966.533 118.851 965.179 119.128 963.6 119.128C961.296 119.128 959.397 118.541 957.904 117.368C956.432 116.173 955.643 114.467 955.536 112.248H959.056C959.141 113.379 959.579 114.307 960.368 115.032C961.157 115.736 962.224 116.088 963.568 116.088C964.869 116.088 965.872 115.736 966.576 115.032C967.28 114.307 967.632 113.379 967.632 112.248C967.632 110.755 967.152 109.699 966.192 109.08C965.253 108.44 963.803 108.12 961.84 108.12H961.008V105.112H961.872C963.6 105.091 964.912 104.803 965.808 104.248C966.725 103.693 967.184 102.819 967.184 101.624C967.184 100.6 966.853 99.7893 966.192 99.192C965.531 98.5733 964.592 98.264 963.376 98.264C962.181 98.264 961.253 98.5733 960.592 99.192C959.931 99.7893 959.536 100.536 959.408 101.432H955.856ZM974.472 114.136V111.384L985.224 95.96H989.64V110.968H992.616V114.136H989.64V119H986.056V114.136H974.472ZM986.216 99.672L978.664 110.968H986.216V99.672Z" fill="#525252"/>
<rect x="45" y="179" width="25" height="63" rx="5" fill="#2A8EF1"/>
<path d="M47.52 256.05C48.26 256.05 48.9067 256.193 49.46 256.48C50.02 256.76 50.45 257.167 50.75 257.7C51.0567 258.227 51.21 258.843 51.21 259.55C51.21 260.257 51.0567 260.87 50.75 261.39C50.45 261.91 50.02 262.31 49.46 262.59C48.9067 262.863 48.26 263 47.52 263H45.25V256.05H47.52ZM47.52 262.07C48.3333 262.07 48.9567 261.85 49.39 261.41C49.8233 260.97 50.04 260.35 50.04 259.55C50.04 258.743 49.8233 258.113 49.39 257.66C48.9567 257.207 48.3333 256.98 47.52 256.98H46.39V262.07H47.52ZM51.9598 260.22C51.9598 259.667 52.0732 259.177 52.2998 258.75C52.5332 258.323 52.8465 257.993 53.2398 257.76C53.6398 257.52 54.0798 257.4 54.5598 257.4C54.9932 257.4 55.3698 257.487 55.6898 257.66C56.0165 257.827 56.2765 258.037 56.4698 258.29V257.49H57.6198V263H56.4698V262.18C56.2765 262.44 56.0132 262.657 55.6798 262.83C55.3465 263.003 54.9665 263.09 54.5398 263.09C54.0665 263.09 53.6332 262.97 53.2398 262.73C52.8465 262.483 52.5332 262.143 52.2998 261.71C52.0732 261.27 51.9598 260.773 51.9598 260.22ZM56.4698 260.24C56.4698 259.86 56.3898 259.53 56.2298 259.25C56.0765 258.97 55.8732 258.757 55.6198 258.61C55.3665 258.463 55.0932 258.39 54.7998 258.39C54.5065 258.39 54.2332 258.463 53.9798 258.61C53.7265 258.75 53.5198 258.96 53.3598 259.24C53.2065 259.513 53.1298 259.84 53.1298 260.22C53.1298 260.6 53.2065 260.933 53.3598 261.22C53.5198 261.507 53.7265 261.727 53.9798 261.88C54.2398 262.027 54.5132 262.1 54.7998 262.1C55.0932 262.1 55.3665 262.027 55.6198 261.88C55.8732 261.733 56.0765 261.52 56.2298 261.24C56.3898 260.953 56.4698 260.62 56.4698 260.24ZM64.0772 257.49L60.6972 265.59H59.5172L60.6372 262.91L58.4672 257.49H59.7372L61.2872 261.69L62.8972 257.49H64.0772ZM67.2352 256.75V255.71H69.3152V263H68.1652V256.75H67.2352Z" fill="#525252"/>
<rect x="97.5" y="206" width="25" height="36" rx="5" fill="#9FCFFF"/>
<path d="M98.52 256.05C99.26 256.05 99.9067 256.193 100.46 256.48C101.02 256.76 101.45 257.167 101.75 257.7C102.057 258.227 102.21 258.843 102.21 259.55C102.21 260.257 102.057 260.87 101.75 261.39C101.45 261.91 101.02 262.31 100.46 262.59C99.9067 262.863 99.26 263 98.52 263H96.25V256.05H98.52ZM98.52 262.07C99.3333 262.07 99.9567 261.85 100.39 261.41C100.823 260.97 101.04 260.35 101.04 259.55C101.04 258.743 100.823 258.113 100.39 257.66C99.9567 257.207 99.3333 256.98 98.52 256.98H97.39V262.07H98.52ZM102.96 260.22C102.96 259.667 103.073 259.177 103.3 258.75C103.533 258.323 103.847 257.993 104.24 257.76C104.64 257.52 105.08 257.4 105.56 257.4C105.993 257.4 106.37 257.487 106.69 257.66C107.017 257.827 107.277 258.037 107.47 258.29V257.49H108.62V263H107.47V262.18C107.277 262.44 107.013 262.657 106.68 262.83C106.347 263.003 105.967 263.09 105.54 263.09C105.067 263.09 104.633 262.97 104.24 262.73C103.847 262.483 103.533 262.143 103.3 261.71C103.073 261.27 102.96 260.773 102.96 260.22ZM107.47 260.24C107.47 259.86 107.39 259.53 107.23 259.25C107.077 258.97 106.873 258.757 106.62 258.61C106.367 258.463 106.093 258.39 105.8 258.39C105.507 258.39 105.233 258.463 104.98 258.61C104.727 258.75 104.52 258.96 104.36 259.24C104.207 259.513 104.13 259.84 104.13 260.22C104.13 260.6 104.207 260.933 104.36 261.22C104.52 261.507 104.727 261.727 104.98 261.88C105.24 262.027 105.513 262.1 105.8 262.1C106.093 262.1 106.367 262.027 106.62 261.88C106.873 261.733 107.077 261.52 107.23 261.24C107.39 260.953 107.47 260.62 107.47 260.24ZM115.077 257.49L111.697 265.59H110.517L111.637 262.91L109.467 257.49H110.737L112.287 261.69L113.897 257.49H115.077ZM119.015 261.45C119.655 260.897 120.158 260.443 120.525 260.09C120.898 259.73 121.208 259.357 121.455 258.97C121.702 258.583 121.825 258.197 121.825 257.81C121.825 257.41 121.728 257.097 121.535 256.87C121.348 256.643 121.052 256.53 120.645 256.53C120.252 256.53 119.945 256.657 119.725 256.91C119.512 257.157 119.398 257.49 119.385 257.91H118.285C118.305 257.15 118.532 256.57 118.965 256.17C119.405 255.763 119.962 255.56 120.635 255.56C121.362 255.56 121.928 255.76 122.335 256.16C122.748 256.56 122.955 257.093 122.955 257.76C122.955 258.24 122.832 258.703 122.585 259.15C122.345 259.59 122.055 259.987 121.715 260.34C121.382 260.687 120.955 261.09 120.435 261.55L119.985 261.95H123.155V262.9H118.295V262.07L119.015 261.45Z" fill="#525252"/>
<rect x="151.5" y="236" width="25" height="6" rx="3" fill="#2A8EF1"/>
<path d="M152.52 256.05C153.26 256.05 153.907 256.193 154.46 256.48C155.02 256.76 155.45 257.167 155.75 257.7C156.057 258.227 156.21 258.843 156.21 259.55C156.21 260.257 156.057 260.87 155.75 261.39C155.45 261.91 155.02 262.31 154.46 262.59C153.907 262.863 153.26 263 152.52 263H150.25V256.05H152.52ZM152.52 262.07C153.333 262.07 153.957 261.85 154.39 261.41C154.823 260.97 155.04 260.35 155.04 259.55C155.04 258.743 154.823 258.113 154.39 257.66C153.957 257.207 153.333 256.98 152.52 256.98H151.39V262.07H152.52ZM156.96 260.22C156.96 259.667 157.073 259.177 157.3 258.75C157.533 258.323 157.847 257.993 158.24 257.76C158.64 257.52 159.08 257.4 159.56 257.4C159.993 257.4 160.37 257.487 160.69 257.66C161.017 257.827 161.277 258.037 161.47 258.29V257.49H162.62V263H161.47V262.18C161.277 262.44 161.013 262.657 160.68 262.83C160.347 263.003 159.967 263.09 159.54 263.09C159.067 263.09 158.633 262.97 158.24 262.73C157.847 262.483 157.533 262.143 157.3 261.71C157.073 261.27 156.96 260.773 156.96 260.22ZM161.47 260.24C161.47 259.86 161.39 259.53 161.23 259.25C161.077 258.97 160.873 258.757 160.62 258.61C160.367 258.463 160.093 258.39 159.8 258.39C159.507 258.39 159.233 258.463 158.98 258.61C158.727 258.75 158.52 258.96 158.36 259.24C158.207 259.513 158.13 259.84 158.13 260.22C158.13 260.6 158.207 260.933 158.36 261.22C158.52 261.507 158.727 261.727 158.98 261.88C159.24 262.027 159.513 262.1 159.8 262.1C160.093 262.1 160.367 262.027 160.62 261.88C160.873 261.733 161.077 261.52 161.23 261.24C161.39 260.953 161.47 260.62 161.47 260.24ZM169.077 257.49L165.697 265.59H164.517L165.637 262.91L163.467 257.49H164.737L166.287 261.69L167.897 257.49H169.077ZM172.365 257.51C172.405 256.89 172.642 256.407 173.075 256.06C173.515 255.713 174.075 255.54 174.755 255.54C175.222 255.54 175.625 255.623 175.965 255.79C176.305 255.957 176.562 256.183 176.735 256.47C176.908 256.757 176.995 257.08 176.995 257.44C176.995 257.853 176.885 258.207 176.665 258.5C176.445 258.793 176.182 258.99 175.875 259.09V259.13C176.268 259.25 176.575 259.47 176.795 259.79C177.015 260.103 177.125 260.507 177.125 261C177.125 261.393 177.035 261.743 176.855 262.05C176.675 262.357 176.408 262.6 176.055 262.78C175.702 262.953 175.278 263.04 174.785 263.04C174.065 263.04 173.472 262.857 173.005 262.49C172.545 262.117 172.298 261.583 172.265 260.89H173.365C173.392 261.243 173.528 261.533 173.775 261.76C174.022 261.98 174.355 262.09 174.775 262.09C175.182 262.09 175.495 261.98 175.715 261.76C175.935 261.533 176.045 261.243 176.045 260.89C176.045 260.423 175.895 260.093 175.595 259.9C175.302 259.7 174.848 259.6 174.235 259.6H173.975V258.66H174.245C174.785 258.653 175.195 258.563 175.475 258.39C175.762 258.217 175.905 257.943 175.905 257.57C175.905 257.25 175.802 256.997 175.595 256.81C175.388 256.617 175.095 256.52 174.715 256.52C174.342 256.52 174.052 256.617 173.845 256.81C173.638 256.997 173.515 257.23 173.475 257.51H172.365Z" fill="#525252"/>
<rect x="204.5" y="206" width="25" height="36" rx="5" fill="#9FCFFF"/>
<path d="M206.52 256.05C207.26 256.05 207.907 256.193 208.46 256.48C209.02 256.76 209.45 257.167 209.75 257.7C210.057 258.227 210.21 258.843 210.21 259.55C210.21 260.257 210.057 260.87 209.75 261.39C209.45 261.91 209.02 262.31 208.46 262.59C207.907 262.863 207.26 263 206.52 263H204.25V256.05H206.52ZM206.52 262.07C207.333 262.07 207.957 261.85 208.39 261.41C208.823 260.97 209.04 260.35 209.04 259.55C209.04 258.743 208.823 258.113 208.39 257.66C207.957 257.207 207.333 256.98 206.52 256.98H205.39V262.07H206.52ZM210.96 260.22C210.96 259.667 211.073 259.177 211.3 258.75C211.533 258.323 211.847 257.993 212.24 257.76C212.64 257.52 213.08 257.4 213.56 257.4C213.993 257.4 214.37 257.487 214.69 257.66C215.017 257.827 215.277 258.037 215.47 258.29V257.49H216.62V263H215.47V262.18C215.277 262.44 215.013 262.657 214.68 262.83C214.347 263.003 213.967 263.09 213.54 263.09C213.067 263.09 212.633 262.97 212.24 262.73C211.847 262.483 211.533 262.143 211.3 261.71C211.073 261.27 210.96 260.773 210.96 260.22ZM215.47 260.24C215.47 259.86 215.39 259.53 215.23 259.25C215.077 258.97 214.873 258.757 214.62 258.61C214.367 258.463 214.093 258.39 213.8 258.39C213.507 258.39 213.233 258.463 212.98 258.61C212.727 258.75 212.52 258.96 212.36 259.24C212.207 259.513 212.13 259.84 212.13 260.22C212.13 260.6 212.207 260.933 212.36 261.22C212.52 261.507 212.727 261.727 212.98 261.88C213.24 262.027 213.513 262.1 213.8 262.1C214.093 262.1 214.367 262.027 214.62 261.88C214.873 261.733 215.077 261.52 215.23 261.24C215.39 260.953 215.47 260.62 215.47 260.24ZM223.077 257.49L219.697 265.59H218.517L219.637 262.91L217.467 257.49H218.737L220.287 261.69L221.897 257.49H223.077ZM223.648 261.48V260.62L227.008 255.8H228.388V260.49H229.318V261.48H228.388V263H227.268V261.48H223.648ZM227.318 256.96L224.958 260.49H227.318V256.96Z" fill="#525252"/>
<rect x="257.5" y="198" width="25" height="44" rx="5" fill="#2A8EF1"/>
<path d="M258.52 256.05C259.26 256.05 259.907 256.193 260.46 256.48C261.02 256.76 261.45 257.167 261.75 257.7C262.057 258.227 262.21 258.843 262.21 259.55C262.21 260.257 262.057 260.87 261.75 261.39C261.45 261.91 261.02 262.31 260.46 262.59C259.907 262.863 259.26 263 258.52 263H256.25V256.05H258.52ZM258.52 262.07C259.333 262.07 259.957 261.85 260.39 261.41C260.823 260.97 261.04 260.35 261.04 259.55C261.04 258.743 260.823 258.113 260.39 257.66C259.957 257.207 259.333 256.98 258.52 256.98H257.39V262.07H258.52ZM262.96 260.22C262.96 259.667 263.073 259.177 263.3 258.75C263.533 258.323 263.847 257.993 264.24 257.76C264.64 257.52 265.08 257.4 265.56 257.4C265.993 257.4 266.37 257.487 266.69 257.66C267.017 257.827 267.277 258.037 267.47 258.29V257.49H268.62V263H267.47V262.18C267.277 262.44 267.013 262.657 266.68 262.83C266.347 263.003 265.967 263.09 265.54 263.09C265.067 263.09 264.633 262.97 264.24 262.73C263.847 262.483 263.533 262.143 263.3 261.71C263.073 261.27 262.96 260.773 262.96 260.22ZM267.47 260.24C267.47 259.86 267.39 259.53 267.23 259.25C267.077 258.97 266.873 258.757 266.62 258.61C266.367 258.463 266.093 258.39 265.8 258.39C265.507 258.39 265.233 258.463 264.98 258.61C264.727 258.75 264.52 258.96 264.36 259.24C264.207 259.513 264.13 259.84 264.13 260.22C264.13 260.6 264.207 260.933 264.36 261.22C264.52 261.507 264.727 261.727 264.98 261.88C265.24 262.027 265.513 262.1 265.8 262.1C266.093 262.1 266.367 262.027 266.62 261.88C266.873 261.733 267.077 261.52 267.23 261.24C267.39 260.953 267.47 260.62 267.47 260.24ZM275.077 257.49L271.697 265.59H270.517L271.637 262.91L269.467 257.49H270.737L272.287 261.69L273.897 257.49H275.077ZM283.085 256.69H279.735V258.68C279.875 258.493 280.082 258.337 280.355 258.21C280.635 258.083 280.932 258.02 281.245 258.02C281.805 258.02 282.258 258.14 282.605 258.38C282.958 258.62 283.208 258.923 283.355 259.29C283.508 259.657 283.585 260.043 283.585 260.45C283.585 260.943 283.488 261.383 283.295 261.77C283.108 262.15 282.825 262.45 282.445 262.67C282.072 262.89 281.612 263 281.065 263C280.338 263 279.755 262.82 279.315 262.46C278.875 262.1 278.612 261.623 278.525 261.03H279.635C279.708 261.343 279.872 261.593 280.125 261.78C280.378 261.96 280.695 262.05 281.075 262.05C281.548 262.05 281.902 261.907 282.135 261.62C282.375 261.333 282.495 260.953 282.495 260.48C282.495 260 282.375 259.633 282.135 259.38C281.895 259.12 281.542 258.99 281.075 258.99C280.748 258.99 280.472 259.073 280.245 259.24C280.025 259.4 279.865 259.62 279.765 259.9H278.685V255.69H283.085V256.69Z" fill="#525252"/>
<rect x="311.5" y="166" width="25" height="76" rx="5" fill="#9FCFFF"/>
<path d="M312.52 256.05C313.26 256.05 313.907 256.193 314.46 256.48C315.02 256.76 315.45 257.167 315.75 257.7C316.057 258.227 316.21 258.843 316.21 259.55C316.21 260.257 316.057 260.87 315.75 261.39C315.45 261.91 315.02 262.31 314.46 262.59C313.907 262.863 313.26 263 312.52 263H310.25V256.05H312.52ZM312.52 262.07C313.333 262.07 313.957 261.85 314.39 261.41C314.823 260.97 315.04 260.35 315.04 259.55C315.04 258.743 314.823 258.113 314.39 257.66C313.957 257.207 313.333 256.98 312.52 256.98H311.39V262.07H312.52ZM316.96 260.22C316.96 259.667 317.073 259.177 317.3 258.75C317.533 258.323 317.847 257.993 318.24 257.76C318.64 257.52 319.08 257.4 319.56 257.4C319.993 257.4 320.37 257.487 320.69 257.66C321.017 257.827 321.277 258.037 321.47 258.29V257.49H322.62V263H321.47V262.18C321.277 262.44 321.013 262.657 320.68 262.83C320.347 263.003 319.967 263.09 319.54 263.09C319.067 263.09 318.633 262.97 318.24 262.73C317.847 262.483 317.533 262.143 317.3 261.71C317.073 261.27 316.96 260.773 316.96 260.22ZM321.47 260.24C321.47 259.86 321.39 259.53 321.23 259.25C321.077 258.97 320.873 258.757 320.62 258.61C320.367 258.463 320.093 258.39 319.8 258.39C319.507 258.39 319.233 258.463 318.98 258.61C318.727 258.75 318.52 258.96 318.36 259.24C318.207 259.513 318.13 259.84 318.13 260.22C318.13 260.6 318.207 260.933 318.36 261.22C318.52 261.507 318.727 261.727 318.98 261.88C319.24 262.027 319.513 262.1 319.8 262.1C320.093 262.1 320.367 262.027 320.62 261.88C320.873 261.733 321.077 261.52 321.23 261.24C321.39 260.953 321.47 260.62 321.47 260.24ZM329.077 257.49L325.697 265.59H324.517L325.637 262.91L323.467 257.49H324.737L326.287 261.69L327.897 257.49H329.077ZM336.305 257.4C336.232 257.093 336.098 256.863 335.905 256.71C335.712 256.557 335.442 256.48 335.095 256.48C334.568 256.48 334.175 256.683 333.915 257.09C333.655 257.49 333.518 258.157 333.505 259.09C333.678 258.797 333.932 258.57 334.265 258.41C334.598 258.25 334.958 258.17 335.345 258.17C335.785 258.17 336.172 258.267 336.505 258.46C336.845 258.647 337.108 258.92 337.295 259.28C337.488 259.64 337.585 260.07 337.585 260.57C337.585 261.037 337.492 261.453 337.305 261.82C337.125 262.187 336.855 262.477 336.495 262.69C336.135 262.897 335.702 263 335.195 263C334.508 263 333.968 262.85 333.575 262.55C333.188 262.243 332.915 261.813 332.755 261.26C332.602 260.707 332.525 260.017 332.525 259.19C332.525 256.75 333.385 255.53 335.105 255.53C335.772 255.53 336.295 255.71 336.675 256.07C337.062 256.43 337.288 256.873 337.355 257.4H336.305ZM335.095 259.13C334.688 259.13 334.342 259.253 334.055 259.5C333.775 259.74 333.635 260.09 333.635 260.55C333.635 261.01 333.765 261.377 334.025 261.65C334.292 261.917 334.662 262.05 335.135 262.05C335.555 262.05 335.885 261.92 336.125 261.66C336.372 261.4 336.495 261.053 336.495 260.62C336.495 260.167 336.375 259.807 336.135 259.54C335.902 259.267 335.555 259.13 335.095 259.13Z" fill="#525252"/>
<rect x="365" y="179" width="25" height="63" rx="5" fill="#2A8EF1"/>
<path d="M366.52 256.05C367.26 256.05 367.907 256.193 368.46 256.48C369.02 256.76 369.45 257.167 369.75 257.7C370.057 258.227 370.21 258.843 370.21 259.55C370.21 260.257 370.057 260.87 369.75 261.39C369.45 261.91 369.02 262.31 368.46 262.59C367.907 262.863 367.26 263 366.52 263H364.25V256.05H366.52ZM366.52 262.07C367.333 262.07 367.957 261.85 368.39 261.41C368.823 260.97 369.04 260.35 369.04 259.55C369.04 258.743 368.823 258.113 368.39 257.66C367.957 257.207 367.333 256.98 366.52 256.98H365.39V262.07H366.52ZM370.96 260.22C370.96 259.667 371.073 259.177 371.3 258.75C371.533 258.323 371.847 257.993 372.24 257.76C372.64 257.52 373.08 257.4 373.56 257.4C373.993 257.4 374.37 257.487 374.69 257.66C375.017 257.827 375.277 258.037 375.47 258.29V257.49H376.62V263H375.47V262.18C375.277 262.44 375.013 262.657 374.68 262.83C374.347 263.003 373.967 263.09 373.54 263.09C373.067 263.09 372.633 262.97 372.24 262.73C371.847 262.483 371.533 262.143 371.3 261.71C371.073 261.27 370.96 260.773 370.96 260.22ZM375.47 260.24C375.47 259.86 375.39 259.53 375.23 259.25C375.077 258.97 374.873 258.757 374.62 258.61C374.367 258.463 374.093 258.39 373.8 258.39C373.507 258.39 373.233 258.463 372.98 258.61C372.727 258.75 372.52 258.96 372.36 259.24C372.207 259.513 372.13 259.84 372.13 260.22C372.13 260.6 372.207 260.933 372.36 261.22C372.52 261.507 372.727 261.727 372.98 261.88C373.24 262.027 373.513 262.1 373.8 262.1C374.093 262.1 374.367 262.027 374.62 261.88C374.873 261.733 375.077 261.52 375.23 261.24C375.39 260.953 375.47 260.62 375.47 260.24ZM383.077 257.49L379.697 265.59H378.517L379.637 262.91L377.467 257.49H378.737L380.287 261.69L381.897 257.49H383.077ZM391.005 256.59L388.225 263H387.075L389.885 256.71H386.185V255.74H391.005V256.59Z" fill="#525252"/>
<rect x="418.5" y="167" width="25" height="75" rx="5" fill="#9FCFFF"/>
<path d="M419.52 256.05C420.26 256.05 420.907 256.193 421.46 256.48C422.02 256.76 422.45 257.167 422.75 257.7C423.057 258.227 423.21 258.843 423.21 259.55C423.21 260.257 423.057 260.87 422.75 261.39C422.45 261.91 422.02 262.31 421.46 262.59C420.907 262.863 420.26 263 419.52 263H417.25V256.05H419.52ZM419.52 262.07C420.333 262.07 420.957 261.85 421.39 261.41C421.823 260.97 422.04 260.35 422.04 259.55C422.04 258.743 421.823 258.113 421.39 257.66C420.957 257.207 420.333 256.98 419.52 256.98H418.39V262.07H419.52ZM423.96 260.22C423.96 259.667 424.073 259.177 424.3 258.75C424.533 258.323 424.847 257.993 425.24 257.76C425.64 257.52 426.08 257.4 426.56 257.4C426.993 257.4 427.37 257.487 427.69 257.66C428.017 257.827 428.277 258.037 428.47 258.29V257.49H429.62V263H428.47V262.18C428.277 262.44 428.013 262.657 427.68 262.83C427.347 263.003 426.967 263.09 426.54 263.09C426.067 263.09 425.633 262.97 425.24 262.73C424.847 262.483 424.533 262.143 424.3 261.71C424.073 261.27 423.96 260.773 423.96 260.22ZM428.47 260.24C428.47 259.86 428.39 259.53 428.23 259.25C428.077 258.97 427.873 258.757 427.62 258.61C427.367 258.463 427.093 258.39 426.8 258.39C426.507 258.39 426.233 258.463 425.98 258.61C425.727 258.75 425.52 258.96 425.36 259.24C425.207 259.513 425.13 259.84 425.13 260.22C425.13 260.6 425.207 260.933 425.36 261.22C425.52 261.507 425.727 261.727 425.98 261.88C426.24 262.027 426.513 262.1 426.8 262.1C427.093 262.1 427.367 262.027 427.62 261.88C427.873 261.733 428.077 261.52 428.23 261.24C428.39 260.953 428.47 260.62 428.47 260.24ZM436.077 257.49L432.697 265.59H431.517L432.637 262.91L430.467 257.49H431.737L433.287 261.69L434.897 257.49H436.077ZM440.615 259.19C439.922 258.843 439.575 258.297 439.575 257.55C439.575 257.19 439.665 256.86 439.845 256.56C440.025 256.26 440.295 256.023 440.655 255.85C441.015 255.67 441.455 255.58 441.975 255.58C442.488 255.58 442.925 255.67 443.285 255.85C443.652 256.023 443.925 256.26 444.105 256.56C444.285 256.86 444.375 257.19 444.375 257.55C444.375 257.923 444.278 258.253 444.085 258.54C443.898 258.82 443.648 259.037 443.335 259.19C443.715 259.33 444.015 259.56 444.235 259.88C444.455 260.193 444.565 260.563 444.565 260.99C444.565 261.423 444.455 261.807 444.235 262.14C444.015 262.473 443.708 262.73 443.315 262.91C442.922 263.09 442.475 263.18 441.975 263.18C441.475 263.18 441.028 263.09 440.635 262.91C440.248 262.73 439.945 262.473 439.725 262.14C439.505 261.807 439.395 261.423 439.395 260.99C439.395 260.557 439.505 260.183 439.725 259.87C439.945 259.557 440.242 259.33 440.615 259.19ZM443.285 257.69C443.285 257.317 443.168 257.03 442.935 256.83C442.702 256.63 442.382 256.53 441.975 256.53C441.575 256.53 441.258 256.63 441.025 256.83C440.792 257.03 440.675 257.32 440.675 257.7C440.675 258.033 440.795 258.307 441.035 258.52C441.282 258.727 441.595 258.83 441.975 258.83C442.355 258.83 442.668 258.723 442.915 258.51C443.162 258.297 443.285 258.023 443.285 257.69ZM441.975 259.69C441.535 259.69 441.175 259.8 440.895 260.02C440.622 260.233 440.485 260.543 440.485 260.95C440.485 261.33 440.618 261.64 440.885 261.88C441.152 262.113 441.515 262.23 441.975 262.23C442.428 262.23 442.785 262.11 443.045 261.87C443.312 261.63 443.445 261.323 443.445 260.95C443.445 260.55 443.308 260.24 443.035 260.02C442.768 259.8 442.415 259.69 441.975 259.69Z" fill="#525252"/>
<rect x="472.5" y="226" width="25" height="16" rx="5" fill="#2A8EF1"/>
<path d="M473.52 256.05C474.26 256.05 474.907 256.193 475.46 256.48C476.02 256.76 476.45 257.167 476.75 257.7C477.057 258.227 477.21 258.843 477.21 259.55C477.21 260.257 477.057 260.87 476.75 261.39C476.45 261.91 476.02 262.31 475.46 262.59C474.907 262.863 474.26 263 473.52 263H471.25V256.05H473.52ZM473.52 262.07C474.333 262.07 474.957 261.85 475.39 261.41C475.823 260.97 476.04 260.35 476.04 259.55C476.04 258.743 475.823 258.113 475.39 257.66C474.957 257.207 474.333 256.98 473.52 256.98H472.39V262.07H473.52ZM477.96 260.22C477.96 259.667 478.073 259.177 478.3 258.75C478.533 258.323 478.847 257.993 479.24 257.76C479.64 257.52 480.08 257.4 480.56 257.4C480.993 257.4 481.37 257.487 481.69 257.66C482.017 257.827 482.277 258.037 482.47 258.29V257.49H483.62V263H482.47V262.18C482.277 262.44 482.013 262.657 481.68 262.83C481.347 263.003 480.967 263.09 480.54 263.09C480.067 263.09 479.633 262.97 479.24 262.73C478.847 262.483 478.533 262.143 478.3 261.71C478.073 261.27 477.96 260.773 477.96 260.22ZM482.47 260.24C482.47 259.86 482.39 259.53 482.23 259.25C482.077 258.97 481.873 258.757 481.62 258.61C481.367 258.463 481.093 258.39 480.8 258.39C480.507 258.39 480.233 258.463 479.98 258.61C479.727 258.75 479.52 258.96 479.36 259.24C479.207 259.513 479.13 259.84 479.13 260.22C479.13 260.6 479.207 260.933 479.36 261.22C479.52 261.507 479.727 261.727 479.98 261.88C480.24 262.027 480.513 262.1 480.8 262.1C481.093 262.1 481.367 262.027 481.62 261.88C481.873 261.733 482.077 261.52 482.23 261.24C482.39 260.953 482.47 260.62 482.47 260.24ZM490.077 257.49L486.697 265.59H485.517L486.637 262.91L484.467 257.49H485.737L487.287 261.69L488.897 257.49H490.077ZM494.805 261.02C494.872 261.353 495.015 261.607 495.235 261.78C495.455 261.953 495.752 262.04 496.125 262.04C496.598 262.04 496.945 261.853 497.165 261.48C497.385 261.107 497.495 260.47 497.495 259.57C497.335 259.797 497.108 259.973 496.815 260.1C496.528 260.22 496.215 260.28 495.875 260.28C495.442 260.28 495.048 260.193 494.695 260.02C494.342 259.84 494.062 259.577 493.855 259.23C493.655 258.877 493.555 258.45 493.555 257.95C493.555 257.217 493.768 256.633 494.195 256.2C494.628 255.76 495.222 255.54 495.975 255.54C496.882 255.54 497.525 255.843 497.905 256.45C498.292 257.05 498.485 257.973 498.485 259.22C498.485 260.08 498.412 260.783 498.265 261.33C498.125 261.877 497.878 262.29 497.525 262.57C497.172 262.85 496.682 262.99 496.055 262.99C495.342 262.99 494.792 262.803 494.405 262.43C494.018 262.057 493.802 261.587 493.755 261.02H494.805ZM496.075 259.32C496.475 259.32 496.788 259.197 497.015 258.95C497.248 258.697 497.365 258.363 497.365 257.95C497.365 257.49 497.242 257.133 496.995 256.88C496.755 256.62 496.425 256.49 496.005 256.49C495.585 256.49 495.252 256.623 495.005 256.89C494.765 257.15 494.645 257.493 494.645 257.92C494.645 258.327 494.762 258.663 494.995 258.93C495.235 259.19 495.595 259.32 496.075 259.32Z" fill="#525252"/>
<rect x="528.5" y="206" width="25" height="36" rx="5" fill="#9FCFFF"/>
<path d="M527.52 256.05C528.26 256.05 528.907 256.193 529.46 256.48C530.02 256.76 530.45 257.167 530.75 257.7C531.057 258.227 531.21 258.843 531.21 259.55C531.21 260.257 531.057 260.87 530.75 261.39C530.45 261.91 530.02 262.31 529.46 262.59C528.907 262.863 528.26 263 527.52 263H525.25V256.05H527.52ZM527.52 262.07C528.333 262.07 528.957 261.85 529.39 261.41C529.823 260.97 530.04 260.35 530.04 259.55C530.04 258.743 529.823 258.113 529.39 257.66C528.957 257.207 528.333 256.98 527.52 256.98H526.39V262.07H527.52ZM531.96 260.22C531.96 259.667 532.073 259.177 532.3 258.75C532.533 258.323 532.847 257.993 533.24 257.76C533.64 257.52 534.08 257.4 534.56 257.4C534.993 257.4 535.37 257.487 535.69 257.66C536.017 257.827 536.277 258.037 536.47 258.29V257.49H537.62V263H536.47V262.18C536.277 262.44 536.013 262.657 535.68 262.83C535.347 263.003 534.967 263.09 534.54 263.09C534.067 263.09 533.633 262.97 533.24 262.73C532.847 262.483 532.533 262.143 532.3 261.71C532.073 261.27 531.96 260.773 531.96 260.22ZM536.47 260.24C536.47 259.86 536.39 259.53 536.23 259.25C536.077 258.97 535.873 258.757 535.62 258.61C535.367 258.463 535.093 258.39 534.8 258.39C534.507 258.39 534.233 258.463 533.98 258.61C533.727 258.75 533.52 258.96 533.36 259.24C533.207 259.513 533.13 259.84 533.13 260.22C533.13 260.6 533.207 260.933 533.36 261.22C533.52 261.507 533.727 261.727 533.98 261.88C534.24 262.027 534.513 262.1 534.8 262.1C535.093 262.1 535.367 262.027 535.62 261.88C535.873 261.733 536.077 261.52 536.23 261.24C536.39 260.953 536.47 260.62 536.47 260.24ZM544.077 257.49L540.697 265.59H539.517L540.637 262.91L538.467 257.49H539.737L541.287 261.69L542.897 257.49H544.077ZM547.235 256.75V255.71H549.315V263H548.165V256.75H547.235ZM550.881 259.26C550.881 258.107 551.075 257.207 551.461 256.56C551.855 255.907 552.528 255.58 553.481 255.58C554.435 255.58 555.105 255.907 555.491 256.56C555.885 257.207 556.081 258.107 556.081 259.26C556.081 260.427 555.885 261.34 555.491 262C555.105 262.653 554.435 262.98 553.481 262.98C552.528 262.98 551.855 262.653 551.461 262C551.075 261.34 550.881 260.427 550.881 259.26ZM554.961 259.26C554.961 258.72 554.925 258.263 554.851 257.89C554.785 257.517 554.645 257.213 554.431 256.98C554.218 256.74 553.901 256.62 553.481 256.62C553.061 256.62 552.745 256.74 552.531 256.98C552.318 257.213 552.175 257.517 552.101 257.89C552.035 258.263 552.001 258.72 552.001 259.26C552.001 259.82 552.035 260.29 552.101 260.67C552.168 261.05 552.308 261.357 552.521 261.59C552.741 261.823 553.061 261.94 553.481 261.94C553.901 261.94 554.218 261.823 554.431 261.59C554.651 261.357 554.795 261.05 554.861 260.67C554.928 260.29 554.961 259.82 554.961 259.26Z" fill="#525252"/>
<rect x="585" y="206" width="25" height="36" rx="5" fill="#2A8EF1"/>
<path d="M585.52 256.05C586.26 256.05 586.907 256.193 587.46 256.48C588.02 256.76 588.45 257.167 588.75 257.7C589.057 258.227 589.21 258.843 589.21 259.55C589.21 260.257 589.057 260.87 588.75 261.39C588.45 261.91 588.02 262.31 587.46 262.59C586.907 262.863 586.26 263 585.52 263H583.25V256.05H585.52ZM585.52 262.07C586.333 262.07 586.957 261.85 587.39 261.41C587.823 260.97 588.04 260.35 588.04 259.55C588.04 258.743 587.823 258.113 587.39 257.66C586.957 257.207 586.333 256.98 585.52 256.98H584.39V262.07H585.52ZM589.96 260.22C589.96 259.667 590.073 259.177 590.3 258.75C590.533 258.323 590.847 257.993 591.24 257.76C591.64 257.52 592.08 257.4 592.56 257.4C592.993 257.4 593.37 257.487 593.69 257.66C594.017 257.827 594.277 258.037 594.47 258.29V257.49H595.62V263H594.47V262.18C594.277 262.44 594.013 262.657 593.68 262.83C593.347 263.003 592.967 263.09 592.54 263.09C592.067 263.09 591.633 262.97 591.24 262.73C590.847 262.483 590.533 262.143 590.3 261.71C590.073 261.27 589.96 260.773 589.96 260.22ZM594.47 260.24C594.47 259.86 594.39 259.53 594.23 259.25C594.077 258.97 593.873 258.757 593.62 258.61C593.367 258.463 593.093 258.39 592.8 258.39C592.507 258.39 592.233 258.463 591.98 258.61C591.727 258.75 591.52 258.96 591.36 259.24C591.207 259.513 591.13 259.84 591.13 260.22C591.13 260.6 591.207 260.933 591.36 261.22C591.52 261.507 591.727 261.727 591.98 261.88C592.24 262.027 592.513 262.1 592.8 262.1C593.093 262.1 593.367 262.027 593.62 261.88C593.873 261.733 594.077 261.52 594.23 261.24C594.39 260.953 594.47 260.62 594.47 260.24ZM602.077 257.49L598.697 265.59H597.517L598.637 262.91L596.467 257.49H597.737L599.287 261.69L600.897 257.49H602.077ZM605.235 256.75V255.71H607.315V263H606.165V256.75H605.235ZM608.731 256.75V255.71H610.811V263H609.661V256.75H608.731Z" fill="#525252"/>
<rect x="641" y="216" width="25" height="26" rx="5" fill="#9FCFFF"/>
<path d="M640.52 256.05C641.26 256.05 641.907 256.193 642.46 256.48C643.02 256.76 643.45 257.167 643.75 257.7C644.057 258.227 644.21 258.843 644.21 259.55C644.21 260.257 644.057 260.87 643.75 261.39C643.45 261.91 643.02 262.31 642.46 262.59C641.907 262.863 641.26 263 640.52 263H638.25V256.05H640.52ZM640.52 262.07C641.333 262.07 641.957 261.85 642.39 261.41C642.823 260.97 643.04 260.35 643.04 259.55C643.04 258.743 642.823 258.113 642.39 257.66C641.957 257.207 641.333 256.98 640.52 256.98H639.39V262.07H640.52ZM644.96 260.22C644.96 259.667 645.073 259.177 645.3 258.75C645.533 258.323 645.847 257.993 646.24 257.76C646.64 257.52 647.08 257.4 647.56 257.4C647.993 257.4 648.37 257.487 648.69 257.66C649.017 257.827 649.277 258.037 649.47 258.29V257.49H650.62V263H649.47V262.18C649.277 262.44 649.013 262.657 648.68 262.83C648.347 263.003 647.967 263.09 647.54 263.09C647.067 263.09 646.633 262.97 646.24 262.73C645.847 262.483 645.533 262.143 645.3 261.71C645.073 261.27 644.96 260.773 644.96 260.22ZM649.47 260.24C649.47 259.86 649.39 259.53 649.23 259.25C649.077 258.97 648.873 258.757 648.62 258.61C648.367 258.463 648.093 258.39 647.8 258.39C647.507 258.39 647.233 258.463 646.98 258.61C646.727 258.75 646.52 258.96 646.36 259.24C646.207 259.513 646.13 259.84 646.13 260.22C646.13 260.6 646.207 260.933 646.36 261.22C646.52 261.507 646.727 261.727 646.98 261.88C647.24 262.027 647.513 262.1 647.8 262.1C648.093 262.1 648.367 262.027 648.62 261.88C648.873 261.733 649.077 261.52 649.23 261.24C649.39 260.953 649.47 260.62 649.47 260.24ZM657.077 257.49L653.697 265.59H652.517L653.637 262.91L651.467 257.49H652.737L654.287 261.69L655.897 257.49H657.077ZM660.235 256.75V255.71H662.315V263H661.165V256.75H660.235ZM664.511 261.45C665.151 260.897 665.655 260.443 666.021 260.09C666.395 259.73 666.705 259.357 666.951 258.97C667.198 258.583 667.321 258.197 667.321 257.81C667.321 257.41 667.225 257.097 667.031 256.87C666.845 256.643 666.548 256.53 666.141 256.53C665.748 256.53 665.441 256.657 665.221 256.91C665.008 257.157 664.895 257.49 664.881 257.91H663.781C663.801 257.15 664.028 256.57 664.461 256.17C664.901 255.763 665.458 255.56 666.131 255.56C666.858 255.56 667.425 255.76 667.831 256.16C668.245 256.56 668.451 257.093 668.451 257.76C668.451 258.24 668.328 258.703 668.081 259.15C667.841 259.59 667.551 259.987 667.211 260.34C666.878 260.687 666.451 261.09 665.931 261.55L665.481 261.95H668.651V262.9H663.791V262.07L664.511 261.45Z" fill="#525252"/>
<rect x="698" y="159" width="25" height="83" rx="5" fill="#2A8EF1"/>
<path d="M697.52 256.05C698.26 256.05 698.907 256.193 699.46 256.48C700.02 256.76 700.45 257.167 700.75 257.7C701.057 258.227 701.21 258.843 701.21 259.55C701.21 260.257 701.057 260.87 700.75 261.39C700.45 261.91 700.02 262.31 699.46 262.59C698.907 262.863 698.26 263 697.52 263H695.25V256.05H697.52ZM697.52 262.07C698.333 262.07 698.957 261.85 699.39 261.41C699.823 260.97 700.04 260.35 700.04 259.55C700.04 258.743 699.823 258.113 699.39 257.66C698.957 257.207 698.333 256.98 697.52 256.98H696.39V262.07H697.52ZM701.96 260.22C701.96 259.667 702.073 259.177 702.3 258.75C702.533 258.323 702.847 257.993 703.24 257.76C703.64 257.52 704.08 257.4 704.56 257.4C704.993 257.4 705.37 257.487 705.69 257.66C706.017 257.827 706.277 258.037 706.47 258.29V257.49H707.62V263H706.47V262.18C706.277 262.44 706.013 262.657 705.68 262.83C705.347 263.003 704.967 263.09 704.54 263.09C704.067 263.09 703.633 262.97 703.24 262.73C702.847 262.483 702.533 262.143 702.3 261.71C702.073 261.27 701.96 260.773 701.96 260.22ZM706.47 260.24C706.47 259.86 706.39 259.53 706.23 259.25C706.077 258.97 705.873 258.757 705.62 258.61C705.367 258.463 705.093 258.39 704.8 258.39C704.507 258.39 704.233 258.463 703.98 258.61C703.727 258.75 703.52 258.96 703.36 259.24C703.207 259.513 703.13 259.84 703.13 260.22C703.13 260.6 703.207 260.933 703.36 261.22C703.52 261.507 703.727 261.727 703.98 261.88C704.24 262.027 704.513 262.1 704.8 262.1C705.093 262.1 705.367 262.027 705.62 261.88C705.873 261.733 706.077 261.52 706.23 261.24C706.39 260.953 706.47 260.62 706.47 260.24ZM714.077 257.49L710.697 265.59H709.517L710.637 262.91L708.467 257.49H709.737L711.287 261.69L712.897 257.49H714.077ZM717.235 256.75V255.71H719.315V263H718.165V256.75H717.235ZM720.861 257.51C720.901 256.89 721.138 256.407 721.571 256.06C722.011 255.713 722.571 255.54 723.251 255.54C723.718 255.54 724.121 255.623 724.461 255.79C724.801 255.957 725.058 256.183 725.231 256.47C725.405 256.757 725.491 257.08 725.491 257.44C725.491 257.853 725.381 258.207 725.161 258.5C724.941 258.793 724.678 258.99 724.371 259.09V259.13C724.765 259.25 725.071 259.47 725.291 259.79C725.511 260.103 725.621 260.507 725.621 261C725.621 261.393 725.531 261.743 725.351 262.05C725.171 262.357 724.905 262.6 724.551 262.78C724.198 262.953 723.775 263.04 723.281 263.04C722.561 263.04 721.968 262.857 721.501 262.49C721.041 262.117 720.795 261.583 720.761 260.89H721.861C721.888 261.243 722.025 261.533 722.271 261.76C722.518 261.98 722.851 262.09 723.271 262.09C723.678 262.09 723.991 261.98 724.211 261.76C724.431 261.533 724.541 261.243 724.541 260.89C724.541 260.423 724.391 260.093 724.091 259.9C723.798 259.7 723.345 259.6 722.731 259.6H722.471V258.66H722.741C723.281 258.653 723.691 258.563 723.971 258.39C724.258 258.217 724.401 257.943 724.401 257.57C724.401 257.25 724.298 256.997 724.091 256.81C723.885 256.617 723.591 256.52 723.211 256.52C722.838 256.52 722.548 256.617 722.341 256.81C722.135 256.997 722.011 257.23 721.971 257.51H720.861Z" fill="#525252"/>
<rect x="755.5" y="176" width="25" height="66" rx="5" fill="#9FCFFF"/>
<path d="M754.52 256.05C755.26 256.05 755.907 256.193 756.46 256.48C757.02 256.76 757.45 257.167 757.75 257.7C758.057 258.227 758.21 258.843 758.21 259.55C758.21 260.257 758.057 260.87 757.75 261.39C757.45 261.91 757.02 262.31 756.46 262.59C755.907 262.863 755.26 263 754.52 263H752.25V256.05H754.52ZM754.52 262.07C755.333 262.07 755.957 261.85 756.39 261.41C756.823 260.97 757.04 260.35 757.04 259.55C757.04 258.743 756.823 258.113 756.39 257.66C755.957 257.207 755.333 256.98 754.52 256.98H753.39V262.07H754.52ZM758.96 260.22C758.96 259.667 759.073 259.177 759.3 258.75C759.533 258.323 759.847 257.993 760.24 257.76C760.64 257.52 761.08 257.4 761.56 257.4C761.993 257.4 762.37 257.487 762.69 257.66C763.017 257.827 763.277 258.037 763.47 258.29V257.49H764.62V263H763.47V262.18C763.277 262.44 763.013 262.657 762.68 262.83C762.347 263.003 761.967 263.09 761.54 263.09C761.067 263.09 760.633 262.97 760.24 262.73C759.847 262.483 759.533 262.143 759.3 261.71C759.073 261.27 758.96 260.773 758.96 260.22ZM763.47 260.24C763.47 259.86 763.39 259.53 763.23 259.25C763.077 258.97 762.873 258.757 762.62 258.61C762.367 258.463 762.093 258.39 761.8 258.39C761.507 258.39 761.233 258.463 760.98 258.61C760.727 258.75 760.52 258.96 760.36 259.24C760.207 259.513 760.13 259.84 760.13 260.22C760.13 260.6 760.207 260.933 760.36 261.22C760.52 261.507 760.727 261.727 760.98 261.88C761.24 262.027 761.513 262.1 761.8 262.1C762.093 262.1 762.367 262.027 762.62 261.88C762.873 261.733 763.077 261.52 763.23 261.24C763.39 260.953 763.47 260.62 763.47 260.24ZM771.077 257.49L767.697 265.59H766.517L767.637 262.91L765.467 257.49H766.737L768.287 261.69L769.897 257.49H771.077ZM774.235 256.75V255.71H776.315V263H775.165V256.75H774.235ZM777.741 261.48V260.62L781.101 255.8H782.481V260.49H783.411V261.48H782.481V263H781.361V261.48H777.741ZM781.411 256.96L779.051 260.49H781.411V256.96Z" fill="#525252"/>
<rect x="813.5" y="189" width="25" height="53" rx="5" fill="#2A8EF1"/>
<path d="M812.52 256.05C813.26 256.05 813.907 256.193 814.46 256.48C815.02 256.76 815.45 257.167 815.75 257.7C816.057 258.227 816.21 258.843 816.21 259.55C816.21 260.257 816.057 260.87 815.75 261.39C815.45 261.91 815.02 262.31 814.46 262.59C813.907 262.863 813.26 263 812.52 263H810.25V256.05H812.52ZM812.52 262.07C813.333 262.07 813.957 261.85 814.39 261.41C814.823 260.97 815.04 260.35 815.04 259.55C815.04 258.743 814.823 258.113 814.39 257.66C813.957 257.207 813.333 256.98 812.52 256.98H811.39V262.07H812.52ZM816.96 260.22C816.96 259.667 817.073 259.177 817.3 258.75C817.533 258.323 817.847 257.993 818.24 257.76C818.64 257.52 819.08 257.4 819.56 257.4C819.993 257.4 820.37 257.487 820.69 257.66C821.017 257.827 821.277 258.037 821.47 258.29V257.49H822.62V263H821.47V262.18C821.277 262.44 821.013 262.657 820.68 262.83C820.347 263.003 819.967 263.09 819.54 263.09C819.067 263.09 818.633 262.97 818.24 262.73C817.847 262.483 817.533 262.143 817.3 261.71C817.073 261.27 816.96 260.773 816.96 260.22ZM821.47 260.24C821.47 259.86 821.39 259.53 821.23 259.25C821.077 258.97 820.873 258.757 820.62 258.61C820.367 258.463 820.093 258.39 819.8 258.39C819.507 258.39 819.233 258.463 818.98 258.61C818.727 258.75 818.52 258.96 818.36 259.24C818.207 259.513 818.13 259.84 818.13 260.22C818.13 260.6 818.207 260.933 818.36 261.22C818.52 261.507 818.727 261.727 818.98 261.88C819.24 262.027 819.513 262.1 819.8 262.1C820.093 262.1 820.367 262.027 820.62 261.88C820.873 261.733 821.077 261.52 821.23 261.24C821.39 260.953 821.47 260.62 821.47 260.24ZM829.077 257.49L825.697 265.59H824.517L825.637 262.91L823.467 257.49H824.737L826.287 261.69L827.897 257.49H829.077ZM832.235 256.75V255.71H834.315V263H833.165V256.75H832.235ZM840.581 256.69H837.231V258.68C837.371 258.493 837.578 258.337 837.851 258.21C838.131 258.083 838.428 258.02 838.741 258.02C839.301 258.02 839.755 258.14 840.101 258.38C840.455 258.62 840.705 258.923 840.851 259.29C841.005 259.657 841.081 260.043 841.081 260.45C841.081 260.943 840.985 261.383 840.791 261.77C840.605 262.15 840.321 262.45 839.941 262.67C839.568 262.89 839.108 263 838.561 263C837.835 263 837.251 262.82 836.811 262.46C836.371 262.1 836.108 261.623 836.021 261.03H837.131C837.205 261.343 837.368 261.593 837.621 261.78C837.875 261.96 838.191 262.05 838.571 262.05C839.045 262.05 839.398 261.907 839.631 261.62C839.871 261.333 839.991 260.953 839.991 260.48C839.991 260 839.871 259.633 839.631 259.38C839.391 259.12 839.038 258.99 838.571 258.99C838.245 258.99 837.968 259.073 837.741 259.24C837.521 259.4 837.361 259.62 837.261 259.9H836.181V255.69H840.581V256.69Z" fill="#525252"/>
<rect x="871.5" y="159" width="25" height="83" rx="5" fill="#9FCFFF"/>
<path d="M870.52 256.05C871.26 256.05 871.907 256.193 872.46 256.48C873.02 256.76 873.45 257.167 873.75 257.7C874.057 258.227 874.21 258.843 874.21 259.55C874.21 260.257 874.057 260.87 873.75 261.39C873.45 261.91 873.02 262.31 872.46 262.59C871.907 262.863 871.26 263 870.52 263H868.25V256.05H870.52ZM870.52 262.07C871.333 262.07 871.957 261.85 872.39 261.41C872.823 260.97 873.04 260.35 873.04 259.55C873.04 258.743 872.823 258.113 872.39 257.66C871.957 257.207 871.333 256.98 870.52 256.98H869.39V262.07H870.52ZM874.96 260.22C874.96 259.667 875.073 259.177 875.3 258.75C875.533 258.323 875.847 257.993 876.24 257.76C876.64 257.52 877.08 257.4 877.56 257.4C877.993 257.4 878.37 257.487 878.69 257.66C879.017 257.827 879.277 258.037 879.47 258.29V257.49H880.62V263H879.47V262.18C879.277 262.44 879.013 262.657 878.68 262.83C878.347 263.003 877.967 263.09 877.54 263.09C877.067 263.09 876.633 262.97 876.24 262.73C875.847 262.483 875.533 262.143 875.3 261.71C875.073 261.27 874.96 260.773 874.96 260.22ZM879.47 260.24C879.47 259.86 879.39 259.53 879.23 259.25C879.077 258.97 878.873 258.757 878.62 258.61C878.367 258.463 878.093 258.39 877.8 258.39C877.507 258.39 877.233 258.463 876.98 258.61C876.727 258.75 876.52 258.96 876.36 259.24C876.207 259.513 876.13 259.84 876.13 260.22C876.13 260.6 876.207 260.933 876.36 261.22C876.52 261.507 876.727 261.727 876.98 261.88C877.24 262.027 877.513 262.1 877.8 262.1C878.093 262.1 878.367 262.027 878.62 261.88C878.873 261.733 879.077 261.52 879.23 261.24C879.39 260.953 879.47 260.62 879.47 260.24ZM887.077 257.49L883.697 265.59H882.517L883.637 262.91L881.467 257.49H882.737L884.287 261.69L885.897 257.49H887.077ZM890.235 256.75V255.71H892.315V263H891.165V256.75H890.235ZM897.801 257.4C897.728 257.093 897.595 256.863 897.401 256.71C897.208 256.557 896.938 256.48 896.591 256.48C896.065 256.48 895.671 256.683 895.411 257.09C895.151 257.49 895.015 258.157 895.001 259.09C895.175 258.797 895.428 258.57 895.761 258.41C896.095 258.25 896.455 258.17 896.841 258.17C897.281 258.17 897.668 258.267 898.001 258.46C898.341 258.647 898.605 258.92 898.791 259.28C898.985 259.64 899.081 260.07 899.081 260.57C899.081 261.037 898.988 261.453 898.801 261.82C898.621 262.187 898.351 262.477 897.991 262.69C897.631 262.897 897.198 263 896.691 263C896.005 263 895.465 262.85 895.071 262.55C894.685 262.243 894.411 261.813 894.251 261.26C894.098 260.707 894.021 260.017 894.021 259.19C894.021 256.75 894.881 255.53 896.601 255.53C897.268 255.53 897.791 255.71 898.171 256.07C898.558 256.43 898.785 256.873 898.851 257.4H897.801ZM896.591 259.13C896.185 259.13 895.838 259.253 895.551 259.5C895.271 259.74 895.131 260.09 895.131 260.55C895.131 261.01 895.261 261.377 895.521 261.65C895.788 261.917 896.158 262.05 896.631 262.05C897.051 262.05 897.381 261.92 897.621 261.66C897.868 261.4 897.991 261.053 897.991 260.62C897.991 260.167 897.871 259.807 897.631 259.54C897.398 259.267 897.051 259.13 896.591 259.13Z" fill="#525252"/>
<rect x="929" y="189" width="25" height="53" rx="5" fill="#2A8EF1"/>
<path d="M928.52 256.05C929.26 256.05 929.907 256.193 930.46 256.48C931.02 256.76 931.45 257.167 931.75 257.7C932.057 258.227 932.21 258.843 932.21 259.55C932.21 260.257 932.057 260.87 931.75 261.39C931.45 261.91 931.02 262.31 930.46 262.59C929.907 262.863 929.26 263 928.52 263H926.25V256.05H928.52ZM928.52 262.07C929.333 262.07 929.957 261.85 930.39 261.41C930.823 260.97 931.04 260.35 931.04 259.55C931.04 258.743 930.823 258.113 930.39 257.66C929.957 257.207 929.333 256.98 928.52 256.98H927.39V262.07H928.52ZM932.96 260.22C932.96 259.667 933.073 259.177 933.3 258.75C933.533 258.323 933.847 257.993 934.24 257.76C934.64 257.52 935.08 257.4 935.56 257.4C935.993 257.4 936.37 257.487 936.69 257.66C937.017 257.827 937.277 258.037 937.47 258.29V257.49H938.62V263H937.47V262.18C937.277 262.44 937.013 262.657 936.68 262.83C936.347 263.003 935.967 263.09 935.54 263.09C935.067 263.09 934.633 262.97 934.24 262.73C933.847 262.483 933.533 262.143 933.3 261.71C933.073 261.27 932.96 260.773 932.96 260.22ZM937.47 260.24C937.47 259.86 937.39 259.53 937.23 259.25C937.077 258.97 936.873 258.757 936.62 258.61C936.367 258.463 936.093 258.39 935.8 258.39C935.507 258.39 935.233 258.463 934.98 258.61C934.727 258.75 934.52 258.96 934.36 259.24C934.207 259.513 934.13 259.84 934.13 260.22C934.13 260.6 934.207 260.933 934.36 261.22C934.52 261.507 934.727 261.727 934.98 261.88C935.24 262.027 935.513 262.1 935.8 262.1C936.093 262.1 936.367 262.027 936.62 261.88C936.873 261.733 937.077 261.52 937.23 261.24C937.39 260.953 937.47 260.62 937.47 260.24ZM945.077 257.49L941.697 265.59H940.517L941.637 262.91L939.467 257.49H940.737L942.287 261.69L943.897 257.49H945.077ZM948.235 256.75V255.71H950.315V263H949.165V256.75H948.235ZM956.501 256.59L953.721 263H952.571L955.381 256.71H951.681V255.74H956.501V256.59Z" fill="#525252"/>
<rect x="986.5" y="159" width="25" height="83" rx="5" fill="#9FCFFF"/>
<path d="M985.52 256.05C986.26 256.05 986.907 256.193 987.46 256.48C988.02 256.76 988.45 257.167 988.75 257.7C989.057 258.227 989.21 258.843 989.21 259.55C989.21 260.257 989.057 260.87 988.75 261.39C988.45 261.91 988.02 262.31 987.46 262.59C986.907 262.863 986.26 263 985.52 263H983.25V256.05H985.52ZM985.52 262.07C986.333 262.07 986.957 261.85 987.39 261.41C987.823 260.97 988.04 260.35 988.04 259.55C988.04 258.743 987.823 258.113 987.39 257.66C986.957 257.207 986.333 256.98 985.52 256.98H984.39V262.07H985.52ZM989.96 260.22C989.96 259.667 990.073 259.177 990.3 258.75C990.533 258.323 990.847 257.993 991.24 257.76C991.64 257.52 992.08 257.4 992.56 257.4C992.993 257.4 993.37 257.487 993.69 257.66C994.017 257.827 994.277 258.037 994.47 258.29V257.49H995.62V263H994.47V262.18C994.277 262.44 994.013 262.657 993.68 262.83C993.347 263.003 992.967 263.09 992.54 263.09C992.067 263.09 991.633 262.97 991.24 262.73C990.847 262.483 990.533 262.143 990.3 261.71C990.073 261.27 989.96 260.773 989.96 260.22ZM994.47 260.24C994.47 259.86 994.39 259.53 994.23 259.25C994.077 258.97 993.873 258.757 993.62 258.61C993.367 258.463 993.093 258.39 992.8 258.39C992.507 258.39 992.233 258.463 991.98 258.61C991.727 258.75 991.52 258.96 991.36 259.24C991.207 259.513 991.13 259.84 991.13 260.22C991.13 260.6 991.207 260.933 991.36 261.22C991.52 261.507 991.727 261.727 991.98 261.88C992.24 262.027 992.513 262.1 992.8 262.1C993.093 262.1 993.367 262.027 993.62 261.88C993.873 261.733 994.077 261.52 994.23 261.24C994.39 260.953 994.47 260.62 994.47 260.24ZM1002.08 257.49L998.697 265.59H997.517L998.637 262.91L996.467 257.49H997.737L999.287 261.69L1000.9 257.49H1002.08ZM1005.24 256.75V255.71H1007.32V263H1006.17V256.75H1005.24ZM1010.11 259.19C1009.42 258.843 1009.07 258.297 1009.07 257.55C1009.07 257.19 1009.16 256.86 1009.34 256.56C1009.52 256.26 1009.79 256.023 1010.15 255.85C1010.51 255.67 1010.95 255.58 1011.47 255.58C1011.98 255.58 1012.42 255.67 1012.78 255.85C1013.15 256.023 1013.42 256.26 1013.6 256.56C1013.78 256.86 1013.87 257.19 1013.87 257.55C1013.87 257.923 1013.77 258.253 1013.58 258.54C1013.39 258.82 1013.14 259.037 1012.83 259.19C1013.21 259.33 1013.51 259.56 1013.73 259.88C1013.95 260.193 1014.06 260.563 1014.06 260.99C1014.06 261.423 1013.95 261.807 1013.73 262.14C1013.51 262.473 1013.2 262.73 1012.81 262.91C1012.42 263.09 1011.97 263.18 1011.47 263.18C1010.97 263.18 1010.52 263.09 1010.13 262.91C1009.74 262.73 1009.44 262.473 1009.22 262.14C1009 261.807 1008.89 261.423 1008.89 260.99C1008.89 260.557 1009 260.183 1009.22 259.87C1009.44 259.557 1009.74 259.33 1010.11 259.19ZM1012.78 257.69C1012.78 257.317 1012.66 257.03 1012.43 256.83C1012.2 256.63 1011.88 256.53 1011.47 256.53C1011.07 256.53 1010.75 256.63 1010.52 256.83C1010.29 257.03 1010.17 257.32 1010.17 257.7C1010.17 258.033 1010.29 258.307 1010.53 258.52C1010.78 258.727 1011.09 258.83 1011.47 258.83C1011.85 258.83 1012.16 258.723 1012.41 258.51C1012.66 258.297 1012.78 258.023 1012.78 257.69ZM1011.47 259.69C1011.03 259.69 1010.67 259.8 1010.39 260.02C1010.12 260.233 1009.98 260.543 1009.98 260.95C1009.98 261.33 1010.11 261.64 1010.38 261.88C1010.65 262.113 1011.01 262.23 1011.47 262.23C1011.92 262.23 1012.28 262.11 1012.54 261.87C1012.81 261.63 1012.94 261.323 1012.94 260.95C1012.94 260.55 1012.8 260.24 1012.53 260.02C1012.26 259.8 1011.91 259.69 1011.47 259.69Z" fill="#525252"/>
</g>
<defs>
<filter id="filter0_d_97_1159" x="0" y="0" width="1085" height="303" filterUnits="userSpaceOnUse" color-interpolation-filters="sRGB">
<feFlood flood-opacity="0" result="BackgroundImageFix"/>
<feColorMatrix in="SourceAlpha" type="matrix" values="0 0 0 0 0 0 0 0 0 0 0 0 0 0 0 0 0 0 127 0" result="hardAlpha"/>
<feOffset/>
<feGaussianBlur stdDeviation="3"/>
<feComposite in2="hardAlpha" operator="out"/>
<feColorMatrix type="matrix" values="0 0 0 0 0 0 0 0 0 0 0 0 0 0 0 0 0 0 0.1 0"/>
<feBlend mode="normal" in2="BackgroundImageFix" result="effect1_dropShadow_97_1159"/>
<feBlend mode="normal" in="SourceGraphic" in2="effect1_dropShadow_97_1159" result="shape"/>
</filter>
<clipPath id="clip0_97_1159">
<rect width="40" height="40" fill="white" transform="translate(898 60)"/>
</clipPath>
</defs>
</svg>
