<svg width="86" height="66" viewBox="0 0 86 66" fill="none" xmlns="http://www.w3.org/2000/svg">
<path fill-rule="evenodd" clip-rule="evenodd" d="M43 10.9604C43.4276 10.9604 43.7742 11.3071 43.7742 11.7346V19.9927C43.7742 20.4203 43.4276 20.7669 43 20.7669C42.5724 20.7669 42.2258 20.4203 42.2258 19.9927V11.7346C42.2258 11.3071 42.5724 10.9604 43 10.9604ZM39.5059 15.6837C39.7506 16.0343 39.6646 16.5169 39.3139 16.7616C37.6406 17.9287 36.5484 19.8654 36.5484 22.0572C36.5484 25.6204 39.4369 28.5088 43 28.5088C46.5631 28.5088 49.4516 25.6204 49.4516 22.0572C49.4516 19.8654 48.3594 17.9287 46.6861 16.7616C46.3354 16.5169 46.2494 16.0343 46.494 15.6837C46.7387 15.333 47.2213 15.247 47.5719 15.4916C49.6426 16.9359 51 19.3379 51 22.0572C51 26.4755 47.4183 30.0572 43 30.0572C38.5817 30.0572 35 26.4755 35 22.0572C35 19.3379 36.3574 16.9359 38.4281 15.4916C38.7787 15.247 39.2613 15.333 39.5059 15.6837Z" fill="#F1F8FF" fill-opacity="0.7"/>
<path d="M26.39 50.1373H28.74V51.0573H25.25V44.1073H26.39V50.1373ZM32.0834 51.1473C31.5634 51.1473 31.0934 51.0306 30.6734 50.7973C30.2534 50.5573 29.9234 50.2239 29.6834 49.7973C29.4434 49.3639 29.3234 48.8639 29.3234 48.2973C29.3234 47.7373 29.4467 47.2406 29.6934 46.8073C29.94 46.3739 30.2767 46.0406 30.7034 45.8073C31.13 45.5739 31.6067 45.4573 32.1334 45.4573C32.66 45.4573 33.1367 45.5739 33.5634 45.8073C33.99 46.0406 34.3267 46.3739 34.5734 46.8073C34.82 47.2406 34.9434 47.7373 34.9434 48.2973C34.9434 48.8573 34.8167 49.3539 34.5634 49.7873C34.31 50.2206 33.9634 50.5573 33.5234 50.7973C33.09 51.0306 32.61 51.1473 32.0834 51.1473ZM32.0834 50.1573C32.3767 50.1573 32.65 50.0873 32.9034 49.9473C33.1634 49.8073 33.3734 49.5973 33.5334 49.3173C33.6934 49.0373 33.7734 48.6973 33.7734 48.2973C33.7734 47.8973 33.6967 47.5606 33.5434 47.2873C33.39 47.0073 33.1867 46.7973 32.9334 46.6573C32.68 46.5173 32.4067 46.4473 32.1134 46.4473C31.82 46.4473 31.5467 46.5173 31.2934 46.6573C31.0467 46.7973 30.85 47.0073 30.7034 47.2873C30.5567 47.5606 30.4834 47.8973 30.4834 48.2973C30.4834 48.8906 30.6334 49.3506 30.9334 49.6773C31.24 49.9973 31.6234 50.1573 32.0834 50.1573ZM38.2903 45.4573C38.717 45.4573 39.0936 45.5439 39.4203 45.7173C39.7536 45.8839 40.0136 46.0939 40.2003 46.3473V45.5473H41.3503V51.1473C41.3503 51.6539 41.2436 52.1039 41.0303 52.4973C40.817 52.8973 40.507 53.2106 40.1003 53.4373C39.7003 53.6639 39.2203 53.7773 38.6603 53.7773C37.9136 53.7773 37.2936 53.6006 36.8003 53.2473C36.307 52.9006 36.027 52.4273 35.9603 51.8273H37.0903C37.177 52.1139 37.3603 52.3439 37.6403 52.5173C37.927 52.6973 38.267 52.7873 38.6603 52.7873C39.1203 52.7873 39.4903 52.6473 39.7703 52.3673C40.057 52.0873 40.2003 51.6806 40.2003 51.1473V50.2273C40.007 50.4873 39.7436 50.7073 39.4103 50.8873C39.0836 51.0606 38.7103 51.1473 38.2903 51.1473C37.8103 51.1473 37.3703 51.0273 36.9703 50.7873C36.577 50.5406 36.2636 50.2006 36.0303 49.7673C35.8036 49.3273 35.6903 48.8306 35.6903 48.2773C35.6903 47.7239 35.8036 47.2339 36.0303 46.8073C36.2636 46.3806 36.577 46.0506 36.9703 45.8173C37.3703 45.5773 37.8103 45.4573 38.2903 45.4573ZM40.2003 48.2973C40.2003 47.9173 40.1203 47.5873 39.9603 47.3073C39.807 47.0273 39.6036 46.8139 39.3503 46.6673C39.097 46.5206 38.8236 46.4473 38.5303 46.4473C38.237 46.4473 37.9636 46.5206 37.7103 46.6673C37.457 46.8073 37.2503 47.0173 37.0903 47.2973C36.937 47.5706 36.8603 47.8973 36.8603 48.2773C36.8603 48.6573 36.937 48.9906 37.0903 49.2773C37.2503 49.5639 37.457 49.7839 37.7103 49.9373C37.9703 50.0839 38.2436 50.1573 38.5303 50.1573C38.8236 50.1573 39.097 50.0839 39.3503 49.9373C39.6036 49.7906 39.807 49.5773 39.9603 49.2973C40.1203 49.0106 40.2003 48.6773 40.2003 48.2973ZM47.8353 51.1473C47.3153 51.1473 46.8453 51.0306 46.4253 50.7973C46.0053 50.5573 45.6753 50.2239 45.4353 49.7973C45.1953 49.3639 45.0753 48.8639 45.0753 48.2973C45.0753 47.7373 45.1986 47.2406 45.4453 46.8073C45.692 46.3739 46.0286 46.0406 46.4553 45.8073C46.882 45.5739 47.3586 45.4573 47.8853 45.4573C48.412 45.4573 48.8886 45.5739 49.3153 45.8073C49.742 46.0406 50.0786 46.3739 50.3253 46.8073C50.572 47.2406 50.6953 47.7373 50.6953 48.2973C50.6953 48.8573 50.5686 49.3539 50.3153 49.7873C50.062 50.2206 49.7153 50.5573 49.2753 50.7973C48.842 51.0306 48.362 51.1473 47.8353 51.1473ZM47.8353 50.1573C48.1286 50.1573 48.402 50.0873 48.6553 49.9473C48.9153 49.8073 49.1253 49.5973 49.2853 49.3173C49.4453 49.0373 49.5253 48.6973 49.5253 48.2973C49.5253 47.8973 49.4486 47.5606 49.2953 47.2873C49.142 47.0073 48.9386 46.7973 48.6853 46.6573C48.432 46.5173 48.1586 46.4473 47.8653 46.4473C47.572 46.4473 47.2986 46.5173 47.0453 46.6573C46.7986 46.7973 46.602 47.0073 46.4553 47.2873C46.3086 47.5606 46.2353 47.8973 46.2353 48.2973C46.2353 48.8906 46.3853 49.3506 46.6853 49.6773C46.992 49.9973 47.3753 50.1573 47.8353 50.1573ZM56.8123 45.5473V51.0573H55.6723V50.4073C55.4923 50.6339 55.2556 50.8139 54.9623 50.9473C54.6756 51.0739 54.3689 51.1373 54.0423 51.1373C53.6089 51.1373 53.2189 51.0473 52.8723 50.8673C52.5323 50.6873 52.2623 50.4206 52.0623 50.0673C51.8689 49.7139 51.7723 49.2873 51.7723 48.7873V45.5473H52.9023V48.6173C52.9023 49.1106 53.0256 49.4906 53.2723 49.7573C53.5189 50.0173 53.8556 50.1473 54.2823 50.1473C54.7089 50.1473 55.0456 50.0173 55.2923 49.7573C55.5456 49.4906 55.6723 49.1106 55.6723 48.6173V45.5473H56.8123ZM59.6464 46.4773V49.5273C59.6464 49.7339 59.6931 49.8839 59.7864 49.9773C59.8864 50.0639 60.0531 50.1073 60.2864 50.1073H60.9864V51.0573H60.0864C59.5731 51.0573 59.1797 50.9373 58.9064 50.6973C58.6331 50.4573 58.4964 50.0673 58.4964 49.5273V46.4773H57.8464V45.5473H58.4964V44.1773H59.6464V45.5473H60.9864V46.4773H59.6464Z" fill="#F1F8FF" fill-opacity="0.7"/>
</svg>
