<svg width="85" height="66" viewBox="0 0 85 66" fill="none" xmlns="http://www.w3.org/2000/svg">
<path fill-rule="evenodd" clip-rule="evenodd" d="M42.5 10.9604C42.9276 10.9604 43.2742 11.3071 43.2742 11.7346V19.9927C43.2742 20.4203 42.9276 20.7669 42.5 20.7669C42.0724 20.7669 41.7258 20.4203 41.7258 19.9927V11.7346C41.7258 11.3071 42.0724 10.9604 42.5 10.9604ZM39.0059 15.6837C39.2506 16.0343 39.1646 16.5169 38.8139 16.7616C37.1406 17.9287 36.0484 19.8654 36.0484 22.0572C36.0484 25.6204 38.9369 28.5088 42.5 28.5088C46.0631 28.5088 48.9516 25.6204 48.9516 22.0572C48.9516 19.8654 47.8594 17.9287 46.1861 16.7616C45.8354 16.5169 45.7494 16.0343 45.994 15.6837C46.2387 15.333 46.7213 15.247 47.0719 15.4916C49.1426 16.9359 50.5 19.3379 50.5 22.0572C50.5 26.4755 46.9183 30.0572 42.5 30.0572C38.0817 30.0572 34.5 26.4755 34.5 22.0572C34.5 19.3379 35.8574 16.9359 37.9281 15.4916C38.2787 15.247 38.7613 15.333 39.0059 15.6837Z" fill="#525252"/>
<path d="M25.89 50.1371H28.24V51.0571H24.75V44.1071H25.89V50.1371ZM31.5834 51.1471C31.0634 51.1471 30.5934 51.0305 30.1734 50.7971C29.7534 50.5571 29.4234 50.2238 29.1834 49.7971C28.9434 49.3638 28.8234 48.8638 28.8234 48.2971C28.8234 47.7371 28.9467 47.2405 29.1934 46.8071C29.44 46.3738 29.7767 46.0405 30.2034 45.8071C30.63 45.5738 31.1067 45.4571 31.6334 45.4571C32.16 45.4571 32.6367 45.5738 33.0634 45.8071C33.49 46.0405 33.8267 46.3738 34.0734 46.8071C34.32 47.2405 34.4434 47.7371 34.4434 48.2971C34.4434 48.8571 34.3167 49.3538 34.0634 49.7871C33.81 50.2205 33.4634 50.5571 33.0234 50.7971C32.59 51.0305 32.11 51.1471 31.5834 51.1471ZM31.5834 50.1571C31.8767 50.1571 32.15 50.0871 32.4034 49.9471C32.6634 49.8071 32.8734 49.5971 33.0334 49.3171C33.1934 49.0371 33.2734 48.6971 33.2734 48.2971C33.2734 47.8971 33.1967 47.5605 33.0434 47.2871C32.89 47.0071 32.6867 46.7971 32.4334 46.6571C32.18 46.5171 31.9067 46.4471 31.6134 46.4471C31.32 46.4471 31.0467 46.5171 30.7934 46.6571C30.5467 46.7971 30.35 47.0071 30.2034 47.2871C30.0567 47.5605 29.9834 47.8971 29.9834 48.2971C29.9834 48.8905 30.1334 49.3505 30.4334 49.6771C30.74 49.9971 31.1234 50.1571 31.5834 50.1571ZM37.7903 45.4571C38.217 45.4571 38.5936 45.5438 38.9203 45.7171C39.2536 45.8838 39.5136 46.0938 39.7003 46.3471V45.5471H40.8503V51.1471C40.8503 51.6538 40.7436 52.1038 40.5303 52.4971C40.317 52.8971 40.007 53.2105 39.6003 53.4371C39.2003 53.6638 38.7203 53.7771 38.1603 53.7771C37.4136 53.7771 36.7936 53.6005 36.3003 53.2471C35.807 52.9005 35.527 52.4271 35.4603 51.8271H36.5903C36.677 52.1138 36.8603 52.3438 37.1403 52.5171C37.427 52.6971 37.767 52.7871 38.1603 52.7871C38.6203 52.7871 38.9903 52.6471 39.2703 52.3671C39.557 52.0871 39.7003 51.6805 39.7003 51.1471V50.2271C39.507 50.4871 39.2436 50.7071 38.9103 50.8871C38.5836 51.0605 38.2103 51.1471 37.7903 51.1471C37.3103 51.1471 36.8703 51.0271 36.4703 50.7871C36.077 50.5405 35.7636 50.2005 35.5303 49.7671C35.3036 49.3271 35.1903 48.8305 35.1903 48.2771C35.1903 47.7238 35.3036 47.2338 35.5303 46.8071C35.7636 46.3805 36.077 46.0505 36.4703 45.8171C36.8703 45.5771 37.3103 45.4571 37.7903 45.4571ZM39.7003 48.2971C39.7003 47.9171 39.6203 47.5871 39.4603 47.3071C39.307 47.0271 39.1036 46.8138 38.8503 46.6671C38.597 46.5205 38.3236 46.4471 38.0303 46.4471C37.737 46.4471 37.4636 46.5205 37.2103 46.6671C36.957 46.8071 36.7503 47.0171 36.5903 47.2971C36.437 47.5705 36.3603 47.8971 36.3603 48.2771C36.3603 48.6571 36.437 48.9905 36.5903 49.2771C36.7503 49.5638 36.957 49.7838 37.2103 49.9371C37.4703 50.0838 37.7436 50.1571 38.0303 50.1571C38.3236 50.1571 38.597 50.0838 38.8503 49.9371C39.1036 49.7905 39.307 49.5771 39.4603 49.2971C39.6203 49.0105 39.7003 48.6771 39.7003 48.2971ZM47.3353 51.1471C46.8153 51.1471 46.3453 51.0305 45.9253 50.7971C45.5053 50.5571 45.1753 50.2238 44.9353 49.7971C44.6953 49.3638 44.5753 48.8638 44.5753 48.2971C44.5753 47.7371 44.6986 47.2405 44.9453 46.8071C45.192 46.3738 45.5286 46.0405 45.9553 45.8071C46.382 45.5738 46.8586 45.4571 47.3853 45.4571C47.912 45.4571 48.3886 45.5738 48.8153 45.8071C49.242 46.0405 49.5786 46.3738 49.8253 46.8071C50.072 47.2405 50.1953 47.7371 50.1953 48.2971C50.1953 48.8571 50.0686 49.3538 49.8153 49.7871C49.562 50.2205 49.2153 50.5571 48.7753 50.7971C48.342 51.0305 47.862 51.1471 47.3353 51.1471ZM47.3353 50.1571C47.6286 50.1571 47.902 50.0871 48.1553 49.9471C48.4153 49.8071 48.6253 49.5971 48.7853 49.3171C48.9453 49.0371 49.0253 48.6971 49.0253 48.2971C49.0253 47.8971 48.9486 47.5605 48.7953 47.2871C48.642 47.0071 48.4386 46.7971 48.1853 46.6571C47.932 46.5171 47.6586 46.4471 47.3653 46.4471C47.072 46.4471 46.7986 46.5171 46.5453 46.6571C46.2986 46.7971 46.102 47.0071 45.9553 47.2871C45.8086 47.5605 45.7353 47.8971 45.7353 48.2971C45.7353 48.8905 45.8853 49.3505 46.1853 49.6771C46.492 49.9971 46.8753 50.1571 47.3353 50.1571ZM56.3123 45.5471V51.0571H55.1723V50.4071C54.9923 50.6338 54.7556 50.8138 54.4623 50.9471C54.1756 51.0738 53.8689 51.1371 53.5423 51.1371C53.1089 51.1371 52.7189 51.0471 52.3723 50.8671C52.0323 50.6871 51.7623 50.4205 51.5623 50.0671C51.3689 49.7138 51.2723 49.2871 51.2723 48.7871V45.5471H52.4023V48.6171C52.4023 49.1105 52.5256 49.4905 52.7723 49.7571C53.0189 50.0171 53.3556 50.1471 53.7823 50.1471C54.2089 50.1471 54.5456 50.0171 54.7923 49.7571C55.0456 49.4905 55.1723 49.1105 55.1723 48.6171V45.5471H56.3123ZM59.1464 46.4771V49.5271C59.1464 49.7338 59.1931 49.8838 59.2864 49.9771C59.3864 50.0638 59.5531 50.1071 59.7864 50.1071H60.4864V51.0571H59.5864C59.0731 51.0571 58.6797 50.9371 58.4064 50.6971C58.1331 50.4571 57.9964 50.0671 57.9964 49.5271V46.4771H57.3464V45.5471H57.9964V44.1771H59.1464V45.5471H60.4864V46.4771H59.1464Z" fill="#525252"/>
</svg>
