<svg width="134" height="48" viewBox="0 0 134 48" fill="none" xmlns="http://www.w3.org/2000/svg">
<path d="M4.436 30.04C6.484 28.2693 8.09467 26.8187 9.268 25.688C10.4627 24.536 11.4547 23.3413 12.244 22.104C13.0333 20.8667 13.428 19.6293 13.428 18.392C13.428 17.112 13.1187 16.1093 12.5 15.384C11.9027 14.6587 10.9533 14.296 9.652 14.296C8.39333 14.296 7.412 14.7013 6.708 15.512C6.02533 16.3013 5.66267 17.368 5.62 18.712H2.1C2.164 16.28 2.88933 14.424 4.276 13.144C5.684 11.8427 7.46533 11.192 9.62 11.192C11.9453 11.192 13.7587 11.832 15.06 13.112C16.3827 14.392 17.044 16.0987 17.044 18.232C17.044 19.768 16.6493 21.2507 15.86 22.68C15.092 24.088 14.164 25.3573 13.076 26.488C12.0093 27.5973 10.644 28.888 8.98 30.36L7.54 31.64H17.684V34.68H2.132V32.024L4.436 30.04ZM20.4088 15V11.672H27.0648V35H23.3848V15H20.4088ZM31.5003 17.304C31.5003 15.7467 31.9483 14.5307 32.8443 13.656C33.7616 12.76 34.9349 12.312 36.3643 12.312C37.7936 12.312 38.9563 12.76 39.8523 13.656C40.7696 14.5307 41.2283 15.7467 41.2283 17.304C41.2283 18.8613 40.7696 20.088 39.8523 20.984C38.9563 21.88 37.7936 22.328 36.3643 22.328C34.9349 22.328 33.7616 21.88 32.8443 20.984C31.9483 20.088 31.5003 18.8613 31.5003 17.304ZM51.0203 12.728L38.2523 35H34.6683L47.4363 12.728H51.0203ZM36.3643 14.52C35.0203 14.52 34.3483 15.448 34.3483 17.304C34.3483 19.1813 35.0203 20.12 36.3643 20.12C37.0043 20.12 37.4949 19.896 37.8363 19.448C38.1989 18.9787 38.3802 18.264 38.3802 17.304C38.3802 15.448 37.7083 14.52 36.3643 14.52ZM44.5243 30.392C44.5243 28.8347 44.9723 27.6187 45.8683 26.744C46.7856 25.848 47.9589 25.4 49.3883 25.4C50.7963 25.4 51.9483 25.848 52.8443 26.744C53.7616 27.6187 54.2203 28.8347 54.2203 30.392C54.2203 31.9493 53.7616 33.176 52.8443 34.072C51.9483 34.968 50.7963 35.416 49.3883 35.416C47.9589 35.416 46.7856 34.968 45.8683 34.072C44.9723 33.176 44.5243 31.9493 44.5243 30.392ZM49.3563 27.608C48.0123 27.608 47.3403 28.536 47.3403 30.392C47.3403 32.248 48.0123 33.176 49.3563 33.176C50.7003 33.176 51.3723 32.248 51.3723 30.392C51.3723 28.536 50.7003 27.608 49.3563 27.608Z" fill="white"/>
<g filter="url(#filter0_d_97_1152)">
<path d="M75.5 15.3467L86.6667 35L103 13L110.833 26.7867L125.5 16.8133" stroke="#00CC66" stroke-linecap="round"/>
</g>
<defs>
<filter id="filter0_d_97_1152" x="66.9999" y="6.08594" width="67.0001" height="39.8281" filterUnits="userSpaceOnUse" color-interpolation-filters="sRGB">
<feFlood flood-opacity="0" result="BackgroundImageFix"/>
<feColorMatrix in="SourceAlpha" type="matrix" values="0 0 0 0 0 0 0 0 0 0 0 0 0 0 0 0 0 0 127 0" result="hardAlpha"/>
<feOffset dy="2"/>
<feGaussianBlur stdDeviation="4"/>
<feComposite in2="hardAlpha" operator="out"/>
<feColorMatrix type="matrix" values="0 0 0 0 0.054902 0 0 0 0 0.807843 0 0 0 0 0.431373 0 0 0 1 0"/>
<feBlend mode="normal" in2="BackgroundImageFix" result="effect1_dropShadow_97_1152"/>
<feBlend mode="normal" in="SourceGraphic" in2="effect1_dropShadow_97_1152" result="shape"/>
</filter>
</defs>
</svg>
