<svg width="128" height="48" viewBox="0 0 128 48" fill="none" xmlns="http://www.w3.org/2000/svg">
<path d="M4.436 30.04C6.484 28.2693 8.09467 26.8187 9.268 25.688C10.4627 24.536 11.4547 23.3413 12.244 22.104C13.0333 20.8667 13.428 19.6293 13.428 18.392C13.428 17.112 13.1187 16.1093 12.5 15.384C11.9027 14.6587 10.9533 14.296 9.652 14.296C8.39333 14.296 7.412 14.7013 6.708 15.512C6.02533 16.3013 5.66267 17.368 5.62 18.712H2.1C2.164 16.28 2.88933 14.424 4.276 13.144C5.684 11.8427 7.46533 11.192 9.62 11.192C11.9453 11.192 13.7587 11.832 15.06 13.112C16.3827 14.392 17.044 16.0987 17.044 18.232C17.044 19.768 16.6493 21.2507 15.86 22.68C15.092 24.088 14.164 25.3573 13.076 26.488C12.0093 27.5973 10.644 28.888 8.98 30.36L7.54 31.64H17.684V34.68H2.132V32.024L4.436 30.04ZM33.4328 17.08C33.1981 16.0987 32.7714 15.3627 32.1528 14.872C31.5341 14.3813 30.6701 14.136 29.5608 14.136C27.8754 14.136 26.6168 14.7867 25.7848 16.088C24.9528 17.368 24.5154 19.5013 24.4728 22.488C25.0274 21.5493 25.8381 20.824 26.9048 20.312C27.9714 19.8 29.1234 19.544 30.3608 19.544C31.7688 19.544 33.0061 19.8533 34.0728 20.472C35.1608 21.0693 36.0034 21.944 36.6007 23.096C37.2194 24.248 37.5288 25.624 37.5288 27.224C37.5288 28.7173 37.2301 30.0507 36.6328 31.224C36.0568 32.3973 35.1928 33.3253 34.0408 34.008C32.8888 34.6693 31.5021 35 29.8808 35C27.6834 35 25.9554 34.52 24.6968 33.56C23.4594 32.5787 22.5848 31.2027 22.0728 29.432C21.5821 27.6613 21.3368 25.4533 21.3368 22.808C21.3368 15 24.0888 11.096 29.5928 11.096C31.7261 11.096 33.4008 11.672 34.6168 12.824C35.8541 13.976 36.5794 15.3947 36.7928 17.08H33.4328ZM29.5608 22.616C28.2594 22.616 27.1501 23.0107 26.2328 23.8C25.3368 24.568 24.8888 25.688 24.8888 27.16C24.8888 28.632 25.3048 29.8053 26.1368 30.68C26.9901 31.5333 28.1741 31.96 29.6888 31.96C31.0328 31.96 32.0888 31.544 32.8568 30.712C33.6461 29.88 34.0408 28.7707 34.0408 27.384C34.0408 25.9333 33.6568 24.7813 32.8888 23.928C32.1421 23.0533 31.0328 22.616 29.5608 22.616Z" fill="white"/>
<g filter="url(#filter0_d_97_1120)">
<path d="M69.5 32.6533L80.6667 13L97 35L104.833 21.2133L119.5 31.1867" stroke="#F1F8FF" stroke-opacity="0.7" stroke-linecap="round" shape-rendering="crispEdges"/>
</g>
<defs>
<filter id="filter0_d_97_1120" x="60.9999" y="6.08594" width="67.0002" height="39.8281" filterUnits="userSpaceOnUse" color-interpolation-filters="sRGB">
<feFlood flood-opacity="0" result="BackgroundImageFix"/>
<feColorMatrix in="SourceAlpha" type="matrix" values="0 0 0 0 0 0 0 0 0 0 0 0 0 0 0 0 0 0 127 0" result="hardAlpha"/>
<feOffset dy="2"/>
<feGaussianBlur stdDeviation="4"/>
<feComposite in2="hardAlpha" operator="out"/>
<feColorMatrix type="matrix" values="0 0 0 0 0.165521 0 0 0 0 0.555677 0 0 0 0 0.945833 0 0 0 1 0"/>
<feBlend mode="normal" in2="BackgroundImageFix" result="effect1_dropShadow_97_1120"/>
<feBlend mode="normal" in="SourceGraphic" in2="effect1_dropShadow_97_1120" result="shape"/>
</filter>
</defs>
</svg>
