<svg width="170" height="41" viewBox="0 0 170 41" fill="none" xmlns="http://www.w3.org/2000/svg">
<path d="M26 26.5C29.3137 26.5 32 23.8137 32 20.5C32 17.1863 29.3137 14.5 26 14.5C22.6863 14.5 20 17.1863 20 20.5C20 23.8137 22.6863 26.5 26 26.5Z" fill="white"/>
<path d="M49.602 18.098C49.602 18.91 49.322 19.5867 48.762 20.128C48.2113 20.66 47.3667 20.926 46.228 20.926H44.352V25H43.078V15.242H46.228C47.3293 15.242 48.1647 15.508 48.734 16.04C49.3127 16.572 49.602 17.258 49.602 18.098ZM46.228 19.876C46.9373 19.876 47.46 19.722 47.796 19.414C48.132 19.106 48.3 18.6673 48.3 18.098C48.3 16.894 47.6093 16.292 46.228 16.292H44.352V19.876H46.228ZM50.7094 21.136C50.7094 20.352 50.8681 19.666 51.1854 19.078C51.5028 18.4807 51.9368 18.0187 52.4874 17.692C53.0474 17.3653 53.6681 17.202 54.3494 17.202C55.0214 17.202 55.6048 17.3467 56.0994 17.636C56.5941 17.9253 56.9628 18.2893 57.2054 18.728V17.328H58.4934V25H57.2054V23.572C56.9534 24.02 56.5754 24.3933 56.0714 24.692C55.5768 24.9813 54.9981 25.126 54.3354 25.126C53.6541 25.126 53.0381 24.958 52.4874 24.622C51.9368 24.286 51.5028 23.8147 51.1854 23.208C50.8681 22.6013 50.7094 21.9107 50.7094 21.136ZM57.2054 21.15C57.2054 20.5713 57.0888 20.0673 56.8554 19.638C56.6221 19.2087 56.3048 18.882 55.9034 18.658C55.5114 18.4247 55.0774 18.308 54.6014 18.308C54.1254 18.308 53.6914 18.42 53.2994 18.644C52.9074 18.868 52.5948 19.1947 52.3614 19.624C52.1281 20.0533 52.0114 20.5573 52.0114 21.136C52.0114 21.724 52.1281 22.2373 52.3614 22.676C52.5948 23.1053 52.9074 23.4367 53.2994 23.67C53.6914 23.894 54.1254 24.006 54.6014 24.006C55.0774 24.006 55.5114 23.894 55.9034 23.67C56.3048 23.4367 56.6221 23.1053 56.8554 22.676C57.0888 22.2373 57.2054 21.7287 57.2054 21.15ZM61.3044 16.082C61.0617 16.082 60.8564 15.998 60.6884 15.83C60.5204 15.662 60.4364 15.4567 60.4364 15.214C60.4364 14.9713 60.5204 14.766 60.6884 14.598C60.8564 14.43 61.0617 14.346 61.3044 14.346C61.5377 14.346 61.7337 14.43 61.8924 14.598C62.0604 14.766 62.1444 14.9713 62.1444 15.214C62.1444 15.4567 62.0604 15.662 61.8924 15.83C61.7337 15.998 61.5377 16.082 61.3044 16.082ZM61.9204 17.328V25H60.6464V17.328H61.9204ZM63.6157 21.136C63.6157 20.352 63.7743 19.666 64.0917 19.078C64.409 18.4807 64.843 18.0187 65.3937 17.692C65.9537 17.3653 66.579 17.202 67.2697 17.202C67.867 17.202 68.4223 17.342 68.9357 17.622C69.449 17.8927 69.841 18.252 70.1117 18.7V14.64H71.3997V25H70.1117V23.558C69.8597 24.0153 69.4863 24.3933 68.9917 24.692C68.497 24.9813 67.9183 25.126 67.2557 25.126C66.5743 25.126 65.9537 24.958 65.3937 24.622C64.843 24.286 64.409 23.8147 64.0917 23.208C63.7743 22.6013 63.6157 21.9107 63.6157 21.136ZM70.1117 21.15C70.1117 20.5713 69.995 20.0673 69.7617 19.638C69.5283 19.2087 69.211 18.882 68.8097 18.658C68.4177 18.4247 67.9837 18.308 67.5077 18.308C67.0317 18.308 66.5977 18.42 66.2057 18.644C65.8137 18.868 65.501 19.1947 65.2677 19.624C65.0343 20.0533 64.9177 20.5573 64.9177 21.136C64.9177 21.724 65.0343 22.2373 65.2677 22.676C65.501 23.1053 65.8137 23.4367 66.2057 23.67C66.5977 23.894 67.0317 24.006 67.5077 24.006C67.9837 24.006 68.4177 23.894 68.8097 23.67C69.211 23.4367 69.5283 23.1053 69.7617 22.676C69.995 22.2373 70.1117 21.7287 70.1117 21.15Z" fill="white"/>
<path d="M133.222 18.0791C132.926 18.3752 132.926 18.8609 133.222 19.1571L137.001 22.9241C137.289 23.2124 137.755 23.2203 138.051 22.9478L141.775 19.236C141.925 19.086 142 18.8925 142 18.6951C142 18.5016 141.925 18.3042 141.779 18.1581C141.483 17.8619 141.001 17.858 140.701 18.1581L137.502 21.3091L134.3 18.0751C134.004 17.779 133.522 17.779 133.222 18.0791Z" fill="white"/>
<rect x="0.5" y="0.5" width="169" height="40" rx="9.5" stroke="white"/>
</svg>
