<svg width="85" height="63" viewBox="0 0 85 63" fill="none" xmlns="http://www.w3.org/2000/svg">
<path d="M33.1666 22H51.8333V23.3333H33.1666V22Z" fill="#525252"/>
<path d="M33.1666 24.6665H51.8333V25.9998H33.1666V24.6665Z" fill="#525252"/>
<path d="M47.8333 14C47.5696 14 47.3118 14.0782 47.0926 14.2247C46.8733 14.3712 46.7024 14.5795 46.6015 14.8231C46.5006 15.0667 46.4742 15.3348 46.5256 15.5935C46.5771 15.8521 46.7041 16.0897 46.8905 16.2761C47.077 16.4626 47.3146 16.5896 47.5732 16.641C47.8319 16.6925 48.0999 16.6661 48.3436 16.5652C48.5872 16.4643 48.7955 16.2934 48.942 16.0741C49.0885 15.8548 49.1667 15.597 49.1667 15.3333C49.1667 14.9797 49.0262 14.6406 48.7761 14.3905C48.5261 14.1405 48.187 14 47.8333 14Z" fill="#525252"/>
<path d="M42.4999 17.9998C41.9725 17.9998 41.4569 17.8434 41.0184 17.5504C40.5799 17.2574 40.2381 16.8409 40.0362 16.3537C39.8344 15.8664 39.7816 15.3302 39.8845 14.8129C39.9874 14.2956 40.2414 13.8205 40.6143 13.4476C40.9872 13.0746 41.4624 12.8206 41.9797 12.7177C42.497 12.6149 43.0331 12.6677 43.5204 12.8695C44.0077 13.0713 44.4242 13.4131 44.7172 13.8517C45.0102 14.2902 45.1666 14.8058 45.1666 15.3332C45.1657 16.0401 44.8845 16.7179 44.3846 17.2178C43.8847 17.7177 43.2069 17.999 42.4999 17.9998ZM42.4999 13.9998C42.2362 13.9998 41.9784 14.078 41.7592 14.2245C41.5399 14.3711 41.369 14.5793 41.2681 14.8229C41.1672 15.0666 41.1408 15.3347 41.1922 15.5933C41.2437 15.8519 41.3706 16.0895 41.5571 16.276C41.7436 16.4625 41.9812 16.5894 42.2398 16.6409C42.4984 16.6923 42.7665 16.6659 43.0102 16.565C43.2538 16.4641 43.462 16.2932 43.6085 16.0739C43.7551 15.8547 43.8333 15.5969 43.8333 15.3332C43.8329 14.9797 43.6923 14.6407 43.4423 14.3908C43.1924 14.1408 42.8534 14.0002 42.4999 13.9998Z" fill="#525252"/>
<path d="M37.1666 14C36.9029 14 36.6451 14.0782 36.4258 14.2247C36.2066 14.3712 36.0357 14.5795 35.9347 14.8231C35.8338 15.0667 35.8074 15.3348 35.8589 15.5935C35.9103 15.8521 36.0373 16.0897 36.2238 16.2761C36.4102 16.4626 36.6478 16.5896 36.9065 16.641C37.1651 16.6925 37.4332 16.6661 37.6768 16.5652C37.9205 16.4643 38.1287 16.2934 38.2752 16.0741C38.4217 15.8548 38.4999 15.597 38.4999 15.3333C38.4999 14.9797 38.3594 14.6406 38.1094 14.3905C37.8593 14.1405 37.5202 14 37.1666 14Z" fill="#525252"/>
<path d="M50.5 20.6667H34.5C34.1466 20.6658 33.808 20.525 33.5581 20.2752C33.3083 20.0253 33.1675 19.6867 33.1666 19.3333V11.3333C33.1675 10.98 33.3083 10.6414 33.5581 10.3915C33.808 10.1416 34.1466 10.0009 34.5 10H50.5C50.8533 10.0009 51.1919 10.1416 51.4418 10.3915C51.6917 10.6414 51.8324 10.98 51.8333 11.3333V19.3333C51.8328 19.6868 51.6921 20.0256 51.4422 20.2756C51.1922 20.5255 50.8534 20.6661 50.5 20.6667ZM50.5 11.3333H34.5V19.3333H50.5V11.3333Z" fill="#525252"/>
<path d="M26.171 42.632C26.171 43.0207 26.0793 43.3873 25.896 43.732C25.7127 44.0767 25.4193 44.359 25.016 44.579C24.6127 44.7917 24.0957 44.898 23.465 44.898H22.079V48H20.825V40.355H23.465C24.0517 40.355 24.5467 40.4577 24.95 40.663C25.3607 40.861 25.665 41.1323 25.863 41.477C26.0683 41.8217 26.171 42.2067 26.171 42.632ZM23.465 43.875C23.9417 43.875 24.2973 43.7687 24.532 43.556C24.7667 43.336 24.884 43.028 24.884 42.632C24.884 41.796 24.411 41.378 23.465 41.378H22.079V43.875H23.465ZM26.949 44.942C26.949 44.3333 27.0737 43.7943 27.323 43.325C27.5797 42.8557 27.9243 42.4927 28.357 42.236C28.797 41.972 29.281 41.84 29.809 41.84C30.2857 41.84 30.7 41.9353 31.052 42.126C31.4113 42.3093 31.6973 42.5403 31.91 42.819V41.939H33.175V48H31.91V47.098C31.6973 47.384 31.4077 47.6223 31.041 47.813C30.6743 48.0037 30.2563 48.099 29.787 48.099C29.2663 48.099 28.7897 47.967 28.357 47.703C27.9243 47.4317 27.5797 47.0577 27.323 46.581C27.0737 46.097 26.949 45.5507 26.949 44.942ZM31.91 44.964C31.91 44.546 31.822 44.183 31.646 43.875C31.4773 43.567 31.2537 43.3323 30.975 43.171C30.6963 43.0097 30.3957 42.929 30.073 42.929C29.7503 42.929 29.4497 43.0097 29.171 43.171C28.8923 43.325 28.665 43.556 28.489 43.864C28.3203 44.1647 28.236 44.524 28.236 44.942C28.236 45.36 28.3203 45.7267 28.489 46.042C28.665 46.3573 28.8923 46.5993 29.171 46.768C29.457 46.9293 29.7577 47.01 30.073 47.01C30.3957 47.01 30.6963 46.9293 30.975 46.768C31.2537 46.6067 31.4773 46.372 31.646 46.064C31.822 45.7487 31.91 45.382 31.91 44.964ZM40.2781 41.939L36.5601 50.849H35.2621L36.4941 47.901L34.1071 41.939H35.5041L37.2091 46.559L38.9801 41.939H40.2781ZM43.8534 48.099C43.2814 48.099 42.7644 47.9707 42.3024 47.714C41.8404 47.45 41.4774 47.0833 41.2134 46.614C40.9494 46.1373 40.8174 45.5873 40.8174 44.964C40.8174 44.348 40.9531 43.8017 41.2244 43.325C41.4957 42.8483 41.8661 42.4817 42.3354 42.225C42.8047 41.9683 43.3291 41.84 43.9084 41.84C44.4877 41.84 45.0121 41.9683 45.4814 42.225C45.9507 42.4817 46.3211 42.8483 46.5924 43.325C46.8637 43.8017 46.9994 44.348 46.9994 44.964C46.9994 45.58 46.8601 46.1263 46.5814 46.603C46.3027 47.0797 45.9214 47.45 45.4374 47.714C44.9607 47.9707 44.4327 48.099 43.8534 48.099ZM43.8534 47.01C44.1761 47.01 44.4767 46.933 44.7554 46.779C45.0414 46.625 45.2724 46.394 45.4484 46.086C45.6244 45.778 45.7124 45.404 45.7124 44.964C45.7124 44.524 45.6281 44.1537 45.4594 43.853C45.2907 43.545 45.0671 43.314 44.7884 43.16C44.5097 43.006 44.2091 42.929 43.8864 42.929C43.5637 42.929 43.2631 43.006 42.9844 43.16C42.7131 43.314 42.4967 43.545 42.3354 43.853C42.1741 44.1537 42.0934 44.524 42.0934 44.964C42.0934 45.6167 42.2584 46.1227 42.5884 46.482C42.9257 46.834 43.3474 47.01 43.8534 47.01ZM53.7281 41.939V48H52.4741V47.285C52.2761 47.5343 52.0157 47.7323 51.6931 47.879C51.3777 48.0183 51.0404 48.088 50.6811 48.088C50.2044 48.088 49.7754 47.989 49.3941 47.791C49.0201 47.593 48.7231 47.2997 48.5031 46.911C48.2904 46.5223 48.1841 46.053 48.1841 45.503V41.939H49.4271V45.316C49.4271 45.8587 49.5627 46.2767 49.8341 46.57C50.1054 46.856 50.4757 46.999 50.9451 46.999C51.4144 46.999 51.7847 46.856 52.0561 46.57C52.3347 46.2767 52.4741 45.8587 52.4741 45.316V41.939H53.7281ZM56.8456 42.962V46.317C56.8456 46.5443 56.897 46.7093 56.9996 46.812C57.1096 46.9073 57.293 46.955 57.5496 46.955H58.3196V48H57.3296C56.765 48 56.3323 47.868 56.0316 47.604C55.731 47.34 55.5806 46.911 55.5806 46.317V42.962H54.8656V41.939H55.5806V40.432H56.8456V41.939H58.3196V42.962H56.8456ZM61.6754 48.099C61.1987 48.099 60.7697 48.0147 60.3884 47.846C60.0144 47.67 59.7174 47.4353 59.4974 47.142C59.2774 46.8413 59.1601 46.5077 59.1454 46.141H60.4434C60.4654 46.3977 60.5864 46.614 60.8064 46.79C61.0337 46.9587 61.3161 47.043 61.6534 47.043C62.0054 47.043 62.2767 46.977 62.4674 46.845C62.6654 46.7057 62.7644 46.5297 62.7644 46.317C62.7644 46.0897 62.6544 45.921 62.4344 45.811C62.2217 45.701 61.8807 45.58 61.4114 45.448C60.9567 45.3233 60.5864 45.2023 60.3004 45.085C60.0144 44.9677 59.7651 44.788 59.5524 44.546C59.3471 44.304 59.2444 43.985 59.2444 43.589C59.2444 43.2663 59.3397 42.973 59.5304 42.709C59.7211 42.4377 59.9924 42.225 60.3444 42.071C60.7037 41.917 61.1144 41.84 61.5764 41.84C62.2657 41.84 62.8194 42.016 63.2374 42.368C63.6627 42.7127 63.8901 43.1857 63.9194 43.787H62.6654C62.6434 43.5157 62.5334 43.2993 62.3354 43.138C62.1374 42.9767 61.8697 42.896 61.5324 42.896C61.2024 42.896 60.9494 42.9583 60.7734 43.083C60.5974 43.2077 60.5094 43.3727 60.5094 43.578C60.5094 43.7393 60.5681 43.875 60.6854 43.985C60.8027 44.095 60.9457 44.183 61.1144 44.249C61.2831 44.3077 61.5324 44.3847 61.8624 44.48C62.3024 44.5973 62.6617 44.7183 62.9404 44.843C63.2264 44.9603 63.4721 45.1363 63.6774 45.371C63.8827 45.6057 63.9891 45.9173 63.9964 46.306C63.9964 46.6507 63.9011 46.9587 63.7104 47.23C63.5197 47.5013 63.2484 47.714 62.8964 47.868C62.5517 48.022 62.1447 48.099 61.6754 48.099Z" fill="#525252"/>
</svg>
