<svg width="86" height="63" viewBox="0 0 86 63" fill="none" xmlns="http://www.w3.org/2000/svg">
<path d="M33.6665 22H52.3332V23.3333H33.6665V22Z" fill="#F1F8FF" fill-opacity="0.7"/>
<path d="M33.6665 24.6666H52.3332V26H33.6665V24.6666Z" fill="#F1F8FF" fill-opacity="0.7"/>
<path d="M48.3333 14C48.0696 14 47.8118 14.0782 47.5926 14.2247C47.3733 14.3712 47.2024 14.5795 47.1015 14.8231C47.0006 15.0667 46.9742 15.3348 47.0256 15.5935C47.0771 15.8521 47.2041 16.0897 47.3905 16.2761C47.577 16.4626 47.8146 16.5896 48.0732 16.641C48.3319 16.6925 48.5999 16.6661 48.8436 16.5652C49.0872 16.4643 49.2955 16.2934 49.442 16.0741C49.5885 15.8548 49.6667 15.597 49.6667 15.3333C49.6667 14.9797 49.5262 14.6406 49.2761 14.3905C49.0261 14.1405 48.687 14 48.3333 14Z" fill="#F1F8FF" fill-opacity="0.7"/>
<path d="M42.9997 18C42.4723 18 41.9567 17.8436 41.5182 17.5505C41.0796 17.2575 40.7378 16.8411 40.536 16.3538C40.3342 15.8665 40.2814 15.3303 40.3842 14.8131C40.4871 14.2958 40.7411 13.8206 41.1141 13.4477C41.487 13.0747 41.9622 12.8208 42.4794 12.7179C42.9967 12.615 43.5329 12.6678 44.0202 12.8696C44.5074 13.0714 44.9239 13.4132 45.2169 13.8518C45.5099 14.2903 45.6663 14.8059 45.6663 15.3333C45.6655 16.0403 45.3842 16.718 44.8843 17.2179C44.3844 17.7178 43.7066 17.9991 42.9997 18ZM42.9997 14C42.736 14 42.4782 14.0782 42.2589 14.2247C42.0397 14.3712 41.8688 14.5794 41.7678 14.823C41.6669 15.0667 41.6405 15.3348 41.692 15.5934C41.7434 15.8521 41.8704 16.0896 42.0569 16.2761C42.2433 16.4626 42.4809 16.5896 42.7396 16.641C42.9982 16.6925 43.2663 16.6661 43.5099 16.5651C43.7536 16.4642 43.9618 16.2933 44.1083 16.0741C44.2548 15.8548 44.333 15.597 44.333 15.3333C44.3327 14.9798 44.1921 14.6408 43.9421 14.3909C43.6921 14.1409 43.3532 14.0003 42.9997 14Z" fill="#F1F8FF" fill-opacity="0.7"/>
<path d="M37.6663 14C37.4026 14 37.1448 14.0782 36.9256 14.2247C36.7063 14.3712 36.5354 14.5795 36.4345 14.8231C36.3336 15.0667 36.3072 15.3348 36.3586 15.5935C36.4101 15.8521 36.5371 16.0897 36.7235 16.2761C36.91 16.4626 37.1476 16.5896 37.4062 16.641C37.6649 16.6925 37.933 16.6661 38.1766 16.5652C38.4202 16.4643 38.6285 16.2934 38.775 16.0741C38.9215 15.8548 38.9997 15.597 38.9997 15.3333C38.9997 14.9797 38.8592 14.6406 38.6092 14.3905C38.3591 14.1405 38.02 14 37.6663 14Z" fill="#F1F8FF" fill-opacity="0.7"/>
<path d="M50.9998 20.6667H34.9998C34.6465 20.6658 34.3079 20.525 34.058 20.2752C33.8081 20.0253 33.6674 19.6867 33.6665 19.3333V11.3333C33.6674 10.98 33.8081 10.6414 34.058 10.3915C34.3079 10.1416 34.6465 10.0009 34.9998 10H50.9998C51.3532 10.0009 51.6918 10.1416 51.9417 10.3915C52.1915 10.6414 52.3323 10.98 52.3332 11.3333V19.3333C52.3326 19.6868 52.192 20.0256 51.9421 20.2756C51.6921 20.5255 51.3533 20.6661 50.9998 20.6667ZM50.9998 11.3333H34.9998V19.3333H50.9998V11.3333Z" fill="#F1F8FF" fill-opacity="0.7"/>
<path d="M26.671 42.632C26.671 43.0207 26.5793 43.3873 26.396 43.732C26.2127 44.0767 25.9193 44.359 25.516 44.579C25.1127 44.7917 24.5957 44.898 23.965 44.898H22.579V48H21.325V40.355H23.965C24.5517 40.355 25.0467 40.4577 25.45 40.663C25.8607 40.861 26.165 41.1323 26.363 41.477C26.5683 41.8217 26.671 42.2067 26.671 42.632ZM23.965 43.875C24.4417 43.875 24.7973 43.7687 25.032 43.556C25.2667 43.336 25.384 43.028 25.384 42.632C25.384 41.796 24.911 41.378 23.965 41.378H22.579V43.875H23.965ZM27.449 44.942C27.449 44.3333 27.5737 43.7943 27.823 43.325C28.0797 42.8557 28.4243 42.4927 28.857 42.236C29.297 41.972 29.781 41.84 30.309 41.84C30.7857 41.84 31.2 41.9353 31.552 42.126C31.9113 42.3093 32.1973 42.5403 32.41 42.819V41.939H33.675V48H32.41V47.098C32.1973 47.384 31.9077 47.6223 31.541 47.813C31.1743 48.0037 30.7563 48.099 30.287 48.099C29.7663 48.099 29.2897 47.967 28.857 47.703C28.4243 47.4317 28.0797 47.0577 27.823 46.581C27.5737 46.097 27.449 45.5507 27.449 44.942ZM32.41 44.964C32.41 44.546 32.322 44.183 32.146 43.875C31.9773 43.567 31.7537 43.3323 31.475 43.171C31.1963 43.0097 30.8957 42.929 30.573 42.929C30.2503 42.929 29.9497 43.0097 29.671 43.171C29.3923 43.325 29.165 43.556 28.989 43.864C28.8203 44.1647 28.736 44.524 28.736 44.942C28.736 45.36 28.8203 45.7267 28.989 46.042C29.165 46.3573 29.3923 46.5993 29.671 46.768C29.957 46.9293 30.2577 47.01 30.573 47.01C30.8957 47.01 31.1963 46.9293 31.475 46.768C31.7537 46.6067 31.9773 46.372 32.146 46.064C32.322 45.7487 32.41 45.382 32.41 44.964ZM40.7781 41.939L37.0601 50.849H35.7621L36.9941 47.901L34.6071 41.939H36.0041L37.7091 46.559L39.4801 41.939H40.7781ZM44.3534 48.099C43.7814 48.099 43.2644 47.9707 42.8024 47.714C42.3404 47.45 41.9774 47.0833 41.7134 46.614C41.4494 46.1373 41.3174 45.5873 41.3174 44.964C41.3174 44.348 41.4531 43.8017 41.7244 43.325C41.9957 42.8483 42.3661 42.4817 42.8354 42.225C43.3047 41.9683 43.8291 41.84 44.4084 41.84C44.9877 41.84 45.5121 41.9683 45.9814 42.225C46.4507 42.4817 46.8211 42.8483 47.0924 43.325C47.3637 43.8017 47.4994 44.348 47.4994 44.964C47.4994 45.58 47.3601 46.1263 47.0814 46.603C46.8027 47.0797 46.4214 47.45 45.9374 47.714C45.4607 47.9707 44.9327 48.099 44.3534 48.099ZM44.3534 47.01C44.6761 47.01 44.9767 46.933 45.2554 46.779C45.5414 46.625 45.7724 46.394 45.9484 46.086C46.1244 45.778 46.2124 45.404 46.2124 44.964C46.2124 44.524 46.1281 44.1537 45.9594 43.853C45.7907 43.545 45.5671 43.314 45.2884 43.16C45.0097 43.006 44.7091 42.929 44.3864 42.929C44.0637 42.929 43.7631 43.006 43.4844 43.16C43.2131 43.314 42.9967 43.545 42.8354 43.853C42.6741 44.1537 42.5934 44.524 42.5934 44.964C42.5934 45.6167 42.7584 46.1227 43.0884 46.482C43.4257 46.834 43.8474 47.01 44.3534 47.01ZM54.2281 41.939V48H52.9741V47.285C52.7761 47.5343 52.5157 47.7323 52.1931 47.879C51.8777 48.0183 51.5404 48.088 51.1811 48.088C50.7044 48.088 50.2754 47.989 49.8941 47.791C49.5201 47.593 49.2231 47.2997 49.0031 46.911C48.7904 46.5223 48.6841 46.053 48.6841 45.503V41.939H49.9271V45.316C49.9271 45.8587 50.0627 46.2767 50.3341 46.57C50.6054 46.856 50.9757 46.999 51.4451 46.999C51.9144 46.999 52.2847 46.856 52.5561 46.57C52.8347 46.2767 52.9741 45.8587 52.9741 45.316V41.939H54.2281ZM57.3456 42.962V46.317C57.3456 46.5443 57.397 46.7093 57.4996 46.812C57.6096 46.9073 57.793 46.955 58.0496 46.955H58.8196V48H57.8296C57.265 48 56.8323 47.868 56.5316 47.604C56.231 47.34 56.0806 46.911 56.0806 46.317V42.962H55.3656V41.939H56.0806V40.432H57.3456V41.939H58.8196V42.962H57.3456ZM62.1754 48.099C61.6987 48.099 61.2697 48.0147 60.8884 47.846C60.5144 47.67 60.2174 47.4353 59.9974 47.142C59.7774 46.8413 59.6601 46.5077 59.6454 46.141H60.9434C60.9654 46.3977 61.0864 46.614 61.3064 46.79C61.5337 46.9587 61.8161 47.043 62.1534 47.043C62.5054 47.043 62.7767 46.977 62.9674 46.845C63.1654 46.7057 63.2644 46.5297 63.2644 46.317C63.2644 46.0897 63.1544 45.921 62.9344 45.811C62.7217 45.701 62.3807 45.58 61.9114 45.448C61.4567 45.3233 61.0864 45.2023 60.8004 45.085C60.5144 44.9677 60.2651 44.788 60.0524 44.546C59.8471 44.304 59.7444 43.985 59.7444 43.589C59.7444 43.2663 59.8397 42.973 60.0304 42.709C60.2211 42.4377 60.4924 42.225 60.8444 42.071C61.2037 41.917 61.6144 41.84 62.0764 41.84C62.7657 41.84 63.3194 42.016 63.7374 42.368C64.1627 42.7127 64.3901 43.1857 64.4194 43.787H63.1654C63.1434 43.5157 63.0334 43.2993 62.8354 43.138C62.6374 42.9767 62.3697 42.896 62.0324 42.896C61.7024 42.896 61.4494 42.9583 61.2734 43.083C61.0974 43.2077 61.0094 43.3727 61.0094 43.578C61.0094 43.7393 61.0681 43.875 61.1854 43.985C61.3027 44.095 61.4457 44.183 61.6144 44.249C61.7831 44.3077 62.0324 44.3847 62.3624 44.48C62.8024 44.5973 63.1617 44.7183 63.4404 44.843C63.7264 44.9603 63.9721 45.1363 64.1774 45.371C64.3827 45.6057 64.4891 45.9173 64.4964 46.306C64.4964 46.6507 64.4011 46.9587 64.2104 47.23C64.0197 47.5013 63.7484 47.714 63.3964 47.868C63.0517 48.022 62.6447 48.099 62.1754 48.099Z" fill="#F1F8FF" fill-opacity="0.7"/>
</svg>
