<svg width="85" height="63" viewBox="0 0 85 63" fill="none" xmlns="http://www.w3.org/2000/svg">
<path fill-rule="evenodd" clip-rule="evenodd" d="M41.2693 11.2308C39.7965 11.2308 38.6026 12.4247 38.6026 13.8974C38.6026 15.3702 39.7965 16.5641 41.2693 16.5641C42.742 16.5641 43.9359 15.3702 43.9359 13.8974C43.9359 12.4247 42.742 11.2308 41.2693 11.2308ZM37.3719 13.8974C37.3719 11.7449 39.1168 10 41.2693 10C43.4217 10 45.1667 11.7449 45.1667 13.8974C45.1667 16.0499 43.4217 17.7948 41.2693 17.7948C39.1168 17.7948 37.3719 16.0499 37.3719 13.8974ZM46.4161 14.2054C46.6691 13.2003 47.5912 12.4615 48.6539 12.4615C49.9399 12.4615 50.9103 13.5264 50.9103 14.7819C50.9103 15.7159 50.2579 16.1912 49.8699 16.4739C49.8588 16.4819 49.848 16.4898 49.8374 16.4975C49.3815 16.8306 49.2693 16.9502 49.2693 17.1795C49.2693 17.5193 48.9937 17.7948 48.6539 17.7948C48.314 17.7948 48.0385 17.5193 48.0385 17.1795C48.0385 16.2809 48.6818 15.815 49.0578 15.5426C49.0764 15.5292 49.0943 15.5162 49.1114 15.5037C49.5491 15.184 49.6795 15.0466 49.6795 14.7819C49.6795 14.1541 49.2094 13.6923 48.6539 13.6923C48.1628 13.6923 47.7268 14.0403 47.6096 14.5058C47.5267 14.8354 47.1922 15.0354 46.8626 14.9524C46.5331 14.8694 46.3331 14.535 46.4161 14.2054ZM48.6539 18.2051C48.9937 18.2051 49.2693 18.4806 49.2693 18.8205V18.8287C49.2693 19.1685 48.9937 19.4441 48.6539 19.4441C48.314 19.4441 48.0385 19.1685 48.0385 18.8287V18.8205C48.0385 18.4806 48.314 18.2051 48.6539 18.2051ZM41.1638 19.4359C41.2005 19.4359 41.2357 19.4359 41.2693 19.4359C41.3029 19.4359 41.3381 19.4359 41.3748 19.4359C42.2173 19.435 43.8652 19.4333 45.3326 19.8441C46.1015 20.0594 46.875 20.4016 47.4632 20.9627C48.0697 21.5411 48.4487 22.3247 48.4487 23.3333C48.4487 24.8061 47.2548 26 45.7821 26H36.7565C35.2837 26 34.0898 24.8061 34.0898 23.3333C34.0898 22.3247 34.4688 21.5411 35.0754 20.9627C35.6636 20.4016 36.437 20.0594 37.206 19.8441C38.6734 19.4333 40.3213 19.435 41.1638 19.4359ZM35.9248 21.8533C35.557 22.2041 35.3206 22.6678 35.3206 23.3333C35.3206 24.1264 35.9635 24.7692 36.7565 24.7692H45.7821C46.5751 24.7692 47.218 24.1264 47.218 23.3333C47.218 22.6678 46.9816 22.2041 46.6138 21.8533C46.2277 21.4851 45.6678 21.216 45.0008 21.0293C43.7016 20.6656 42.2015 20.6663 41.3483 20.6667C41.3213 20.6667 41.295 20.6667 41.2693 20.6667C41.2436 20.6667 41.2173 20.6667 41.1903 20.6667C40.3371 20.6663 38.837 20.6656 37.5378 21.0293C36.8708 21.216 36.3109 21.4851 35.9248 21.8533Z" fill="#525252"/>
<path d="M21.796 48L20.036 44.942H19.079V48H17.825V40.355H20.465C21.0517 40.355 21.5467 40.4577 21.95 40.663C22.3607 40.8683 22.665 41.1433 22.863 41.488C23.0683 41.8327 23.171 42.2177 23.171 42.643C23.171 43.1417 23.0243 43.5963 22.731 44.007C22.445 44.4103 22.0013 44.6853 21.4 44.832L23.292 48H21.796ZM19.079 43.941H20.465C20.9343 43.941 21.2863 43.8237 21.521 43.589C21.763 43.3543 21.884 43.039 21.884 42.643C21.884 42.247 21.7667 41.939 21.532 41.719C21.2973 41.4917 20.9417 41.378 20.465 41.378H19.079V43.941ZM30.3302 44.821C30.3302 45.0483 30.3155 45.2537 30.2862 45.437H25.6552C25.6919 45.921 25.8715 46.3097 26.1942 46.603C26.5169 46.8963 26.9129 47.043 27.3822 47.043C28.0569 47.043 28.5335 46.7607 28.8122 46.196H30.1652C29.9819 46.7533 29.6482 47.2117 29.1642 47.571C28.6875 47.923 28.0935 48.099 27.3822 48.099C26.8029 48.099 26.2822 47.9707 25.8202 47.714C25.3655 47.45 25.0062 47.0833 24.7422 46.614C24.4855 46.1373 24.3572 45.5873 24.3572 44.964C24.3572 44.3407 24.4819 43.7943 24.7312 43.325C24.9879 42.8483 25.3435 42.4817 25.7982 42.225C26.2602 41.9683 26.7882 41.84 27.3822 41.84C27.9542 41.84 28.4639 41.9647 28.9112 42.214C29.3585 42.4633 29.7069 42.8153 29.9562 43.27C30.2055 43.7173 30.3302 44.2343 30.3302 44.821ZM29.0212 44.425C29.0139 43.963 28.8489 43.5927 28.5262 43.314C28.2035 43.0353 27.8039 42.896 27.3272 42.896C26.8945 42.896 26.5242 43.0353 26.2162 43.314C25.9082 43.5853 25.7249 43.9557 25.6662 44.425H29.0212ZM31.1463 44.942C31.1463 44.3333 31.2709 43.7943 31.5203 43.325C31.7769 42.8557 32.1216 42.4927 32.5543 42.236C32.9943 41.972 33.4819 41.84 34.0173 41.84C34.4866 41.84 34.9009 41.9353 35.2603 42.126C35.6269 42.3167 35.9093 42.5477 36.1073 42.819V41.939H37.3723V50.882H36.1073V47.12C35.9093 47.3913 35.6233 47.6223 35.2493 47.813C34.8753 48.0037 34.4499 48.099 33.9733 48.099C33.4526 48.099 32.9759 47.967 32.5433 47.703C32.1179 47.4317 31.7769 47.0577 31.5203 46.581C31.2709 46.097 31.1463 45.5507 31.1463 44.942ZM36.1073 44.964C36.1073 44.546 36.0193 44.183 35.8433 43.875C35.6746 43.567 35.4509 43.3323 35.1723 43.171C34.8936 43.0097 34.5929 42.929 34.2703 42.929C33.9476 42.929 33.6469 43.0097 33.3683 43.171C33.0896 43.325 32.8623 43.556 32.6863 43.864C32.5176 44.1647 32.4333 44.524 32.4333 44.942C32.4333 45.36 32.5176 45.7267 32.6863 46.042C32.8623 46.3573 33.0896 46.5993 33.3683 46.768C33.6543 46.9293 33.9549 47.01 34.2703 47.01C34.5929 47.01 34.8936 46.9293 35.1723 46.768C35.4509 46.6067 35.6746 46.372 35.8433 46.064C36.0193 45.7487 36.1073 45.382 36.1073 44.964ZM44.5083 41.939V48H43.2543V47.285C43.0563 47.5343 42.796 47.7323 42.4733 47.879C42.158 48.0183 41.8207 48.088 41.4613 48.088C40.9847 48.088 40.5557 47.989 40.1743 47.791C39.8003 47.593 39.5033 47.2997 39.2833 46.911C39.0707 46.5223 38.9643 46.053 38.9643 45.503V41.939H40.2073V45.316C40.2073 45.8587 40.343 46.2767 40.6143 46.57C40.8857 46.856 41.256 46.999 41.7253 46.999C42.1947 46.999 42.565 46.856 42.8363 46.57C43.115 46.2767 43.2543 45.8587 43.2543 45.316V41.939H44.5083ZM51.7179 44.821C51.7179 45.0483 51.7032 45.2537 51.6739 45.437H47.0429C47.0796 45.921 47.2592 46.3097 47.5819 46.603C47.9046 46.8963 48.3006 47.043 48.7699 47.043C49.4446 47.043 49.9212 46.7607 50.1999 46.196H51.5529C51.3696 46.7533 51.0359 47.2117 50.5519 47.571C50.0752 47.923 49.4812 48.099 48.7699 48.099C48.1906 48.099 47.6699 47.9707 47.2079 47.714C46.7532 47.45 46.3939 47.0833 46.1299 46.614C45.8732 46.1373 45.7449 45.5873 45.7449 44.964C45.7449 44.3407 45.8696 43.7943 46.1189 43.325C46.3756 42.8483 46.7312 42.4817 47.1859 42.225C47.6479 41.9683 48.1759 41.84 48.7699 41.84C49.3419 41.84 49.8516 41.9647 50.2989 42.214C50.7462 42.4633 51.0946 42.8153 51.3439 43.27C51.5932 43.7173 51.7179 44.2343 51.7179 44.821ZM50.4089 44.425C50.4016 43.963 50.2366 43.5927 49.9139 43.314C49.5912 43.0353 49.1916 42.896 48.7149 42.896C48.2822 42.896 47.9119 43.0353 47.6039 43.314C47.2959 43.5853 47.1126 43.9557 47.0539 44.425H50.4089ZM55.152 48.099C54.6753 48.099 54.2463 48.0147 53.865 47.846C53.491 47.67 53.194 47.4353 52.974 47.142C52.754 46.8413 52.6366 46.5077 52.622 46.141H53.92C53.942 46.3977 54.063 46.614 54.283 46.79C54.5103 46.9587 54.7926 47.043 55.13 47.043C55.482 47.043 55.7533 46.977 55.944 46.845C56.142 46.7057 56.241 46.5297 56.241 46.317C56.241 46.0897 56.131 45.921 55.911 45.811C55.6983 45.701 55.3573 45.58 54.888 45.448C54.4333 45.3233 54.063 45.2023 53.777 45.085C53.491 44.9677 53.2416 44.788 53.029 44.546C52.8236 44.304 52.721 43.985 52.721 43.589C52.721 43.2663 52.8163 42.973 53.007 42.709C53.1976 42.4377 53.469 42.225 53.821 42.071C54.1803 41.917 54.591 41.84 55.053 41.84C55.7423 41.84 56.296 42.016 56.714 42.368C57.1393 42.7127 57.3666 43.1857 57.396 43.787H56.142C56.12 43.5157 56.01 43.2993 55.812 43.138C55.614 42.9767 55.3463 42.896 55.009 42.896C54.679 42.896 54.426 42.9583 54.25 43.083C54.074 43.2077 53.986 43.3727 53.986 43.578C53.986 43.7393 54.0446 43.875 54.162 43.985C54.2793 44.095 54.4223 44.183 54.591 44.249C54.7596 44.3077 55.009 44.3847 55.339 44.48C55.779 44.5973 56.1383 44.7183 56.417 44.843C56.703 44.9603 56.9486 45.1363 57.154 45.371C57.3593 45.6057 57.4656 45.9173 57.473 46.306C57.473 46.6507 57.3776 46.9587 57.187 47.23C56.9963 47.5013 56.725 47.714 56.373 47.868C56.0283 48.022 55.6213 48.099 55.152 48.099ZM60.2909 42.962V46.317C60.2909 46.5443 60.3423 46.7093 60.4449 46.812C60.5549 46.9073 60.7383 46.955 60.9949 46.955H61.7649V48H60.7749C60.2103 48 59.7776 47.868 59.4769 47.604C59.1763 47.34 59.0259 46.911 59.0259 46.317V42.962H58.3109V41.939H59.0259V40.432H60.2909V41.939H61.7649V42.962H60.2909ZM65.1207 48.099C64.644 48.099 64.215 48.0147 63.8337 47.846C63.4597 47.67 63.1627 47.4353 62.9427 47.142C62.7227 46.8413 62.6054 46.5077 62.5907 46.141H63.8887C63.9107 46.3977 64.0317 46.614 64.2517 46.79C64.479 46.9587 64.7614 47.043 65.0987 47.043C65.4507 47.043 65.722 46.977 65.9127 46.845C66.1107 46.7057 66.2097 46.5297 66.2097 46.317C66.2097 46.0897 66.0997 45.921 65.8797 45.811C65.667 45.701 65.326 45.58 64.8567 45.448C64.402 45.3233 64.0317 45.2023 63.7457 45.085C63.4597 44.9677 63.2104 44.788 62.9977 44.546C62.7924 44.304 62.6897 43.985 62.6897 43.589C62.6897 43.2663 62.785 42.973 62.9757 42.709C63.1664 42.4377 63.4377 42.225 63.7897 42.071C64.149 41.917 64.5597 41.84 65.0217 41.84C65.711 41.84 66.2647 42.016 66.6827 42.368C67.108 42.7127 67.3354 43.1857 67.3647 43.787H66.1107C66.0887 43.5157 65.9787 43.2993 65.7807 43.138C65.5827 42.9767 65.315 42.896 64.9777 42.896C64.6477 42.896 64.3947 42.9583 64.2187 43.083C64.0427 43.2077 63.9547 43.3727 63.9547 43.578C63.9547 43.7393 64.0134 43.875 64.1307 43.985C64.248 44.095 64.391 44.183 64.5597 44.249C64.7284 44.3077 64.9777 44.3847 65.3077 44.48C65.7477 44.5973 66.107 44.7183 66.3857 44.843C66.6717 44.9603 66.9174 45.1363 67.1227 45.371C67.328 45.6057 67.4344 45.9173 67.4417 46.306C67.4417 46.6507 67.3464 46.9587 67.1557 47.23C66.965 47.5013 66.6937 47.714 66.3417 47.868C65.997 48.022 65.59 48.099 65.1207 48.099Z" fill="#525252"/>
</svg>
