<svg width="86" height="63" viewBox="0 0 86 63" fill="none" xmlns="http://www.w3.org/2000/svg">
<path fill-rule="evenodd" clip-rule="evenodd" d="M41.7693 11.2308C40.2965 11.2308 39.1026 12.4247 39.1026 13.8974C39.1026 15.3702 40.2965 16.5641 41.7693 16.5641C43.242 16.5641 44.4359 15.3702 44.4359 13.8974C44.4359 12.4247 43.242 11.2308 41.7693 11.2308ZM37.8719 13.8974C37.8719 11.7449 39.6168 10 41.7693 10C43.9217 10 45.6667 11.7449 45.6667 13.8974C45.6667 16.0499 43.9217 17.7948 41.7693 17.7948C39.6168 17.7948 37.8719 16.0499 37.8719 13.8974ZM46.9161 14.2054C47.1691 13.2003 48.0912 12.4615 49.1539 12.4615C50.4399 12.4615 51.4103 13.5264 51.4103 14.7819C51.4103 15.7159 50.7579 16.1912 50.3699 16.4739C50.3588 16.4819 50.348 16.4898 50.3374 16.4975C49.8815 16.8306 49.7693 16.9502 49.7693 17.1795C49.7693 17.5193 49.4937 17.7948 49.1539 17.7948C48.814 17.7948 48.5385 17.5193 48.5385 17.1795C48.5385 16.2809 49.1818 15.815 49.5578 15.5426C49.5764 15.5292 49.5943 15.5162 49.6114 15.5037C50.0491 15.184 50.1795 15.0466 50.1795 14.7819C50.1795 14.1541 49.7094 13.6923 49.1539 13.6923C48.6628 13.6923 48.2268 14.0403 48.1096 14.5058C48.0267 14.8354 47.6922 15.0354 47.3626 14.9524C47.0331 14.8694 46.8331 14.535 46.9161 14.2054ZM49.1539 18.2051C49.4937 18.2051 49.7693 18.4806 49.7693 18.8205V18.8287C49.7693 19.1685 49.4937 19.4441 49.1539 19.4441C48.814 19.4441 48.5385 19.1685 48.5385 18.8287V18.8205C48.5385 18.4806 48.814 18.2051 49.1539 18.2051ZM41.6638 19.4359C41.7005 19.4359 41.7357 19.4359 41.7693 19.4359C41.8029 19.4359 41.8381 19.4359 41.8748 19.4359C42.7173 19.435 44.3652 19.4333 45.8326 19.8441C46.6015 20.0594 47.375 20.4016 47.9632 20.9627C48.5697 21.5411 48.9487 22.3247 48.9487 23.3333C48.9487 24.8061 47.7548 26 46.2821 26H37.2565C35.7837 26 34.5898 24.8061 34.5898 23.3333C34.5898 22.3247 34.9688 21.5411 35.5754 20.9627C36.1636 20.4016 36.937 20.0594 37.706 19.8441C39.1734 19.4333 40.8213 19.435 41.6638 19.4359ZM36.4248 21.8533C36.057 22.2041 35.8206 22.6678 35.8206 23.3333C35.8206 24.1264 36.4635 24.7692 37.2565 24.7692H46.2821C47.0751 24.7692 47.718 24.1264 47.718 23.3333C47.718 22.6678 47.4816 22.2041 47.1138 21.8533C46.7277 21.4851 46.1678 21.216 45.5008 21.0293C44.2016 20.6656 42.7015 20.6663 41.8483 20.6667C41.8213 20.6667 41.795 20.6667 41.7693 20.6667C41.7436 20.6667 41.7173 20.6667 41.6903 20.6667C40.8371 20.6663 39.337 20.6656 38.0378 21.0293C37.3708 21.216 36.8109 21.4851 36.4248 21.8533Z" fill="white"/>
<path d="M22.296 48L20.536 44.942H19.579V48H18.325V40.355H20.965C21.5517 40.355 22.0467 40.4577 22.45 40.663C22.8607 40.8683 23.165 41.1433 23.363 41.488C23.5683 41.8327 23.671 42.2177 23.671 42.643C23.671 43.1417 23.5243 43.5963 23.231 44.007C22.945 44.4103 22.5013 44.6853 21.9 44.832L23.792 48H22.296ZM19.579 43.941H20.965C21.4343 43.941 21.7863 43.8237 22.021 43.589C22.263 43.3543 22.384 43.039 22.384 42.643C22.384 42.247 22.2667 41.939 22.032 41.719C21.7973 41.4917 21.4417 41.378 20.965 41.378H19.579V43.941ZM30.8302 44.821C30.8302 45.0483 30.8155 45.2537 30.7862 45.437H26.1552C26.1919 45.921 26.3715 46.3097 26.6942 46.603C27.0169 46.8963 27.4129 47.043 27.8822 47.043C28.5569 47.043 29.0335 46.7607 29.3122 46.196H30.6652C30.4819 46.7533 30.1482 47.2117 29.6642 47.571C29.1875 47.923 28.5935 48.099 27.8822 48.099C27.3029 48.099 26.7822 47.9707 26.3202 47.714C25.8655 47.45 25.5062 47.0833 25.2422 46.614C24.9855 46.1373 24.8572 45.5873 24.8572 44.964C24.8572 44.3407 24.9819 43.7943 25.2312 43.325C25.4879 42.8483 25.8435 42.4817 26.2982 42.225C26.7602 41.9683 27.2882 41.84 27.8822 41.84C28.4542 41.84 28.9639 41.9647 29.4112 42.214C29.8585 42.4633 30.2069 42.8153 30.4562 43.27C30.7055 43.7173 30.8302 44.2343 30.8302 44.821ZM29.5212 44.425C29.5139 43.963 29.3489 43.5927 29.0262 43.314C28.7035 43.0353 28.3039 42.896 27.8272 42.896C27.3945 42.896 27.0242 43.0353 26.7162 43.314C26.4082 43.5853 26.2249 43.9557 26.1662 44.425H29.5212ZM31.6463 44.942C31.6463 44.3333 31.7709 43.7943 32.0203 43.325C32.2769 42.8557 32.6216 42.4927 33.0543 42.236C33.4943 41.972 33.9819 41.84 34.5173 41.84C34.9866 41.84 35.4009 41.9353 35.7603 42.126C36.1269 42.3167 36.4093 42.5477 36.6073 42.819V41.939H37.8723V50.882H36.6073V47.12C36.4093 47.3913 36.1233 47.6223 35.7493 47.813C35.3753 48.0037 34.9499 48.099 34.4733 48.099C33.9526 48.099 33.4759 47.967 33.0433 47.703C32.6179 47.4317 32.2769 47.0577 32.0203 46.581C31.7709 46.097 31.6463 45.5507 31.6463 44.942ZM36.6073 44.964C36.6073 44.546 36.5193 44.183 36.3433 43.875C36.1746 43.567 35.9509 43.3323 35.6723 43.171C35.3936 43.0097 35.0929 42.929 34.7703 42.929C34.4476 42.929 34.1469 43.0097 33.8683 43.171C33.5896 43.325 33.3623 43.556 33.1863 43.864C33.0176 44.1647 32.9333 44.524 32.9333 44.942C32.9333 45.36 33.0176 45.7267 33.1863 46.042C33.3623 46.3573 33.5896 46.5993 33.8683 46.768C34.1543 46.9293 34.4549 47.01 34.7703 47.01C35.0929 47.01 35.3936 46.9293 35.6723 46.768C35.9509 46.6067 36.1746 46.372 36.3433 46.064C36.5193 45.7487 36.6073 45.382 36.6073 44.964ZM45.0083 41.939V48H43.7543V47.285C43.5563 47.5343 43.296 47.7323 42.9733 47.879C42.658 48.0183 42.3207 48.088 41.9613 48.088C41.4847 48.088 41.0557 47.989 40.6743 47.791C40.3003 47.593 40.0033 47.2997 39.7833 46.911C39.5707 46.5223 39.4643 46.053 39.4643 45.503V41.939H40.7073V45.316C40.7073 45.8587 40.843 46.2767 41.1143 46.57C41.3857 46.856 41.756 46.999 42.2253 46.999C42.6947 46.999 43.065 46.856 43.3363 46.57C43.615 46.2767 43.7543 45.8587 43.7543 45.316V41.939H45.0083ZM52.2179 44.821C52.2179 45.0483 52.2032 45.2537 52.1739 45.437H47.5429C47.5796 45.921 47.7592 46.3097 48.0819 46.603C48.4046 46.8963 48.8006 47.043 49.2699 47.043C49.9446 47.043 50.4212 46.7607 50.6999 46.196H52.0529C51.8696 46.7533 51.5359 47.2117 51.0519 47.571C50.5752 47.923 49.9812 48.099 49.2699 48.099C48.6906 48.099 48.1699 47.9707 47.7079 47.714C47.2532 47.45 46.8939 47.0833 46.6299 46.614C46.3732 46.1373 46.2449 45.5873 46.2449 44.964C46.2449 44.3407 46.3696 43.7943 46.6189 43.325C46.8756 42.8483 47.2312 42.4817 47.6859 42.225C48.1479 41.9683 48.6759 41.84 49.2699 41.84C49.8419 41.84 50.3516 41.9647 50.7989 42.214C51.2462 42.4633 51.5946 42.8153 51.8439 43.27C52.0932 43.7173 52.2179 44.2343 52.2179 44.821ZM50.9089 44.425C50.9016 43.963 50.7366 43.5927 50.4139 43.314C50.0912 43.0353 49.6916 42.896 49.2149 42.896C48.7822 42.896 48.4119 43.0353 48.1039 43.314C47.7959 43.5853 47.6126 43.9557 47.5539 44.425H50.9089ZM55.652 48.099C55.1753 48.099 54.7463 48.0147 54.365 47.846C53.991 47.67 53.694 47.4353 53.474 47.142C53.254 46.8413 53.1366 46.5077 53.122 46.141H54.42C54.442 46.3977 54.563 46.614 54.783 46.79C55.0103 46.9587 55.2926 47.043 55.63 47.043C55.982 47.043 56.2533 46.977 56.444 46.845C56.642 46.7057 56.741 46.5297 56.741 46.317C56.741 46.0897 56.631 45.921 56.411 45.811C56.1983 45.701 55.8573 45.58 55.388 45.448C54.9333 45.3233 54.563 45.2023 54.277 45.085C53.991 44.9677 53.7416 44.788 53.529 44.546C53.3236 44.304 53.221 43.985 53.221 43.589C53.221 43.2663 53.3163 42.973 53.507 42.709C53.6976 42.4377 53.969 42.225 54.321 42.071C54.6803 41.917 55.091 41.84 55.553 41.84C56.2423 41.84 56.796 42.016 57.214 42.368C57.6393 42.7127 57.8666 43.1857 57.896 43.787H56.642C56.62 43.5157 56.51 43.2993 56.312 43.138C56.114 42.9767 55.8463 42.896 55.509 42.896C55.179 42.896 54.926 42.9583 54.75 43.083C54.574 43.2077 54.486 43.3727 54.486 43.578C54.486 43.7393 54.5446 43.875 54.662 43.985C54.7793 44.095 54.9223 44.183 55.091 44.249C55.2596 44.3077 55.509 44.3847 55.839 44.48C56.279 44.5973 56.6383 44.7183 56.917 44.843C57.203 44.9603 57.4486 45.1363 57.654 45.371C57.8593 45.6057 57.9656 45.9173 57.973 46.306C57.973 46.6507 57.8776 46.9587 57.687 47.23C57.4963 47.5013 57.225 47.714 56.873 47.868C56.5283 48.022 56.1213 48.099 55.652 48.099ZM60.7909 42.962V46.317C60.7909 46.5443 60.8423 46.7093 60.9449 46.812C61.0549 46.9073 61.2383 46.955 61.4949 46.955H62.2649V48H61.2749C60.7103 48 60.2776 47.868 59.9769 47.604C59.6763 47.34 59.5259 46.911 59.5259 46.317V42.962H58.8109V41.939H59.5259V40.432H60.7909V41.939H62.2649V42.962H60.7909ZM65.6207 48.099C65.144 48.099 64.715 48.0147 64.3337 47.846C63.9597 47.67 63.6627 47.4353 63.4427 47.142C63.2227 46.8413 63.1054 46.5077 63.0907 46.141H64.3887C64.4107 46.3977 64.5317 46.614 64.7517 46.79C64.979 46.9587 65.2614 47.043 65.5987 47.043C65.9507 47.043 66.222 46.977 66.4127 46.845C66.6107 46.7057 66.7097 46.5297 66.7097 46.317C66.7097 46.0897 66.5997 45.921 66.3797 45.811C66.167 45.701 65.826 45.58 65.3567 45.448C64.902 45.3233 64.5317 45.2023 64.2457 45.085C63.9597 44.9677 63.7104 44.788 63.4977 44.546C63.2924 44.304 63.1897 43.985 63.1897 43.589C63.1897 43.2663 63.285 42.973 63.4757 42.709C63.6664 42.4377 63.9377 42.225 64.2897 42.071C64.649 41.917 65.0597 41.84 65.5217 41.84C66.211 41.84 66.7647 42.016 67.1827 42.368C67.608 42.7127 67.8354 43.1857 67.8647 43.787H66.6107C66.5887 43.5157 66.4787 43.2993 66.2807 43.138C66.0827 42.9767 65.815 42.896 65.4777 42.896C65.1477 42.896 64.8947 42.9583 64.7187 43.083C64.5427 43.2077 64.4547 43.3727 64.4547 43.578C64.4547 43.7393 64.5134 43.875 64.6307 43.985C64.748 44.095 64.891 44.183 65.0597 44.249C65.2284 44.3077 65.4777 44.3847 65.8077 44.48C66.2477 44.5973 66.607 44.7183 66.8857 44.843C67.1717 44.9603 67.4174 45.1363 67.6227 45.371C67.828 45.6057 67.9344 45.9173 67.9417 46.306C67.9417 46.6507 67.8464 46.9587 67.6557 47.23C67.465 47.5013 67.1937 47.714 66.8417 47.868C66.497 48.022 66.09 48.099 65.6207 48.099Z" fill="white"/>
</svg>
