<svg width="92" height="41" viewBox="0 0 92 41" fill="none" xmlns="http://www.w3.org/2000/svg">
<path fill-rule="evenodd" clip-rule="evenodd" d="M18.5953 22.2391L21.8232 25.467C21.9366 25.5805 22.0004 25.7345 22.0003 25.895C22.0002 26.0555 21.9364 26.2094 21.8229 26.3229C21.7094 26.4363 21.5554 26.5001 21.3949 26.5C21.2344 26.4999 21.0805 26.4361 20.967 26.3226L17.7391 23.0947C16.7741 23.8421 15.5607 24.1938 14.3456 24.0783C13.1306 23.9627 12.0051 23.3887 11.1983 22.4728C10.3915 21.557 9.96384 20.3682 10.0024 19.1483C10.041 17.9283 10.5428 16.7689 11.4059 15.9059C12.2689 15.0428 13.4283 14.541 14.6483 14.5024C15.8682 14.4638 17.057 14.8915 17.9728 15.6983C18.8887 16.5051 19.4627 17.6306 19.5782 18.8456C19.6938 20.0607 19.3421 21.2741 18.5947 22.2391H18.5953ZM14.8003 22.8997C15.7551 22.8997 16.6708 22.5204 17.3459 21.8453C18.021 21.1702 18.4003 20.2545 18.4003 19.2997C18.4003 18.345 18.021 17.4293 17.3459 16.7542C16.6708 16.0791 15.7551 15.6998 14.8003 15.6998C13.8456 15.6998 12.9299 16.0791 12.2548 16.7542C11.5797 17.4293 11.2004 18.345 11.2004 19.2997C11.2004 20.2545 11.5797 21.1702 12.2548 21.8453C12.9299 22.5204 13.8456 22.8997 14.8003 22.8997Z" fill="#F4F4F4"/>
<path d="M36.2562 25.098C35.6029 25.098 35.0149 24.986 34.4922 24.762C33.9696 24.5287 33.5589 24.202 33.2602 23.782C32.9616 23.362 32.8122 22.872 32.8122 22.312H34.5202C34.5576 22.732 34.7209 23.0773 35.0102 23.348C35.3089 23.6187 35.7242 23.754 36.2562 23.754C36.8069 23.754 37.2362 23.6233 37.5442 23.362C37.8522 23.0913 38.0062 22.746 38.0062 22.326C38.0062 21.9993 37.9082 21.7333 37.7122 21.528C37.5256 21.3227 37.2876 21.164 36.9982 21.052C36.7182 20.94 36.3262 20.8187 35.8222 20.688C35.1876 20.52 34.6696 20.352 34.2682 20.184C33.8762 20.0067 33.5402 19.736 33.2602 19.372C32.9802 19.008 32.8402 18.5227 32.8402 17.916C32.8402 17.356 32.9802 16.866 33.2602 16.446C33.5402 16.026 33.9322 15.704 34.4362 15.48C34.9402 15.256 35.5236 15.144 36.1862 15.144C37.1289 15.144 37.8989 15.382 38.4962 15.858C39.1029 16.3247 39.4389 16.9687 39.5042 17.79H37.7402C37.7122 17.4353 37.5442 17.132 37.2362 16.88C36.9282 16.628 36.5222 16.502 36.0182 16.502C35.5609 16.502 35.1876 16.6187 34.8982 16.852C34.6089 17.0853 34.4642 17.4213 34.4642 17.86C34.4642 18.1587 34.5529 18.406 34.7302 18.602C34.9169 18.7887 35.1502 18.938 35.4302 19.05C35.7102 19.162 36.0929 19.2833 36.5782 19.414C37.2222 19.5913 37.7449 19.7687 38.1462 19.946C38.5569 20.1233 38.9022 20.3987 39.1822 20.772C39.4716 21.136 39.6162 21.626 39.6162 22.242C39.6162 22.7367 39.4809 23.2033 39.2102 23.642C38.9489 24.0807 38.5616 24.4353 38.0482 24.706C37.5442 24.9673 36.9469 25.098 36.2562 25.098ZM48.5695 20.954C48.5695 21.2433 48.5508 21.5047 48.5135 21.738H42.6195C42.6661 22.354 42.8948 22.8487 43.3055 23.222C43.7161 23.5953 44.2201 23.782 44.8175 23.782C45.6761 23.782 46.2828 23.4227 46.6375 22.704H48.3595C48.1261 23.4133 47.7015 23.9967 47.0855 24.454C46.4788 24.902 45.7228 25.126 44.8175 25.126C44.0801 25.126 43.4175 24.9627 42.8295 24.636C42.2508 24.3 41.7935 23.8333 41.4575 23.236C41.1308 22.6293 40.9675 21.9293 40.9675 21.136C40.9675 20.3427 41.1261 19.6473 41.4435 19.05C41.7701 18.4433 42.2228 17.9767 42.8015 17.65C43.3895 17.3233 44.0615 17.16 44.8175 17.16C45.5455 17.16 46.1941 17.3187 46.7635 17.636C47.3328 17.9533 47.7761 18.4013 48.0935 18.98C48.4108 19.5493 48.5695 20.2073 48.5695 20.954ZM46.9035 20.45C46.8941 19.862 46.6841 19.3907 46.2735 19.036C45.8628 18.6813 45.3541 18.504 44.7475 18.504C44.1968 18.504 43.7255 18.6813 43.3335 19.036C42.9415 19.3813 42.7081 19.8527 42.6335 20.45H46.9035ZM49.6081 21.108C49.6081 20.3333 49.7668 19.6473 50.0841 19.05C50.4108 18.4527 50.8494 17.9907 51.4001 17.664C51.9601 17.328 52.5761 17.16 53.2481 17.16C53.8548 17.16 54.3821 17.2813 54.8301 17.524C55.2874 17.7573 55.6514 18.0513 55.9221 18.406V17.286H57.5321V25H55.9221V23.852C55.6514 24.216 55.2828 24.5193 54.8161 24.762C54.3494 25.0047 53.8174 25.126 53.2201 25.126C52.5574 25.126 51.9508 24.958 51.4001 24.622C50.8494 24.2767 50.4108 23.8007 50.0841 23.194C49.7668 22.578 49.6081 21.8827 49.6081 21.108ZM55.9221 21.136C55.9221 20.604 55.8101 20.142 55.5861 19.75C55.3714 19.358 55.0868 19.0593 54.7321 18.854C54.3774 18.6487 53.9948 18.546 53.5841 18.546C53.1734 18.546 52.7908 18.6487 52.4361 18.854C52.0814 19.05 51.7921 19.344 51.5681 19.736C51.3534 20.1187 51.2461 20.576 51.2461 21.108C51.2461 21.64 51.3534 22.1067 51.5681 22.508C51.7921 22.9093 52.0814 23.2173 52.4361 23.432C52.8001 23.6373 53.1828 23.74 53.5841 23.74C53.9948 23.74 54.3774 23.6373 54.7321 23.432C55.0868 23.2267 55.3714 22.928 55.5861 22.536C55.8101 22.1347 55.9221 21.668 55.9221 21.136ZM61.2244 18.406C61.4577 18.014 61.7657 17.7107 62.1484 17.496C62.5404 17.272 63.0024 17.16 63.5344 17.16V18.812H63.1284C62.503 18.812 62.027 18.9707 61.7004 19.288C61.383 19.6053 61.2244 20.156 61.2244 20.94V25H59.6284V17.286H61.2244V18.406ZM64.4694 21.136C64.4694 20.3427 64.6281 19.6473 64.9454 19.05C65.2721 18.4433 65.7201 17.9767 66.2894 17.65C66.8587 17.3233 67.5121 17.16 68.2494 17.16C69.1827 17.16 69.9527 17.384 70.5594 17.832C71.1754 18.2707 71.5908 18.9007 71.8054 19.722H70.0834C69.9434 19.3393 69.7194 19.0407 69.4114 18.826C69.1034 18.6113 68.7161 18.504 68.2494 18.504C67.5961 18.504 67.0734 18.7373 66.6814 19.204C66.2987 19.6613 66.1074 20.3053 66.1074 21.136C66.1074 21.9667 66.2987 22.6153 66.6814 23.082C67.0734 23.5487 67.5961 23.782 68.2494 23.782C69.1734 23.782 69.7847 23.376 70.0834 22.564H71.8054C71.5814 23.348 71.1614 23.9733 70.5454 24.44C69.9294 24.8973 69.1641 25.126 68.2494 25.126C67.5121 25.126 66.8587 24.9627 66.2894 24.636C65.7201 24.3 65.2721 23.8333 64.9454 23.236C64.6281 22.6293 64.4694 21.9293 64.4694 21.136ZM77.3859 17.16C77.9739 17.16 78.4966 17.286 78.9539 17.538C79.4206 17.79 79.7846 18.1633 80.0459 18.658C80.3166 19.1527 80.4519 19.75 80.4519 20.45V25H78.8699V20.688C78.8699 19.9973 78.6973 19.47 78.3519 19.106C78.0066 18.7327 77.5353 18.546 76.9379 18.546C76.3406 18.546 75.8646 18.7327 75.5099 19.106C75.1646 19.47 74.9919 19.9973 74.9919 20.688V25H73.3959V14.64H74.9919V18.182C75.2626 17.8553 75.6033 17.6033 76.0139 17.426C76.4339 17.2487 76.8913 17.16 77.3859 17.16Z" fill="#F4F4F4"/>
</svg>
