<svg width="86" height="61" viewBox="0 0 86 61" fill="none" xmlns="http://www.w3.org/2000/svg">
<path d="M48.4972 17.3602V16.9802V16.5952L49.4572 15.7552C49.6342 15.5992 49.7503 15.3857 49.7851 15.1524C49.8198 14.9191 49.771 14.681 49.6472 14.4802L48.4672 12.4802C48.3795 12.3283 48.2534 12.2022 48.1016 12.1144C47.9498 12.0267 47.7776 11.9804 47.6022 11.9802C47.4935 11.9794 47.3854 11.9962 47.2822 12.0302L46.0672 12.4402C45.8574 12.3008 45.6386 12.1755 45.4122 12.0652L45.1572 10.8052C45.1115 10.575 44.9862 10.3682 44.8034 10.221C44.6206 10.0739 44.3918 9.99569 44.1572 10.0002H41.8172C41.5825 9.99569 41.3538 10.0739 41.171 10.221C40.9882 10.3682 40.8629 10.575 40.8172 10.8052L40.5622 12.0652C40.3342 12.1755 40.1137 12.3008 39.9022 12.4402L38.7122 12.0102C38.6078 11.983 38.4998 11.9729 38.3922 11.9802C38.2168 11.9804 38.0446 12.0267 37.8928 12.1144C37.741 12.2022 37.6149 12.3283 37.5272 12.4802L36.3472 14.4802C36.2305 14.6807 36.1871 14.9155 36.2245 15.1445C36.2619 15.3734 36.3778 15.5822 36.5522 15.7352L37.4972 16.6002V17.3652L36.5522 18.2052C36.3728 18.3592 36.2538 18.5717 36.2163 18.8052C36.1788 19.0386 36.2251 19.2777 36.3472 19.4802L37.5272 21.4802C37.6149 21.6321 37.741 21.7582 37.8928 21.846C38.0446 21.9337 38.2168 21.98 38.3922 21.9802C38.5009 21.981 38.609 21.9641 38.7122 21.9302L39.9272 21.5202C40.137 21.6596 40.3558 21.7849 40.5822 21.8952L40.8372 23.1552C40.8829 23.3854 41.0082 23.5922 41.191 23.7393C41.3738 23.8865 41.6025 23.9647 41.8372 23.9602H44.1972C44.4318 23.9647 44.6606 23.8865 44.8434 23.7393C45.0262 23.5922 45.1515 23.3854 45.1972 23.1552L45.4522 21.8952C45.6802 21.7849 45.9007 21.6596 46.1122 21.5202L47.3222 21.9302C47.4254 21.9641 47.5335 21.981 47.6422 21.9802C47.8176 21.98 47.9898 21.9337 48.1416 21.846C48.2934 21.7582 48.4195 21.6321 48.5072 21.4802L49.6472 19.4802C49.7639 19.2797 49.8073 19.0449 49.7699 18.8159C49.7325 18.5869 49.6166 18.3781 49.4422 18.2252L48.4972 17.3602ZM47.6022 20.9802L45.8872 20.4002C45.4857 20.7402 45.0269 21.0061 44.5322 21.1852L44.1772 22.9802H41.8172L41.4622 21.2052C40.9714 21.021 40.5151 20.7556 40.1122 20.4202L38.3922 20.9802L37.2122 18.9802L38.5722 17.7802C38.4797 17.2626 38.4797 16.7328 38.5722 16.2152L37.2122 14.9802L38.3922 12.9802L40.1072 13.5602C40.5087 13.2201 40.9675 12.9543 41.4622 12.7752L41.8172 10.9802H44.1772L44.5322 12.7552C45.023 12.9394 45.4793 13.2048 45.8822 13.5402L47.6022 12.9802L48.7822 14.9802L47.4222 16.1802C47.5146 16.6978 47.5146 17.2276 47.4222 17.7452L48.7822 18.9802L47.6022 20.9802Z" fill="#F1F8FF" fill-opacity="0.7"/>
<path d="M42.9971 19.9802C42.4037 19.9802 41.8237 19.8043 41.3304 19.4746C40.837 19.145 40.4525 18.6765 40.2254 18.1283C39.9984 17.5801 39.939 16.9769 40.0547 16.395C40.1705 15.813 40.4562 15.2785 40.8758 14.8589C41.2953 14.4393 41.8299 14.1536 42.4118 14.0379C42.9937 13.9221 43.5969 13.9815 44.1451 14.2086C44.6933 14.4357 45.1618 14.8202 45.4915 15.3135C45.8211 15.8069 45.9971 16.3869 45.9971 16.9802C46.0011 17.3753 45.9262 17.7672 45.7769 18.133C45.6275 18.4988 45.4067 18.8311 45.1273 19.1105C44.848 19.3899 44.5156 19.6107 44.1499 19.76C43.7841 19.9094 43.3922 19.9842 42.9971 19.9802ZM42.9971 14.9802C42.7327 14.9741 42.4699 15.0216 42.2245 15.1199C41.979 15.2183 41.7561 15.3653 41.5691 15.5523C41.3822 15.7393 41.2351 15.9622 41.1368 16.2076C41.0384 16.4531 40.9909 16.7159 40.9971 16.9802C40.9909 17.2446 41.0384 17.5074 41.1368 17.7528C41.2351 17.9983 41.3822 18.2212 41.5691 18.4081C41.7561 18.5951 41.979 18.7422 42.2245 18.8405C42.4699 18.9389 42.7327 18.9864 42.9971 18.9802C43.2614 18.9864 43.5242 18.9389 43.7697 18.8405C44.0151 18.7422 44.238 18.5951 44.425 18.4081C44.612 18.2212 44.759 17.9983 44.8574 17.7528C44.9557 17.5074 45.0032 17.2446 44.9971 16.9802C45.0032 16.7159 44.9557 16.4531 44.8574 16.2076C44.759 15.9622 44.612 15.7393 44.425 15.5523C44.238 15.3653 44.0151 15.2183 43.7697 15.1199C43.5242 15.0216 43.2614 14.9741 42.9971 14.9802Z" fill="#F1F8FF" fill-opacity="0.7"/>
<path d="M23.844 46.0373C23.3307 46.0373 22.8687 45.9493 22.458 45.7733C22.0473 45.59 21.7247 45.3333 21.49 45.0033C21.2553 44.6733 21.138 44.2883 21.138 43.8483H22.48C22.5093 44.1783 22.6377 44.4497 22.865 44.6623C23.0997 44.875 23.426 44.9813 23.844 44.9813C24.2767 44.9813 24.614 44.8787 24.856 44.6733C25.098 44.4607 25.219 44.1893 25.219 43.8593C25.219 43.6027 25.142 43.3937 24.988 43.2323C24.8413 43.071 24.6543 42.9463 24.427 42.8583C24.207 42.7703 23.899 42.675 23.503 42.5723C23.0043 42.4403 22.5973 42.3083 22.282 42.1763C21.974 42.037 21.71 41.8243 21.49 41.5383C21.27 41.2523 21.16 40.871 21.16 40.3943C21.16 39.9543 21.27 39.5693 21.49 39.2393C21.71 38.9093 22.018 38.6563 22.414 38.4803C22.81 38.3043 23.2683 38.2163 23.789 38.2163C24.5297 38.2163 25.1347 38.4033 25.604 38.7773C26.0807 39.144 26.3447 39.65 26.396 40.2953H25.01C24.988 40.0167 24.856 39.7783 24.614 39.5803C24.372 39.3823 24.053 39.2833 23.657 39.2833C23.2977 39.2833 23.0043 39.375 22.777 39.5583C22.5497 39.7417 22.436 40.0057 22.436 40.3503C22.436 40.585 22.5057 40.7793 22.645 40.9333C22.7917 41.08 22.975 41.1973 23.195 41.2853C23.415 41.3733 23.7157 41.4687 24.097 41.5713C24.603 41.7107 25.0137 41.85 25.329 41.9893C25.6517 42.1287 25.923 42.345 26.143 42.6383C26.3703 42.9243 26.484 43.3093 26.484 43.7933C26.484 44.182 26.3777 44.5487 26.165 44.8933C25.9597 45.238 25.6553 45.5167 25.252 45.7293C24.856 45.9347 24.3867 46.0373 23.844 46.0373ZM33.5187 42.7813C33.5187 43.0087 33.504 43.214 33.4747 43.3973H28.8437C28.8803 43.8813 29.06 44.27 29.3827 44.5633C29.7053 44.8567 30.1013 45.0033 30.5707 45.0033C31.2453 45.0033 31.722 44.721 32.0007 44.1563H33.3537C33.1703 44.7137 32.8367 45.172 32.3527 45.5313C31.876 45.8833 31.282 46.0593 30.5707 46.0593C29.9913 46.0593 29.4707 45.931 29.0087 45.6743C28.554 45.4103 28.1947 45.0437 27.9307 44.5743C27.674 44.0977 27.5457 43.5477 27.5457 42.9243C27.5457 42.301 27.6703 41.7547 27.9197 41.2853C28.1763 40.8087 28.532 40.442 28.9867 40.1853C29.4487 39.9287 29.9767 39.8003 30.5707 39.8003C31.1427 39.8003 31.6523 39.925 32.0997 40.1743C32.547 40.4237 32.8953 40.7757 33.1447 41.2303C33.394 41.6777 33.5187 42.1947 33.5187 42.7813ZM32.2097 42.3853C32.2023 41.9233 32.0373 41.553 31.7147 41.2743C31.392 40.9957 30.9923 40.8563 30.5157 40.8563C30.083 40.8563 29.7127 40.9957 29.4047 41.2743C29.0967 41.5457 28.9133 41.916 28.8547 42.3853H32.2097ZM36.2157 40.9223V44.2773C36.2157 44.5047 36.2671 44.6697 36.3697 44.7723C36.4797 44.8677 36.6631 44.9153 36.9197 44.9153H37.6897V45.9603H36.6997C36.1351 45.9603 35.7024 45.8283 35.4017 45.5643C35.1011 45.3003 34.9507 44.8713 34.9507 44.2773V40.9223H34.2357V39.8993H34.9507V38.3923H36.2157V39.8993H37.6897V40.9223H36.2157ZM40.3085 40.9223V44.2773C40.3085 44.5047 40.3598 44.6697 40.4625 44.7723C40.5725 44.8677 40.7558 44.9153 41.0125 44.9153H41.7825V45.9603H40.7925C40.2278 45.9603 39.7952 45.8283 39.4945 45.5643C39.1938 45.3003 39.0435 44.8713 39.0435 44.2773V40.9223H38.3285V39.8993H39.0435V38.3923H40.3085V39.8993H41.7825V40.9223H40.3085ZM43.5763 39.0963C43.3489 39.0963 43.1583 39.0193 43.0043 38.8653C42.8503 38.7113 42.7733 38.5207 42.7733 38.2933C42.7733 38.066 42.8503 37.8753 43.0043 37.7213C43.1583 37.5673 43.3489 37.4903 43.5763 37.4903C43.7963 37.4903 43.9833 37.5673 44.1373 37.7213C44.2913 37.8753 44.3683 38.066 44.3683 38.2933C44.3683 38.5207 44.2913 38.7113 44.1373 38.8653C43.9833 39.0193 43.7963 39.0963 43.5763 39.0963ZM44.1923 39.8993V45.9603H42.9383V39.8993H44.1923ZM48.8967 39.8003C49.3733 39.8003 49.7987 39.8993 50.1727 40.0973C50.554 40.2953 50.851 40.5887 51.0637 40.9773C51.2763 41.366 51.3827 41.8353 51.3827 42.3853V45.9603H50.1397V42.5723C50.1397 42.0297 50.004 41.6153 49.7327 41.3293C49.4613 41.036 49.091 40.8893 48.6217 40.8893C48.1523 40.8893 47.7783 41.036 47.4997 41.3293C47.2283 41.6153 47.0927 42.0297 47.0927 42.5723V45.9603H45.8387V39.8993H47.0927V40.5923C47.298 40.343 47.5583 40.1487 47.8737 40.0093C48.1963 39.87 48.5373 39.8003 48.8967 39.8003ZM55.4242 39.8003C55.8936 39.8003 56.3079 39.8957 56.6672 40.0863C57.0339 40.2697 57.3199 40.5007 57.5252 40.7793V39.8993H58.7902V46.0593C58.7902 46.6167 58.6729 47.1117 58.4382 47.5443C58.2036 47.9843 57.8626 48.329 57.4152 48.5783C56.9752 48.8277 56.4472 48.9523 55.8312 48.9523C55.0099 48.9523 54.3279 48.758 53.7852 48.3693C53.2426 47.988 52.9346 47.4673 52.8612 46.8073H54.1042C54.1996 47.1227 54.4012 47.3757 54.7092 47.5663C55.0246 47.7643 55.3986 47.8633 55.8312 47.8633C56.3372 47.8633 56.7442 47.7093 57.0522 47.4013C57.3676 47.0933 57.5252 46.646 57.5252 46.0593V45.0473C57.3126 45.3333 57.0229 45.5753 56.6562 45.7733C56.2969 45.964 55.8862 46.0593 55.4242 46.0593C54.8962 46.0593 54.4122 45.9273 53.9722 45.6633C53.5396 45.392 53.1949 45.018 52.9382 44.5413C52.6889 44.0573 52.5642 43.511 52.5642 42.9023C52.5642 42.2937 52.6889 41.7547 52.9382 41.2853C53.1949 40.816 53.5396 40.453 53.9722 40.1963C54.4122 39.9323 54.8962 39.8003 55.4242 39.8003ZM57.5252 42.9243C57.5252 42.5063 57.4372 42.1433 57.2612 41.8353C57.0926 41.5273 56.8689 41.2927 56.5902 41.1313C56.3116 40.97 56.0109 40.8893 55.6882 40.8893C55.3656 40.8893 55.0649 40.97 54.7862 41.1313C54.5076 41.2853 54.2802 41.5163 54.1042 41.8243C53.9356 42.125 53.8512 42.4843 53.8512 42.9023C53.8512 43.3203 53.9356 43.687 54.1042 44.0023C54.2802 44.3177 54.5076 44.5597 54.7862 44.7283C55.0722 44.8897 55.3729 44.9703 55.6882 44.9703C56.0109 44.9703 56.3116 44.8897 56.5902 44.7283C56.8689 44.567 57.0926 44.3323 57.2612 44.0243C57.4372 43.709 57.5252 43.3423 57.5252 42.9243ZM62.6373 46.0593C62.1606 46.0593 61.7316 45.975 61.3503 45.8063C60.9763 45.6303 60.6793 45.3957 60.4593 45.1023C60.2393 44.8017 60.122 44.468 60.1073 44.1013H61.4053C61.4273 44.358 61.5483 44.5743 61.7683 44.7503C61.9956 44.919 62.278 45.0033 62.6153 45.0033C62.9673 45.0033 63.2386 44.9373 63.4293 44.8053C63.6273 44.666 63.7263 44.49 63.7263 44.2773C63.7263 44.05 63.6163 43.8813 63.3963 43.7713C63.1836 43.6613 62.8426 43.5403 62.3733 43.4083C61.9186 43.2837 61.5483 43.1627 61.2623 43.0453C60.9763 42.928 60.727 42.7483 60.5143 42.5063C60.309 42.2643 60.2063 41.9453 60.2063 41.5493C60.2063 41.2267 60.3016 40.9333 60.4923 40.6693C60.683 40.398 60.9543 40.1853 61.3063 40.0313C61.6656 39.8773 62.0763 39.8003 62.5383 39.8003C63.2276 39.8003 63.7813 39.9763 64.1993 40.3283C64.6246 40.673 64.852 41.146 64.8813 41.7473H63.6273C63.6053 41.476 63.4953 41.2597 63.2973 41.0983C63.0993 40.937 62.8316 40.8563 62.4943 40.8563C62.1643 40.8563 61.9113 40.9187 61.7353 41.0433C61.5593 41.168 61.4713 41.333 61.4713 41.5383C61.4713 41.6997 61.53 41.8353 61.6473 41.9453C61.7646 42.0553 61.9076 42.1433 62.0763 42.2093C62.245 42.268 62.4943 42.345 62.8243 42.4403C63.2643 42.5577 63.6236 42.6787 63.9023 42.8033C64.1883 42.9207 64.434 43.0967 64.6393 43.3313C64.8446 43.566 64.951 43.8777 64.9583 44.2663C64.9583 44.611 64.863 44.919 64.6723 45.1903C64.4816 45.4617 64.2103 45.6743 63.8583 45.8283C63.5136 45.9823 63.1066 46.0593 62.6373 46.0593Z" fill="#F1F8FF" fill-opacity="0.7"/>
</svg>
