<svg width="85" height="61" viewBox="0 0 85 61" fill="none" xmlns="http://www.w3.org/2000/svg">
<path d="M47.9974 17.3602V16.9802V16.5952L48.9574 15.7552C49.1344 15.5992 49.2505 15.3857 49.2853 15.1524C49.3201 14.9191 49.2712 14.681 49.1474 14.4802L47.9674 12.4802C47.8798 12.3283 47.7537 12.2022 47.6019 12.1144C47.45 12.0267 47.2778 11.9804 47.1024 11.9802C46.9938 11.9794 46.8857 11.9962 46.7824 12.0302L45.5674 12.4402C45.3577 12.3008 45.1389 12.1755 44.9124 12.0652L44.6574 10.8052C44.6117 10.575 44.4865 10.3682 44.3037 10.221C44.1208 10.0739 43.8921 9.99569 43.6574 10.0002H41.3174C41.0828 9.99569 40.854 10.0739 40.6712 10.221C40.4884 10.3682 40.3632 10.575 40.3174 10.8052L40.0624 12.0652C39.8344 12.1755 39.6139 12.3008 39.4024 12.4402L38.2124 12.0102C38.1081 11.983 38 11.9729 37.8924 11.9802C37.7171 11.9804 37.5448 12.0267 37.393 12.1144C37.2412 12.2022 37.1151 12.3283 37.0274 12.4802L35.8474 14.4802C35.7307 14.6807 35.6874 14.9155 35.7248 15.1445C35.7622 15.3734 35.878 15.5822 36.0524 15.7352L36.9974 16.6002V17.3652L36.0524 18.2052C35.8731 18.3592 35.7541 18.5717 35.7165 18.8052C35.679 19.0386 35.7254 19.2777 35.8474 19.4802L37.0274 21.4802C37.1151 21.6321 37.2412 21.7582 37.393 21.846C37.5448 21.9337 37.7171 21.98 37.8924 21.9802C38.0011 21.981 38.1092 21.9641 38.2124 21.9302L39.4274 21.5202C39.6372 21.6596 39.856 21.7849 40.0824 21.8952L40.3374 23.1552C40.3832 23.3854 40.5084 23.5922 40.6912 23.7393C40.874 23.8865 41.1028 23.9647 41.3374 23.9602H43.6974C43.9321 23.9647 44.1608 23.8865 44.3437 23.7393C44.5265 23.5922 44.6517 23.3854 44.6974 23.1552L44.9524 21.8952C45.1805 21.7849 45.401 21.6596 45.6124 21.5202L46.8224 21.9302C46.9257 21.9641 47.0338 21.981 47.1424 21.9802C47.3178 21.98 47.49 21.9337 47.6419 21.846C47.7937 21.7582 47.9198 21.6321 48.0074 21.4802L49.1474 19.4802C49.2641 19.2797 49.3075 19.0449 49.2701 18.8159C49.2327 18.5869 49.1169 18.3781 48.9424 18.2252L47.9974 17.3602ZM47.1024 20.9802L45.3874 20.4002C44.986 20.7402 44.5271 21.0061 44.0324 21.1852L43.6774 22.9802H41.3174L40.9624 21.2052C40.4717 21.021 40.0153 20.7556 39.6124 20.4202L37.8924 20.9802L36.7124 18.9802L38.0724 17.7802C37.98 17.2626 37.98 16.7328 38.0724 16.2152L36.7124 14.9802L37.8924 12.9802L39.6074 13.5602C40.0089 13.2201 40.4677 12.9543 40.9624 12.7752L41.3174 10.9802H43.6774L44.0324 12.7552C44.5232 12.9394 44.9796 13.2048 45.3824 13.5402L47.1024 12.9802L48.2824 14.9802L46.9224 16.1802C47.0149 16.6978 47.0149 17.2276 46.9224 17.7452L48.2824 18.9802L47.1024 20.9802Z" fill="#525252"/>
<path d="M42.4973 19.9805C41.904 19.9805 41.324 19.8045 40.8306 19.4749C40.3373 19.1452 39.9527 18.6767 39.7257 18.1285C39.4986 17.5803 39.4392 16.9771 39.555 16.3952C39.6707 15.8133 39.9564 15.2787 40.376 14.8591C40.7956 14.4396 41.3301 14.1539 41.912 14.0381C42.494 13.9224 43.0972 13.9818 43.6454 14.2088C44.1935 14.4359 44.6621 14.8204 44.9917 15.3138C45.3214 15.8071 45.4973 16.3871 45.4973 16.9805C45.5013 17.3756 45.4265 17.7675 45.2771 18.1332C45.1278 18.499 44.907 18.8314 44.6276 19.1107C44.3482 19.3901 44.0159 19.6109 43.6501 19.7603C43.2843 19.9096 42.8924 19.9845 42.4973 19.9805ZM42.4973 14.9805C42.233 14.9743 41.9702 15.0218 41.7247 15.1202C41.4793 15.2185 41.2563 15.3656 41.0694 15.5525C40.8824 15.7395 40.7353 15.9624 40.637 16.2079C40.5387 16.4533 40.4912 16.7161 40.4973 16.9805C40.4912 17.2448 40.5387 17.5076 40.637 17.7531C40.7353 17.9985 40.8824 18.2214 41.0694 18.4084C41.2563 18.5954 41.4793 18.7424 41.7247 18.8408C41.9702 18.9391 42.233 18.9866 42.4973 18.9805C42.7616 18.9866 43.0245 18.9391 43.2699 18.8408C43.5153 18.7424 43.7383 18.5954 43.9252 18.4084C44.1122 18.2214 44.2593 17.9985 44.3576 17.7531C44.4559 17.5076 44.5035 17.2448 44.4973 16.9805C44.5035 16.7161 44.4559 16.4533 44.3576 16.2079C44.2593 15.9624 44.1122 15.7395 43.9252 15.5525C43.7383 15.3656 43.5153 15.2185 43.2699 15.1202C43.0245 15.0218 42.7616 14.9743 42.4973 14.9805Z" fill="#525252"/>
<path d="M23.344 46.0374C22.8307 46.0374 22.3687 45.9494 21.958 45.7734C21.5473 45.5901 21.2247 45.3334 20.99 45.0034C20.7553 44.6734 20.638 44.2884 20.638 43.8484H21.98C22.0093 44.1784 22.1377 44.4498 22.365 44.6624C22.5997 44.8751 22.926 44.9814 23.344 44.9814C23.7767 44.9814 24.114 44.8788 24.356 44.6734C24.598 44.4608 24.719 44.1894 24.719 43.8594C24.719 43.6028 24.642 43.3938 24.488 43.2324C24.3413 43.0711 24.1543 42.9464 23.927 42.8584C23.707 42.7704 23.399 42.6751 23.003 42.5724C22.5043 42.4404 22.0973 42.3084 21.782 42.1764C21.474 42.0371 21.21 41.8244 20.99 41.5384C20.77 41.2524 20.66 40.8711 20.66 40.3944C20.66 39.9544 20.77 39.5694 20.99 39.2394C21.21 38.9094 21.518 38.6564 21.914 38.4804C22.31 38.3044 22.7683 38.2164 23.289 38.2164C24.0297 38.2164 24.6347 38.4034 25.104 38.7774C25.5807 39.1441 25.8447 39.6501 25.896 40.2954H24.51C24.488 40.0168 24.356 39.7784 24.114 39.5804C23.872 39.3824 23.553 39.2834 23.157 39.2834C22.7977 39.2834 22.5043 39.3751 22.277 39.5584C22.0497 39.7418 21.936 40.0058 21.936 40.3504C21.936 40.5851 22.0057 40.7794 22.145 40.9334C22.2917 41.0801 22.475 41.1974 22.695 41.2854C22.915 41.3734 23.2157 41.4688 23.597 41.5714C24.103 41.7108 24.5137 41.8501 24.829 41.9894C25.1517 42.1288 25.423 42.3451 25.643 42.6384C25.8703 42.9244 25.984 43.3094 25.984 43.7934C25.984 44.1821 25.8777 44.5488 25.665 44.8934C25.4597 45.2381 25.1553 45.5168 24.752 45.7294C24.356 45.9348 23.8867 46.0374 23.344 46.0374ZM33.0187 42.7814C33.0187 43.0088 33.004 43.2141 32.9747 43.3974H28.3437C28.3803 43.8814 28.56 44.2701 28.8827 44.5634C29.2053 44.8568 29.6013 45.0034 30.0707 45.0034C30.7453 45.0034 31.222 44.7211 31.5007 44.1564H32.8537C32.6703 44.7138 32.3367 45.1721 31.8527 45.5314C31.376 45.8834 30.782 46.0594 30.0707 46.0594C29.4913 46.0594 28.9707 45.9311 28.5087 45.6744C28.054 45.4104 27.6947 45.0438 27.4307 44.5744C27.174 44.0978 27.0457 43.5478 27.0457 42.9244C27.0457 42.3011 27.1703 41.7548 27.4197 41.2854C27.6763 40.8088 28.032 40.4421 28.4867 40.1854C28.9487 39.9288 29.4767 39.8004 30.0707 39.8004C30.6427 39.8004 31.1523 39.9251 31.5997 40.1744C32.047 40.4238 32.3953 40.7758 32.6447 41.2304C32.894 41.6778 33.0187 42.1948 33.0187 42.7814ZM31.7097 42.3854C31.7023 41.9234 31.5373 41.5531 31.2147 41.2744C30.892 40.9958 30.4923 40.8564 30.0157 40.8564C29.583 40.8564 29.2127 40.9958 28.9047 41.2744C28.5967 41.5458 28.4133 41.9161 28.3547 42.3854H31.7097ZM35.7157 40.9224V44.2774C35.7157 44.5048 35.7671 44.6698 35.8697 44.7724C35.9797 44.8678 36.1631 44.9154 36.4197 44.9154H37.1897V45.9604H36.1997C35.6351 45.9604 35.2024 45.8284 34.9017 45.5644C34.6011 45.3004 34.4507 44.8714 34.4507 44.2774V40.9224H33.7357V39.8994H34.4507V38.3924H35.7157V39.8994H37.1897V40.9224H35.7157ZM39.8085 40.9224V44.2774C39.8085 44.5048 39.8598 44.6698 39.9625 44.7724C40.0725 44.8678 40.2558 44.9154 40.5125 44.9154H41.2825V45.9604H40.2925C39.7278 45.9604 39.2952 45.8284 38.9945 45.5644C38.6938 45.3004 38.5435 44.8714 38.5435 44.2774V40.9224H37.8285V39.8994H38.5435V38.3924H39.8085V39.8994H41.2825V40.9224H39.8085ZM43.0763 39.0964C42.8489 39.0964 42.6583 39.0194 42.5043 38.8654C42.3503 38.7114 42.2733 38.5208 42.2733 38.2934C42.2733 38.0661 42.3503 37.8754 42.5043 37.7214C42.6583 37.5674 42.8489 37.4904 43.0763 37.4904C43.2963 37.4904 43.4833 37.5674 43.6373 37.7214C43.7913 37.8754 43.8683 38.0661 43.8683 38.2934C43.8683 38.5208 43.7913 38.7114 43.6373 38.8654C43.4833 39.0194 43.2963 39.0964 43.0763 39.0964ZM43.6923 39.8994V45.9604H42.4383V39.8994H43.6923ZM48.3967 39.8004C48.8733 39.8004 49.2987 39.8994 49.6727 40.0974C50.054 40.2954 50.351 40.5888 50.5637 40.9774C50.7763 41.3661 50.8827 41.8354 50.8827 42.3854V45.9604H49.6397V42.5724C49.6397 42.0298 49.504 41.6154 49.2327 41.3294C48.9613 41.0361 48.591 40.8894 48.1217 40.8894C47.6523 40.8894 47.2783 41.0361 46.9997 41.3294C46.7283 41.6154 46.5927 42.0298 46.5927 42.5724V45.9604H45.3387V39.8994H46.5927V40.5924C46.798 40.3431 47.0583 40.1488 47.3737 40.0094C47.6963 39.8701 48.0373 39.8004 48.3967 39.8004ZM54.9242 39.8004C55.3936 39.8004 55.8079 39.8958 56.1672 40.0864C56.5339 40.2698 56.8199 40.5008 57.0252 40.7794V39.8994H58.2902V46.0594C58.2902 46.6168 58.1729 47.1118 57.9382 47.5444C57.7036 47.9844 57.3626 48.3291 56.9152 48.5784C56.4752 48.8278 55.9472 48.9524 55.3312 48.9524C54.5099 48.9524 53.8279 48.7581 53.2852 48.3694C52.7426 47.9881 52.4346 47.4674 52.3612 46.8074H53.6042C53.6996 47.1228 53.9012 47.3758 54.2092 47.5664C54.5246 47.7644 54.8986 47.8634 55.3312 47.8634C55.8372 47.8634 56.2442 47.7094 56.5522 47.4014C56.8676 47.0934 57.0252 46.6461 57.0252 46.0594V45.0474C56.8126 45.3334 56.5229 45.5754 56.1562 45.7734C55.7969 45.9641 55.3862 46.0594 54.9242 46.0594C54.3962 46.0594 53.9122 45.9274 53.4722 45.6634C53.0396 45.3921 52.6949 45.0181 52.4382 44.5414C52.1889 44.0574 52.0642 43.5111 52.0642 42.9024C52.0642 42.2938 52.1889 41.7548 52.4382 41.2854C52.6949 40.8161 53.0396 40.4531 53.4722 40.1964C53.9122 39.9324 54.3962 39.8004 54.9242 39.8004ZM57.0252 42.9244C57.0252 42.5064 56.9372 42.1434 56.7612 41.8354C56.5926 41.5274 56.3689 41.2928 56.0902 41.1314C55.8116 40.9701 55.5109 40.8894 55.1882 40.8894C54.8656 40.8894 54.5649 40.9701 54.2862 41.1314C54.0076 41.2854 53.7802 41.5164 53.6042 41.8244C53.4356 42.1251 53.3512 42.4844 53.3512 42.9024C53.3512 43.3204 53.4356 43.6871 53.6042 44.0024C53.7802 44.3178 54.0076 44.5598 54.2862 44.7284C54.5722 44.8898 54.8729 44.9704 55.1882 44.9704C55.5109 44.9704 55.8116 44.8898 56.0902 44.7284C56.3689 44.5671 56.5926 44.3324 56.7612 44.0244C56.9372 43.7091 57.0252 43.3424 57.0252 42.9244ZM62.1373 46.0594C61.6606 46.0594 61.2316 45.9751 60.8503 45.8064C60.4763 45.6304 60.1793 45.3958 59.9593 45.1024C59.7393 44.8018 59.622 44.4681 59.6073 44.1014H60.9053C60.9273 44.3581 61.0483 44.5744 61.2683 44.7504C61.4956 44.9191 61.778 45.0034 62.1153 45.0034C62.4673 45.0034 62.7386 44.9374 62.9293 44.8054C63.1273 44.6661 63.2263 44.4901 63.2263 44.2774C63.2263 44.0501 63.1163 43.8814 62.8963 43.7714C62.6836 43.6614 62.3426 43.5404 61.8733 43.4084C61.4186 43.2838 61.0483 43.1628 60.7623 43.0454C60.4763 42.9281 60.227 42.7484 60.0143 42.5064C59.809 42.2644 59.7063 41.9454 59.7063 41.5494C59.7063 41.2268 59.8016 40.9334 59.9923 40.6694C60.183 40.3981 60.4543 40.1854 60.8063 40.0314C61.1656 39.8774 61.5763 39.8004 62.0383 39.8004C62.7276 39.8004 63.2813 39.9764 63.6993 40.3284C64.1246 40.6731 64.352 41.1461 64.3813 41.7474H63.1273C63.1053 41.4761 62.9953 41.2598 62.7973 41.0984C62.5993 40.9371 62.3316 40.8564 61.9943 40.8564C61.6643 40.8564 61.4113 40.9188 61.2353 41.0434C61.0593 41.1681 60.9713 41.3331 60.9713 41.5384C60.9713 41.6998 61.03 41.8354 61.1473 41.9454C61.2646 42.0554 61.4076 42.1434 61.5763 42.2094C61.745 42.2681 61.9943 42.3451 62.3243 42.4404C62.7643 42.5578 63.1236 42.6788 63.4023 42.8034C63.6883 42.9208 63.934 43.0968 64.1393 43.3314C64.3446 43.5661 64.451 43.8778 64.4583 44.2664C64.4583 44.6111 64.363 44.9191 64.1723 45.1904C63.9816 45.4618 63.7103 45.6744 63.3583 45.8284C63.0136 45.9824 62.6066 46.0594 62.1373 46.0594Z" fill="#525252"/>
</svg>
