<svg width="1056" height="323" viewBox="0 0 1056 323" fill="none" xmlns="http://www.w3.org/2000/svg">
<g filter="url(#filter0_d_97_1159)">
<rect x="4" y="4" width="1048" height="315" rx="10" fill="white" shape-rendering="crispEdges"/>
<rect x="35.5" y="43.5" width="40" height="40" rx="20" fill="#00CC66"/>
<path d="M55.5003 62.6667C54.6163 62.6667 53.7684 62.3155 53.1433 61.6904C52.5182 61.0652 52.167 60.2174 52.167 59.3333C52.167 58.4493 52.5182 57.6014 53.1433 56.9763C53.7684 56.3512 54.6163 56 55.5003 56C56.3844 56 57.2322 56.3512 57.8573 56.9763C58.4825 57.6014 58.8337 58.4493 58.8337 59.3333C58.8337 60.2174 58.4825 61.0652 57.8573 61.6904C57.2322 62.3155 56.3844 62.6667 55.5003 62.6667Z" stroke="white" stroke-width="2" stroke-linecap="round"/>
<path d="M48.8335 71.0001V70.1667C48.8335 68.8407 49.3603 67.5689 50.298 66.6312C51.2356 65.6935 52.5074 65.1667 53.8335 65.1667H57.1668C58.4929 65.1667 59.7647 65.6935 60.7024 66.6312C61.64 67.5689 62.1668 68.8407 62.1668 70.1667V71.0001" stroke="white" stroke-width="2" stroke-linecap="round"/>
<path d="M93.884 40.88V42.368H90.924V52H89.1V42.368H86.124V40.88H93.884ZM99.5553 52.144C98.7233 52.144 97.9713 51.9573 97.2993 51.584C96.6273 51.2 96.0993 50.6667 95.7153 49.984C95.3313 49.2907 95.1393 48.4907 95.1393 47.584C95.1393 46.688 95.3366 45.8933 95.7313 45.2C96.1259 44.5067 96.6646 43.9733 97.3473 43.6C98.0299 43.2267 98.7926 43.04 99.6353 43.04C100.478 43.04 101.241 43.2267 101.923 43.6C102.606 43.9733 103.145 44.5067 103.539 45.2C103.934 45.8933 104.131 46.688 104.131 47.584C104.131 48.48 103.929 49.2747 103.523 49.968C103.118 50.6613 102.563 51.2 101.859 51.584C101.166 51.9573 100.398 52.144 99.5553 52.144ZM99.5553 50.56C100.025 50.56 100.462 50.448 100.867 50.224C101.283 50 101.619 49.664 101.875 49.216C102.131 48.768 102.259 48.224 102.259 47.584C102.259 46.944 102.137 46.4053 101.891 45.968C101.646 45.52 101.321 45.184 100.915 44.96C100.51 44.736 100.073 44.624 99.6033 44.624C99.1339 44.624 98.6966 44.736 98.2913 44.96C97.8966 45.184 97.5819 45.52 97.3473 45.968C97.1126 46.4053 96.9953 46.944 96.9953 47.584C96.9953 48.5333 97.2353 49.2693 97.7153 49.792C98.2059 50.304 98.8193 50.56 99.5553 50.56ZM108.062 44.672V49.552C108.062 49.8827 108.137 50.1227 108.286 50.272C108.446 50.4107 108.713 50.48 109.086 50.48H110.206V52H108.766C107.945 52 107.316 51.808 106.878 51.424C106.441 51.04 106.222 50.416 106.222 49.552V44.672H105.182V43.184H106.222V40.992H108.062V43.184H110.206V44.672H108.062ZM111.28 47.552C111.28 46.6667 111.461 45.8827 111.824 45.2C112.197 44.5173 112.698 43.9893 113.328 43.616C113.968 43.232 114.672 43.04 115.44 43.04C116.133 43.04 116.736 43.1787 117.248 43.456C117.77 43.7227 118.186 44.0587 118.496 44.464V43.184H120.336V52H118.496V50.688C118.186 51.104 117.765 51.4507 117.232 51.728C116.698 52.0053 116.09 52.144 115.408 52.144C114.65 52.144 113.957 51.952 113.328 51.568C112.698 51.1733 112.197 50.6293 111.824 49.936C111.461 49.232 111.28 48.4373 111.28 47.552ZM118.496 47.584C118.496 46.976 118.368 46.448 118.112 46C117.866 45.552 117.541 45.2107 117.136 44.976C116.73 44.7413 116.293 44.624 115.824 44.624C115.354 44.624 114.917 44.7413 114.512 44.976C114.106 45.2 113.776 45.536 113.52 45.984C113.274 46.4213 113.152 46.944 113.152 47.552C113.152 48.16 113.274 48.6933 113.52 49.152C113.776 49.6107 114.106 49.9627 114.512 50.208C114.928 50.4427 115.365 50.56 115.824 50.56C116.293 50.56 116.73 50.4427 117.136 50.208C117.541 49.9733 117.866 49.632 118.112 49.184C118.368 48.7253 118.496 48.192 118.496 47.584ZM124.555 40.16V52H122.731V40.16H124.555ZM132.914 40.88V47.968C132.914 48.8107 133.133 49.4453 133.57 49.872C134.018 50.2987 134.637 50.512 135.426 50.512C136.226 50.512 136.845 50.2987 137.282 49.872C137.73 49.4453 137.954 48.8107 137.954 47.968V40.88H139.778V47.936C139.778 48.8427 139.581 49.6107 139.186 50.24C138.792 50.8693 138.264 51.3387 137.602 51.648C136.941 51.9573 136.21 52.112 135.41 52.112C134.61 52.112 133.88 51.9573 133.218 51.648C132.568 51.3387 132.05 50.8693 131.666 50.24C131.282 49.6107 131.09 48.8427 131.09 47.936V40.88H132.914ZM145.353 52.144C144.66 52.144 144.036 52.0213 143.481 51.776C142.937 51.52 142.505 51.1787 142.185 50.752C141.865 50.3147 141.694 49.8293 141.673 49.296H143.561C143.593 49.6693 143.769 49.984 144.089 50.24C144.42 50.4853 144.83 50.608 145.321 50.608C145.833 50.608 146.228 50.512 146.505 50.32C146.793 50.1173 146.937 49.8613 146.937 49.552C146.937 49.2213 146.777 48.976 146.457 48.816C146.148 48.656 145.652 48.48 144.969 48.288C144.308 48.1067 143.769 47.9307 143.353 47.76C142.937 47.5893 142.574 47.328 142.265 46.976C141.966 46.624 141.817 46.16 141.817 45.584C141.817 45.1147 141.956 44.688 142.233 44.304C142.51 43.9093 142.905 43.6 143.417 43.376C143.94 43.152 144.537 43.04 145.209 43.04C146.212 43.04 147.017 43.296 147.625 43.808C148.244 44.3093 148.574 44.9973 148.617 45.872H146.793C146.761 45.4773 146.601 45.1627 146.313 44.928C146.025 44.6933 145.636 44.576 145.145 44.576C144.665 44.576 144.297 44.6667 144.041 44.848C143.785 45.0293 143.657 45.2693 143.657 45.568C143.657 45.8027 143.742 46 143.913 46.16C144.084 46.32 144.292 46.448 144.537 46.544C144.782 46.6293 145.145 46.7413 145.625 46.88C146.265 47.0507 146.788 47.2267 147.193 47.408C147.609 47.5787 147.966 47.8347 148.265 48.176C148.564 48.5173 148.718 48.9707 148.729 49.536C148.729 50.0373 148.59 50.4853 148.313 50.88C148.036 51.2747 147.641 51.584 147.129 51.808C146.628 52.032 146.036 52.144 145.353 52.144ZM158.78 47.376C158.78 47.7067 158.759 48.0053 158.716 48.272H151.98C152.033 48.976 152.295 49.5413 152.764 49.968C153.233 50.3947 153.809 50.608 154.492 50.608C155.473 50.608 156.167 50.1973 156.572 49.376H158.54C158.273 50.1867 157.788 50.8533 157.084 51.376C156.391 51.888 155.527 52.144 154.492 52.144C153.649 52.144 152.892 51.9573 152.22 51.584C151.559 51.2 151.036 50.6667 150.652 49.984C150.279 49.2907 150.092 48.4907 150.092 47.584C150.092 46.6773 150.273 45.8827 150.636 45.2C151.009 44.5067 151.527 43.9733 152.188 43.6C152.86 43.2267 153.628 43.04 154.492 43.04C155.324 43.04 156.065 43.2213 156.716 43.584C157.367 43.9467 157.873 44.4587 158.236 45.12C158.599 45.7707 158.78 46.5227 158.78 47.376ZM156.876 46.8C156.865 46.128 156.625 45.5893 156.156 45.184C155.687 44.7787 155.105 44.576 154.412 44.576C153.783 44.576 153.244 44.7787 152.796 45.184C152.348 45.5787 152.081 46.1173 151.996 46.8H156.876ZM162.399 44.464C162.666 44.016 163.018 43.6693 163.455 43.424C163.903 43.168 164.431 43.04 165.039 43.04V44.928H164.575C163.86 44.928 163.316 45.1093 162.943 45.472C162.58 45.8347 162.399 46.464 162.399 47.36V52H160.575V43.184H162.399V44.464ZM169.916 52.144C169.222 52.144 168.598 52.0213 168.044 51.776C167.5 51.52 167.068 51.1787 166.748 50.752C166.428 50.3147 166.257 49.8293 166.236 49.296H168.124C168.156 49.6693 168.332 49.984 168.652 50.24C168.982 50.4853 169.393 50.608 169.884 50.608C170.396 50.608 170.79 50.512 171.068 50.32C171.356 50.1173 171.5 49.8613 171.5 49.552C171.5 49.2213 171.34 48.976 171.02 48.816C170.71 48.656 170.214 48.48 169.532 48.288C168.87 48.1067 168.332 47.9307 167.916 47.76C167.5 47.5893 167.137 47.328 166.828 46.976C166.529 46.624 166.38 46.16 166.38 45.584C166.38 45.1147 166.518 44.688 166.796 44.304C167.073 43.9093 167.468 43.6 167.98 43.376C168.502 43.152 169.1 43.04 169.772 43.04C170.774 43.04 171.58 43.296 172.188 43.808C172.806 44.3093 173.137 44.9973 173.18 45.872H171.356C171.324 45.4773 171.164 45.1627 170.876 44.928C170.588 44.6933 170.198 44.576 169.708 44.576C169.228 44.576 168.86 44.6667 168.604 44.848C168.348 45.0293 168.22 45.2693 168.22 45.568C168.22 45.8027 168.305 46 168.476 46.16C168.646 46.32 168.854 46.448 169.1 46.544C169.345 46.6293 169.708 46.7413 170.188 46.88C170.828 47.0507 171.35 47.2267 171.756 47.408C172.172 47.5787 172.529 47.8347 172.828 48.176C173.126 48.5173 173.281 48.9707 173.292 49.536C173.292 50.0373 173.153 50.4853 172.876 50.88C172.598 51.2747 172.204 51.584 171.692 51.808C171.19 52.032 170.598 52.144 169.916 52.144Z" fill="#525252"/>
<path d="M102.46 72.808H91.74V79.176C92.188 78.5787 92.8493 78.0773 93.724 77.672C94.62 77.2667 95.5693 77.064 96.572 77.064C98.364 77.064 99.8147 77.448 100.924 78.216C102.055 78.984 102.855 79.9547 103.324 81.128C103.815 82.3013 104.06 83.5387 104.06 84.84C104.06 86.4187 103.751 87.8267 103.132 89.064C102.535 90.28 101.628 91.24 100.412 91.944C99.2173 92.648 97.7453 93 95.996 93C93.6707 93 91.804 92.424 90.396 91.272C88.988 90.12 88.1453 88.5947 87.868 86.696H91.42C91.6547 87.6987 92.1773 88.4987 92.988 89.096C93.7987 89.672 94.812 89.96 96.028 89.96C97.5427 89.96 98.6733 89.5013 99.42 88.584C100.188 87.6667 100.572 86.4507 100.572 84.936C100.572 83.4 100.188 82.2267 99.42 81.416C98.652 80.584 97.5213 80.168 96.028 80.168C94.9827 80.168 94.0973 80.4347 93.372 80.968C92.668 81.48 92.156 82.184 91.836 83.08H88.38V69.608H102.46V72.808ZM111.794 80.808C109.575 79.6987 108.466 77.9493 108.466 75.56C108.466 74.408 108.754 73.352 109.33 72.392C109.906 71.432 110.77 70.6747 111.922 70.12C113.074 69.544 114.482 69.256 116.146 69.256C117.788 69.256 119.186 69.544 120.338 70.12C121.511 70.6747 122.385 71.432 122.962 72.392C123.538 73.352 123.826 74.408 123.826 75.56C123.826 76.7547 123.516 77.8107 122.898 78.728C122.3 79.624 121.5 80.3173 120.498 80.808C121.714 81.256 122.674 81.992 123.378 83.016C124.082 84.0187 124.434 85.2027 124.434 86.568C124.434 87.9547 124.082 89.1813 123.378 90.248C122.674 91.3147 121.692 92.136 120.434 92.712C119.175 93.288 117.746 93.576 116.146 93.576C114.546 93.576 113.116 93.288 111.858 92.712C110.62 92.136 109.65 91.3147 108.946 90.248C108.242 89.1813 107.89 87.9547 107.89 86.568C107.89 85.1813 108.242 83.9867 108.946 82.984C109.65 81.9813 110.599 81.256 111.794 80.808ZM120.338 76.008C120.338 74.8133 119.964 73.896 119.218 73.256C118.471 72.616 117.447 72.296 116.146 72.296C114.866 72.296 113.852 72.616 113.106 73.256C112.359 73.896 111.986 74.824 111.986 76.04C111.986 77.1067 112.37 77.9813 113.138 78.664C113.927 79.3253 114.93 79.656 116.146 79.656C117.362 79.656 118.364 79.3147 119.154 78.632C119.943 77.9493 120.338 77.0747 120.338 76.008ZM116.146 82.408C114.738 82.408 113.586 82.76 112.69 83.464C111.815 84.1467 111.378 85.1387 111.378 86.44C111.378 87.656 111.804 88.648 112.658 89.416C113.511 90.1627 114.674 90.536 116.146 90.536C117.596 90.536 118.738 90.152 119.57 89.384C120.423 88.616 120.85 87.6347 120.85 86.44C120.85 85.16 120.412 84.168 119.538 83.464C118.684 82.76 117.554 82.408 116.146 82.408Z" fill="#525252"/>
<rect x="634.5" y="40" width="40" height="40" rx="20" fill="#9FCFFF"/>
<path d="M644.5 59H649.5V61H644.5V59ZM659.5 59H664.5V61H659.5V59ZM653.5 65H655.5V70H653.5V65ZM653.5 50H655.5V55H653.5V50ZM646.722 53.636L648.136 52.222L651.672 55.758L650.258 57.172L646.722 53.636ZM662.278 66.364L660.864 67.778L657.328 64.242L658.742 62.828L662.278 66.364ZM650.258 62.828L651.672 64.242L648.136 67.778L646.722 66.364L650.258 62.828ZM657.328 55.757L660.864 52.222L662.278 53.637L658.742 57.172L657.328 55.757Z" fill="white"/>
<path d="M699.476 34.192C699.476 34.7573 699.343 35.2907 699.076 35.792C698.809 36.2933 698.383 36.704 697.796 37.024C697.209 37.3333 696.457 37.488 695.54 37.488H693.524V42H691.7V30.88H695.54C696.393 30.88 697.113 31.0293 697.7 31.328C698.297 31.616 698.74 32.0107 699.028 32.512C699.327 33.0133 699.476 33.5733 699.476 34.192ZM695.54 36C696.233 36 696.751 35.8453 697.092 35.536C697.433 35.216 697.604 34.768 697.604 34.192C697.604 32.976 696.916 32.368 695.54 32.368H693.524V36H695.54ZM709.296 37.376C709.296 37.7067 709.274 38.0053 709.232 38.272H702.496C702.549 38.976 702.81 39.5413 703.28 39.968C703.749 40.3947 704.325 40.608 705.008 40.608C705.989 40.608 706.682 40.1973 707.088 39.376H709.056C708.789 40.1867 708.304 40.8533 707.6 41.376C706.906 41.888 706.042 42.144 705.008 42.144C704.165 42.144 703.408 41.9573 702.736 41.584C702.074 41.2 701.552 40.6667 701.168 39.984C700.794 39.2907 700.608 38.4907 700.608 37.584C700.608 36.6773 700.789 35.8827 701.152 35.2C701.525 34.5067 702.042 33.9733 702.704 33.6C703.376 33.2267 704.144 33.04 705.008 33.04C705.84 33.04 706.581 33.2213 707.232 33.584C707.882 33.9467 708.389 34.4587 708.752 35.12C709.114 35.7707 709.296 36.5227 709.296 37.376ZM707.392 36.8C707.381 36.128 707.141 35.5893 706.672 35.184C706.202 34.7787 705.621 34.576 704.928 34.576C704.298 34.576 703.76 34.7787 703.312 35.184C702.864 35.5787 702.597 36.1173 702.512 36.8H707.392ZM715.539 33.04C716.232 33.04 716.851 33.184 717.395 33.472C717.949 33.76 718.381 34.1867 718.691 34.752C719 35.3173 719.155 36 719.155 36.8V42H717.347V37.072C717.347 36.2827 717.149 35.68 716.755 35.264C716.36 34.8373 715.821 34.624 715.139 34.624C714.456 34.624 713.912 34.8373 713.507 35.264C713.112 35.68 712.915 36.2827 712.915 37.072V42H711.091V33.184H712.915V34.192C713.213 33.8293 713.592 33.5467 714.051 33.344C714.52 33.1413 715.016 33.04 715.539 33.04ZM720.873 37.552C720.873 36.6667 721.055 35.8827 721.417 35.2C721.791 34.5173 722.292 33.9893 722.921 33.616C723.561 33.232 724.271 33.04 725.049 33.04C725.625 33.04 726.191 33.168 726.745 33.424C727.311 33.6693 727.759 34 728.089 34.416V30.16H729.929V42H728.089V40.672C727.791 41.0987 727.375 41.4507 726.841 41.728C726.319 42.0053 725.716 42.144 725.033 42.144C724.265 42.144 723.561 41.952 722.921 41.568C722.292 41.1733 721.791 40.6293 721.417 39.936C721.055 39.232 720.873 38.4373 720.873 37.552ZM728.089 37.584C728.089 36.976 727.961 36.448 727.705 36C727.46 35.552 727.135 35.2107 726.729 34.976C726.324 34.7413 725.887 34.624 725.417 34.624C724.948 34.624 724.511 34.7413 724.105 34.976C723.7 35.2 723.369 35.536 723.113 35.984C722.868 36.4213 722.745 36.944 722.745 37.552C722.745 38.16 722.868 38.6933 723.113 39.152C723.369 39.6107 723.7 39.9627 724.105 40.208C724.521 40.4427 724.959 40.56 725.417 40.56C725.887 40.56 726.324 40.4427 726.729 40.208C727.135 39.9733 727.46 39.632 727.705 39.184C727.961 38.7253 728.089 38.192 728.089 37.584ZM733.253 32.016C732.922 32.016 732.645 31.904 732.421 31.68C732.197 31.456 732.085 31.1787 732.085 30.848C732.085 30.5173 732.197 30.24 732.421 30.016C732.645 29.792 732.922 29.68 733.253 29.68C733.573 29.68 733.845 29.792 734.069 30.016C734.293 30.24 734.405 30.5173 734.405 30.848C734.405 31.1787 734.293 31.456 734.069 31.68C733.845 31.904 733.573 32.016 733.253 32.016ZM734.149 33.184V42H732.325V33.184H734.149ZM740.992 33.04C741.685 33.04 742.304 33.184 742.848 33.472C743.402 33.76 743.834 34.1867 744.144 34.752C744.453 35.3173 744.608 36 744.608 36.8V42H742.8V37.072C742.8 36.2827 742.602 35.68 742.208 35.264C741.813 34.8373 741.274 34.624 740.592 34.624C739.909 34.624 739.365 34.8373 738.96 35.264C738.565 35.68 738.368 36.2827 738.368 37.072V42H736.544V33.184H738.368V34.192C738.666 33.8293 739.045 33.5467 739.504 33.344C739.973 33.1413 740.469 33.04 740.992 33.04ZM750.486 33.04C751.169 33.04 751.772 33.1787 752.294 33.456C752.828 33.7227 753.244 34.0587 753.542 34.464V33.184H755.382V42.144C755.382 42.9547 755.212 43.6747 754.87 44.304C754.529 44.944 754.033 45.4453 753.382 45.808C752.742 46.1707 751.974 46.352 751.078 46.352C749.884 46.352 748.892 46.0693 748.102 45.504C747.313 44.9493 746.865 44.192 746.758 43.232H748.566C748.705 43.6907 748.998 44.0587 749.446 44.336C749.905 44.624 750.449 44.768 751.078 44.768C751.814 44.768 752.406 44.544 752.854 44.096C753.313 43.648 753.542 42.9973 753.542 42.144V40.672C753.233 41.088 752.812 41.44 752.278 41.728C751.756 42.0053 751.158 42.144 750.486 42.144C749.718 42.144 749.014 41.952 748.374 41.568C747.745 41.1733 747.244 40.6293 746.87 39.936C746.508 39.232 746.326 38.4373 746.326 37.552C746.326 36.6667 746.508 35.8827 746.87 35.2C747.244 34.5173 747.745 33.9893 748.374 33.616C749.014 33.232 749.718 33.04 750.486 33.04ZM753.542 37.584C753.542 36.976 753.414 36.448 753.158 36C752.913 35.552 752.588 35.2107 752.182 34.976C751.777 34.7413 751.34 34.624 750.87 34.624C750.401 34.624 749.964 34.7413 749.558 34.976C749.153 35.2 748.822 35.536 748.566 35.984C748.321 36.4213 748.198 36.944 748.198 37.552C748.198 38.16 748.321 38.6933 748.566 39.152C748.822 39.6107 749.153 39.9627 749.558 40.208C749.974 40.4427 750.412 40.56 750.87 40.56C751.34 40.56 751.777 40.4427 752.182 40.208C752.588 39.9733 752.913 39.632 753.158 39.184C753.414 38.7253 753.542 38.192 753.542 37.584Z" fill="#525252"/>
<path d="M694.436 78.04C696.484 76.2693 698.095 74.8187 699.268 73.688C700.463 72.536 701.455 71.3413 702.244 70.104C703.033 68.8667 703.428 67.6293 703.428 66.392C703.428 65.112 703.119 64.1093 702.5 63.384C701.903 62.6587 700.953 62.296 699.652 62.296C698.393 62.296 697.412 62.7013 696.708 63.512C696.025 64.3013 695.663 65.368 695.62 66.712H692.1C692.164 64.28 692.889 62.424 694.276 61.144C695.684 59.8427 697.465 59.192 699.62 59.192C701.945 59.192 703.759 59.832 705.06 61.112C706.383 62.392 707.044 64.0987 707.044 66.232C707.044 67.768 706.649 69.2507 705.86 70.68C705.092 72.088 704.164 73.3573 703.076 74.488C702.009 75.5973 700.644 76.888 698.98 78.36L697.54 79.64H707.684V82.68H692.132V80.024L694.436 78.04ZM710.441 78.136V75.384L721.193 59.96H725.609V74.968H728.585V78.136H725.609V83H722.025V78.136H710.441ZM722.185 63.672L714.633 74.968H722.185V63.672Z" fill="#525252"/>
<g clip-path="url(#clip0_97_1159)">
<path d="M934.5 60C934.5 66.6304 931.866 72.9893 927.178 77.6777C922.489 82.3661 916.13 85 909.5 85C902.87 85 896.511 82.3661 891.822 77.6777C887.134 72.9893 884.5 66.6304 884.5 60C884.5 53.3696 887.134 47.0107 891.822 42.3223C896.511 37.6339 902.87 35 909.5 35C916.13 35 922.489 37.6339 927.178 42.3223C931.866 47.0107 934.5 53.3696 934.5 60ZM922.094 50.5312C921.871 50.3088 921.605 50.1337 921.312 50.0163C921.02 49.8989 920.707 49.8417 920.392 49.8482C920.077 49.8546 919.766 49.9245 919.479 50.0537C919.191 50.1828 918.933 50.3687 918.719 50.6L907.866 64.4281L901.325 57.8844C900.881 57.4704 900.293 57.245 899.686 57.2557C899.079 57.2664 898.499 57.5124 898.07 57.9418C897.641 58.3712 897.395 58.9506 897.384 59.5577C897.373 60.1649 897.598 60.7526 898.012 61.1969L906.281 69.4688C906.504 69.6911 906.769 69.8663 907.061 69.9839C907.353 70.1015 907.666 70.1591 907.98 70.1533C908.295 70.1475 908.605 70.0783 908.893 69.95C909.18 69.8216 909.439 69.6367 909.653 69.4062L922.128 53.8125C922.553 53.3703 922.788 52.779 922.783 52.1655C922.777 51.552 922.531 50.9653 922.097 50.5312H922.094Z" fill="#2A8EF1"/>
</g>
<path d="M958.404 39.728H953.748L952.948 42H951.044L955.028 30.864H957.14L961.124 42H959.204L958.404 39.728ZM957.892 38.24L956.084 33.072L954.26 38.24H957.892ZM964.68 34.48C964.99 34.0747 965.411 33.7333 965.944 33.456C966.478 33.1787 967.08 33.04 967.752 33.04C968.52 33.04 969.219 33.232 969.848 33.616C970.488 33.9893 970.99 34.5173 971.352 35.2C971.715 35.8827 971.896 36.6667 971.896 37.552C971.896 38.4373 971.715 39.232 971.352 39.936C970.99 40.6293 970.488 41.1733 969.848 41.568C969.219 41.952 968.52 42.144 967.752 42.144C967.08 42.144 966.483 42.0107 965.96 41.744C965.438 41.4667 965.011 41.1253 964.68 40.72V46.192H962.856V33.184H964.68V34.48ZM970.04 37.552C970.04 36.944 969.912 36.4213 969.656 35.984C969.411 35.536 969.08 35.2 968.664 34.976C968.259 34.7413 967.822 34.624 967.352 34.624C966.894 34.624 966.456 34.7413 966.04 34.976C965.635 35.2107 965.304 35.552 965.048 36C964.803 36.448 964.68 36.976 964.68 37.584C964.68 38.192 964.803 38.7253 965.048 39.184C965.304 39.632 965.635 39.9733 966.04 40.208C966.456 40.4427 966.894 40.56 967.352 40.56C967.822 40.56 968.259 40.4427 968.664 40.208C969.08 39.9627 969.411 39.6107 969.656 39.152C969.912 38.6933 970.04 38.16 970.04 37.552ZM975.524 34.48C975.833 34.0747 976.255 33.7333 976.788 33.456C977.321 33.1787 977.924 33.04 978.596 33.04C979.364 33.04 980.063 33.232 980.692 33.616C981.332 33.9893 981.833 34.5173 982.196 35.2C982.559 35.8827 982.74 36.6667 982.74 37.552C982.74 38.4373 982.559 39.232 982.196 39.936C981.833 40.6293 981.332 41.1733 980.692 41.568C980.063 41.952 979.364 42.144 978.596 42.144C977.924 42.144 977.327 42.0107 976.804 41.744C976.281 41.4667 975.855 41.1253 975.524 40.72V46.192H973.7V33.184H975.524V34.48ZM980.884 37.552C980.884 36.944 980.756 36.4213 980.5 35.984C980.255 35.536 979.924 35.2 979.508 34.976C979.103 34.7413 978.665 34.624 978.196 34.624C977.737 34.624 977.3 34.7413 976.884 34.976C976.479 35.2107 976.148 35.552 975.892 36C975.647 36.448 975.524 36.976 975.524 37.584C975.524 38.192 975.647 38.7253 975.892 39.184C976.148 39.632 976.479 39.9733 976.884 40.208C977.3 40.4427 977.737 40.56 978.196 40.56C978.665 40.56 979.103 40.4427 979.508 40.208C979.924 39.9627 980.255 39.6107 980.5 39.152C980.756 38.6933 980.884 38.16 980.884 37.552ZM986.368 34.464C986.634 34.016 986.986 33.6693 987.424 33.424C987.872 33.168 988.4 33.04 989.008 33.04V34.928H988.544C987.829 34.928 987.285 35.1093 986.912 35.472C986.549 35.8347 986.368 36.464 986.368 37.36V42H984.544V33.184H986.368V34.464ZM994.508 42.144C993.676 42.144 992.924 41.9573 992.252 41.584C991.58 41.2 991.052 40.6667 990.668 39.984C990.284 39.2907 990.092 38.4907 990.092 37.584C990.092 36.688 990.29 35.8933 990.684 35.2C991.079 34.5067 991.618 33.9733 992.3 33.6C992.983 33.2267 993.746 33.04 994.588 33.04C995.431 33.04 996.194 33.2267 996.876 33.6C997.559 33.9733 998.098 34.5067 998.492 35.2C998.887 35.8933 999.084 36.688 999.084 37.584C999.084 38.48 998.882 39.2747 998.476 39.968C998.071 40.6613 997.516 41.2 996.812 41.584C996.119 41.9573 995.351 42.144 994.508 42.144ZM994.508 40.56C994.978 40.56 995.415 40.448 995.82 40.224C996.236 40 996.572 39.664 996.828 39.216C997.084 38.768 997.212 38.224 997.212 37.584C997.212 36.944 997.09 36.4053 996.844 35.968C996.599 35.52 996.274 35.184 995.868 34.96C995.463 34.736 995.026 34.624 994.556 34.624C994.087 34.624 993.65 34.736 993.244 34.96C992.85 35.184 992.535 35.52 992.3 35.968C992.066 36.4053 991.948 36.944 991.948 37.584C991.948 38.5333 992.188 39.2693 992.668 39.792C993.159 40.304 993.772 40.56 994.508 40.56ZM1004.3 40.368L1006.79 33.184H1008.73L1005.37 42H1003.19L999.848 33.184H1001.8L1004.3 40.368ZM1018.19 37.376C1018.19 37.7067 1018.16 38.0053 1018.12 38.272H1011.39C1011.44 38.976 1011.7 39.5413 1012.17 39.968C1012.64 40.3947 1013.22 40.608 1013.9 40.608C1014.88 40.608 1015.57 40.1973 1015.98 39.376H1017.95C1017.68 40.1867 1017.19 40.8533 1016.49 41.376C1015.8 41.888 1014.93 42.144 1013.9 42.144C1013.06 42.144 1012.3 41.9573 1011.63 41.584C1010.96 41.2 1010.44 40.6667 1010.06 39.984C1009.68 39.2907 1009.5 38.4907 1009.5 37.584C1009.5 36.6773 1009.68 35.8827 1010.04 35.2C1010.42 34.5067 1010.93 33.9733 1011.59 33.6C1012.27 33.2267 1013.03 33.04 1013.9 33.04C1014.73 33.04 1015.47 33.2213 1016.12 33.584C1016.77 33.9467 1017.28 34.4587 1017.64 35.12C1018 35.7707 1018.19 36.5227 1018.19 37.376ZM1016.28 36.8C1016.27 36.128 1016.03 35.5893 1015.56 35.184C1015.09 34.7787 1014.51 34.576 1013.82 34.576C1013.19 34.576 1012.65 34.7787 1012.2 35.184C1011.75 35.5787 1011.49 36.1173 1011.4 36.8H1016.28ZM1019.37 37.552C1019.37 36.6667 1019.55 35.8827 1019.92 35.2C1020.29 34.5173 1020.79 33.9893 1021.42 33.616C1022.06 33.232 1022.77 33.04 1023.55 33.04C1024.13 33.04 1024.69 33.168 1025.25 33.424C1025.81 33.6693 1026.26 34 1026.59 34.416V30.16H1028.43V42H1026.59V40.672C1026.29 41.0987 1025.87 41.4507 1025.34 41.728C1024.82 42.0053 1024.22 42.144 1023.53 42.144C1022.77 42.144 1022.06 41.952 1021.42 41.568C1020.79 41.1733 1020.29 40.6293 1019.92 39.936C1019.55 39.232 1019.37 38.4373 1019.37 37.552ZM1026.59 37.584C1026.59 36.976 1026.46 36.448 1026.21 36C1025.96 35.552 1025.63 35.2107 1025.23 34.976C1024.82 34.7413 1024.39 34.624 1023.92 34.624C1023.45 34.624 1023.01 34.7413 1022.61 34.976C1022.2 35.2 1021.87 35.536 1021.61 35.984C1021.37 36.4213 1021.25 36.944 1021.25 37.552C1021.25 38.16 1021.37 38.6933 1021.61 39.152C1021.87 39.6107 1022.2 39.9627 1022.61 40.208C1023.02 40.4427 1023.46 40.56 1023.92 40.56C1024.39 40.56 1024.82 40.4427 1025.23 40.208C1025.63 39.9733 1025.96 39.632 1026.21 39.184C1026.46 38.7253 1026.59 38.192 1026.59 37.584Z" fill="#525252"/>
<path d="M952.356 65.432C952.484 63.448 953.241 61.9013 954.628 60.792C956.036 59.6827 957.828 59.128 960.004 59.128C961.497 59.128 962.788 59.3947 963.876 59.928C964.964 60.4613 965.785 61.1867 966.34 62.104C966.895 63.0213 967.172 64.056 967.172 65.208C967.172 66.5307 966.82 67.6613 966.116 68.6C965.412 69.5387 964.569 70.168 963.588 70.488V70.616C964.847 71 965.828 71.704 966.532 72.728C967.236 73.7307 967.588 75.0213 967.588 76.6C967.588 77.8587 967.3 78.9787 966.724 79.96C966.148 80.9413 965.295 81.72 964.164 82.296C963.033 82.8507 961.679 83.128 960.1 83.128C957.796 83.128 955.897 82.5413 954.404 81.368C952.932 80.1733 952.143 78.4667 952.036 76.248H955.556C955.641 77.3787 956.079 78.3067 956.868 79.032C957.657 79.736 958.724 80.088 960.068 80.088C961.369 80.088 962.372 79.736 963.076 79.032C963.78 78.3067 964.132 77.3787 964.132 76.248C964.132 74.7547 963.652 73.6987 962.692 73.08C961.753 72.44 960.303 72.12 958.34 72.12H957.508V69.112H958.372C960.1 69.0907 961.412 68.8027 962.308 68.248C963.225 67.6933 963.684 66.8187 963.684 65.624C963.684 64.6 963.353 63.7893 962.692 63.192C962.031 62.5733 961.092 62.264 959.876 62.264C958.681 62.264 957.753 62.5733 957.092 63.192C956.431 63.7893 956.036 64.536 955.908 65.432H952.356ZM970.972 78.136V75.384L981.724 59.96H986.14V74.968H989.116V78.136H986.14V83H982.556V78.136H970.972ZM982.716 63.672L975.164 74.968H982.716V63.672Z" fill="#525252"/>
<rect x="43" y="191" width="25" height="63" rx="5" fill="#2A8EF1"/>
<path d="M45.52 268.05C46.26 268.05 46.9067 268.193 47.46 268.48C48.02 268.76 48.45 269.167 48.75 269.7C49.0567 270.227 49.21 270.843 49.21 271.55C49.21 272.257 49.0567 272.87 48.75 273.39C48.45 273.91 48.02 274.31 47.46 274.59C46.9067 274.863 46.26 275 45.52 275H43.25V268.05H45.52ZM45.52 274.07C46.3333 274.07 46.9567 273.85 47.39 273.41C47.8233 272.97 48.04 272.35 48.04 271.55C48.04 270.743 47.8233 270.113 47.39 269.66C46.9567 269.207 46.3333 268.98 45.52 268.98H44.39V274.07H45.52ZM49.9598 272.22C49.9598 271.667 50.0732 271.177 50.2998 270.75C50.5332 270.323 50.8465 269.993 51.2398 269.76C51.6398 269.52 52.0798 269.4 52.5598 269.4C52.9932 269.4 53.3698 269.487 53.6898 269.66C54.0165 269.827 54.2765 270.037 54.4698 270.29V269.49H55.6198V275H54.4698V274.18C54.2765 274.44 54.0132 274.657 53.6798 274.83C53.3465 275.003 52.9665 275.09 52.5398 275.09C52.0665 275.09 51.6332 274.97 51.2398 274.73C50.8465 274.483 50.5332 274.143 50.2998 273.71C50.0732 273.27 49.9598 272.773 49.9598 272.22ZM54.4698 272.24C54.4698 271.86 54.3898 271.53 54.2298 271.25C54.0765 270.97 53.8732 270.757 53.6198 270.61C53.3665 270.463 53.0932 270.39 52.7998 270.39C52.5065 270.39 52.2332 270.463 51.9798 270.61C51.7265 270.75 51.5198 270.96 51.3598 271.24C51.2065 271.513 51.1298 271.84 51.1298 272.22C51.1298 272.6 51.2065 272.933 51.3598 273.22C51.5198 273.507 51.7265 273.727 51.9798 273.88C52.2398 274.027 52.5132 274.1 52.7998 274.1C53.0932 274.1 53.3665 274.027 53.6198 273.88C53.8732 273.733 54.0765 273.52 54.2298 273.24C54.3898 272.953 54.4698 272.62 54.4698 272.24ZM62.0772 269.49L58.6972 277.59H57.5172L58.6372 274.91L56.4672 269.49H57.7372L59.2872 273.69L60.8972 269.49H62.0772ZM65.2352 268.75V267.71H67.3152V275H66.1652V268.75H65.2352Z" fill="#525252"/>
<rect x="95.5" y="218" width="25" height="36" rx="5" fill="#9FCFFF"/>
<path d="M96.52 268.05C97.26 268.05 97.9067 268.193 98.46 268.48C99.02 268.76 99.45 269.167 99.75 269.7C100.057 270.227 100.21 270.843 100.21 271.55C100.21 272.257 100.057 272.87 99.75 273.39C99.45 273.91 99.02 274.31 98.46 274.59C97.9067 274.863 97.26 275 96.52 275H94.25V268.05H96.52ZM96.52 274.07C97.3333 274.07 97.9567 273.85 98.39 273.41C98.8233 272.97 99.04 272.35 99.04 271.55C99.04 270.743 98.8233 270.113 98.39 269.66C97.9567 269.207 97.3333 268.98 96.52 268.98H95.39V274.07H96.52ZM100.96 272.22C100.96 271.667 101.073 271.177 101.3 270.75C101.533 270.323 101.847 269.993 102.24 269.76C102.64 269.52 103.08 269.4 103.56 269.4C103.993 269.4 104.37 269.487 104.69 269.66C105.017 269.827 105.277 270.037 105.47 270.29V269.49H106.62V275H105.47V274.18C105.277 274.44 105.013 274.657 104.68 274.83C104.347 275.003 103.967 275.09 103.54 275.09C103.067 275.09 102.633 274.97 102.24 274.73C101.847 274.483 101.533 274.143 101.3 273.71C101.073 273.27 100.96 272.773 100.96 272.22ZM105.47 272.24C105.47 271.86 105.39 271.53 105.23 271.25C105.077 270.97 104.873 270.757 104.62 270.61C104.367 270.463 104.093 270.39 103.8 270.39C103.507 270.39 103.233 270.463 102.98 270.61C102.727 270.75 102.52 270.96 102.36 271.24C102.207 271.513 102.13 271.84 102.13 272.22C102.13 272.6 102.207 272.933 102.36 273.22C102.52 273.507 102.727 273.727 102.98 273.88C103.24 274.027 103.513 274.1 103.8 274.1C104.093 274.1 104.367 274.027 104.62 273.88C104.873 273.733 105.077 273.52 105.23 273.24C105.39 272.953 105.47 272.62 105.47 272.24ZM113.077 269.49L109.697 277.59H108.517L109.637 274.91L107.467 269.49H108.737L110.287 273.69L111.897 269.49H113.077ZM117.015 273.45C117.655 272.897 118.158 272.443 118.525 272.09C118.898 271.73 119.208 271.357 119.455 270.97C119.702 270.583 119.825 270.197 119.825 269.81C119.825 269.41 119.728 269.097 119.535 268.87C119.348 268.643 119.052 268.53 118.645 268.53C118.252 268.53 117.945 268.657 117.725 268.91C117.512 269.157 117.398 269.49 117.385 269.91H116.285C116.305 269.15 116.532 268.57 116.965 268.17C117.405 267.763 117.962 267.56 118.635 267.56C119.362 267.56 119.928 267.76 120.335 268.16C120.748 268.56 120.955 269.093 120.955 269.76C120.955 270.24 120.832 270.703 120.585 271.15C120.345 271.59 120.055 271.987 119.715 272.34C119.382 272.687 118.955 273.09 118.435 273.55L117.985 273.95H121.155V274.9H116.295V274.07L117.015 273.45Z" fill="#525252"/>
<rect x="149.5" y="248" width="25" height="6" rx="3" fill="#2A8EF1"/>
<path d="M150.52 268.05C151.26 268.05 151.907 268.193 152.46 268.48C153.02 268.76 153.45 269.167 153.75 269.7C154.057 270.227 154.21 270.843 154.21 271.55C154.21 272.257 154.057 272.87 153.75 273.39C153.45 273.91 153.02 274.31 152.46 274.59C151.907 274.863 151.26 275 150.52 275H148.25V268.05H150.52ZM150.52 274.07C151.333 274.07 151.957 273.85 152.39 273.41C152.823 272.97 153.04 272.35 153.04 271.55C153.04 270.743 152.823 270.113 152.39 269.66C151.957 269.207 151.333 268.98 150.52 268.98H149.39V274.07H150.52ZM154.96 272.22C154.96 271.667 155.073 271.177 155.3 270.75C155.533 270.323 155.847 269.993 156.24 269.76C156.64 269.52 157.08 269.4 157.56 269.4C157.993 269.4 158.37 269.487 158.69 269.66C159.017 269.827 159.277 270.037 159.47 270.29V269.49H160.62V275H159.47V274.18C159.277 274.44 159.013 274.657 158.68 274.83C158.347 275.003 157.967 275.09 157.54 275.09C157.067 275.09 156.633 274.97 156.24 274.73C155.847 274.483 155.533 274.143 155.3 273.71C155.073 273.27 154.96 272.773 154.96 272.22ZM159.47 272.24C159.47 271.86 159.39 271.53 159.23 271.25C159.077 270.97 158.873 270.757 158.62 270.61C158.367 270.463 158.093 270.39 157.8 270.39C157.507 270.39 157.233 270.463 156.98 270.61C156.727 270.75 156.52 270.96 156.36 271.24C156.207 271.513 156.13 271.84 156.13 272.22C156.13 272.6 156.207 272.933 156.36 273.22C156.52 273.507 156.727 273.727 156.98 273.88C157.24 274.027 157.513 274.1 157.8 274.1C158.093 274.1 158.367 274.027 158.62 273.88C158.873 273.733 159.077 273.52 159.23 273.24C159.39 272.953 159.47 272.62 159.47 272.24ZM167.077 269.49L163.697 277.59H162.517L163.637 274.91L161.467 269.49H162.737L164.287 273.69L165.897 269.49H167.077ZM170.365 269.51C170.405 268.89 170.642 268.407 171.075 268.06C171.515 267.713 172.075 267.54 172.755 267.54C173.222 267.54 173.625 267.623 173.965 267.79C174.305 267.957 174.562 268.183 174.735 268.47C174.908 268.757 174.995 269.08 174.995 269.44C174.995 269.853 174.885 270.207 174.665 270.5C174.445 270.793 174.182 270.99 173.875 271.09V271.13C174.268 271.25 174.575 271.47 174.795 271.79C175.015 272.103 175.125 272.507 175.125 273C175.125 273.393 175.035 273.743 174.855 274.05C174.675 274.357 174.408 274.6 174.055 274.78C173.702 274.953 173.278 275.04 172.785 275.04C172.065 275.04 171.472 274.857 171.005 274.49C170.545 274.117 170.298 273.583 170.265 272.89H171.365C171.392 273.243 171.528 273.533 171.775 273.76C172.022 273.98 172.355 274.09 172.775 274.09C173.182 274.09 173.495 273.98 173.715 273.76C173.935 273.533 174.045 273.243 174.045 272.89C174.045 272.423 173.895 272.093 173.595 271.9C173.302 271.7 172.848 271.6 172.235 271.6H171.975V270.66H172.245C172.785 270.653 173.195 270.563 173.475 270.39C173.762 270.217 173.905 269.943 173.905 269.57C173.905 269.25 173.802 268.997 173.595 268.81C173.388 268.617 173.095 268.52 172.715 268.52C172.342 268.52 172.052 268.617 171.845 268.81C171.638 268.997 171.515 269.23 171.475 269.51H170.365Z" fill="#525252"/>
<rect x="202.5" y="218" width="25" height="36" rx="5" fill="#9FCFFF"/>
<path d="M204.52 268.05C205.26 268.05 205.907 268.193 206.46 268.48C207.02 268.76 207.45 269.167 207.75 269.7C208.057 270.227 208.21 270.843 208.21 271.55C208.21 272.257 208.057 272.87 207.75 273.39C207.45 273.91 207.02 274.31 206.46 274.59C205.907 274.863 205.26 275 204.52 275H202.25V268.05H204.52ZM204.52 274.07C205.333 274.07 205.957 273.85 206.39 273.41C206.823 272.97 207.04 272.35 207.04 271.55C207.04 270.743 206.823 270.113 206.39 269.66C205.957 269.207 205.333 268.98 204.52 268.98H203.39V274.07H204.52ZM208.96 272.22C208.96 271.667 209.073 271.177 209.3 270.75C209.533 270.323 209.847 269.993 210.24 269.76C210.64 269.52 211.08 269.4 211.56 269.4C211.993 269.4 212.37 269.487 212.69 269.66C213.017 269.827 213.277 270.037 213.47 270.29V269.49H214.62V275H213.47V274.18C213.277 274.44 213.013 274.657 212.68 274.83C212.347 275.003 211.967 275.09 211.54 275.09C211.067 275.09 210.633 274.97 210.24 274.73C209.847 274.483 209.533 274.143 209.3 273.71C209.073 273.27 208.96 272.773 208.96 272.22ZM213.47 272.24C213.47 271.86 213.39 271.53 213.23 271.25C213.077 270.97 212.873 270.757 212.62 270.61C212.367 270.463 212.093 270.39 211.8 270.39C211.507 270.39 211.233 270.463 210.98 270.61C210.727 270.75 210.52 270.96 210.36 271.24C210.207 271.513 210.13 271.84 210.13 272.22C210.13 272.6 210.207 272.933 210.36 273.22C210.52 273.507 210.727 273.727 210.98 273.88C211.24 274.027 211.513 274.1 211.8 274.1C212.093 274.1 212.367 274.027 212.62 273.88C212.873 273.733 213.077 273.52 213.23 273.24C213.39 272.953 213.47 272.62 213.47 272.24ZM221.077 269.49L217.697 277.59H216.517L217.637 274.91L215.467 269.49H216.737L218.287 273.69L219.897 269.49H221.077ZM221.648 273.48V272.62L225.008 267.8H226.388V272.49H227.318V273.48H226.388V275H225.268V273.48H221.648ZM225.318 268.96L222.958 272.49H225.318V268.96Z" fill="#525252"/>
<rect x="255.5" y="210" width="25" height="44" rx="5" fill="#2A8EF1"/>
<path d="M256.52 268.05C257.26 268.05 257.907 268.193 258.46 268.48C259.02 268.76 259.45 269.167 259.75 269.7C260.057 270.227 260.21 270.843 260.21 271.55C260.21 272.257 260.057 272.87 259.75 273.39C259.45 273.91 259.02 274.31 258.46 274.59C257.907 274.863 257.26 275 256.52 275H254.25V268.05H256.52ZM256.52 274.07C257.333 274.07 257.957 273.85 258.39 273.41C258.823 272.97 259.04 272.35 259.04 271.55C259.04 270.743 258.823 270.113 258.39 269.66C257.957 269.207 257.333 268.98 256.52 268.98H255.39V274.07H256.52ZM260.96 272.22C260.96 271.667 261.073 271.177 261.3 270.75C261.533 270.323 261.847 269.993 262.24 269.76C262.64 269.52 263.08 269.4 263.56 269.4C263.993 269.4 264.37 269.487 264.69 269.66C265.017 269.827 265.277 270.037 265.47 270.29V269.49H266.62V275H265.47V274.18C265.277 274.44 265.013 274.657 264.68 274.83C264.347 275.003 263.967 275.09 263.54 275.09C263.067 275.09 262.633 274.97 262.24 274.73C261.847 274.483 261.533 274.143 261.3 273.71C261.073 273.27 260.96 272.773 260.96 272.22ZM265.47 272.24C265.47 271.86 265.39 271.53 265.23 271.25C265.077 270.97 264.873 270.757 264.62 270.61C264.367 270.463 264.093 270.39 263.8 270.39C263.507 270.39 263.233 270.463 262.98 270.61C262.727 270.75 262.52 270.96 262.36 271.24C262.207 271.513 262.13 271.84 262.13 272.22C262.13 272.6 262.207 272.933 262.36 273.22C262.52 273.507 262.727 273.727 262.98 273.88C263.24 274.027 263.513 274.1 263.8 274.1C264.093 274.1 264.367 274.027 264.62 273.88C264.873 273.733 265.077 273.52 265.23 273.24C265.39 272.953 265.47 272.62 265.47 272.24ZM273.077 269.49L269.697 277.59H268.517L269.637 274.91L267.467 269.49H268.737L270.287 273.69L271.897 269.49H273.077ZM281.085 268.69H277.735V270.68C277.875 270.493 278.082 270.337 278.355 270.21C278.635 270.083 278.932 270.02 279.245 270.02C279.805 270.02 280.258 270.14 280.605 270.38C280.958 270.62 281.208 270.923 281.355 271.29C281.508 271.657 281.585 272.043 281.585 272.45C281.585 272.943 281.488 273.383 281.295 273.77C281.108 274.15 280.825 274.45 280.445 274.67C280.072 274.89 279.612 275 279.065 275C278.338 275 277.755 274.82 277.315 274.46C276.875 274.1 276.612 273.623 276.525 273.03H277.635C277.708 273.343 277.872 273.593 278.125 273.78C278.378 273.96 278.695 274.05 279.075 274.05C279.548 274.05 279.902 273.907 280.135 273.62C280.375 273.333 280.495 272.953 280.495 272.48C280.495 272 280.375 271.633 280.135 271.38C279.895 271.12 279.542 270.99 279.075 270.99C278.748 270.99 278.472 271.073 278.245 271.24C278.025 271.4 277.865 271.62 277.765 271.9H276.685V267.69H281.085V268.69Z" fill="#525252"/>
<rect x="309.5" y="178" width="25" height="76" rx="5" fill="#9FCFFF"/>
<path d="M310.52 268.05C311.26 268.05 311.907 268.193 312.46 268.48C313.02 268.76 313.45 269.167 313.75 269.7C314.057 270.227 314.21 270.843 314.21 271.55C314.21 272.257 314.057 272.87 313.75 273.39C313.45 273.91 313.02 274.31 312.46 274.59C311.907 274.863 311.26 275 310.52 275H308.25V268.05H310.52ZM310.52 274.07C311.333 274.07 311.957 273.85 312.39 273.41C312.823 272.97 313.04 272.35 313.04 271.55C313.04 270.743 312.823 270.113 312.39 269.66C311.957 269.207 311.333 268.98 310.52 268.98H309.39V274.07H310.52ZM314.96 272.22C314.96 271.667 315.073 271.177 315.3 270.75C315.533 270.323 315.847 269.993 316.24 269.76C316.64 269.52 317.08 269.4 317.56 269.4C317.993 269.4 318.37 269.487 318.69 269.66C319.017 269.827 319.277 270.037 319.47 270.29V269.49H320.62V275H319.47V274.18C319.277 274.44 319.013 274.657 318.68 274.83C318.347 275.003 317.967 275.09 317.54 275.09C317.067 275.09 316.633 274.97 316.24 274.73C315.847 274.483 315.533 274.143 315.3 273.71C315.073 273.27 314.96 272.773 314.96 272.22ZM319.47 272.24C319.47 271.86 319.39 271.53 319.23 271.25C319.077 270.97 318.873 270.757 318.62 270.61C318.367 270.463 318.093 270.39 317.8 270.39C317.507 270.39 317.233 270.463 316.98 270.61C316.727 270.75 316.52 270.96 316.36 271.24C316.207 271.513 316.13 271.84 316.13 272.22C316.13 272.6 316.207 272.933 316.36 273.22C316.52 273.507 316.727 273.727 316.98 273.88C317.24 274.027 317.513 274.1 317.8 274.1C318.093 274.1 318.367 274.027 318.62 273.88C318.873 273.733 319.077 273.52 319.23 273.24C319.39 272.953 319.47 272.62 319.47 272.24ZM327.077 269.49L323.697 277.59H322.517L323.637 274.91L321.467 269.49H322.737L324.287 273.69L325.897 269.49H327.077ZM334.305 269.4C334.232 269.093 334.098 268.863 333.905 268.71C333.712 268.557 333.442 268.48 333.095 268.48C332.568 268.48 332.175 268.683 331.915 269.09C331.655 269.49 331.518 270.157 331.505 271.09C331.678 270.797 331.932 270.57 332.265 270.41C332.598 270.25 332.958 270.17 333.345 270.17C333.785 270.17 334.172 270.267 334.505 270.46C334.845 270.647 335.108 270.92 335.295 271.28C335.488 271.64 335.585 272.07 335.585 272.57C335.585 273.037 335.492 273.453 335.305 273.82C335.125 274.187 334.855 274.477 334.495 274.69C334.135 274.897 333.702 275 333.195 275C332.508 275 331.968 274.85 331.575 274.55C331.188 274.243 330.915 273.813 330.755 273.26C330.602 272.707 330.525 272.017 330.525 271.19C330.525 268.75 331.385 267.53 333.105 267.53C333.772 267.53 334.295 267.71 334.675 268.07C335.062 268.43 335.288 268.873 335.355 269.4H334.305ZM333.095 271.13C332.688 271.13 332.342 271.253 332.055 271.5C331.775 271.74 331.635 272.09 331.635 272.55C331.635 273.01 331.765 273.377 332.025 273.65C332.292 273.917 332.662 274.05 333.135 274.05C333.555 274.05 333.885 273.92 334.125 273.66C334.372 273.4 334.495 273.053 334.495 272.62C334.495 272.167 334.375 271.807 334.135 271.54C333.902 271.267 333.555 271.13 333.095 271.13Z" fill="#525252"/>
<rect x="363" y="191" width="25" height="63" rx="5" fill="#2A8EF1"/>
<path d="M364.52 268.05C365.26 268.05 365.907 268.193 366.46 268.48C367.02 268.76 367.45 269.167 367.75 269.7C368.057 270.227 368.21 270.843 368.21 271.55C368.21 272.257 368.057 272.87 367.75 273.39C367.45 273.91 367.02 274.31 366.46 274.59C365.907 274.863 365.26 275 364.52 275H362.25V268.05H364.52ZM364.52 274.07C365.333 274.07 365.957 273.85 366.39 273.41C366.823 272.97 367.04 272.35 367.04 271.55C367.04 270.743 366.823 270.113 366.39 269.66C365.957 269.207 365.333 268.98 364.52 268.98H363.39V274.07H364.52ZM368.96 272.22C368.96 271.667 369.073 271.177 369.3 270.75C369.533 270.323 369.847 269.993 370.24 269.76C370.64 269.52 371.08 269.4 371.56 269.4C371.993 269.4 372.37 269.487 372.69 269.66C373.017 269.827 373.277 270.037 373.47 270.29V269.49H374.62V275H373.47V274.18C373.277 274.44 373.013 274.657 372.68 274.83C372.347 275.003 371.967 275.09 371.54 275.09C371.067 275.09 370.633 274.97 370.24 274.73C369.847 274.483 369.533 274.143 369.3 273.71C369.073 273.27 368.96 272.773 368.96 272.22ZM373.47 272.24C373.47 271.86 373.39 271.53 373.23 271.25C373.077 270.97 372.873 270.757 372.62 270.61C372.367 270.463 372.093 270.39 371.8 270.39C371.507 270.39 371.233 270.463 370.98 270.61C370.727 270.75 370.52 270.96 370.36 271.24C370.207 271.513 370.13 271.84 370.13 272.22C370.13 272.6 370.207 272.933 370.36 273.22C370.52 273.507 370.727 273.727 370.98 273.88C371.24 274.027 371.513 274.1 371.8 274.1C372.093 274.1 372.367 274.027 372.62 273.88C372.873 273.733 373.077 273.52 373.23 273.24C373.39 272.953 373.47 272.62 373.47 272.24ZM381.077 269.49L377.697 277.59H376.517L377.637 274.91L375.467 269.49H376.737L378.287 273.69L379.897 269.49H381.077ZM389.005 268.59L386.225 275H385.075L387.885 268.71H384.185V267.74H389.005V268.59Z" fill="#525252"/>
<rect x="416.5" y="179" width="25" height="75" rx="5" fill="#9FCFFF"/>
<path d="M417.52 268.05C418.26 268.05 418.907 268.193 419.46 268.48C420.02 268.76 420.45 269.167 420.75 269.7C421.057 270.227 421.21 270.843 421.21 271.55C421.21 272.257 421.057 272.87 420.75 273.39C420.45 273.91 420.02 274.31 419.46 274.59C418.907 274.863 418.26 275 417.52 275H415.25V268.05H417.52ZM417.52 274.07C418.333 274.07 418.957 273.85 419.39 273.41C419.823 272.97 420.04 272.35 420.04 271.55C420.04 270.743 419.823 270.113 419.39 269.66C418.957 269.207 418.333 268.98 417.52 268.98H416.39V274.07H417.52ZM421.96 272.22C421.96 271.667 422.073 271.177 422.3 270.75C422.533 270.323 422.847 269.993 423.24 269.76C423.64 269.52 424.08 269.4 424.56 269.4C424.993 269.4 425.37 269.487 425.69 269.66C426.017 269.827 426.277 270.037 426.47 270.29V269.49H427.62V275H426.47V274.18C426.277 274.44 426.013 274.657 425.68 274.83C425.347 275.003 424.967 275.09 424.54 275.09C424.067 275.09 423.633 274.97 423.24 274.73C422.847 274.483 422.533 274.143 422.3 273.71C422.073 273.27 421.96 272.773 421.96 272.22ZM426.47 272.24C426.47 271.86 426.39 271.53 426.23 271.25C426.077 270.97 425.873 270.757 425.62 270.61C425.367 270.463 425.093 270.39 424.8 270.39C424.507 270.39 424.233 270.463 423.98 270.61C423.727 270.75 423.52 270.96 423.36 271.24C423.207 271.513 423.13 271.84 423.13 272.22C423.13 272.6 423.207 272.933 423.36 273.22C423.52 273.507 423.727 273.727 423.98 273.88C424.24 274.027 424.513 274.1 424.8 274.1C425.093 274.1 425.367 274.027 425.62 273.88C425.873 273.733 426.077 273.52 426.23 273.24C426.39 272.953 426.47 272.62 426.47 272.24ZM434.077 269.49L430.697 277.59H429.517L430.637 274.91L428.467 269.49H429.737L431.287 273.69L432.897 269.49H434.077ZM438.615 271.19C437.922 270.843 437.575 270.297 437.575 269.55C437.575 269.19 437.665 268.86 437.845 268.56C438.025 268.26 438.295 268.023 438.655 267.85C439.015 267.67 439.455 267.58 439.975 267.58C440.488 267.58 440.925 267.67 441.285 267.85C441.652 268.023 441.925 268.26 442.105 268.56C442.285 268.86 442.375 269.19 442.375 269.55C442.375 269.923 442.278 270.253 442.085 270.54C441.898 270.82 441.648 271.037 441.335 271.19C441.715 271.33 442.015 271.56 442.235 271.88C442.455 272.193 442.565 272.563 442.565 272.99C442.565 273.423 442.455 273.807 442.235 274.14C442.015 274.473 441.708 274.73 441.315 274.91C440.922 275.09 440.475 275.18 439.975 275.18C439.475 275.18 439.028 275.09 438.635 274.91C438.248 274.73 437.945 274.473 437.725 274.14C437.505 273.807 437.395 273.423 437.395 272.99C437.395 272.557 437.505 272.183 437.725 271.87C437.945 271.557 438.242 271.33 438.615 271.19ZM441.285 269.69C441.285 269.317 441.168 269.03 440.935 268.83C440.702 268.63 440.382 268.53 439.975 268.53C439.575 268.53 439.258 268.63 439.025 268.83C438.792 269.03 438.675 269.32 438.675 269.7C438.675 270.033 438.795 270.307 439.035 270.52C439.282 270.727 439.595 270.83 439.975 270.83C440.355 270.83 440.668 270.723 440.915 270.51C441.162 270.297 441.285 270.023 441.285 269.69ZM439.975 271.69C439.535 271.69 439.175 271.8 438.895 272.02C438.622 272.233 438.485 272.543 438.485 272.95C438.485 273.33 438.618 273.64 438.885 273.88C439.152 274.113 439.515 274.23 439.975 274.23C440.428 274.23 440.785 274.11 441.045 273.87C441.312 273.63 441.445 273.323 441.445 272.95C441.445 272.55 441.308 272.24 441.035 272.02C440.768 271.8 440.415 271.69 439.975 271.69Z" fill="#525252"/>
<rect x="470.5" y="238" width="25" height="16" rx="5" fill="#2A8EF1"/>
<path d="M471.52 268.05C472.26 268.05 472.907 268.193 473.46 268.48C474.02 268.76 474.45 269.167 474.75 269.7C475.057 270.227 475.21 270.843 475.21 271.55C475.21 272.257 475.057 272.87 474.75 273.39C474.45 273.91 474.02 274.31 473.46 274.59C472.907 274.863 472.26 275 471.52 275H469.25V268.05H471.52ZM471.52 274.07C472.333 274.07 472.957 273.85 473.39 273.41C473.823 272.97 474.04 272.35 474.04 271.55C474.04 270.743 473.823 270.113 473.39 269.66C472.957 269.207 472.333 268.98 471.52 268.98H470.39V274.07H471.52ZM475.96 272.22C475.96 271.667 476.073 271.177 476.3 270.75C476.533 270.323 476.847 269.993 477.24 269.76C477.64 269.52 478.08 269.4 478.56 269.4C478.993 269.4 479.37 269.487 479.69 269.66C480.017 269.827 480.277 270.037 480.47 270.29V269.49H481.62V275H480.47V274.18C480.277 274.44 480.013 274.657 479.68 274.83C479.347 275.003 478.967 275.09 478.54 275.09C478.067 275.09 477.633 274.97 477.24 274.73C476.847 274.483 476.533 274.143 476.3 273.71C476.073 273.27 475.96 272.773 475.96 272.22ZM480.47 272.24C480.47 271.86 480.39 271.53 480.23 271.25C480.077 270.97 479.873 270.757 479.62 270.61C479.367 270.463 479.093 270.39 478.8 270.39C478.507 270.39 478.233 270.463 477.98 270.61C477.727 270.75 477.52 270.96 477.36 271.24C477.207 271.513 477.13 271.84 477.13 272.22C477.13 272.6 477.207 272.933 477.36 273.22C477.52 273.507 477.727 273.727 477.98 273.88C478.24 274.027 478.513 274.1 478.8 274.1C479.093 274.1 479.367 274.027 479.62 273.88C479.873 273.733 480.077 273.52 480.23 273.24C480.39 272.953 480.47 272.62 480.47 272.24ZM488.077 269.49L484.697 277.59H483.517L484.637 274.91L482.467 269.49H483.737L485.287 273.69L486.897 269.49H488.077ZM492.805 273.02C492.872 273.353 493.015 273.607 493.235 273.78C493.455 273.953 493.752 274.04 494.125 274.04C494.598 274.04 494.945 273.853 495.165 273.48C495.385 273.107 495.495 272.47 495.495 271.57C495.335 271.797 495.108 271.973 494.815 272.1C494.528 272.22 494.215 272.28 493.875 272.28C493.442 272.28 493.048 272.193 492.695 272.02C492.342 271.84 492.062 271.577 491.855 271.23C491.655 270.877 491.555 270.45 491.555 269.95C491.555 269.217 491.768 268.633 492.195 268.2C492.628 267.76 493.222 267.54 493.975 267.54C494.882 267.54 495.525 267.843 495.905 268.45C496.292 269.05 496.485 269.973 496.485 271.22C496.485 272.08 496.412 272.783 496.265 273.33C496.125 273.877 495.878 274.29 495.525 274.57C495.172 274.85 494.682 274.99 494.055 274.99C493.342 274.99 492.792 274.803 492.405 274.43C492.018 274.057 491.802 273.587 491.755 273.02H492.805ZM494.075 271.32C494.475 271.32 494.788 271.197 495.015 270.95C495.248 270.697 495.365 270.363 495.365 269.95C495.365 269.49 495.242 269.133 494.995 268.88C494.755 268.62 494.425 268.49 494.005 268.49C493.585 268.49 493.252 268.623 493.005 268.89C492.765 269.15 492.645 269.493 492.645 269.92C492.645 270.327 492.762 270.663 492.995 270.93C493.235 271.19 493.595 271.32 494.075 271.32Z" fill="#525252"/>
<rect x="526.5" y="218" width="25" height="36" rx="5" fill="#9FCFFF"/>
<path d="M525.52 268.05C526.26 268.05 526.907 268.193 527.46 268.48C528.02 268.76 528.45 269.167 528.75 269.7C529.057 270.227 529.21 270.843 529.21 271.55C529.21 272.257 529.057 272.87 528.75 273.39C528.45 273.91 528.02 274.31 527.46 274.59C526.907 274.863 526.26 275 525.52 275H523.25V268.05H525.52ZM525.52 274.07C526.333 274.07 526.957 273.85 527.39 273.41C527.823 272.97 528.04 272.35 528.04 271.55C528.04 270.743 527.823 270.113 527.39 269.66C526.957 269.207 526.333 268.98 525.52 268.98H524.39V274.07H525.52ZM529.96 272.22C529.96 271.667 530.073 271.177 530.3 270.75C530.533 270.323 530.847 269.993 531.24 269.76C531.64 269.52 532.08 269.4 532.56 269.4C532.993 269.4 533.37 269.487 533.69 269.66C534.017 269.827 534.277 270.037 534.47 270.29V269.49H535.62V275H534.47V274.18C534.277 274.44 534.013 274.657 533.68 274.83C533.347 275.003 532.967 275.09 532.54 275.09C532.067 275.09 531.633 274.97 531.24 274.73C530.847 274.483 530.533 274.143 530.3 273.71C530.073 273.27 529.96 272.773 529.96 272.22ZM534.47 272.24C534.47 271.86 534.39 271.53 534.23 271.25C534.077 270.97 533.873 270.757 533.62 270.61C533.367 270.463 533.093 270.39 532.8 270.39C532.507 270.39 532.233 270.463 531.98 270.61C531.727 270.75 531.52 270.96 531.36 271.24C531.207 271.513 531.13 271.84 531.13 272.22C531.13 272.6 531.207 272.933 531.36 273.22C531.52 273.507 531.727 273.727 531.98 273.88C532.24 274.027 532.513 274.1 532.8 274.1C533.093 274.1 533.367 274.027 533.62 273.88C533.873 273.733 534.077 273.52 534.23 273.24C534.39 272.953 534.47 272.62 534.47 272.24ZM542.077 269.49L538.697 277.59H537.517L538.637 274.91L536.467 269.49H537.737L539.287 273.69L540.897 269.49H542.077ZM545.235 268.75V267.71H547.315V275H546.165V268.75H545.235ZM548.881 271.26C548.881 270.107 549.075 269.207 549.461 268.56C549.855 267.907 550.528 267.58 551.481 267.58C552.435 267.58 553.105 267.907 553.491 268.56C553.885 269.207 554.081 270.107 554.081 271.26C554.081 272.427 553.885 273.34 553.491 274C553.105 274.653 552.435 274.98 551.481 274.98C550.528 274.98 549.855 274.653 549.461 274C549.075 273.34 548.881 272.427 548.881 271.26ZM552.961 271.26C552.961 270.72 552.925 270.263 552.851 269.89C552.785 269.517 552.645 269.213 552.431 268.98C552.218 268.74 551.901 268.62 551.481 268.62C551.061 268.62 550.745 268.74 550.531 268.98C550.318 269.213 550.175 269.517 550.101 269.89C550.035 270.263 550.001 270.72 550.001 271.26C550.001 271.82 550.035 272.29 550.101 272.67C550.168 273.05 550.308 273.357 550.521 273.59C550.741 273.823 551.061 273.94 551.481 273.94C551.901 273.94 552.218 273.823 552.431 273.59C552.651 273.357 552.795 273.05 552.861 272.67C552.928 272.29 552.961 271.82 552.961 271.26Z" fill="#525252"/>
<rect x="583" y="218" width="25" height="36" rx="5" fill="#2A8EF1"/>
<path d="M583.52 268.05C584.26 268.05 584.907 268.193 585.46 268.48C586.02 268.76 586.45 269.167 586.75 269.7C587.057 270.227 587.21 270.843 587.21 271.55C587.21 272.257 587.057 272.87 586.75 273.39C586.45 273.91 586.02 274.31 585.46 274.59C584.907 274.863 584.26 275 583.52 275H581.25V268.05H583.52ZM583.52 274.07C584.333 274.07 584.957 273.85 585.39 273.41C585.823 272.97 586.04 272.35 586.04 271.55C586.04 270.743 585.823 270.113 585.39 269.66C584.957 269.207 584.333 268.98 583.52 268.98H582.39V274.07H583.52ZM587.96 272.22C587.96 271.667 588.073 271.177 588.3 270.75C588.533 270.323 588.847 269.993 589.24 269.76C589.64 269.52 590.08 269.4 590.56 269.4C590.993 269.4 591.37 269.487 591.69 269.66C592.017 269.827 592.277 270.037 592.47 270.29V269.49H593.62V275H592.47V274.18C592.277 274.44 592.013 274.657 591.68 274.83C591.347 275.003 590.967 275.09 590.54 275.09C590.067 275.09 589.633 274.97 589.24 274.73C588.847 274.483 588.533 274.143 588.3 273.71C588.073 273.27 587.96 272.773 587.96 272.22ZM592.47 272.24C592.47 271.86 592.39 271.53 592.23 271.25C592.077 270.97 591.873 270.757 591.62 270.61C591.367 270.463 591.093 270.39 590.8 270.39C590.507 270.39 590.233 270.463 589.98 270.61C589.727 270.75 589.52 270.96 589.36 271.24C589.207 271.513 589.13 271.84 589.13 272.22C589.13 272.6 589.207 272.933 589.36 273.22C589.52 273.507 589.727 273.727 589.98 273.88C590.24 274.027 590.513 274.1 590.8 274.1C591.093 274.1 591.367 274.027 591.62 273.88C591.873 273.733 592.077 273.52 592.23 273.24C592.39 272.953 592.47 272.62 592.47 272.24ZM600.077 269.49L596.697 277.59H595.517L596.637 274.91L594.467 269.49H595.737L597.287 273.69L598.897 269.49H600.077ZM603.235 268.75V267.71H605.315V275H604.165V268.75H603.235ZM606.731 268.75V267.71H608.811V275H607.661V268.75H606.731Z" fill="#525252"/>
<rect x="639" y="228" width="25" height="26" rx="5" fill="#9FCFFF"/>
<path d="M638.52 268.05C639.26 268.05 639.907 268.193 640.46 268.48C641.02 268.76 641.45 269.167 641.75 269.7C642.057 270.227 642.21 270.843 642.21 271.55C642.21 272.257 642.057 272.87 641.75 273.39C641.45 273.91 641.02 274.31 640.46 274.59C639.907 274.863 639.26 275 638.52 275H636.25V268.05H638.52ZM638.52 274.07C639.333 274.07 639.957 273.85 640.39 273.41C640.823 272.97 641.04 272.35 641.04 271.55C641.04 270.743 640.823 270.113 640.39 269.66C639.957 269.207 639.333 268.98 638.52 268.98H637.39V274.07H638.52ZM642.96 272.22C642.96 271.667 643.073 271.177 643.3 270.75C643.533 270.323 643.847 269.993 644.24 269.76C644.64 269.52 645.08 269.4 645.56 269.4C645.993 269.4 646.37 269.487 646.69 269.66C647.017 269.827 647.277 270.037 647.47 270.29V269.49H648.62V275H647.47V274.18C647.277 274.44 647.013 274.657 646.68 274.83C646.347 275.003 645.967 275.09 645.54 275.09C645.067 275.09 644.633 274.97 644.24 274.73C643.847 274.483 643.533 274.143 643.3 273.71C643.073 273.27 642.96 272.773 642.96 272.22ZM647.47 272.24C647.47 271.86 647.39 271.53 647.23 271.25C647.077 270.97 646.873 270.757 646.62 270.61C646.367 270.463 646.093 270.39 645.8 270.39C645.507 270.39 645.233 270.463 644.98 270.61C644.727 270.75 644.52 270.96 644.36 271.24C644.207 271.513 644.13 271.84 644.13 272.22C644.13 272.6 644.207 272.933 644.36 273.22C644.52 273.507 644.727 273.727 644.98 273.88C645.24 274.027 645.513 274.1 645.8 274.1C646.093 274.1 646.367 274.027 646.62 273.88C646.873 273.733 647.077 273.52 647.23 273.24C647.39 272.953 647.47 272.62 647.47 272.24ZM655.077 269.49L651.697 277.59H650.517L651.637 274.91L649.467 269.49H650.737L652.287 273.69L653.897 269.49H655.077ZM658.235 268.75V267.71H660.315V275H659.165V268.75H658.235ZM662.511 273.45C663.151 272.897 663.655 272.443 664.021 272.09C664.395 271.73 664.705 271.357 664.951 270.97C665.198 270.583 665.321 270.197 665.321 269.81C665.321 269.41 665.225 269.097 665.031 268.87C664.845 268.643 664.548 268.53 664.141 268.53C663.748 268.53 663.441 268.657 663.221 268.91C663.008 269.157 662.895 269.49 662.881 269.91H661.781C661.801 269.15 662.028 268.57 662.461 268.17C662.901 267.763 663.458 267.56 664.131 267.56C664.858 267.56 665.425 267.76 665.831 268.16C666.245 268.56 666.451 269.093 666.451 269.76C666.451 270.24 666.328 270.703 666.081 271.15C665.841 271.59 665.551 271.987 665.211 272.34C664.878 272.687 664.451 273.09 663.931 273.55L663.481 273.95H666.651V274.9H661.791V274.07L662.511 273.45Z" fill="#525252"/>
<rect x="696" y="171" width="25" height="83" rx="5" fill="#2A8EF1"/>
<path d="M695.52 268.05C696.26 268.05 696.907 268.193 697.46 268.48C698.02 268.76 698.45 269.167 698.75 269.7C699.057 270.227 699.21 270.843 699.21 271.55C699.21 272.257 699.057 272.87 698.75 273.39C698.45 273.91 698.02 274.31 697.46 274.59C696.907 274.863 696.26 275 695.52 275H693.25V268.05H695.52ZM695.52 274.07C696.333 274.07 696.957 273.85 697.39 273.41C697.823 272.97 698.04 272.35 698.04 271.55C698.04 270.743 697.823 270.113 697.39 269.66C696.957 269.207 696.333 268.98 695.52 268.98H694.39V274.07H695.52ZM699.96 272.22C699.96 271.667 700.073 271.177 700.3 270.75C700.533 270.323 700.847 269.993 701.24 269.76C701.64 269.52 702.08 269.4 702.56 269.4C702.993 269.4 703.37 269.487 703.69 269.66C704.017 269.827 704.277 270.037 704.47 270.29V269.49H705.62V275H704.47V274.18C704.277 274.44 704.013 274.657 703.68 274.83C703.347 275.003 702.967 275.09 702.54 275.09C702.067 275.09 701.633 274.97 701.24 274.73C700.847 274.483 700.533 274.143 700.3 273.71C700.073 273.27 699.96 272.773 699.96 272.22ZM704.47 272.24C704.47 271.86 704.39 271.53 704.23 271.25C704.077 270.97 703.873 270.757 703.62 270.61C703.367 270.463 703.093 270.39 702.8 270.39C702.507 270.39 702.233 270.463 701.98 270.61C701.727 270.75 701.52 270.96 701.36 271.24C701.207 271.513 701.13 271.84 701.13 272.22C701.13 272.6 701.207 272.933 701.36 273.22C701.52 273.507 701.727 273.727 701.98 273.88C702.24 274.027 702.513 274.1 702.8 274.1C703.093 274.1 703.367 274.027 703.62 273.88C703.873 273.733 704.077 273.52 704.23 273.24C704.39 272.953 704.47 272.62 704.47 272.24ZM712.077 269.49L708.697 277.59H707.517L708.637 274.91L706.467 269.49H707.737L709.287 273.69L710.897 269.49H712.077ZM715.235 268.75V267.71H717.315V275H716.165V268.75H715.235ZM718.861 269.51C718.901 268.89 719.138 268.407 719.571 268.06C720.011 267.713 720.571 267.54 721.251 267.54C721.718 267.54 722.121 267.623 722.461 267.79C722.801 267.957 723.058 268.183 723.231 268.47C723.405 268.757 723.491 269.08 723.491 269.44C723.491 269.853 723.381 270.207 723.161 270.5C722.941 270.793 722.678 270.99 722.371 271.09V271.13C722.765 271.25 723.071 271.47 723.291 271.79C723.511 272.103 723.621 272.507 723.621 273C723.621 273.393 723.531 273.743 723.351 274.05C723.171 274.357 722.905 274.6 722.551 274.78C722.198 274.953 721.775 275.04 721.281 275.04C720.561 275.04 719.968 274.857 719.501 274.49C719.041 274.117 718.795 273.583 718.761 272.89H719.861C719.888 273.243 720.025 273.533 720.271 273.76C720.518 273.98 720.851 274.09 721.271 274.09C721.678 274.09 721.991 273.98 722.211 273.76C722.431 273.533 722.541 273.243 722.541 272.89C722.541 272.423 722.391 272.093 722.091 271.9C721.798 271.7 721.345 271.6 720.731 271.6H720.471V270.66H720.741C721.281 270.653 721.691 270.563 721.971 270.39C722.258 270.217 722.401 269.943 722.401 269.57C722.401 269.25 722.298 268.997 722.091 268.81C721.885 268.617 721.591 268.52 721.211 268.52C720.838 268.52 720.548 268.617 720.341 268.81C720.135 268.997 720.011 269.23 719.971 269.51H718.861Z" fill="#525252"/>
<rect x="753.5" y="188" width="25" height="66" rx="5" fill="#9FCFFF"/>
<path d="M752.52 268.05C753.26 268.05 753.907 268.193 754.46 268.48C755.02 268.76 755.45 269.167 755.75 269.7C756.057 270.227 756.21 270.843 756.21 271.55C756.21 272.257 756.057 272.87 755.75 273.39C755.45 273.91 755.02 274.31 754.46 274.59C753.907 274.863 753.26 275 752.52 275H750.25V268.05H752.52ZM752.52 274.07C753.333 274.07 753.957 273.85 754.39 273.41C754.823 272.97 755.04 272.35 755.04 271.55C755.04 270.743 754.823 270.113 754.39 269.66C753.957 269.207 753.333 268.98 752.52 268.98H751.39V274.07H752.52ZM756.96 272.22C756.96 271.667 757.073 271.177 757.3 270.75C757.533 270.323 757.847 269.993 758.24 269.76C758.64 269.52 759.08 269.4 759.56 269.4C759.993 269.4 760.37 269.487 760.69 269.66C761.017 269.827 761.277 270.037 761.47 270.29V269.49H762.62V275H761.47V274.18C761.277 274.44 761.013 274.657 760.68 274.83C760.347 275.003 759.967 275.09 759.54 275.09C759.067 275.09 758.633 274.97 758.24 274.73C757.847 274.483 757.533 274.143 757.3 273.71C757.073 273.27 756.96 272.773 756.96 272.22ZM761.47 272.24C761.47 271.86 761.39 271.53 761.23 271.25C761.077 270.97 760.873 270.757 760.62 270.61C760.367 270.463 760.093 270.39 759.8 270.39C759.507 270.39 759.233 270.463 758.98 270.61C758.727 270.75 758.52 270.96 758.36 271.24C758.207 271.513 758.13 271.84 758.13 272.22C758.13 272.6 758.207 272.933 758.36 273.22C758.52 273.507 758.727 273.727 758.98 273.88C759.24 274.027 759.513 274.1 759.8 274.1C760.093 274.1 760.367 274.027 760.62 273.88C760.873 273.733 761.077 273.52 761.23 273.24C761.39 272.953 761.47 272.62 761.47 272.24ZM769.077 269.49L765.697 277.59H764.517L765.637 274.91L763.467 269.49H764.737L766.287 273.69L767.897 269.49H769.077ZM772.235 268.75V267.71H774.315V275H773.165V268.75H772.235ZM775.741 273.48V272.62L779.101 267.8H780.481V272.49H781.411V273.48H780.481V275H779.361V273.48H775.741ZM779.411 268.96L777.051 272.49H779.411V268.96Z" fill="#525252"/>
<rect x="811.5" y="201" width="25" height="53" rx="5" fill="#2A8EF1"/>
<path d="M810.52 268.05C811.26 268.05 811.907 268.193 812.46 268.48C813.02 268.76 813.45 269.167 813.75 269.7C814.057 270.227 814.21 270.843 814.21 271.55C814.21 272.257 814.057 272.87 813.75 273.39C813.45 273.91 813.02 274.31 812.46 274.59C811.907 274.863 811.26 275 810.52 275H808.25V268.05H810.52ZM810.52 274.07C811.333 274.07 811.957 273.85 812.39 273.41C812.823 272.97 813.04 272.35 813.04 271.55C813.04 270.743 812.823 270.113 812.39 269.66C811.957 269.207 811.333 268.98 810.52 268.98H809.39V274.07H810.52ZM814.96 272.22C814.96 271.667 815.073 271.177 815.3 270.75C815.533 270.323 815.847 269.993 816.24 269.76C816.64 269.52 817.08 269.4 817.56 269.4C817.993 269.4 818.37 269.487 818.69 269.66C819.017 269.827 819.277 270.037 819.47 270.29V269.49H820.62V275H819.47V274.18C819.277 274.44 819.013 274.657 818.68 274.83C818.347 275.003 817.967 275.09 817.54 275.09C817.067 275.09 816.633 274.97 816.24 274.73C815.847 274.483 815.533 274.143 815.3 273.71C815.073 273.27 814.96 272.773 814.96 272.22ZM819.47 272.24C819.47 271.86 819.39 271.53 819.23 271.25C819.077 270.97 818.873 270.757 818.62 270.61C818.367 270.463 818.093 270.39 817.8 270.39C817.507 270.39 817.233 270.463 816.98 270.61C816.727 270.75 816.52 270.96 816.36 271.24C816.207 271.513 816.13 271.84 816.13 272.22C816.13 272.6 816.207 272.933 816.36 273.22C816.52 273.507 816.727 273.727 816.98 273.88C817.24 274.027 817.513 274.1 817.8 274.1C818.093 274.1 818.367 274.027 818.62 273.88C818.873 273.733 819.077 273.52 819.23 273.24C819.39 272.953 819.47 272.62 819.47 272.24ZM827.077 269.49L823.697 277.59H822.517L823.637 274.91L821.467 269.49H822.737L824.287 273.69L825.897 269.49H827.077ZM830.235 268.75V267.71H832.315V275H831.165V268.75H830.235ZM838.581 268.69H835.231V270.68C835.371 270.493 835.578 270.337 835.851 270.21C836.131 270.083 836.428 270.02 836.741 270.02C837.301 270.02 837.755 270.14 838.101 270.38C838.455 270.62 838.705 270.923 838.851 271.29C839.005 271.657 839.081 272.043 839.081 272.45C839.081 272.943 838.985 273.383 838.791 273.77C838.605 274.15 838.321 274.45 837.941 274.67C837.568 274.89 837.108 275 836.561 275C835.835 275 835.251 274.82 834.811 274.46C834.371 274.1 834.108 273.623 834.021 273.03H835.131C835.205 273.343 835.368 273.593 835.621 273.78C835.875 273.96 836.191 274.05 836.571 274.05C837.045 274.05 837.398 273.907 837.631 273.62C837.871 273.333 837.991 272.953 837.991 272.48C837.991 272 837.871 271.633 837.631 271.38C837.391 271.12 837.038 270.99 836.571 270.99C836.245 270.99 835.968 271.073 835.741 271.24C835.521 271.4 835.361 271.62 835.261 271.9H834.181V267.69H838.581V268.69Z" fill="#525252"/>
<rect x="869.5" y="171" width="25" height="83" rx="5" fill="#9FCFFF"/>
<path d="M868.52 268.05C869.26 268.05 869.907 268.193 870.46 268.48C871.02 268.76 871.45 269.167 871.75 269.7C872.057 270.227 872.21 270.843 872.21 271.55C872.21 272.257 872.057 272.87 871.75 273.39C871.45 273.91 871.02 274.31 870.46 274.59C869.907 274.863 869.26 275 868.52 275H866.25V268.05H868.52ZM868.52 274.07C869.333 274.07 869.957 273.85 870.39 273.41C870.823 272.97 871.04 272.35 871.04 271.55C871.04 270.743 870.823 270.113 870.39 269.66C869.957 269.207 869.333 268.98 868.52 268.98H867.39V274.07H868.52ZM872.96 272.22C872.96 271.667 873.073 271.177 873.3 270.75C873.533 270.323 873.847 269.993 874.24 269.76C874.64 269.52 875.08 269.4 875.56 269.4C875.993 269.4 876.37 269.487 876.69 269.66C877.017 269.827 877.277 270.037 877.47 270.29V269.49H878.62V275H877.47V274.18C877.277 274.44 877.013 274.657 876.68 274.83C876.347 275.003 875.967 275.09 875.54 275.09C875.067 275.09 874.633 274.97 874.24 274.73C873.847 274.483 873.533 274.143 873.3 273.71C873.073 273.27 872.96 272.773 872.96 272.22ZM877.47 272.24C877.47 271.86 877.39 271.53 877.23 271.25C877.077 270.97 876.873 270.757 876.62 270.61C876.367 270.463 876.093 270.39 875.8 270.39C875.507 270.39 875.233 270.463 874.98 270.61C874.727 270.75 874.52 270.96 874.36 271.24C874.207 271.513 874.13 271.84 874.13 272.22C874.13 272.6 874.207 272.933 874.36 273.22C874.52 273.507 874.727 273.727 874.98 273.88C875.24 274.027 875.513 274.1 875.8 274.1C876.093 274.1 876.367 274.027 876.62 273.88C876.873 273.733 877.077 273.52 877.23 273.24C877.39 272.953 877.47 272.62 877.47 272.24ZM885.077 269.49L881.697 277.59H880.517L881.637 274.91L879.467 269.49H880.737L882.287 273.69L883.897 269.49H885.077ZM888.235 268.75V267.71H890.315V275H889.165V268.75H888.235ZM895.801 269.4C895.728 269.093 895.595 268.863 895.401 268.71C895.208 268.557 894.938 268.48 894.591 268.48C894.065 268.48 893.671 268.683 893.411 269.09C893.151 269.49 893.015 270.157 893.001 271.09C893.175 270.797 893.428 270.57 893.761 270.41C894.095 270.25 894.455 270.17 894.841 270.17C895.281 270.17 895.668 270.267 896.001 270.46C896.341 270.647 896.605 270.92 896.791 271.28C896.985 271.64 897.081 272.07 897.081 272.57C897.081 273.037 896.988 273.453 896.801 273.82C896.621 274.187 896.351 274.477 895.991 274.69C895.631 274.897 895.198 275 894.691 275C894.005 275 893.465 274.85 893.071 274.55C892.685 274.243 892.411 273.813 892.251 273.26C892.098 272.707 892.021 272.017 892.021 271.19C892.021 268.75 892.881 267.53 894.601 267.53C895.268 267.53 895.791 267.71 896.171 268.07C896.558 268.43 896.785 268.873 896.851 269.4H895.801ZM894.591 271.13C894.185 271.13 893.838 271.253 893.551 271.5C893.271 271.74 893.131 272.09 893.131 272.55C893.131 273.01 893.261 273.377 893.521 273.65C893.788 273.917 894.158 274.05 894.631 274.05C895.051 274.05 895.381 273.92 895.621 273.66C895.868 273.4 895.991 273.053 895.991 272.62C895.991 272.167 895.871 271.807 895.631 271.54C895.398 271.267 895.051 271.13 894.591 271.13Z" fill="#525252"/>
<rect x="927" y="201" width="25" height="53" rx="5" fill="#2A8EF1"/>
<path d="M926.52 268.05C927.26 268.05 927.907 268.193 928.46 268.48C929.02 268.76 929.45 269.167 929.75 269.7C930.057 270.227 930.21 270.843 930.21 271.55C930.21 272.257 930.057 272.87 929.75 273.39C929.45 273.91 929.02 274.31 928.46 274.59C927.907 274.863 927.26 275 926.52 275H924.25V268.05H926.52ZM926.52 274.07C927.333 274.07 927.957 273.85 928.39 273.41C928.823 272.97 929.04 272.35 929.04 271.55C929.04 270.743 928.823 270.113 928.39 269.66C927.957 269.207 927.333 268.98 926.52 268.98H925.39V274.07H926.52ZM930.96 272.22C930.96 271.667 931.073 271.177 931.3 270.75C931.533 270.323 931.847 269.993 932.24 269.76C932.64 269.52 933.08 269.4 933.56 269.4C933.993 269.4 934.37 269.487 934.69 269.66C935.017 269.827 935.277 270.037 935.47 270.29V269.49H936.62V275H935.47V274.18C935.277 274.44 935.013 274.657 934.68 274.83C934.347 275.003 933.967 275.09 933.54 275.09C933.067 275.09 932.633 274.97 932.24 274.73C931.847 274.483 931.533 274.143 931.3 273.71C931.073 273.27 930.96 272.773 930.96 272.22ZM935.47 272.24C935.47 271.86 935.39 271.53 935.23 271.25C935.077 270.97 934.873 270.757 934.62 270.61C934.367 270.463 934.093 270.39 933.8 270.39C933.507 270.39 933.233 270.463 932.98 270.61C932.727 270.75 932.52 270.96 932.36 271.24C932.207 271.513 932.13 271.84 932.13 272.22C932.13 272.6 932.207 272.933 932.36 273.22C932.52 273.507 932.727 273.727 932.98 273.88C933.24 274.027 933.513 274.1 933.8 274.1C934.093 274.1 934.367 274.027 934.62 273.88C934.873 273.733 935.077 273.52 935.23 273.24C935.39 272.953 935.47 272.62 935.47 272.24ZM943.077 269.49L939.697 277.59H938.517L939.637 274.91L937.467 269.49H938.737L940.287 273.69L941.897 269.49H943.077ZM946.235 268.75V267.71H948.315V275H947.165V268.75H946.235ZM954.501 268.59L951.721 275H950.571L953.381 268.71H949.681V267.74H954.501V268.59Z" fill="#525252"/>
<rect x="984.5" y="171" width="25" height="83" rx="5" fill="#9FCFFF"/>
<path d="M983.52 268.05C984.26 268.05 984.907 268.193 985.46 268.48C986.02 268.76 986.45 269.167 986.75 269.7C987.057 270.227 987.21 270.843 987.21 271.55C987.21 272.257 987.057 272.87 986.75 273.39C986.45 273.91 986.02 274.31 985.46 274.59C984.907 274.863 984.26 275 983.52 275H981.25V268.05H983.52ZM983.52 274.07C984.333 274.07 984.957 273.85 985.39 273.41C985.823 272.97 986.04 272.35 986.04 271.55C986.04 270.743 985.823 270.113 985.39 269.66C984.957 269.207 984.333 268.98 983.52 268.98H982.39V274.07H983.52ZM987.96 272.22C987.96 271.667 988.073 271.177 988.3 270.75C988.533 270.323 988.847 269.993 989.24 269.76C989.64 269.52 990.08 269.4 990.56 269.4C990.993 269.4 991.37 269.487 991.69 269.66C992.017 269.827 992.277 270.037 992.47 270.29V269.49H993.62V275H992.47V274.18C992.277 274.44 992.013 274.657 991.68 274.83C991.347 275.003 990.967 275.09 990.54 275.09C990.067 275.09 989.633 274.97 989.24 274.73C988.847 274.483 988.533 274.143 988.3 273.71C988.073 273.27 987.96 272.773 987.96 272.22ZM992.47 272.24C992.47 271.86 992.39 271.53 992.23 271.25C992.077 270.97 991.873 270.757 991.62 270.61C991.367 270.463 991.093 270.39 990.8 270.39C990.507 270.39 990.233 270.463 989.98 270.61C989.727 270.75 989.52 270.96 989.36 271.24C989.207 271.513 989.13 271.84 989.13 272.22C989.13 272.6 989.207 272.933 989.36 273.22C989.52 273.507 989.727 273.727 989.98 273.88C990.24 274.027 990.513 274.1 990.8 274.1C991.093 274.1 991.367 274.027 991.62 273.88C991.873 273.733 992.077 273.52 992.23 273.24C992.39 272.953 992.47 272.62 992.47 272.24ZM1000.08 269.49L996.697 277.59H995.517L996.637 274.91L994.467 269.49H995.737L997.287 273.69L998.897 269.49H1000.08ZM1003.24 268.75V267.71H1005.32V275H1004.17V268.75H1003.24ZM1008.11 271.19C1007.42 270.843 1007.07 270.297 1007.07 269.55C1007.07 269.19 1007.16 268.86 1007.34 268.56C1007.52 268.26 1007.79 268.023 1008.15 267.85C1008.51 267.67 1008.95 267.58 1009.47 267.58C1009.98 267.58 1010.42 267.67 1010.78 267.85C1011.15 268.023 1011.42 268.26 1011.6 268.56C1011.78 268.86 1011.87 269.19 1011.87 269.55C1011.87 269.923 1011.77 270.253 1011.58 270.54C1011.39 270.82 1011.14 271.037 1010.83 271.19C1011.21 271.33 1011.51 271.56 1011.73 271.88C1011.95 272.193 1012.06 272.563 1012.06 272.99C1012.06 273.423 1011.95 273.807 1011.73 274.14C1011.51 274.473 1011.2 274.73 1010.81 274.91C1010.42 275.09 1009.97 275.18 1009.47 275.18C1008.97 275.18 1008.52 275.09 1008.13 274.91C1007.74 274.73 1007.44 274.473 1007.22 274.14C1007 273.807 1006.89 273.423 1006.89 272.99C1006.89 272.557 1007 272.183 1007.22 271.87C1007.44 271.557 1007.74 271.33 1008.11 271.19ZM1010.78 269.69C1010.78 269.317 1010.66 269.03 1010.43 268.83C1010.2 268.63 1009.88 268.53 1009.47 268.53C1009.07 268.53 1008.75 268.63 1008.52 268.83C1008.29 269.03 1008.17 269.32 1008.17 269.7C1008.17 270.033 1008.29 270.307 1008.53 270.52C1008.78 270.727 1009.09 270.83 1009.47 270.83C1009.85 270.83 1010.16 270.723 1010.41 270.51C1010.66 270.297 1010.78 270.023 1010.78 269.69ZM1009.47 271.69C1009.03 271.69 1008.67 271.8 1008.39 272.02C1008.12 272.233 1007.98 272.543 1007.98 272.95C1007.98 273.33 1008.11 273.64 1008.38 273.88C1008.65 274.113 1009.01 274.23 1009.47 274.23C1009.92 274.23 1010.28 274.11 1010.54 273.87C1010.81 273.63 1010.94 273.323 1010.94 272.95C1010.94 272.55 1010.8 272.24 1010.53 272.02C1010.26 271.8 1009.91 271.69 1009.47 271.69Z" fill="#525252"/>
</g>
<defs>
<filter id="filter0_d_97_1159" x="0" y="0" width="1056" height="323" filterUnits="userSpaceOnUse" color-interpolation-filters="sRGB">
<feFlood flood-opacity="0" result="BackgroundImageFix"/>
<feColorMatrix in="SourceAlpha" type="matrix" values="0 0 0 0 0 0 0 0 0 0 0 0 0 0 0 0 0 0 127 0" result="hardAlpha"/>
<feOffset/>
<feGaussianBlur stdDeviation="2"/>
<feComposite in2="hardAlpha" operator="out"/>
<feColorMatrix type="matrix" values="0 0 0 0 0 0 0 0 0 0 0 0 0 0 0 0 0 0 0.1 0"/>
<feBlend mode="normal" in2="BackgroundImageFix" result="effect1_dropShadow_97_1159"/>
<feBlend mode="normal" in="SourceGraphic" in2="effect1_dropShadow_97_1159" result="shape"/>
</filter>
<clipPath id="clip0_97_1159">
<rect width="50" height="50" fill="white" transform="translate(884.5 35)"/>
</clipPath>
</defs>
</svg>
