<svg width="1085" height="259" viewBox="0 0 1085 259" fill="none" xmlns="http://www.w3.org/2000/svg">
<g filter="url(#filter0_d_122_1199)">
<rect x="6" y="6" width="1073" height="247" rx="10" fill="white" shape-rendering="crispEdges"/>
<path d="M33.824 41.52H28.96L28.064 44H26.528L30.56 32.912H32.24L36.256 44H34.72L33.824 41.52ZM33.408 40.336L31.392 34.704L29.376 40.336H33.408ZM39.4693 36.848C39.7573 36.3467 40.1839 35.9307 40.7493 35.6C41.3253 35.2587 41.9919 35.088 42.7493 35.088C43.5279 35.088 44.2319 35.2747 44.8612 35.648C45.5012 36.0213 46.0026 36.5493 46.3653 37.232C46.7279 37.904 46.9093 38.688 46.9093 39.584C46.9093 40.4693 46.7279 41.2587 46.3653 41.952C46.0026 42.6453 45.5012 43.184 44.8612 43.568C44.2319 43.952 43.5279 44.144 42.7493 44.144C42.0026 44.144 41.3413 43.9787 40.7653 43.648C40.1999 43.3067 39.7679 42.8853 39.4693 42.384V48.16H38.0133V35.232H39.4693V36.848ZM45.4213 39.584C45.4213 38.9227 45.2879 38.3467 45.0213 37.856C44.7546 37.3653 44.3919 36.992 43.9333 36.736C43.4853 36.48 42.9893 36.352 42.4453 36.352C41.9119 36.352 41.4159 36.4853 40.9573 36.752C40.5093 37.008 40.1466 37.3867 39.8693 37.888C39.6026 38.3787 39.4693 38.9493 39.4693 39.6C39.4693 40.2613 39.6026 40.8427 39.8693 41.344C40.1466 41.8347 40.5093 42.2133 40.9573 42.48C41.4159 42.736 41.9119 42.864 42.4453 42.864C42.9893 42.864 43.4853 42.736 43.9333 42.48C44.3919 42.2133 44.7546 41.8347 45.0213 41.344C45.2879 40.8427 45.4213 40.256 45.4213 39.584ZM50.2818 36.848C50.5698 36.3467 50.9964 35.9307 51.5618 35.6C52.1378 35.2587 52.8044 35.088 53.5618 35.088C54.3404 35.088 55.0444 35.2747 55.6737 35.648C56.3137 36.0213 56.8151 36.5493 57.1778 37.232C57.5404 37.904 57.7218 38.688 57.7218 39.584C57.7218 40.4693 57.5404 41.2587 57.1778 41.952C56.8151 42.6453 56.3137 43.184 55.6737 43.568C55.0444 43.952 54.3404 44.144 53.5618 44.144C52.8151 44.144 52.1538 43.9787 51.5778 43.648C51.0124 43.3067 50.5804 42.8853 50.2818 42.384V48.16H48.8258V35.232H50.2818V36.848ZM56.2338 39.584C56.2338 38.9227 56.1004 38.3467 55.8338 37.856C55.5671 37.3653 55.2044 36.992 54.7458 36.736C54.2978 36.48 53.8018 36.352 53.2578 36.352C52.7244 36.352 52.2284 36.4853 51.7698 36.752C51.3218 37.008 50.9591 37.3867 50.6818 37.888C50.4151 38.3787 50.2818 38.9493 50.2818 39.6C50.2818 40.2613 50.4151 40.8427 50.6818 41.344C50.9591 41.8347 51.3218 42.2133 51.7698 42.48C52.2284 42.736 52.7244 42.864 53.2578 42.864C53.8018 42.864 54.2978 42.736 54.7458 42.48C55.2044 42.2133 55.5671 41.8347 55.8338 41.344C56.1004 40.8427 56.2338 40.256 56.2338 39.584ZM61.0943 32.16V44H59.6383V32.16H61.0943ZM64.3278 33.808C64.0504 33.808 63.8158 33.712 63.6238 33.52C63.4318 33.328 63.3358 33.0933 63.3358 32.816C63.3358 32.5387 63.4318 32.304 63.6238 32.112C63.8158 31.92 64.0504 31.824 64.3278 31.824C64.5944 31.824 64.8184 31.92 64.9998 32.112C65.1918 32.304 65.2878 32.5387 65.2878 32.816C65.2878 33.0933 65.1918 33.328 64.9998 33.52C64.8184 33.712 64.5944 33.808 64.3278 33.808ZM65.0318 35.232V44H63.5758V35.232H65.0318ZM66.9693 39.6C66.9693 38.6933 67.1506 37.904 67.5133 37.232C67.8759 36.5493 68.3773 36.0213 69.0173 35.648C69.6679 35.2747 70.4093 35.088 71.2413 35.088C72.3186 35.088 73.2039 35.3493 73.8973 35.872C74.6013 36.3947 75.0653 37.12 75.2893 38.048H73.7213C73.5719 37.5147 73.2786 37.0933 72.8413 36.784C72.4146 36.4747 71.8813 36.32 71.2413 36.32C70.4093 36.32 69.7373 36.608 69.2253 37.184C68.7133 37.7493 68.4573 38.5547 68.4573 39.6C68.4573 40.656 68.7133 41.472 69.2253 42.048C69.7373 42.624 70.4093 42.912 71.2413 42.912C71.8813 42.912 72.4146 42.7627 72.8413 42.464C73.2679 42.1653 73.5613 41.7387 73.7213 41.184H75.2893C75.0546 42.08 74.5853 42.8 73.8813 43.344C73.1773 43.8773 72.2973 44.144 71.2413 44.144C70.4093 44.144 69.6679 43.9573 69.0173 43.584C68.3773 43.2107 67.8759 42.6827 67.5133 42C67.1506 41.3173 66.9693 40.5173 66.9693 39.6ZM76.688 39.584C76.688 38.688 76.8693 37.904 77.232 37.232C77.5947 36.5493 78.0907 36.0213 78.72 35.648C79.36 35.2747 80.0693 35.088 80.848 35.088C81.616 35.088 82.2827 35.2533 82.848 35.584C83.4133 35.9147 83.8347 36.3307 84.112 36.832V35.232H85.584V44H84.112V42.368C83.824 42.88 83.392 43.3067 82.816 43.648C82.2507 43.9787 81.5893 44.144 80.832 44.144C80.0533 44.144 79.3493 43.952 78.72 43.568C78.0907 43.184 77.5947 42.6453 77.232 41.952C76.8693 41.2587 76.688 40.4693 76.688 39.584ZM84.112 39.6C84.112 38.9387 83.9787 38.3627 83.712 37.872C83.4453 37.3813 83.0827 37.008 82.624 36.752C82.176 36.4853 81.68 36.352 81.136 36.352C80.592 36.352 80.096 36.48 79.648 36.736C79.2 36.992 78.8427 37.3653 78.576 37.856C78.3093 38.3467 78.176 38.9227 78.176 39.584C78.176 40.256 78.3093 40.8427 78.576 41.344C78.8427 41.8347 79.2 42.2133 79.648 42.48C80.096 42.736 80.592 42.864 81.136 42.864C81.68 42.864 82.176 42.736 82.624 42.48C83.0827 42.2133 83.4453 41.8347 83.712 41.344C83.9787 40.8427 84.112 40.2613 84.112 39.6ZM89.8205 36.432V41.6C89.8205 42.0267 89.9112 42.3307 90.0925 42.512C90.2738 42.6827 90.5885 42.768 91.0365 42.768H92.1085V44H90.7965C89.9858 44 89.3778 43.8133 88.9725 43.44C88.5672 43.0667 88.3645 42.4533 88.3645 41.6V36.432H87.2285V35.232H88.3645V33.024H89.8205V35.232H92.1085V36.432H89.8205ZM94.6246 33.808C94.3473 33.808 94.1126 33.712 93.9206 33.52C93.7286 33.328 93.6326 33.0933 93.6326 32.816C93.6326 32.5387 93.7286 32.304 93.9206 32.112C94.1126 31.92 94.3473 31.824 94.6246 31.824C94.8913 31.824 95.1153 31.92 95.2966 32.112C95.4886 32.304 95.5846 32.5387 95.5846 32.816C95.5846 33.0933 95.4886 33.328 95.2966 33.52C95.1153 33.712 94.8913 33.808 94.6246 33.808ZM95.3286 35.232V44H93.8726V35.232H95.3286ZM101.634 44.144C100.813 44.144 100.066 43.9573 99.3941 43.584C98.7328 43.2107 98.2101 42.6827 97.8261 42C97.4528 41.3067 97.2661 40.5067 97.2661 39.6C97.2661 38.704 97.4581 37.9147 97.8421 37.232C98.2368 36.5387 98.7701 36.0107 99.4421 35.648C100.114 35.2747 100.866 35.088 101.698 35.088C102.53 35.088 103.282 35.2747 103.954 35.648C104.626 36.0107 105.154 36.5333 105.538 37.216C105.933 37.8987 106.13 38.6933 106.13 39.6C106.13 40.5067 105.927 41.3067 105.522 42C105.127 42.6827 104.589 43.2107 103.906 43.584C103.223 43.9573 102.466 44.144 101.634 44.144ZM101.634 42.864C102.157 42.864 102.647 42.7413 103.106 42.496C103.565 42.2507 103.933 41.8827 104.21 41.392C104.498 40.9013 104.642 40.304 104.642 39.6C104.642 38.896 104.503 38.2987 104.226 37.808C103.949 37.3173 103.586 36.9547 103.138 36.72C102.69 36.4747 102.205 36.352 101.682 36.352C101.149 36.352 100.658 36.4747 100.21 36.72C99.7728 36.9547 99.4208 37.3173 99.1541 37.808C98.8875 38.2987 98.7541 38.896 98.7541 39.6C98.7541 40.3147 98.8821 40.9173 99.1381 41.408C99.4048 41.8987 99.7568 42.2667 100.194 42.512C100.631 42.7467 101.111 42.864 101.634 42.864ZM112.317 35.072C113.383 35.072 114.247 35.3973 114.909 36.048C115.57 36.688 115.901 37.616 115.901 38.832V44H114.461V39.04C114.461 38.1653 114.242 37.4987 113.805 37.04C113.367 36.5707 112.77 36.336 112.013 36.336C111.245 36.336 110.631 36.576 110.173 37.056C109.725 37.536 109.501 38.2347 109.501 39.152V44H108.045V35.232H109.501V36.48C109.789 36.032 110.178 35.6853 110.669 35.44C111.17 35.1947 111.719 35.072 112.317 35.072ZM126.081 44.112C125.345 44.112 124.683 43.984 124.097 43.728C123.521 43.4613 123.067 43.0987 122.737 42.64C122.406 42.1707 122.235 41.632 122.225 41.024H123.777C123.83 41.5467 124.043 41.9893 124.417 42.352C124.801 42.704 125.355 42.88 126.081 42.88C126.774 42.88 127.318 42.7093 127.713 42.368C128.118 42.016 128.321 41.568 128.321 41.024C128.321 40.5973 128.203 40.2507 127.969 39.984C127.734 39.7173 127.441 39.5147 127.089 39.376C126.737 39.2373 126.262 39.088 125.665 38.928C124.929 38.736 124.337 38.544 123.889 38.352C123.451 38.16 123.073 37.8613 122.753 37.456C122.443 37.04 122.289 36.4853 122.289 35.792C122.289 35.184 122.443 34.6453 122.753 34.176C123.062 33.7067 123.494 33.344 124.049 33.088C124.614 32.832 125.259 32.704 125.985 32.704C127.03 32.704 127.883 32.9653 128.545 33.488C129.217 34.0107 129.595 34.704 129.681 35.568H128.081C128.027 35.1413 127.803 34.768 127.409 34.448C127.014 34.1173 126.491 33.952 125.841 33.952C125.233 33.952 124.737 34.112 124.353 34.432C123.969 34.7413 123.777 35.1787 123.777 35.744C123.777 36.1493 123.889 36.48 124.113 36.736C124.347 36.992 124.63 37.1893 124.961 37.328C125.302 37.456 125.777 37.6053 126.385 37.776C127.121 37.9787 127.713 38.1813 128.161 38.384C128.609 38.576 128.993 38.88 129.312 39.296C129.633 39.7013 129.793 40.256 129.793 40.96C129.793 41.504 129.649 42.016 129.361 42.496C129.073 42.976 128.646 43.3653 128.081 43.664C127.515 43.9627 126.849 44.112 126.081 44.112ZM139.711 35.232V44H138.255V42.704C137.978 43.152 137.588 43.504 137.087 43.76C136.596 44.0053 136.052 44.128 135.455 44.128C134.772 44.128 134.159 43.9893 133.615 43.712C133.071 43.424 132.639 42.9973 132.319 42.432C132.01 41.8667 131.855 41.1787 131.855 40.368V35.232H133.295V40.176C133.295 41.04 133.514 41.7067 133.951 42.176C134.388 42.6347 134.986 42.864 135.743 42.864C136.522 42.864 137.135 42.624 137.583 42.144C138.031 41.664 138.255 40.9653 138.255 40.048V35.232H139.711ZM143.626 36.864C143.924 36.3413 144.362 35.9147 144.938 35.584C145.514 35.2533 146.17 35.088 146.906 35.088C147.695 35.088 148.404 35.2747 149.034 35.648C149.663 36.0213 150.159 36.5493 150.522 37.232C150.884 37.904 151.066 38.688 151.066 39.584C151.066 40.4693 150.884 41.2587 150.522 41.952C150.159 42.6453 149.657 43.184 149.017 43.568C148.388 43.952 147.684 44.144 146.906 44.144C146.148 44.144 145.482 43.9787 144.906 43.648C144.34 43.3173 143.914 42.896 143.626 42.384V44H142.17V32.16H143.626V36.864ZM149.578 39.584C149.578 38.9227 149.444 38.3467 149.178 37.856C148.911 37.3653 148.548 36.992 148.09 36.736C147.642 36.48 147.146 36.352 146.602 36.352C146.068 36.352 145.572 36.4853 145.114 36.752C144.666 37.008 144.303 37.3867 144.026 37.888C143.759 38.3787 143.626 38.9493 143.626 39.6C143.626 40.2613 143.759 40.8427 144.026 41.344C144.303 41.8347 144.666 42.2133 145.114 42.48C145.572 42.736 146.068 42.864 146.602 42.864C147.146 42.864 147.642 42.736 148.09 42.48C148.548 42.2133 148.911 41.8347 149.178 41.344C149.444 40.8427 149.578 40.256 149.578 39.584ZM163.526 35.072C164.209 35.072 164.817 35.216 165.35 35.504C165.883 35.7813 166.305 36.2027 166.614 36.768C166.923 37.3333 167.078 38.0213 167.078 38.832V44H165.638V39.04C165.638 38.1653 165.419 37.4987 164.982 37.04C164.555 36.5707 163.974 36.336 163.238 36.336C162.481 36.336 161.878 36.5813 161.43 37.072C160.982 37.552 160.758 38.2507 160.758 39.168V44H159.318V39.04C159.318 38.1653 159.099 37.4987 158.662 37.04C158.235 36.5707 157.654 36.336 156.918 36.336C156.161 36.336 155.558 36.5813 155.11 37.072C154.662 37.552 154.438 38.2507 154.438 39.168V44H152.982V35.232H154.438V36.496C154.726 36.0373 155.11 35.6853 155.59 35.44C156.081 35.1947 156.619 35.072 157.206 35.072C157.942 35.072 158.593 35.2373 159.158 35.568C159.723 35.8987 160.145 36.384 160.422 37.024C160.667 36.4053 161.073 35.9253 161.638 35.584C162.203 35.2427 162.833 35.072 163.526 35.072ZM170.218 33.808C169.941 33.808 169.706 33.712 169.514 33.52C169.322 33.328 169.226 33.0933 169.226 32.816C169.226 32.5387 169.322 32.304 169.514 32.112C169.706 31.92 169.941 31.824 170.218 31.824C170.485 31.824 170.709 31.92 170.89 32.112C171.082 32.304 171.178 32.5387 171.178 32.816C171.178 33.0933 171.082 33.328 170.89 33.52C170.709 33.712 170.485 33.808 170.218 33.808ZM170.922 35.232V44H169.466V35.232H170.922ZM176.508 44.144C175.836 44.144 175.233 44.032 174.7 43.808C174.167 43.5733 173.745 43.2533 173.436 42.848C173.127 42.432 172.956 41.9573 172.924 41.424H174.428C174.471 41.8613 174.673 42.2187 175.036 42.496C175.409 42.7733 175.895 42.912 176.492 42.912C177.047 42.912 177.484 42.7893 177.804 42.544C178.124 42.2987 178.284 41.9893 178.284 41.616C178.284 41.232 178.113 40.9493 177.772 40.768C177.431 40.576 176.903 40.3893 176.188 40.208C175.537 40.0373 175.004 39.8667 174.588 39.696C174.183 39.5147 173.831 39.2533 173.532 38.912C173.244 38.56 173.1 38.1013 173.1 37.536C173.1 37.088 173.233 36.6773 173.5 36.304C173.767 35.9307 174.145 35.6373 174.636 35.424C175.127 35.2 175.687 35.088 176.316 35.088C177.287 35.088 178.071 35.3333 178.668 35.824C179.265 36.3147 179.585 36.9867 179.628 37.84H178.172C178.14 37.3813 177.953 37.0133 177.612 36.736C177.281 36.4587 176.833 36.32 176.268 36.32C175.745 36.32 175.329 36.432 175.02 36.656C174.711 36.88 174.556 37.1733 174.556 37.536C174.556 37.824 174.647 38.064 174.828 38.256C175.02 38.4373 175.255 38.5867 175.532 38.704C175.82 38.8107 176.215 38.9333 176.716 39.072C177.345 39.2427 177.857 39.4133 178.252 39.584C178.647 39.744 178.983 39.9893 179.26 40.32C179.548 40.6507 179.697 41.0827 179.708 41.616C179.708 42.096 179.575 42.528 179.308 42.912C179.041 43.296 178.663 43.6 178.172 43.824C177.692 44.0373 177.137 44.144 176.508 44.144ZM184.867 44.144C184.195 44.144 183.593 44.032 183.059 43.808C182.526 43.5733 182.105 43.2533 181.795 42.848C181.486 42.432 181.315 41.9573 181.283 41.424H182.787C182.83 41.8613 183.033 42.2187 183.395 42.496C183.769 42.7733 184.254 42.912 184.851 42.912C185.406 42.912 185.843 42.7893 186.163 42.544C186.483 42.2987 186.643 41.9893 186.643 41.616C186.643 41.232 186.473 40.9493 186.131 40.768C185.79 40.576 185.262 40.3893 184.547 40.208C183.897 40.0373 183.363 39.8667 182.947 39.696C182.542 39.5147 182.19 39.2533 181.891 38.912C181.603 38.56 181.459 38.1013 181.459 37.536C181.459 37.088 181.593 36.6773 181.859 36.304C182.126 35.9307 182.505 35.6373 182.995 35.424C183.486 35.2 184.046 35.088 184.675 35.088C185.646 35.088 186.43 35.3333 187.027 35.824C187.625 36.3147 187.945 36.9867 187.987 37.84H186.531C186.499 37.3813 186.313 37.0133 185.971 36.736C185.641 36.4587 185.193 36.32 184.627 36.32C184.105 36.32 183.689 36.432 183.379 36.656C183.07 36.88 182.915 37.1733 182.915 37.536C182.915 37.824 183.006 38.064 183.187 38.256C183.379 38.4373 183.614 38.5867 183.891 38.704C184.179 38.8107 184.574 38.9333 185.075 39.072C185.705 39.2427 186.217 39.4133 186.611 39.584C187.006 39.744 187.342 39.9893 187.619 40.32C187.907 40.6507 188.057 41.0827 188.067 41.616C188.067 42.096 187.934 42.528 187.667 42.912C187.401 43.296 187.022 43.6 186.531 43.824C186.051 44.0373 185.497 44.144 184.867 44.144ZM190.875 33.808C190.597 33.808 190.363 33.712 190.171 33.52C189.979 33.328 189.883 33.0933 189.883 32.816C189.883 32.5387 189.979 32.304 190.171 32.112C190.363 31.92 190.597 31.824 190.875 31.824C191.141 31.824 191.365 31.92 191.547 32.112C191.739 32.304 191.835 32.5387 191.835 32.816C191.835 33.0933 191.739 33.328 191.547 33.52C191.365 33.712 191.141 33.808 190.875 33.808ZM191.579 35.232V44H190.123V35.232H191.579ZM197.884 44.144C197.063 44.144 196.316 43.9573 195.644 43.584C194.983 43.2107 194.46 42.6827 194.076 42C193.703 41.3067 193.516 40.5067 193.516 39.6C193.516 38.704 193.708 37.9147 194.092 37.232C194.487 36.5387 195.02 36.0107 195.692 35.648C196.364 35.2747 197.116 35.088 197.948 35.088C198.78 35.088 199.532 35.2747 200.204 35.648C200.876 36.0107 201.404 36.5333 201.788 37.216C202.183 37.8987 202.38 38.6933 202.38 39.6C202.38 40.5067 202.177 41.3067 201.772 42C201.377 42.6827 200.839 43.2107 200.156 43.584C199.473 43.9573 198.716 44.144 197.884 44.144ZM197.884 42.864C198.407 42.864 198.897 42.7413 199.356 42.496C199.815 42.2507 200.183 41.8827 200.46 41.392C200.748 40.9013 200.892 40.304 200.892 39.6C200.892 38.896 200.753 38.2987 200.476 37.808C200.199 37.3173 199.836 36.9547 199.388 36.72C198.94 36.4747 198.455 36.352 197.932 36.352C197.399 36.352 196.908 36.4747 196.46 36.72C196.023 36.9547 195.671 37.3173 195.404 37.808C195.137 38.2987 195.004 38.896 195.004 39.6C195.004 40.3147 195.132 40.9173 195.388 41.408C195.655 41.8987 196.007 42.2667 196.444 42.512C196.881 42.7467 197.361 42.864 197.884 42.864ZM208.567 35.072C209.633 35.072 210.497 35.3973 211.159 36.048C211.82 36.688 212.151 37.616 212.151 38.832V44H210.711V39.04C210.711 38.1653 210.492 37.4987 210.055 37.04C209.617 36.5707 209.02 36.336 208.263 36.336C207.495 36.336 206.881 36.576 206.423 37.056C205.975 37.536 205.751 38.2347 205.751 39.152V44H204.295V35.232H205.751V36.48C206.039 36.032 206.428 35.6853 206.919 35.44C207.42 35.1947 207.969 35.072 208.567 35.072Z" fill="#2A8EF1"/>
<g clip-path="url(#clip0_122_1199)">
<path d="M132 69H1025" stroke="#525252" stroke-width="0.5" stroke-linecap="round"/>
<path d="M132 112.279H1025" stroke="#525252" stroke-width="0.5" stroke-linecap="round"/>
<path d="M132 155.558H1025" stroke="#525252" stroke-width="0.5" stroke-linecap="round"/>
<path d="M132 198.836H1025" stroke="#525252" stroke-width="0.5" stroke-linecap="round"/>
<path d="M344.571 69V201" stroke="#525252" stroke-width="0.5" stroke-linecap="round"/>
<path d="M579 69V201" stroke="#525252" stroke-width="0.5" stroke-linecap="round"/>
<path d="M813.308 69V201" stroke="#525252" stroke-width="0.5" stroke-linecap="round"/>
<path d="M332.194 141C210.69 80.1999 104.373 189 66.403 251L-57 439H157.531H1215L1178.93 -35C1057.42 81 792.013 278.6 702.403 141C590.391 -31.0001 484.075 217 332.194 141Z" fill="#9FCFFF" fill-opacity="0.6" stroke="#2A8EF1" stroke-width="2" stroke-linecap="round"/>
</g>
<path d="M205.136 219.636V225.816C205.136 226.504 204.924 227.056 204.5 227.472C204.076 227.88 203.516 228.084 202.82 228.084C202.116 228.084 201.552 227.876 201.128 227.46C200.704 227.036 200.492 226.46 200.492 225.732H201.584C201.592 226.14 201.696 226.472 201.896 226.728C202.104 226.984 202.412 227.112 202.82 227.112C203.228 227.112 203.532 226.992 203.732 226.752C203.932 226.504 204.032 226.192 204.032 225.816V219.636H205.136ZM208.355 219.636V224.928C208.355 225.672 208.535 226.224 208.895 226.584C209.263 226.944 209.771 227.124 210.419 227.124C211.059 227.124 211.559 226.944 211.919 226.584C212.287 226.224 212.471 225.672 212.471 224.928V219.636H213.563V224.916C213.563 225.612 213.423 226.2 213.143 226.68C212.863 227.152 212.483 227.504 212.003 227.736C211.531 227.968 210.999 228.084 210.407 228.084C209.815 228.084 209.279 227.968 208.799 227.736C208.327 227.504 207.951 227.152 207.671 226.68C207.399 226.2 207.263 225.612 207.263 224.916V219.636H208.355ZM216.477 227.112H219.405V228H215.385V219.636H216.477V227.112ZM223.296 220.32V219.324H225.552V228H224.448V220.32H223.296ZM227.296 227.124C228.312 226.308 229.108 225.64 229.684 225.12C230.26 224.592 230.744 224.044 231.136 223.476C231.536 222.9 231.736 222.336 231.736 221.784C231.736 221.264 231.608 220.856 231.352 220.56C231.104 220.256 230.7 220.104 230.14 220.104C229.596 220.104 229.172 220.276 228.868 220.62C228.572 220.956 228.412 221.408 228.388 221.976H227.332C227.364 221.08 227.636 220.388 228.148 219.9C228.66 219.412 229.32 219.168 230.128 219.168C230.952 219.168 231.604 219.396 232.084 219.852C232.572 220.308 232.816 220.936 232.816 221.736C232.816 222.4 232.616 223.048 232.216 223.68C231.824 224.304 231.376 224.856 230.872 225.336C230.368 225.808 229.724 226.36 228.94 226.992H233.068V227.904H227.296V227.124ZM242.269 223.14V224.064H237.481V223.14H242.269ZM251.73 219.636V225.816C251.73 226.504 251.518 227.056 251.094 227.472C250.67 227.88 250.11 228.084 249.414 228.084C248.71 228.084 248.146 227.876 247.722 227.46C247.298 227.036 247.086 226.46 247.086 225.732H248.178C248.186 226.14 248.29 226.472 248.49 226.728C248.698 226.984 249.006 227.112 249.414 227.112C249.822 227.112 250.126 226.992 250.326 226.752C250.526 226.504 250.626 226.192 250.626 225.816V219.636H251.73ZM254.949 219.636V224.928C254.949 225.672 255.129 226.224 255.489 226.584C255.857 226.944 256.365 227.124 257.013 227.124C257.653 227.124 258.153 226.944 258.513 226.584C258.881 226.224 259.065 225.672 259.065 224.928V219.636H260.157V224.916C260.157 225.612 260.017 226.2 259.737 226.68C259.457 227.152 259.077 227.504 258.597 227.736C258.125 227.968 257.593 228.084 257.001 228.084C256.409 228.084 255.873 227.968 255.393 227.736C254.921 227.504 254.545 227.152 254.265 226.68C253.993 226.2 253.857 225.612 253.857 224.916V219.636H254.949ZM263.071 227.112H265.999V228H261.979V219.636H263.071V227.112ZM270.046 227.124C271.062 226.308 271.858 225.64 272.434 225.12C273.01 224.592 273.494 224.044 273.886 223.476C274.286 222.9 274.486 222.336 274.486 221.784C274.486 221.264 274.358 220.856 274.102 220.56C273.854 220.256 273.45 220.104 272.89 220.104C272.346 220.104 271.922 220.276 271.618 220.62C271.322 220.956 271.162 221.408 271.138 221.976H270.082C270.114 221.08 270.386 220.388 270.898 219.9C271.41 219.412 272.07 219.168 272.878 219.168C273.702 219.168 274.354 219.396 274.834 219.852C275.322 220.308 275.566 220.936 275.566 221.736C275.566 222.4 275.366 223.048 274.966 223.68C274.574 224.304 274.126 224.856 273.622 225.336C273.118 225.808 272.474 226.36 271.69 226.992H275.818V227.904H270.046V227.124ZM276.792 220.32V219.324H279.048V228H277.944V220.32H276.792Z" fill="#525252"/>
<path d="M419.136 219.636V225.816C419.136 226.504 418.924 227.056 418.5 227.472C418.076 227.88 417.516 228.084 416.82 228.084C416.116 228.084 415.552 227.876 415.128 227.46C414.704 227.036 414.492 226.46 414.492 225.732H415.584C415.592 226.14 415.696 226.472 415.896 226.728C416.104 226.984 416.412 227.112 416.82 227.112C417.228 227.112 417.532 226.992 417.732 226.752C417.932 226.504 418.032 226.192 418.032 225.816V219.636H419.136ZM422.355 219.636V224.928C422.355 225.672 422.535 226.224 422.895 226.584C423.263 226.944 423.771 227.124 424.419 227.124C425.059 227.124 425.559 226.944 425.919 226.584C426.287 226.224 426.471 225.672 426.471 224.928V219.636H427.563V224.916C427.563 225.612 427.423 226.2 427.143 226.68C426.863 227.152 426.483 227.504 426.003 227.736C425.531 227.968 424.999 228.084 424.407 228.084C423.815 228.084 423.279 227.968 422.799 227.736C422.327 227.504 421.951 227.152 421.671 226.68C421.399 226.2 421.263 225.612 421.263 224.916V219.636H422.355ZM430.477 227.112H433.405V228H429.385V219.636H430.477V227.112ZM437.452 227.124C438.468 226.308 439.264 225.64 439.84 225.12C440.416 224.592 440.9 224.044 441.292 223.476C441.692 222.9 441.892 222.336 441.892 221.784C441.892 221.264 441.764 220.856 441.508 220.56C441.26 220.256 440.856 220.104 440.296 220.104C439.752 220.104 439.328 220.276 439.024 220.62C438.728 220.956 438.568 221.408 438.544 221.976H437.488C437.52 221.08 437.792 220.388 438.304 219.9C438.816 219.412 439.476 219.168 440.284 219.168C441.108 219.168 441.76 219.396 442.24 219.852C442.728 220.308 442.972 220.936 442.972 221.736C442.972 222.4 442.772 223.048 442.372 223.68C441.98 224.304 441.532 224.856 441.028 225.336C440.524 225.808 439.88 226.36 439.096 226.992H443.224V227.904H437.452V227.124ZM444.198 220.32V219.324H446.454V228H445.35V220.32H444.198ZM456.269 223.14V224.064H451.481V223.14H456.269ZM466.462 226.14H462.814L462.142 228H460.99L464.014 219.684H465.274L468.286 228H467.134L466.462 226.14ZM466.15 225.252L464.638 221.028L463.126 225.252H466.15ZM470.672 219.636V224.928C470.672 225.672 470.852 226.224 471.212 226.584C471.58 226.944 472.088 227.124 472.736 227.124C473.376 227.124 473.876 226.944 474.236 226.584C474.604 226.224 474.788 225.672 474.788 224.928V219.636H475.88V224.916C475.88 225.612 475.74 226.2 475.46 226.68C475.18 227.152 474.8 227.504 474.32 227.736C473.848 227.968 473.316 228.084 472.724 228.084C472.132 228.084 471.596 227.968 471.116 227.736C470.644 227.504 470.268 227.152 469.988 226.68C469.716 226.2 469.58 225.612 469.58 224.916V219.636H470.672ZM484.037 222.06C483.805 221.572 483.469 221.196 483.029 220.932C482.589 220.66 482.077 220.524 481.493 220.524C480.909 220.524 480.381 220.66 479.909 220.932C479.445 221.196 479.077 221.58 478.805 222.084C478.541 222.58 478.409 223.156 478.409 223.812C478.409 224.468 478.541 225.044 478.805 225.54C479.077 226.036 479.445 226.42 479.909 226.692C480.381 226.956 480.909 227.088 481.493 227.088C482.309 227.088 482.981 226.844 483.509 226.356C484.037 225.868 484.345 225.208 484.433 224.376H481.097V223.488H485.597V224.328C485.533 225.016 485.317 225.648 484.949 226.224C484.581 226.792 484.097 227.244 483.497 227.58C482.897 227.908 482.229 228.072 481.493 228.072C480.717 228.072 480.009 227.892 479.369 227.532C478.729 227.164 478.221 226.656 477.845 226.008C477.477 225.36 477.293 224.628 477.293 223.812C477.293 222.996 477.477 222.264 477.845 221.616C478.221 220.96 478.729 220.452 479.369 220.092C480.009 219.724 480.717 219.54 481.493 219.54C482.381 219.54 483.165 219.76 483.845 220.2C484.533 220.64 485.033 221.26 485.345 222.06H484.037ZM489.928 227.124C490.944 226.308 491.74 225.64 492.316 225.12C492.892 224.592 493.376 224.044 493.768 223.476C494.168 222.9 494.368 222.336 494.368 221.784C494.368 221.264 494.24 220.856 493.984 220.56C493.736 220.256 493.332 220.104 492.772 220.104C492.228 220.104 491.804 220.276 491.5 220.62C491.204 220.956 491.044 221.408 491.02 221.976H489.964C489.996 221.08 490.268 220.388 490.78 219.9C491.292 219.412 491.952 219.168 492.76 219.168C493.584 219.168 494.236 219.396 494.716 219.852C495.204 220.308 495.448 220.936 495.448 221.736C495.448 222.4 495.248 223.048 494.848 223.68C494.456 224.304 494.008 224.856 493.504 225.336C493 225.808 492.356 226.36 491.572 226.992H495.7V227.904H489.928V227.124ZM496.699 226.068V225.24L500.911 219.408H502.219V225.12H503.419V226.068H502.219V228H501.139V226.068H496.699ZM501.187 220.548L497.959 225.12H501.187V220.548Z" fill="#525252"/>
<path d="M642.868 226.14H639.22L638.548 228H637.396L640.42 219.684H641.68L644.692 228H643.54L642.868 226.14ZM642.556 225.252L641.044 221.028L639.532 225.252H642.556ZM647.078 219.636V224.928C647.078 225.672 647.258 226.224 647.618 226.584C647.986 226.944 648.494 227.124 649.142 227.124C649.782 227.124 650.282 226.944 650.642 226.584C651.01 226.224 651.194 225.672 651.194 224.928V219.636H652.286V224.916C652.286 225.612 652.146 226.2 651.866 226.68C651.586 227.152 651.206 227.504 650.726 227.736C650.254 227.968 649.722 228.084 649.13 228.084C648.538 228.084 648.002 227.968 647.522 227.736C647.05 227.504 646.674 227.152 646.394 226.68C646.122 226.2 645.986 225.612 645.986 224.916V219.636H647.078ZM660.444 222.06C660.212 221.572 659.876 221.196 659.436 220.932C658.996 220.66 658.484 220.524 657.9 220.524C657.316 220.524 656.788 220.66 656.316 220.932C655.852 221.196 655.484 221.58 655.212 222.084C654.948 222.58 654.816 223.156 654.816 223.812C654.816 224.468 654.948 225.044 655.212 225.54C655.484 226.036 655.852 226.42 656.316 226.692C656.788 226.956 657.316 227.088 657.9 227.088C658.716 227.088 659.388 226.844 659.916 226.356C660.444 225.868 660.752 225.208 660.84 224.376H657.504V223.488H662.004V224.328C661.94 225.016 661.724 225.648 661.356 226.224C660.988 226.792 660.504 227.244 659.904 227.58C659.304 227.908 658.636 228.072 657.9 228.072C657.124 228.072 656.416 227.892 655.776 227.532C655.136 227.164 654.628 226.656 654.252 226.008C653.884 225.36 653.7 224.628 653.7 223.812C653.7 222.996 653.884 222.264 654.252 221.616C654.628 220.96 655.136 220.452 655.776 220.092C656.416 219.724 657.124 219.54 657.9 219.54C658.788 219.54 659.572 219.76 660.252 220.2C660.94 220.64 661.44 221.26 661.752 222.06H660.444ZM666.335 227.124C667.351 226.308 668.147 225.64 668.723 225.12C669.299 224.592 669.783 224.044 670.175 223.476C670.575 222.9 670.775 222.336 670.775 221.784C670.775 221.264 670.647 220.856 670.391 220.56C670.143 220.256 669.739 220.104 669.179 220.104C668.635 220.104 668.211 220.276 667.907 220.62C667.611 220.956 667.451 221.408 667.427 221.976H666.371C666.403 221.08 666.675 220.388 667.187 219.9C667.699 219.412 668.359 219.168 669.167 219.168C669.991 219.168 670.643 219.396 671.123 219.852C671.611 220.308 671.855 220.936 671.855 221.736C671.855 222.4 671.655 223.048 671.255 223.68C670.863 224.304 670.415 224.856 669.911 225.336C669.407 225.808 668.763 226.36 667.979 226.992H672.107V227.904H666.335V227.124ZM673.105 226.068V225.24L677.317 219.408H678.625V225.12H679.825V226.068H678.625V228H677.545V226.068H673.105ZM677.593 220.548L674.365 225.12H677.593V220.548ZM688.855 223.14V224.064H684.067V223.14H688.855ZM696.756 228.084C696.204 228.084 695.708 227.988 695.268 227.796C694.836 227.596 694.496 227.324 694.248 226.98C694 226.628 693.872 226.224 693.864 225.768H695.028C695.068 226.16 695.228 226.492 695.508 226.764C695.796 227.028 696.212 227.16 696.756 227.16C697.276 227.16 697.684 227.032 697.98 226.776C698.284 226.512 698.436 226.176 698.436 225.768C698.436 225.448 698.348 225.188 698.172 224.988C697.996 224.788 697.776 224.636 697.512 224.532C697.248 224.428 696.892 224.316 696.444 224.196C695.892 224.052 695.448 223.908 695.112 223.764C694.784 223.62 694.5 223.396 694.26 223.092C694.028 222.78 693.912 222.364 693.912 221.844C693.912 221.388 694.028 220.984 694.26 220.632C694.492 220.28 694.816 220.008 695.232 219.816C695.656 219.624 696.14 219.528 696.684 219.528C697.468 219.528 698.108 219.724 698.604 220.116C699.108 220.508 699.392 221.028 699.456 221.676H698.256C698.216 221.356 698.048 221.076 697.752 220.836C697.456 220.588 697.064 220.464 696.576 220.464C696.12 220.464 695.748 220.584 695.46 220.824C695.172 221.056 695.028 221.384 695.028 221.808C695.028 222.112 695.112 222.36 695.28 222.552C695.456 222.744 695.668 222.892 695.916 222.996C696.172 223.092 696.528 223.204 696.984 223.332C697.536 223.484 697.98 223.636 698.316 223.788C698.652 223.932 698.94 224.16 699.18 224.472C699.42 224.776 699.54 225.192 699.54 225.72C699.54 226.128 699.432 226.512 699.216 226.872C699 227.232 698.68 227.524 698.256 227.748C697.832 227.972 697.332 228.084 696.756 228.084ZM702.239 220.524V223.32H705.287V224.22H702.239V227.1H705.647V228H701.147V219.624H705.647V220.524H702.239ZM712.891 222.084C712.891 222.78 712.651 223.36 712.171 223.824C711.699 224.28 710.975 224.508 709.999 224.508H708.391V228H707.299V219.636H709.999C710.943 219.636 711.659 219.864 712.147 220.32C712.643 220.776 712.891 221.364 712.891 222.084ZM709.999 223.608C710.607 223.608 711.055 223.476 711.343 223.212C711.631 222.948 711.775 222.572 711.775 222.084C711.775 221.052 711.183 220.536 709.999 220.536H708.391V223.608H709.999ZM719.396 219.636V220.524H717.116V228H716.024V220.524H713.732V219.636H719.396ZM723.472 220.32V219.324H725.728V228H724.624V220.32H723.472ZM727.579 221.508C727.635 220.772 727.919 220.196 728.431 219.78C728.943 219.364 729.607 219.156 730.423 219.156C730.967 219.156 731.435 219.256 731.827 219.456C732.227 219.648 732.527 219.912 732.727 220.248C732.935 220.584 733.039 220.964 733.039 221.388C733.039 221.884 732.895 222.312 732.607 222.672C732.327 223.032 731.959 223.264 731.503 223.368V223.428C732.023 223.556 732.435 223.808 732.739 224.184C733.043 224.56 733.195 225.052 733.195 225.66C733.195 226.116 733.091 226.528 732.883 226.896C732.675 227.256 732.363 227.54 731.947 227.748C731.531 227.956 731.031 228.06 730.447 228.06C729.599 228.06 728.903 227.84 728.359 227.4C727.815 226.952 727.511 226.32 727.447 225.504H728.503C728.559 225.984 728.755 226.376 729.091 226.68C729.427 226.984 729.875 227.136 730.435 227.136C730.995 227.136 731.419 226.992 731.707 226.704C732.003 226.408 732.151 226.028 732.151 225.564C732.151 224.964 731.951 224.532 731.551 224.268C731.151 224.004 730.547 223.872 729.739 223.872H729.463V222.96H729.751C730.487 222.952 731.043 222.832 731.419 222.6C731.795 222.36 731.983 221.992 731.983 221.496C731.983 221.072 731.843 220.732 731.563 220.476C731.291 220.22 730.899 220.092 730.387 220.092C729.891 220.092 729.491 220.22 729.187 220.476C728.883 220.732 728.703 221.076 728.647 221.508H727.579Z" fill="#525252"/>
<path d="M870.576 228.084C870.024 228.084 869.528 227.988 869.088 227.796C868.656 227.596 868.316 227.324 868.068 226.98C867.82 226.628 867.692 226.224 867.684 225.768H868.848C868.888 226.16 869.048 226.492 869.328 226.764C869.616 227.028 870.032 227.16 870.576 227.16C871.096 227.16 871.504 227.032 871.8 226.776C872.104 226.512 872.256 226.176 872.256 225.768C872.256 225.448 872.168 225.188 871.992 224.988C871.816 224.788 871.596 224.636 871.332 224.532C871.068 224.428 870.712 224.316 870.264 224.196C869.712 224.052 869.268 223.908 868.932 223.764C868.604 223.62 868.32 223.396 868.08 223.092C867.848 222.78 867.732 222.364 867.732 221.844C867.732 221.388 867.848 220.984 868.08 220.632C868.312 220.28 868.636 220.008 869.052 219.816C869.476 219.624 869.96 219.528 870.504 219.528C871.288 219.528 871.928 219.724 872.424 220.116C872.928 220.508 873.212 221.028 873.276 221.676H872.076C872.036 221.356 871.868 221.076 871.572 220.836C871.276 220.588 870.884 220.464 870.396 220.464C869.94 220.464 869.568 220.584 869.28 220.824C868.992 221.056 868.848 221.384 868.848 221.808C868.848 222.112 868.932 222.36 869.1 222.552C869.276 222.744 869.488 222.892 869.736 222.996C869.992 223.092 870.348 223.204 870.804 223.332C871.356 223.484 871.8 223.636 872.136 223.788C872.472 223.932 872.76 224.16 873 224.472C873.24 224.776 873.36 225.192 873.36 225.72C873.36 226.128 873.252 226.512 873.036 226.872C872.82 227.232 872.5 227.524 872.076 227.748C871.652 227.972 871.152 228.084 870.576 228.084ZM876.059 220.524V223.32H879.107V224.22H876.059V227.1H879.467V228H874.967V219.624H879.467V220.524H876.059ZM886.711 222.084C886.711 222.78 886.471 223.36 885.991 223.824C885.519 224.28 884.795 224.508 883.819 224.508H882.211V228H881.119V219.636H883.819C884.763 219.636 885.479 219.864 885.967 220.32C886.463 220.776 886.711 221.364 886.711 222.084ZM883.819 223.608C884.427 223.608 884.875 223.476 885.163 223.212C885.451 222.948 885.595 222.572 885.595 222.084C885.595 221.052 885.003 220.536 883.819 220.536H882.211V223.608H883.819ZM893.217 219.636V220.524H890.937V228H889.845V220.524H887.553V219.636H893.217ZM897.292 220.32V219.324H899.548V228H898.444V220.32H897.292ZM901.4 221.508C901.456 220.772 901.74 220.196 902.252 219.78C902.764 219.364 903.428 219.156 904.244 219.156C904.788 219.156 905.256 219.256 905.648 219.456C906.048 219.648 906.348 219.912 906.548 220.248C906.756 220.584 906.86 220.964 906.86 221.388C906.86 221.884 906.716 222.312 906.428 222.672C906.148 223.032 905.78 223.264 905.324 223.368V223.428C905.844 223.556 906.256 223.808 906.56 224.184C906.864 224.56 907.016 225.052 907.016 225.66C907.016 226.116 906.912 226.528 906.704 226.896C906.496 227.256 906.184 227.54 905.768 227.748C905.352 227.956 904.852 228.06 904.268 228.06C903.42 228.06 902.724 227.84 902.18 227.4C901.636 226.952 901.332 226.32 901.268 225.504H902.324C902.38 225.984 902.576 226.376 902.912 226.68C903.248 226.984 903.696 227.136 904.256 227.136C904.816 227.136 905.24 226.992 905.528 226.704C905.824 226.408 905.972 226.028 905.972 225.564C905.972 224.964 905.772 224.532 905.372 224.268C904.972 224.004 904.368 223.872 903.56 223.872H903.284V222.96H903.572C904.308 222.952 904.864 222.832 905.24 222.6C905.616 222.36 905.804 221.992 905.804 221.496C905.804 221.072 905.664 220.732 905.384 220.476C905.112 220.22 904.72 220.092 904.208 220.092C903.712 220.092 903.312 220.22 903.008 220.476C902.704 220.732 902.524 221.076 902.468 221.508H901.4ZM916.429 223.14V224.064H911.641V223.14H916.429ZM925.47 228.084C924.694 228.084 923.986 227.904 923.346 227.544C922.706 227.176 922.198 226.668 921.822 226.02C921.454 225.364 921.27 224.628 921.27 223.812C921.27 222.996 921.454 222.264 921.822 221.616C922.198 220.96 922.706 220.452 923.346 220.092C923.986 219.724 924.694 219.54 925.47 219.54C926.254 219.54 926.966 219.724 927.606 220.092C928.246 220.452 928.75 220.956 929.118 221.604C929.486 222.252 929.67 222.988 929.67 223.812C929.67 224.636 929.486 225.372 929.118 226.02C928.75 226.668 928.246 227.176 927.606 227.544C926.966 227.904 926.254 228.084 925.47 228.084ZM925.47 227.136C926.054 227.136 926.578 227 927.042 226.728C927.514 226.456 927.882 226.068 928.146 225.564C928.418 225.06 928.554 224.476 928.554 223.812C928.554 223.14 928.418 222.556 928.146 222.06C927.882 221.556 927.518 221.168 927.054 220.896C926.59 220.624 926.062 220.488 925.47 220.488C924.878 220.488 924.35 220.624 923.886 220.896C923.422 221.168 923.054 221.556 922.782 222.06C922.518 222.556 922.386 223.14 922.386 223.812C922.386 224.476 922.518 225.06 922.782 225.564C923.054 226.068 923.422 226.456 923.886 226.728C924.358 227 924.886 227.136 925.47 227.136ZM930.704 223.812C930.704 222.996 930.888 222.264 931.256 221.616C931.624 220.96 932.124 220.448 932.756 220.08C933.396 219.712 934.104 219.528 934.88 219.528C935.792 219.528 936.588 219.748 937.268 220.188C937.948 220.628 938.444 221.252 938.756 222.06H937.448C937.216 221.556 936.88 221.168 936.44 220.896C936.008 220.624 935.488 220.488 934.88 220.488C934.296 220.488 933.772 220.624 933.308 220.896C932.844 221.168 932.48 221.556 932.216 222.06C931.952 222.556 931.82 223.14 931.82 223.812C931.82 224.476 931.952 225.06 932.216 225.564C932.48 226.06 932.844 226.444 933.308 226.716C933.772 226.988 934.296 227.124 934.88 227.124C935.488 227.124 936.008 226.992 936.44 226.728C936.88 226.456 937.216 226.068 937.448 225.564H938.756C938.444 226.364 937.948 226.984 937.268 227.424C936.588 227.856 935.792 228.072 934.88 228.072C934.104 228.072 933.396 227.892 932.756 227.532C932.124 227.164 931.624 226.656 931.256 226.008C930.888 225.36 930.704 224.628 930.704 223.812ZM945.529 219.636V220.524H943.249V228H942.157V220.524H939.865V219.636H945.529ZM949.604 220.32V219.324H951.86V228H950.756V220.32H949.604ZM953.448 220.32V219.324H955.704V228H954.6V220.32H953.448Z" fill="#525252"/>
<path d="M32.324 93.708C32.324 94.092 32.228 94.46 32.036 94.812C31.844 95.156 31.56 95.444 31.184 95.676C30.816 95.908 30.372 96.04 29.852 96.072V97.044H29.204V96.072C28.476 96.008 27.884 95.776 27.428 95.376C26.972 94.968 26.74 94.452 26.732 93.828H27.896C27.928 94.164 28.052 94.456 28.268 94.704C28.492 94.952 28.804 95.108 29.204 95.172V92.172C28.668 92.036 28.236 91.896 27.908 91.752C27.58 91.608 27.3 91.384 27.068 91.08C26.836 90.776 26.72 90.368 26.72 89.856C26.72 89.208 26.944 88.672 27.392 88.248C27.848 87.824 28.452 87.588 29.204 87.54V86.544H29.852V87.54C30.532 87.596 31.08 87.816 31.496 88.2C31.912 88.576 32.152 89.068 32.216 89.676H31.052C31.012 89.396 30.888 89.144 30.68 88.92C30.472 88.688 30.196 88.536 29.852 88.464V91.392C30.38 91.528 30.808 91.668 31.136 91.812C31.472 91.948 31.752 92.168 31.976 92.472C32.208 92.776 32.324 93.188 32.324 93.708ZM27.836 89.796C27.836 90.188 27.952 90.488 28.184 90.696C28.416 90.904 28.756 91.076 29.204 91.212V88.44C28.788 88.48 28.456 88.616 28.208 88.848C27.96 89.072 27.836 89.388 27.836 89.796ZM29.852 95.184C30.284 95.136 30.62 94.98 30.86 94.716C31.108 94.452 31.232 94.136 31.232 93.768C31.232 93.376 31.112 93.076 30.872 92.868C30.632 92.652 30.292 92.48 29.852 92.352V95.184ZM33.9208 88.32V87.324H36.1768V96H35.0728V88.32H33.9208ZM39.3606 94.488L38.0166 97.716H37.2846L38.1606 94.488H39.3606ZM40.4315 91.572C40.4315 90.196 40.6555 89.124 41.1035 88.356C41.5515 87.58 42.3355 87.192 43.4555 87.192C44.5675 87.192 45.3475 87.58 45.7955 88.356C46.2435 89.124 46.4675 90.196 46.4675 91.572C46.4675 92.972 46.2435 94.06 45.7955 94.836C45.3475 95.612 44.5675 96 43.4555 96C42.3355 96 41.5515 95.612 41.1035 94.836C40.6555 94.06 40.4315 92.972 40.4315 91.572ZM45.3875 91.572C45.3875 90.876 45.3395 90.288 45.2435 89.808C45.1555 89.32 44.9675 88.928 44.6795 88.632C44.3995 88.336 43.9915 88.188 43.4555 88.188C42.9115 88.188 42.4955 88.336 42.2075 88.632C41.9275 88.928 41.7395 89.32 41.6435 89.808C41.5555 90.288 41.5115 90.876 41.5115 91.572C41.5115 92.292 41.5555 92.896 41.6435 93.384C41.7395 93.872 41.9275 94.264 42.2075 94.56C42.4955 94.856 42.9115 95.004 43.4555 95.004C43.9915 95.004 44.3995 94.856 44.6795 94.56C44.9675 94.264 45.1555 93.872 45.2435 93.384C45.3395 92.896 45.3875 92.292 45.3875 91.572ZM47.9667 91.572C47.9667 90.196 48.1907 89.124 48.6387 88.356C49.0867 87.58 49.8707 87.192 50.9907 87.192C52.1027 87.192 52.8827 87.58 53.3307 88.356C53.7787 89.124 54.0027 90.196 54.0027 91.572C54.0027 92.972 53.7787 94.06 53.3307 94.836C52.8827 95.612 52.1027 96 50.9907 96C49.8707 96 49.0867 95.612 48.6387 94.836C48.1907 94.06 47.9667 92.972 47.9667 91.572ZM52.9227 91.572C52.9227 90.876 52.8747 90.288 52.7787 89.808C52.6907 89.32 52.5027 88.928 52.2147 88.632C51.9347 88.336 51.5267 88.188 50.9907 88.188C50.4467 88.188 50.0307 88.336 49.7427 88.632C49.4627 88.928 49.2747 89.32 49.1787 89.808C49.0907 90.288 49.0467 90.876 49.0467 91.572C49.0467 92.292 49.0907 92.896 49.1787 93.384C49.2747 93.872 49.4627 94.264 49.7427 94.56C50.0307 94.856 50.4467 95.004 50.9907 95.004C51.5267 95.004 51.9347 94.856 52.2147 94.56C52.5027 94.264 52.6907 93.872 52.7787 93.384C52.8747 92.896 52.9227 92.292 52.9227 91.572ZM55.5018 91.572C55.5018 90.196 55.7258 89.124 56.1738 88.356C56.6218 87.58 57.4058 87.192 58.5258 87.192C59.6378 87.192 60.4178 87.58 60.8658 88.356C61.3138 89.124 61.5378 90.196 61.5378 91.572C61.5378 92.972 61.3138 94.06 60.8658 94.836C60.4178 95.612 59.6378 96 58.5258 96C57.4058 96 56.6218 95.612 56.1738 94.836C55.7258 94.06 55.5018 92.972 55.5018 91.572ZM60.4578 91.572C60.4578 90.876 60.4098 90.288 60.3138 89.808C60.2258 89.32 60.0378 88.928 59.7498 88.632C59.4698 88.336 59.0618 88.188 58.5258 88.188C57.9818 88.188 57.5658 88.336 57.2778 88.632C56.9978 88.928 56.8098 89.32 56.7138 89.808C56.6258 90.288 56.5818 90.876 56.5818 91.572C56.5818 92.292 56.6258 92.896 56.7138 93.384C56.8098 93.872 56.9978 94.264 57.2778 94.56C57.5658 94.856 57.9818 95.004 58.5258 95.004C59.0618 95.004 59.4698 94.856 59.7498 94.56C60.0378 94.264 60.2258 93.872 60.3138 93.384C60.4098 92.896 60.4578 92.292 60.4578 91.572ZM64.345 94.488L63.001 97.716H62.269L63.145 94.488H64.345ZM65.4159 91.572C65.4159 90.196 65.6399 89.124 66.0879 88.356C66.5359 87.58 67.3199 87.192 68.4399 87.192C69.5519 87.192 70.3319 87.58 70.7799 88.356C71.2279 89.124 71.4519 90.196 71.4519 91.572C71.4519 92.972 71.2279 94.06 70.7799 94.836C70.3319 95.612 69.5519 96 68.4399 96C67.3199 96 66.5359 95.612 66.0879 94.836C65.6399 94.06 65.4159 92.972 65.4159 91.572ZM70.3719 91.572C70.3719 90.876 70.3239 90.288 70.2279 89.808C70.1399 89.32 69.9519 88.928 69.6639 88.632C69.3839 88.336 68.9759 88.188 68.4399 88.188C67.8959 88.188 67.4799 88.336 67.1919 88.632C66.9119 88.928 66.7239 89.32 66.6279 89.808C66.5399 90.288 66.4959 90.876 66.4959 91.572C66.4959 92.292 66.5399 92.896 66.6279 93.384C66.7239 93.872 66.9119 94.264 67.1919 94.56C67.4799 94.856 67.8959 95.004 68.4399 95.004C68.9759 95.004 69.3839 94.856 69.6639 94.56C69.9519 94.264 70.1399 93.872 70.2279 93.384C70.3239 92.896 70.3719 92.292 70.3719 91.572ZM72.951 91.572C72.951 90.196 73.175 89.124 73.623 88.356C74.071 87.58 74.855 87.192 75.975 87.192C77.087 87.192 77.867 87.58 78.315 88.356C78.763 89.124 78.987 90.196 78.987 91.572C78.987 92.972 78.763 94.06 78.315 94.836C77.867 95.612 77.087 96 75.975 96C74.855 96 74.071 95.612 73.623 94.836C73.175 94.06 72.951 92.972 72.951 91.572ZM77.907 91.572C77.907 90.876 77.859 90.288 77.763 89.808C77.675 89.32 77.487 88.928 77.199 88.632C76.919 88.336 76.511 88.188 75.975 88.188C75.431 88.188 75.015 88.336 74.727 88.632C74.447 88.928 74.259 89.32 74.163 89.808C74.075 90.288 74.031 90.876 74.031 91.572C74.031 92.292 74.075 92.896 74.163 93.384C74.259 93.872 74.447 94.264 74.727 94.56C75.015 94.856 75.431 95.004 75.975 95.004C76.511 95.004 76.919 94.856 77.199 94.56C77.487 94.264 77.675 93.872 77.763 93.384C77.859 92.896 77.907 92.292 77.907 91.572ZM80.4862 91.572C80.4862 90.196 80.7102 89.124 81.1582 88.356C81.6062 87.58 82.3902 87.192 83.5102 87.192C84.6222 87.192 85.4022 87.58 85.8502 88.356C86.2982 89.124 86.5222 90.196 86.5222 91.572C86.5222 92.972 86.2982 94.06 85.8502 94.836C85.4022 95.612 84.6222 96 83.5102 96C82.3902 96 81.6062 95.612 81.1582 94.836C80.7102 94.06 80.4862 92.972 80.4862 91.572ZM85.4422 91.572C85.4422 90.876 85.3942 90.288 85.2982 89.808C85.2102 89.32 85.0222 88.928 84.7342 88.632C84.4542 88.336 84.0462 88.188 83.5102 88.188C82.9662 88.188 82.5502 88.336 82.2622 88.632C81.9822 88.928 81.7942 89.32 81.6982 89.808C81.6102 90.288 81.5662 90.876 81.5662 91.572C81.5662 92.292 81.6102 92.896 81.6982 93.384C81.7942 93.872 81.9822 94.264 82.2622 94.56C82.5502 94.856 82.9662 95.004 83.5102 95.004C84.0462 95.004 84.4542 94.856 84.7342 94.56C85.0222 94.264 85.2102 93.872 85.2982 93.384C85.3942 92.896 85.4422 92.292 85.4422 91.572ZM88.5493 96.072C88.3413 96.072 88.1653 96 88.0213 95.856C87.8773 95.712 87.8053 95.536 87.8053 95.328C87.8053 95.12 87.8773 94.944 88.0213 94.8C88.1653 94.656 88.3413 94.584 88.5493 94.584C88.7493 94.584 88.9173 94.656 89.0533 94.8C89.1973 94.944 89.2693 95.12 89.2693 95.328C89.2693 95.536 89.1973 95.712 89.0533 95.856C88.9173 96 88.7493 96.072 88.5493 96.072ZM90.5409 91.572C90.5409 90.196 90.7649 89.124 91.2129 88.356C91.6609 87.58 92.4449 87.192 93.5649 87.192C94.6769 87.192 95.4569 87.58 95.9049 88.356C96.3529 89.124 96.5769 90.196 96.5769 91.572C96.5769 92.972 96.3529 94.06 95.9049 94.836C95.4569 95.612 94.6769 96 93.5649 96C92.4449 96 91.6609 95.612 91.2129 94.836C90.7649 94.06 90.5409 92.972 90.5409 91.572ZM95.4969 91.572C95.4969 90.876 95.4489 90.288 95.3529 89.808C95.2649 89.32 95.0769 88.928 94.7889 88.632C94.5089 88.336 94.1009 88.188 93.5649 88.188C93.0209 88.188 92.6049 88.336 92.3169 88.632C92.0369 88.928 91.8489 89.32 91.7529 89.808C91.6649 90.288 91.6209 90.876 91.6209 91.572C91.6209 92.292 91.6649 92.896 91.7529 93.384C91.8489 93.872 92.0369 94.264 92.3169 94.56C92.6049 94.856 93.0209 95.004 93.5649 95.004C94.1009 95.004 94.5089 94.856 94.7889 94.56C95.0769 94.264 95.2649 93.872 95.3529 93.384C95.4489 92.896 95.4969 92.292 95.4969 91.572ZM98.076 91.572C98.076 90.196 98.3 89.124 98.748 88.356C99.196 87.58 99.98 87.192 101.1 87.192C102.212 87.192 102.992 87.58 103.44 88.356C103.888 89.124 104.112 90.196 104.112 91.572C104.112 92.972 103.888 94.06 103.44 94.836C102.992 95.612 102.212 96 101.1 96C99.98 96 99.196 95.612 98.748 94.836C98.3 94.06 98.076 92.972 98.076 91.572ZM103.032 91.572C103.032 90.876 102.984 90.288 102.888 89.808C102.8 89.32 102.612 88.928 102.324 88.632C102.044 88.336 101.636 88.188 101.1 88.188C100.556 88.188 100.14 88.336 99.852 88.632C99.572 88.928 99.384 89.32 99.288 89.808C99.2 90.288 99.156 90.876 99.156 91.572C99.156 92.292 99.2 92.896 99.288 93.384C99.384 93.872 99.572 94.264 99.852 94.56C100.14 94.856 100.556 95.004 101.1 95.004C101.636 95.004 102.044 94.856 102.324 94.56C102.612 94.264 102.8 93.872 102.888 93.384C102.984 92.896 103.032 92.292 103.032 91.572Z" fill="#525252"/>
<path d="M32.324 138.708C32.324 139.092 32.228 139.46 32.036 139.812C31.844 140.156 31.56 140.444 31.184 140.676C30.816 140.908 30.372 141.04 29.852 141.072V142.044H29.204V141.072C28.476 141.008 27.884 140.776 27.428 140.376C26.972 139.968 26.74 139.452 26.732 138.828H27.896C27.928 139.164 28.052 139.456 28.268 139.704C28.492 139.952 28.804 140.108 29.204 140.172V137.172C28.668 137.036 28.236 136.896 27.908 136.752C27.58 136.608 27.3 136.384 27.068 136.08C26.836 135.776 26.72 135.368 26.72 134.856C26.72 134.208 26.944 133.672 27.392 133.248C27.848 132.824 28.452 132.588 29.204 132.54V131.544H29.852V132.54C30.532 132.596 31.08 132.816 31.496 133.2C31.912 133.576 32.152 134.068 32.216 134.676H31.052C31.012 134.396 30.888 134.144 30.68 133.92C30.472 133.688 30.196 133.536 29.852 133.464V136.392C30.38 136.528 30.808 136.668 31.136 136.812C31.472 136.948 31.752 137.168 31.976 137.472C32.208 137.776 32.324 138.188 32.324 138.708ZM27.836 134.796C27.836 135.188 27.952 135.488 28.184 135.696C28.416 135.904 28.756 136.076 29.204 136.212V133.44C28.788 133.48 28.456 133.616 28.208 133.848C27.96 134.072 27.836 134.388 27.836 134.796ZM29.852 140.184C30.284 140.136 30.62 139.98 30.86 139.716C31.108 139.452 31.232 139.136 31.232 138.768C31.232 138.376 31.112 138.076 30.872 137.868C30.632 137.652 30.292 137.48 29.852 137.352V140.184ZM39.5488 133.176L36.2128 141H35.1088L38.4928 133.284H33.8608V132.348H39.5488V133.176ZM42.1636 138.672C42.2436 139.128 42.4276 139.48 42.7156 139.728C43.0116 139.976 43.4076 140.1 43.9036 140.1C44.5676 140.1 45.0556 139.84 45.3676 139.32C45.6876 138.8 45.8396 137.924 45.8236 136.692C45.6556 137.052 45.3756 137.336 44.9836 137.544C44.5916 137.744 44.1556 137.844 43.6756 137.844C43.1396 137.844 42.6596 137.736 42.2356 137.52C41.8196 137.296 41.4916 136.972 41.2516 136.548C41.0116 136.124 40.8916 135.612 40.8916 135.012C40.8916 134.156 41.1396 133.468 41.6356 132.948C42.1316 132.42 42.8356 132.156 43.7476 132.156C44.8676 132.156 45.6516 132.52 46.0996 133.248C46.5556 133.976 46.7836 135.06 46.7836 136.5C46.7836 137.508 46.6916 138.34 46.5076 138.996C46.3316 139.652 46.0276 140.152 45.5956 140.496C45.1716 140.84 44.5876 141.012 43.8436 141.012C43.0276 141.012 42.3916 140.792 41.9356 140.352C41.4796 139.912 41.2196 139.352 41.1556 138.672H42.1636ZM43.8556 136.92C44.3916 136.92 44.8316 136.756 45.1756 136.428C45.5196 136.092 45.6916 135.64 45.6916 135.072C45.6916 134.472 45.5236 133.988 45.1876 133.62C44.8516 133.252 44.3796 133.068 43.7716 133.068C43.2116 133.068 42.7636 133.244 42.4276 133.596C42.0996 133.948 41.9356 134.412 41.9356 134.988C41.9356 135.572 42.0996 136.04 42.4276 136.392C42.7556 136.744 43.2316 136.92 43.8556 136.92ZM48.3182 136.572C48.3182 135.196 48.5422 134.124 48.9902 133.356C49.4382 132.58 50.2222 132.192 51.3422 132.192C52.4542 132.192 53.2342 132.58 53.6822 133.356C54.1302 134.124 54.3542 135.196 54.3542 136.572C54.3542 137.972 54.1302 139.06 53.6822 139.836C53.2342 140.612 52.4542 141 51.3422 141C50.2222 141 49.4382 140.612 48.9902 139.836C48.5422 139.06 48.3182 137.972 48.3182 136.572ZM53.2742 136.572C53.2742 135.876 53.2262 135.288 53.1302 134.808C53.0422 134.32 52.8542 133.928 52.5662 133.632C52.2862 133.336 51.8782 133.188 51.3422 133.188C50.7982 133.188 50.3822 133.336 50.0942 133.632C49.8142 133.928 49.6262 134.32 49.5302 134.808C49.4422 135.288 49.3982 135.876 49.3982 136.572C49.3982 137.292 49.4422 137.896 49.5302 138.384C49.6262 138.872 49.8142 139.264 50.0942 139.56C50.3822 139.856 50.7982 140.004 51.3422 140.004C51.8782 140.004 52.2862 139.856 52.5662 139.56C52.8542 139.264 53.0422 138.872 53.1302 138.384C53.2262 137.896 53.2742 137.292 53.2742 136.572ZM57.1614 139.488L55.8174 142.716H55.0854L55.9614 139.488H57.1614ZM58.2323 136.572C58.2323 135.196 58.4563 134.124 58.9043 133.356C59.3523 132.58 60.1363 132.192 61.2563 132.192C62.3683 132.192 63.1483 132.58 63.5963 133.356C64.0443 134.124 64.2683 135.196 64.2683 136.572C64.2683 137.972 64.0443 139.06 63.5963 139.836C63.1483 140.612 62.3683 141 61.2563 141C60.1363 141 59.3523 140.612 58.9043 139.836C58.4563 139.06 58.2323 137.972 58.2323 136.572ZM63.1883 136.572C63.1883 135.876 63.1403 135.288 63.0443 134.808C62.9563 134.32 62.7683 133.928 62.4803 133.632C62.2003 133.336 61.7923 133.188 61.2563 133.188C60.7123 133.188 60.2963 133.336 60.0083 133.632C59.7283 133.928 59.5403 134.32 59.4443 134.808C59.3563 135.288 59.3123 135.876 59.3123 136.572C59.3123 137.292 59.3563 137.896 59.4443 138.384C59.5403 138.872 59.7283 139.264 60.0083 139.56C60.2963 139.856 60.7123 140.004 61.2563 140.004C61.7923 140.004 62.2003 139.856 62.4803 139.56C62.7683 139.264 62.9563 138.872 63.0443 138.384C63.1403 137.896 63.1883 137.292 63.1883 136.572ZM65.7674 136.572C65.7674 135.196 65.9914 134.124 66.4394 133.356C66.8874 132.58 67.6714 132.192 68.7914 132.192C69.9034 132.192 70.6834 132.58 71.1314 133.356C71.5794 134.124 71.8034 135.196 71.8034 136.572C71.8034 137.972 71.5794 139.06 71.1314 139.836C70.6834 140.612 69.9034 141 68.7914 141C67.6714 141 66.8874 140.612 66.4394 139.836C65.9914 139.06 65.7674 137.972 65.7674 136.572ZM70.7234 136.572C70.7234 135.876 70.6754 135.288 70.5794 134.808C70.4914 134.32 70.3034 133.928 70.0154 133.632C69.7354 133.336 69.3274 133.188 68.7914 133.188C68.2474 133.188 67.8314 133.336 67.5434 133.632C67.2634 133.928 67.0754 134.32 66.9794 134.808C66.8914 135.288 66.8474 135.876 66.8474 136.572C66.8474 137.292 66.8914 137.896 66.9794 138.384C67.0754 138.872 67.2634 139.264 67.5434 139.56C67.8314 139.856 68.2474 140.004 68.7914 140.004C69.3274 140.004 69.7354 139.856 70.0154 139.56C70.3034 139.264 70.4914 138.872 70.5794 138.384C70.6754 137.896 70.7234 137.292 70.7234 136.572ZM73.3026 136.572C73.3026 135.196 73.5266 134.124 73.9746 133.356C74.4226 132.58 75.2066 132.192 76.3266 132.192C77.4386 132.192 78.2186 132.58 78.6666 133.356C79.1146 134.124 79.3386 135.196 79.3386 136.572C79.3386 137.972 79.1146 139.06 78.6666 139.836C78.2186 140.612 77.4386 141 76.3266 141C75.2066 141 74.4226 140.612 73.9746 139.836C73.5266 139.06 73.3026 137.972 73.3026 136.572ZM78.2586 136.572C78.2586 135.876 78.2106 135.288 78.1146 134.808C78.0266 134.32 77.8386 133.928 77.5506 133.632C77.2706 133.336 76.8626 133.188 76.3266 133.188C75.7826 133.188 75.3666 133.336 75.0786 133.632C74.7986 133.928 74.6106 134.32 74.5146 134.808C74.4266 135.288 74.3826 135.876 74.3826 136.572C74.3826 137.292 74.4266 137.896 74.5146 138.384C74.6106 138.872 74.7986 139.264 75.0786 139.56C75.3666 139.856 75.7826 140.004 76.3266 140.004C76.8626 140.004 77.2706 139.856 77.5506 139.56C77.8386 139.264 78.0266 138.872 78.1146 138.384C78.2106 137.896 78.2586 137.292 78.2586 136.572ZM81.3658 141.072C81.1578 141.072 80.9818 141 80.8378 140.856C80.6938 140.712 80.6218 140.536 80.6218 140.328C80.6218 140.12 80.6938 139.944 80.8378 139.8C80.9818 139.656 81.1578 139.584 81.3658 139.584C81.5658 139.584 81.7338 139.656 81.8698 139.8C82.0138 139.944 82.0858 140.12 82.0858 140.328C82.0858 140.536 82.0138 140.712 81.8698 140.856C81.7338 141 81.5658 141.072 81.3658 141.072ZM83.3573 136.572C83.3573 135.196 83.5813 134.124 84.0293 133.356C84.4773 132.58 85.2613 132.192 86.3813 132.192C87.4933 132.192 88.2733 132.58 88.7213 133.356C89.1693 134.124 89.3933 135.196 89.3933 136.572C89.3933 137.972 89.1693 139.06 88.7213 139.836C88.2733 140.612 87.4933 141 86.3813 141C85.2613 141 84.4773 140.612 84.0293 139.836C83.5813 139.06 83.3573 137.972 83.3573 136.572ZM88.3133 136.572C88.3133 135.876 88.2653 135.288 88.1693 134.808C88.0813 134.32 87.8933 133.928 87.6053 133.632C87.3253 133.336 86.9173 133.188 86.3813 133.188C85.8373 133.188 85.4213 133.336 85.1333 133.632C84.8533 133.928 84.6653 134.32 84.5693 134.808C84.4813 135.288 84.4373 135.876 84.4373 136.572C84.4373 137.292 84.4813 137.896 84.5693 138.384C84.6653 138.872 84.8533 139.264 85.1333 139.56C85.4213 139.856 85.8373 140.004 86.3813 140.004C86.9173 140.004 87.3253 139.856 87.6053 139.56C87.8933 139.264 88.0813 138.872 88.1693 138.384C88.2653 137.896 88.3133 137.292 88.3133 136.572ZM90.8924 136.572C90.8924 135.196 91.1164 134.124 91.5644 133.356C92.0124 132.58 92.7964 132.192 93.9164 132.192C95.0284 132.192 95.8084 132.58 96.2564 133.356C96.7044 134.124 96.9284 135.196 96.9284 136.572C96.9284 137.972 96.7044 139.06 96.2564 139.836C95.8084 140.612 95.0284 141 93.9164 141C92.7964 141 92.0124 140.612 91.5644 139.836C91.1164 139.06 90.8924 137.972 90.8924 136.572ZM95.8484 136.572C95.8484 135.876 95.8004 135.288 95.7044 134.808C95.6164 134.32 95.4284 133.928 95.1404 133.632C94.8604 133.336 94.4524 133.188 93.9164 133.188C93.3724 133.188 92.9564 133.336 92.6684 133.632C92.3884 133.928 92.2004 134.32 92.1044 134.808C92.0164 135.288 91.9724 135.876 91.9724 136.572C91.9724 137.292 92.0164 137.896 92.1044 138.384C92.2004 138.872 92.3884 139.264 92.6684 139.56C92.9564 139.856 93.3724 140.004 93.9164 140.004C94.4524 140.004 94.8604 139.856 95.1404 139.56C95.4284 139.264 95.6164 138.872 95.7044 138.384C95.8004 137.896 95.8484 137.292 95.8484 136.572Z" fill="#525252"/>
<path d="M32.324 183.708C32.324 184.092 32.228 184.46 32.036 184.812C31.844 185.156 31.56 185.444 31.184 185.676C30.816 185.908 30.372 186.04 29.852 186.072V187.044H29.204V186.072C28.476 186.008 27.884 185.776 27.428 185.376C26.972 184.968 26.74 184.452 26.732 183.828H27.896C27.928 184.164 28.052 184.456 28.268 184.704C28.492 184.952 28.804 185.108 29.204 185.172V182.172C28.668 182.036 28.236 181.896 27.908 181.752C27.58 181.608 27.3 181.384 27.068 181.08C26.836 180.776 26.72 180.368 26.72 179.856C26.72 179.208 26.944 178.672 27.392 178.248C27.848 177.824 28.452 177.588 29.204 177.54V176.544H29.852V177.54C30.532 177.596 31.08 177.816 31.496 178.2C31.912 178.576 32.152 179.068 32.216 179.676H31.052C31.012 179.396 30.888 179.144 30.68 178.92C30.472 178.688 30.196 178.536 29.852 178.464V181.392C30.38 181.528 30.808 181.668 31.136 181.812C31.472 181.948 31.752 182.168 31.976 182.472C32.208 182.776 32.324 183.188 32.324 183.708ZM27.836 179.796C27.836 180.188 27.952 180.488 28.184 180.696C28.416 180.904 28.756 181.076 29.204 181.212V178.44C28.788 178.48 28.456 178.616 28.208 178.848C27.96 179.072 27.836 179.388 27.836 179.796ZM29.852 185.184C30.284 185.136 30.62 184.98 30.86 184.716C31.108 184.452 31.232 184.136 31.232 183.768C31.232 183.376 31.112 183.076 30.872 182.868C30.632 182.652 30.292 182.48 29.852 182.352V185.184ZM33.9448 184.068V183.24L38.1568 177.408H39.4648V183.12H40.6648V184.068H39.4648V186H38.3848V184.068H33.9448ZM38.4328 178.548L35.2048 183.12H38.4328V178.548ZM47.2877 178.272H43.0757V181.008C43.2597 180.752 43.5317 180.544 43.8917 180.384C44.2517 180.216 44.6397 180.132 45.0557 180.132C45.7197 180.132 46.2597 180.272 46.6757 180.552C47.0917 180.824 47.3877 181.18 47.5637 181.62C47.7477 182.052 47.8397 182.512 47.8397 183C47.8397 183.576 47.7317 184.092 47.5157 184.548C47.2997 185.004 46.9677 185.364 46.5197 185.628C46.0797 185.892 45.5317 186.024 44.8757 186.024C44.0357 186.024 43.3557 185.808 42.8357 185.376C42.3157 184.944 41.9997 184.368 41.8877 183.648H42.9557C43.0597 184.104 43.2797 184.46 43.6157 184.716C43.9517 184.972 44.3757 185.1 44.8877 185.1C45.5197 185.1 45.9957 184.912 46.3157 184.536C46.6357 184.152 46.7957 183.648 46.7957 183.024C46.7957 182.4 46.6357 181.92 46.3157 181.584C45.9957 181.24 45.5237 181.068 44.8997 181.068C44.4757 181.068 44.1037 181.172 43.7837 181.38C43.4717 181.58 43.2437 181.856 43.0997 182.208H42.0677V177.312H47.2877V178.272ZM49.2909 181.572C49.2909 180.196 49.5149 179.124 49.9629 178.356C50.4109 177.58 51.1949 177.192 52.3149 177.192C53.4269 177.192 54.2069 177.58 54.6549 178.356C55.1029 179.124 55.3269 180.196 55.3269 181.572C55.3269 182.972 55.1029 184.06 54.6549 184.836C54.2069 185.612 53.4269 186 52.3149 186C51.1949 186 50.4109 185.612 49.9629 184.836C49.5149 184.06 49.2909 182.972 49.2909 181.572ZM54.2469 181.572C54.2469 180.876 54.1989 180.288 54.1029 179.808C54.0149 179.32 53.8269 178.928 53.5389 178.632C53.2589 178.336 52.8509 178.188 52.3149 178.188C51.7709 178.188 51.3549 178.336 51.0669 178.632C50.7869 178.928 50.5989 179.32 50.5029 179.808C50.4149 180.288 50.3709 180.876 50.3709 181.572C50.3709 182.292 50.4149 182.896 50.5029 183.384C50.5989 183.872 50.7869 184.264 51.0669 184.56C51.3549 184.856 51.7709 185.004 52.3149 185.004C52.8509 185.004 53.2589 184.856 53.5389 184.56C53.8269 184.264 54.0149 183.872 54.1029 183.384C54.1989 182.896 54.2469 182.292 54.2469 181.572ZM58.134 184.488L56.79 187.716H56.058L56.934 184.488H58.134ZM59.2049 181.572C59.2049 180.196 59.4289 179.124 59.8769 178.356C60.3249 177.58 61.1089 177.192 62.2289 177.192C63.3409 177.192 64.1209 177.58 64.5689 178.356C65.0169 179.124 65.2409 180.196 65.2409 181.572C65.2409 182.972 65.0169 184.06 64.5689 184.836C64.1209 185.612 63.3409 186 62.2289 186C61.1089 186 60.3249 185.612 59.8769 184.836C59.4289 184.06 59.2049 182.972 59.2049 181.572ZM64.1609 181.572C64.1609 180.876 64.1129 180.288 64.0169 179.808C63.9289 179.32 63.7409 178.928 63.4529 178.632C63.1729 178.336 62.7649 178.188 62.2289 178.188C61.6849 178.188 61.2689 178.336 60.9809 178.632C60.7009 178.928 60.5129 179.32 60.4169 179.808C60.3289 180.288 60.2849 180.876 60.2849 181.572C60.2849 182.292 60.3289 182.896 60.4169 183.384C60.5129 183.872 60.7009 184.264 60.9809 184.56C61.2689 184.856 61.6849 185.004 62.2289 185.004C62.7649 185.004 63.1729 184.856 63.4529 184.56C63.7409 184.264 63.9289 183.872 64.0169 183.384C64.1129 182.896 64.1609 182.292 64.1609 181.572ZM66.7401 181.572C66.7401 180.196 66.9641 179.124 67.4121 178.356C67.8601 177.58 68.6441 177.192 69.7641 177.192C70.8761 177.192 71.6561 177.58 72.1041 178.356C72.5521 179.124 72.7761 180.196 72.7761 181.572C72.7761 182.972 72.5521 184.06 72.1041 184.836C71.6561 185.612 70.8761 186 69.7641 186C68.6441 186 67.8601 185.612 67.4121 184.836C66.9641 184.06 66.7401 182.972 66.7401 181.572ZM71.6961 181.572C71.6961 180.876 71.6481 180.288 71.5521 179.808C71.4641 179.32 71.2761 178.928 70.9881 178.632C70.7081 178.336 70.3001 178.188 69.7641 178.188C69.2201 178.188 68.8041 178.336 68.5161 178.632C68.2361 178.928 68.0481 179.32 67.9521 179.808C67.8641 180.288 67.8201 180.876 67.8201 181.572C67.8201 182.292 67.8641 182.896 67.9521 183.384C68.0481 183.872 68.2361 184.264 68.5161 184.56C68.8041 184.856 69.2201 185.004 69.7641 185.004C70.3001 185.004 70.7081 184.856 70.9881 184.56C71.2761 184.264 71.4641 183.872 71.5521 183.384C71.6481 182.896 71.6961 182.292 71.6961 181.572ZM74.2753 181.572C74.2753 180.196 74.4993 179.124 74.9473 178.356C75.3953 177.58 76.1793 177.192 77.2993 177.192C78.4113 177.192 79.1913 177.58 79.6393 178.356C80.0872 179.124 80.3112 180.196 80.3112 181.572C80.3112 182.972 80.0872 184.06 79.6393 184.836C79.1913 185.612 78.4113 186 77.2993 186C76.1793 186 75.3953 185.612 74.9473 184.836C74.4993 184.06 74.2753 182.972 74.2753 181.572ZM79.2313 181.572C79.2313 180.876 79.1833 180.288 79.0873 179.808C78.9993 179.32 78.8113 178.928 78.5233 178.632C78.2433 178.336 77.8353 178.188 77.2993 178.188C76.7553 178.188 76.3393 178.336 76.0513 178.632C75.7713 178.928 75.5833 179.32 75.4873 179.808C75.3993 180.288 75.3553 180.876 75.3553 181.572C75.3553 182.292 75.3993 182.896 75.4873 183.384C75.5833 183.872 75.7713 184.264 76.0513 184.56C76.3393 184.856 76.7553 185.004 77.2993 185.004C77.8353 185.004 78.2433 184.856 78.5233 184.56C78.8113 184.264 78.9993 183.872 79.0873 183.384C79.1833 182.896 79.2313 182.292 79.2313 181.572ZM82.3384 186.072C82.1304 186.072 81.9544 186 81.8104 185.856C81.6664 185.712 81.5944 185.536 81.5944 185.328C81.5944 185.12 81.6664 184.944 81.8104 184.8C81.9544 184.656 82.1304 184.584 82.3384 184.584C82.5384 184.584 82.7064 184.656 82.8424 184.8C82.9864 184.944 83.0584 185.12 83.0584 185.328C83.0584 185.536 82.9864 185.712 82.8424 185.856C82.7064 186 82.5384 186.072 82.3384 186.072ZM84.3299 181.572C84.3299 180.196 84.5539 179.124 85.0019 178.356C85.4499 177.58 86.2339 177.192 87.3539 177.192C88.4659 177.192 89.2459 177.58 89.6939 178.356C90.1419 179.124 90.3659 180.196 90.3659 181.572C90.3659 182.972 90.1419 184.06 89.6939 184.836C89.2459 185.612 88.4659 186 87.3539 186C86.2339 186 85.4499 185.612 85.0019 184.836C84.5539 184.06 84.3299 182.972 84.3299 181.572ZM89.2859 181.572C89.2859 180.876 89.2379 180.288 89.1419 179.808C89.0539 179.32 88.8659 178.928 88.5779 178.632C88.2979 178.336 87.8899 178.188 87.3539 178.188C86.8099 178.188 86.3939 178.336 86.1059 178.632C85.8259 178.928 85.6379 179.32 85.5419 179.808C85.4539 180.288 85.4099 180.876 85.4099 181.572C85.4099 182.292 85.4539 182.896 85.5419 183.384C85.6379 183.872 85.8259 184.264 86.1059 184.56C86.3939 184.856 86.8099 185.004 87.3539 185.004C87.8899 185.004 88.2979 184.856 88.5779 184.56C88.8659 184.264 89.0539 183.872 89.1419 183.384C89.2379 182.896 89.2859 182.292 89.2859 181.572ZM91.8651 181.572C91.8651 180.196 92.0891 179.124 92.5371 178.356C92.9851 177.58 93.7691 177.192 94.8891 177.192C96.0011 177.192 96.7811 177.58 97.2291 178.356C97.6771 179.124 97.9011 180.196 97.9011 181.572C97.9011 182.972 97.6771 184.06 97.2291 184.836C96.7811 185.612 96.0011 186 94.8891 186C93.7691 186 92.9851 185.612 92.5371 184.836C92.0891 184.06 91.8651 182.972 91.8651 181.572ZM96.8211 181.572C96.8211 180.876 96.7731 180.288 96.6771 179.808C96.5891 179.32 96.4011 178.928 96.1131 178.632C95.8331 178.336 95.4251 178.188 94.8891 178.188C94.3451 178.188 93.9291 178.336 93.6411 178.632C93.3611 178.928 93.1731 179.32 93.0771 179.808C92.9891 180.288 92.9451 180.876 92.9451 181.572C92.9451 182.292 92.9891 182.896 93.0771 183.384C93.1731 183.872 93.3611 184.264 93.6411 184.56C93.9291 184.856 94.3451 185.004 94.8891 185.004C95.4251 185.004 95.8331 184.856 96.1131 184.56C96.4011 184.264 96.5891 183.872 96.6771 183.384C96.7731 182.896 96.8211 182.292 96.8211 181.572Z" fill="#525252"/>
</g>
<defs>
<filter id="filter0_d_122_1199" x="0" y="0" width="1085" height="259" filterUnits="userSpaceOnUse" color-interpolation-filters="sRGB">
<feFlood flood-opacity="0" result="BackgroundImageFix"/>
<feColorMatrix in="SourceAlpha" type="matrix" values="0 0 0 0 0 0 0 0 0 0 0 0 0 0 0 0 0 0 127 0" result="hardAlpha"/>
<feOffset/>
<feGaussianBlur stdDeviation="3"/>
<feComposite in2="hardAlpha" operator="out"/>
<feColorMatrix type="matrix" values="0 0 0 0 0 0 0 0 0 0 0 0 0 0 0 0 0 0 0.1 0"/>
<feBlend mode="normal" in2="BackgroundImageFix" result="effect1_dropShadow_122_1199"/>
<feBlend mode="normal" in="SourceGraphic" in2="effect1_dropShadow_122_1199" result="shape"/>
</filter>
<clipPath id="clip0_122_1199">
<rect width="893" height="142" fill="white" transform="translate(132 59)"/>
</clipPath>
</defs>
</svg>
