<svg width="89" height="214" viewBox="0 0 89 214" fill="none" xmlns="http://www.w3.org/2000/svg">
<g id="Character">
<g id="Chair">
<path id="Vector" d="M68.5983 199.071L70.9313 197.723C71.3285 197.513 71.7696 197.399 72.2189 197.392C72.6681 197.384 73.1127 197.483 73.5167 197.68C73.6523 197.74 73.7691 197.836 73.8546 197.957C73.9402 198.079 73.9915 198.221 74.003 198.369C74.003 198.547 74.003 199.225 74.003 199.403C73.9828 199.57 73.9193 199.729 73.8189 199.864C73.7185 199.999 73.5846 200.105 73.4305 200.173L71.0975 201.527C70.7004 201.737 70.2592 201.85 69.81 201.858C69.3608 201.865 68.9161 201.767 68.5122 201.57C68.3766 201.509 68.2598 201.413 68.1742 201.292C68.0886 201.171 68.0374 201.029 68.0259 200.88C68.0259 200.702 68.0259 200.025 68.0259 199.84C68.0478 199.674 68.1119 199.516 68.2121 199.381C68.3123 199.246 68.4453 199.14 68.5983 199.071Z" fill="#263238"/>
<path id="Vector_2" d="M73.4306 199.169L71.0976 200.517C70.7003 200.726 70.2596 200.84 69.8108 200.848C69.3619 200.857 68.9172 200.76 68.5122 200.567C67.8228 200.166 67.8597 199.495 68.5984 199.071L70.9314 197.723C71.3286 197.513 71.7697 197.399 72.2189 197.392C72.6682 197.384 73.1128 197.483 73.5168 197.68C74.2247 198.073 74.1693 198.744 73.4306 199.169Z" fill="#455A64"/>
<path id="Vector_3" d="M52.1137 208.575L54.4528 207.227C54.8489 207.017 55.2886 206.904 55.7366 206.895C56.1845 206.887 56.6283 206.983 57.032 207.178C57.1689 207.239 57.2867 207.336 57.3734 207.458C57.46 207.581 57.5122 207.724 57.5245 207.873C57.5245 208.052 57.5245 208.723 57.5245 208.901C57.5041 209.069 57.4407 209.229 57.3403 209.364C57.24 209.5 57.1062 209.608 56.952 209.677L54.619 211.025C54.2223 211.236 53.7815 211.35 53.3322 211.359C52.883 211.367 52.4381 211.27 52.0337 211.074C51.8984 211.013 51.782 210.917 51.6965 210.796C51.611 210.675 51.5595 210.533 51.5474 210.385C51.5474 210.206 51.5474 209.523 51.5474 209.344C51.5693 209.179 51.6327 209.022 51.7317 208.887C51.8307 208.752 51.9621 208.645 52.1137 208.575Z" fill="#263238"/>
<path id="Vector_4" d="M56.952 208.674L54.619 210.022C54.2218 210.232 53.7807 210.345 53.3315 210.352C52.8823 210.36 52.4376 210.261 52.0337 210.065C51.3442 209.671 51.3812 209 52.1137 208.575L54.4528 207.227C54.8489 207.017 55.2886 206.904 55.7366 206.895C56.1845 206.887 56.6283 206.983 57.032 207.178C57.7276 207.578 57.6907 208.249 56.952 208.674Z" fill="#455A64"/>
<path id="Vector_5" d="M44.7946 185.393L47.1276 184.045C47.5243 183.834 47.9652 183.72 48.4144 183.711C48.8636 183.702 49.3085 183.8 49.713 183.996C49.8487 184.058 49.9653 184.155 50.0508 184.277C50.1363 184.4 50.1876 184.543 50.1993 184.691C50.1993 184.87 50.1993 185.541 50.1993 185.719C50.1813 185.888 50.1188 186.048 50.0182 186.185C49.9176 186.321 49.7825 186.428 49.6268 186.495L47.2938 187.843C46.8971 188.054 46.4563 188.168 46.007 188.177C45.5578 188.185 45.1129 188.088 44.7084 187.892C44.5732 187.831 44.4568 187.735 44.3713 187.614C44.2858 187.493 44.2343 187.351 44.2222 187.203C44.2222 187.024 44.2222 186.341 44.2222 186.162C44.2424 185.995 44.3058 185.837 44.4062 185.702C44.5066 185.567 44.6405 185.46 44.7946 185.393Z" fill="#263238"/>
<path id="Vector_6" d="M49.6022 185.485L47.2692 186.84C46.872 187.05 46.4309 187.163 45.9817 187.17C45.5325 187.178 45.0878 187.079 44.6839 186.883C43.9944 186.489 44.0314 185.818 44.77 185.393L47.103 184.045C47.4997 183.834 47.9406 183.72 48.3898 183.711C48.839 183.702 49.284 183.8 49.6884 183.996C50.4024 184.396 50.3655 185.067 49.6022 185.485Z" fill="#455A64"/>
<path id="Vector_7" d="M28.3161 194.916L30.6491 193.568C31.0458 193.357 31.4867 193.242 31.9359 193.234C32.3851 193.225 32.83 193.323 33.2345 193.518C33.3706 193.58 33.4875 193.677 33.5731 193.799C33.6587 193.922 33.7097 194.065 33.7208 194.214C33.7208 194.386 33.7208 195.063 33.7208 195.242C33.701 195.41 33.6378 195.57 33.5374 195.706C33.437 195.842 33.3029 195.949 33.1483 196.018L30.8153 197.378C30.418 197.587 29.9773 197.7 29.5285 197.709C29.0796 197.717 28.6349 197.621 28.23 197.427C28.0947 197.366 27.9783 197.27 27.8928 197.149C27.8073 197.028 27.7558 196.886 27.7437 196.738C27.7437 196.559 27.7437 195.876 27.7437 195.697C27.7618 195.528 27.8243 195.367 27.9248 195.23C28.0254 195.092 28.1603 194.984 28.3161 194.916Z" fill="#263238"/>
<path id="Vector_8" d="M33.1483 194.99L30.8154 196.338C30.4187 196.549 29.9778 196.663 29.5286 196.672C29.0793 196.68 28.6345 196.583 28.23 196.387C27.5406 195.987 27.5775 195.322 28.3162 194.897L30.6492 193.549C31.0459 193.338 31.4867 193.224 31.9359 193.215C32.3852 193.207 32.8301 193.304 33.2345 193.5C33.924 193.9 33.887 194.565 33.1483 194.99Z" fill="#455A64"/>
<path id="Vector_9" d="M23.0961 199.452C22.7519 199.456 22.4139 199.36 22.1235 199.175C21.777 198.914 21.5103 198.562 21.3537 198.157C21.197 197.752 21.1567 197.312 21.2371 196.886L28.4884 109.008L29.7196 109.106L22.4682 196.99C22.419 197.55 22.5359 197.981 22.7822 198.135C23.0284 198.289 23.4716 198.215 23.9579 197.932L49.9284 182.943C50.6032 182.495 51.1609 181.891 51.555 181.184C51.949 180.476 52.168 179.684 52.1937 178.874L49.7807 96.7829L51.0118 96.746L53.4248 178.843C53.4074 179.875 53.1353 180.886 52.6327 181.787C52.1301 182.688 51.4126 183.451 50.544 184.008L24.5735 199.003C24.128 199.278 23.6191 199.432 23.0961 199.452Z" fill="#263238"/>
<path id="Vector_10" d="M24.2359 171.213L23.6204 172.279L45.829 185.101L46.4445 184.035L24.2359 171.213Z" fill="#263238"/>
<path id="Vector_11" d="M52.4447 155.459L51.8291 156.525L74.0697 169.366L74.6853 168.3L52.4447 155.459Z" fill="#263238"/>
<path id="Vector_12" d="M46.8446 213.161C46.4962 213.165 46.1533 213.074 45.8535 212.896C45.4912 212.648 45.2043 212.304 45.024 211.904C44.8438 211.503 44.7773 211.061 44.8317 210.625L47.2447 119.866L48.4758 119.903L46.0628 210.662C45.9822 210.877 45.9797 211.113 46.0558 211.33C46.1318 211.546 46.2816 211.729 46.4789 211.847C46.6762 211.964 46.9084 212.008 47.1351 211.972C47.3617 211.935 47.5683 211.82 47.7187 211.647L73.6892 196.658C74.3508 196.219 74.8904 195.619 75.2575 194.915C75.6246 194.211 75.8072 193.426 75.7883 192.632L68.5493 107.641L69.7804 107.537L77.0194 192.527C77.0629 193.555 76.8356 194.575 76.3602 195.487C75.8848 196.399 75.1781 197.17 74.3109 197.723L48.3404 212.712C47.8906 212.992 47.3743 213.147 46.8446 213.161Z" fill="#37474F"/>
<g id="Chair_2">
<path id="Vector_13" d="M31.4492 99.8484C41.212 94.2099 57.0442 94.2099 66.807 99.8484C71.6884 102.668 74.126 106.361 74.126 110.054V114.591C74.126 118.284 71.6638 121.978 66.807 124.803C57.0442 130.442 41.212 130.442 31.4492 124.803C26.5616 121.984 24.1301 118.291 24.1301 114.591V110.054C24.1301 106.361 26.5678 102.668 31.4492 99.8484Z" fill="#263238"/>
<path id="Vector_14" d="M31.4492 97.657C41.212 92.0185 57.0442 92.0185 66.807 97.657C71.6884 100.476 74.126 104.17 74.126 107.863V112.4C74.126 116.093 71.6638 119.786 66.807 122.612C57.0442 128.25 41.212 128.25 31.4492 122.612C26.5616 119.793 24.1301 116.099 24.1301 112.4V107.863C24.1301 104.157 26.5678 100.464 31.4492 97.657Z" fill="#2A8EF1"/>
<path id="Vector_15" opacity="0.3" d="M31.4492 97.657C41.212 92.0185 57.0442 92.0185 66.807 97.657C71.6884 100.476 74.126 104.17 74.126 107.863V112.4C74.126 116.093 71.6638 119.786 66.807 122.612C57.0442 128.25 41.212 128.25 31.4492 122.612C26.5616 119.793 24.1301 116.099 24.1301 112.4V107.863C24.1301 104.157 26.5678 100.464 31.4492 97.657Z" fill="#525252"/>
<path id="Vector_16" d="M49.1281 122.286C62.9375 122.286 74.1322 115.823 74.1322 107.851C74.1322 99.8785 62.9375 93.4158 49.1281 93.4158C35.3188 93.4158 24.124 99.8785 24.124 107.851C24.124 115.823 35.3188 122.286 49.1281 122.286Z" fill="#2A8EF1"/>
<path id="Vector_17" opacity="0.1" d="M49.1281 122.286C62.9375 122.286 74.1322 115.823 74.1322 107.851C74.1322 99.8785 62.9375 93.4158 49.1281 93.4158C35.3188 93.4158 24.124 99.8785 24.124 107.851C24.124 115.823 35.3188 122.286 49.1281 122.286Z" fill="#525252"/>
</g>
</g>
<g id="Character_2">
<path id="Vector_18" d="M35.075 123.234C36.8355 124.28 38.6884 122.704 40.5474 123.849C41.8529 124.619 42.8018 125.874 43.1881 127.339C43.3236 128.1 43.577 128.836 43.9391 129.518C44.4808 130.276 45.0348 131.045 45.5704 131.821C46.4399 133.036 47.3922 134.19 48.4204 135.274C50.8827 137.976 51.4182 142.014 50.9258 145.548C50.6672 147.394 49.8239 147.924 48.9005 149.536C48.285 150.638 47.1031 151.943 45.7366 151.833C44.37 151.722 43.342 150.558 42.6588 149.456C41.8278 148.115 42.0432 147.487 41.5384 146.003C41.0337 144.52 40.3566 142.402 39.1624 141.448C38.1832 140.604 37.2503 139.708 36.3677 138.764C34.6872 137.096 33.0375 135.397 31.394 133.686L30.8954 133.169C29.2764 131.599 21.939 127.302 21.939 127.302L28.0022 115.459L35.075 123.234Z" fill="#B16668"/>
<path id="Vector_19" d="M41.1135 123.467C41.9887 123.393 42.8616 123.633 43.5758 124.145C44.3949 125.479 44.941 126.962 45.1824 128.509C45.5764 130.651 45.7672 131.507 46.9983 132.602C48.7194 133.931 50.1152 135.634 51.0795 137.582C51.8556 139.097 52.2929 140.763 52.3609 142.463C52.4289 144.164 52.1261 145.859 51.4734 147.431C49.9099 151.457 48.4941 152.276 47.4107 152.676C46.3273 153.076 44.5176 152.676 44.5176 152.676L41.1135 123.467Z" fill="#263238"/>
<path id="Vector_20" d="M34.3978 122.489L35.075 123.234C35.4785 123.606 35.8549 124.008 36.2014 124.434C37.5741 126.281 37.0078 130.06 36.817 131.07C36.5015 130.994 36.1735 130.986 35.855 131.048C35.5364 131.11 35.2348 131.239 34.9703 131.427C33.6961 132.184 31.597 133.698 31.7078 134.4C31.8186 135.102 36.0537 138.05 38.0912 140.9C40.1287 143.75 40.3011 145.24 40.8428 148.004C41.2306 149.974 42.6094 153.316 45.4349 152.559C46.9122 152.177 50.6179 149.481 51.1042 143.184C51.5351 137.576 47.8417 134.701 45.9396 133.009C44.0375 131.316 43.9144 129.685 43.028 126.73C42.6402 125.437 42.4124 124.422 41.1321 123.467C39.3654 122.772 37.5126 123.104 36.2076 122.852C35.0996 122.624 34.7672 121.941 34.3978 122.489Z" fill="#37474F"/>
<path id="Vector_21" d="M36.817 131.07C36.7124 131.354 36.7124 131.666 36.817 131.95C36.9571 132.211 37.1378 132.448 37.3525 132.652C37.7588 133.052 38.1466 133.452 38.5405 133.883C39.3284 134.689 40.0979 135.514 40.8366 136.345C41.5762 137.194 42.2707 138.082 42.9172 139.004C43.5631 139.936 44.1059 140.935 44.5361 141.983C44.2873 140.855 43.8525 139.775 43.2496 138.789C42.6654 137.796 41.9917 136.858 41.2367 135.988C40.4878 135.121 39.6882 134.298 38.8421 133.526C38.4236 133.144 37.9804 132.775 37.5433 132.418C37.3145 132.256 37.1076 132.066 36.9277 131.851C36.8154 131.607 36.7769 131.335 36.817 131.07Z" fill="#263238"/>
<path id="Vector_22" d="M44.6776 140.888C43.2249 141.091 39.944 142.839 39.8763 144.243L40.0117 144.624C39.7021 144.341 39.498 143.961 39.433 143.547C39.2792 142.79 41.0581 140.814 44.2837 140.112C44.7453 140.217 45.1208 140.789 44.6776 140.888Z" fill="#FAFAFA"/>
<path id="Vector_23" d="M43.1204 138.419C41.6553 138.536 38.6022 140.057 38.4483 141.454L38.6268 141.731C38.4483 141.648 38.2963 141.517 38.1876 141.353C38.079 141.189 38.0179 140.998 38.0112 140.802C37.9004 140.038 39.507 138.136 42.7634 137.619C43.2004 137.755 43.5451 138.345 43.1204 138.419Z" fill="#FAFAFA"/>
<path id="Vector_24" d="M41.286 136.056C39.8518 136.296 36.8232 137.952 36.7986 139.374L37.0695 139.663C36.8969 139.594 36.7401 139.491 36.6089 139.36C36.4776 139.229 36.3746 139.072 36.3061 138.9C36.0599 138.142 37.7035 136.074 40.8736 135.286C41.323 135.372 41.7046 135.945 41.286 136.056Z" fill="#FAFAFA"/>
<path id="Vector_25" d="M39.63 134.11C38.1896 134.351 34.9456 136.086 34.921 137.502L35.2041 137.792C34.8424 137.634 34.5557 137.343 34.4039 136.979C34.1577 136.216 36.0351 134.129 39.2053 133.335C39.6485 133.433 40.0424 133.975 39.63 134.11Z" fill="#FAFAFA"/>
<path id="Vector_26" d="M41.8584 82.4156C41.7969 84.3978 29.6826 87.8326 21.0648 90.6211C11.1604 93.8282 6.4452 96.1242 2.80723 99.8114C1.71904 100.82 0.907301 102.091 0.449353 103.503C-0.00859463 104.914 -0.0975031 106.42 0.191091 107.875C0.646607 110.338 2.77028 114.277 7.43008 117.946C16.2695 124.889 20.5539 126.502 26.7772 130.503C26.7772 130.503 33.1298 126.281 34.1085 121.405L25.2137 111.716L50.6302 104.108L41.8584 82.4156Z" fill="#455A64"/>
<path id="Vector_27" d="M22.2343 121.885C22.0804 123.732 21.945 125.702 21.8342 127.518C23.4224 128.441 25.0228 129.364 26.7587 130.503C26.7587 130.503 33.1113 126.281 34.09 121.405L26.3217 112.923C23.7055 115.508 22.6591 116.684 22.2343 121.885Z" fill="#37474F"/>
<path id="Vector_28" d="M50.6302 104.108L49.83 102.458C49.83 102.458 35.1119 105.961 30.0027 107.155C25.6938 108.165 24.8074 108.306 22.616 106.379C19.5382 103.696 17.4145 103.302 15.2847 103.788C18.5287 104.182 21.9881 107.814 25.2321 111.716L50.6302 104.108Z" fill="#37474F"/>
<path id="Vector_29" d="M44.1606 97.0845L28.6731 110.688L50.6548 104.108L44.1237 86.6508L40.5904 88.6329C40.5473 92.3078 41.883 94.5792 44.1606 97.0845Z" fill="#37474F"/>
<path id="Vector_30" d="M35.272 163.682C35.7459 165.436 37.1186 167.862 36.7062 170.158C36.43 171.74 35.5464 173.152 34.244 174.091C33.5536 174.512 32.9309 175.035 32.3973 175.642C31.8494 176.467 31.3016 177.311 30.7291 178.135C29.8181 179.453 29.0609 180.13 28.3407 181.564C26.5802 185.03 22.8007 187.043 19.1812 187.824C17.3799 188.257 15.509 188.316 13.6842 187.997C12.3731 187.757 10.6741 187.043 10.2863 185.621C9.89853 184.199 10.6741 182.728 11.5175 181.644C12.5393 180.315 14.0782 179.502 15.3585 178.48C16.7527 177.309 17.968 175.941 18.9657 174.418C20.0184 172.762 23.8902 167.591 23.9272 162.9C23.9703 159.927 23.207 147.573 23.207 147.573L36.5216 148.496C36.5216 148.496 34.7918 161.928 35.272 163.682Z" fill="#B16668"/>
<path id="Vector_31" d="M37.2911 170.595C37.6887 171.465 37.7714 172.447 37.525 173.371C36.5213 174.675 35.2652 175.764 33.8316 176.572C31.8742 177.748 31.1047 178.252 30.4768 179.902C29.8489 181.552 29.4858 183.257 27.399 185.442C25.3123 187.627 21.7543 189.24 16.5405 189.308C12.0285 189.369 10.4772 187.744 10.0833 187.307C9.52513 186.542 9.1675 185.649 9.04297 184.71L37.2911 170.595Z" fill="#263238"/>
<path id="Vector_32" d="M35.2351 162.445C35.1797 162.919 35.2043 163.424 35.1982 163.99C35.1538 164.67 34.8903 165.318 34.4472 165.837C33.0314 167.548 30.3106 168.299 29.2457 168.459C28.9796 167.781 28.4578 167.235 27.793 166.938C25.6939 165.843 23.3178 165.393 22.6653 165.757C22.0128 166.12 21.0957 170.01 19.0397 173.106C16.9837 176.203 14.9954 177.569 12.2377 179.607C10.5388 180.838 7.65179 182.961 9.41229 185.553C10.3172 186.92 14.7738 188.717 21.1449 186.92C26.7957 185.319 28.6732 181.46 29.6458 178.917C30.6184 176.375 32.1758 175.655 34.7488 173.691C35.8691 172.835 36.7925 172.251 37.2603 170.583C37.3034 168.545 36.2754 166.077 36.0292 164.642C35.8753 163.522 35.9061 162.617 35.2351 162.445Z" fill="#37474F"/>
<path id="Vector_33" d="M29.2455 168.447C28.9311 168.472 28.6324 168.595 28.3908 168.798C28.1493 169.001 27.9768 169.274 27.8974 169.579C27.5859 170.305 27.2282 171.01 26.8264 171.691C24.912 174.719 22.9483 177.581 20.3137 180.056C23.3915 178.037 25.3305 175.168 27.0849 172.054C27.5104 171.304 27.8768 170.522 28.1806 169.715C28.2111 169.421 28.3289 169.143 28.5187 168.917C28.7085 168.691 28.9616 168.527 29.2455 168.447Z" fill="#263238"/>
<path id="Vector_34" d="M21.5325 179.44C20.166 177.268 17.2851 176.363 15.8817 176.787L15.5554 177.064C15.7179 176.65 16.0179 176.305 16.4049 176.086C17.0882 175.661 20.2952 175.747 22.1481 178.757C22.2035 179.244 21.7787 179.834 21.5325 179.44Z" fill="#FAFAFA"/>
<path id="Vector_35" d="M24.1303 177.126C22.9545 175.027 19.5751 173.999 18.147 174.35L17.9131 174.645C17.9376 174.434 18.0163 174.233 18.1414 174.062C18.2665 173.89 18.4338 173.754 18.6271 173.666C19.335 173.279 23.2623 173.765 24.7828 176.473C24.8135 176.966 24.3642 177.532 24.1303 177.126Z" fill="#FAFAFA"/>
<path id="Vector_36" d="M25.9955 174.473C25.146 172.675 21.2249 171.278 19.8399 171.764L19.6306 172.165C19.6497 171.756 19.8288 171.371 20.1292 171.093C20.7879 170.57 24.986 171.315 26.6172 173.777C26.6726 174.257 26.2541 174.855 25.9955 174.473Z" fill="#FAFAFA"/>
<path id="Vector_37" d="M27.202 172.066C26.4818 170.078 22.3945 168.988 20.9971 169.462L20.7263 169.973C20.72 169.778 20.7564 169.584 20.833 169.404C20.9095 169.224 21.0244 169.063 21.1695 168.933C21.8281 168.41 25.8847 168.428 27.8052 171.358C27.8729 171.844 27.442 172.448 27.202 172.066Z" fill="#FAFAFA"/>
<path id="Vector_38" d="M41.8585 82.4156L77.8011 84.9948C78.4844 89.8455 77.6718 96.789 76.3792 100.932C75.2034 104.724 72.575 109.223 65.2991 113.508C56.6812 118.586 46.0812 123.203 44.0437 124.52C41.1013 126.416 39.5317 125.85 39.427 133.064C39.3531 137.681 38.1959 143.405 37.3895 147.794C36.6324 151.98 35.7706 157.379 35.7706 157.379C34.3117 159.545 26.1001 160.85 23.5455 157.994C23.5455 157.994 21.9266 132.658 22.4129 123.27C22.5852 119.971 24.2965 116.869 27.9222 113.009C31.0369 109.697 46.586 97.5031 46.586 97.5031C46.586 97.5031 36.9278 90.3749 41.8585 82.4156Z" fill="#455A64"/>
<path id="Vector_39" d="M72.2549 87.297C73.0736 95.3547 73.5722 100.224 63.0215 106.416C59.839 108.263 56.5335 110.11 53.3264 111.809C43.8283 116.949 36.3308 121.011 36.0045 124.735C35.8814 126.151 35.8506 127.813 35.8137 129.777C35.7337 134.369 35.5121 135.649 34.6195 142.304C33.8439 148.102 32.8344 155.655 31.9541 159.385C32.2927 159.336 32.6128 159.268 32.9205 159.195C33.8008 155.458 34.718 147.936 35.4997 142.494C36.5216 135.36 36.6262 134.424 36.7309 129.789C36.7616 127.863 36.7924 126.2 36.9155 124.822C37.1987 121.608 45.2441 117.25 53.7696 112.64C56.9767 110.904 60.2946 109.106 63.4893 107.229C74.5694 100.735 73.9908 95.3609 73.1659 87.2293C73.0859 86.4598 73.0059 85.6535 72.932 84.8286L72.021 84.6993C72.0826 85.5796 72.1687 86.4598 72.2549 87.297Z" fill="#37474F"/>
<path id="Vector_40" d="M66.3885 105.13C66.2469 105.038 62.9291 102.766 64.111 96.8137C65.4036 90.3134 65.0835 87.3156 64.4557 82.9635L65.3421 82.8281C65.9884 87.2971 66.2839 90.4796 64.9912 96.986C63.9263 102.341 66.8379 104.373 66.881 104.373L66.3885 105.13Z" fill="#37474F"/>
<path id="Vector_41" d="M23.2686 154.781C24.9737 156.732 32.422 157.182 36.2938 154.289L35.7891 158.185C32.9698 160.937 27.0727 161.718 23.4347 159.041L23.2686 154.781Z" fill="#37474F"/>
<g id="Top">
<g id="Arm">
<path id="Vector_42" d="M53.1662 39.3633C48.0139 39.9788 43.8158 41.1607 40.9226 45.5189C37.9618 49.9879 34.5577 55.4725 30.0949 62.3176L18.3993 56.8575L13.7148 65.0322C13.7148 65.0322 26.2846 73.1145 30.9506 74.6842C34.4285 75.8599 35.2595 74.3333 37.8202 71.6495C40.6764 68.664 49.085 58.9135 49.085 58.9135L53.1662 39.3633Z" fill="#B16668"/>
<path id="Vector_43" d="M30.095 62.3176C32.0709 62.9886 34.17 64.8722 34.5332 66.011C33.3944 62.5577 31.6031 61.9237 30.6551 61.4681L30.095 62.3176Z" fill="#9A4A4D"/>
</g>
<g id="Tablet">
<path id="Vector_44" d="M3.95212 47.4272L4.86316 46.5777C4.9998 46.4782 5.15827 46.4129 5.32533 46.3872C5.4924 46.3615 5.6632 46.3762 5.82343 46.43L16.091 48.7999C16.6111 48.9507 17.0926 49.2119 17.5026 49.5656C17.9127 49.9193 18.2416 50.3573 18.4671 50.8497L26.654 71.7296C26.7496 71.8995 26.7919 72.0942 26.7755 72.2885C26.759 72.4828 26.6845 72.6677 26.5617 72.8191L25.5953 73.7117C25.4582 73.8151 25.2978 73.8833 25.1282 73.9101C24.9586 73.937 24.785 73.9217 24.6227 73.8656L14.3551 71.4956C13.8341 71.3467 13.3518 71.0862 12.9415 70.7323C12.5312 70.3783 12.2028 69.9393 11.979 69.4458C10.3724 65.3462 5.39868 52.6718 3.79207 48.566C3.68922 48.3851 3.64916 48.1753 3.67811 47.9693C3.70707 47.7633 3.80341 47.5727 3.95212 47.4272Z" fill="#455A64"/>
<path id="Vector_45" d="M16.2942 50.2156C16.8321 50.5992 17.2572 51.12 17.5253 51.7238L25.7123 72.5974C25.8004 72.7636 25.8413 72.9507 25.8304 73.1385C25.8196 73.3263 25.7574 73.5075 25.6507 73.6624L26.531 72.8437C26.6566 72.695 26.7335 72.5113 26.7511 72.3175C26.7687 72.1237 26.7262 71.9291 26.6295 71.7603L18.4487 50.8743C18.1971 50.3054 17.8001 49.8128 17.2975 49.4462L16.2942 50.2156Z" fill="#263238"/>
<path id="Vector_46" d="M25.7246 72.5974L17.5376 51.7176C17.3121 51.2252 16.9832 50.7873 16.5731 50.4335C16.1631 50.0798 15.6816 49.8186 15.1615 49.6678L4.89395 47.2979C3.93983 47.0824 3.45354 47.6426 3.81056 48.529C5.41718 52.6348 10.3909 65.3092 11.9975 69.4088C12.2213 69.9024 12.5497 70.3413 12.96 70.6953C13.3702 71.0492 13.8526 71.3097 14.3736 71.4587L24.6412 73.8286C25.5953 74.0748 26.0816 73.5146 25.7246 72.5974Z" fill="#37474F"/>
<path id="Vector_47" d="M17.7038 56.1619L16.171 52.2531C16.13 52.1607 16.069 52.0785 15.9923 52.0125C15.9157 51.9465 15.8254 51.8983 15.7278 51.8715L13.795 51.4283C13.6165 51.3852 13.5303 51.4898 13.598 51.6622C13.8935 52.4316 14.8291 54.8016 15.1246 55.571C15.167 55.6636 15.2292 55.7458 15.3068 55.8118C15.3845 55.8777 15.4757 55.9258 15.5739 55.9526L17.5007 56.3959C17.6792 56.4143 17.7715 56.3343 17.7038 56.1619Z" fill="#455A64"/>
<path id="Vector_48" d="M16.1157 53.2073C16.0072 52.9765 15.8496 52.7721 15.654 52.6084C15.4584 52.4446 15.2294 52.3255 14.9831 52.2594C14.5214 52.1547 14.2813 52.4071 14.4414 52.8195C14.5516 53.0492 14.7097 53.2527 14.9051 53.4162C15.1004 53.5797 15.3285 53.6995 15.574 53.7675C16.0357 53.8722 16.2819 53.6198 16.1157 53.2073Z" fill="#263238"/>
<path id="Vector_49" d="M16.8667 55.1832C16.7561 54.9545 16.5978 54.7521 16.4024 54.5896C16.207 54.4271 15.9792 54.3084 15.7341 54.2414C15.2724 54.1306 15.0262 54.383 15.1924 54.8016C15.3023 55.0308 15.4604 55.2336 15.6558 55.3962C15.8513 55.5587 16.0795 55.6772 16.325 55.7434C16.7867 55.8419 17.0267 55.5957 16.8667 55.1832Z" fill="#263238"/>
<path id="Vector_50" d="M6.79597 61.1727C5.73104 59.9847 5.79876 59.8 6.2235 59.0859C6.54458 58.5195 6.99542 58.0372 7.53901 57.6788C8.08259 57.3203 8.7034 57.0958 9.35054 57.0238C10.4955 56.9376 11.6404 56.7899 12.256 57.0238C12.8716 57.2577 12.5145 58.5504 11.068 59.049C8.79039 59.8246 8.87657 60.4587 8.87657 60.4587C9.84596 60.1224 10.8322 59.8368 11.8313 59.603C12.9925 59.5546 14.1557 59.6019 15.3092 59.7446C16.3126 59.7938 16.6449 61.0373 15.026 61.659L16.8727 61.7513C18.1592 61.8129 18.6578 62.4408 17.753 63.3272C17.4616 63.6314 17.075 63.8269 16.6573 63.8812C16.6573 63.8812 18.0054 63.7334 18.0792 64.1766C18.3008 65.4509 17.5067 65.8817 14.8721 66.9651C12.3668 67.9993 11.9851 69.4582 12.6069 70.363C12.6069 70.363 11.4927 69.8706 10.4955 69.3289C9.76298 68.9288 9.12895 68.4671 9.31977 67.3714C9.31977 67.3714 7.84243 67.5622 7.65161 66.6574C7.55562 65.986 7.60388 65.3019 7.79317 64.6506C7.51087 64.5299 7.26853 64.3317 7.09422 64.079C6.91992 63.8262 6.82079 63.5293 6.80829 63.2225C6.74083 62.6416 6.8686 62.0547 7.17147 61.5544L6.79597 61.1727Z" fill="#B16668"/>
<path id="Vector_51" d="M15.0261 61.659C14.4755 61.6036 13.9208 61.6036 13.3702 61.659C12.8277 61.805 12.3108 62.0334 11.8375 62.3361C10.8906 62.8751 9.99076 63.4929 9.14746 64.1828C10.1562 63.7933 11.1284 63.3155 12.0529 62.7547C12.4914 62.469 12.955 62.2238 13.4379 62.0222C13.9365 61.8929 14.5151 61.819 15.0261 61.659Z" fill="#9A4A4D"/>
<path id="Vector_52" d="M16.645 63.8811C16.0494 63.7807 15.4382 63.8293 14.866 64.0227C14.3027 64.2108 13.7586 64.452 13.2409 64.7429C12.2026 65.2973 11.2282 65.9641 10.3354 66.7312C11.4057 66.2612 12.4514 65.7373 13.4687 65.1615C14.4393 64.5423 15.5162 64.1082 16.645 63.8811Z" fill="#9A4A4D"/>
</g>
<g id="Chest">
<path id="Vector_53" d="M64.4679 37.5227L74.6616 40.2373C76.3975 40.8529 83.0579 47.4148 80.7618 57.3068C80.1463 59.9784 79.2414 64.2381 78.0472 70.1782C77.5794 72.5297 78.1149 74.758 78.3242 77.4049C78.6751 81.7139 78.3242 87.4509 78.0472 91.846C78.0472 91.846 73.2212 95.5394 55.9609 93.5757C42.7878 92.0922 39.1807 84.4039 39.1807 84.4039C40.4118 80.6243 42.0061 78.0636 43.902 74.4502C43.5037 71.7693 43.4026 69.0526 43.6004 66.3494C41.4383 64.4421 40.0354 61.8198 39.6485 58.9627C39.0329 54.6538 41.052 51.539 45.1578 46.7377C47.4828 43.9286 50.1742 41.4442 53.1601 39.3509L64.4679 37.5227Z" fill="#37474F"/>
</g>
<path id="Vector_54" d="M72.1134 3.35294C72.5619 4.01156 73.089 4.61308 73.683 5.14423C74.5202 5.75979 75.579 5.75979 76.57 5.90137C77.5611 6.04295 78.6445 6.40613 79.1123 7.37256C79.7956 8.80066 78.743 10.672 79.3831 12.1247C79.7833 13.0357 80.7189 13.4728 81.5376 13.9714C82.3563 14.47 83.2181 15.1656 83.2304 16.1751C83.2304 17.4062 81.9993 18.3295 81.9993 19.5607C81.9993 20.7918 83.4212 21.8198 83.1935 23.0755C83.0912 23.4284 82.9 23.7491 82.638 24.0068C82.376 24.2644 82.0522 24.4504 81.6977 24.5467C81.0007 24.7111 80.3394 25.001 79.7463 25.4024C78.466 26.5042 78.6383 28.9726 77.2348 29.8713C76.49 30.3453 75.5297 30.1976 74.7418 30.5854C73.326 31.2687 72.8951 33.4293 71.4178 34.0387C70.0635 34.605 68.5923 33.5339 67.1396 33.6139C65.6869 33.694 64.4373 34.8451 63.0708 34.488C61.7042 34.131 60.9163 32.389 59.6175 31.6995C57.5676 30.61 54.8161 32.4321 52.9509 30.9978C51.7198 30.0622 51.4182 27.9877 49.9408 27.446C49.547 27.3237 49.1461 27.225 48.7405 27.1505C48.1529 27.0249 47.6053 26.7564 47.1462 26.3688C46.7225 25.997 46.3765 25.5451 46.1282 25.0391C45.88 24.533 45.7343 23.9828 45.6996 23.4202C45.6381 22.5277 45.835 21.5736 45.4472 20.7795C44.924 19.6961 43.539 19.4129 42.985 18.3603C42.3694 17.2092 42.985 15.7257 43.7606 14.6977C44.5362 13.6698 45.5273 12.6787 45.7119 11.3552C45.8658 10.2041 45.3734 8.97302 45.792 7.90809C46.011 7.48183 46.3188 7.10744 46.6947 6.81013C47.0706 6.51282 47.5058 6.2995 47.971 6.18453C48.8513 5.87059 49.8177 5.61205 50.4333 4.88569C50.4577 4.8585 50.4804 4.82971 50.501 4.79951C51.2212 3.90079 51.4736 2.5958 52.44 1.8879C53.2796 1.38019 54.2809 1.21075 55.2408 1.41392C56.5704 1.6109 57.383 2.1526 58.7064 1.6663C59.5436 1.35852 60.2146 0.601381 61.0887 0.435179C61.9628 0.268978 62.7938 0.718341 63.5509 1.1123C64.165 1.53874 64.8962 1.76453 65.6438 1.75864C66.2678 1.59282 66.9008 1.46333 67.5397 1.37084C68.4062 1.33814 69.2688 1.50291 70.0622 1.85271C70.8557 2.2025 71.5592 2.72814 72.1195 3.38988L72.1134 3.35294Z" fill="#263238"/>
<g id="Head">
<path id="Vector_55" d="M73.5107 9.84715C70.9376 6.40001 63.2616 3.46994 57.3584 5.58747C52.0892 6.85553 48.7405 11.6938 48.5374 18.1695C49.116 26.1718 68.1245 35.1344 68.1245 35.1344C68.3153 33.811 70.2975 31.3056 71.8179 28.708C72.8347 26.9681 73.7433 25.1672 74.5387 23.3156C76.0714 20.7118 76.687 14.1068 73.5107 9.84715Z" fill="#263238"/>
<path id="Vector_56" d="M68.0691 36.9503C68.0691 35.7192 68.303 29.5636 68.303 29.5636C68.3337 29.8652 69.2879 30.5054 70.5128 30.2653C72.5011 29.8775 76.4653 23.9681 72.852 21.7829C71.3377 20.8657 69.1586 21.2166 68.1306 23.6296C66.7887 23.9312 65.97 22.5831 66.1054 20.7918C66.327 17.9356 64.665 16.0212 62.2951 14.3961C60.59 13.2204 58.06 11.9339 56.8905 10.3704C53.8988 12.8326 50.0639 12.4756 48.6419 16.1259C48.4577 18.5465 48.4064 20.9755 48.4881 23.4018C48.5435 29.5205 49.8669 33.06 52.0152 34.0325C53.6257 34.7705 55.408 35.0516 57.1675 34.8451L57.032 36.8887C56.9828 37.9106 57.069 38.4707 56.0594 38.7724C55.6562 38.894 55.2448 38.9866 54.8283 39.0494C54.8283 39.0494 51.135 41.881 57.4999 42.7858C66.9549 44.1401 72.2733 39.5603 72.2733 39.5603C72.2733 39.5603 71.43 39.3264 69.8603 38.8278C68.2907 38.3292 68.0691 38.1753 68.0691 36.9503Z" fill="#B16668"/>
<path id="Vector_57" d="M59.6543 27.5138L56.2195 28.5787C56.2811 28.8069 56.3878 29.0205 56.5334 29.2067C56.679 29.3929 56.8605 29.548 57.0672 29.6628C57.2738 29.7776 57.5014 29.8498 57.7364 29.875C57.9715 29.9003 58.2092 29.8781 58.4355 29.8098C58.8947 29.657 59.2775 29.3333 59.5045 28.9058C59.7314 28.4783 59.785 27.9798 59.6543 27.5138Z" fill="#9A4A4D"/>
<path id="Vector_58" d="M59.4512 28.3079C58.9949 28.2916 58.5472 28.4344 58.1845 28.7117C57.8218 28.989 57.5668 29.3837 57.4629 29.8283C57.788 29.927 58.135 29.927 58.4601 29.8283C58.7821 29.7184 59.0674 29.5217 59.2846 29.26C59.5019 28.9982 59.6426 28.6815 59.6912 28.3448C59.6121 28.3273 59.5319 28.3149 59.4512 28.3079Z" fill="#FFA8A7"/>
<path id="Vector_59" d="M49.6638 18.3296L52.1261 17.0985C52.051 16.9316 51.9422 16.7822 51.8065 16.6596C51.6708 16.5369 51.5112 16.4438 51.3376 16.3859C51.1641 16.3281 50.9805 16.3068 50.7984 16.3235C50.6162 16.3402 50.4395 16.3945 50.2794 16.4829C49.9654 16.6589 49.7283 16.9457 49.6145 17.2872C49.5007 17.6287 49.5183 18.0004 49.6638 18.3296Z" fill="#263238"/>
<path id="Vector_60" d="M62.5291 18.1696L60.0115 16.9384C60.0816 16.7671 60.1865 16.6121 60.3194 16.4833C60.4524 16.3544 60.6105 16.2545 60.784 16.1897C60.9574 16.125 61.1424 16.0968 61.3273 16.107C61.5121 16.1172 61.6929 16.1656 61.8582 16.249C62.1948 16.4222 62.452 16.718 62.5769 17.0754C62.7017 17.4328 62.6846 17.8244 62.5291 18.1696Z" fill="#263238"/>
<path id="Vector_61" d="M52.8215 20.6317C52.834 20.9349 52.7299 21.2314 52.5308 21.4603C52.3316 21.6892 52.0524 21.8332 51.7504 21.8629C51.6016 21.879 51.4511 21.8649 51.3078 21.8215C51.1645 21.7781 51.0314 21.7063 50.9165 21.6104C50.8016 21.5144 50.7072 21.3963 50.639 21.2631C50.5707 21.1298 50.53 20.9842 50.5193 20.8349C50.5069 20.5317 50.6109 20.2352 50.8101 20.0063C51.0092 19.7774 51.2884 19.6334 51.5904 19.6038C51.7392 19.5877 51.8898 19.6017 52.0331 19.6451C52.1763 19.6885 52.3094 19.7603 52.4243 19.8562C52.5392 19.9522 52.6336 20.0703 52.7019 20.2036C52.7701 20.3368 52.8108 20.4824 52.8215 20.6317Z" fill="#263238"/>
<path id="Vector_62" d="M61.1626 20.9088C61.175 21.212 61.071 21.5085 60.8718 21.7374C60.6727 21.9663 60.3935 22.1103 60.0915 22.14C59.9427 22.1561 59.7921 22.142 59.6488 22.0986C59.5055 22.0552 59.3725 21.9834 59.2576 21.8875C59.1427 21.7915 59.0483 21.6734 58.98 21.5402C58.9118 21.4069 58.8711 21.2613 58.8604 21.112C58.8479 20.8088 58.9519 20.5123 59.1511 20.2834C59.3503 20.0545 59.6295 19.9105 59.9314 19.8809C60.0803 19.8648 60.2308 19.8788 60.3741 19.9222C60.5174 19.9656 60.6505 20.0374 60.7654 20.1333C60.8803 20.2293 60.9747 20.3474 61.0429 20.4806C61.1112 20.6139 61.1519 20.7595 61.1626 20.9088Z" fill="#263238"/>
<path id="Vector_63" d="M52.0276 24.399L55.6471 26.1657L56.4535 19.1667L52.0276 24.399Z" fill="#9A4A4D"/>
<path id="Vector_64" d="M57.1798 34.8697C61.5626 34.4635 65.7607 33.0661 66.7579 31.0779C66.743 31.7172 66.5727 32.3433 66.2617 32.902C65.9507 33.4608 65.5083 33.9354 64.9728 34.285C62.4736 35.7254 57.0813 36.4148 57.0813 36.4148L57.1798 34.8697Z" fill="#9A4A4D"/>
</g>
<g id="Arm_2">
<path id="Vector_65" d="M56.8288 54.5677C54.9452 52.721 53.9726 51.9577 53.0308 51.5515C52.089 51.1452 48.8573 49.237 47.5831 48.726C46.7767 48.4059 46.2535 49.6863 47.1953 50.7451C47.9155 51.5638 49.9161 52.7764 50.7778 53.4166C51.6396 54.0568 53.1724 56.5375 53.1724 56.5375L56.8288 54.5677Z" fill="#9A4A4D"/>
<path id="Vector_66" d="M83.9936 48.4613C82.467 43.1429 79.6847 41.0746 74.6617 40.2374C69.2879 44.2078 72.815 58.8212 72.815 58.8212L75.2281 67.2975C75.2281 67.2975 65.2867 63.3148 63.9879 62.213C62.0188 60.2747 60.1687 58.2191 58.4478 56.0574C56.9397 54.143 56.041 54.2476 55.1423 54.2599C52.1876 54.2968 51.5166 54.4507 50.8334 54.7585C50.6359 54.8594 50.4666 55.008 50.3409 55.1906C50.2152 55.3733 50.1369 55.5845 50.1131 55.805C49.3314 55.805 48.1864 55.6142 47.8602 56.8576C47.753 57.182 47.6908 57.5196 47.6755 57.861C47.4767 57.8703 47.2873 57.9486 47.14 58.0826C46.3952 58.7351 47.14 61.4497 47.7555 62.1699C48.1864 62.6808 48.8759 62.8285 49.8115 62.8285C50.6056 62.8285 50.3532 61.9914 50.3532 61.9914L51.4304 62.2068C53.5541 64.2012 53.2156 67.5314 56.2318 68.6887C57.4985 68.9971 58.7346 69.4195 59.9252 69.9506C66.3147 73.1269 74.4278 81.954 81.833 82.9389C87.6932 83.7145 88.6042 81.0122 88.8627 77.3989C89.1336 73.687 85.354 53.2012 83.9936 48.4613Z" fill="#B16668"/>
<path id="Vector_67" d="M74.76 65.5924L75.2463 67.2975C78.6688 68.3563 81.9805 69.3904 82.8362 70.7447C81.9929 68.5225 79.586 66.8789 74.76 65.5924Z" fill="#9A4A4D"/>
<path id="Vector_68" d="M50.1191 55.7988L53.6525 55.5834L50.2607 55.3372C50.1857 55.4811 50.1378 55.6376 50.1191 55.7988Z" fill="#9A4A4D"/>
<path id="Vector_69" d="M47.6816 57.8671L51.7136 57.9041L47.7432 57.4116C47.7064 57.5608 47.6858 57.7135 47.6816 57.8671Z" fill="#9A4A4D"/>
<path id="Vector_70" d="M47.9646 59.683C48.0663 59.9025 48.2286 60.0883 48.4324 60.2185C48.6218 60.3549 48.8289 60.4646 49.048 60.5448L48.9987 60.5017C49.0788 60.7233 49.1649 60.9387 49.2511 61.1542L49.3435 61.0618C49.2369 61.028 49.1244 61.0166 49.0132 61.0283C48.902 61.0399 48.7944 61.0744 48.6971 61.1296C48.5135 61.2396 48.3676 61.4027 48.2785 61.5974C48.4022 61.4391 48.56 61.3107 48.7402 61.2219C48.9198 61.1604 49.1147 61.1604 49.2942 61.2219L49.4419 61.2773L49.3865 61.1296C49.3065 60.908 49.2265 60.6863 49.1403 60.4709V60.4401H49.1034C48.8894 60.3687 48.6832 60.2759 48.4878 60.1631C48.2753 60.0503 48.0952 59.8851 47.9646 59.683Z" fill="#9A4A4D"/>
<path id="Vector_71" d="M48.9497 60.3417C49.4154 60.468 49.8881 60.5667 50.3655 60.6371C50.4117 60.944 50.5465 61.2306 50.7533 61.462C50.9618 61.7273 51.188 61.9782 51.4304 62.213L50.3532 61.9975C50.229 61.784 50.0621 61.5984 49.863 61.4522C49.6639 61.3061 49.4368 61.2025 49.1959 61.1481L48.9497 60.3417Z" fill="#9A4A4D"/>
</g>
<g id="Warp">
<path id="Vector_72" d="M74.3723 23.0139C75.7142 24.8052 76.8346 27.6922 77.0993 32.3766C77.2839 35.873 78.749 41.2407 80.5402 42.5026C76.8469 42.5026 72.0886 47.4825 72.3779 49.3969C71.2329 46.3191 70.7466 37.8736 71.6023 33.1091C72.0835 30.6091 72.3961 28.0796 72.5379 25.5377L74.3723 23.0139Z" fill="#2A8EF1"/>
<path id="Vector_73" opacity="0.3" d="M74.3723 23.0139C75.7142 24.8052 76.8346 27.6922 77.0993 32.3766C77.2839 35.873 78.749 41.2407 80.5402 42.5026C76.8469 42.5026 72.0886 47.4825 72.3779 49.3969C71.2329 46.3191 70.7466 37.8736 71.6023 33.1091C72.0835 30.6091 72.3961 28.0796 72.5379 25.5377L74.3723 23.0139Z" fill="#525252"/>
<path id="Vector_74" d="M70.5312 30.2899C71.6885 27.7353 69.5156 18.4096 66.13 14.9009C57.9553 6.44919 53.2401 10.5119 51.1903 12.4386C49.6867 13.9832 48.7533 15.9934 48.5434 18.1387C48.291 13.6574 49.2267 9.25 54.2435 6.67695C60.7192 3.34676 66.9918 6.59077 70.2481 9.60087C75.2895 14.3038 75.4865 19.8438 74.6001 23.2848C74.5632 23.3156 71.7131 29.1019 70.5312 30.2899Z" fill="#2A8EF1"/>
<path id="Vector_75" opacity="0.25" d="M70.5312 30.2899C71.6885 27.7353 69.5156 18.4096 66.13 14.9009C57.9553 6.44919 53.2401 10.5119 51.1903 12.4386C49.6867 13.9832 48.7533 15.9934 48.5434 18.1387C48.291 13.6574 49.2267 9.25 54.2435 6.67695C60.7192 3.34676 66.9918 6.59077 70.2481 9.60087C75.2895 14.3038 75.4865 19.8438 74.6001 23.2848C74.5632 23.3156 71.7131 29.1019 70.5312 30.2899Z" fill="#525252"/>
<path id="Vector_76" d="M70.5311 30.2899C69.5063 31.587 68.6996 33.0424 68.1428 34.5989C67.004 37.4181 63.7107 44.4478 64.0123 52.0131C64.314 59.5783 65.342 61.3388 65.342 61.3388C65.342 61.3388 65.342 59.9107 66.9424 57.3746C69.0476 54.0752 72.0824 55.7434 74.5385 51.7853C72.7964 47.1932 71.99 44.3986 72.6918 36.1993C73.3935 28 73.2273 26.0056 73.2273 26.0056C73.2273 26.0056 72.1008 27.9446 70.5311 30.2899Z" fill="#2A8EF1"/>
<path id="Vector_77" opacity="0.38" d="M70.5311 30.2899C69.5063 31.587 68.6996 33.0424 68.1428 34.5989C67.004 37.4181 63.7107 44.4478 64.0123 52.0131C64.314 59.5783 65.342 61.3388 65.342 61.3388C65.342 61.3388 65.342 59.9107 66.9424 57.3746C69.0476 54.0752 72.0824 55.7434 74.5385 51.7853C72.7964 47.1932 71.99 44.3986 72.6918 36.1993C73.3935 28 73.2273 26.0056 73.2273 26.0056C73.2273 26.0056 72.1008 27.9446 70.5311 30.2899Z" fill="#525252"/>
</g>
</g>
</g>
</g>
</svg>
