<svg width="97" height="237" viewBox="0 0 97 237" fill="none" xmlns="http://www.w3.org/2000/svg">
<g id="Device">
<path id="Vector" d="M95.4588 49.815C94.7744 48.4188 93.6859 47.2607 92.3346 46.4913L11.0712 0.23263C10.6939 0.0928847 10.2967 0.014342 9.8946 -2.62797e-05C5.71344 -0.0797941 1.51234 3.85542 0.920727 5.92273C0.784244 6.18581 0.711383 6.47724 0.708008 6.77359V182.482C0.708817 183.854 1.07268 185.202 1.76266 186.388C2.45263 187.574 3.44415 188.557 4.63657 189.236L85.8867 235.548C85.9877 235.597 86.0921 235.639 86.1991 235.674C86.1991 235.674 86.1991 235.674 86.2324 235.674C91.0783 237.735 96.2432 233.46 96.2432 228.98V53.2184C96.245 52.0389 95.9767 50.8747 95.4588 49.815Z" fill="#37474F"/>
<path id="Vector_2" d="M0.927319 5.9293C1.51893 3.86198 5.72003 -0.0532887 9.90119 0.00653717C10.3033 0.0209054 10.7005 0.0994481 11.0778 0.239193L92.3346 46.4646C93.5198 47.1519 94.5054 48.1363 95.1943 49.3206C95.8832 50.5049 96.2516 51.8483 96.2631 53.2183V229C96.2631 233.48 91.0981 237.754 86.2523 235.694C86.2523 235.694 86.2523 235.694 86.219 235.694C86.112 235.659 86.0076 235.617 85.9066 235.567L4.64317 189.236C3.45074 188.557 2.45922 187.574 1.76925 186.388C1.07927 185.202 0.715409 183.854 0.7146 182.482V6.78015C0.717974 6.4838 0.790836 6.19237 0.927319 5.9293Z" fill="#455A64"/>
<path id="Vector_3" d="M84.9294 71.7909C84.9272 71.1007 84.7413 70.4235 84.3909 69.8289C84.0404 69.2343 83.538 68.7436 82.9352 68.4074L7.50815 25.4923C7.2127 25.3233 6.878 25.2349 6.53763 25.2361C6.19725 25.2373 5.86317 25.3279 5.56889 25.499C5.27461 25.67 5.03049 25.9154 4.86101 26.2106C4.69152 26.5058 4.60264 26.8404 4.60327 27.1807V168.928C4.60736 169.617 4.79409 170.293 5.14442 170.886C5.49475 171.479 5.99614 171.969 6.59747 172.305L82.0512 215.3C82.3466 215.469 82.6813 215.557 83.0217 215.556C83.362 215.555 83.6961 215.464 83.9904 215.293C84.2847 215.122 84.5288 214.877 84.6983 214.581C84.8678 214.286 84.9567 213.952 84.956 213.611L84.9294 71.7909Z" fill="#2A8EF1"/>
<path id="Vector_4" opacity="0.2" d="M84.9294 71.7909C84.9272 71.1007 84.7413 70.4235 84.3909 69.8289C84.0404 69.2343 83.538 68.7436 82.9352 68.4074L7.50815 25.4923C7.2127 25.3233 6.878 25.2349 6.53763 25.2361C6.19725 25.2373 5.86317 25.3279 5.56889 25.499C5.27461 25.67 5.03049 25.9154 4.86101 26.2106C4.69152 26.5058 4.60264 26.8404 4.60327 27.1807V168.928C4.60736 169.617 4.79409 170.293 5.14442 170.886C5.49475 171.479 5.99614 171.969 6.59747 172.305L82.0512 215.3C82.3466 215.469 82.6813 215.557 83.0217 215.556C83.362 215.555 83.6961 215.464 83.9904 215.293C84.2847 215.122 84.5288 214.877 84.6983 214.581C84.8678 214.286 84.9567 213.952 84.956 213.611L84.9294 71.7909Z" fill="#525252"/>
<path id="Vector_5" opacity="0.3" d="M96.2631 53.2185V229C96.2631 233.48 91.0981 237.755 86.2522 235.694C86.2522 235.694 86.2522 235.694 86.219 235.694C86.5111 235.801 86.8248 235.836 87.1333 235.796C87.4418 235.755 87.736 235.641 87.9911 235.463C88.2462 235.285 88.4545 235.048 88.5985 234.773C88.7425 234.497 88.8178 234.19 88.8181 233.879V58.0777C88.8076 56.5486 88.345 55.0569 87.4886 53.7901L95.4654 49.8018C95.9899 50.8644 96.2628 52.0335 96.2631 53.2185Z" fill="#525252"/>
<path id="Vector_6" opacity="0.1" d="M9.89471 -2.62862e-05C10.2968 0.014342 10.694 0.0928847 11.0713 0.23263L92.3347 46.4647C93.686 47.2341 94.7745 48.3922 95.459 49.7884L87.4822 53.7768C86.816 52.7596 85.9185 51.9145 84.8631 51.3106L3.61964 5.09182C3.38997 4.96074 3.13577 4.87832 2.87288 4.84969C2.60998 4.82106 2.34401 4.84682 2.0915 4.92538C1.83899 5.00394 1.60533 5.13362 1.40508 5.30634C1.20483 5.47906 1.04227 5.69114 0.92749 5.92938C1.51245 3.85542 5.71355 -0.0797941 9.89471 -2.62862e-05Z" fill="white"/>
<path id="Vector_7" d="M34.749 34.1139C34.1773 33.7882 33.7053 34.0408 33.7053 34.6988C33.7262 35.0591 33.8308 35.4095 34.0108 35.7222C34.1908 36.0349 34.4413 36.3013 34.7423 36.5003L50.6959 45.7002C51.2675 46.0325 51.7262 45.7533 51.7262 45.1019C51.7084 44.7452 51.6064 44.3978 51.4285 44.0881C51.2505 43.7784 51.0018 43.5154 50.7025 43.3204L34.749 34.1139Z" fill="#263238"/>
<path id="Vector_8" d="M54.7906 45.6869C54.219 45.3545 53.7603 45.6204 53.7537 46.2718C53.7727 46.6308 53.8759 46.9803 54.0549 47.2921C54.2338 47.6038 54.4836 47.8691 54.784 48.0666C55.3557 48.3923 55.8276 48.1264 55.8276 47.4684C55.8074 47.1107 55.7028 46.7629 55.5226 46.4533C55.3424 46.1437 55.0916 45.8811 54.7906 45.6869Z" fill="#263238"/>
<path id="Vector_9" d="M44.5868 32.7779C43.4435 32.1132 42.5262 32.6449 42.5195 33.9545C42.5551 34.6697 42.759 35.3664 43.1148 35.9878C43.4706 36.6093 43.9681 37.138 44.5669 37.5307C45.7102 38.1954 46.6541 37.6504 46.6608 36.3408C46.6187 35.6259 46.409 34.9309 46.0488 34.312C45.6885 33.6931 45.1877 33.1676 44.5868 32.7779Z" fill="#263238"/>
<path id="Vector_10" d="M44.5803 198.256C42.2537 196.927 40.3792 197.984 40.3726 200.656C40.4447 202.117 40.8603 203.541 41.5856 204.811C42.3109 206.082 43.3255 207.163 44.5471 207.968C46.8736 209.297 48.7947 208.214 48.808 205.542C48.7258 204.08 48.3002 202.659 47.5656 201.393C46.831 200.127 45.8082 199.053 44.5803 198.256Z" fill="#263238"/>
</g>
</svg>
