<svg width="103" height="136" viewBox="0 0 103 136" fill="none" xmlns="http://www.w3.org/2000/svg">
<g id="Furniture">
<g id="Drawer">
<path id="Vector" d="M69.0222 121.418L71.6322 134.357L74.1683 135.822L76.6798 134.369L79.3144 121.418L74.1683 118.445L69.0222 121.418Z" fill="#E0E0E0"/>
<path id="Vector_2" opacity="0.05" d="M69.0222 121.418L71.6322 134.357L74.1683 135.822L76.6798 134.369L79.3144 121.418L74.1683 118.445L69.0222 121.418Z" fill="#525252"/>
<path id="Vector_3" d="M74.1683 135.822V124.385L69.0222 121.418L71.6322 134.357L74.1683 135.822Z" fill="#EBEBEB"/>
<path id="Vector_4" opacity="0.05" d="M69.0222 121.418L70.7088 129.771L74.1683 131.772L77.6154 129.783L79.3144 121.418L74.1683 118.445L69.0222 121.418Z" fill="#525252"/>
<path id="Vector_5" d="M91.644 108.356L94.254 121.295L96.7901 122.76L99.3078 121.307L101.936 108.356L96.7901 105.382L91.644 108.356Z" fill="#E0E0E0"/>
<path id="Vector_6" opacity="0.05" d="M91.644 108.356L94.254 121.295L96.7901 122.76L99.3078 121.307L101.936 108.356L96.7901 105.382L91.644 108.356Z" fill="#525252"/>
<path id="Vector_7" d="M96.7901 122.76V111.323L91.644 108.356L94.254 121.295L96.7901 122.76Z" fill="#EBEBEB"/>
<path id="Vector_8" opacity="0.05" d="M91.644 108.356L93.3307 116.709L96.7901 118.709L100.237 116.721L101.936 108.356L96.7901 105.382L91.644 108.356Z" fill="#525252"/>
<path id="Vector_9" opacity="0.05" d="M2.09839 82.7791L4.70836 95.7182L7.24447 97.1832L9.75597 95.7305L12.3906 82.7791L7.24447 79.8059L2.09839 82.7791Z" fill="#525252"/>
<path id="Vector_10" d="M7.24447 97.1832V85.7461L2.09839 82.7791L4.70836 95.7181L7.24447 97.1832Z" fill="#EBEBEB"/>
<path id="Vector_11" opacity="0.05" d="M2.09839 82.7791L3.78502 91.1323L7.24447 93.1328L10.6916 91.1446L12.3906 82.7791L7.24447 79.8059L2.09839 82.7791Z" fill="#525252"/>
<g id="Cabinet">
<g id="Cabinet_2">
<path id="Vector_12" d="M74.1682 129.685L102.207 113.496V52.8136L74.1682 69.0029V129.685Z" fill="#E0E0E0"/>
<path id="Vector_13" d="M74.1682 69.0028L0.639404 26.5475V87.2295L74.1682 129.685V69.0028Z" fill="#EBEBEB"/>
<path id="Vector_14" d="M0.639404 26.5475L74.1682 69.0028L102.207 52.8135L28.6782 10.3583L0.639404 26.5475Z" fill="#F5F5F5"/>
<path id="Vector_15" d="M70.1608 99.0606L4.64662 61.2344V83.5054L3.90796 83.9301L69.4283 121.756L70.1608 121.332V99.0606Z" fill="#E0E0E0"/>
<path id="Vector_16" d="M69.4283 99.4854L3.90796 61.6592V83.9302L69.4283 121.756V99.4854Z" fill="#F5F5F5"/>
<path id="Vector_17" d="M37.93 85.5122L32.4823 82.3667C31.7744 81.9542 31.1958 82.1451 31.1958 82.7791C31.2488 83.1732 31.3925 83.5496 31.6158 83.8786C31.839 84.2076 32.1357 84.4802 32.4823 84.675L37.93 87.8205C38.6379 88.233 39.2104 88.0421 39.2104 87.4081C39.159 87.0143 39.0166 86.6379 38.7943 86.3088C38.5721 85.9797 38.2761 85.7069 37.93 85.5122Z" fill="#E0E0E0"/>
<path id="Vector_18" d="M70.1608 72.1729L4.64658 34.3467V56.6177L3.91406 57.0424L69.4283 94.8687L70.1669 94.4378L70.1608 72.1729Z" fill="#E0E0E0"/>
<path id="Vector_19" d="M69.4283 72.5977L3.90796 34.7715L3.9141 57.0425L69.4283 94.8687V72.5977Z" fill="#F5F5F5"/>
<path id="Vector_20" d="M37.93 58.6183L32.4823 55.4728C31.7744 55.0665 31.2019 55.2512 31.2019 55.8914C31.2533 56.2852 31.3957 56.6616 31.618 56.9907C31.8402 57.3198 32.1362 57.5925 32.4823 57.7873L37.93 60.9328C38.6379 61.3391 39.2103 61.1544 39.2103 60.5142C39.1581 60.1207 39.0152 59.7447 38.7931 59.4157C38.5709 59.0868 38.2755 58.8138 37.93 58.6183Z" fill="#E0E0E0"/>
</g>
</g>
<g id="Pot">
<path id="Vector_21" d="M21.753 20.4351C18.3551 22.3987 18.3551 25.5811 21.753 27.5448C25.1509 29.5084 30.6663 29.5023 34.0642 27.5448C37.4621 25.5873 37.4621 22.3987 34.0642 20.4351C30.6663 18.4714 25.1263 18.4899 21.753 20.4351Z" fill="#E0E0E0"/>
<path id="Vector_22" d="M33.2948 24.43C36.2557 21.4076 37.9977 13.8669 35.1107 11.4724H20.4173C17.5303 13.8669 19.2723 21.4014 22.227 24.3992L22.307 24.4854L22.4117 24.5839C22.4917 24.6639 22.5841 24.7439 22.6764 24.8239L22.7503 24.8793L22.9719 25.0455C23.0948 25.1341 23.2222 25.2163 23.3535 25.2918C24.7208 25.9836 26.2317 26.3441 27.764 26.3441C29.2964 26.3441 30.8072 25.9836 32.1745 25.2918C32.3038 25.2179 32.433 25.1317 32.5561 25.0455L32.7655 24.8855L32.8516 24.8178C32.944 24.7439 33.0301 24.6639 33.1102 24.59L33.2271 24.4731C33.2505 24.46 33.2731 24.4456 33.2948 24.43Z" fill="#EBEBEB"/>
<path id="Vector_23" d="M21.6977 10.4875C18.3429 12.4204 18.3429 15.5598 21.6977 17.4926C25.0526 19.4255 30.4818 19.4316 33.8305 17.4926C37.1791 15.5536 37.1853 12.4204 33.8305 10.4875C30.4756 8.55467 25.0464 8.57313 21.6977 10.4875Z" fill="#FAFAFA"/>
<path id="Vector_24" d="M24.0738 11.8788C22.0301 13.0545 22.0301 14.9566 24.0738 16.1446C25.2183 16.7254 26.4837 17.028 27.7671 17.028C29.0506 17.028 30.316 16.7254 31.4605 16.1446C33.5042 14.9627 33.5042 13.0668 31.4605 11.8788C30.316 11.298 29.0506 10.9954 27.7671 10.9954C26.4837 10.9954 25.2183 11.298 24.0738 11.8788Z" fill="#F5F5F5"/>
<path id="Vector_25" d="M31.4543 13.9039C30.3106 13.3203 29.0449 13.016 27.7609 13.016C26.4769 13.016 25.2112 13.3203 24.0675 13.9039C23.5699 14.1684 23.1466 14.5536 22.8364 15.0242C23.1501 15.4918 23.5725 15.8763 24.0675 16.1446C25.2121 16.7253 26.4775 17.028 27.7609 17.028C29.0444 17.028 30.3097 16.7253 31.4543 16.1446C31.9493 15.8763 32.3718 15.4918 32.6854 15.0242C32.3753 14.5536 31.952 14.1684 31.4543 13.9039Z" fill="#EBEBEB"/>
<path id="Vector_26" d="M24.5231 15.0242C23.4787 13.9643 22.5803 12.7698 21.8515 11.4724C20.6204 9.2872 20.3927 6.36944 21.0267 6.00626C21.6607 5.64308 24.2584 8.56084 24.2584 8.56084C24.0208 7.33458 23.9299 6.08443 23.9875 4.8367C24.0983 2.89768 24.5723 1.14332 25.1263 0.773987C25.6803 0.40465 26.9238 2.86689 27.4593 4.64586C27.9948 6.42484 28.3149 7.87756 28.3149 7.87756C28.5281 6.49477 28.8471 5.13038 29.2691 3.7964C29.9154 1.94971 30.5002 1.53113 30.9618 1.71579C31.4235 1.90046 31.719 2.75609 31.8483 5.21218C31.896 6.38494 31.859 7.55962 31.7375 8.72704C31.7375 8.72704 32.6546 7.72367 33.6703 6.74493C34.7845 5.67385 35.2646 5.51381 35.5847 5.72926C35.9048 5.94471 35.991 7.57594 34.2613 10.7276C33.4027 12.3237 32.3022 13.7772 30.9988 15.0365C30.9988 15.0365 28.6104 16.5631 24.5231 15.0242Z" fill="#E0E0E0"/>
</g>
<g id="Picture">
<g id="Frame">
<path id="Vector_27" d="M83.2107 55.7621L82.115 56.2915L61.8938 44.6143L62.9895 44.0911L83.2107 55.7621Z" fill="#FAFAFA"/>
<path id="Vector_28" d="M62.9895 44.091L82.2258 55.1896L85.0205 26.4182L65.7842 15.3258L62.9895 44.091Z" fill="white"/>
<path id="Vector_29" d="M59.8379 45.5745L83.7771 59.3938L87.0826 25.4579L63.1373 11.6385L59.8379 45.5745ZM64.7993 14.7471L85.0205 26.4428L82.1151 56.316L61.9 44.6203L64.7993 14.7471Z" fill="#F0F0F0"/>
<path id="Vector_30" d="M61.8938 44.6142L62.9895 44.091L65.7842 15.3258L64.7992 14.7472L61.8938 44.6142Z" fill="#E0E0E0"/>
<path id="Vector_31" d="M63.1372 11.6386L64.2452 11.1277L88.1844 24.947L87.0825 25.458L63.1372 11.6386Z" fill="#FAFAFA"/>
<path id="Vector_32" d="M88.1845 24.947L87.0827 25.4579L83.7771 59.3938L84.8851 58.8829L88.1845 24.947Z" fill="#E0E0E0"/>
</g>
<g id="Land">
<path id="Vector_33" d="M63.8328 43.5431L81.5671 53.7799L82.0411 48.9355L78.7417 34.6914L75.5962 39.5543L76.2486 43.6478L71.0041 28.5358L64.3068 38.6925L63.8328 43.5431Z" fill="#F0F0F0"/>
<path id="Vector_34" d="M79.0001 28.6958C79.3699 28.9271 79.6728 29.251 79.8791 29.6353C80.0853 30.0197 80.1876 30.4512 80.1758 30.8872C80.0958 31.6813 79.4495 31.9829 78.7231 31.5643C78.3529 31.3334 78.0496 31.0097 77.8433 30.6252C77.6371 30.2408 77.535 29.809 77.5474 29.3729C77.6397 28.585 78.2922 28.2834 79.0001 28.6958Z" fill="#F0F0F0"/>
</g>
</g>
</g>
</g>
</svg>
