<svg width="36" height="122" viewBox="0 0 36 122" fill="none" xmlns="http://www.w3.org/2000/svg">
<g id="Lamp">
<path id="Vector" opacity="0.1" d="M26.0935 3.65415C25.6061 2.78455 24.8762 2.07551 23.9929 1.61343C20.749 -0.261116 15.5043 -0.261116 12.2803 1.61343C11.4009 2.07387 10.6771 2.78381 10.1997 3.65415C9.38875 5.28274 10.0934 7.11075 12.3136 8.39369C15.5641 10.2682 20.8088 10.2682 24.0328 8.39369C26.2397 7.11075 26.9244 5.28274 26.0935 3.65415Z" fill="#525252"/>
<path id="Vector_2" d="M26.4324 114.153C26.3792 115.336 25.5816 116.499 24.0327 117.403C20.8088 119.271 15.5641 119.271 12.3135 117.403C10.7581 116.499 9.94709 115.336 9.88062 114.153V116.772C9.88062 117.995 10.6982 119.224 12.3202 120.162C15.5707 122.036 20.8155 122.036 24.0394 120.162C25.6481 119.224 26.4457 117.995 26.4391 116.772V114.153H26.4324Z" fill="#E0E0E0"/>
<path id="Vector_3" d="M12.3134 117.403C15.5639 119.271 20.8086 119.271 24.0326 117.403C25.5814 116.499 26.3791 115.336 26.4323 114.152C26.453 113.633 26.3361 113.117 26.0933 112.657C25.6058 111.787 24.876 111.078 23.9927 110.616C20.7488 108.742 15.5041 108.742 12.2801 110.616C11.4007 111.077 10.6769 111.787 10.1995 112.657C9.9627 113.118 9.8526 113.634 9.88045 114.152C9.94027 115.336 10.7579 116.499 12.3134 117.403Z" fill="#F0F0F0"/>
<path id="Vector_4" d="M11.9012 27.7905H11.6553V49.627H11.9012V27.7905Z" fill="#E0E0E0"/>
<path id="Vector_5" d="M12.3866 49.8596C12.388 49.9811 12.353 50.1002 12.2864 50.2018C12.2197 50.3034 12.1242 50.3828 12.0122 50.4299C11.9002 50.477 11.7767 50.4897 11.6574 50.4663C11.5382 50.4429 11.4286 50.3845 11.3427 50.2986C11.2568 50.2127 11.1984 50.1031 11.175 49.9839C11.1516 49.8646 11.1643 49.7411 11.2114 49.6291C11.2585 49.5171 11.3379 49.4217 11.4395 49.355C11.5411 49.2883 11.6602 49.2534 11.7817 49.2547C11.9416 49.2564 12.0945 49.3207 12.2076 49.4338C12.3206 49.5468 12.3849 49.6997 12.3866 49.8596Z" fill="#F0F0F0"/>
<path id="Vector_6" d="M19.6388 19.9202H16.6675V113.295C16.6815 113.425 16.7293 113.55 16.8063 113.656C16.8833 113.762 16.9867 113.846 17.1062 113.9C17.431 114.067 17.7911 114.155 18.1565 114.155C18.5219 114.155 18.882 114.067 19.2068 113.9C19.3267 113.848 19.4302 113.764 19.5063 113.657C19.5824 113.551 19.6282 113.425 19.6388 113.295V19.9202Z" fill="#E0E0E0"/>
<path id="Vector_7" d="M35.2533 23.935C33.3522 17.2877 26.0867 3.65405 26.0867 3.65405C26.9176 5.28265 26.2329 7.11066 24.026 8.39359C20.8021 10.2681 15.5574 10.2681 12.3068 8.39359C10.0866 7.11066 9.382 5.28265 10.193 3.65405C10.193 3.65405 2.92746 17.3143 1.01968 23.935C-0.276551 27.2587 1.30551 30.8416 5.75922 33.4141C12.6458 37.4025 23.7668 37.4025 30.6002 33.4141C35.0406 30.8416 36.5828 27.2387 35.2533 23.935Z" fill="#F0F0F0"/>
<path id="Vector_8" d="M26.0935 3.65415C25.6061 2.78455 24.8762 2.07551 23.9929 1.61343C20.749 -0.261116 15.5043 -0.261116 12.2803 1.61343C11.4009 2.07387 10.6771 2.78381 10.1997 3.65415C9.38875 5.28274 10.0934 7.11075 12.3136 8.39369C15.5641 10.2682 20.8088 10.2682 24.0328 8.39369C26.2397 7.11075 26.9244 5.28274 26.0935 3.65415Z" fill="#E0E0E0"/>
</g>
</svg>
