<svg width="72" height="69" viewBox="0 0 72 69" fill="none" xmlns="http://www.w3.org/2000/svg">
<g id="Pictures">
<path id="Vector" d="M43.0646 29.7447L43.0159 47.5573L40.8545 48.8083L40.917 28.5076L43.0646 29.7447Z" fill="#F0F0F0"/>
<path id="Vector_2" d="M66.319 61.0123L66.312 63.5073L40.8545 48.8082L43.0159 47.5573L66.319 61.0123Z" fill="#F5F5F5"/>
<path id="Vector_3" d="M38.2415 50.2956L68.9114 68.0039L68.9879 41.7055L38.3179 24.004L38.2415 50.2956ZM40.8546 48.8013L40.9172 28.4937L43.0647 29.7377L66.3678 43.1927L66.3191 61.0054V63.5004L40.8546 48.8013Z" fill="#E0E0E0"/>
<path id="Vector_4" d="M38.3179 24.004L40.4723 22.7531L71.1423 40.4614L68.9878 41.7124L38.3179 24.004Z" fill="#F5F5F5"/>
<path id="Vector_5" d="M71.1423 40.4614L71.0659 66.753L68.9114 68.0109L68.9878 41.7124L71.1423 40.4614Z" fill="#F0F0F0"/>
<g id="Group">
<path id="Vector_6" d="M50.4662 36.507L44.114 41.5109L44.1001 46.3967L65.2348 58.6007L65.2487 53.7149L61.2247 45.7156L57.6038 48.5234L58.8826 52.4987L57.0269 48.9682L50.4662 36.507Z" fill="#E0E0E0"/>
<path id="Vector_7" d="M57.4093 38.9742C56.4154 38.3973 55.6092 38.856 55.6023 40.0028C55.637 40.6256 55.8181 41.2315 56.1309 41.7713C56.4436 42.3111 56.8792 42.7695 57.4023 43.1094C58.3962 43.6862 59.2024 43.2275 59.2093 42.0808C59.1762 41.4575 58.9958 40.851 58.6829 40.311C58.37 39.771 57.9335 39.3128 57.4093 38.9742Z" fill="#E0E0E0"/>
</g>
<path id="Vector_8" d="M5.15296 7.95669L5.10431 25.7693L2.94287 27.0203L2.99848 6.7196L5.15296 7.95669Z" fill="#F0F0F0"/>
<path id="Vector_9" d="M28.4004 39.2243L28.3935 41.7193L2.94287 27.0203L5.10431 25.7693L28.4004 39.2243Z" fill="#F5F5F5"/>
<path id="Vector_10" d="M0.32959 28.5145L30.9996 46.2229L31.076 19.9244L0.399072 2.21606L0.32959 28.5145ZM2.94274 27.0203L2.99835 6.71961L5.15283 7.95669L28.4559 21.4117L28.4003 39.2244V41.7194L2.94274 27.0203Z" fill="#E0E0E0"/>
<path id="Vector_11" d="M0.39917 2.21607L2.5606 0.965088L33.2306 18.6735L31.0691 19.9245L0.39917 2.21607Z" fill="#F5F5F5"/>
<path id="Vector_12" d="M33.2305 18.6735L33.1541 44.965L30.9927 46.2229L31.0691 19.9244L33.2305 18.6735Z" fill="#F0F0F0"/>
<g id="Group_2">
<path id="Vector_13" d="M12.5546 14.719L6.20237 19.7229L6.18848 24.6157L27.3232 36.8128L27.3371 31.927L23.3061 23.9276L19.6922 26.7354L20.9709 30.7107L19.1153 27.1802L12.5546 14.719Z" fill="#E0E0E0"/>
<path id="Vector_14" d="M19.4977 17.1862C18.5038 16.6093 17.6976 17.075 17.6907 18.2148C17.7236 18.8382 17.9031 19.4451 18.2147 19.9861C18.5262 20.5271 18.961 20.987 19.4838 21.3283C20.4846 21.8982 21.2907 21.4395 21.2907 20.2928C21.2584 19.6702 21.0791 19.064 20.7674 18.5241C20.4558 17.9841 20.0206 17.5256 19.4977 17.1862Z" fill="#E0E0E0"/>
</g>
</g>
</svg>
