<svg width="33" height="95" viewBox="0 0 33 95" fill="none" xmlns="http://www.w3.org/2000/svg">
<g id="Picture">
<g id="Picture_2">
<g id="Frame">
<path id="Vector" d="M30.2477 89.0902L28.9611 89.8535L2.57202 74.6183L3.85854 73.8489L30.2477 89.0902Z" fill="#FAFAFA"/>
<path id="Vector_2" d="M3.85864 73.8489L28.9612 88.3454V20.1905L3.85864 5.7063V73.8489Z" fill="white"/>
<path id="Vector_3" d="M0.146729 76.0157L31.3926 94.0578V18.787L0.146729 0.744873V76.0157ZM2.57204 4.92454L28.9612 20.1905V89.872L2.57204 74.6369V4.92454Z" fill="#F0F0F0"/>
<path id="Vector_4" d="M2.57202 74.6183L3.85854 73.8489V5.70624L2.57202 4.9491V74.6183Z" fill="#E0E0E0"/>
<path id="Vector_5" d="M0.146729 0.750985L1.45172 0L32.6976 18.0421L31.3926 18.7869L0.146729 0.750985Z" fill="#FAFAFA"/>
<path id="Vector_6" d="M32.6976 18.0421L31.3926 18.7869V94.0578L32.6976 93.313V18.0421Z" fill="#E0E0E0"/>
</g>
<g id="Land">
<path id="Vector_7" d="M5.74219 72.3469L27.0837 84.6705V22.4557L5.74219 10.1383V72.3469Z" fill="#F0F0F0"/>
</g>
<g id="Land_2">
<path id="Vector_8" d="M5.74219 72.3469L27.0837 84.6705V22.4557L5.74219 10.1383V72.3469Z" fill="#F0F0F0"/>
</g>
<path id="Vector_9" d="M27.0775 63.4644C26.0633 63.5414 25.0448 63.5414 24.0305 63.4644C20.4788 63.1982 16.9815 62.4378 13.6399 61.2053C11.0545 60.2512 8.47528 59.0139 5.74219 58.9401V72.3716L8.62917 74.0398C9.76015 73.0068 11.1181 72.254 12.5934 71.8422C16.7053 70.7588 20.9219 72.8271 25.1447 73.3134C25.7867 73.381 26.432 73.4119 27.0775 73.4058V63.4644Z" fill="#FAFAFA"/>
<path id="Vector_10" d="M27.0776 46.4933C22.307 45.0837 17.4071 43.908 14.0031 40.4054C11.2577 37.58 9.95882 33.6712 9.07857 29.8363C8.19832 26.0013 7.55197 22.0432 5.81608 18.5099L5.76685 18.4053V45.767C6.03154 46.1671 6.30238 46.5672 6.58553 46.955C9.71874 51.2024 14.3416 54.748 19.6108 55.025C22.0731 55.1543 24.6523 54.5757 27.1022 54.5818L27.0776 46.4933Z" fill="#FAFAFA"/>
<path id="Vector_11" d="M27.0776 34.1698C25.2357 32.5415 23.8362 30.4733 23.0096 28.158C22.1829 25.8427 21.956 23.3557 22.3501 20.9291C22.4178 20.5659 22.504 20.215 22.5964 19.8642L14.3848 15.1305C14.4155 15.666 14.4402 16.2077 14.4586 16.7433C14.5448 19.8826 14.4586 23.0528 15.1296 26.1121C15.733 28.6795 16.8806 31.0875 18.4947 33.1732C20.1089 35.2589 22.1521 36.9737 24.4861 38.2017C25.3204 38.6298 26.1869 38.9921 27.0776 39.2851V34.1698Z" fill="#FAFAFA"/>
</g>
</g>
</svg>
