<svg width="25" height="46" viewBox="0 0 25 46" fill="none" xmlns="http://www.w3.org/2000/svg">
<g id="Plant 2">
<path id="Vector" opacity="0.05" d="M5.53685 35.3381C9.39229 33.1113 15.6275 33.1113 19.4563 35.3381C23.2852 37.565 23.2719 41.1745 19.4164 43.4013C15.561 45.6282 9.32582 45.6282 5.45708 43.4013C1.58834 41.1745 1.70135 37.565 5.53685 35.3381Z" fill="#525252"/>
<path id="Vector_2" d="M2.2131 21.2991L12.7956 21.6049L23.3848 21.2991C23.8368 28.4449 22.4409 35.7304 20.5198 39.2867C20.0634 40.1987 19.3306 40.9431 18.4259 41.4138C15.3017 43.2153 10.2564 43.2153 7.12547 41.4138C6.2139 40.9402 5.48467 40.1783 5.05151 39.2468C3.14373 35.6772 1.76109 28.4383 2.2131 21.2991Z" fill="white"/>
<path id="Vector_3" d="M5.34412 16.9916C1.1962 19.3846 1.17626 23.2667 5.29094 25.6331C9.40563 27.9996 16.1128 28.0261 20.2607 25.6331C24.4086 23.2401 24.4286 19.358 20.3072 16.9916C16.1859 14.6252 9.4854 14.5986 5.34412 16.9916Z" fill="#EBEBEB"/>
<path id="Vector_4" d="M6.97926 17.9754C3.74866 19.8433 3.72872 22.8678 6.97926 24.7357C10.2298 26.6036 15.4147 26.6036 18.6519 24.7357C21.8892 22.8678 21.9025 19.8433 18.6918 17.9754C15.4812 16.1075 10.1899 16.0743 6.97926 17.9754Z" fill="#E0E0E0"/>
<g id="Group" opacity="0.15">
<path id="Vector_5" d="M6.97926 17.9754C3.74866 19.8433 3.72872 22.8678 6.97926 24.7357C10.2298 26.6036 15.4147 26.6036 18.6519 24.7357C21.8892 22.8678 21.9025 19.8433 18.6918 17.9754C15.4812 16.1075 10.1899 16.0743 6.97926 17.9754Z" fill="#525252"/>
</g>
<path id="Vector_6" d="M13.6864 21.6247C12.8377 22.3356 11.832 22.8342 10.7523 23.0792C9.67272 23.3243 8.55026 23.3088 7.47783 23.0339C6.44423 22.7208 5.50493 22.1551 4.74476 21.388C3.98459 20.6209 3.42751 19.6765 3.12384 18.64C4.3776 18.0475 5.52522 17.2524 6.52062 16.2869C4.93477 15.8901 3.26925 15.9477 1.71461 16.4531C1.28167 15.7774 1.02184 15.0054 0.958076 14.2055C0.894311 13.4055 1.02858 12.6022 1.349 11.8664C3.15558 11.0651 5.18681 10.9262 7.08564 11.4742C6.29741 10.7865 5.37587 10.2687 4.37855 9.953C3.38124 9.63733 2.32957 9.53065 1.28918 9.63959C1.1392 6.60674 1.61201 3.5753 2.67847 0.732178C6.62697 0.938245 10.4492 2.63331 11.7388 3.86307C11.7998 5.27261 11.6543 6.6835 11.3067 8.05088C11.8149 7.79077 12.249 7.40629 12.5686 6.93324C12.8883 6.4602 13.083 5.91397 13.1347 5.34542C15.6075 5.96362 16.6644 7.20002 17.05 8.13729C16.6926 9.89077 15.8864 11.5215 14.7101 12.8702C17.03 12.1722 17.9673 9.58641 17.9673 9.58641C20.2473 14.9774 19.8152 21.0996 13.6864 21.6247Z" fill="#2A8EF1"/>
<path id="Vector_7" opacity="0.2" d="M13.6864 21.6247C12.8377 22.3356 11.832 22.8342 10.7523 23.0792C9.67272 23.3243 8.55026 23.3088 7.47783 23.0339C6.44423 22.7208 5.50493 22.1551 4.74476 21.388C3.98459 20.6209 3.42751 19.6765 3.12384 18.64C4.3776 18.0475 5.52522 17.2524 6.52062 16.2869C4.93477 15.8901 3.26925 15.9477 1.71461 16.4531C1.28167 15.7774 1.02184 15.0054 0.958076 14.2055C0.894311 13.4055 1.02858 12.6022 1.349 11.8664C3.15558 11.0651 5.18681 10.9262 7.08564 11.4742C6.29741 10.7865 5.37587 10.2687 4.37855 9.953C3.38124 9.63733 2.32957 9.53065 1.28918 9.63959C1.1392 6.60674 1.61201 3.5753 2.67847 0.732178C6.62697 0.938245 10.4492 2.63331 11.7388 3.86307C11.7998 5.27261 11.6543 6.6835 11.3067 8.05088C11.8149 7.79077 12.249 7.40629 12.5686 6.93324C12.8883 6.4602 13.083 5.91397 13.1347 5.34542C15.6075 5.96362 16.6644 7.20002 17.05 8.13729C16.6926 9.89077 15.8864 11.5215 14.7101 12.8702C17.03 12.1722 17.9673 9.58641 17.9673 9.58641C20.2473 14.9774 19.8152 21.0996 13.6864 21.6247Z" fill="#525252"/>
<path id="Vector_8" opacity="0.3" d="M13.6864 21.6247C12.8377 22.3356 11.832 22.8342 10.7523 23.0792C9.67272 23.3243 8.55026 23.3088 7.47783 23.0339C6.44423 22.7208 5.50493 22.1551 4.74476 21.388C3.98459 20.6209 3.42751 19.6765 3.12384 18.64C4.3776 18.0475 5.52522 17.2524 6.52062 16.2869C4.93477 15.8901 3.26925 15.9477 1.71461 16.4531C1.28167 15.7774 1.02184 15.0054 0.958076 14.2055C0.894311 13.4055 1.02858 12.6022 1.349 11.8664C3.15558 11.0651 5.18681 10.9262 7.08564 11.4742C6.29741 10.7865 5.37587 10.2687 4.37855 9.953C3.38124 9.63733 2.32957 9.53065 1.28918 9.63959C1.1392 6.60674 1.61201 3.5753 2.67847 0.732178C6.62697 0.938245 10.4492 2.63331 11.7388 3.86307C11.7998 5.27261 11.6543 6.6835 11.3067 8.05088C11.8149 7.79077 12.249 7.40629 12.5686 6.93324C12.8883 6.4602 13.083 5.91397 13.1347 5.34542C15.6075 5.96362 16.6644 7.20002 17.05 8.13729C16.6926 9.89077 15.8864 11.5215 14.7101 12.8702C17.03 12.1722 17.9673 9.58641 17.9673 9.58641C20.2473 14.9774 19.8152 21.0996 13.6864 21.6247Z" fill="white"/>
<path id="Vector_9" d="M13.8194 22.2097C13.88 22.2046 13.9361 22.176 13.9759 22.1301C14.0156 22.0841 14.0358 22.0244 14.0321 21.9638C13.6532 16.9783 10.8015 8.75556 4.00799 1.96865C3.96319 1.93505 3.90777 1.91873 3.85191 1.9227C3.79604 1.92667 3.74349 1.95067 3.70389 1.99027C3.66429 2.02987 3.6403 2.08242 3.63633 2.13828C3.63236 2.19415 3.64867 2.24957 3.68228 2.29437C10.3894 8.98822 13.2012 17.0913 13.5735 21.997C13.5786 22.0576 13.6072 22.1137 13.6531 22.1535C13.6991 22.1932 13.7588 22.2134 13.8194 22.2097Z" fill="#F5F5F5"/>
<path id="Vector_10" d="M11.958 24.2902C12.7492 24.9354 13.6816 25.3845 14.6793 25.601C15.677 25.8175 16.7118 25.7953 17.6992 25.5361C18.6867 25.277 19.599 24.7882 20.3617 24.1096C21.1245 23.431 21.7161 22.5818 22.0885 21.6312C20.9552 21.1158 19.9187 20.4098 19.0241 19.544C20.5248 19.1853 22.0937 19.2312 23.5709 19.6769C24.0231 19.1098 24.3217 18.4358 24.4381 17.7199C24.5546 17.0039 24.4848 16.27 24.2356 15.5888C22.5183 14.8807 20.6133 14.7683 18.8247 15.2698C20.4175 14.0212 22.4255 13.4247 24.4417 13.6013C24.7866 10.9191 24.5277 8.19376 23.6839 5.62451C19.9215 5.85052 16.199 7.41264 14.9094 8.50944C14.7628 9.75249 14.8122 11.0108 15.0557 12.2386C14.6009 12.0201 14.2152 11.6806 13.9408 11.2573C13.6664 10.8339 13.5139 10.3432 13.5002 9.83891C11.147 10.4106 10.0835 11.514 9.66468 12.3516C9.87057 13.8959 10.5141 15.3491 11.5193 16.5394C9.39214 15.9345 8.66758 13.6545 8.66758 13.6545C6.20143 18.4405 6.26791 23.8315 11.958 24.2902Z" fill="#2A8EF1"/>
<path id="Vector_11" opacity="0.3" d="M11.958 24.2902C12.7492 24.9354 13.6816 25.3845 14.6793 25.601C15.677 25.8175 16.7118 25.7953 17.6992 25.5361C18.6867 25.277 19.599 24.7882 20.3617 24.1096C21.1245 23.431 21.7161 22.5818 22.0885 21.6312C20.9552 21.1158 19.9187 20.4098 19.0241 19.544C20.5248 19.1853 22.0937 19.2312 23.5709 19.6769C24.0231 19.1098 24.3217 18.4358 24.4381 17.7199C24.5546 17.0039 24.4848 16.27 24.2356 15.5888C22.5183 14.8807 20.6133 14.7683 18.8247 15.2698C20.4175 14.0212 22.4255 13.4247 24.4417 13.6013C24.7866 10.9191 24.5277 8.19376 23.6839 5.62451C19.9215 5.85052 16.199 7.41264 14.9094 8.50944C14.7628 9.75249 14.8122 11.0108 15.0557 12.2386C14.6009 12.0201 14.2152 11.6806 13.9408 11.2573C13.6664 10.8339 13.5139 10.3432 13.5002 9.83891C11.147 10.4106 10.0835 11.514 9.66468 12.3516C9.87057 13.8959 10.5141 15.3491 11.5193 16.5394C9.39214 15.9345 8.66758 13.6545 8.66758 13.6545C6.20143 18.4405 6.26791 23.8315 11.958 24.2902Z" fill="white"/>
<path id="Vector_12" d="M11.8052 24.8354C11.8604 24.8344 11.9135 24.8137 11.9549 24.7772C11.9963 24.7407 12.0233 24.6906 12.0312 24.636C12.6959 20.3019 15.8335 13.0962 22.5871 7.08039C22.6321 7.03985 22.6591 6.9831 22.6622 6.92264C22.6653 6.86218 22.6443 6.80295 22.6038 6.758C22.5632 6.71304 22.5065 6.68604 22.446 6.68292C22.3855 6.6798 22.3263 6.70084 22.2814 6.74138C15.4346 12.837 12.2373 20.1557 11.5792 24.5695C11.5745 24.5992 11.5758 24.6296 11.583 24.6588C11.5902 24.688 11.6031 24.7155 11.6211 24.7396C11.639 24.7638 11.6616 24.7841 11.6875 24.7994C11.7134 24.8147 11.7421 24.8247 11.772 24.8287L11.8052 24.8354Z" fill="white"/>
</g>
</svg>
