<svg width="57" height="80" viewBox="0 0 57 80" fill="none" xmlns="http://www.w3.org/2000/svg">
<g id="Plant">
<path id="Vector" d="M40.3006 53.6227L27.7907 54.1231L15.2461 53.8868C14.7944 62.3657 16.5388 70.9836 18.8601 75.1744C19.4097 76.2517 20.2886 77.1257 21.369 77.6694C25.0941 79.7543 31.0989 79.7057 34.7267 77.5304C35.8106 76.954 36.6732 76.0352 37.18 74.9172C39.3901 70.65 40.9399 62.039 40.3006 53.6227Z" fill="white"/>
<path id="Vector_2" d="M36.5546 48.5284C41.496 51.3084 41.5724 55.9092 36.7214 58.8004C31.8704 61.6915 23.9266 61.7749 18.9783 58.988C14.0299 56.2011 13.9604 51.6003 18.8184 48.716C23.6764 45.8318 31.6062 45.7415 36.5546 48.5284Z" fill="#EBEBEB"/>
<path id="Vector_3" d="M34.6224 49.6751C38.4796 51.8504 38.5352 55.4366 34.7545 57.6953C30.9737 59.954 24.7675 60.0096 20.9103 57.8412C17.0531 55.6729 16.9975 52.0798 20.7852 49.821C24.5729 47.5623 30.7652 47.5067 34.6224 49.6751Z" fill="#E0E0E0"/>
<g id="Group" opacity="0.15">
<path id="Vector_4" d="M34.6224 49.6751C38.4796 51.8504 38.5352 55.4366 34.7545 57.6953C30.9737 59.954 24.7675 60.0096 20.9103 57.8412C17.0531 55.6729 16.9975 52.0798 20.7852 49.821C24.5729 47.5623 30.7652 47.5067 34.6224 49.6751Z" fill="#525252"/>
</g>
<path id="Vector_5" d="M47.8272 0.0179443C19.6592 9.56713 19.5967 28.5126 26.1157 41.8842C27.7489 44.5877 32.6277 46.0055 36.6865 29.2076L29.2709 30.2431L37.8749 25.7674L40.0503 19.026L32.8432 19.6376L41.9615 15.69C43.5909 10.3497 45.5499 5.11568 47.8272 0.0179443Z" fill="#2A8EF1"/>
<path id="Vector_6" opacity="0.2" d="M47.8272 0.0179443C19.6592 9.56713 19.5967 28.5126 26.1157 41.8842C27.7489 44.5877 32.6277 46.0055 36.6865 29.2076L29.2709 30.2431L37.8749 25.7674L40.0503 19.026L32.8432 19.6376L41.9615 15.69C43.5909 10.3497 45.5499 5.11568 47.8272 0.0179443Z" fill="#525252"/>
<path id="Vector_7" opacity="0.2" d="M47.8272 0.0179443C19.6592 9.56713 19.5967 28.5126 26.1157 41.8842C27.7489 44.5877 32.6277 46.0055 36.6865 29.2076L29.2709 30.2431L37.8749 25.7674L40.0503 19.026L32.8432 19.6376L41.9615 15.69C43.5909 10.3497 45.5499 5.11568 47.8272 0.0179443Z" fill="white"/>
<path id="Vector_8" d="M39.8834 4.82727C25.094 16.3016 23.8986 29.284 28.2354 42.7808C26.623 30.8755 24.8855 18.8383 39.8834 4.82727Z" fill="white"/>
<path id="Vector_9" d="M0.150879 19.7279C28.0548 23.3627 31.6201 40.8904 28.0687 54.5331C27.054 57.3478 22.7867 59.5648 15.9063 44.7407L22.9744 44.3237L14.1619 41.7661L10.8885 35.9143L17.6925 35.1428L8.50467 33.176C5.99832 28.5263 3.20846 24.0352 0.150879 19.7279Z" fill="#2A8EF1"/>
<path id="Vector_10" opacity="0.2" d="M0.150879 19.7279C28.0548 23.3627 31.6201 40.8904 28.0687 54.5331C27.054 57.3478 22.7867 59.5648 15.9063 44.7407L22.9744 44.3237L14.1619 41.7661L10.8885 35.9143L17.6925 35.1428L8.50467 33.176C5.99832 28.5263 3.20846 24.0352 0.150879 19.7279Z" fill="white"/>
<path id="Vector_11" opacity="0.1" d="M0.150879 19.7279C28.0548 23.3627 31.6201 40.8904 28.0687 54.5331C27.054 57.3478 22.7867 59.5648 15.9063 44.7407L22.9744 44.3237L14.1619 41.7661L10.8885 35.9143L17.6925 35.1428L8.50467 33.176C5.99832 28.5263 3.20846 24.0352 0.150879 19.7279Z" fill="#525252"/>
<path id="Vector_12" d="M8.41431 22.7163C24.2601 30.6114 27.7907 42.4332 26.2617 55.784C25.5528 44.4139 24.9273 32.9257 8.41431 22.7163Z" fill="white"/>
<path id="Vector_13" d="M56.2853 25.7257C30.7374 26.4207 25.8863 41.919 27.8323 54.5748C28.4856 57.2088 32.1343 59.6135 39.7306 46.8604L33.3783 45.8179L41.5792 44.3306L45.0542 39.3475L38.98 38.0201L47.4658 37.0958C50.1682 33.1274 53.1136 29.3301 56.2853 25.7257Z" fill="#2A8EF1"/>
<path id="Vector_14" d="M48.5083 27.6577C33.4548 33.3149 29.1667 43.6425 29.3127 55.8535C31.0084 45.6649 32.6556 35.3443 48.5083 27.6577Z" fill="white"/>
<path id="Vector_15" opacity="0.2" d="M56.2853 25.7257C30.7374 26.4207 25.8863 41.919 27.8323 54.5748C28.4856 57.2088 32.1343 59.6135 39.7306 46.8604L33.3783 45.8179L41.5792 44.3306L45.0542 39.3475L38.98 38.0201L47.4658 37.0958C50.1682 33.1274 53.1136 29.3301 56.2853 25.7257Z" fill="white"/>
</g>
</svg>
