<svg width="57" height="80" viewBox="0 0 57 80" fill="none" xmlns="http://www.w3.org/2000/svg">
<g id="Plant 1">
<path id="Vector" d="M40.0163 54.1787L27.4662 54.5443L14.936 54.1787C14.3975 62.654 16.0527 71.2889 18.3327 75.5033C18.8722 76.5879 19.7429 77.4727 20.8188 78.0293C24.5214 80.1697 30.4973 80.1697 34.1799 78.0293C35.2718 77.465 36.1443 76.5527 36.6594 75.4368C38.9195 71.1958 40.5547 62.6142 40.0163 54.1787Z" fill="white"/>
<path id="Vector_2" d="M36.3137 49.0202C41.2261 51.8586 41.2526 56.4585 36.3669 59.2969C31.4811 62.1353 23.5442 62.1353 18.6252 59.2969C13.7062 56.4585 13.6862 51.8785 18.5654 49.0202C23.4445 46.1618 31.3947 46.2017 36.3137 49.0202Z" fill="#EBEBEB"/>
<path id="Vector_3" d="M34.3662 50.1702C38.2017 52.3837 38.2217 55.9733 34.4128 58.1868C30.6039 60.4004 24.4418 60.4004 20.5731 58.1868C16.7043 55.9733 16.7176 52.3837 20.5265 50.1702C24.3354 47.9566 30.5307 47.9566 34.3662 50.1702Z" fill="#E0E0E0"/>
<g id="Group" opacity="0.15">
<path id="Vector_4" d="M34.3662 50.1702C38.2017 52.3837 38.2217 55.9733 34.4128 58.1868C30.6039 60.4004 24.4418 60.4004 20.5731 58.1868C16.7043 55.9733 16.7176 52.3837 20.5265 50.1702C24.3354 47.9566 30.5307 47.9566 34.3662 50.1702Z" fill="#525252"/>
</g>
<path id="Vector_5" d="M48.0994 0.641113C19.8217 9.90082 19.589 28.8124 25.9439 42.2865C27.5459 45.0119 32.4117 46.4744 36.646 29.7231L29.221 30.6737L37.8625 26.2864L40.1093 19.5727L32.8837 20.1045L42.0437 16.2557C43.7361 10.9301 45.7586 5.71521 48.0994 0.641113Z" fill="#2A8EF1"/>
<path id="Vector_6" opacity="0.2" d="M48.0994 0.641113C19.8217 9.90082 19.589 28.8124 25.9439 42.2865C27.5459 45.0119 32.4117 46.4744 36.646 29.7231L29.221 30.6737L37.8625 26.2864L40.1093 19.5727L32.8837 20.1045L42.0437 16.2557C43.7361 10.9301 45.7586 5.71521 48.0994 0.641113Z" fill="#525252"/>
<path id="Vector_7" opacity="0.2" d="M48.0994 0.641113C19.8217 9.90082 19.589 28.8124 25.9439 42.2865C27.5459 45.0119 32.4117 46.4744 36.646 29.7231L29.221 30.6737L37.8625 26.2864L40.1093 19.5727L32.8837 20.1045L42.0437 16.2557C43.7361 10.9301 45.7586 5.71521 48.0994 0.641113Z" fill="white"/>
<path id="Vector_8" d="M40.1028 5.37402C25.1928 16.6745 23.8434 29.6633 28.0578 43.2106C26.5688 31.2786 24.9535 19.2204 40.1028 5.37402Z" fill="white"/>
<path id="Vector_9" d="M0.205566 19.8584C28.0778 23.7803 31.448 41.3558 27.7587 54.9562C26.7151 57.7614 22.4408 59.9351 15.7005 45.0384L22.7799 44.6928L13.9855 42.0338L10.7814 36.151L17.5883 35.4862L8.415 33.4189C5.96497 28.7314 3.2231 24.2023 0.205566 19.8584Z" fill="#2A8EF1"/>
<path id="Vector_10" opacity="0.2" d="M0.205566 19.8584C28.0778 23.7803 31.448 41.3558 27.7587 54.9562C26.7151 57.7614 22.4408 59.9351 15.7005 45.0384L22.7799 44.6928L13.9855 42.0338L10.7814 36.151L17.5883 35.4862L8.415 33.4189C5.96497 28.7314 3.2231 24.2023 0.205566 19.8584Z" fill="white"/>
<path id="Vector_11" d="M8.44165 22.9363C24.2091 30.9928 27.6192 42.8782 25.944 56.1729C25.3524 44.8126 24.8472 33.3127 8.44165 22.9363Z" fill="white"/>
<path id="Vector_12" opacity="0.1" d="M0.205566 19.8584C28.0778 23.7803 31.448 41.3558 27.7587 54.9562C26.7151 57.7614 22.4408 59.9351 15.7005 45.0384L22.7799 44.6928L13.9855 42.0338L10.7814 36.151L17.5883 35.4862L8.415 33.4189C5.96497 28.7314 3.2231 24.2023 0.205566 19.8584Z" fill="#525252"/>
<path id="Vector_13" d="M56.2558 26.4194C30.6969 26.8382 25.6782 42.2999 27.4929 55.0029C28.1177 57.6618 31.7405 60.0881 39.4581 47.4116L33.1165 46.3082L41.3393 44.9056L44.8889 39.96L38.8665 38.5574L47.3418 37.7199C50.0755 33.7715 53.0526 29.9974 56.2558 26.4194Z" fill="#2A8EF1"/>
<path id="Vector_14" d="M48.4918 28.2939C33.3758 33.7979 28.9752 44.1013 28.9952 56.2924C30.7966 46.122 32.5382 35.8121 48.4918 28.2939Z" fill="white"/>
<path id="Vector_15" opacity="0.2" d="M56.2558 26.4194C30.6969 26.8382 25.6782 42.2999 27.4929 55.0029C28.1177 57.6618 31.7405 60.0881 39.4581 47.4116L33.1165 46.3082L41.3393 44.9056L44.8889 39.96L38.8665 38.5574L47.3418 37.7199C50.0755 33.7715 53.0526 29.9974 56.2558 26.4194Z" fill="white"/>
</g>
</svg>
