<svg width="88" height="199" viewBox="0 0 88 199" fill="none" xmlns="http://www.w3.org/2000/svg">
<g id="Screen">
<path id="Vector" d="M86.7462 2.93932L82.2357 0.548549C81.929 0.313005 81.5595 0.173462 81.1736 0.147492C80.7878 0.121521 80.4028 0.210284 80.0673 0.402602L2.5758 44.5068C1.96202 44.8554 1.45194 45.3609 1.09779 45.9715C0.743639 46.5821 0.558154 47.2758 0.560325 47.9817V193.638C0.558448 194.037 0.677669 194.428 0.902253 194.758C1.12684 195.088 1.44622 195.342 1.81826 195.487L6.35655 197.926L6.42605 197.961C6.71896 198.121 7.04762 198.206 7.38166 198.206C7.71571 198.206 8.04437 198.121 8.33728 197.961L85.8427 153.794C86.4546 153.443 86.9631 152.937 87.317 152.327C87.6708 151.717 87.8575 151.024 87.8582 150.319V4.72545C87.8618 4.35281 87.7591 3.98687 87.5622 3.67052C87.3652 3.35417 87.0822 3.10052 86.7462 2.93932Z" fill="#2A8EF1"/>
<path id="Vector_2" opacity="0.3" d="M87.886 9.80583V4.72545C87.8872 4.34981 87.7803 3.98174 87.5783 3.66508C87.3762 3.34842 87.0874 3.0965 86.7462 2.93932L82.2357 0.548549C81.929 0.313005 81.5595 0.173462 81.1736 0.147492C80.7878 0.121521 80.4028 0.210284 80.0673 0.402602L2.57579 44.5068C1.96202 44.8554 1.45193 45.3609 1.09779 45.9715C0.743636 46.5821 0.558151 47.2758 0.560322 47.9817V54.6675L5.37661 57.4475L87.886 9.80583Z" fill="white"/>
<path id="Vector_3" opacity="0.5" d="M86.7462 2.93932L82.2357 0.548549C81.929 0.313005 81.5595 0.173462 81.1736 0.147492C80.7878 0.121521 80.4028 0.210284 80.0673 0.402602L2.5758 44.5068C1.96202 44.8554 1.45194 45.3609 1.09779 45.9715C0.743639 46.5821 0.558154 47.2758 0.560325 47.9817V193.638C0.558448 194.037 0.677669 194.428 0.902253 194.758C1.12684 195.088 1.44622 195.342 1.81826 195.487L6.35655 197.926L6.42605 197.961C6.71896 198.121 7.04762 198.206 7.38166 198.206C7.71571 198.206 8.04437 198.121 8.33728 197.961L85.8427 153.794C86.4546 153.443 86.9631 152.937 87.317 152.327C87.6708 151.717 87.8575 151.024 87.8582 150.319V4.72545C87.8618 4.35281 87.7591 3.98687 87.5622 3.67052C87.3652 3.35417 87.0822 3.10052 86.7462 2.93932Z" fill="white"/>
<path id="Vector_4" opacity="0.3" d="M0.560408 47.9748V193.638C0.558531 194.037 0.677752 194.428 0.902336 194.758C1.12692 195.088 1.44631 195.342 1.81834 195.487L6.35663 197.926C6.05496 197.751 5.80484 197.5 5.63155 197.197C5.45826 196.894 5.36795 196.551 5.36975 196.203V50.5532C5.36967 50.018 5.47844 49.4883 5.68944 48.9964L0.956553 46.2303C0.691574 46.7734 0.555982 47.3705 0.560408 47.9748Z" fill="#2A8EF1"/>
<path id="Vector_5" opacity="0.4" d="M82.2497 0.541589C81.943 0.306044 81.5734 0.166504 81.1876 0.140534C80.8017 0.114563 80.4168 0.203323 80.0813 0.395641L2.57587 44.5067C1.87374 44.9037 1.30897 45.5048 0.956543 46.2303L5.69638 49.0103C6.02842 48.2001 6.61997 47.523 7.37826 47.0852L84.9046 2.98796C85.1836 2.82834 85.4979 2.74036 85.8193 2.73187C86.1407 2.72338 86.4592 2.79465 86.7463 2.93931L82.2497 0.541589Z" fill="white"/>
<path id="Vector_6" d="M28.9925 49.3578C39.2228 43.4503 47.5349 48.1902 47.5697 59.9355C47.6044 71.6809 39.341 85.9838 29.1176 91.9051C18.8943 97.8265 10.5822 93.0658 10.5475 81.3204C10.5127 69.5751 18.7762 55.2652 28.9925 49.3578Z" fill="#2A8EF1"/>
<path id="Vector_7" d="M38.361 60.3178C39.3655 59.5982 40.0649 58.5293 40.3221 57.3207C40.5792 56.1121 40.3756 54.8511 39.751 53.7849C40.3106 53.5305 40.7701 53.0979 41.0576 52.5547C41.175 52.291 41.2107 51.9981 41.1602 51.7138C41.1096 51.4296 40.9751 51.167 40.774 50.9599C40.5728 50.7527 40.3143 50.6106 40.0316 50.5517C39.749 50.4929 39.4552 50.52 39.1881 50.6296C39.3358 50.2033 39.3367 49.7397 39.1906 49.3128C39.0445 48.8859 38.7598 48.5201 38.3819 48.2736C37.9962 48.0602 37.5485 47.9873 37.1151 48.0671C36.6817 48.147 36.2893 48.3747 36.005 48.7114C36.0149 48.4326 35.9342 48.158 35.7751 47.9288C35.6161 47.6995 35.3871 47.5279 35.1224 47.4396C34.5764 47.297 33.999 47.3335 33.4753 47.5439C32.9471 47.7245 32.4536 47.9886 31.9185 48.1554C31.0087 48.382 30.0759 48.5032 29.1385 48.5168C28.1935 48.5193 27.2641 48.7583 26.435 49.2118C25.975 49.4921 25.621 49.9171 25.4285 50.4202C25.2361 50.9233 25.2161 51.4761 25.3717 51.9918C25.2368 51.8184 25.0667 51.6754 24.8727 51.5724C24.6786 51.4694 24.465 51.4086 24.2458 51.3941C24.0298 51.3874 23.8149 51.4274 23.6158 51.5113C23.4167 51.5953 23.238 51.7212 23.0921 51.8806C23.6828 52.2489 24.2527 52.6381 24.8365 53.0065C24.5017 52.9116 24.1451 52.928 23.8204 53.0534C23.4958 53.1787 23.2207 53.4062 23.0365 53.7015C22.7616 54.2962 22.6535 54.9544 22.7237 55.6058C22.7835 58.089 23.2073 60.55 23.9817 62.9101C24.3848 64.1263 25.33 65.6484 26.4836 66.2113L38.361 60.3178Z" fill="#37474F"/>
<path id="Vector_8" d="M36.4358 69.5959L39.2158 71.9937L40.7378 80.4795C41.9471 78.6628 43.0225 76.7604 43.9556 74.7875C42.6421 71.5419 41.6274 69.5959 36.4358 69.5959Z" fill="#EBEBEB"/>
<path id="Vector_9" d="M29.1175 91.8913C33.9199 89.1113 38.2844 84.4896 41.5648 79.1451C41.3007 74.5512 40.6196 69.5959 36.4358 69.5959L24.0024 69.6863L21.4656 69.9573L20.2703 94.4141C22.8973 94.5461 25.9136 93.74 29.1175 91.8913Z" fill="#2A8EF1"/>
<g id="Group" opacity="0.4">
<path id="Vector_10" d="M29.1175 91.8913C33.9199 89.1113 38.2844 84.4896 41.5648 79.1451C41.3007 74.5512 40.6196 69.5959 36.4358 69.5959L24.0024 69.6863L21.4656 69.9573L20.2703 94.4141C22.8973 94.5461 25.9136 93.74 29.1175 91.8913Z" fill="white"/>
</g>
<path id="Vector_11" d="M34.3996 71.25C35.5602 74.9473 34.8374 80.1111 34.3996 82.4324C31.4598 78.3806 28.7007 74.3218 27.8389 72.7025L31.9463 70.7079L34.3996 71.25Z" fill="#EBEBEB"/>
<path id="Vector_12" d="M32.6829 74.6485L33.6975 74.4053C34.1926 75.6985 34.6058 77.0216 34.9346 78.3667C34.8284 79.7305 34.6497 81.0876 34.3995 82.4324C33.8226 81.6332 33.2528 80.8409 32.7037 80.0625C32.881 78.2618 32.874 76.4478 32.6829 74.6485Z" fill="#455A64"/>
<path id="Vector_13" opacity="0.2" d="M32.7107 74.864C32.7107 74.7945 32.7107 74.718 32.7107 74.6485L33.7254 74.4053L33.7879 74.5582C33.6241 74.7065 33.4258 74.8117 33.2111 74.864C33.0454 74.8913 32.8764 74.8913 32.7107 74.864Z" fill="#525252"/>
<path id="Vector_14" d="M32.1407 71.9937L31.3415 71.4794L29.4858 72.4941C30.1298 72.9795 30.8989 73.2713 31.7029 73.335L32.1407 71.9937Z" fill="#455A64"/>
<path id="Vector_15" d="M33.3708 71.799L33.6141 71.25L34.5523 71.8407C34.4513 72.1944 34.2393 72.5062 33.9477 72.7303L33.3708 71.799Z" fill="#455A64"/>
<path id="Vector_16" opacity="0.2" d="M32.1407 71.9937L31.3415 71.4794L29.4858 72.4941C30.1298 72.9795 30.8989 73.2713 31.7029 73.335L32.1407 71.9937Z" fill="#525252"/>
<path id="Vector_17" opacity="0.2" d="M33.3708 71.799L33.6141 71.25L34.5523 71.8407C34.4513 72.1944 34.2393 72.5062 33.9477 72.7303L33.3708 71.799Z" fill="#525252"/>
<path id="Vector_18" d="M31.7029 73.3349C31.781 72.8493 31.9383 72.3797 32.1685 71.945L33.3987 71.7504C33.6248 72.0385 33.8183 72.3508 33.9755 72.6817C33.9993 73.2508 33.9144 73.8192 33.7253 74.3566C33.4126 74.5209 33.0638 74.6046 32.7106 74.5998C32.252 74.2926 31.8999 73.8507 31.7029 73.3349Z" fill="#455A64"/>
<path id="Vector_19" d="M32.5717 71.5628C30.6188 71.5628 29.4303 73.0848 27.6442 73.6478L24.0024 69.7211L25.3924 67.6361C25.6759 67.2182 26.0427 66.8633 26.4697 66.5936V67.3512C26.476 67.5739 26.5386 67.7913 26.6516 67.9833C26.7646 68.1753 26.9244 68.3356 27.116 68.4493L32.5717 71.5628Z" fill="#E0E0E0"/>
<path id="Vector_20" d="M32.5718 71.5627C33.6629 71.2222 35.2822 72.5774 35.2822 72.5774C34.7124 69.443 32.9957 68.2059 32.5787 68.2059L32.5718 71.5627Z" fill="#E0E0E0"/>
<path id="Vector_21" d="M21.4658 69.9573L19.777 70.2214C18.7838 70.3857 17.8638 70.8478 17.139 71.5465C16.4143 72.2452 15.9188 73.1476 15.7183 74.1342C14.7746 78.8398 14.4058 83.6426 14.6202 88.4371L22.3207 84.8926C23.1269 78.8949 24.7045 73.9118 21.4658 69.9573Z" fill="#EBEBEB"/>
<path id="Vector_22" d="M22.2373 87.5684V86.8734C22.2441 86.7509 22.2991 86.636 22.3902 86.5537C22.4381 86.5108 22.4765 86.4584 22.5028 86.3997C22.5292 86.341 22.5429 86.2775 22.5431 86.2132V85.1498C22.5431 85.0784 22.5288 85.0076 22.501 84.9418C22.4733 84.8759 22.4326 84.8163 22.3814 84.7664C22.3303 84.7165 22.2696 84.6774 22.2031 84.6514C22.1365 84.6253 22.0655 84.6128 21.994 84.6147C18.5191 84.6564 15.1275 86.3174 14.2032 88.2634C13.9902 88.8731 13.9902 89.5371 14.2032 90.1468C13.5985 90.9391 13.8904 91.3422 14.2032 91.9051C14.5132 92.2054 14.8454 92.4819 15.197 92.7322C17.4835 89.0765 22.2373 87.5684 22.2373 87.5684Z" fill="#E0E0E0"/>
<path id="Vector_23" opacity="0.2" d="M18.6302 86.79C16.9233 87.5399 15.4165 88.6802 14.2309 90.119C14.1613 89.9136 14.1124 89.7018 14.085 89.4866C15.2392 88.0852 16.847 87.1313 18.6302 86.79Z" fill="#525252"/>
<path id="Vector_24" opacity="0.2" d="M22.55 86.373C22.5266 86.4536 22.4808 86.5259 22.418 86.5815C22.3269 86.6638 22.2719 86.7787 22.2651 86.9012V86.9568C19.8304 87.3284 17.578 88.4679 15.8364 90.2094C17.4488 87.8742 20.9863 86.6788 22.55 86.373Z" fill="#525252"/>
<path id="Vector_25" d="M29.1175 91.8912C32.0908 90.1145 34.7647 87.8791 37.0404 85.2679C32.5716 85.2679 26.3445 85.539 22.2649 86.9568V87.5684C22.2649 87.5684 17.5112 89.0765 15.2524 92.7043C18.6301 95.1577 23.5923 95.0812 29.1175 91.8912Z" fill="#FFA8A7"/>
<path id="Vector_26" opacity="0.2" d="M22.5707 87.5893L22.6541 86.8248L22.2649 86.9569V87.5685C21.1536 87.9519 20.0883 88.4577 19.0888 89.0766C18.7772 89.4955 18.542 89.966 18.3938 90.4666C19.3251 89.1461 20.3467 88.6249 22.3275 88.1106C24.1344 88.3886 27.2758 89.7229 30.4797 91.0573C30.7855 90.8558 31.0913 90.6473 31.3901 90.4318C27.4843 89.1183 23.5715 87.6588 22.5707 87.5893Z" fill="#525252"/>
<path id="Vector_27" d="M28.7353 66.684H28.6797C28.2739 66.473 27.9176 66.1779 27.6348 65.8184C27.352 65.4588 27.149 65.0431 27.0396 64.599C26.9423 64.1542 26.8519 63.7024 26.7824 63.2507C26.7129 62.799 26.4141 63.2507 26.4141 63.2507C26.4141 63.2507 26.4141 64.2515 26.4627 65.4469C26.4627 66.0724 26.4627 66.7535 26.5044 67.372C26.5113 67.5936 26.5742 67.8099 26.6872 68.0007C26.8002 68.1915 26.9597 68.3506 27.1508 68.4631L32.5717 71.6253V67.7056C31.2375 67.6248 29.933 67.2774 28.7353 66.684Z" fill="#FFA8A7"/>
<path id="Vector_28" opacity="0.2" d="M27.964 66.6075C27.6378 66.1979 27.401 65.7243 27.269 65.2175C27.5705 65.8306 28.0566 66.3338 28.659 66.6562H28.7146C29.9144 67.2505 31.2214 67.598 32.5579 67.6778V68.6577C31.7865 68.5915 31.0258 68.4328 30.2923 68.1851C29.384 67.8871 28.5775 67.3406 27.964 66.6075Z" fill="#525252"/>
<path id="Vector_29" d="M38.6946 54.3408C39.1392 57.7034 38.9172 61.1206 38.0413 64.3974C37.8769 65.1273 37.6077 65.8295 37.2421 66.4823C36.8777 67.1331 36.3048 67.6423 35.6158 67.9279C34.7325 68.1645 33.8026 68.1645 32.9193 67.9279C31.2588 67.7361 29.6475 67.2415 28.1655 66.4684C26.7755 65.6067 25.6149 64.0499 25.7469 62.3888C25.3411 62.6385 24.8792 62.7826 24.4033 62.8081C23.9275 62.8336 23.4528 62.7396 23.0226 62.5348C22.6028 62.303 22.2467 61.9711 21.9861 61.5685C21.7254 61.166 21.5682 60.7053 21.5283 60.2274C21.4398 59.8524 21.4753 59.4588 21.6297 59.1058C21.784 58.7528 22.0488 58.4594 22.3842 58.2697C22.7196 58.0801 23.1075 58.0045 23.4896 58.0542C23.8716 58.1039 24.2272 58.2764 24.5029 58.5455C24.9364 58.9154 25.3114 59.349 25.6149 59.8313C25.7547 60.0644 25.9417 60.2656 26.1639 60.422C26.2774 60.4967 26.4103 60.5366 26.5462 60.5366C26.6821 60.5366 26.815 60.4967 26.9284 60.422C27.0227 60.3084 27.0909 60.1754 27.1282 60.0325C27.1654 59.8896 27.1708 59.7402 27.1439 59.595L27.0466 57.51C27.0412 57.3483 27.0822 57.1885 27.1647 57.0493C27.2472 56.9102 27.3678 56.7975 27.5122 56.7247C27.9459 56.4868 28.2809 56.1025 28.4574 55.6405C28.6077 55.2343 28.6967 54.808 28.7215 54.3756C28.7285 54.2962 28.7537 54.2195 28.795 54.1514C28.8363 54.0832 28.8926 54.0254 28.9597 53.9825C29.0269 53.9395 29.1029 53.9125 29.1821 53.9036C29.2613 53.8946 29.3415 53.9039 29.4165 53.9308C32.3948 55.0118 35.6326 55.1549 38.6946 54.3408Z" fill="#FFA8A7"/>
<path id="Vector_30" d="M34.0659 59.4421L35.9562 62.6322L33.6975 63.0561L34.0659 59.4421Z" fill="#F28F8F"/>
<path id="Vector_31" d="M31.5224 64.1542L33.239 64.9882C33.0913 65.1819 32.8849 65.3225 32.6505 65.3889C32.4162 65.4553 32.1667 65.444 31.9394 65.3565C31.7422 65.2346 31.593 65.0485 31.5171 64.8295C31.4411 64.6105 31.443 64.372 31.5224 64.1542Z" fill="#F28F8F"/>
<path id="Vector_32" opacity="0.3" d="M31.5224 64.1542L33.239 64.9882C33.0913 65.1819 32.8849 65.3225 32.6505 65.3889C32.4162 65.4553 32.1667 65.444 31.9394 65.3565C31.7422 65.2346 31.593 65.0485 31.5171 64.8295C31.4411 64.6105 31.443 64.372 31.5224 64.1542Z" fill="#525252"/>
<path id="Vector_33" d="M32.5369 65.4121C32.3364 65.4506 32.1291 65.4313 31.9392 65.3565C31.7812 65.269 31.653 65.1362 31.5713 64.9751C31.4895 64.8141 31.4579 64.6322 31.4805 64.453C31.7332 64.4443 31.9804 64.5283 32.1755 64.6893C32.2805 64.7799 32.3665 64.8905 32.4285 65.0145C32.4906 65.1386 32.5274 65.2737 32.5369 65.4121Z" fill="#F28F8F"/>
<path id="Vector_34" d="M30.7926 59.5741C30.7806 59.7018 30.8069 59.8301 30.868 59.9428C30.9292 60.0555 31.0224 60.1475 31.136 60.2071C31.2495 60.2666 31.3782 60.291 31.5057 60.2772C31.6332 60.2634 31.7537 60.212 31.8519 60.1295C31.95 60.0471 32.0215 59.9373 32.0571 59.8141C32.0927 59.6909 32.0908 59.5599 32.0518 59.4378C32.0127 59.3157 31.9382 59.2079 31.8378 59.1282C31.7373 59.0485 31.6154 59.0006 31.4876 58.9903C31.3187 58.9786 31.1518 59.0329 31.0222 59.1418C30.8925 59.2507 30.8102 59.4057 30.7926 59.5741Z" fill="#263238"/>
<path id="Vector_35" d="M36.2342 59.9078C36.2208 60.0355 36.2458 60.1644 36.306 60.2779C36.3662 60.3914 36.4589 60.4844 36.5722 60.5451C36.6855 60.6057 36.8142 60.6311 36.9421 60.6182C37.0699 60.6053 37.191 60.5546 37.2899 60.4725C37.3887 60.3904 37.4609 60.2808 37.4971 60.1575C37.5334 60.0342 37.5321 59.903 37.4934 59.7805C37.4547 59.6579 37.3803 59.5497 37.2799 59.4697C37.1794 59.3896 37.0573 59.3413 36.9292 59.3309C36.7606 59.3155 36.5928 59.3675 36.4625 59.4756C36.3322 59.5838 36.2501 59.7392 36.2342 59.9078Z" fill="#263238"/>
<path id="Vector_36" d="M37.1169 57.4058L38.4444 58.5386C38.5254 58.3679 38.5523 58.1765 38.5212 57.9901C38.4901 57.8037 38.4027 57.6313 38.2706 57.4961C38.1051 57.3766 37.91 57.305 37.7065 57.289C37.503 57.2731 37.299 57.3135 37.1169 57.4058Z" fill="#263238"/>
<path id="Vector_37" d="M31.6058 56.7734L30.0768 57.6143C30.0306 57.4322 30.0419 57.2403 30.109 57.0648C30.1762 56.8894 30.2961 56.739 30.4521 56.6344C30.6381 56.5473 30.8449 56.5142 31.0488 56.5388C31.2527 56.5633 31.4457 56.6446 31.6058 56.7734Z" fill="#263238"/>
<path id="Vector_38" d="M62.7065 55.4945L62.7134 57.2876L54.6793 61.9301L54.6724 60.1301L62.7065 55.4945Z" fill="white"/>
<path id="Vector_39" d="M66.9391 64.0847V65.8778L54.7142 72.9389L54.7073 71.1458L66.9391 64.0847Z" fill="white"/>
<path id="Vector_40" d="M70.9423 58.1077V59.9007L54.7003 69.2831L54.6934 67.4831L70.9423 58.1077Z" fill="white"/>
<path id="Vector_41" d="M77.2736 43.4226L77.2806 45.2157L54.6725 58.2676L54.6655 56.4746L77.2736 43.4226Z" fill="white"/>
<path id="Vector_42" d="M81.7493 37.1399V38.933L54.6586 54.5772L54.6516 52.7842L81.7493 37.1399Z" fill="white"/>
<path id="Vector_43" d="M76.106 33.5815L76.1199 37.1746L54.6446 49.5733L54.6377 45.9802L76.106 33.5815Z" fill="white"/>
<path id="Vector_44" d="M9.76221 105.847V192.109L41.565 173.984V87.4989L9.76221 105.847Z" fill="#2A8EF1"/>
<path id="Vector_45" d="M83.5007 63.2993L43.6082 86.3174V172.823L83.5007 150.09V63.2993Z" fill="#2A8EF1"/>
<g id="Group_2" opacity="0.7">
<path id="Vector_46" d="M9.76221 105.847V192.109L41.565 173.984V87.4989L9.76221 105.847Z" fill="white"/>
<path id="Vector_47" d="M83.5009 63.2993L43.6084 86.3174V172.823L83.5009 150.09V63.2993Z" fill="white"/>
</g>
<path id="Vector_48" d="M67.8843 138.511V140.061L49.0153 150.959L49.0083 149.409L67.8843 138.511Z" fill="#2A8EF1"/>
<path id="Vector_49" d="M78.2256 129.671L78.2326 131.221L49.0082 148.095L49.0012 146.538L78.2256 129.671Z" fill="#2A8EF1"/>
<path id="Vector_50" d="M62.7274 135.745L62.7344 137.295L49.0013 145.225L48.9944 143.675L62.7274 135.745Z" fill="#2A8EF1"/>
<path id="Vector_51" d="M78.2117 123.937L78.2186 125.487L48.9943 142.361L48.9873 140.812L78.2117 123.937Z" fill="#2A8EF1"/>
<path id="Vector_52" d="M78.2049 121.067V122.624L48.9805 139.498V137.941L78.2049 121.067Z" fill="#2A8EF1"/>
<path id="Vector_53" d="M56.0139 126.912V128.462L48.9667 132.534L48.9597 130.978L56.0139 126.912Z" fill="#2A8EF1"/>
<path id="Vector_54" d="M78.177 111.247V112.797L48.9526 129.664V128.114L78.177 111.247Z" fill="#2A8EF1"/>
<path id="Vector_55" d="M78.1632 108.383L78.1702 109.933L48.9458 126.801V125.251L78.1632 108.383Z" fill="#2A8EF1"/>
<path id="Vector_56" d="M78.1563 105.52L78.1632 107.063L48.9388 123.937L48.9319 122.387L78.1563 105.52Z" fill="#2A8EF1"/>
<path id="Vector_57" d="M67.7869 104.568V106.118L48.9178 117.008L48.9109 115.458L67.7869 104.568Z" fill="#2A8EF1"/>
<path id="Vector_58" d="M78.1284 95.7207L78.1354 97.2775L48.911 114.145L48.9041 112.595L78.1284 95.7207Z" fill="#2A8EF1"/>
<path id="Vector_59" d="M78.1214 92.8573L78.1283 94.4071L48.9039 111.275L48.897 109.732L78.1214 92.8573Z" fill="#2A8EF1"/>
<path id="Vector_60" d="M78.1074 87.1237L78.1144 88.6735L48.8831 105.548V103.998L78.1074 87.1237Z" fill="#2A8EF1"/>
<path id="Vector_61" d="M78.1145 89.9939L78.1215 91.5437L48.8971 108.411L48.8901 106.861L78.1145 89.9939Z" fill="#2A8EF1"/>
<path id="Vector_62" d="M73.7291 77.1018V78.6516L48.8484 93.0171V91.4673L73.7291 77.1018Z" fill="#2A8EF1"/>
<path id="Vector_63" d="M75.4944 81.8208L75.5013 83.3706L48.8693 98.7508L48.8623 97.194L75.4944 81.8208Z" fill="#2A8EF1"/>
<path id="Vector_64" d="M66.3832 84.2115V85.7614L48.8624 95.8805L48.8555 94.3306L66.3832 84.2115Z" fill="#2A8EF1"/>
<path id="Vector_65" d="M78.0659 71.7296V73.2794L48.8416 90.1538V88.604L78.0659 71.7296Z" fill="#2A8EF1"/>
<path id="Vector_66" d="M78.2674 144.106L78.2743 145.656L49.0499 162.53L49.043 160.98L78.2674 144.106Z" fill="#2A8EF1"/>
<path id="Vector_67" d="M62.79 155.914V157.464L49.057 165.393L49.05 163.844L62.79 155.914Z" fill="#2A8EF1"/>
<path id="Vector_68" d="M70.9075 145.489L70.9145 147.039L49.0431 159.667L49.0361 158.117L70.9075 145.489Z" fill="#2A8EF1"/>
<path id="Vector_69" d="M78.2534 138.372V139.929L49.0291 156.803V155.247L78.2534 138.372Z" fill="#2A8EF1"/>
<g id="Group_3" opacity="0.1">
<path id="Vector_70" d="M67.8843 138.511V140.061L49.0153 150.959L49.0083 149.409L67.8843 138.511Z" fill="white"/>
<path id="Vector_71" d="M78.2256 129.671L78.2326 131.221L49.0082 148.095L49.0012 146.538L78.2256 129.671Z" fill="white"/>
<path id="Vector_72" d="M62.7274 135.745L62.7344 137.295L49.0013 145.225L48.9944 143.675L62.7274 135.745Z" fill="white"/>
<path id="Vector_73" d="M78.2117 123.937L78.2186 125.487L48.9943 142.362L48.9873 140.812L78.2117 123.937Z" fill="white"/>
<path id="Vector_74" d="M78.2049 121.067V122.624L48.9805 139.498V137.941L78.2049 121.067Z" fill="white"/>
</g>
<g id="Group_4" opacity="0.4">
<path id="Vector_75" d="M56.0139 126.912V128.462L48.9667 132.534L48.9597 130.978L56.0139 126.912Z" fill="white"/>
<path id="Vector_76" d="M78.177 111.247V112.797L48.9526 129.664V128.114L78.177 111.247Z" fill="white"/>
<path id="Vector_77" d="M78.1632 108.383L78.1702 109.933L48.9458 126.801V125.251L78.1632 108.383Z" fill="white"/>
<path id="Vector_78" d="M78.1563 105.52L78.1632 107.063L48.9388 123.937L48.9319 122.387L78.1563 105.52Z" fill="white"/>
</g>
<g id="Group_5" opacity="0.1">
<path id="Vector_79" d="M67.7869 104.568V106.118L48.9178 117.008L48.9109 115.459L67.7869 104.568Z" fill="white"/>
<path id="Vector_80" d="M78.1282 95.7207L78.1351 97.2775L48.9108 114.145L48.9038 112.595L78.1282 95.7207Z" fill="white"/>
<path id="Vector_81" d="M78.1214 92.8573L78.1283 94.4071L48.9039 111.275L48.897 109.732L78.1214 92.8573Z" fill="white"/>
<path id="Vector_82" d="M78.1074 87.1237L78.1144 88.6735L48.8831 105.548V103.998L78.1074 87.1237Z" fill="white"/>
<path id="Vector_83" d="M78.1143 89.994L78.1212 91.5438L48.8968 108.411L48.8899 106.861L78.1143 89.994Z" fill="white"/>
</g>
<g id="Group_6" opacity="0.4">
<path id="Vector_84" d="M73.7291 77.1019V78.6518L48.8484 93.0172V91.4674L73.7291 77.1019Z" fill="white"/>
<path id="Vector_85" d="M75.4944 81.8209L75.5013 83.3708L48.8693 98.7509L48.8623 97.1941L75.4944 81.8209Z" fill="white"/>
<path id="Vector_86" d="M66.3832 84.2117V85.7615L48.8624 95.8806L48.8555 94.3308L66.3832 84.2117Z" fill="white"/>
<path id="Vector_87" d="M78.0659 71.7296V73.2794L48.8416 90.1538V88.604L78.0659 71.7296Z" fill="white"/>
</g>
<g id="Group_7" opacity="0.4">
<path id="Vector_88" d="M78.2674 144.106L78.2743 145.656L49.0499 162.53L49.043 160.98L78.2674 144.106Z" fill="white"/>
<path id="Vector_89" d="M62.7898 155.914V157.464L49.0568 165.394L49.0498 163.844L62.7898 155.914Z" fill="white"/>
<path id="Vector_90" d="M70.9073 145.489L70.9142 147.039L49.0428 159.667L49.0359 158.117L70.9073 145.489Z" fill="white"/>
<path id="Vector_91" d="M78.2534 138.372V139.929L49.0291 156.803V155.247L78.2534 138.372Z" fill="white"/>
</g>
<path id="Vector_92" d="M33.5099 99.0566L33.5168 102.045L13.7096 113.457L13.7026 110.468L33.5099 99.0566Z" fill="#2A8EF1"/>
<path id="Vector_93" d="M30.7647 106.34L30.7716 107.827L13.7235 117.648L13.7166 116.16L30.7647 106.34Z" fill="white"/>
<path id="Vector_94" d="M38.6041 160.716L38.6111 163.698L31.2998 167.923L31.2859 164.942L38.6041 160.716Z" fill="#2A8EF1"/>
<path id="Vector_95" d="M24.4333 136.795L24.4402 139.776L13.7999 145.899L13.793 142.918L24.4333 136.795Z" fill="#2A8EF1"/>
<g id="Group_8">
<path id="Vector_96" d="M30.9175 159.18V160.675L13.8694 170.495V169.001L30.9175 159.18Z" fill="white"/>
<path id="Vector_97" d="M33.6698 154.837V156.324L13.8625 167.736V166.248L33.6698 154.837Z" fill="white"/>
<path id="Vector_98" d="M38.4443 149.312L38.4512 150.806L13.8555 164.984V163.482L38.4443 149.312Z" fill="white"/>
<path id="Vector_99" d="M33.642 146.386L33.6559 149.367L13.8486 160.786L13.8347 157.797L33.642 146.386Z" fill="#2A8EF1"/>
<path id="Vector_100" d="M35.4072 138.921L35.4142 140.409L13.8208 152.856V151.362L35.4072 138.921Z" fill="white"/>
<path id="Vector_101" d="M31.3902 138.477L31.3971 139.971L13.8138 150.097L13.8069 148.61L31.3902 138.477Z" fill="white"/>
</g>
<path id="Vector_102" d="M38.3889 128.74L38.3958 131.721L26.5323 138.574L26.5254 135.585L38.3889 128.74Z" fill="#2A8EF1"/>
<path id="Vector_103" d="M32.5508 122.916L32.5577 124.41L13.7721 135.231L13.7651 133.737L32.5508 122.916Z" fill="white"/>
<g id="Group_9">
<path id="Vector_104" d="M34.3997 124.611L34.4066 126.106L13.7793 137.99V136.496L34.3997 124.611Z" fill="white"/>
<path id="Vector_105" d="M36.7347 117.745V119.232L13.7653 132.472L13.7583 130.985L36.7347 117.745Z" fill="white"/>
<path id="Vector_106" d="M33.5516 113.881L33.5586 116.862L13.7513 128.274L13.7444 125.293L33.5516 113.881Z" fill="#2A8EF1"/>
<path id="Vector_107" d="M25.0798 112.387V113.874L13.7306 120.407L13.7236 118.92L25.0798 112.387Z" fill="white"/>
</g>
<g id="Group_10">
<path id="Vector_108" d="M35.6018 170.912V172.406L13.9111 184.902V183.415L35.6018 170.912Z" fill="white"/>
<path id="Vector_109" d="M32.224 170.092L32.231 171.586L13.9041 182.15V180.649L32.224 170.092Z" fill="white"/>
<path id="Vector_110" d="M28.4851 166.561L28.492 169.543L13.8972 177.945L13.8833 174.964L28.4851 166.561Z" fill="#2A8EF1"/>
</g>
</g>
</svg>
