<svg width="253" height="135" viewBox="0 0 253 135" fill="none" xmlns="http://www.w3.org/2000/svg">
<g id="Shadows">
<path id="Vector" d="M146.823 2.94005C153.592 6.85285 153.627 13.1842 146.906 17.0901C140.185 20.9959 129.246 21.0029 122.477 17.0901C115.708 13.1773 115.673 6.85285 122.401 2.94005C129.128 -0.972749 140.06 -0.965799 146.823 2.94005Z" fill="#E6E6E6"/>
<path id="Vector_2" d="M1.75015 113.527L8.05372 116.932C8.6697 117.267 9.3615 117.438 10.0626 117.428C10.7637 117.419 11.4504 117.229 12.0569 116.877L100.891 65.3502C101.207 65.1683 101.468 64.9053 101.648 64.5884C101.828 64.2714 101.92 63.9121 101.914 63.5477C101.908 63.1833 101.805 62.827 101.616 62.5159C101.426 62.2047 101.156 61.9499 100.835 61.778L92.4952 57.2814L1.69455 109.955C1.37872 110.137 1.11727 110.4 0.937325 110.717C0.757377 111.034 0.665474 111.393 0.671146 111.757C0.676818 112.122 0.779857 112.478 0.969582 112.789C1.15931 113.1 1.42881 113.355 1.75015 113.527Z" fill="#E6E6E6"/>
<path id="Vector_3" d="M198.718 101.823C185.673 94.2897 164.594 94.2897 151.632 101.823C138.671 109.357 138.747 121.568 151.785 129.095C164.823 136.622 185.909 136.629 198.871 129.095C211.832 121.561 211.763 109.35 198.718 101.823Z" fill="#E6E6E6"/>
<path id="Vector_4" d="M248.27 66.8723C243.058 63.9325 234.683 64.0228 229.568 67.0669C224.453 70.111 224.53 74.962 229.742 77.9018C234.954 80.8416 243.329 80.7443 248.444 77.7003C253.559 74.6562 253.483 69.8052 248.27 66.8723Z" fill="#E6E6E6"/>
</g>
</svg>
