<svg width="31" height="31" viewBox="0 0 31 31" fill="none" xmlns="http://www.w3.org/2000/svg">
<g id="Speech bubble">
<path id="Vector" d="M6.8391 10.8085L24.9796 0.405434C26.5683 -0.511896 30.2975 0.724505 30.2975 3.27707C30.298 3.07063 30.2441 2.86769 30.1414 2.68863C30.0386 2.50957 29.8906 2.3607 29.7121 2.25697C29.5336 2.15324 29.3309 2.0983 29.1245 2.09767C28.918 2.09704 28.7151 2.15075 28.5359 2.25339L10.3954 12.6631C9.8012 13.0135 9.32104 13.5283 9.01277 14.1454L5.49634 12.1512C5.81259 11.5892 6.27705 11.1247 6.8391 10.8085Z" fill="#2A8EF1"/>
<path id="Vector_2" d="M9.03933 14.1321C8.78317 14.6229 8.64652 15.1673 8.64048 15.7208V29.1883C8.64133 29.3949 8.69627 29.5978 8.79985 29.7766C8.90343 29.9554 9.05203 30.1039 9.23087 30.2075C9.4097 30.311 9.61253 30.3659 9.81917 30.3667C10.0258 30.3675 10.2291 30.3142 10.4087 30.212C9.88627 30.5312 9.28922 30.7076 8.67723 30.7236C8.06525 30.7396 7.45979 30.5947 6.9214 30.3033C6.38301 30.0119 5.93056 29.5842 5.60931 29.0631C5.28806 28.542 5.10927 27.9456 5.09082 27.3337V13.8729C5.09288 13.2649 5.2508 12.6675 5.54949 12.1379L9.03933 14.1321Z" fill="#2A8EF1"/>
<path id="Vector_3" opacity="0.4" d="M6.8391 10.8085L24.9796 0.405434C26.5683 -0.511896 30.2975 0.724505 30.2975 3.27707C30.298 3.07063 30.2441 2.86769 30.1414 2.68863C30.0386 2.50957 29.8906 2.3607 29.7121 2.25697C29.5336 2.15324 29.3309 2.0983 29.1245 2.09767C28.918 2.09704 28.7151 2.15075 28.5359 2.25339L10.3954 12.6631C9.8012 13.0135 9.32104 13.5283 9.01277 14.1454L5.49634 12.1512C5.81259 11.5892 6.27705 11.1247 6.8391 10.8085Z" fill="white"/>
<path id="Vector_4" opacity="0.2" d="M9.03933 14.1321C8.78317 14.6229 8.64652 15.1673 8.64048 15.7208V29.1883C8.64133 29.3949 8.69627 29.5978 8.79985 29.7766C8.90343 29.9554 9.05203 30.1039 9.23087 30.2075C9.4097 30.311 9.61253 30.3659 9.81917 30.3667C10.0258 30.3675 10.2291 30.3142 10.4087 30.212C9.88627 30.5312 9.28922 30.7076 8.67723 30.7236C8.06525 30.7396 7.45979 30.5947 6.9214 30.3033C6.38301 30.0119 5.93056 29.5842 5.60931 29.0631C5.28806 28.542 5.10927 27.9456 5.09082 27.3337V13.8729C5.09288 13.2649 5.2508 12.6675 5.54949 12.1379L9.03933 14.1321Z" fill="white"/>
<path id="Vector_5" d="M28.5626 2.24679L10.4221 12.6565C9.8817 12.9669 9.43255 13.4142 9.11983 13.9533C8.80711 14.4924 8.64183 15.1043 8.64062 15.7275V29.195C8.64147 29.4016 8.69641 29.6045 8.79999 29.7833C8.90357 29.9621 9.05217 30.1106 9.23101 30.2142C9.40984 30.3177 9.61267 30.3726 9.81931 30.3734C10.026 30.3742 10.2292 30.3208 10.4088 30.2187L28.5427 19.8555C29.084 19.5461 29.5339 19.0991 29.8468 18.5598C30.1596 18.0204 30.3243 17.408 30.3242 16.7845V3.27047C30.3247 3.06403 30.2708 2.86108 30.1681 2.68202C30.0653 2.50296 29.9173 2.35409 29.7388 2.25036C29.5603 2.14663 29.3576 2.0917 29.1512 2.09107C28.9447 2.09044 28.7418 2.14414 28.5626 2.24679Z" fill="#2A8EF1"/>
<path id="Vector_6" d="M4.29319 22.6007L8.65383 23.4117V17.8213L4.12701 22.1088C4.09206 22.1482 4.06815 22.1962 4.0577 22.2479C4.04725 22.2995 4.05062 22.353 4.06749 22.4029C4.08436 22.4529 4.11411 22.4974 4.15375 22.5322C4.19338 22.5669 4.24148 22.5905 4.29319 22.6007Z" fill="#2A8EF1"/>
<path id="Vector_7" d="M8.64054 17.8213L5.06429 15.7739L0.557411 20.1146C0.523006 20.1458 0.496503 20.1846 0.480091 20.228C0.463679 20.2714 0.457825 20.3181 0.46302 20.3642C0.468216 20.4103 0.484303 20.4546 0.509962 20.4932C0.535621 20.5319 0.57012 20.5639 0.610591 20.5866L4.1802 22.5808L8.64054 17.8213Z" fill="#2A8EF1"/>
<path id="Vector_8" opacity="0.2" d="M8.64054 17.8213L5.06429 15.7739L0.557411 20.1146C0.523006 20.1458 0.496503 20.1846 0.480091 20.228C0.463679 20.2714 0.457825 20.3181 0.46302 20.3642C0.468216 20.4103 0.484303 20.4546 0.509962 20.4932C0.535621 20.5319 0.57012 20.5639 0.610591 20.5866L4.1802 22.5808L8.64054 17.8213Z" fill="white"/>
<path id="Vector_9" d="M25.804 6.60744C26.2493 6.34819 26.5618 6.85339 26.1563 7.49818C23.2386 12.1037 20.6871 16.9312 18.5252 21.9361C18.3033 22.5046 17.9048 22.9869 17.3885 23.3121C17.2319 23.4345 17.0388 23.501 16.8401 23.501C16.6413 23.501 16.4483 23.4345 16.2917 23.3121C15.2125 22.2925 14.0371 21.3797 12.7819 20.5867C12.4362 20.3674 12.7221 19.5631 13.1674 19.3038C13.2208 19.272 13.2793 19.2495 13.3403 19.2373C14.6537 18.9727 16.003 18.9367 17.3286 19.131C19.551 14.7006 22.3177 10.565 25.5647 6.82015C25.6323 6.73666 25.7131 6.6648 25.804 6.60744Z" fill="white"/>
</g>
</svg>
