<svg width="35" height="96" viewBox="0 0 35 96" fill="none" xmlns="http://www.w3.org/2000/svg">
<g id="Table">
<path id="Vector" d="M19.21 37.1532H16.0964C16.0964 50.5457 16.5829 94.622 16.5829 94.622C16.591 94.7163 16.6243 94.8067 16.6794 94.8838C16.7344 94.9608 16.8091 95.0216 16.8957 95.0599C17.1301 95.18 17.3898 95.2427 17.6532 95.2427C17.9167 95.2427 18.1763 95.18 18.4108 95.0599C18.4973 95.0216 18.572 94.9608 18.6271 94.8838C18.6821 94.8067 18.7154 94.7163 18.7235 94.622C18.7235 94.622 19.21 50.5457 19.21 37.1532Z" fill="#E6E6E6"/>
<path id="Vector_2" d="M12.9273 31.1206H9.8137C7.13798 44.9718 5.39355 88.5825 5.39355 88.5825C5.40302 88.6773 5.43765 88.7679 5.49385 88.8449C5.55006 88.9219 5.62579 88.9824 5.71324 89.0203C5.94769 89.1405 6.20736 89.2031 6.47079 89.2031C6.73423 89.2031 6.99389 89.1405 7.22833 89.0203C7.31497 88.983 7.38948 88.9223 7.4435 88.8449C7.49752 88.7676 7.52891 88.6767 7.53413 88.5825C7.53413 88.5825 10.4878 44.7772 12.9273 31.1206Z" fill="#E6E6E6"/>
<path id="Vector_3" d="M22.407 31.1206H25.5205C28.1963 44.9718 29.9337 88.5825 29.9337 88.5825C29.9256 88.6768 29.8923 88.7672 29.8373 88.8442C29.7823 88.9213 29.7076 88.9821 29.621 89.0203C29.3866 89.1405 29.1269 89.2031 28.8634 89.2031C28.6 89.2031 28.3404 89.1405 28.1059 89.0203C28.0193 88.9821 27.9446 88.9213 27.8896 88.8442C27.8346 88.7672 27.8013 88.6768 27.7932 88.5825C27.7932 88.5825 24.8117 44.7772 22.407 31.1206Z" fill="#E6E6E6"/>
<g id="Group" opacity="0.1">
<path id="Vector_4" d="M19.21 37.1531H16.0964C16.0964 50.5456 16.5829 94.6219 16.5829 94.6219C16.591 94.7162 16.6243 94.8066 16.6794 94.8836C16.7344 94.9607 16.8091 95.0215 16.8957 95.0598C17.1301 95.1799 17.3898 95.2426 17.6532 95.2426C17.9167 95.2426 18.1763 95.1799 18.4108 95.0598C18.4973 95.0215 18.572 94.9607 18.6271 94.8836C18.6821 94.8066 18.7154 94.7162 18.7235 94.6219C18.7235 94.6219 19.21 50.5456 19.21 37.1531Z" fill="#525252"/>
<path id="Vector_5" d="M12.9273 31.1206H9.8137C7.13798 44.9718 5.39355 88.5825 5.39355 88.5825C5.40302 88.6773 5.43765 88.7679 5.49385 88.8449C5.55006 88.9219 5.62579 88.9824 5.71324 89.0203C5.94769 89.1405 6.20736 89.2031 6.47079 89.2031C6.73423 89.2031 6.99389 89.1405 7.22833 89.0203C7.31497 88.983 7.38948 88.9223 7.4435 88.8449C7.49752 88.7676 7.52891 88.6767 7.53413 88.5825C7.53413 88.5825 10.4878 44.7772 12.9273 31.1206Z" fill="#525252"/>
<path id="Vector_6" d="M22.407 31.1206H25.5205C28.1963 44.9718 29.9337 88.5825 29.9337 88.5825C29.9256 88.6768 29.8923 88.7672 29.8373 88.8442C29.7823 88.9213 29.7076 88.9821 29.621 89.0203C29.3866 89.1405 29.1269 89.2031 28.8634 89.2031C28.6 89.2031 28.3404 89.1405 28.1059 89.0203C28.0193 88.9821 27.9446 88.9213 27.8896 88.8442C27.8346 88.7672 27.8013 88.6768 27.7932 88.5825C27.7932 88.5825 24.8117 44.7772 22.407 31.1206Z" fill="#525252"/>
</g>
<path id="Vector_7" d="M34.4025 30.7175H34.0759C33.4434 28.8966 31.9075 27.1592 29.4611 25.7483C22.8934 21.9537 12.2879 21.9537 5.76886 25.7483C3.33639 27.1383 1.82131 28.8966 1.20972 30.7175H0.896973V32.6079C0.896973 35.089 2.56495 37.5771 5.84531 39.4675C12.406 43.2621 23.0116 43.2621 29.5376 39.4675C32.7971 37.5771 34.4025 35.089 34.4025 32.6079V30.7175Z" fill="#E0E0E0"/>
<path id="Vector_8" d="M29.4611 23.858C36.0218 27.6457 36.0565 33.7894 29.5375 37.5841C23.0185 41.3787 12.406 41.3718 5.84525 37.5841C-0.715472 33.7964 -0.757172 27.6457 5.7688 23.858C12.2948 20.0703 22.8934 20.0703 29.4611 23.858Z" fill="#EBEBEB"/>
<path id="Vector_9" d="M25.8818 18.2563H9.4314C9.4314 23.6564 11.9542 28.2364 12.7326 29.5917C12.762 29.657 12.7968 29.7198 12.8369 29.7793L12.8716 29.8419C13.1744 30.2755 13.5742 30.6324 14.0392 30.8843C15.1604 31.4566 16.4013 31.755 17.6601 31.755C18.9189 31.755 20.1598 31.4566 21.281 30.8843C21.8529 30.5839 22.3169 30.1126 22.6084 29.5361C23.4146 28.1044 25.8818 23.5869 25.8818 18.2563Z" fill="#E0E0E0"/>
<path id="Vector_10" d="M23.4424 14.8856C26.6672 16.7482 26.6811 19.7505 23.4841 21.6201C20.2871 23.4896 15.0817 23.4826 11.8569 21.6201C8.63213 19.7575 8.61823 16.7551 11.8569 14.8856C15.0956 13.0161 20.2246 13.03 23.4424 14.8856Z" fill="#EBEBEB"/>
<path id="Vector_11" d="M16.7635 16.1297C16.7386 12.6123 15.9264 9.14525 14.3866 5.98279C13.8221 5.03159 13.4425 3.98227 13.2677 2.89007C13.1913 1.78503 13.7959 0.541003 14.8801 0.325556C15.3117 0.274214 15.749 0.346189 16.1414 0.533149C16.5337 0.720109 16.8651 1.0144 17.0971 1.38194C17.5445 2.12742 17.8398 2.95417 17.9658 3.81441C18.779 7.61601 19.4601 11.5288 18.9458 15.386C18.9175 15.8293 18.8286 16.2665 18.6817 16.6856C18.6008 16.8774 18.4721 17.0452 18.3078 17.1729C18.1435 17.3007 17.9492 17.3842 17.7434 17.4154C17.6054 17.4275 17.4663 17.4075 17.3373 17.3568C17.2083 17.3062 17.0928 17.2263 16.9998 17.1235C16.832 16.8199 16.7503 16.4763 16.7635 16.1297Z" fill="#EBEBEB"/>
<path id="Vector_12" d="M17.6671 16.4424C17.6491 16.4416 17.6315 16.4371 17.6154 16.4292C17.5992 16.4213 17.5848 16.4101 17.5731 16.3965C17.5614 16.3828 17.5526 16.3669 17.5472 16.3497C17.5419 16.3325 17.5401 16.3144 17.542 16.2965C17.9547 11.3631 17.1156 6.40527 15.1026 1.88236C15.0947 1.86655 15.0902 1.84924 15.0895 1.83157C15.0887 1.8139 15.0917 1.79628 15.0983 1.77986C15.1049 1.76344 15.1148 1.7486 15.1276 1.73632C15.1403 1.72404 15.1555 1.71459 15.1721 1.70861C15.2035 1.69426 15.2393 1.69277 15.2717 1.70446C15.3042 1.71615 15.3308 1.74009 15.3459 1.77115C17.3779 6.33539 18.2265 11.3383 17.8131 16.3173C17.8122 16.3353 17.8077 16.3529 17.7998 16.3691C17.7919 16.3853 17.7808 16.3997 17.7671 16.4114C17.7534 16.4231 17.7375 16.4319 17.7203 16.4372C17.7031 16.4426 17.685 16.4443 17.6671 16.4424Z" fill="white"/>
<path id="Vector_13" d="M8.75723 10.403C8.06224 9.95122 7.2074 9.47167 6.99195 8.64463C6.91594 8.27192 6.95499 7.88491 7.10393 7.5349C7.25287 7.18488 7.50467 6.8884 7.82594 6.68475C8.15333 6.4904 8.51644 6.36379 8.8937 6.31246C9.27096 6.26112 9.65468 6.2861 10.0221 6.3859C10.7552 6.59438 11.4417 6.94116 12.0445 7.40754C13.0937 8.15738 14.0298 9.05378 14.8245 10.0694C15.7782 11.2805 16.5314 12.6367 17.0554 14.0864C17.4132 15.0201 17.6808 15.9859 17.8547 16.9706C17.9798 17.749 18.2091 19.0556 17.4029 19.556C17.224 19.6618 17.02 19.7176 16.8122 19.7176C16.6043 19.7176 16.4003 19.6618 16.2214 19.556C15.8784 19.3239 15.6122 18.9948 15.4569 18.6108C15.2909 18.231 15.1493 17.841 15.033 17.4432C14.5104 15.9092 13.6561 14.5092 12.531 13.3428C11.4059 12.2033 10.1374 11.2151 8.75723 10.403Z" fill="#F5F5F5"/>
<path id="Vector_14" d="M17.0554 18.6178C17.0131 18.6261 16.9692 18.6178 16.9329 18.5944C16.8966 18.5711 16.8708 18.5346 16.8608 18.4927C16.3433 16.1597 15.3134 13.9709 13.8458 12.085C12.3781 10.199 10.5094 8.66303 8.37499 7.58826C8.35566 7.57932 8.33831 7.56661 8.32396 7.55087C8.30961 7.53513 8.29855 7.51669 8.29143 7.49662C8.28431 7.47655 8.28127 7.45526 8.28249 7.434C8.28371 7.41273 8.28917 7.39193 8.29855 7.37281C8.318 7.33328 8.35231 7.30305 8.39398 7.28872C8.43565 7.2744 8.4813 7.27715 8.52095 7.29636C10.6998 8.39014 12.6075 9.95569 14.1054 11.8792C15.6034 13.8027 16.6539 16.0358 17.1805 18.4162C17.1867 18.4377 17.1883 18.4602 17.1853 18.4824C17.1822 18.5045 17.1745 18.5258 17.1628 18.5448C17.151 18.5638 17.1353 18.5801 17.1168 18.5927C17.0983 18.6052 17.0774 18.6138 17.0554 18.6178Z" fill="white"/>
<path id="Vector_15" d="M24.8463 8.72798C25.437 8.10944 26.1111 7.4353 26.1181 6.58046C26.097 6.20139 25.9605 5.83782 25.727 5.53847C25.4935 5.23911 25.1741 5.01827 24.8115 4.90553C24.4453 4.79997 24.0616 4.76896 23.6832 4.81432C23.3048 4.85969 22.9393 4.9805 22.6084 5.16962C21.9551 5.55789 21.38 6.06464 20.9126 6.66386C20.0866 7.65858 19.4056 8.76535 18.8902 9.95117C18.2735 11.3629 17.8887 12.8648 17.7504 14.3991C17.6392 15.3939 17.6252 16.3971 17.7087 17.3945C17.7852 18.1799 17.8894 19.4795 18.7998 19.7783C19.0006 19.8309 19.2116 19.8296 19.4116 19.7747C19.6117 19.7198 19.7938 19.6132 19.9396 19.4656C20.2274 19.1602 20.4163 18.7751 20.4817 18.3606C20.5435 17.9508 20.5806 17.5377 20.5929 17.1235C20.7135 15.5065 21.1881 13.9359 21.9829 12.5226C22.7708 11.1403 23.7331 9.86492 24.8463 8.72798Z" fill="#F5F5F5"/>
<path id="Vector_16" d="M18.932 18.8054C18.975 18.8019 19.015 18.7818 19.0435 18.7494C19.072 18.717 19.0869 18.6748 19.0849 18.6317C18.9862 16.2434 19.4201 13.863 20.3553 11.6632C21.2906 9.46345 22.7036 7.49934 24.4919 5.91332C24.5217 5.88119 24.5383 5.83899 24.5383 5.79517C24.5383 5.75135 24.5217 5.70915 24.4919 5.67702C24.477 5.66168 24.4592 5.64949 24.4395 5.64116C24.4198 5.63283 24.3987 5.62854 24.3773 5.62854C24.3559 5.62854 24.3347 5.63283 24.315 5.64116C24.2953 5.64949 24.2775 5.66168 24.2626 5.67702C22.433 7.28877 20.9849 9.28738 20.0233 11.528C19.0616 13.7686 18.6105 16.1951 18.7027 18.6317C18.7012 18.66 18.7066 18.6883 18.7186 18.7141C18.7305 18.7398 18.7486 18.7622 18.7712 18.7794C18.7939 18.7965 18.8204 18.8079 18.8484 18.8124C18.8764 18.8169 18.9051 18.8145 18.932 18.8054Z" fill="white"/>
</g>
</svg>
