<svg width="86" height="134" viewBox="0 0 86 134" fill="none" xmlns="http://www.w3.org/2000/svg">
<g id="Window">
<g id="Group">
<path id="Vector" d="M82.1175 6.81442L79.5117 5.29883L79.6646 83.2586L82.2704 84.7675L82.1175 6.81442Z" fill="#F0F0F0"/>
<path id="Vector_2" d="M82.2703 84.7675L79.6646 83.2585L49.6719 100.468L52.2776 101.984L82.2703 84.7675Z" fill="#F5F5F5"/>
<path id="Vector_3" d="M85.2749 86.4825L49.2929 107.162L49.1201 22.316L85.102 1.64282L85.2749 86.4825ZM52.2776 101.984L82.2703 84.7741L82.1174 6.81443L52.1247 24.031L52.2776 101.984Z" fill="#E0E0E0"/>
<path id="Vector_4" d="M85.1021 1.64279L82.4963 0.127197L46.5144 20.8004L49.1202 22.3159L85.1021 1.64279Z" fill="#F5F5F5"/>
<path id="Vector_5" d="M49.1202 22.3159L46.5144 20.8003L46.6872 105.647L49.293 107.162L49.1202 22.3159Z" fill="#F0F0F0"/>
</g>
<path id="Vector_6" d="M82.2637 35.7502L79.6579 34.2346L52.1248 50.0685V53.0864L82.2637 35.7502Z" fill="#F5F5F5"/>
<path id="Vector_7" d="M82.2637 35.7502L52.1248 53.0864V56.5231L82.2703 39.2068L82.2637 35.7502Z" fill="#E0E0E0"/>
<g id="Group_2">
<path id="Vector_8" d="M36.2444 33.2043L33.6387 31.6953L33.7916 109.648L36.3907 111.164L36.2444 33.2043Z" fill="#F0F0F0"/>
<path id="Vector_9" d="M36.3906 111.164L33.7915 109.648L3.79883 126.865L6.40458 128.374L36.3906 111.164Z" fill="#F5F5F5"/>
<path id="Vector_10" d="M39.4018 112.879L3.4199 133.552L3.24707 48.7059L39.229 28.0327L39.4018 112.879ZM6.40455 128.374L36.3906 111.164L36.2377 33.2309L6.25166 50.4209L6.40455 128.374Z" fill="#E0E0E0"/>
<path id="Vector_11" d="M39.229 28.0327L36.6233 26.5171L0.641357 47.1902L3.24711 48.7058L39.229 28.0327Z" fill="#F5F5F5"/>
<path id="Vector_12" d="M3.24711 48.7058L0.641357 47.1902L0.814188 132.037L3.41994 133.552L3.24711 48.7058Z" fill="#F0F0F0"/>
</g>
<path id="Vector_13" d="M36.3906 62.14L33.7849 60.6311L6.25171 76.465V79.4762L36.3906 62.14Z" fill="#F5F5F5"/>
<path id="Vector_14" d="M36.3906 62.1399L6.25171 79.4761V82.9128L36.3906 65.5965V62.1399Z" fill="#E0E0E0"/>
</g>
</svg>
