<svg width="300" height="298" viewBox="0 0 300 298" fill="none" xmlns="http://www.w3.org/2000/svg">
                    <path d="M255.715 149.565C196.953 115.663 101.976 115.663 43.593 149.565C-14.7904 183.466 -14.4912 238.506 44.2577 272.434C103.007 306.362 198.004 306.368 256.394 272.434C314.784 238.499 314.491 183.466 255.715 149.565Z" fill="#FAFAFA"/>
                    <path d="M276.163 240.666C278.057 241.763 278.057 243.524 276.163 244.615L268.452 249.062C267.396 249.599 266.229 249.879 265.045 249.879C263.861 249.879 262.693 249.599 261.638 249.062L177.131 200.257C175.243 199.167 175.23 197.399 177.131 196.309L184.842 191.861C185.897 191.324 187.064 191.044 188.248 191.044C189.433 191.044 190.6 191.324 191.655 191.861L276.163 240.666Z" fill="#F0F0F0"/>
                    <path d="M252.452 247.679C254.346 248.769 254.346 250.537 252.452 251.621L244.747 256.068C243.693 256.609 242.525 256.891 241.341 256.891C240.156 256.891 238.988 256.609 237.934 256.068L165.757 214.369C163.876 213.279 163.856 211.518 165.757 210.421L173.461 205.974C174.518 205.439 175.685 205.161 176.868 205.161C178.052 205.161 179.219 205.439 180.275 205.974L252.452 247.679Z" fill="#F0F0F0"/>
                    <path d="M43.7923 244.395C38.6074 241.404 30.2318 241.404 25.0867 244.395C19.9417 247.387 19.9683 252.239 25.1466 255.23C30.3248 258.222 38.7004 258.222 43.8521 255.23C49.0038 252.239 48.9705 247.387 43.7923 244.395Z" fill="#F0F0F0"/>
                    <path d="M69.7568 237.382C85.7635 228.143 111.635 228.143 127.522 237.382C143.409 246.622 143.343 261.599 127.336 270.838C111.329 280.078 85.4577 280.078 69.5706 270.838C53.6836 261.599 53.7567 246.616 69.7568 237.382Z" fill="#F0F0F0"/>
                    <path d="M50.7322 207.729L85.0855 187.88C85.3222 187.748 85.5194 187.555 85.6566 187.321C85.7939 187.088 85.8663 186.821 85.8663 186.55C85.8663 186.279 85.7939 186.013 85.6566 185.779C85.5194 185.546 85.3222 185.353 85.0855 185.221L54.8136 167.639C54.5822 167.505 54.3197 167.435 54.0525 167.435C53.7853 167.435 53.5228 167.505 53.2914 167.639L18.147 187.926C17.9103 188.058 17.7131 188.251 17.5758 188.485C17.4386 188.719 17.3662 188.985 17.3662 189.256C17.3662 189.527 17.4386 189.793 17.5758 190.027C17.7131 190.26 17.9103 190.453 18.147 190.585L47.681 207.749C48.1462 208.015 48.6734 208.153 49.2093 208.15C49.7451 208.146 50.2705 208.001 50.7322 207.729Z" fill="#F0F0F0"/>
                    <path d="M157.747 141.482C149.631 136.828 136.529 136.828 128.466 141.482C120.403 146.135 120.489 153.752 128.566 158.439C136.642 163.125 149.784 163.092 157.814 158.439C165.844 153.786 165.857 146.168 157.747 141.482Z" fill="#F0F0F0"/>
                    <path d="M90.1175 8.81442L87.5117 7.29883L87.6646 85.2586L90.2704 86.7675L90.1175 8.81442Z" fill="#F0F0F0"/>
                    <path d="M90.2703 86.7675L87.6646 85.2585L57.6719 102.468L60.2776 103.984L90.2703 86.7675Z" fill="#F5F5F5"/>
                    <path d="M93.2749 88.4825L57.2929 109.162L57.1201 24.316L93.102 3.64282L93.2749 88.4825ZM60.2776 103.984L90.2703 86.7741L90.1174 8.81443L60.1247 26.031L60.2776 103.984Z" fill="#E0E0E0"/>
                    <path d="M93.1021 3.64279L90.4963 2.1272L54.5144 22.8004L57.1202 24.3159L93.1021 3.64279Z" fill="#F5F5F5"/>
                    <path d="M57.1202 24.3159L54.5144 22.8003L54.6872 107.647L57.293 109.162L57.1202 24.3159Z" fill="#F0F0F0"/>
                    <path d="M90.2637 37.7502L87.6579 36.2346L60.1248 52.0685V55.0864L90.2637 37.7502Z" fill="#F5F5F5"/>
                    <path d="M90.2637 37.7502L60.1248 55.0864V58.5231L90.2703 41.2068L90.2637 37.7502Z" fill="#E0E0E0"/>
                    <path d="M44.2444 35.2043L41.6387 33.6953L41.7916 111.648L44.3907 113.164L44.2444 35.2043Z" fill="#F0F0F0"/>
                    <path d="M44.3906 113.164L41.7915 111.648L11.7988 128.865L14.4046 130.374L44.3906 113.164Z" fill="#F5F5F5"/>
                    <path d="M47.4018 114.879L11.4199 135.552L11.2471 50.7059L47.229 30.0327L47.4018 114.879ZM14.4045 130.374L44.3906 113.164L44.2377 35.2309L14.2517 52.4209L14.4045 130.374Z" fill="#E0E0E0"/>
                    <path d="M47.229 30.0327L44.6233 28.5171L8.64136 49.1902L11.2471 50.7058L47.229 30.0327Z" fill="#F5F5F5"/>
                    <path d="M11.2471 50.7058L8.64136 49.1902L8.81419 134.037L11.4199 135.552L11.2471 50.7058Z" fill="#F0F0F0"/>
                    <path d="M44.3906 64.14L41.7849 62.6311L14.2517 78.465V81.4762L44.3906 64.14Z" fill="#F5F5F5"/>
                    <path d="M44.3906 64.1399L14.2517 81.4761V84.9128L44.3906 67.5965V64.1399Z" fill="#E0E0E0"/>
                    <path d="M77.4546 185.38L80.3927 187.082L80.3794 183.685L77.4546 185.38Z" fill="#E6E6E6"/>
                    <path d="M80.2665 150.728L51.6963 167.22L80.2665 150.728Z" fill="#CFCFCF"/>
                    <path d="M80.3861 183.685V187.082L83.4439 185.32L83.3309 145.403L48.5986 165.458L48.7116 205.342L51.7694 203.574V200.184L77.4679 185.347L80.3861 183.685ZM51.6963 167.22L80.2797 150.728V163.67L51.7295 180.142L51.6963 167.22ZM51.7428 183.712L80.3263 167.213V167.253L80.3595 180.162L51.776 196.654L51.7428 183.712Z" fill="#E6E6E6"/>
                    <path d="M80.3461 180.162L80.3128 167.253V167.213L51.7427 183.712L51.7759 196.654L80.3461 180.162Z" fill="#E0E0E0"/>
                    <path d="M80.2997 163.67L80.2665 150.728L51.6963 167.22L51.7295 180.169L80.2997 163.67Z" fill="#E0E0E0"/>
                    <path d="M48.5985 165.458L18.2668 147.836L18.3799 187.747L48.7116 205.375L48.5985 165.458Z" fill="#E0E0E0"/>
                    <path d="M48.5985 165.458L83.3374 145.403L53.0057 127.775L18.2668 147.836L48.5985 165.458Z" fill="#E0E0E0"/>
                    <path d="M77.4546 185.38L80.3927 187.082L80.3794 183.685L77.4546 185.38Z" fill="#E6E6E6"/>
                    <path d="M80.2665 150.728L51.6963 167.22L80.2665 150.728Z" fill="#CFCFCF"/>
                    <path opacity="0.8" d="M80.3461 180.162L80.3128 167.253V167.213L51.7427 183.712L51.7759 196.654L80.3461 180.162Z" fill="white"/>
                    <path opacity="0.8" d="M80.2997 163.67L80.2665 150.728L51.6963 167.22L51.7295 180.169L80.2997 163.67Z" fill="white"/>
                    <path d="M70.9534 160.918L70.9401 159.13L61.0422 164.847L61.0555 166.628L70.9534 160.918Z" fill="#E0E0E0"/>
                    <path d="M70.9534 177.178L70.9401 175.389L61.0422 181.099L61.0555 182.888L70.9534 177.178Z" fill="#E0E0E0"/>
                    <path d="M48.5985 165.458L18.2668 147.836L18.3799 187.747L48.7116 205.375L48.5985 165.458Z" fill="#EBEBEB"/>
                    <path d="M48.5985 165.458L83.3374 145.403L53.0057 127.775L18.2668 147.836L48.5985 165.458Z" fill="#F0F0F0"/>
                    <path opacity="0.1" d="M151.093 38.6542C150.606 37.7846 149.876 37.0755 148.993 36.6134C145.749 34.7389 140.504 34.7389 137.28 36.6134C136.401 37.0739 135.677 37.7838 135.2 38.6542C134.389 40.2827 135.093 42.1108 137.314 43.3937C140.564 45.2682 145.809 45.2682 149.033 43.3937C151.24 42.1108 151.924 40.2827 151.093 38.6542Z" fill="#525252"/>
                    <path d="M151.432 149.153C151.379 150.336 150.582 151.499 149.033 152.403C145.809 154.271 140.564 154.271 137.314 152.403C135.758 151.499 134.947 150.336 134.881 149.153V151.772C134.881 152.995 135.698 154.224 137.32 155.162C140.571 157.036 145.815 157.036 149.039 155.162C150.648 154.224 151.446 152.995 151.439 151.772V149.153H151.432Z" fill="#E0E0E0"/>
                    <path d="M137.313 152.403C140.564 154.271 145.809 154.271 149.033 152.403C150.581 151.499 151.379 150.336 151.432 149.152C151.453 148.633 151.336 148.117 151.093 147.657C150.606 146.787 149.876 146.078 148.993 145.616C145.749 143.742 140.504 143.742 137.28 145.616C136.401 146.077 135.677 146.787 135.2 147.657C134.963 148.118 134.853 148.634 134.88 149.152C134.94 150.336 135.758 151.499 137.313 152.403Z" fill="#F0F0F0"/>
                    <path d="M136.901 62.7905H136.655V84.627H136.901V62.7905Z" fill="#E0E0E0"/>
                    <path d="M137.387 84.8596C137.388 84.9811 137.353 85.1002 137.286 85.2018C137.22 85.3034 137.124 85.3828 137.012 85.4299C136.9 85.477 136.777 85.4897 136.657 85.4663C136.538 85.4429 136.429 85.3845 136.343 85.2986C136.257 85.2127 136.198 85.1031 136.175 84.9839C136.152 84.8646 136.164 84.7411 136.211 84.6291C136.259 84.5171 136.338 84.4217 136.439 84.355C136.541 84.2883 136.66 84.2534 136.782 84.2547C136.942 84.2564 137.094 84.3207 137.208 84.4338C137.321 84.5468 137.385 84.6997 137.387 84.8596Z" fill="#F0F0F0"/>
                    <path d="M144.639 54.9202H141.667V148.295C141.681 148.425 141.729 148.55 141.806 148.656C141.883 148.762 141.987 148.846 142.106 148.9C142.431 149.067 142.791 149.155 143.156 149.155C143.522 149.155 143.882 149.067 144.207 148.9C144.327 148.848 144.43 148.764 144.506 148.657C144.582 148.551 144.628 148.425 144.639 148.295V54.9202Z" fill="#E0E0E0"/>
                    <path d="M160.253 58.935C158.352 52.2877 151.087 38.6541 151.087 38.6541C151.918 40.2826 151.233 42.1107 149.026 43.3936C145.802 45.2681 140.557 45.2681 137.307 43.3936C135.087 42.1107 134.382 40.2826 135.193 38.6541C135.193 38.6541 127.927 52.3143 126.02 58.935C124.723 62.2587 126.306 65.8416 130.759 68.4141C137.646 72.4025 148.767 72.4025 155.6 68.4141C160.041 65.8416 161.583 62.2387 160.253 58.935Z" fill="#F0F0F0"/>
                    <path d="M151.093 38.6542C150.606 37.7846 149.876 37.0755 148.993 36.6134C145.749 34.7389 140.504 34.7389 137.28 36.6134C136.401 37.0739 135.677 37.7838 135.2 38.6542C134.389 40.2827 135.093 42.1108 137.314 43.3937C140.564 45.2682 145.809 45.2682 149.033 43.3937C151.24 42.1108 151.924 40.2827 151.093 38.6542Z" fill="#E0E0E0"/>
                    <path opacity="0.05" d="M44.5368 140.338C48.3923 138.111 54.6275 138.111 58.4563 140.338C62.2852 142.565 62.2719 146.174 58.4164 148.401C54.561 150.628 48.3258 150.628 44.4571 148.401C40.5883 146.174 40.7013 142.565 44.5368 140.338Z" fill="#525252"/>
                    <path d="M41.2131 126.299L51.7956 126.605L62.3848 126.299C62.8368 133.445 61.4409 140.73 59.5198 144.287C59.0634 145.199 58.3306 145.943 57.4259 146.414C54.3017 148.215 49.2564 148.215 46.1255 146.414C45.2139 145.94 44.4847 145.178 44.0515 144.247C42.1437 140.677 40.7611 133.438 41.2131 126.299Z" fill="white"/>
                    <path d="M44.3441 121.992C40.1962 124.385 40.1763 128.267 44.2909 130.633C48.4056 133 55.1128 133.026 59.2607 130.633C63.4086 128.24 63.4286 124.358 59.3072 121.992C55.1859 119.625 48.4854 119.599 44.3441 121.992Z" fill="#EBEBEB"/>
                    <path d="M45.9793 122.975C42.7487 124.843 42.7287 127.868 45.9793 129.736C49.2298 131.604 54.4147 131.604 57.6519 129.736C60.8892 127.868 60.9025 124.843 57.6918 122.975C54.4812 121.108 49.1899 121.074 45.9793 122.975Z" fill="#E0E0E0"/>
                    <g opacity="0.15">
                    <path d="M45.9793 122.975C42.7487 124.843 42.7287 127.868 45.9793 129.736C49.2298 131.604 54.4147 131.604 57.6519 129.736C60.8892 127.868 60.9025 124.843 57.6918 122.975C54.4812 121.108 49.1899 121.074 45.9793 122.975Z" fill="#525252"/>
                    </g>
                    <path d="M52.6864 126.625C51.8377 127.336 50.832 127.834 49.7523 128.079C48.6727 128.324 47.5503 128.309 46.4778 128.034C45.4442 127.721 44.5049 127.155 43.7448 126.388C42.9846 125.621 42.4275 124.676 42.1238 123.64C43.3776 123.047 44.5252 122.252 45.5206 121.287C43.9348 120.89 42.2693 120.948 40.7146 121.453C40.2817 120.777 40.0218 120.005 39.9581 119.205C39.8943 118.406 40.0286 117.602 40.349 116.866C42.1556 116.065 44.1868 115.926 46.0856 116.474C45.2974 115.787 44.3759 115.269 43.3786 114.953C42.3812 114.637 41.3296 114.531 40.2892 114.64C40.1392 111.607 40.612 108.575 41.6785 105.732C45.627 105.938 49.4492 107.633 50.7388 108.863C50.7998 110.273 50.6543 111.684 50.3067 113.051C50.8149 112.791 51.249 112.406 51.5686 111.933C51.8883 111.46 52.083 110.914 52.1347 110.345C54.6075 110.964 55.6644 112.2 56.05 113.137C55.6926 114.891 54.8864 116.522 53.7101 117.87C56.03 117.172 56.9673 114.586 56.9673 114.586C59.2473 119.977 58.8152 126.1 52.6864 126.625Z" fill="#2A8EF1"/>
                    <path opacity="0.2" d="M52.6864 126.625C51.8377 127.336 50.832 127.834 49.7523 128.079C48.6727 128.324 47.5503 128.309 46.4778 128.034C45.4442 127.721 44.5049 127.155 43.7448 126.388C42.9846 125.621 42.4275 124.676 42.1238 123.64C43.3776 123.047 44.5252 122.252 45.5206 121.287C43.9348 120.89 42.2693 120.948 40.7146 121.453C40.2817 120.777 40.0218 120.005 39.9581 119.205C39.8943 118.406 40.0286 117.602 40.349 116.866C42.1556 116.065 44.1868 115.926 46.0856 116.474C45.2974 115.787 44.3759 115.269 43.3786 114.953C42.3812 114.637 41.3296 114.531 40.2892 114.64C40.1392 111.607 40.612 108.575 41.6785 105.732C45.627 105.938 49.4492 107.633 50.7388 108.863C50.7998 110.273 50.6543 111.684 50.3067 113.051C50.8149 112.791 51.249 112.406 51.5686 111.933C51.8883 111.46 52.083 110.914 52.1347 110.345C54.6075 110.964 55.6644 112.2 56.05 113.137C55.6926 114.891 54.8864 116.522 53.7101 117.87C56.03 117.172 56.9673 114.586 56.9673 114.586C59.2473 119.977 58.8152 126.1 52.6864 126.625Z" fill="#525252"/>
                    <path opacity="0.3" d="M52.6864 126.625C51.8377 127.336 50.832 127.834 49.7523 128.079C48.6727 128.324 47.5503 128.309 46.4778 128.034C45.4442 127.721 44.5049 127.155 43.7448 126.388C42.9846 125.621 42.4275 124.676 42.1238 123.64C43.3776 123.047 44.5252 122.252 45.5206 121.287C43.9348 120.89 42.2693 120.948 40.7146 121.453C40.2817 120.777 40.0218 120.005 39.9581 119.205C39.8943 118.406 40.0286 117.602 40.349 116.866C42.1556 116.065 44.1868 115.926 46.0856 116.474C45.2974 115.787 44.3759 115.269 43.3786 114.953C42.3812 114.637 41.3296 114.531 40.2892 114.64C40.1392 111.607 40.612 108.575 41.6785 105.732C45.627 105.938 49.4492 107.633 50.7388 108.863C50.7998 110.273 50.6543 111.684 50.3067 113.051C50.8149 112.791 51.249 112.406 51.5686 111.933C51.8883 111.46 52.083 110.914 52.1347 110.345C54.6075 110.964 55.6644 112.2 56.05 113.137C55.6926 114.891 54.8864 116.522 53.7101 117.87C56.03 117.172 56.9673 114.586 56.9673 114.586C59.2473 119.977 58.8152 126.1 52.6864 126.625Z" fill="white"/>
                    <path d="M52.8194 127.21C52.88 127.205 52.9361 127.176 52.9759 127.13C53.0156 127.084 53.0358 127.024 53.0321 126.964C52.6532 121.978 49.8015 113.756 43.008 106.969C42.9632 106.935 42.9078 106.919 42.8519 106.923C42.796 106.927 42.7435 106.951 42.7039 106.99C42.6643 107.03 42.6403 107.082 42.6363 107.138C42.6324 107.194 42.6487 107.25 42.6823 107.294C49.3894 113.988 52.2012 122.091 52.5735 126.997C52.5786 127.058 52.6072 127.114 52.6531 127.153C52.6991 127.193 52.7588 127.213 52.8194 127.21Z" fill="#F5F5F5"/>
                    <path d="M50.958 129.29C51.7492 129.935 52.6816 130.385 53.6793 130.601C54.677 130.818 55.7118 130.795 56.6992 130.536C57.6867 130.277 58.599 129.788 59.3617 129.11C60.1245 128.431 60.7161 127.582 61.0885 126.631C59.9552 126.116 58.9187 125.41 58.0241 124.544C59.5248 124.185 61.0937 124.231 62.5709 124.677C63.0231 124.11 63.3217 123.436 63.4381 122.72C63.5546 122.004 63.4848 121.27 63.2356 120.589C61.5183 119.881 59.6133 119.768 57.8247 120.27C59.4175 119.021 61.4255 118.425 63.4417 118.601C63.7866 115.919 63.5277 113.194 62.6839 110.625C58.9215 110.851 55.199 112.413 53.9094 113.509C53.7628 114.752 53.8122 116.011 54.0557 117.239C53.6009 117.02 53.2152 116.681 52.9408 116.257C52.6664 115.834 52.5139 115.343 52.5002 114.839C50.147 115.411 49.0835 116.514 48.6647 117.352C48.8706 118.896 49.5141 120.349 50.5193 121.539C48.3921 120.934 47.6676 118.654 47.6676 118.654C45.2014 123.441 45.2679 128.832 50.958 129.29Z" fill="#2A8EF1"/>
                    <path opacity="0.3" d="M50.958 129.29C51.7492 129.935 52.6816 130.385 53.6793 130.601C54.677 130.818 55.7118 130.795 56.6992 130.536C57.6867 130.277 58.599 129.788 59.3617 129.11C60.1245 128.431 60.7161 127.582 61.0885 126.631C59.9552 126.116 58.9187 125.41 58.0241 124.544C59.5248 124.185 61.0937 124.231 62.5709 124.677C63.0231 124.11 63.3217 123.436 63.4381 122.72C63.5546 122.004 63.4848 121.27 63.2356 120.589C61.5183 119.881 59.6133 119.768 57.8247 120.27C59.4175 119.021 61.4255 118.425 63.4417 118.601C63.7866 115.919 63.5277 113.194 62.6839 110.625C58.9215 110.851 55.199 112.413 53.9094 113.509C53.7628 114.752 53.8122 116.011 54.0557 117.239C53.6009 117.02 53.2152 116.681 52.9408 116.257C52.6664 115.834 52.5139 115.343 52.5002 114.839C50.147 115.411 49.0835 116.514 48.6647 117.352C48.8706 118.896 49.5141 120.349 50.5193 121.539C48.3921 120.934 47.6676 118.654 47.6676 118.654C45.2014 123.441 45.2679 128.832 50.958 129.29Z" fill="white"/>
                    <path d="M50.8052 129.835C50.8604 129.834 50.9135 129.814 50.9549 129.777C50.9963 129.741 51.0233 129.691 51.0312 129.636C51.6959 125.302 54.8335 118.096 61.5871 112.08C61.6321 112.04 61.6591 111.983 61.6622 111.923C61.6653 111.862 61.6443 111.803 61.6038 111.758C61.5632 111.713 61.5065 111.686 61.446 111.683C61.3855 111.68 61.3263 111.701 61.2814 111.741C54.4346 117.837 51.2373 125.156 50.5792 129.569C50.5745 129.599 50.5758 129.63 50.583 129.659C50.5902 129.688 50.6031 129.715 50.6211 129.74C50.639 129.764 50.6616 129.784 50.6875 129.799C50.7134 129.815 50.7421 129.825 50.772 129.829L50.8052 129.835Z" fill="white"/>
                    <path d="M47.0163 227.179L34.4662 227.544L21.936 227.179C21.3975 235.654 23.0527 244.289 25.3327 248.503C25.8722 249.588 26.7429 250.473 27.8188 251.029C31.5214 253.17 37.4973 253.17 41.1799 251.029C42.2718 250.465 43.1443 249.553 43.6594 248.437C45.9195 244.196 47.5547 235.614 47.0163 227.179Z" fill="white"/>
                    <path d="M43.3137 222.02C48.2261 224.859 48.2526 229.459 43.3669 232.297C38.4811 235.135 30.5442 235.135 25.6252 232.297C20.7062 229.459 20.6862 224.879 25.5654 222.02C30.4445 219.162 38.3947 219.202 43.3137 222.02Z" fill="#EBEBEB"/>
                    <path d="M41.3662 223.17C45.2017 225.384 45.2217 228.973 41.4128 231.187C37.6039 233.4 31.4418 233.4 27.5731 231.187C23.7043 228.973 23.7176 225.384 27.5265 223.17C31.3354 220.957 37.5307 220.957 41.3662 223.17Z" fill="#E0E0E0"/>
                    <g opacity="0.15">
                    <path d="M41.3662 223.17C45.2017 225.384 45.2217 228.973 41.4128 231.187C37.6039 233.4 31.4418 233.4 27.5731 231.187C23.7043 228.973 23.7176 225.384 27.5265 223.17C31.3354 220.957 37.5307 220.957 41.3662 223.17Z" fill="#525252"/>
                    </g>
                    <path d="M55.0994 173.641C26.8217 182.901 26.589 201.812 32.9439 215.287C34.5459 218.012 39.4117 219.474 43.646 202.723L36.221 203.674L44.8625 199.286L47.1093 192.573L39.8837 193.104L49.0437 189.256C50.7361 183.93 52.7586 178.715 55.0994 173.641Z" fill="#2A8EF1"/>
                    <path opacity="0.2" d="M55.0994 173.641C26.8217 182.901 26.589 201.812 32.9439 215.287C34.5459 218.012 39.4117 219.474 43.646 202.723L36.221 203.674L44.8625 199.286L47.1093 192.573L39.8837 193.104L49.0437 189.256C50.7361 183.93 52.7586 178.715 55.0994 173.641Z" fill="#525252"/>
                    <path opacity="0.2" d="M55.0994 173.641C26.8217 182.901 26.589 201.812 32.9439 215.287C34.5459 218.012 39.4117 219.474 43.646 202.723L36.221 203.674L44.8625 199.286L47.1093 192.573L39.8837 193.104L49.0437 189.256C50.7361 183.93 52.7586 178.715 55.0994 173.641Z" fill="white"/>
                    <path d="M47.1028 178.374C32.1928 189.674 30.8434 202.663 35.0578 216.211C33.5688 204.279 31.9535 192.22 47.1028 178.374Z" fill="white"/>
                    <path d="M7.20557 192.858C35.0778 196.78 38.448 214.356 34.7587 227.956C33.7151 230.761 29.4408 232.935 22.7005 218.038L29.7799 217.693L20.9855 215.034L17.7814 209.151L24.5883 208.486L15.415 206.419C12.965 201.731 10.2231 197.202 7.20557 192.858Z" fill="#2A8EF1"/>
                    <path opacity="0.2" d="M7.20557 192.858C35.0778 196.78 38.448 214.356 34.7587 227.956C33.7151 230.761 29.4408 232.935 22.7005 218.038L29.7799 217.693L20.9855 215.034L17.7814 209.151L24.5883 208.486L15.415 206.419C12.965 201.731 10.2231 197.202 7.20557 192.858Z" fill="white"/>
                    <path d="M15.4417 195.936C31.2091 203.993 34.6192 215.878 32.944 229.173C32.3524 217.813 31.8472 206.313 15.4417 195.936Z" fill="white"/>
                    <path opacity="0.1" d="M7.20557 192.858C35.0778 196.78 38.448 214.356 34.7587 227.956C33.7151 230.761 29.4408 232.935 22.7005 218.038L29.7799 217.693L20.9855 215.034L17.7814 209.151L24.5883 208.486L15.415 206.419C12.965 201.731 10.2231 197.202 7.20557 192.858Z" fill="#525252"/>
                    <path d="M63.2558 199.419C37.6969 199.838 32.6782 215.3 34.4929 228.003C35.1177 230.662 38.7405 233.088 46.4581 220.412L40.1165 219.308L48.3393 217.906L51.8889 212.96L45.8665 211.557L54.3418 210.72C57.0755 206.772 60.0526 202.997 63.2558 199.419Z" fill="#2A8EF1"/>
                    <path d="M55.4918 201.294C40.3758 206.798 35.9752 217.101 35.9952 229.292C37.7966 219.122 39.5382 208.812 55.4918 201.294Z" fill="white"/>
                    <path opacity="0.2" d="M63.2558 199.419C37.6969 199.838 32.6782 215.3 34.4929 228.003C35.1177 230.662 38.7405 233.088 46.4581 220.412L40.1165 219.308L48.3393 217.906L51.8889 212.96L45.8665 211.557L54.3418 210.72C57.0755 206.772 60.0526 202.997 63.2558 199.419Z" fill="white"/>
                    <path d="M277.459 49.815C276.774 48.4188 275.686 47.2607 274.335 46.4913L193.071 0.23263C192.694 0.0928847 192.297 0.014342 191.895 -2.62797e-05C187.713 -0.0797941 183.512 3.85542 182.921 5.92273C182.784 6.18581 182.711 6.47724 182.708 6.77359V182.482C182.709 183.854 183.073 185.202 183.763 186.388C184.453 187.574 185.444 188.557 186.637 189.236L267.887 235.548C267.988 235.597 268.092 235.639 268.199 235.674C268.199 235.674 268.199 235.674 268.232 235.674C273.078 237.735 278.243 233.46 278.243 228.98V53.2184C278.245 52.0389 277.977 50.8747 277.459 49.815Z" fill="#37474F"/>
                    <path d="M182.927 5.9293C183.519 3.86198 187.72 -0.0532887 191.901 0.00653717C192.303 0.0209054 192.7 0.0994481 193.078 0.239193L274.335 46.4646C275.52 47.1519 276.505 48.1363 277.194 49.3206C277.883 50.5049 278.252 51.8483 278.263 53.2183V229C278.263 233.48 273.098 237.754 268.252 235.694C268.252 235.694 268.252 235.694 268.219 235.694C268.112 235.659 268.008 235.617 267.907 235.567L186.643 189.236C185.451 188.557 184.459 187.574 183.769 186.388C183.079 185.202 182.715 183.854 182.715 182.482V6.78015C182.718 6.4838 182.791 6.19237 182.927 5.9293Z" fill="#455A64"/>
                    <path d="M266.929 71.7909C266.927 71.1007 266.741 70.4235 266.391 69.8289C266.04 69.2343 265.538 68.7436 264.935 68.4074L189.508 25.4923C189.213 25.3233 188.878 25.2349 188.538 25.2361C188.197 25.2373 187.863 25.3279 187.569 25.499C187.275 25.67 187.03 25.9154 186.861 26.2106C186.692 26.5058 186.603 26.8404 186.603 27.1807V168.928C186.607 169.617 186.794 170.293 187.144 170.886C187.495 171.479 187.996 171.969 188.597 172.305L264.051 215.3C264.347 215.469 264.681 215.557 265.022 215.556C265.362 215.555 265.696 215.464 265.99 215.293C266.285 215.122 266.529 214.877 266.698 214.581C266.868 214.286 266.957 213.952 266.956 213.611L266.929 71.7909Z" fill="#2A8EF1"/>
                    <path opacity="0.2" d="M266.929 71.7909C266.927 71.1007 266.741 70.4235 266.391 69.8289C266.04 69.2343 265.538 68.7436 264.935 68.4074L189.508 25.4923C189.213 25.3233 188.878 25.2349 188.538 25.2361C188.197 25.2373 187.863 25.3279 187.569 25.499C187.275 25.67 187.03 25.9154 186.861 26.2106C186.692 26.5058 186.603 26.8404 186.603 27.1807V168.928C186.607 169.617 186.794 170.293 187.144 170.886C187.495 171.479 187.996 171.969 188.597 172.305L264.051 215.3C264.347 215.469 264.681 215.557 265.022 215.556C265.362 215.555 265.696 215.464 265.99 215.293C266.285 215.122 266.529 214.877 266.698 214.581C266.868 214.286 266.957 213.952 266.956 213.611L266.929 71.7909Z" fill="#525252"/>
                    <path opacity="0.3" d="M278.263 53.2185V229C278.263 233.48 273.098 237.755 268.252 235.694C268.252 235.694 268.252 235.694 268.219 235.694C268.511 235.801 268.825 235.836 269.133 235.796C269.442 235.755 269.736 235.641 269.991 235.463C270.246 235.285 270.455 235.048 270.599 234.773C270.742 234.497 270.818 234.19 270.818 233.879V58.0777C270.808 56.5486 270.345 55.0569 269.489 53.7901L277.465 49.8018C277.99 50.8644 278.263 52.0335 278.263 53.2185Z" fill="#525252"/>
                    <path opacity="0.1" d="M191.895 -2.62862e-05C192.297 0.014342 192.694 0.0928847 193.071 0.23263L274.335 46.4647C275.686 47.2341 276.775 48.3922 277.459 49.7884L269.482 53.7768C268.816 52.7596 267.919 51.9145 266.863 51.3106L185.62 5.09182C185.39 4.96074 185.136 4.87832 184.873 4.84969C184.61 4.82106 184.344 4.84682 184.092 4.92538C183.839 5.00394 183.605 5.13362 183.405 5.30634C183.205 5.47906 183.042 5.69114 182.927 5.92938C183.512 3.85542 187.714 -0.0797941 191.895 -2.62862e-05Z" fill="white"/>
                    <path d="M216.749 34.1139C216.177 33.7882 215.705 34.0408 215.705 34.6988C215.726 35.0591 215.831 35.4095 216.011 35.7222C216.191 36.0349 216.441 36.3013 216.742 36.5003L232.696 45.7002C233.268 46.0325 233.726 45.7533 233.726 45.1019C233.708 44.7452 233.606 44.3978 233.428 44.0881C233.251 43.7784 233.002 43.5154 232.703 43.3204L216.749 34.1139Z" fill="#263238"/>
                    <path d="M236.791 45.6869C236.219 45.3545 235.76 45.6204 235.754 46.2718C235.773 46.6308 235.876 46.9803 236.055 47.2921C236.234 47.6038 236.484 47.8691 236.784 48.0666C237.356 48.3923 237.828 48.1264 237.828 47.4684C237.807 47.1107 237.703 46.7629 237.523 46.4533C237.342 46.1437 237.092 45.8811 236.791 45.6869Z" fill="#263238"/>
                    <path d="M226.587 32.7779C225.443 32.1132 224.526 32.6449 224.52 33.9545C224.555 34.6697 224.759 35.3664 225.115 35.9878C225.471 36.6093 225.968 37.138 226.567 37.5307C227.71 38.1954 228.654 37.6504 228.661 36.3408C228.619 35.6259 228.409 34.9309 228.049 34.312C227.688 33.6931 227.188 33.1676 226.587 32.7779Z" fill="#263238"/>
                    <path d="M226.58 198.256C224.254 196.927 222.379 197.984 222.373 200.656C222.445 202.117 222.86 203.541 223.586 204.811C224.311 206.082 225.326 207.163 226.547 207.968C228.874 209.297 230.795 208.214 230.808 205.542C230.726 204.08 230.3 202.659 229.566 201.393C228.831 200.127 227.808 199.053 226.58 198.256Z" fill="#263238"/>
                    <path d="M254.167 76.6436C254.079 76.3953 253.975 76.1532 253.854 75.9191C253.397 74.9699 252.731 74.136 251.907 73.4795C251.63 73.2552 251.334 73.0551 251.023 72.8812L177.237 30.9101C177.117 30.8546 176.989 30.8144 176.858 30.7904C176.639 30.7444 176.417 30.7155 176.194 30.704C173.821 30.6575 171.441 32.0335 169.859 33.5358C169.055 34.2238 168.432 35.0978 168.044 36.0817C167.984 36.1956 167.937 36.316 167.905 36.4407C167.872 36.5734 167.857 36.7096 167.858 36.8461V196.342C167.868 197.589 168.207 198.811 168.842 199.885C168.996 200.15 169.167 200.406 169.354 200.649C169.927 201.388 170.641 202.007 171.454 202.471L245.239 244.508C245.328 244.556 245.422 244.593 245.519 244.621H245.552C249.946 246.489 254.639 242.627 254.639 238.546V79.0101C254.621 78.1997 254.461 77.3988 254.167 76.6436Z" fill="#2A8EF1"/>
                    <path d="M168.051 36.0883C168.589 34.2071 172.405 30.6375 176.2 30.7106C176.564 30.7206 176.923 30.7902 177.264 30.9166L251.049 72.8878C252.124 73.5133 253.017 74.4069 253.643 75.4811C254.269 76.5554 254.605 77.7735 254.619 79.0166V238.552C254.619 242.614 249.926 246.496 245.532 244.628H245.499C245.402 244.6 245.308 244.562 245.22 244.515L171.434 202.477C170.352 201.862 169.452 200.97 168.826 199.894C168.2 198.817 167.871 197.594 167.871 196.348V36.8527C167.871 36.5874 167.932 36.3257 168.051 36.0883Z" fill="#2A8EF1"/>
                    <path opacity="0.2" d="M254.592 79.0101V238.546C254.592 242.607 249.899 246.489 245.505 244.621H245.472C245.737 244.717 246.021 244.748 246.3 244.711C246.58 244.674 246.846 244.571 247.077 244.409C247.308 244.247 247.496 244.032 247.627 243.782C247.757 243.532 247.825 243.255 247.825 242.973V83.4372C247.822 82.0477 247.408 80.6901 246.635 79.5352L253.854 75.9324C254.332 76.8886 254.584 77.9413 254.592 79.0101Z" fill="white"/>
                    <path opacity="0.4" d="M176.194 30.704C176.557 30.714 176.917 30.7837 177.257 30.9101L251.043 72.8812C252.273 73.5827 253.261 74.6423 253.874 75.919L246.615 79.5219C246.013 78.5999 245.199 77.8344 244.242 77.2884L170.457 35.3239C170.248 35.2044 170.017 35.1293 169.778 35.1032C169.539 35.0772 169.297 35.1008 169.067 35.1725C168.838 35.2443 168.625 35.3627 168.444 35.5202C168.262 35.6778 168.115 35.8712 168.011 36.0883C168.583 34.2005 172.398 30.6309 176.194 30.704Z" fill="white"/>
                    <path opacity="0.3" d="M168.051 36.0883C168.589 34.2071 172.405 30.6375 176.2 30.7106C176.564 30.7206 176.923 30.7902 177.264 30.9166L251.049 72.8878C252.124 73.5133 253.017 74.4069 253.643 75.4811C254.269 76.5554 254.605 77.7735 254.619 79.0166V238.552C254.619 242.614 249.926 246.496 245.532 244.628H245.499C245.402 244.6 245.308 244.562 245.22 244.515L171.434 202.477C170.352 201.862 169.452 200.97 168.826 199.894C168.2 198.817 167.871 197.594 167.871 196.348V36.8527C167.871 36.5874 167.932 36.3257 168.051 36.0883Z" fill="white"/>
                    <path d="M240.254 112.34L174.519 74.3836C173.854 74.0246 173.375 74.3171 173.375 75.0483L173.276 149.153C173.293 149.552 173.404 149.941 173.602 150.287C173.8 150.634 174.078 150.929 174.412 151.147L240.154 189.103C240.819 189.469 241.298 189.176 241.298 188.438L241.397 114.334C241.378 113.935 241.264 113.546 241.066 113.199C240.867 112.853 240.589 112.558 240.254 112.34Z" fill="#2A8EF1"/>
                    <path d="M177.53 49.7619L178.314 50.2139L178.321 46.857L177.536 46.405L177.53 49.7619Z" fill="white"/>
                    <path d="M176.187 48.9841L176.965 49.4361L176.971 46.724L176.194 46.272L176.187 48.9841Z" fill="white"/>
                    <path d="M174.838 48.2131L175.622 48.6651L175.629 46.6443L174.844 46.199L174.838 48.2131Z" fill="white"/>
                    <path d="M173.495 47.4354L174.279 47.8874V46.5314L173.502 46.0793L173.495 47.4354Z" fill="white"/>
                    <path d="M180.435 51.4437L185.221 54.2023L185.228 51.3839L180.441 48.6252L180.435 51.4437Z" fill="white"/>
                    <path d="M187.601 55.5782L189.987 56.9609L190 54.1358L187.607 52.7598L187.601 55.5782Z" fill="white"/>
                    <path d="M236.963 83.7231L236.97 81.4497L239.536 82.9321L236.97 81.4497L236.963 83.7231Z" fill="white"/>
                    <path d="M236.963 83.7231L239.529 85.2054L239.536 82.9321L236.97 81.4497L236.963 83.7231Z" fill="#2A8EF1"/>
                    <path d="M241.344 84.3213V83.4306L236.498 80.6321V83.9956L241.344 86.7941V85.9034L241.969 86.2624V84.6803L241.344 84.3213ZM239.529 85.2054L236.963 83.7563V81.4829L239.529 82.9653V85.2054Z" fill="white"/>
                    <path d="M229.552 79.7413L234.331 82.4999L234.338 79.6881L229.558 76.9229L229.552 79.7413Z" fill="white"/>
                    <path d="M206.725 66.4L211.504 69.1586L211.511 66.3402L206.732 63.5815L206.725 66.4Z" fill="white"/>
                    <path d="M195.537 186.225L195.531 189.03L207.788 196.109L207.795 193.304L195.537 186.225Z" fill="#2A8EF1"/>
                    <path d="M213.419 187.355L200.795 180.069L200.789 182.874L213.412 190.16L213.419 187.355Z" fill="#2A8EF1"/>
                    <path d="M174.426 172.033L189.914 181.04L189.927 178.235L174.432 169.228L174.426 172.033Z" fill="#2A8EF1"/>
                    <path d="M197.405 178.108L174.445 164.787L174.439 167.599L197.399 180.914L197.405 178.108Z" fill="#2A8EF1"/>
                    <path d="M193.304 182.994L221.263 199.14L221.269 196.329L193.311 180.189L193.304 182.994Z" fill="#2A8EF1"/>
                    <path d="M192.559 184.503L174.445 174.047L174.439 176.852L192.553 187.308L192.559 184.503Z" fill="#2A8EF1"/>
                    <path d="M216.663 192.041L239.011 204.943L239.018 202.138L216.669 189.236L216.663 192.041Z" fill="#2A8EF1"/>
                    <path d="M224.52 201.022L238.998 209.377L239.011 206.572L224.526 198.21L224.52 201.022Z" fill="#2A8EF1"/>
                    <path d="M174.439 186.504L202.397 202.644L202.404 199.838L174.445 183.699L174.439 186.504Z" fill="#2A8EF1"/>
                    <path d="M174.445 190.333L174.439 193.138L192.559 203.594V200.782L174.445 190.333Z" fill="#2A8EF1"/>
                    <path d="M206.539 208.859L195.498 202.484V205.296L206.532 211.664L206.539 208.859Z" fill="#2A8EF1"/>
                    <path d="M176.107 155.933C175.938 155.811 175.739 155.737 175.532 155.716C175.324 155.695 175.115 155.728 174.924 155.813C174.259 156.185 174.259 157.408 174.924 158.539L175.31 159.203L177.669 163.298L180.056 161.969L180.435 161.743C181.099 161.37 181.099 160.147 180.435 159.017C180.156 158.506 179.748 158.078 179.251 157.774C179.083 157.65 178.885 157.574 178.677 157.551C178.469 157.529 178.259 157.562 178.068 157.648L177.683 157.867L177.297 157.202C177.019 156.682 176.608 156.245 176.107 155.933Z" fill="white"/>
                    <path d="M185.979 161.763C186.827 162.316 187.534 163.062 188.039 163.94C188.545 164.818 188.837 165.803 188.89 166.815C188.912 167.326 188.775 167.833 188.498 168.264L188.883 170.178L187.421 168.882C186.905 168.901 186.396 168.764 185.959 168.49C185.109 167.937 184.402 167.191 183.896 166.313C183.39 165.435 183.099 164.45 183.047 163.438C183.047 161.583 184.363 160.865 185.979 161.763Z" fill="white"/>
                    <path d="M211.012 102.136L214.416 108.351L219.355 110.066L221.442 116.534L226.434 120.091L227.006 126.173L231.566 131.225L230.569 136.323L234.251 142.379L231.779 146.002L234.225 152.456L230.516 154.244L231.486 160.48L226.913 160.26L226.301 165.658L221.309 163.458L219.189 167.493L214.263 163.511L210.833 165.784L206.459 160.426L202.065 160.719L198.662 154.504L193.729 152.789L191.642 146.327L186.65 142.765L186.078 136.689L181.512 131.63L182.515 126.532L178.833 120.476L181.306 116.86L178.859 110.399L182.562 108.604L181.598 102.375L186.171 102.595L186.776 97.1972L191.775 99.4041L193.889 95.3691L198.821 99.3442L202.245 97.0709L206.625 102.429L211.012 102.136Z" fill="#2A8EF1"/>
                    <g opacity="0.4">
                    <path d="M211.012 102.136L214.416 108.351L219.355 110.066L221.442 116.534L226.434 120.091L227.006 126.173L231.566 131.225L230.569 136.323L234.251 142.379L231.779 146.002L234.225 152.456L230.516 154.244L231.486 160.48L226.913 160.26L226.301 165.658L221.309 163.458L219.189 167.493L214.263 163.511L210.833 165.784L206.459 160.426L202.065 160.719L198.662 154.504L193.729 152.789L191.642 146.327L186.65 142.765L186.078 136.689L181.512 131.63L182.515 126.532L178.833 120.476L181.306 116.86L178.859 110.399L182.562 108.604L181.598 102.375L186.171 102.595L186.776 97.1972L191.775 99.4041L193.889 95.3691L198.821 99.3442L202.245 97.0709L206.625 102.429L211.012 102.136Z" fill="white"/>
                    </g>
                    <path d="M206.612 107.168C218.271 113.895 227.691 130.214 227.651 143.615C227.611 157.016 218.132 162.421 206.472 155.687C194.813 148.953 185.387 132.634 185.46 119.24C185.533 105.845 194.946 100.434 206.612 107.168Z" fill="#2A8EF1"/>
                    <g opacity="0.2">
                    <path d="M206.612 107.168C218.271 113.895 227.691 130.214 227.651 143.615C227.611 157.016 218.132 162.421 206.472 155.687C194.813 148.953 185.387 132.634 185.46 119.24C185.533 105.845 194.946 100.434 206.612 107.168Z" fill="white"/>
                    </g>
                    <path d="M220.97 128.207C221.482 128.506 221.788 129.47 221.329 129.629C217.128 131.165 208.24 134.821 202.823 140.086C202.632 140.232 202.399 140.312 202.158 140.312C201.918 140.312 201.684 140.232 201.493 140.086C200.918 139.732 200.456 139.219 200.164 138.61C197.675 133.597 194.887 128.738 191.815 124.059C191.256 123.215 191.609 122.404 192.28 122.789L192.426 122.896C195.778 125.712 198.712 128.991 201.141 132.634C209.364 127.356 216.822 127.496 220.751 128.127C220.828 128.142 220.902 128.169 220.97 128.207Z" fill="white"/>
                    <path d="M178.886 63.8674C180.123 64.6712 181.153 65.7563 181.891 67.034C182.63 68.3117 183.055 69.7458 183.134 71.2193C183.134 73.9181 181.213 75.0083 178.859 73.6522C177.628 72.8516 176.603 71.7725 175.866 70.5023C175.13 69.232 174.702 67.8063 174.618 66.3402C174.625 63.6015 176.539 62.4848 178.886 63.8674Z" fill="white"/>
                    <path d="M209.975 84.9728L187.015 71.6516L187.009 74.4568L209.962 87.778L209.975 84.9728Z" fill="white"/>
                    <path d="M107.527 89.7388H108.192C112.513 89.7853 117.977 92.7234 120.649 100.261L130.999 120.316L119.16 125.568L112.679 106.603L107.527 89.7388Z" fill="#FFA8A7"/>
                    <path d="M115.849 103.033C116.674 105.406 116.727 107.966 116.853 110.478C116.98 112.991 117.279 116.016 118.429 118.249C119.694 117.373 121.21 116.93 122.748 116.987C124.286 117.043 125.765 117.595 126.964 118.561C127.822 119.285 128.483 120.213 128.885 121.26L119.16 125.574L112.679 106.61L109.495 96.1467C110.957 96.8165 112.272 97.7702 113.363 98.9524C114.454 100.135 115.299 101.522 115.849 103.033Z" fill="#F28F8F"/>
                    <path d="M119.047 121.958C119.496 120.839 120.224 119.854 121.162 119.097C122.1 118.339 123.216 117.835 124.405 117.631C126.778 117.245 129.47 118.482 130.999 120.336C132.328 121.898 132.089 124.006 131.278 125.86C130.6 127.306 129.441 128.471 128 129.157C126.559 129.843 124.924 130.008 123.374 129.623C120.317 128.752 117.897 124.923 119.047 121.958Z" fill="#FFA8A7"/>
                    <path d="M81.3366 251.494C81.0756 252.027 80.6664 252.473 80.1582 252.778C79.6499 253.083 79.0642 253.236 78.4716 253.216C77.9445 253.117 77.453 252.88 77.0468 252.53C76.6406 252.18 76.3341 251.729 76.1583 251.222C75.8043 250.217 75.6442 249.155 75.6863 248.091C75.611 244.546 75.6952 241.014 75.9389 237.495C78.3712 238.011 80.851 238.27 83.3374 238.266L82.2007 248.051C82.1426 249.245 81.8489 250.415 81.3366 251.494Z" fill="#FFA8A7"/>
                    <path d="M73.619 246.409C74.5364 243.464 75.5335 240.427 75.3274 237.375C75.5268 237.435 75.7329 237.475 75.9389 237.522C75.6996 241.067 75.6154 244.599 75.6863 248.118C75.6441 249.182 75.8043 250.244 76.1583 251.248C76.3341 251.755 76.6406 252.206 77.0468 252.557C77.453 252.907 77.9445 253.143 78.4716 253.243C79.0642 253.262 79.6499 253.11 80.1581 252.805C80.6664 252.499 81.0756 252.053 81.3366 251.521C81.8455 250.45 82.1391 249.289 82.2007 248.104L83.3374 238.319H84.1151C83.4504 241.982 83.929 245.738 84.1617 249.447C84.3943 253.156 84.3544 257.032 82.7591 260.388C82.3905 261.297 81.7614 262.077 80.951 262.629C80.5046 262.869 80.0139 263.017 79.5087 263.061C79.0035 263.106 78.4945 263.047 78.0129 262.888C77.0486 262.57 76.1737 262.028 75.4603 261.306C73.8303 259.752 72.744 257.715 72.3627 255.496C71.8508 252.445 72.7017 249.354 73.619 246.409Z" fill="#455A64"/>
                    <path d="M112.167 243.591L111.562 247.233C108.67 245.857 107.74 244.309 107.74 244.309C107.667 241.51 107.693 238.632 107.74 237.229C108.511 238.931 110.193 240.081 111.236 241.65C111.625 242.256 111.938 242.908 112.167 243.591Z" fill="#455A64"/>
                    <path d="M113.098 246.841L111.562 247.234L112.167 243.591C112.546 244.621 112.792 245.751 113.098 246.841Z" fill="#455A64"/>
                    <path opacity="0.2" d="M112.167 243.591L111.562 247.233C108.67 245.857 107.74 244.309 107.74 244.309C107.667 241.51 107.693 238.632 107.74 237.229C108.511 238.931 110.193 240.081 111.236 241.65C111.625 242.256 111.938 242.908 112.167 243.591Z" fill="#525252"/>
                    <path opacity="0.3" d="M113.098 246.841L111.562 247.234L112.167 243.591C112.546 244.621 112.792 245.751 113.098 246.841Z" fill="#525252"/>
                    <path d="M107.58 233.194C107.882 232.229 108.283 231.298 108.777 230.416C108.822 231.91 109.283 233.362 110.106 234.61C111.15 236.285 112.539 237.734 113.536 239.436C114.753 241.51 115.384 243.95 116.986 245.744C117.773 246.614 118.752 247.288 119.844 247.713C120.937 248.139 122.113 248.305 123.281 248.197C124.157 248.169 124.986 247.796 125.588 247.16C125.833 246.847 125.968 246.461 125.973 246.064C126.758 246.91 127.629 247.671 128.572 248.337C129.623 249.068 130.879 249.846 131.052 251.116C131.082 251.646 130.955 252.174 130.687 252.633C130.418 253.092 130.02 253.461 129.543 253.695C128.58 254.146 127.528 254.373 126.465 254.359C124.193 254.565 121.903 254.369 119.698 253.781C117.478 253.179 115.555 251.783 114.294 249.859C113.755 248.904 113.35 247.88 113.091 246.815C112.785 245.725 112.539 244.614 112.16 243.564C111.925 242.88 111.605 242.228 111.21 241.623C110.166 240.054 108.484 238.904 107.713 237.203C107.673 237.11 107.62 237.023 107.587 236.93C107.188 235.717 107.186 234.409 107.58 233.194Z" fill="#455A64"/>
                    <path d="M123.288 248.197C122.12 248.305 120.943 248.139 119.851 247.714C118.758 247.288 117.78 246.614 116.993 245.745C115.391 243.95 114.759 241.51 113.543 239.436C112.546 237.735 111.156 236.285 110.113 234.61C109.289 233.362 108.829 231.91 108.783 230.416L109.162 229.705C112.306 230.263 115.75 230.462 118.774 231.486C119.699 234.666 120.882 237.765 122.31 240.752C123.276 242.688 124.509 244.478 125.973 246.07C125.968 246.468 125.832 246.853 125.588 247.167C124.986 247.799 124.16 248.169 123.288 248.197Z" fill="#FFA8A7"/>
                    <path d="M114.746 116.993C114.914 119.652 115.085 122.31 115.258 124.969C121.274 149.764 119.479 186.789 119.479 186.789L119.293 231.991C118.441 232.551 117.486 232.935 116.484 233.121C115.482 233.308 114.453 233.293 113.457 233.078C112.461 232.862 111.517 232.451 110.682 231.867C109.846 231.283 109.135 230.539 108.591 229.678C107.567 218.564 102.402 201.094 103.937 187.467C101.87 176.725 100.321 161.437 100.321 161.437L95.2561 187.88L84.72 238.918C80.0669 240.879 75.9389 239.536 74.5962 237.728C75.6797 209.576 75.221 196.042 79.5551 183.027C78.2256 148.109 77.8002 132.328 86.3088 120.33L86.2024 115.803L114.746 116.993Z" fill="#2A8EF1"/>
                    <path opacity="0.3" d="M114.746 116.993C114.914 119.652 115.085 122.31 115.258 124.969C121.274 149.764 119.479 186.789 119.479 186.789L119.293 231.991C118.441 232.551 117.486 232.935 116.484 233.121C115.482 233.308 114.453 233.293 113.457 233.078C112.461 232.862 111.517 232.451 110.682 231.867C109.846 231.283 109.135 230.539 108.591 229.678C107.567 218.564 102.402 201.094 103.937 187.467C101.87 176.725 100.321 161.437 100.321 161.437L95.2561 187.88L84.72 238.918C80.0669 240.879 75.9389 239.536 74.5962 237.728C75.6797 209.576 75.221 196.042 79.5551 183.027C78.2256 148.109 77.8002 132.328 86.3088 120.33L86.2024 115.803L114.746 116.993Z" fill="#525252"/>
                    <path opacity="0.2" d="M101.485 155.547C104.634 154.975 107.599 153.65 110.126 151.685C109.645 153.085 108.812 154.339 107.708 155.324C106.603 156.31 105.264 156.996 103.818 157.315L101.159 168.337L100.375 161.53L101.485 155.547Z" fill="#525252"/>
                    <path d="M104.263 89.2402L107.314 89.4662C107.901 89.5092 108.47 89.6847 108.979 89.9795C109.488 90.2743 109.923 90.6806 110.252 91.168L117.305 101.604C118.34 103.134 118.845 104.96 118.744 106.803C118.643 108.647 117.942 110.407 116.747 111.815C116.302 112.339 115.972 112.95 115.778 113.61C115.583 114.269 115.528 114.962 115.617 115.643L118.03 139.461C104.177 149.744 85.2784 143.575 78.9834 140.218C79.2227 135.054 81.4097 128.32 84.0287 123.72C84.8679 122.259 85.4076 120.645 85.6165 118.973C85.8253 117.301 85.6991 115.604 85.2452 113.982L83.251 106.816L86.1359 89.7787L104.263 89.2402Z" fill="#455A64"/>
                    <path d="M115.796 65.064C116.042 66.3402 117.053 70.2023 116.042 72.376C115.55 73.4063 115.005 74.0312 115.377 75.1147C115.75 76.1982 117.272 76.8297 117.478 78.0262C117.644 78.9834 116.886 79.821 116.428 80.6852C116.101 81.2959 115.913 81.9714 115.877 82.6633C115.842 83.3552 115.96 84.0463 116.223 84.6873C116.486 85.3282 116.888 85.9031 117.399 86.3707C117.91 86.8384 118.518 87.1872 119.18 87.3923C118.291 87.3356 117.426 87.0848 116.645 86.6576C115.864 86.2303 115.186 85.637 114.66 84.9195C114.191 84.1985 113.893 83.3801 113.788 82.5265C113.683 81.673 113.774 80.8068 114.055 79.9938C114.263 79.534 114.41 79.0492 114.493 78.5514C114.58 77.5676 113.922 76.6968 113.403 75.8526C112.235 74.026 111.741 71.8489 112.007 69.6971C112.34 67.5368 113.888 66.0478 115.796 65.064Z" fill="#263238"/>
                    <path d="M116.036 67.51C116.034 65.4358 115.513 63.395 114.52 61.5739C111.861 56.4223 106.43 52.6798 100.634 52.5868C97.9022 52.5076 95.2205 53.3299 93.0027 54.9266C90.5831 56.7347 89.0143 59.5133 88.1435 62.3982C87.2051 65.139 87.0896 68.0945 87.8112 70.9001C88.6155 73.6588 90.6296 76.1515 93.355 77.0688C95.1493 77.5728 97.0312 77.6839 98.8723 77.3945C102.821 76.9762 106.701 76.0582 110.419 74.6625C111.821 74.1374 113.23 73.7252 114.188 72.542C115.341 71.1141 115.991 69.3451 116.036 67.51Z" fill="#263238"/>
                    <path d="M104.263 82.9983V89.7387C104.263 89.7387 109.794 93.2684 107.467 95.1429C103.073 98.666 93.6672 89.6988 93.6672 89.6988V78.4382L104.263 82.9983Z" fill="#FFA8A7"/>
                    <path d="M93.6672 78.4382C94.9967 84.3676 101.225 88.017 104.263 88.7549V82.9717L93.6672 78.4382Z" fill="#F28F8F"/>
                    <path d="M86.568 71.8906C86.9647 71.1443 87.6309 70.5772 88.431 70.3047C89.2311 70.0322 90.1049 70.0747 90.8748 70.4236C91.6446 70.7725 92.2526 71.4016 92.575 72.1829C92.8974 72.9642 92.9101 73.839 92.6104 74.6293C92.8991 74.7486 93.2129 74.7946 93.5237 74.7633C93.8345 74.732 94.1327 74.6243 94.3919 74.4499C94.9254 74.0801 95.3262 73.5489 95.5352 72.9343C95.7299 72.1094 95.8676 71.272 95.9473 70.4282C97.6358 70.1557 98.6063 67.3771 98.6063 67.1046C99.0118 67.1843 106.842 67.5433 109.375 63.0032C112.785 63.5815 113.942 67.5832 114.028 67.5566C114.282 68.9642 114.391 70.3942 114.354 71.8242C114.226 74.7615 113.703 77.6681 112.798 80.4657C112.134 82.6792 111.549 84.946 109.302 86.096C107.993 86.7182 106.531 86.949 105.094 86.7607C99.8294 86.2223 94.8572 82.1607 92.4642 77.5409C92.0446 78.0465 91.4616 78.3896 90.8158 78.511C90.1701 78.6324 89.5023 78.5243 88.9278 78.2056C87.9572 77.4663 87.1702 76.5132 86.6278 75.4204C86.3606 74.8721 86.2167 74.272 86.2064 73.6621C86.1961 73.0523 86.3195 72.4476 86.568 71.8906Z" fill="#FFA8A7"/>
                    <path d="M107.075 72.283L109.807 77.3283L106.291 77.8401L107.075 72.283Z" fill="#F28F8F"/>
                    <path d="M102.854 79.4021C103.725 79.8674 104.589 80.3394 105.46 80.798C105.22 81.0903 104.892 81.2964 104.525 81.3852C104.158 81.474 103.772 81.4405 103.426 81.2899C103.128 81.089 102.908 80.7915 102.804 80.4477C102.7 80.1038 102.718 79.7345 102.854 79.4021Z" fill="#F28F8F"/>
                    <path opacity="0.3" d="M102.854 79.4021C103.725 79.8674 104.589 80.3394 105.46 80.798C105.22 81.0903 104.892 81.2964 104.525 81.3852C104.158 81.474 103.772 81.4405 103.426 81.2899C103.128 81.089 102.908 80.7915 102.804 80.4477C102.7 80.1038 102.718 79.7345 102.854 79.4021Z" fill="#525252"/>
                    <path d="M104.363 81.4163C104.051 81.4674 103.732 81.4234 103.446 81.29C103.207 81.1449 103.016 80.9324 102.898 80.6793C102.78 80.4261 102.739 80.1437 102.781 79.8674C103.161 79.8781 103.526 80.0216 103.811 80.2729C104.139 80.5664 104.337 80.9773 104.363 81.4163Z" fill="#F28F8F"/>
                    <path d="M102.016 72.2763C101.991 72.4713 102.023 72.6695 102.11 72.846C102.197 73.0225 102.334 73.1694 102.504 73.2681C102.674 73.3669 102.87 73.4131 103.066 73.401C103.263 73.3889 103.451 73.319 103.608 73.2001C103.764 73.0812 103.882 72.9186 103.947 72.7328C104.011 72.547 104.019 72.3462 103.97 72.1558C103.921 71.9654 103.816 71.7938 103.67 71.6627C103.523 71.5315 103.341 71.4467 103.146 71.4188C103.016 71.4001 102.883 71.4075 102.755 71.4405C102.627 71.4736 102.507 71.5317 102.402 71.6115C102.297 71.6912 102.209 71.7911 102.143 71.9052C102.076 72.0193 102.033 72.1454 102.016 72.2763Z" fill="#263238"/>
                    <path d="M110.399 73.1204C110.362 73.3848 110.431 73.6532 110.592 73.8663C110.753 74.0795 110.992 74.2201 111.256 74.2571C111.521 74.2941 111.789 74.2246 112.002 74.0638C112.215 73.9029 112.356 73.664 112.393 73.3996C112.43 73.1351 112.36 72.8668 112.2 72.6536C112.039 72.4405 111.8 72.2999 111.535 72.2629C111.404 72.2446 111.271 72.2522 111.143 72.2854C111.015 72.3186 110.895 72.3766 110.789 72.4562C110.576 72.617 110.436 72.856 110.399 73.1204Z" fill="#263238"/>
                    <path d="M111.927 69.318L113.922 71.1527C114.056 70.8935 114.109 70.5993 114.072 70.3095C114.035 70.0197 113.911 69.748 113.716 69.5308C113.468 69.3302 113.169 69.2038 112.852 69.1661C112.536 69.1285 112.215 69.1811 111.927 69.318Z" fill="#263238"/>
                    <path d="M103.439 67.9954C102.628 68.3942 101.824 68.7997 101.019 69.2052C100.962 68.9178 100.995 68.6195 101.114 68.3516C101.233 68.0837 101.432 67.8594 101.684 67.7096C101.974 67.5893 102.292 67.5523 102.602 67.6028C102.912 67.6533 103.202 67.7892 103.439 67.9954Z" fill="#263238"/>
                    <path d="M95.8411 69.8766C96.2333 71.2858 96.6122 72.8546 95.9541 74.1574C95.5486 74.9485 94.8108 75.5334 94.4119 76.3311C94.0189 77.2489 93.9168 78.2651 94.1194 79.2426C94.3223 80.2149 94.4468 81.2019 94.4917 82.1941C94.4779 82.933 94.3146 83.6614 94.0115 84.3355C93.7085 85.0095 93.272 85.6151 92.7284 86.1158C92.1848 86.6165 91.5455 87.0019 90.8488 87.2487C90.1522 87.4955 89.4128 87.5986 88.6753 87.5518C89.812 87.7113 91.1813 86.681 91.7663 85.7038C92.3076 84.6856 92.5146 83.5227 92.3579 82.3802C92.2449 81.2435 91.9391 80.14 91.7331 79.0166C91.4738 77.897 91.4738 76.7329 91.7331 75.6132C92.0588 74.4832 92.8166 73.3864 92.5906 72.2297C92.4643 71.565 92.0521 71.0465 91.979 70.4084C91.9482 69.9917 92.0644 69.5774 92.3072 69.2374C92.5501 68.8974 92.9043 68.6532 93.3085 68.5471C94.1327 68.3477 95.6217 69.0789 95.8411 69.8766Z" fill="#263238"/>
                    <path opacity="0.3" d="M104.901 56.3026C104.295 57.012 103.563 57.6026 102.741 58.0442C99.7971 59.7143 96.4439 60.525 93.0623 60.3841C92.3902 60.3876 91.7239 60.2588 91.1014 60.0052C90.6682 59.7906 90.2943 59.4728 90.0127 59.0799C89.731 58.687 89.5502 58.2309 89.4861 57.7517C90.3522 56.1543 91.5874 54.7868 93.0889 53.7633C95.2755 52.3902 97.8201 51.6962 100.401 51.7691C101.932 51.7946 103.45 52.0455 104.908 52.5136C105.259 52.8843 105.503 53.344 105.612 53.8431C105.68 54.2801 105.651 54.7265 105.528 55.1513C105.405 55.576 105.191 55.9689 104.901 56.3026Z" fill="#525252"/>
                    <path d="M106.929 49.7019C106.596 46.9898 104.349 44.7962 101.784 43.8722C99.2025 42.9984 96.3937 43.0786 93.8667 44.0982C91.3557 45.1338 89.1763 46.8373 87.565 49.0239C86.3951 50.5794 85.4645 52.4605 85.6838 54.3949C85.9431 56.6417 87.7977 58.503 89.9514 59.1876C92.1681 59.8101 94.517 59.7825 96.7184 59.1079C98.1675 58.6824 102.801 56.8212 103.957 55.5848C105.473 53.9761 107.188 51.849 106.929 49.7019Z" fill="#263238"/>
                    <path opacity="0.2" d="M91.8525 108.664C93.3018 110.748 95.4202 112.275 97.8564 112.991C100.293 113.707 102.9 113.568 105.247 112.599C104.252 113.566 103.03 114.269 101.694 114.642C100.357 115.015 98.9478 115.046 97.5958 114.733C94.9303 114.041 92.6502 111.296 91.8525 108.664Z" fill="#525252"/>
                    <path d="M110.173 138.769C110.173 138.769 110.173 138.802 110.173 138.822C110.18 138.842 110.191 138.86 110.206 138.876L111.269 140.092C111.269 140.092 111.269 140.039 111.269 140.012C111.309 140.198 111.582 140.192 112.047 139.933L120.955 134.92C121.644 134.523 122.23 133.967 122.663 133.298L130.42 118.867C130.547 118.628 130.54 118.488 130.42 118.422H130.454L129.39 117.205C129.355 117.169 129.307 117.147 129.257 117.146H129.091H129.044H128.991H128.945H128.898H128.852H128.805H128.758H128.705H128.652L119.738 122.158H119.685H119.638H119.592H119.552H119.512H119.472L119.359 122.257V122.291L118.322 123.64L118.289 123.686V123.726L118.249 123.78L118.216 123.826V123.873V123.912C118.217 123.928 118.217 123.944 118.216 123.959V123.999V124.039L110.458 138.477V138.517V138.557C110.456 138.57 110.456 138.583 110.458 138.596V138.636C110.458 138.636 110.458 138.636 110.458 138.676C110.458 138.716 110.458 138.676 110.458 138.716V138.769H110.173ZM130.174 118.395C130.208 118.395 130.214 118.395 130.241 118.395C130.219 118.394 130.197 118.394 130.174 118.395ZM111.243 139.952C111.243 139.952 111.243 139.919 111.243 139.906C111.243 139.893 111.243 139.959 111.243 139.979C111.243 139.999 111.236 139.939 111.243 139.933V139.952Z" fill="#E0E0E0"/>
                    <path opacity="0.2" d="M110.173 138.769C110.173 138.769 110.173 138.802 110.173 138.822C110.18 138.842 110.191 138.86 110.206 138.876L111.269 140.092C111.269 140.092 111.269 140.039 111.269 140.012C111.309 140.198 111.582 140.192 112.047 139.933L120.955 134.92C121.644 134.523 122.23 133.967 122.663 133.298L130.42 118.867C130.547 118.628 130.54 118.488 130.42 118.422H130.454L129.39 117.205C129.355 117.169 129.307 117.147 129.257 117.146H129.091H129.044H128.991H128.945H128.898H128.852H128.805H128.758H128.705H128.652L119.738 122.158H119.685H119.638H119.592H119.552H119.512H119.472L119.359 122.257V122.291L118.322 123.64L118.289 123.686V123.726L118.249 123.78L118.216 123.826V123.873V123.912C118.217 123.928 118.217 123.944 118.216 123.959V123.999V124.039L110.458 138.477V138.517V138.557C110.456 138.57 110.456 138.583 110.458 138.596V138.636C110.458 138.636 110.458 138.636 110.458 138.676C110.458 138.716 110.458 138.676 110.458 138.716V138.769H110.173ZM130.174 118.395C130.208 118.395 130.214 118.395 130.241 118.395C130.219 118.394 130.197 118.394 130.174 118.395ZM111.243 139.952C111.243 139.952 111.243 139.919 111.243 139.906C111.243 139.893 111.243 139.959 111.243 139.979C111.243 139.999 111.236 139.939 111.243 139.933V139.952Z" fill="#525252"/>
                    <path opacity="0.15" d="M110.173 138.73C110.173 138.73 110.173 138.73 110.173 138.69C110.173 138.65 110.173 138.69 110.173 138.65V138.61C110.17 138.597 110.17 138.583 110.173 138.57V138.53V138.49L117.93 124.052L118.994 125.269L111.236 139.707C111.19 139.787 111.158 139.875 111.143 139.966C111.135 139.993 111.134 140.022 111.14 140.05C111.146 140.078 111.158 140.104 111.176 140.125L110.113 138.909C110.098 138.894 110.087 138.876 110.08 138.856C110.08 138.856 110.08 138.823 110.08 138.803L110.173 138.73Z" fill="white"/>
                    <path opacity="0.2" d="M118.05 123.972V123.932V123.886V123.846V123.8L118.083 123.753L118.123 123.7V123.66L118.322 123.64L118.356 123.6V123.567L118.469 123.467H118.508H118.548H118.588H118.635H118.681H118.734L127.648 118.455H127.702H127.755H127.801H127.848H127.894H127.941H127.987H128.041H128.087H128.253C128.304 118.457 128.352 118.478 128.386 118.515L129.45 119.731C129.413 119.701 129.37 119.681 129.323 119.673C129.276 119.665 129.229 119.669 129.184 119.685C129.011 119.729 128.845 119.798 128.692 119.891L119.778 124.903C119.618 124.996 119.446 125.116 119.273 125.242C119.107 125.368 118.94 125.515 118.781 125.661C118.628 125.807 118.488 125.96 118.362 126.106C118.252 126.236 118.154 126.376 118.07 126.525L117.006 125.308L118.05 123.972Z" fill="white"/>
                    <path d="M79.1895 96.3859C79.9207 91.0681 83.6099 89.9713 86.116 89.7852C86.116 89.7852 89.2601 91.9389 89.2601 101.564L88.9876 125.634L90.7491 126.365C95.7219 128.496 100.92 130.057 106.244 131.018C109.017 128.811 112.472 127.637 116.016 127.695L114.686 130.141C117.179 131.736 122.803 128.858 122.803 128.858C123.215 132.368 120.941 136.017 117.93 137.859C114.919 139.7 86.1226 136.994 80.0403 133.039C76.0121 130.493 77.634 107.686 79.1895 96.3859Z" fill="#FFA8A7"/>
                    <path d="M128.905 121.646C129.095 122.594 129.204 123.557 129.23 124.524C129.006 126.827 128.029 128.993 126.452 130.686C126.127 131.057 125.72 131.347 125.262 131.53C125.031 131.618 124.781 131.643 124.537 131.603C124.293 131.564 124.064 131.46 123.873 131.304C123.532 130.901 123.359 130.382 123.387 129.855C123.315 129.075 123.36 128.289 123.52 127.522C123.68 126.75 124.115 126.063 124.744 125.588C125.237 125.306 125.761 125.083 126.306 124.923C126.841 124.698 127.316 124.352 127.695 123.912L128.905 121.646Z" fill="#FFA8A7"/>
                    <path d="M130.839 65.8085L148.98 55.4054C150.568 54.4881 154.297 55.7245 154.297 58.2771C154.298 58.0706 154.244 57.8677 154.141 57.6886C154.039 57.5096 153.891 57.3607 153.712 57.257C153.534 57.1532 153.331 57.0983 153.124 57.0977C152.918 57.097 152.715 57.1507 152.536 57.2534L134.395 67.6631C133.801 68.0135 133.321 68.5283 133.013 69.1454L129.496 67.1512C129.813 66.5892 130.277 66.1247 130.839 65.8085Z" fill="#2A8EF1"/>
                    <path d="M133.039 69.1321C132.783 69.6229 132.647 70.1673 132.64 70.7208V84.1883C132.641 84.3949 132.696 84.5978 132.8 84.7766C132.903 84.9554 133.052 85.1039 133.231 85.2075C133.41 85.311 133.613 85.3659 133.819 85.3667C134.026 85.3675 134.229 85.3142 134.409 85.212C133.886 85.5312 133.289 85.7076 132.677 85.7236C132.065 85.7396 131.46 85.5947 130.921 85.3033C130.383 85.0119 129.931 84.5842 129.609 84.0631C129.288 83.542 129.109 82.9456 129.091 82.3337V68.8729C129.093 68.2649 129.251 67.6675 129.549 67.1379L133.039 69.1321Z" fill="#2A8EF1"/>
                    <path opacity="0.4" d="M130.839 65.8085L148.98 55.4054C150.568 54.4881 154.297 55.7245 154.297 58.2771C154.298 58.0706 154.244 57.8677 154.141 57.6886C154.039 57.5096 153.891 57.3607 153.712 57.257C153.534 57.1532 153.331 57.0983 153.124 57.0977C152.918 57.097 152.715 57.1507 152.536 57.2534L134.395 67.6631C133.801 68.0135 133.321 68.5283 133.013 69.1454L129.496 67.1512C129.813 66.5892 130.277 66.1247 130.839 65.8085Z" fill="white"/>
                    <path opacity="0.2" d="M133.039 69.1321C132.783 69.6229 132.647 70.1673 132.64 70.7208V84.1883C132.641 84.3949 132.696 84.5978 132.8 84.7766C132.903 84.9554 133.052 85.1039 133.231 85.2075C133.41 85.311 133.613 85.3659 133.819 85.3667C134.026 85.3675 134.229 85.3142 134.409 85.212C133.886 85.5312 133.289 85.7076 132.677 85.7236C132.065 85.7396 131.46 85.5947 130.921 85.3033C130.383 85.0119 129.931 84.5842 129.609 84.0631C129.288 83.542 129.109 82.9456 129.091 82.3337V68.8729C129.093 68.2649 129.251 67.6675 129.549 67.1379L133.039 69.1321Z" fill="white"/>
                    <path d="M152.563 57.2468L134.422 67.6565C133.882 67.9669 133.433 68.4142 133.12 68.9533C132.807 69.4924 132.642 70.1043 132.641 70.7275V84.195C132.641 84.4016 132.696 84.6045 132.8 84.7833C132.904 84.9621 133.052 85.1106 133.231 85.2142C133.41 85.3177 133.613 85.3726 133.819 85.3734C134.026 85.3742 134.229 85.3208 134.409 85.2187L152.543 74.8555C153.084 74.5461 153.534 74.0991 153.847 73.5598C154.16 73.0204 154.324 72.408 154.324 71.7845V58.2705C154.325 58.064 154.271 57.8611 154.168 57.682C154.065 57.503 153.917 57.3541 153.739 57.2504C153.56 57.1466 153.358 57.0917 153.151 57.0911C152.945 57.0904 152.742 57.1441 152.563 57.2468Z" fill="#2A8EF1"/>
                    <path d="M128.293 77.6007L132.654 78.4117V72.8213L128.127 77.1088C128.092 77.1482 128.068 77.1962 128.058 77.2479C128.047 77.2995 128.051 77.353 128.067 77.4029C128.084 77.4529 128.114 77.4974 128.154 77.5322C128.193 77.5669 128.241 77.5905 128.293 77.6007Z" fill="#2A8EF1"/>
                    <path d="M132.641 72.8213L129.064 70.7739L124.557 75.1146C124.523 75.1458 124.497 75.1846 124.48 75.228C124.464 75.2714 124.458 75.3181 124.463 75.3642C124.468 75.4103 124.484 75.4546 124.51 75.4932C124.536 75.5319 124.57 75.5639 124.611 75.5866L128.18 77.5808L132.641 72.8213Z" fill="#2A8EF1"/>
                    <path opacity="0.2" d="M132.641 72.8213L129.064 70.7739L124.557 75.1146C124.523 75.1458 124.497 75.1846 124.48 75.228C124.464 75.2714 124.458 75.3181 124.463 75.3642C124.468 75.4103 124.484 75.4546 124.51 75.4932C124.536 75.5319 124.57 75.5639 124.611 75.5866L128.18 77.5808L132.641 72.8213Z" fill="white"/>
                    <path d="M149.804 61.6074C150.249 61.3482 150.562 61.8534 150.156 62.4982C147.239 67.1037 144.687 71.9312 142.525 76.9361C142.303 77.5046 141.905 77.9869 141.388 78.3121C141.232 78.4345 141.039 78.501 140.84 78.501C140.641 78.501 140.448 78.4345 140.292 78.3121C139.212 77.2925 138.037 76.3797 136.782 75.5867C136.436 75.3674 136.722 74.5631 137.167 74.3038C137.221 74.272 137.279 74.2495 137.34 74.2373C138.654 73.9727 140.003 73.9367 141.329 74.131C143.551 69.7006 146.318 65.565 149.565 61.8202C149.632 61.7367 149.713 61.6648 149.804 61.6074Z" fill="white"/>
                    </svg>