<svg width="301" height="304" viewBox="0 0 301 304" fill="none" xmlns="http://www.w3.org/2000/svg">
                    <path d="M255.714 155.624C196.946 121.694 101.975 121.694 43.5889 155.624C-14.7973 189.553 -14.4915 244.583 44.2839 278.498C103.059 312.414 198.03 312.428 256.416 278.498C314.802 244.569 314.49 189.553 255.714 155.624Z" fill="#F5F5F5"/>
                    <path d="M172.823 133.94C179.592 137.853 179.627 144.184 172.906 148.09C166.185 151.996 155.246 152.003 148.477 148.09C141.708 144.177 141.673 137.853 148.401 133.94C155.128 130.027 166.06 130.034 172.823 133.94Z" fill="#E6E6E6"/>
                    <path d="M27.7502 244.527L34.0537 247.932C34.6697 248.267 35.3615 248.438 36.0626 248.428C36.7637 248.419 37.4504 248.229 38.0569 247.877L126.891 196.35C127.207 196.168 127.468 195.905 127.648 195.588C127.828 195.271 127.92 194.912 127.914 194.548C127.908 194.183 127.805 193.827 127.616 193.516C127.426 193.205 127.156 192.95 126.835 192.778L118.495 188.281L27.6946 240.955C27.3787 241.137 27.1173 241.4 26.9373 241.717C26.7574 242.034 26.6655 242.393 26.6711 242.757C26.6768 243.122 26.7799 243.478 26.9696 243.789C27.1593 244.1 27.4288 244.355 27.7502 244.527Z" fill="#E6E6E6"/>
                    <path d="M224.718 232.823C211.673 225.29 190.594 225.29 177.632 232.823C164.671 240.357 164.747 252.568 177.785 260.095C190.823 267.622 211.909 267.629 224.871 260.095C237.832 252.561 237.763 240.35 224.718 232.823Z" fill="#E6E6E6"/>
                    <path d="M274.27 197.872C269.058 194.932 260.683 195.023 255.568 198.067C250.453 201.111 250.53 205.962 255.742 208.902C260.954 211.842 269.329 211.744 274.444 208.7C279.559 205.656 279.483 200.805 274.27 197.872Z" fill="#E6E6E6"/>
                    <path d="M162.21 87.1532H159.096C159.096 100.546 159.583 144.622 159.583 144.622C159.591 144.716 159.624 144.807 159.679 144.884C159.734 144.961 159.809 145.022 159.896 145.06C160.13 145.18 160.39 145.243 160.653 145.243C160.917 145.243 161.176 145.18 161.411 145.06C161.497 145.022 161.572 144.961 161.627 144.884C161.682 144.807 161.715 144.716 161.724 144.622C161.724 144.622 162.21 100.546 162.21 87.1532Z" fill="#E6E6E6"/>
                    <path d="M155.927 81.1206H152.814C150.138 94.9718 148.394 138.582 148.394 138.582C148.403 138.677 148.438 138.768 148.494 138.845C148.55 138.922 148.626 138.982 148.713 139.02C148.948 139.14 149.207 139.203 149.471 139.203C149.734 139.203 149.994 139.14 150.228 139.02C150.315 138.983 150.389 138.922 150.444 138.845C150.498 138.768 150.529 138.677 150.534 138.582C150.534 138.582 153.488 94.7772 155.927 81.1206Z" fill="#E6E6E6"/>
                    <path d="M165.407 81.1206H168.521C171.196 94.9718 172.934 138.582 172.934 138.582C172.926 138.677 172.892 138.767 172.837 138.844C172.782 138.921 172.708 138.982 172.621 139.02C172.387 139.14 172.127 139.203 171.863 139.203C171.6 139.203 171.34 139.14 171.106 139.02C171.019 138.982 170.945 138.921 170.89 138.844C170.835 138.767 170.801 138.677 170.793 138.582C170.793 138.582 167.812 94.7772 165.407 81.1206Z" fill="#E6E6E6"/>
                    <g opacity="0.1">
                    <path d="M162.21 87.1531H159.096C159.096 100.546 159.583 144.622 159.583 144.622C159.591 144.716 159.624 144.807 159.679 144.884C159.734 144.961 159.809 145.021 159.896 145.06C160.13 145.18 160.39 145.243 160.653 145.243C160.917 145.243 161.176 145.18 161.411 145.06C161.497 145.021 161.572 144.961 161.627 144.884C161.682 144.807 161.715 144.716 161.724 144.622C161.724 144.622 162.21 100.546 162.21 87.1531Z" fill="#525252"/>
                    <path d="M155.927 81.1206H152.814C150.138 94.9718 148.394 138.582 148.394 138.582C148.403 138.677 148.438 138.768 148.494 138.845C148.55 138.922 148.626 138.982 148.713 139.02C148.948 139.14 149.207 139.203 149.471 139.203C149.734 139.203 149.994 139.14 150.228 139.02C150.315 138.983 150.389 138.922 150.444 138.845C150.498 138.768 150.529 138.677 150.534 138.582C150.534 138.582 153.488 94.7772 155.927 81.1206Z" fill="#525252"/>
                    <path d="M165.407 81.1206H168.521C171.196 94.9718 172.934 138.582 172.934 138.582C172.926 138.677 172.892 138.767 172.837 138.844C172.782 138.921 172.708 138.982 172.621 139.02C172.387 139.14 172.127 139.203 171.863 139.203C171.6 139.203 171.34 139.14 171.106 139.02C171.019 138.982 170.945 138.921 170.89 138.844C170.835 138.767 170.801 138.677 170.793 138.582C170.793 138.582 167.812 94.7772 165.407 81.1206Z" fill="#525252"/>
                    </g>
                    <path d="M177.403 80.7175H177.076C176.443 78.8966 174.907 77.1592 172.461 75.7483C165.893 71.9537 155.288 71.9537 148.769 75.7483C146.336 77.1383 144.821 78.8966 144.21 80.7175H143.897V82.6079C143.897 85.089 145.565 87.5771 148.845 89.4675C155.406 93.2621 166.012 93.2621 172.538 89.4675C175.797 87.5771 177.403 85.089 177.403 82.6079V80.7175Z" fill="#E0E0E0"/>
                    <path d="M172.461 73.858C179.022 77.6457 179.057 83.7894 172.538 87.5841C166.018 91.3787 155.406 91.3718 148.845 87.5841C142.285 83.7964 142.243 77.6457 148.769 73.858C155.295 70.0703 165.893 70.0703 172.461 73.858Z" fill="#EBEBEB"/>
                    <path d="M168.882 68.2563H152.431C152.431 73.6564 154.954 78.2364 155.733 79.5917C155.762 79.657 155.797 79.7198 155.837 79.7793L155.872 79.8419C156.174 80.2755 156.574 80.6324 157.039 80.8843C158.16 81.4566 159.401 81.755 160.66 81.755C161.919 81.755 163.16 81.4566 164.281 80.8843C164.853 80.5839 165.317 80.1126 165.608 79.5361C166.415 78.1044 168.882 73.5869 168.882 68.2563Z" fill="#E0E0E0"/>
                    <path d="M166.442 64.8856C169.667 66.7482 169.681 69.7505 166.484 71.6201C163.287 73.4896 158.082 73.4826 154.857 71.6201C151.632 69.7575 151.618 66.7551 154.857 64.8856C158.096 63.0161 163.225 63.03 166.442 64.8856Z" fill="#EBEBEB"/>
                    <path d="M159.764 66.1297C159.739 62.6123 158.926 59.1452 157.387 55.9828C156.822 55.0316 156.442 53.9823 156.268 52.8901C156.191 51.785 156.796 50.541 157.88 50.3256C158.312 50.2742 158.749 50.3462 159.141 50.5331C159.534 50.7201 159.865 51.0144 160.097 51.3819C160.545 52.1274 160.84 52.9542 160.966 53.8144C161.779 57.616 162.46 61.5288 161.946 65.386C161.917 65.8293 161.829 66.2665 161.682 66.6856C161.601 66.8774 161.472 67.0452 161.308 67.1729C161.144 67.3007 160.949 67.3842 160.743 67.4154C160.605 67.4275 160.466 67.4075 160.337 67.3568C160.208 67.3062 160.093 67.2263 160 67.1235C159.832 66.8199 159.75 66.4763 159.764 66.1297Z" fill="#EBEBEB"/>
                    <path d="M160.667 66.4424C160.649 66.4416 160.632 66.4371 160.615 66.4292C160.599 66.4213 160.585 66.4101 160.573 66.3965C160.561 66.3828 160.553 66.3669 160.547 66.3497C160.542 66.3325 160.54 66.3144 160.542 66.2965C160.955 61.3631 160.116 56.4053 158.103 51.8824C158.095 51.8665 158.09 51.8492 158.089 51.8316C158.089 51.8139 158.092 51.7963 158.098 51.7799C158.105 51.7634 158.115 51.7486 158.128 51.7363C158.14 51.724 158.155 51.7146 158.172 51.7086C158.203 51.6943 158.239 51.6928 158.272 51.7045C158.304 51.7162 158.331 51.7401 158.346 51.7712C160.378 56.3354 161.226 61.3383 160.813 66.3173C160.812 66.3353 160.808 66.3529 160.8 66.3691C160.792 66.3853 160.781 66.3997 160.767 66.4114C160.753 66.4231 160.738 66.4319 160.72 66.4372C160.703 66.4426 160.685 66.4443 160.667 66.4424Z" fill="white"/>
                    <path d="M151.757 60.403C151.062 59.9512 150.207 59.4717 149.992 58.6446C149.916 58.2719 149.955 57.8849 150.104 57.5349C150.253 57.1849 150.505 56.8884 150.826 56.6848C151.153 56.4904 151.516 56.3638 151.894 56.3125C152.271 56.2611 152.655 56.2861 153.022 56.3859C153.755 56.5944 154.442 56.9412 155.045 57.4075C156.094 58.1574 157.03 59.0538 157.824 60.0694C158.778 61.2805 159.531 62.6367 160.055 64.0864C160.413 65.0201 160.681 65.9859 160.855 66.9706C160.98 67.749 161.209 69.0556 160.403 69.556C160.224 69.6618 160.02 69.7176 159.812 69.7176C159.604 69.7176 159.4 69.6618 159.221 69.556C158.878 69.3239 158.612 68.9948 158.457 68.6108C158.291 68.231 158.149 67.841 158.033 67.4432C157.51 65.9092 156.656 64.5092 155.531 63.3428C154.406 62.2033 153.137 61.2151 151.757 60.403Z" fill="#F5F5F5"/>
                    <path d="M160.055 68.6178C160.013 68.6261 159.969 68.6178 159.933 68.5944C159.897 68.5711 159.871 68.5346 159.861 68.4927C159.343 66.1597 158.313 63.9709 156.846 62.085C155.378 60.199 153.509 58.663 151.375 57.5883C151.356 57.5793 151.338 57.5666 151.324 57.5509C151.31 57.5351 151.299 57.5167 151.291 57.4966C151.284 57.4766 151.281 57.4553 151.282 57.434C151.284 57.4127 151.289 57.3919 151.299 57.3728C151.318 57.3333 151.352 57.303 151.394 57.2887C151.436 57.2744 151.481 57.2771 151.521 57.2964C153.7 58.3901 155.608 59.9557 157.105 61.8792C158.603 63.8027 159.654 66.0358 160.181 68.4162C160.187 68.4377 160.188 68.4602 160.185 68.4824C160.182 68.5045 160.175 68.5258 160.163 68.5448C160.151 68.5638 160.135 68.5801 160.117 68.5927C160.098 68.6052 160.077 68.6138 160.055 68.6178Z" fill="white"/>
                    <path d="M167.846 58.728C168.437 58.1094 169.111 57.4353 169.118 56.5805C169.097 56.2014 168.961 55.8378 168.727 55.5385C168.493 55.2391 168.174 55.0183 167.812 54.9055C167.445 54.8 167.062 54.769 166.683 54.8143C166.305 54.8597 165.939 54.9805 165.608 55.1696C164.955 55.5579 164.38 56.0646 163.913 56.6639C163.087 57.6586 162.406 58.7654 161.89 59.9512C161.274 61.3629 160.889 62.8648 160.75 64.3991C160.639 65.3939 160.625 66.3971 160.709 67.3945C160.785 68.1799 160.889 69.4795 161.8 69.7783C162.001 69.8309 162.212 69.8296 162.412 69.7747C162.612 69.7198 162.794 69.6132 162.94 69.4656C163.227 69.1602 163.416 68.7751 163.482 68.3606C163.544 67.9508 163.581 67.5377 163.593 67.1235C163.714 65.5065 164.188 63.9359 164.983 62.5226C165.771 61.1403 166.733 59.8649 167.846 58.728Z" fill="#F5F5F5"/>
                    <path d="M161.932 68.8054C161.975 68.8019 162.015 68.7818 162.043 68.7494C162.072 68.717 162.087 68.6748 162.085 68.6317C161.986 66.2434 162.42 63.863 163.355 61.6632C164.291 59.4634 165.704 57.4993 167.492 55.9133C167.522 55.8812 167.538 55.839 167.538 55.7952C167.538 55.7514 167.522 55.7092 167.492 55.677C167.477 55.6617 167.459 55.6495 167.44 55.6412C167.42 55.6328 167.399 55.6285 167.377 55.6285C167.356 55.6285 167.335 55.6328 167.315 55.6412C167.295 55.6495 167.277 55.6617 167.263 55.677C165.433 57.2888 163.985 59.2874 163.023 61.528C162.062 63.7686 161.611 66.1951 161.703 68.6317C161.701 68.66 161.707 68.6883 161.719 68.7141C161.731 68.7398 161.749 68.7622 161.771 68.7794C161.794 68.7965 161.82 68.8079 161.848 68.8124C161.876 68.8169 161.905 68.8145 161.932 68.8054Z" fill="white"/>
                    <path d="M251.065 35.7447L251.016 53.5573L248.854 54.8083L248.917 34.5076L251.065 35.7447Z" fill="#F0F0F0"/>
                    <path d="M274.319 67.0123L274.312 69.5073L248.854 54.8082L251.016 53.5573L274.319 67.0123Z" fill="#F5F5F5"/>
                    <path d="M246.241 56.2956L276.911 74.0039L276.988 47.7055L246.318 30.004L246.241 56.2956ZM248.855 54.8013L248.917 34.4937L251.065 35.7377L274.368 49.1927L274.319 67.0054V69.5004L248.855 54.8013Z" fill="#E0E0E0"/>
                    <path d="M246.318 30.004L248.472 28.7531L279.142 46.4614L276.988 47.7124L246.318 30.004Z" fill="#F5F5F5"/>
                    <path d="M279.142 46.4614L279.066 72.753L276.911 74.0109L276.988 47.7124L279.142 46.4614Z" fill="#F0F0F0"/>
                    <path d="M258.466 42.507L252.114 47.5109L252.1 52.3967L273.235 64.6007L273.249 59.7149L269.225 51.7156L265.604 54.5234L266.883 58.4987L265.027 54.9682L258.466 42.507Z" fill="#E0E0E0"/>
                    <path d="M265.409 44.9742C264.415 44.3973 263.609 44.856 263.602 46.0028C263.637 46.6256 263.818 47.2315 264.131 47.7713C264.444 48.3111 264.879 48.7695 265.402 49.1094C266.396 49.6862 267.202 49.2275 267.209 48.0808C267.176 47.4575 266.996 46.851 266.683 46.311C266.37 45.771 265.934 45.3128 265.409 44.9742Z" fill="#E0E0E0"/>
                    <path d="M213.153 13.9567L213.104 31.7693L210.943 33.0203L210.998 12.7196L213.153 13.9567Z" fill="#F0F0F0"/>
                    <path d="M236.4 45.2243L236.393 47.7193L210.943 33.0203L213.104 31.7693L236.4 45.2243Z" fill="#F5F5F5"/>
                    <path d="M208.33 34.5145L239 52.2229L239.076 25.9244L208.399 8.21606L208.33 34.5145ZM210.943 33.0203L210.998 12.7196L213.153 13.9567L236.456 27.4117L236.4 45.2244V47.7194L210.943 33.0203Z" fill="#E0E0E0"/>
                    <path d="M208.399 8.21607L210.561 6.96509L241.231 24.6735L239.069 25.9245L208.399 8.21607Z" fill="#F5F5F5"/>
                    <path d="M241.231 24.6735L241.154 50.965L238.993 52.2229L239.069 25.9244L241.231 24.6735Z" fill="#F0F0F0"/>
                    <path d="M220.555 20.719L214.202 25.7229L214.188 30.6157L235.323 42.8128L235.337 37.927L231.306 29.9276L227.692 32.7354L228.971 36.7107L227.115 33.1802L220.555 20.719Z" fill="#E0E0E0"/>
                    <path d="M227.498 23.1862C226.504 22.6093 225.698 23.075 225.691 24.2148C225.724 24.8382 225.903 25.4451 226.215 25.9861C226.526 26.5271 226.961 26.987 227.484 27.3283C228.485 27.8982 229.291 27.4395 229.291 26.2928C229.258 25.6702 229.079 25.064 228.767 24.5241C228.456 23.9841 228.021 23.5256 227.498 23.1862Z" fill="#E0E0E0"/>
                    <path d="M277.301 180.623L264.791 181.123L252.246 180.887C251.794 189.366 253.539 197.984 255.86 202.174C256.41 203.252 257.289 204.126 258.369 204.669C262.094 206.754 268.099 206.706 271.727 204.53C272.811 203.954 273.673 203.035 274.18 201.917C276.39 197.65 277.94 189.039 277.301 180.623Z" fill="white"/>
                    <path d="M273.555 175.528C278.496 178.308 278.572 182.909 273.721 185.8C268.87 188.692 260.927 188.775 255.978 185.988C251.03 183.201 250.96 178.6 255.818 175.716C260.676 172.832 268.606 172.741 273.555 175.528Z" fill="#EBEBEB"/>
                    <path d="M271.622 176.675C275.48 178.85 275.535 182.437 271.754 184.695C267.974 186.954 261.767 187.01 257.91 184.841C254.053 182.673 253.997 179.08 257.785 176.821C261.573 174.562 267.765 174.507 271.622 176.675Z" fill="#E0E0E0"/>
                    <g opacity="0.15">
                    <path d="M271.622 176.675C275.48 178.85 275.535 182.437 271.754 184.695C267.974 186.954 261.767 187.01 257.91 184.841C254.053 182.673 253.997 179.08 257.785 176.821C261.573 174.562 267.765 174.507 271.622 176.675Z" fill="#525252"/>
                    </g>
                    <path d="M284.827 127.018C256.659 136.567 256.597 155.513 263.116 168.884C264.749 171.588 269.628 173.006 273.686 156.208L266.271 157.243L274.875 152.767L277.05 146.026L269.843 146.638L278.961 142.69C280.591 137.35 282.55 132.116 284.827 127.018Z" fill="#2A8EF1"/>
                    <path opacity="0.2" d="M284.827 127.018C256.659 136.567 256.597 155.513 263.116 168.884C264.749 171.588 269.628 173.006 273.686 156.208L266.271 157.243L274.875 152.767L277.05 146.026L269.843 146.638L278.961 142.69C280.591 137.35 282.55 132.116 284.827 127.018Z" fill="#525252"/>
                    <path opacity="0.2" d="M284.827 127.018C256.659 136.567 256.597 155.513 263.116 168.884C264.749 171.588 269.628 173.006 273.686 156.208L266.271 157.243L274.875 152.767L277.05 146.026L269.843 146.638L278.961 142.69C280.591 137.35 282.55 132.116 284.827 127.018Z" fill="white"/>
                    <path d="M276.883 131.827C262.094 143.302 260.899 156.284 265.235 169.781C263.623 157.876 261.885 145.838 276.883 131.827Z" fill="white"/>
                    <path d="M237.151 146.728C265.055 150.363 268.62 167.89 265.069 181.533C264.054 184.348 259.787 186.565 252.906 171.741L259.974 171.324L251.162 168.766L247.888 162.914L254.692 162.143L245.505 160.176C242.998 155.526 240.208 151.035 237.151 146.728Z" fill="#2A8EF1"/>
                    <path opacity="0.2" d="M237.151 146.728C265.055 150.363 268.62 167.89 265.069 181.533C264.054 184.348 259.787 186.565 252.906 171.741L259.974 171.324L251.162 168.766L247.888 162.914L254.692 162.143L245.505 160.176C242.998 155.526 240.208 151.035 237.151 146.728Z" fill="white"/>
                    <path opacity="0.1" d="M237.151 146.728C265.055 150.363 268.62 167.89 265.069 181.533C264.054 184.348 259.787 186.565 252.906 171.741L259.974 171.324L251.162 168.766L247.888 162.914L254.692 162.143L245.505 160.176C242.998 155.526 240.208 151.035 237.151 146.728Z" fill="#525252"/>
                    <path d="M245.414 149.716C261.26 157.611 264.791 169.433 263.262 182.784C262.553 171.414 261.927 159.926 245.414 149.716Z" fill="white"/>
                    <path d="M293.285 152.726C267.737 153.421 262.886 168.919 264.832 181.575C265.486 184.209 269.134 186.613 276.731 173.86L270.378 172.818L278.579 171.331L282.054 166.348L275.98 165.02L284.466 164.096C287.168 160.127 290.114 156.33 293.285 152.726Z" fill="#2A8EF1"/>
                    <path d="M285.508 154.658C270.455 160.315 266.167 170.643 266.313 182.854C268.008 172.665 269.656 162.344 285.508 154.658Z" fill="white"/>
                    <path opacity="0.2" d="M293.285 152.726C267.737 153.421 262.886 168.919 264.832 181.575C265.486 184.209 269.134 186.613 276.731 173.86L270.378 172.818L278.579 171.331L282.054 166.348L275.98 165.02L284.466 164.096C287.168 160.127 290.114 156.33 293.285 152.726Z" fill="white"/>
                    <path d="M125.515 6.09634C124.917 3.96272 120.601 -0.0821291 116.306 0.00126991C115.893 0.0131277 115.484 0.0929612 115.097 0.237567L31.6213 47.7263C30.4037 48.4349 29.3916 49.4484 28.6848 50.6671C27.978 51.8857 27.6008 53.2675 27.5903 54.6762V235.221C27.5903 239.822 32.8931 244.214 37.8693 242.102C37.9796 242.07 38.0866 242.028 38.189 241.976L121.664 194.404C122.891 193.706 123.911 192.695 124.619 191.474C125.328 190.253 125.699 188.866 125.695 187.454V6.95118C125.703 6.65604 125.641 6.36327 125.515 6.09634Z" fill="#2A8EF1"/>
                    <path opacity="0.3" d="M125.515 6.09634C124.917 3.96272 120.601 -0.0821291 116.306 0.00126991C115.893 0.0131277 115.484 0.0929612 115.097 0.237567L31.6213 47.7263C30.4037 48.4349 29.3916 49.4484 28.6848 50.6671C27.978 51.8857 27.6008 53.2675 27.5903 54.6762V235.221C27.5903 239.822 32.8931 244.214 37.8693 242.102C37.9796 242.07 38.0866 242.028 38.189 241.976L121.664 194.404C122.891 193.706 123.911 192.695 124.619 191.474C125.328 190.253 125.699 188.866 125.695 187.454V6.95118C125.703 6.65604 125.641 6.36327 125.515 6.09634Z" fill="#525252"/>
                    <path d="M39.2315 73.7538C39.23 73.0472 39.4165 72.353 39.7719 71.7423C40.1273 71.1317 40.6388 70.6265 41.2539 70.2788L118.752 26.1886C119.057 26.0162 119.401 25.9264 119.75 25.9284C120.1 25.9303 120.443 26.0238 120.745 26.1995C121.048 26.3753 121.299 26.6272 121.473 26.9301C121.648 27.233 121.74 27.5764 121.741 27.926V173.513C121.739 174.219 121.551 174.911 121.196 175.522C120.841 176.132 120.331 176.637 119.718 176.988L42.2199 221.148C41.9166 221.322 41.5727 221.413 41.2228 221.413C40.8729 221.412 40.5293 221.32 40.2265 221.144C39.9238 220.969 39.6724 220.717 39.4978 220.414C39.3231 220.111 39.2313 219.767 39.2315 219.417V73.7538Z" fill="#455A64"/>
                    <path opacity="0.3" d="M27.5903 54.6693V235.221C27.5903 239.822 32.8931 244.214 37.8693 242.102C37.5697 242.211 37.2481 242.247 36.9319 242.206C36.6156 242.164 36.3139 242.047 36.0526 241.864C35.7912 241.682 35.5779 241.438 35.4308 241.155C35.2836 240.872 35.207 240.558 35.2074 240.239V59.6593C35.2136 58.0877 35.6825 56.5528 36.5557 55.2461L28.4174 51.1665C27.8773 52.2554 27.5944 53.4538 27.5903 54.6693Z" fill="#525252"/>
                    <path opacity="0.1" d="M116.306 0.00126991C115.893 0.0131277 115.484 0.0929612 115.097 0.237567L31.6214 47.7263C30.2264 48.5338 29.1092 49.7455 28.4175 51.2013L36.5906 55.2809C37.2776 54.2419 38.1958 53.376 39.2732 52.7511L122.749 5.22761C122.986 5.09195 123.249 5.00669 123.52 4.97717C123.792 4.94764 124.067 4.97449 124.328 5.05602C124.589 5.13755 124.83 5.27202 125.037 5.45102C125.243 5.63002 125.411 5.8497 125.529 6.09634C124.917 3.96272 120.601 -0.0821291 116.306 0.00126991Z" fill="white"/>
                    <path d="M90.7719 35.0427C91.3627 34.7091 91.8422 34.9662 91.8492 35.6404C91.8279 36.0108 91.72 36.371 91.5341 36.6921C91.3482 37.0132 91.0895 37.2862 90.7789 37.4891L74.4049 46.9479C73.8141 47.2815 73.3416 46.9965 73.3416 46.3224C73.3573 45.9533 73.4615 45.5933 73.6453 45.2728C73.8292 44.9523 74.0873 44.6806 74.3979 44.4807L90.7719 35.0427Z" fill="#263238"/>
                    <path d="M70.1932 46.9271C70.777 46.5866 71.2496 46.8576 71.2496 47.5317C71.2273 47.8956 71.1201 48.2491 70.9367 48.5641C70.7533 48.8791 70.4986 49.1467 70.1932 49.3457C69.6025 49.6862 69.116 49.4082 69.116 48.7341C69.1422 48.3697 69.2532 48.0166 69.4403 47.7028C69.6273 47.3891 69.8852 47.1234 70.1932 46.9271Z" fill="#263238"/>
                    <path d="M80.6739 33.6667C81.8415 32.9717 82.7589 33.5346 82.7589 34.8759C82.7249 35.6095 82.5183 36.3247 82.1561 36.9635C81.7938 37.6023 81.286 38.1467 80.6739 38.5525C79.4994 39.2474 78.5333 38.6775 78.5264 37.3293C78.5717 36.593 78.7897 35.8778 79.1628 35.2415C79.5359 34.6052 80.0535 34.0657 80.6739 33.6667Z" fill="#263238"/>
                    <path d="M80.6806 203.634C83.0644 202.244 84.9896 203.349 84.9965 206.094C84.9208 207.592 84.4931 209.051 83.7481 210.353C83.0031 211.654 81.9617 212.762 80.7084 213.586C78.3246 214.976 76.3439 213.836 76.3369 211.091C76.4236 209.594 76.8621 208.139 77.6168 206.843C78.3715 205.547 79.4212 204.448 80.6806 203.634Z" fill="#263238"/>
                    <path d="M137.746 35.9393L133.236 33.5485C132.929 33.313 132.559 33.1735 132.174 33.1475C131.788 33.1215 131.403 33.2103 131.067 33.4026L53.5758 77.5068C52.962 77.8554 52.4519 78.3609 52.0978 78.9715C51.7436 79.5821 51.5582 80.2758 51.5603 80.9817V226.638C51.5584 227.037 51.6777 227.428 51.9023 227.758C52.1268 228.088 52.4462 228.342 52.8183 228.487L57.3566 230.926L57.426 230.961C57.719 231.121 58.0476 231.206 58.3817 231.206C58.7157 231.206 59.0444 231.121 59.3373 230.961L136.843 186.794C137.455 186.443 137.963 185.937 138.317 185.327C138.671 184.717 138.858 184.024 138.858 183.319V37.7254C138.862 37.3528 138.759 36.9869 138.562 36.6705C138.365 36.3542 138.082 36.1005 137.746 35.9393Z" fill="#2A8EF1"/>
                    <path opacity="0.3" d="M138.886 42.8058V37.7254C138.887 37.3498 138.78 36.9817 138.578 36.6651C138.376 36.3484 138.087 36.0965 137.746 35.9393L133.236 33.5485C132.929 33.313 132.559 33.1735 132.174 33.1475C131.788 33.1215 131.403 33.2103 131.067 33.4026L53.5758 77.5068C52.962 77.8554 52.4519 78.3609 52.0978 78.9715C51.7436 79.5821 51.5582 80.2758 51.5603 80.9817V87.6675L56.3766 90.4475L138.886 42.8058Z" fill="white"/>
                    <path opacity="0.5" d="M137.746 35.9393L133.236 33.5485C132.929 33.313 132.559 33.1735 132.174 33.1475C131.788 33.1215 131.403 33.2103 131.067 33.4026L53.5758 77.5068C52.962 77.8554 52.4519 78.3609 52.0978 78.9715C51.7436 79.5821 51.5582 80.2758 51.5603 80.9817V226.638C51.5584 227.037 51.6777 227.428 51.9023 227.758C52.1268 228.088 52.4462 228.342 52.8183 228.487L57.3566 230.926L57.426 230.961C57.719 231.121 58.0476 231.206 58.3817 231.206C58.7157 231.206 59.0444 231.121 59.3373 230.961L136.843 186.794C137.455 186.443 137.963 185.937 138.317 185.327C138.671 184.717 138.858 184.024 138.858 183.319V37.7254C138.862 37.3528 138.759 36.9869 138.562 36.6705C138.365 36.3542 138.082 36.1005 137.746 35.9393Z" fill="white"/>
                    <path opacity="0.3" d="M51.5604 80.9748V226.638C51.5585 227.037 51.6778 227.428 51.9023 227.758C52.1269 228.088 52.4463 228.342 52.8183 228.487L57.3566 230.926C57.055 230.751 56.8048 230.5 56.6315 230.197C56.4583 229.894 56.3679 229.551 56.3697 229.203V83.5532C56.3697 83.018 56.4784 82.4883 56.6894 81.9964L51.9566 79.2303C51.6916 79.7734 51.556 80.3705 51.5604 80.9748Z" fill="#2A8EF1"/>
                    <path opacity="0.4" d="M133.25 33.5416C132.943 33.306 132.573 33.1665 132.188 33.1405C131.802 33.1146 131.417 33.2033 131.081 33.3956L53.5759 77.5067C52.8737 77.9037 52.309 78.5048 51.9565 79.2303L56.6964 82.0103C57.0284 81.2001 57.62 80.523 58.3783 80.0852L135.905 35.988C136.184 35.8283 136.498 35.7404 136.819 35.7319C137.141 35.7234 137.459 35.7946 137.746 35.9393L133.25 33.5416Z" fill="white"/>
                    <path d="M79.9925 82.3578C90.2228 76.4503 98.5349 81.1902 98.5697 92.9355C98.6044 104.681 90.341 118.984 80.1176 124.905C69.8943 130.826 61.5822 126.066 61.5475 114.32C61.5127 102.575 69.7762 88.2652 79.9925 82.3578Z" fill="#2A8EF1"/>
                    <path d="M89.361 93.3178C90.3655 92.5982 91.0649 91.5293 91.3221 90.3207C91.5792 89.1121 91.3756 87.8511 90.751 86.7849C91.3106 86.5305 91.7701 86.0979 92.0576 85.5547C92.175 85.291 92.2107 84.9981 92.1602 84.7138C92.1096 84.4296 91.9751 84.167 91.774 83.9599C91.5728 83.7527 91.3143 83.6106 91.0316 83.5517C90.749 83.4929 90.4552 83.52 90.1881 83.6296C90.3358 83.2033 90.3367 82.7397 90.1906 82.3128C90.0445 81.8859 89.7598 81.5201 89.3819 81.2736C88.9962 81.0602 88.5485 80.9873 88.1151 81.0671C87.6817 81.147 87.2893 81.3747 87.005 81.7114C87.0149 81.4326 86.9342 81.158 86.7751 80.9288C86.6161 80.6995 86.3871 80.5279 86.1224 80.4396C85.5764 80.297 84.999 80.3335 84.4753 80.5439C83.9471 80.7245 83.4536 80.9886 82.9185 81.1554C82.0087 81.382 81.0759 81.5032 80.1385 81.5168C79.1935 81.5193 78.2641 81.7583 77.435 82.2118C76.975 82.4921 76.621 82.9171 76.4285 83.4202C76.2361 83.9233 76.2161 84.4761 76.3717 84.9918C76.2368 84.8184 76.0667 84.6754 75.8727 84.5724C75.6786 84.4694 75.465 84.4086 75.2458 84.3941C75.0298 84.3874 74.8149 84.4274 74.6158 84.5113C74.4167 84.5953 74.238 84.7212 74.0921 84.8806C74.6828 85.2489 75.2527 85.6381 75.8365 86.0065C75.5017 85.9116 75.1451 85.928 74.8204 86.0534C74.4958 86.1787 74.2207 86.4062 74.0365 86.7015C73.7616 87.2962 73.6535 87.9544 73.7237 88.6058C73.7835 91.089 74.2073 93.55 74.9817 95.9101C75.3848 97.1263 76.33 98.6484 77.4836 99.2113L89.361 93.3178Z" fill="#37474F"/>
                    <path d="M87.4358 102.596L90.2158 104.994L91.7378 113.48C92.9471 111.663 94.0225 109.76 94.9556 107.788C93.6421 104.542 92.6274 102.596 87.4358 102.596Z" fill="#EBEBEB"/>
                    <path d="M80.1175 124.891C84.9199 122.111 89.2844 117.49 92.5648 112.145C92.3007 107.551 91.6196 102.596 87.4358 102.596L75.0024 102.686L72.4656 102.957L71.2703 127.414C73.8973 127.546 76.9136 126.74 80.1175 124.891Z" fill="#2A8EF1"/>
                    <g opacity="0.4">
                    <path d="M80.1175 124.891C84.9199 122.111 89.2844 117.49 92.5648 112.145C92.3007 107.551 91.6196 102.596 87.4358 102.596L75.0024 102.686L72.4656 102.957L71.2703 127.414C73.8973 127.546 76.9136 126.74 80.1175 124.891Z" fill="white"/>
                    </g>
                    <path d="M85.3996 104.25C86.5602 107.947 85.8374 113.111 85.3996 115.432C82.4598 111.381 79.7007 107.322 78.8389 105.703L82.9463 103.708L85.3996 104.25Z" fill="#EBEBEB"/>
                    <path d="M83.6829 107.649L84.6975 107.405C85.1926 108.699 85.6058 110.022 85.9346 111.367C85.8284 112.73 85.6497 114.088 85.3995 115.432C84.8226 114.633 84.2528 113.841 83.7037 113.063C83.881 111.262 83.874 109.448 83.6829 107.649Z" fill="#455A64"/>
                    <path opacity="0.2" d="M83.7107 107.864C83.7107 107.794 83.7107 107.718 83.7107 107.649L84.7254 107.405L84.7879 107.558C84.6241 107.707 84.4258 107.812 84.2111 107.864C84.0454 107.891 83.8764 107.891 83.7107 107.864Z" fill="#525252"/>
                    <path d="M83.1407 104.994L82.3415 104.479L80.4858 105.494C81.1298 105.98 81.8989 106.271 82.7029 106.335L83.1407 104.994Z" fill="#455A64"/>
                    <path d="M84.3708 104.799L84.6141 104.25L85.5523 104.841C85.4513 105.194 85.2393 105.506 84.9477 105.73L84.3708 104.799Z" fill="#455A64"/>
                    <path opacity="0.2" d="M83.1407 104.994L82.3415 104.479L80.4858 105.494C81.1298 105.98 81.8989 106.271 82.7029 106.335L83.1407 104.994Z" fill="#525252"/>
                    <path opacity="0.2" d="M84.3708 104.799L84.6141 104.25L85.5523 104.841C85.4513 105.194 85.2393 105.506 84.9477 105.73L84.3708 104.799Z" fill="#525252"/>
                    <path d="M82.7029 106.335C82.781 105.849 82.9383 105.38 83.1685 104.945L84.3987 104.75C84.6248 105.038 84.8183 105.351 84.9755 105.682C84.9993 106.251 84.9144 106.819 84.7253 107.357C84.4126 107.521 84.0638 107.605 83.7106 107.6C83.252 107.293 82.8999 106.851 82.7029 106.335Z" fill="#455A64"/>
                    <path d="M83.5717 104.563C81.6188 104.563 80.4303 106.085 78.6442 106.648L75.0024 102.721L76.3924 100.636C76.6759 100.218 77.0427 99.8633 77.4697 99.5936V100.351C77.476 100.574 77.5386 100.791 77.6516 100.983C77.7646 101.175 77.9244 101.336 78.116 101.449L83.5717 104.563Z" fill="#E0E0E0"/>
                    <path d="M83.5718 104.563C84.6629 104.222 86.2822 105.577 86.2822 105.577C85.7124 102.443 83.9957 101.206 83.5787 101.206L83.5718 104.563Z" fill="#E0E0E0"/>
                    <path d="M72.4658 102.957L70.777 103.221C69.7838 103.386 68.8638 103.848 68.139 104.546C67.4143 105.245 66.9188 106.148 66.7183 107.134C65.7746 111.84 65.4058 116.643 65.6202 121.437L73.3207 117.893C74.1269 111.895 75.7045 106.912 72.4658 102.957Z" fill="#EBEBEB"/>
                    <path d="M73.2373 120.568V119.873C73.2441 119.751 73.2991 119.636 73.3902 119.554C73.4381 119.511 73.4765 119.458 73.5028 119.4C73.5292 119.341 73.5429 119.277 73.5431 119.213V118.15C73.5431 118.078 73.5288 118.008 73.501 117.942C73.4733 117.876 73.4326 117.816 73.3814 117.766C73.3303 117.717 73.2696 117.677 73.2031 117.651C73.1365 117.625 73.0655 117.613 72.994 117.615C69.5191 117.656 66.1275 119.317 65.2032 121.263C64.9902 121.873 64.9902 122.537 65.2032 123.147C64.5985 123.939 64.8904 124.342 65.2032 124.905C65.5132 125.205 65.8454 125.482 66.197 125.732C68.4835 122.077 73.2373 120.568 73.2373 120.568Z" fill="#E0E0E0"/>
                    <path opacity="0.2" d="M69.6302 119.79C67.9233 120.54 66.4165 121.68 65.2309 123.119C65.1613 122.914 65.1124 122.702 65.085 122.487C66.2392 121.085 67.847 120.131 69.6302 119.79Z" fill="#525252"/>
                    <path opacity="0.2" d="M73.55 119.373C73.5266 119.454 73.4808 119.526 73.418 119.582C73.3269 119.664 73.2719 119.779 73.2651 119.901V119.957C70.8304 120.328 68.578 121.468 66.8364 123.209C68.4488 120.874 71.9863 119.679 73.55 119.373Z" fill="#525252"/>
                    <path d="M80.1175 124.891C83.0908 123.114 85.7647 120.879 88.0404 118.268C83.5716 118.268 77.3445 118.539 73.2649 119.957V120.568C73.2649 120.568 68.5112 122.076 66.2524 125.704C69.6301 128.158 74.5923 128.081 80.1175 124.891Z" fill="#FFA8A7"/>
                    <path opacity="0.2" d="M73.5707 120.589L73.6541 119.825L73.2649 119.957V120.568C72.1536 120.952 71.0883 121.458 70.0888 122.077C69.7772 122.495 69.542 122.966 69.3938 123.467C70.3251 122.146 71.3467 121.625 73.3275 121.111C75.1344 121.389 78.2758 122.723 81.4797 124.057C81.7855 123.856 82.0913 123.647 82.3901 123.432C78.4843 122.118 74.5715 120.659 73.5707 120.589Z" fill="#525252"/>
                    <path d="M79.7353 99.684H79.6797C79.2739 99.473 78.9176 99.1779 78.6348 98.8184C78.352 98.4588 78.149 98.0431 78.0396 97.599C77.9423 97.1542 77.8519 96.7024 77.7824 96.2507C77.7129 95.799 77.4141 96.2507 77.4141 96.2507C77.4141 96.2507 77.4141 97.2515 77.4627 98.4469C77.4627 99.0724 77.4627 99.7535 77.5044 100.372C77.5113 100.594 77.5742 100.81 77.6872 101.001C77.8002 101.192 77.9597 101.351 78.1508 101.463L83.5717 104.625V100.706C82.2375 100.625 80.933 100.277 79.7353 99.684Z" fill="#FFA8A7"/>
                    <path opacity="0.2" d="M78.964 99.6075C78.6378 99.1979 78.401 98.7243 78.269 98.2175C78.5705 98.8306 79.0566 99.3338 79.659 99.6562H79.7146C80.9144 100.251 82.2214 100.598 83.5579 100.678V101.658C82.7865 101.592 82.0258 101.433 81.2923 101.185C80.384 100.887 79.5775 100.341 78.964 99.6075Z" fill="#525252"/>
                    <path d="M89.6946 87.3408C90.1392 90.7034 89.9172 94.1206 89.0413 97.3974C88.8769 98.1273 88.6077 98.8295 88.2421 99.4823C87.8777 100.133 87.3048 100.642 86.6158 100.928C85.7325 101.164 84.8026 101.164 83.9193 100.928C82.2588 100.736 80.6475 100.241 79.1655 99.4684C77.7755 98.6067 76.6149 97.0499 76.7469 95.3888C76.3411 95.6385 75.8792 95.7826 75.4033 95.8081C74.9275 95.8336 74.4528 95.7396 74.0226 95.5348C73.6028 95.303 73.2467 94.9711 72.9861 94.5685C72.7254 94.166 72.5682 93.7053 72.5283 93.2274C72.4398 92.8524 72.4753 92.4588 72.6297 92.1058C72.784 91.7528 73.0488 91.4594 73.3842 91.2697C73.7196 91.0801 74.1075 91.0045 74.4896 91.0542C74.8716 91.1039 75.2272 91.2764 75.5029 91.5455C75.9364 91.9154 76.3114 92.349 76.6149 92.8313C76.7547 93.0644 76.9417 93.2656 77.1639 93.422C77.2774 93.4967 77.4103 93.5366 77.5462 93.5366C77.6821 93.5366 77.815 93.4967 77.9284 93.422C78.0227 93.3084 78.0909 93.1754 78.1282 93.0325C78.1654 92.8896 78.1708 92.7402 78.1439 92.595L78.0466 90.51C78.0412 90.3483 78.0822 90.1885 78.1647 90.0493C78.2472 89.9102 78.3678 89.7975 78.5122 89.7247C78.9459 89.4868 79.2809 89.1025 79.4574 88.6405C79.6077 88.2343 79.6967 87.808 79.7215 87.3756C79.7285 87.2962 79.7537 87.2195 79.795 87.1514C79.8363 87.0832 79.8926 87.0254 79.9597 86.9825C80.0269 86.9395 80.1029 86.9125 80.1821 86.9036C80.2613 86.8946 80.3415 86.9039 80.4165 86.9308C83.3948 88.0118 86.6326 88.1549 89.6946 87.3408Z" fill="#FFA8A7"/>
                    <path d="M85.0659 92.4421L86.9562 95.6322L84.6975 96.0561L85.0659 92.4421Z" fill="#F28F8F"/>
                    <path d="M82.5224 97.1542L84.239 97.9882C84.0913 98.1819 83.8849 98.3225 83.6505 98.3889C83.4162 98.4553 83.1667 98.444 82.9394 98.3565C82.7422 98.2346 82.593 98.0485 82.5171 97.8295C82.4411 97.6105 82.443 97.372 82.5224 97.1542Z" fill="#F28F8F"/>
                    <path opacity="0.3" d="M82.5224 97.1542L84.239 97.9882C84.0913 98.1819 83.8849 98.3225 83.6505 98.3889C83.4162 98.4553 83.1667 98.444 82.9394 98.3565C82.7422 98.2346 82.593 98.0485 82.5171 97.8295C82.4411 97.6105 82.443 97.372 82.5224 97.1542Z" fill="#525252"/>
                    <path d="M83.5369 98.4121C83.3364 98.4506 83.1291 98.4313 82.9392 98.3565C82.7812 98.269 82.653 98.1362 82.5713 97.9751C82.4895 97.8141 82.4579 97.6322 82.4805 97.453C82.7332 97.4443 82.9804 97.5283 83.1755 97.6893C83.2805 97.7799 83.3665 97.8905 83.4285 98.0145C83.4906 98.1386 83.5274 98.2737 83.5369 98.4121Z" fill="#F28F8F"/>
                    <path d="M81.7926 92.5741C81.7806 92.7018 81.8069 92.8301 81.868 92.9428C81.9292 93.0555 82.0224 93.1475 82.136 93.2071C82.2495 93.2666 82.3782 93.291 82.5057 93.2772C82.6332 93.2634 82.7537 93.212 82.8519 93.1295C82.95 93.0471 83.0215 92.9373 83.0571 92.8141C83.0927 92.6909 83.0908 92.5599 83.0518 92.4378C83.0127 92.3157 82.9382 92.2079 82.8378 92.1282C82.7373 92.0485 82.6154 92.0006 82.4876 91.9903C82.3187 91.9786 82.1518 92.0329 82.0222 92.1418C81.8925 92.2507 81.8102 92.4057 81.7926 92.5741Z" fill="#263238"/>
                    <path d="M87.2342 92.9078C87.2208 93.0355 87.2458 93.1644 87.306 93.2779C87.3662 93.3914 87.4589 93.4844 87.5722 93.5451C87.6855 93.6057 87.8142 93.6311 87.9421 93.6182C88.0699 93.6053 88.191 93.5546 88.2899 93.4725C88.3887 93.3904 88.4609 93.2808 88.4971 93.1575C88.5334 93.0342 88.5321 92.903 88.4934 92.7805C88.4547 92.6579 88.3803 92.5497 88.2799 92.4697C88.1794 92.3896 88.0573 92.3413 87.9292 92.3309C87.7606 92.3155 87.5928 92.3675 87.4625 92.4756C87.3322 92.5838 87.2501 92.7392 87.2342 92.9078Z" fill="#263238"/>
                    <path d="M88.1169 90.4058L89.4444 91.5386C89.5254 91.3679 89.5523 91.1765 89.5212 90.9901C89.4901 90.8037 89.4027 90.6313 89.2706 90.4961C89.1051 90.3766 88.91 90.305 88.7065 90.289C88.503 90.2731 88.299 90.3135 88.1169 90.4058Z" fill="#263238"/>
                    <path d="M82.6058 89.7734L81.0768 90.6143C81.0306 90.4322 81.0419 90.2403 81.109 90.0648C81.1762 89.8894 81.2961 89.739 81.4521 89.6344C81.6381 89.5473 81.8449 89.5142 82.0488 89.5388C82.2527 89.5633 82.4457 89.6446 82.6058 89.7734Z" fill="#263238"/>
                    <path d="M113.706 88.4945L113.713 90.2876L105.679 94.9301L105.672 93.1301L113.706 88.4945Z" fill="white"/>
                    <path d="M117.939 97.0847V98.8778L105.714 105.939L105.707 104.146L117.939 97.0847Z" fill="white"/>
                    <path d="M121.942 91.1077V92.9007L105.7 102.283L105.693 100.483L121.942 91.1077Z" fill="white"/>
                    <path d="M128.274 76.4226L128.281 78.2157L105.672 91.2676L105.666 89.4746L128.274 76.4226Z" fill="white"/>
                    <path d="M132.749 70.1399V71.933L105.659 87.5772L105.652 85.7842L132.749 70.1399Z" fill="white"/>
                    <path d="M127.106 66.5815L127.12 70.1746L105.645 82.5733L105.638 78.9802L127.106 66.5815Z" fill="white"/>
                    <path d="M60.7622 138.847V225.109L92.565 206.984V120.499L60.7622 138.847Z" fill="#2A8EF1"/>
                    <path d="M134.501 96.2993L94.6082 119.317V205.823L134.501 183.09V96.2993Z" fill="#2A8EF1"/>
                    <g opacity="0.7">
                    <path d="M60.7622 138.847V225.109L92.565 206.984V120.499L60.7622 138.847Z" fill="white"/>
                    <path d="M134.501 96.2993L94.6084 119.317V205.823L134.501 183.09V96.2993Z" fill="white"/>
                    </g>
                    <path d="M118.884 171.511V173.061L100.015 183.959L100.008 182.409L118.884 171.511Z" fill="#2A8EF1"/>
                    <path d="M129.226 162.671L129.233 164.221L100.008 181.095L100.001 179.538L129.226 162.671Z" fill="#2A8EF1"/>
                    <path d="M113.727 168.745L113.734 170.295L100.001 178.225L99.9944 176.675L113.727 168.745Z" fill="#2A8EF1"/>
                    <path d="M129.212 156.937L129.219 158.487L99.9943 175.361L99.9873 173.812L129.212 156.937Z" fill="#2A8EF1"/>
                    <path d="M129.205 154.067V155.624L99.9805 172.498V170.941L129.205 154.067Z" fill="#2A8EF1"/>
                    <path d="M107.014 159.912V161.462L99.9667 165.534L99.9597 163.978L107.014 159.912Z" fill="#2A8EF1"/>
                    <path d="M129.177 144.247V145.797L99.9526 162.664V161.114L129.177 144.247Z" fill="#2A8EF1"/>
                    <path d="M129.163 141.383L129.17 142.933L99.9458 159.801V158.251L129.163 141.383Z" fill="#2A8EF1"/>
                    <path d="M129.156 138.52L129.163 140.063L99.9388 156.937L99.9319 155.387L129.156 138.52Z" fill="#2A8EF1"/>
                    <path d="M118.787 137.568V139.118L99.9178 150.008L99.9109 148.458L118.787 137.568Z" fill="#2A8EF1"/>
                    <path d="M129.128 128.721L129.135 130.277L99.911 147.145L99.9041 145.595L129.128 128.721Z" fill="#2A8EF1"/>
                    <path d="M129.121 125.857L129.128 127.407L99.9039 144.275L99.897 142.732L129.121 125.857Z" fill="#2A8EF1"/>
                    <path d="M129.107 120.124L129.114 121.673L99.8831 138.548V136.998L129.107 120.124Z" fill="#2A8EF1"/>
                    <path d="M129.115 122.994L129.121 124.544L99.8971 141.411L99.8901 139.861L129.115 122.994Z" fill="#2A8EF1"/>
                    <path d="M124.729 110.102V111.652L99.8484 126.017V124.467L124.729 110.102Z" fill="#2A8EF1"/>
                    <path d="M126.494 114.821L126.501 116.371L99.8693 131.751L99.8623 130.194L126.494 114.821Z" fill="#2A8EF1"/>
                    <path d="M117.383 117.212V118.761L99.8624 128.88L99.8555 127.331L117.383 117.212Z" fill="#2A8EF1"/>
                    <path d="M129.066 104.73V106.279L99.8416 123.154V121.604L129.066 104.73Z" fill="#2A8EF1"/>
                    <path d="M129.267 177.106L129.274 178.656L100.05 195.53L100.043 193.98L129.267 177.106Z" fill="#2A8EF1"/>
                    <path d="M113.79 188.914V190.464L100.057 198.393L100.05 196.844L113.79 188.914Z" fill="#2A8EF1"/>
                    <path d="M121.908 178.489L121.914 180.039L100.043 192.667L100.036 191.117L121.908 178.489Z" fill="#2A8EF1"/>
                    <path d="M129.253 171.372V172.929L100.029 189.803V188.247L129.253 171.372Z" fill="#2A8EF1"/>
                    <g opacity="0.1">
                    <path d="M118.884 171.511V173.061L100.015 183.959L100.008 182.409L118.884 171.511Z" fill="white"/>
                    <path d="M129.226 162.671L129.233 164.221L100.008 181.095L100.001 179.538L129.226 162.671Z" fill="white"/>
                    <path d="M113.727 168.745L113.734 170.295L100.001 178.225L99.9944 176.675L113.727 168.745Z" fill="white"/>
                    <path d="M129.212 156.937L129.219 158.487L99.9943 175.362L99.9873 173.812L129.212 156.937Z" fill="white"/>
                    <path d="M129.205 154.067V155.624L99.9805 172.498V170.941L129.205 154.067Z" fill="white"/>
                    </g>
                    <g opacity="0.4">
                    <path d="M107.014 159.912V161.462L99.9667 165.534L99.9597 163.978L107.014 159.912Z" fill="white"/>
                    <path d="M129.177 144.247V145.797L99.9526 162.664V161.114L129.177 144.247Z" fill="white"/>
                    <path d="M129.163 141.383L129.17 142.933L99.9458 159.801V158.251L129.163 141.383Z" fill="white"/>
                    <path d="M129.156 138.52L129.163 140.063L99.9388 156.937L99.9319 155.387L129.156 138.52Z" fill="white"/>
                    </g>
                    <g opacity="0.1">
                    <path d="M118.787 137.568V139.118L99.9178 150.008L99.9109 148.459L118.787 137.568Z" fill="white"/>
                    <path d="M129.128 128.721L129.135 130.277L99.9108 147.145L99.9038 145.595L129.128 128.721Z" fill="white"/>
                    <path d="M129.121 125.857L129.128 127.407L99.9039 144.275L99.897 142.732L129.121 125.857Z" fill="white"/>
                    <path d="M129.107 120.124L129.114 121.673L99.8831 138.548V136.998L129.107 120.124Z" fill="white"/>
                    <path d="M129.114 122.994L129.121 124.544L99.8968 141.411L99.8899 139.861L129.114 122.994Z" fill="white"/>
                    </g>
                    <g opacity="0.4">
                    <path d="M124.729 110.102V111.652L99.8484 126.017V124.467L124.729 110.102Z" fill="white"/>
                    <path d="M126.494 114.821L126.501 116.371L99.8693 131.751L99.8623 130.194L126.494 114.821Z" fill="white"/>
                    <path d="M117.383 117.212V118.762L99.8624 128.881L99.8555 127.331L117.383 117.212Z" fill="white"/>
                    <path d="M129.066 104.73V106.279L99.8416 123.154V121.604L129.066 104.73Z" fill="white"/>
                    </g>
                    <g opacity="0.4">
                    <path d="M129.267 177.106L129.274 178.656L100.05 195.53L100.043 193.98L129.267 177.106Z" fill="white"/>
                    <path d="M113.79 188.914V190.464L100.057 198.394L100.05 196.844L113.79 188.914Z" fill="white"/>
                    <path d="M121.907 178.489L121.914 180.039L100.043 192.667L100.036 191.117L121.907 178.489Z" fill="white"/>
                    <path d="M129.253 171.372V172.929L100.029 189.803V188.247L129.253 171.372Z" fill="white"/>
                    </g>
                    <path d="M84.5099 132.057L84.5168 135.045L64.7096 146.457L64.7026 143.468L84.5099 132.057Z" fill="#2A8EF1"/>
                    <path d="M81.7647 139.34L81.7716 140.827L64.7235 150.648L64.7166 149.16L81.7647 139.34Z" fill="white"/>
                    <path d="M89.6041 193.716L89.6111 196.698L82.2998 200.923L82.2859 197.942L89.6041 193.716Z" fill="#2A8EF1"/>
                    <path d="M75.4333 169.795L75.4402 172.776L64.7999 178.899L64.793 175.918L75.4333 169.795Z" fill="#2A8EF1"/>
                    <path d="M81.9175 192.18V193.675L64.8694 203.495V202.001L81.9175 192.18Z" fill="white"/>
                    <path d="M84.6698 187.837V189.324L64.8625 200.736V199.248L84.6698 187.837Z" fill="white"/>
                    <path d="M89.4443 182.312L89.4512 183.806L64.8555 197.984V196.482L89.4443 182.312Z" fill="white"/>
                    <path d="M84.642 179.386L84.6559 182.367L64.8486 193.786L64.8347 190.797L84.642 179.386Z" fill="#2A8EF1"/>
                    <path d="M86.4072 171.921L86.4142 173.409L64.8208 185.856V184.362L86.4072 171.921Z" fill="white"/>
                    <path d="M82.3902 171.477L82.3971 172.971L64.8138 183.097L64.8069 181.61L82.3902 171.477Z" fill="white"/>
                    <path d="M89.3889 161.74L89.3958 164.721L77.5323 171.574L77.5254 168.585L89.3889 161.74Z" fill="#2A8EF1"/>
                    <path d="M83.5508 155.916L83.5577 157.41L64.7721 168.231L64.7651 166.737L83.5508 155.916Z" fill="white"/>
                    <path d="M85.3997 157.611L85.4066 159.106L64.7793 170.99V169.496L85.3997 157.611Z" fill="white"/>
                    <path d="M87.7347 150.745V152.232L64.7653 165.472L64.7583 163.985L87.7347 150.745Z" fill="white"/>
                    <path d="M84.5516 146.881L84.5586 149.862L64.7513 161.274L64.7444 158.293L84.5516 146.881Z" fill="#2A8EF1"/>
                    <path d="M76.0798 145.387V146.874L64.7306 153.407L64.7236 151.92L76.0798 145.387Z" fill="white"/>
                    <path d="M86.6018 203.912V205.406L64.9111 217.902V216.415L86.6018 203.912Z" fill="white"/>
                    <path d="M83.224 203.092L83.231 204.586L64.9041 215.15V213.649L83.224 203.092Z" fill="white"/>
                    <path d="M79.4851 199.561L79.492 202.543L64.8972 210.945L64.8833 207.964L79.4851 199.561Z" fill="#2A8EF1"/>
                    <path d="M179.933 242.637C180.584 243.259 181.356 243.741 182.201 244.051C183.047 244.362 183.947 244.496 184.846 244.444C186.644 244.323 188.405 243.878 190.045 243.13C191.713 242.435 193.798 240.531 195.605 240.566C197.361 240.552 199.116 240.434 200.859 240.211C200.923 237.814 200.673 235.419 200.115 233.087L191.72 232.865C189.454 235.965 185.048 238.55 181.712 239.516C181.196 239.66 180.73 239.942 180.362 240.332C179.995 240.721 179.741 241.203 179.627 241.726C179.627 241.726 179.627 241.761 179.627 241.782C179.692 242.079 179.794 242.366 179.933 242.637Z" fill="#37474F"/>
                    <path d="M195.597 240.566C193.797 240.531 191.712 242.449 190.038 243.13C188.398 243.878 186.637 244.323 184.839 244.444C183.94 244.496 183.04 244.362 182.194 244.051C181.349 243.741 180.577 243.259 179.925 242.637C179.792 242.365 179.694 242.078 179.634 241.782C179.634 241.782 179.634 241.747 179.634 241.726C179.558 242.095 179.558 242.476 179.634 242.845C179.694 243.141 179.792 243.429 179.925 243.7C180.576 244.324 181.348 244.806 182.193 245.117C183.039 245.428 183.94 245.561 184.839 245.507C186.637 245.39 188.399 244.945 190.038 244.193C191.706 243.498 193.791 241.594 195.597 241.636C197.328 241.647 199.057 241.547 200.775 241.337C200.817 240.962 200.838 240.586 200.852 240.211C199.109 240.434 197.354 240.552 195.597 240.566Z" fill="#263238"/>
                    <path d="M221.458 247.307C221.466 248.224 221.375 249.14 221.187 250.038C220.896 251.638 220.003 253.066 218.692 254.028C217.489 254.704 216.132 255.061 214.752 255.063C213.528 255.197 212.289 255.071 211.117 254.695C210.233 254.374 209.485 253.761 208.997 252.957C208.994 252.973 208.994 252.99 208.997 253.006C209.168 253.596 209.48 254.136 209.907 254.579C210.333 255.023 210.86 255.355 211.443 255.55C212.613 255.928 213.849 256.056 215.071 255.925C216.463 255.922 217.83 255.558 219.04 254.868C220.353 253.912 221.247 252.485 221.535 250.886C221.722 249.988 221.813 249.072 221.806 248.155C221.812 247.528 221.945 246.908 222.197 246.333C222.449 245.759 222.815 245.241 223.272 244.812C223.499 244.606 223.713 244.385 223.912 244.152C224.052 243.99 224.159 243.801 224.226 243.597C224.293 243.393 224.318 243.177 224.301 242.963C224.301 242.796 224.301 242.63 224.252 242.463C223.918 242.852 223.14 243.769 222.946 243.957C222.48 244.383 222.108 244.9 221.852 245.477C221.596 246.053 221.462 246.676 221.458 247.307Z" fill="#263238"/>
                    <path d="M214.571 237.792C214.874 239.674 214.633 241.603 213.876 243.352C213.115 245.08 212.129 246.7 210.943 248.169C210.365 248.867 209.851 249.616 209.407 250.407C208.978 251.196 208.826 252.106 208.976 252.992C209.464 253.796 210.212 254.409 211.096 254.729C212.277 255.097 213.523 255.211 214.752 255.063C216.143 255.061 217.51 254.7 218.72 254.014C220.031 253.052 220.924 251.624 221.215 250.024C221.403 249.126 221.494 248.211 221.486 247.293C221.489 246.666 221.621 246.047 221.873 245.473C222.125 244.899 222.493 244.383 222.953 243.957C223.147 243.769 223.925 242.852 224.259 242.463C224.076 241.097 223.617 239.782 222.911 238.599L214.571 237.792Z" fill="#37474F"/>
                    <path d="M191.365 159.265C191.365 159.265 189.238 187.155 189.426 194.911C189.614 202.668 190.385 233.317 190.385 233.317C194.736 235.86 201.012 233.963 201.012 233.963C201.519 209.499 203.791 204.231 202.256 195.28C203.368 188.629 204.897 173.137 204.897 173.137C207.058 191.77 208.629 201.375 208.629 201.375L213.799 238.675C218.046 240.892 223.404 238.675 223.404 238.675C223.404 217.408 223.863 208.415 221.646 194.383C221.528 172.776 220.437 159.634 220.437 159.634L191.365 159.265Z" fill="#455A64"/>
                    <path opacity="0.2" d="M196.501 166.473C197.981 170.1 202.631 170.1 202.631 170.1L203.458 174.229L203.152 188.921C204.042 181.776 204.896 173.137 204.896 173.137L204.32 168.717C201.534 168.88 198.776 168.088 196.501 166.473Z" fill="#525252"/>
                    <path d="M177.312 128.13L173.983 131.111L164.768 121.236C163.877 120.276 163.247 119.103 162.94 117.83L162.419 115.634C162.277 115.062 162.058 114.512 161.765 114.001C161.314 113.229 160.834 112.451 160.424 111.686C160.319 111.43 160.134 111.216 159.896 111.075C159.747 111.019 159.585 111.01 159.432 111.049C159.278 111.087 159.139 111.171 159.034 111.29C158.835 111.537 158.731 111.848 158.742 112.166C158.763 112.482 158.819 112.794 158.909 113.097C159.041 113.57 159.166 114.042 159.298 114.522C159.359 114.715 159.39 114.917 159.389 115.12C159.388 115.222 159.364 115.322 159.316 115.413C159.269 115.504 159.201 115.582 159.117 115.641C158.721 115.877 153.036 110.602 152.091 108.184C151.834 107.537 149.798 107.913 151.028 110.554C150.812 110.736 150.642 110.966 150.53 111.225C150.418 111.484 150.367 111.766 150.381 112.048L150.263 114.202C150.197 114.898 150.223 115.599 150.34 116.287C150.627 117.312 151.161 118.25 151.897 119.018C153.179 120.446 154.759 121.576 156.525 122.327C157.855 122.912 158.99 123.864 159.799 125.072L168.611 138.36C169.1 139.091 169.737 139.712 170.48 140.183C171.223 140.654 172.056 140.965 172.926 141.096C173.796 141.227 174.683 141.174 175.532 140.943C176.381 140.711 177.172 140.305 177.854 139.75L182.511 135.983L177.312 128.13Z" fill="#FFA8A7"/>
                    <path d="M193.276 115.745C188.752 115.481 187.563 117.83 184.707 120.513C181.851 123.195 176.471 128.352 176.471 128.352C176.679 130.145 177.335 131.857 178.378 133.331C179.422 134.804 180.819 135.991 182.441 136.782L192.401 129.436L193.276 115.745Z" fill="#455A64"/>
                    <path d="M221.187 161.378C221.187 161.378 204.32 167.55 190.608 159.863C190.608 159.863 191.442 150.05 191.685 144.33C191.928 138.61 189.961 127.567 189.662 124.606C189.364 121.646 189.767 116.517 193.256 115.745C199.726 114.355 211.888 115.745 211.888 115.745L219.151 123.765C222.23 139.444 221.702 155.909 221.187 161.378Z" fill="#2A8EF1"/>
                    <path opacity="0.3" d="M221.187 161.378C221.187 161.378 204.32 167.55 190.608 159.863C190.608 159.863 191.442 150.05 191.685 144.33C191.928 138.61 189.961 127.567 189.662 124.606C189.364 121.646 189.767 116.517 193.256 115.745C199.726 114.355 211.888 115.745 211.888 115.745L219.151 123.765C222.23 139.444 221.702 155.909 221.187 161.378Z" fill="white"/>
                    <path d="M178.445 157.764C178.445 157.764 178.445 157.764 178.445 157.729C178.445 157.695 178.445 157.695 178.445 157.66C178.449 157.649 178.449 157.637 178.445 157.625V157.584L171.662 144.657V144.615V144.58V144.539V144.497V144.455L171.627 144.413V144.372V144.337L171.53 144.247H171.495H171.454H171.412H171.363L163.531 139.729H163.482H163.44H163.399H163.357H163.315H163.274H163.232H163.19H163.148H163.003C162.98 139.727 162.957 139.73 162.936 139.737C162.914 139.744 162.894 139.756 162.877 139.771L161.925 140.841H161.96C161.884 140.897 161.877 141.022 161.96 141.237L167.492 152.816C167.867 153.41 168.38 153.906 168.986 154.261L176.812 158.786C177.215 159.015 177.458 159.022 177.507 158.855C177.507 158.855 177.507 158.911 177.507 158.932L178.459 157.868C178.461 157.852 178.461 157.836 178.459 157.82C178.459 157.82 178.459 157.82 178.459 157.771L178.445 157.764ZM160.883 139.597C160.883 139.597 160.883 139.597 160.938 139.597H160.883ZM169.855 144.782C169.932 144.844 170.008 144.907 170.071 144.969C170.008 144.879 169.932 144.817 169.855 144.754V144.782ZM177.486 158.835C177.475 158.744 177.447 158.657 177.403 158.577C177.444 158.651 177.472 158.731 177.486 158.814C177.486 158.814 177.486 158.8 177.486 158.807V158.835Z" fill="#455A64"/>
                    <path opacity="0.15" d="M178.445 157.764C178.445 157.764 178.445 157.764 178.445 157.73C178.445 157.695 178.445 157.695 178.445 157.66C178.449 157.649 178.449 157.637 178.445 157.625V157.584L171.662 144.657L170.71 145.72L177.417 158.55C177.458 158.623 177.486 158.703 177.5 158.786C177.511 158.809 177.517 158.834 177.517 158.859C177.517 158.884 177.511 158.909 177.5 158.932L178.452 157.869C178.454 157.852 178.454 157.836 178.452 157.82C178.452 157.82 178.452 157.82 178.452 157.771L178.445 157.764Z" fill="white"/>
                    <path opacity="0.2" d="M171.662 144.622V144.58V144.545V144.504V144.462V144.42L171.627 144.379V144.337V144.302L171.53 144.212H171.495H171.454H171.412H171.363L163.531 139.694H163.482H163.44H163.399H163.357H163.315H163.274H163.232H163.19H163.148H163.003C162.98 139.693 162.957 139.695 162.936 139.702C162.914 139.71 162.894 139.721 162.877 139.736L161.925 140.806C161.958 140.78 161.997 140.763 162.039 140.757C162.08 140.751 162.123 140.756 162.162 140.772C162.314 140.81 162.459 140.871 162.592 140.952L170.418 145.47C170.569 145.564 170.715 145.666 170.856 145.776C171.004 145.893 171.145 146.019 171.28 146.151C171.412 146.276 171.535 146.411 171.648 146.554C171.747 146.67 171.833 146.795 171.905 146.929L172.858 145.866L171.662 144.622Z" fill="white"/>
                    <path d="M172.079 157.674C169.438 156.013 167.464 152.767 167.861 149.668C167.861 149.668 172.802 152.267 175.019 150.884L173.886 148.729C177.015 148.713 180.053 149.782 182.483 151.753C187.198 150.945 191.807 149.609 196.223 147.77C197.508 147.197 198.835 146.721 200.192 146.346C201.563 145.974 203.013 146.015 204.361 146.464C205.029 146.696 205.627 147.094 206.099 147.62C206.57 148.146 206.9 148.784 207.058 149.473C207.142 150.201 207.045 150.938 206.776 151.619C206.507 152.3 206.074 152.905 205.515 153.379C204.392 154.325 203.09 155.034 201.686 155.464C195.987 157.465 174.727 159.328 172.079 157.674Z" fill="#FFA8A7"/>
                    <path d="M187.946 102.929C186.561 101.931 185.598 100.451 185.246 98.7804C184.894 97.1095 185.177 95.3674 186.041 93.8945C185.26 93.5532 184.622 92.9514 184.234 92.1918C184.068 91.8273 184.016 91.4211 184.084 91.0263C184.153 90.6315 184.339 90.2667 184.619 89.9796C184.898 89.6926 185.258 89.4967 185.651 89.4177C186.044 89.3387 186.451 89.3803 186.82 89.5369C186.611 88.9461 186.608 88.3019 186.811 87.7089C187.014 87.116 187.411 86.6091 187.939 86.2705C188.473 85.978 189.091 85.8784 189.69 85.9886C190.289 86.0987 190.831 86.4118 191.226 86.8751C191.211 86.4898 191.321 86.11 191.541 85.7929C191.76 85.4758 192.076 85.2385 192.442 85.1168C193.198 84.9222 193.997 84.9733 194.722 85.2627C195.452 85.5129 196.112 85.8743 196.883 86.1106C198.152 86.4289 199.454 86.5946 200.761 86.6041C202.074 86.6185 203.362 86.9626 204.507 87.6049C205.605 88.2999 206.592 89.9748 205.981 91.4065C206.167 91.166 206.402 90.9679 206.67 90.8253C206.938 90.6827 207.234 90.5989 207.537 90.5794C207.838 90.5731 208.137 90.6319 208.413 90.7519C208.689 90.8718 208.935 91.0501 209.136 91.2744C208.316 91.7748 207.531 92.3239 206.71 92.8243C207.177 92.6981 207.671 92.7276 208.119 92.9082C208.567 93.0889 208.943 93.4108 209.192 93.825C209.574 94.6469 209.726 95.5576 209.629 96.4591C209.52 99.8836 208.911 103.274 207.822 106.523C207.266 108.197 206.432 109.997 204.869 110.755L187.946 102.929Z" fill="#37474F"/>
                    <path d="M196.598 111.012L196.96 115.022C196.978 115.333 196.898 115.642 196.731 115.905C196.511 116.325 196.427 116.802 196.491 117.271C196.554 117.741 196.762 118.179 197.085 118.525C197.602 118.915 198.23 119.13 198.878 119.137C200.101 119.203 201.324 119.009 202.467 118.568C203.61 118.127 204.646 117.449 205.508 116.579C205.685 116.395 205.823 116.177 205.914 115.938C206.004 115.699 206.046 115.444 206.036 115.189L205.772 105.014L196.598 111.012Z" fill="#FFA8A7"/>
                    <path opacity="0.3" d="M204.966 105.557L196.626 111.012L196.946 114.571C198.892 114.112 200.845 113.549 202.388 112.298C203.353 111.484 204.096 110.439 204.547 109.26C204.998 108.081 205.142 106.807 204.966 105.557Z" fill="#525252"/>
                    <path d="M187.48 94.659C186.871 99.3068 187.178 104.029 188.384 108.559C188.617 109.558 188.989 110.519 189.489 111.415C189.994 112.318 190.79 113.023 191.747 113.417C192.97 113.747 194.257 113.747 195.48 113.417C197.752 113.014 200.08 112.597 202.047 111.401C204.014 110.206 205.585 108.051 205.397 105.751C205.957 106.099 206.596 106.3 207.254 106.336C207.912 106.373 208.569 106.243 209.164 105.96C209.75 105.642 210.247 105.183 210.611 104.625C210.975 104.067 211.194 103.427 211.249 102.763C211.339 101.477 210.589 100.045 209.331 99.788C208.939 99.7326 208.539 99.7617 208.159 99.8731C207.779 99.9846 207.428 100.176 207.128 100.434C206.535 100.953 206.02 101.555 205.599 102.22C205.404 102.542 205.143 102.819 204.834 103.034C204.679 103.141 204.495 103.198 204.306 103.198C204.117 103.198 203.933 103.141 203.778 103.034C203.649 102.875 203.556 102.69 203.504 102.493C203.453 102.295 203.444 102.088 203.479 101.887L203.618 98.9679C203.625 98.7444 203.567 98.5237 203.453 98.3316C203.338 98.1396 203.171 97.9842 202.972 97.8837C202.366 97.5617 201.9 97.027 201.665 96.3826C201.455 95.8206 201.331 95.2302 201.297 94.6312C201.293 94.5161 201.262 94.4036 201.204 94.3038C201.147 94.2041 201.066 94.1201 200.968 94.0594C200.87 93.9988 200.759 93.9634 200.644 93.9565C200.529 93.9495 200.414 93.9712 200.31 94.0196C196.199 95.5376 191.722 95.7607 187.48 94.659Z" fill="#FFA8A7"/>
                    <path d="M193.888 101.727L191.268 106.133L194.395 106.724L193.888 101.727Z" fill="#F28F8F"/>
                    <path d="M197.377 108.239L195 109.393C195.203 109.662 195.489 109.858 195.814 109.951C196.139 110.044 196.485 110.028 196.8 109.907C197.074 109.739 197.282 109.481 197.387 109.176C197.492 108.872 197.488 108.541 197.377 108.239Z" fill="#F28F8F"/>
                    <path opacity="0.3" d="M197.377 108.239L195 109.393C195.203 109.662 195.489 109.858 195.814 109.951C196.139 110.044 196.485 110.028 196.8 109.907C197.074 109.739 197.282 109.481 197.387 109.176C197.492 108.872 197.488 108.541 197.377 108.239Z" fill="#525252"/>
                    <path d="M195.987 109.984C196.262 110.042 196.548 110.015 196.807 109.907C197.024 109.784 197.2 109.6 197.314 109.377C197.427 109.155 197.473 108.904 197.446 108.656C197.105 108.654 196.774 108.769 196.508 108.983C196.359 109.107 196.237 109.259 196.147 109.431C196.058 109.603 196.003 109.791 195.987 109.984Z" fill="#F28F8F"/>
                    <path d="M198.412 101.901C198.431 102.077 198.396 102.255 198.313 102.412C198.23 102.569 198.103 102.698 197.947 102.783C197.79 102.867 197.613 102.903 197.436 102.886C197.259 102.87 197.091 102.801 196.954 102.689C196.816 102.576 196.715 102.426 196.663 102.256C196.611 102.086 196.611 101.905 196.662 101.735C196.713 101.565 196.814 101.414 196.951 101.301C197.088 101.189 197.256 101.119 197.432 101.102C197.549 101.089 197.667 101.1 197.78 101.133C197.893 101.167 197.998 101.222 198.089 101.297C198.18 101.371 198.256 101.463 198.311 101.566C198.367 101.67 198.401 101.784 198.412 101.901Z" fill="#263238"/>
                    <path d="M190.892 102.366C190.904 102.484 190.892 102.602 190.858 102.715C190.824 102.828 190.767 102.933 190.693 103.024C190.618 103.115 190.526 103.19 190.422 103.245C190.318 103.301 190.204 103.335 190.086 103.346C189.969 103.359 189.851 103.348 189.738 103.315C189.626 103.281 189.521 103.226 189.43 103.151C189.338 103.077 189.263 102.985 189.207 102.882C189.152 102.778 189.118 102.664 189.106 102.547C189.095 102.43 189.106 102.311 189.14 102.199C189.174 102.086 189.229 101.981 189.304 101.889C189.455 101.705 189.672 101.588 189.909 101.564C190.146 101.54 190.383 101.611 190.567 101.761C190.751 101.912 190.869 102.13 190.892 102.366Z" fill="#263238"/>
                    <path d="M189.662 98.9054L187.828 100.469C187.717 100.233 187.68 99.9689 187.724 99.7117C187.767 99.4546 187.888 99.2169 188.071 99.0305C188.298 98.8628 188.567 98.7622 188.849 98.7401C189.13 98.718 189.412 98.7753 189.662 98.9054Z" fill="#263238"/>
                    <path d="M197.293 97.995L199.413 99.1626C199.473 98.9098 199.455 98.6447 199.361 98.4025C199.266 98.1604 199.1 97.9528 198.885 97.8073C198.629 97.6867 198.344 97.6403 198.062 97.6735C197.781 97.7067 197.515 97.818 197.293 97.995Z" fill="#263238"/>
                    <path d="M203.194 137.269L199.156 147.694L203.611 154.644C210.102 151.697 208.768 152.559 213.257 141.689L203.194 137.269Z" fill="#FFA8A7"/>
                    <path d="M211.909 115.745C207.044 121.5 205.216 131.382 202.7 137.749C205.48 143.072 213.355 142.551 213.355 142.551C220.527 127.616 223.557 116.35 211.909 115.745Z" fill="#455A64"/>
                    </svg>