<svg width="301" height="317" viewBox="0 0 301 317" fill="none" xmlns="http://www.w3.org/2000/svg">
<g clip-path="url(#clip0_40_1173)">
<path d="M170.457 9.57402H23.5988C20.8036 9.57402 18.5376 11.84 18.5376 14.6352V219.457C18.5376 222.253 20.8036 224.518 23.5988 224.518H170.457C173.252 224.518 175.518 222.253 175.518 219.457V14.6352C175.518 11.84 173.252 9.57402 170.457 9.57402Z" fill="#F5F5F5"/>
<path d="M289.668 22.3745L289.963 23.8718L287.011 39.8636C285.96 40.6326 284.764 41.1789 283.494 41.469C282.225 41.7591 280.91 41.7869 279.63 41.5507L262.9 38.4577C262.9 38.4577 260.243 37.8673 260.981 34.4159C260.981 34.4159 261.114 32.5952 262.675 32.4687C262.675 32.4687 259.434 31.1542 259.793 28.6588C260.151 26.1634 261.993 26.1915 261.993 26.1915C261.993 26.1915 258.956 25.4253 259.266 22.6135C259.575 19.8018 261.227 19.8018 261.227 19.8018C261.227 19.8018 257.712 18.9442 258.577 15.8231C258.678 15.4101 258.86 15.0211 259.112 14.6789C259.365 14.3367 259.683 14.0481 260.047 13.8297C260.412 13.6113 260.817 13.4675 261.238 13.4067C261.659 13.3458 262.087 13.3692 262.499 13.4753L274.4 15.6685L284.825 17.5734C286.021 17.7943 287.123 18.3705 287.987 19.2269C288.851 20.0833 289.436 21.1802 289.668 22.3745Z" fill="#EBEBEB"/>
<path d="M286.723 18.2764C286.723 18.2764 283.06 14.9656 281.767 11.3595C281.184 9.56168 280.892 7.68219 280.902 5.79221C280.902 5.64459 281.141 4.38633 281.317 3.35301C281.382 2.94711 281.29 2.53164 281.058 2.1918C280.827 1.85196 280.474 1.61352 280.073 1.52537C278.805 1.3465 277.516 1.63823 276.449 2.34541C275.381 3.0526 274.61 4.12624 274.281 5.36342C272.875 10.1575 274.084 13.4261 274.119 14.8812L274.161 16.3433L286.723 18.2764Z" fill="#EBEBEB"/>
<path d="M284.43 42.2662L296.112 44.425L300.5 20.6811L288.818 18.5223L284.43 42.2662Z" fill="#EBEBEB"/>
<path d="M284.424 42.2536C284.424 42.2536 285.366 36.9324 286.575 30.374C287.784 23.8155 288.789 18.5084 288.817 18.5154C288.845 18.5224 287.875 23.8366 286.666 30.395C285.457 36.9535 284.487 42.2606 284.424 42.2536Z" fill="#E0E0E0"/>
<path d="M296.114 44.4116C296.114 44.4116 297.049 39.0904 298.223 32.539C299.396 25.9876 300.437 20.6664 300.465 20.6734C300.493 20.6804 299.53 25.9947 298.314 32.5531C297.098 39.1115 296.135 44.4187 296.114 44.4116Z" fill="#E0E0E0"/>
<path d="M291.938 24.7083C291.858 25.1403 291.908 25.5865 292.081 25.9903C292.254 26.3942 292.543 26.7375 292.912 26.977C293.28 27.2164 293.712 27.3411 294.151 27.3354C294.591 27.3296 295.018 27.1937 295.381 26.9447C295.743 26.6957 296.023 26.3449 296.186 25.9367C296.348 25.5285 296.386 25.0812 296.295 24.6514C296.203 24.2215 295.986 23.8286 295.671 23.5221C295.356 23.2157 294.957 23.0096 294.525 22.9298C293.946 22.8231 293.349 22.9504 292.864 23.2838C292.379 23.6173 292.046 24.1296 291.938 24.7083Z" fill="white"/>
<path d="M271.658 15.1553C271.658 15.1553 272.945 15.3451 274.512 15.6404C276.08 15.9356 277.324 16.1816 277.324 16.2098C277.324 16.2379 276.038 16.02 274.47 15.7318C272.902 15.4436 271.651 15.1835 271.658 15.1553Z" fill="#E0E0E0"/>
<path d="M261.733 26.2618C262.347 26.3263 262.957 26.4225 263.561 26.55C264.566 26.7327 265.374 26.9085 265.374 26.9296C264.76 26.8692 264.15 26.773 263.547 26.6414C262.541 26.4586 261.726 26.2829 261.733 26.2618Z" fill="#E0E0E0"/>
<path d="M261.009 19.6823C261.009 19.6823 262.169 19.851 263.596 20.1111C265.023 20.3711 266.175 20.6101 266.168 20.6312C266.161 20.6523 265.002 20.4696 263.582 20.2024C262.162 19.9353 261.002 19.7174 261.009 19.6823Z" fill="#E0E0E0"/>
<path d="M261.937 32.3352C261.937 32.3352 263.104 32.5039 264.531 32.771C265.958 33.0381 267.111 33.263 267.104 33.2912C267.097 33.3193 265.937 33.1225 264.51 32.8624C263.083 32.6023 261.937 32.3914 261.937 32.3352Z" fill="#E0E0E0"/>
<path d="M291.446 19.6823C291.446 19.6823 293.084 19.9353 295.102 20.3079C297.119 20.6804 298.743 21.0108 298.743 21.0108C298.743 21.0108 297.098 20.7507 295.088 20.3782C293.077 20.0056 291.439 19.7244 291.446 19.6823Z" fill="white"/>
<path d="M260.383 23.8085C260.362 23.766 260.346 23.7212 260.334 23.675C260.297 23.5487 260.271 23.4193 260.257 23.2883C260.235 23.0945 260.235 22.8988 260.257 22.7049C260.28 22.4652 260.332 22.2291 260.412 22.002C260.491 21.7748 260.598 21.5577 260.728 21.3553C260.834 21.1909 260.956 21.0379 261.093 20.8983C261.185 20.8041 261.287 20.7193 261.396 20.6453C261.466 20.5961 261.515 20.568 261.515 20.575C261.515 20.582 261.361 20.7086 261.143 20.9476C261.013 21.088 260.897 21.241 260.798 21.4045C260.677 21.6023 260.575 21.8119 260.496 22.0301C260.421 22.2587 260.369 22.4942 260.341 22.733C260.324 22.9224 260.324 23.113 260.341 23.3024C260.348 23.6117 260.405 23.8085 260.383 23.8085Z" fill="white"/>
<path d="M259.772 17.475C259.671 17.3959 259.589 17.295 259.533 17.1798C259.39 16.9043 259.317 16.5975 259.322 16.2871C259.328 15.9758 259.412 15.6711 259.568 15.4014C259.628 15.2865 259.712 15.1858 259.814 15.1061C259.814 15.1061 259.73 15.2256 259.624 15.4295C259.497 15.6983 259.425 15.99 259.413 16.2871C259.412 16.5828 259.474 16.8754 259.596 17.1447C259.688 17.3555 259.779 17.468 259.772 17.475Z" fill="white"/>
<path d="M261.29 30.62C261.29 30.62 261.136 30.5497 260.967 30.3318C260.748 30.0448 260.63 29.6942 260.629 29.3336C260.637 28.9716 260.766 28.6226 260.995 28.3425C261.082 28.2215 261.198 28.1247 261.332 28.0613C261.332 28.0613 261.206 28.1738 261.051 28.3846C260.847 28.6594 260.734 28.9913 260.728 29.3336C260.725 29.6751 260.829 30.0089 261.023 30.2896C261.136 30.5075 261.29 30.613 261.29 30.62Z" fill="white"/>
<path d="M262.591 36.7004C262.496 36.6108 262.419 36.5033 262.366 36.3841C262.229 36.0963 262.157 35.7819 262.155 35.4632C262.155 35.1443 262.227 34.8294 262.366 34.5424C262.417 34.4215 262.491 34.3117 262.584 34.219C262.536 34.3389 262.482 34.4562 262.422 34.5705C262.304 34.8533 262.243 35.1567 262.243 35.4632C262.243 35.7698 262.304 36.0732 262.422 36.356C262.52 36.5528 262.605 36.6934 262.591 36.7004Z" fill="white"/>
<path d="M274.414 10.9237C274.378 10.8373 274.35 10.7479 274.329 10.6565C274.329 10.5722 274.28 10.4667 274.259 10.3402C274.226 10.201 274.2 10.0603 274.182 9.91846C274.126 9.5484 274.096 9.17498 274.09 8.80079C274.082 8.34469 274.11 7.88862 274.175 7.43708C274.243 6.98213 274.346 6.53321 274.484 6.09447C274.594 5.73823 274.731 5.39052 274.892 5.05412C274.955 4.90651 275.025 4.77998 275.082 4.66751C275.13 4.57098 275.184 4.47712 275.243 4.38633C275.285 4.30501 275.337 4.2294 275.398 4.16139C275.367 4.24737 275.327 4.32984 275.278 4.40742C275.236 4.48474 275.18 4.58316 275.131 4.69563C275.082 4.8081 275.011 4.93462 274.948 5.08224C274.801 5.42192 274.672 5.76919 274.561 6.12259C274.431 6.55783 274.333 7.00182 274.266 7.45114C274.206 7.89853 274.176 8.34939 274.175 8.80079C274.174 9.17214 274.197 9.54316 274.245 9.91143C274.245 10.0661 274.287 10.2067 274.308 10.3332C274.329 10.4597 274.351 10.5652 274.365 10.6495C274.388 10.7394 274.405 10.8311 274.414 10.9237Z" fill="white"/>
<path d="M271.581 168.628L272.376 169.535L276.678 181.667C276.263 182.61 275.66 183.458 274.906 184.159C274.152 184.861 273.262 185.4 272.291 185.744L259.596 190.243C259.596 190.243 257.537 190.89 256.679 188.226C256.679 188.226 256.046 186.925 257.073 186.229C257.073 186.229 254.324 186.609 253.558 184.753C252.792 182.898 254.085 182.195 254.085 182.195C254.085 182.195 251.702 182.898 250.802 180.789C249.903 178.68 251.034 178.082 251.034 178.082C251.034 178.082 248.272 178.891 247.639 176.402C247.544 176.079 247.514 175.741 247.551 175.406C247.588 175.071 247.691 174.747 247.855 174.452C248.019 174.158 248.239 173.899 248.504 173.691C248.768 173.483 249.072 173.329 249.397 173.239L258.479 170.069L266.394 167.257C267.296 166.94 268.273 166.902 269.198 167.146C270.123 167.39 270.953 167.907 271.581 168.628Z" fill="#EBEBEB"/>
<path d="M267.947 166.983C267.947 166.983 264.123 166.161 261.81 164.171C260.693 163.172 259.744 161.999 258.998 160.699C258.963 160.593 258.612 159.644 258.295 158.864C258.181 158.559 257.954 158.31 257.66 158.169C257.367 158.027 257.031 158.005 256.721 158.105C255.781 158.483 255.012 159.192 254.56 160.099C254.107 161.006 254.004 162.047 254.268 163.025C255.21 166.863 257.318 168.649 257.923 169.619L258.527 170.603L267.947 166.983Z" fill="#EBEBEB"/>
<path d="M275.85 184.35L284.714 181.207L278.328 163.193L269.463 166.336L275.85 184.35Z" fill="#EBEBEB"/>
<path d="M275.855 184.332C275.855 184.332 274.386 180.311 272.629 175.334C270.871 170.357 269.451 166.322 269.465 166.315C269.479 166.308 270.935 170.336 272.692 175.313C274.449 180.29 275.869 184.324 275.855 184.332Z" fill="#E0E0E0"/>
<path d="M284.719 181.182C284.719 181.182 283.257 177.14 281.492 172.22C279.728 167.299 278.315 163.208 278.336 163.201C278.357 163.194 279.798 167.222 281.563 172.199C283.327 177.176 284.74 181.182 284.719 181.182Z" fill="#E0E0E0"/>
<path d="M274.062 169.331C274.179 169.66 274.39 169.947 274.67 170.156C274.95 170.365 275.286 170.486 275.635 170.504C275.983 170.523 276.33 170.437 276.63 170.258C276.93 170.079 277.17 169.815 277.32 169.499C277.469 169.184 277.522 168.831 277.471 168.486C277.421 168.14 277.268 167.817 277.034 167.558C276.8 167.3 276.494 167.116 276.155 167.031C275.816 166.946 275.46 166.964 275.131 167.081C274.913 167.159 274.712 167.278 274.54 167.433C274.368 167.588 274.229 167.775 274.129 167.984C274.03 168.193 273.973 168.42 273.962 168.651C273.95 168.882 273.984 169.113 274.062 169.331Z" fill="white"/>
<path d="M256.37 170.814C256.37 170.814 257.326 170.441 258.521 170.02C259.716 169.598 260.686 169.268 260.686 169.317C260.686 169.366 259.737 169.689 258.577 170.111C257.417 170.533 256.37 170.814 256.37 170.814Z" fill="#E0E0E0"/>
<path d="M253.965 182.342C254.413 182.143 254.87 181.967 255.336 181.815C255.796 181.64 256.266 181.49 256.742 181.365C256.742 181.365 256.137 181.618 255.371 181.885C254.912 182.064 254.442 182.217 253.965 182.342Z" fill="#E0E0E0"/>
<path d="M250.873 178.125C250.873 178.125 251.737 177.78 252.813 177.422C253.888 177.063 254.781 176.719 254.788 176.761C254.795 176.803 253.923 177.105 252.841 177.464C251.758 177.822 250.873 178.146 250.873 178.125Z" fill="#E0E0E0"/>
<path d="M256.524 186.447C256.524 186.447 257.389 186.103 258.472 185.744C259.554 185.386 260.433 185.041 260.44 185.084C260.447 185.126 259.575 185.428 258.493 185.787C257.41 186.145 256.531 186.461 256.524 186.447Z" fill="#E0E0E0"/>
<path d="M271.743 166.083C271.743 166.083 272.966 165.612 274.491 165.071C276.017 164.53 277.303 164.101 277.303 164.122C277.303 164.143 276.073 164.6 274.547 165.141C273.022 165.683 271.75 166.104 271.743 166.083Z" fill="white"/>
<path d="M252.075 181.196L251.983 181.126C251.908 181.053 251.839 180.973 251.779 180.887C251.685 180.766 251.605 180.633 251.54 180.493C251.463 180.32 251.407 180.139 251.372 179.952C251.337 179.764 251.323 179.574 251.33 179.383C251.338 179.228 251.364 179.075 251.407 178.926C251.428 178.825 251.464 178.728 251.512 178.638C251.512 178.567 251.562 178.532 251.569 178.539C251.576 178.546 251.512 178.687 251.456 178.94C251.424 179.088 251.406 179.239 251.4 179.39C251.394 179.574 251.408 179.757 251.442 179.938C251.481 180.118 251.535 180.294 251.604 180.465C251.666 180.602 251.739 180.734 251.822 180.859C251.962 181.077 252.082 181.182 252.075 181.196Z" fill="white"/>
<path d="M249.143 177.098C249.043 177.08 248.948 177.041 248.862 176.986C248.657 176.851 248.486 176.671 248.363 176.459C248.247 176.243 248.187 176.001 248.187 175.756C248.181 175.655 248.198 175.554 248.237 175.46C248.237 175.46 248.237 175.58 248.237 175.756C248.25 175.99 248.318 176.219 248.433 176.423C248.545 176.631 248.704 176.809 248.897 176.944C248.982 176.991 249.064 177.042 249.143 177.098Z" fill="white"/>
<path d="M255.364 185.519C255.248 185.522 255.133 185.498 255.027 185.449C254.761 185.344 254.54 185.15 254.4 184.9C254.261 184.65 254.212 184.36 254.261 184.078C254.272 183.96 254.313 183.846 254.38 183.748C254.38 183.748 254.338 183.875 254.31 184.085C254.282 184.353 254.336 184.623 254.465 184.859C254.598 185.095 254.802 185.285 255.048 185.4C255.238 185.491 255.371 185.505 255.364 185.519Z" fill="white"/>
<path d="M258.689 189.161C258.587 189.137 258.491 189.091 258.408 189.027C258.197 188.89 258.021 188.704 257.895 188.486C257.769 188.271 257.695 188.031 257.677 187.783C257.655 187.683 257.655 187.58 257.677 187.481C257.684 187.581 257.684 187.682 257.677 187.783C257.707 188.03 257.785 188.269 257.909 188.486C258.033 188.692 258.195 188.874 258.387 189.02C258.584 189.09 258.689 189.147 258.689 189.161Z" fill="white"/>
<path d="M256.587 166.807L256.433 166.66C256.369 166.601 256.31 166.538 256.257 166.47C256.175 166.389 256.1 166.302 256.032 166.21C255.85 165.986 255.681 165.751 255.526 165.507C255.342 165.194 255.182 164.867 255.048 164.53C254.916 164.193 254.808 163.848 254.725 163.496C254.664 163.207 254.622 162.913 254.598 162.618C254.592 162.505 254.592 162.393 254.598 162.28C254.591 162.194 254.591 162.107 254.598 162.02C254.588 161.948 254.588 161.875 254.598 161.802C254.604 161.875 254.604 161.948 254.598 162.02C254.592 162.104 254.592 162.189 254.598 162.273C254.592 162.386 254.592 162.498 254.598 162.611C254.629 162.904 254.678 163.195 254.746 163.482C254.831 163.831 254.939 164.174 255.069 164.509C255.202 164.841 255.359 165.163 255.54 165.472C255.688 165.715 255.85 165.95 256.025 166.175C256.095 166.273 256.173 166.357 256.236 166.442L256.405 166.632C256.473 166.682 256.534 166.741 256.587 166.807Z" fill="white"/>
<path d="M161.824 255.047H127.598C122.431 255.047 118.242 259.236 118.242 264.403V298.629C118.242 303.796 122.431 307.985 127.598 307.985H161.824C166.992 307.985 171.18 303.796 171.18 298.629V264.403C171.18 259.236 166.992 255.047 161.824 255.047Z" fill="#E0E0E0"/>
<path d="M152.32 255.047H118.094C112.927 255.047 108.738 259.236 108.738 264.403V298.629C108.738 303.796 112.927 307.985 118.094 307.985H152.32C157.488 307.985 161.677 303.796 161.677 298.629V264.403C161.677 259.236 157.488 255.047 152.32 255.047Z" fill="#EBEBEB"/>
<path d="M116.928 282.279L122.263 276.951L132.547 286.089L149.72 268.846L154.676 274.181L131.788 296.373L116.928 282.279Z" fill="white"/>
<path d="M39.5906 266.414H17.2301C12.0629 266.414 7.87402 270.602 7.87402 275.77V298.13C7.87402 303.297 12.0629 307.486 17.2301 307.486H39.5906C44.7578 307.486 48.9467 303.297 48.9467 298.13V275.77C48.9467 270.602 44.7578 266.414 39.5906 266.414Z" fill="#E0E0E0"/>
<path d="M32.2166 266.414H9.85611C4.68887 266.414 0.5 270.602 0.5 275.77V298.13C0.5 303.297 4.68887 307.486 9.85611 307.486H32.2166C37.3838 307.486 41.5727 303.297 41.5727 298.13V275.77C41.5727 270.602 37.3838 266.414 32.2166 266.414Z" fill="#EBEBEB"/>
<path d="M6.85449 287.537L10.9948 283.404L18.9732 290.496L32.2938 277.119L36.1389 281.253L18.3827 298.475L6.85449 287.537Z" fill="white"/>
<path d="M290.849 306.27C290.849 306.376 227.584 306.453 149.628 306.453C71.6725 306.453 8.39404 306.376 8.39404 306.27C8.39404 306.165 71.6163 306.087 149.628 306.087C227.641 306.087 290.849 306.172 290.849 306.27Z" fill="#263238"/>
<path d="M262.541 286.138C262.541 286.138 259.61 265.992 259.856 254.274C260.102 242.556 259.856 229.369 259.856 229.369H261.206C261.206 229.369 260.292 252.629 261.283 266.66C262.274 280.69 264.903 286.138 264.903 286.138H262.555" fill="#263238"/>
<path d="M271.272 206.706C271.058 205.993 270.628 205.365 270.042 204.907C269.184 204.358 268.059 204.583 267.103 204.907C263.026 206.348 259.406 213.953 257.761 217.953L263.174 236.229C272.952 227.155 274.646 215.254 271.272 206.706Z" fill="#455A64"/>
<path d="M269.725 205.645C269.707 205.725 269.679 205.803 269.641 205.877C269.578 206.052 269.486 206.277 269.381 206.544C269.142 207.121 268.811 207.95 268.411 208.991C267.609 211.064 266.597 213.96 265.69 217.222C264.784 220.484 264.158 223.499 263.778 225.657C263.582 226.747 263.441 227.633 263.343 228.251C263.3 228.539 263.258 228.771 263.23 228.954C263.221 229.038 263.202 229.121 263.174 229.2C263.166 229.118 263.166 229.036 263.174 228.954C263.174 228.764 263.216 228.525 263.244 228.251C263.314 227.633 263.434 226.74 263.61 225.643C264.084 222.784 264.717 219.954 265.508 217.166C266.292 214.372 267.231 211.624 268.319 208.934C268.734 207.901 269.093 207.072 269.353 206.509C269.479 206.249 269.578 206.031 269.662 205.863C269.673 205.787 269.694 205.714 269.725 205.645Z" fill="#263238"/>
<path d="M260.77 240.595C258.304 239.194 256.241 237.183 254.778 234.754C253.316 232.325 252.503 229.56 252.419 226.726C252.222 222.67 253.466 218.698 254.879 214.895C254.964 214.55 255.168 214.247 255.456 214.038C255.689 213.949 255.941 213.923 256.187 213.961C256.434 213.999 256.666 214.101 256.862 214.256C260.552 216.364 262.787 220.357 263.975 224.434C264.827 227.138 265.11 229.988 264.805 232.806C264.342 235.767 262.934 238.499 260.791 240.595" fill="#455A64"/>
<path d="M260.77 240.595C260.761 240.515 260.761 240.435 260.77 240.356C260.77 240.166 260.77 239.934 260.77 239.653C260.77 239.048 260.77 238.163 260.693 237.08C260.549 234.252 260.235 231.435 259.751 228.645C259.188 225.376 258.506 222.445 258 220.329L257.403 217.827C257.34 217.552 257.283 217.32 257.241 217.124C257.21 217.117 257.183 217.1 257.164 217.075C257.145 217.05 257.137 217.018 257.14 216.987C257.143 216.956 257.157 216.927 257.181 216.906C257.204 216.885 257.234 216.873 257.266 216.873C257.297 216.873 257.327 216.885 257.351 216.906C257.374 216.927 257.389 216.956 257.392 216.987C257.395 217.018 257.386 217.05 257.367 217.075C257.349 217.1 257.321 217.117 257.29 217.124C257.34 217.299 257.403 217.524 257.487 217.827C257.649 218.41 257.881 219.232 258.155 220.315C258.696 222.424 259.406 225.348 259.968 228.624C260.454 231.412 260.75 234.23 260.854 237.059C260.854 238.148 260.854 239.027 260.854 239.639V240.342C260.837 240.429 260.809 240.514 260.77 240.595Z" fill="#263238"/>
<g opacity="0.3">
<path d="M260.77 240.595C258.304 239.194 256.241 237.183 254.778 234.754C253.316 232.325 252.503 229.56 252.419 226.726C252.222 222.67 253.466 218.698 254.879 214.895C254.964 214.55 255.168 214.247 255.456 214.038C255.689 213.949 255.941 213.923 256.187 213.961C256.434 213.999 256.666 214.101 256.862 214.256C260.552 216.364 262.787 220.357 263.975 224.434C264.827 227.138 265.11 229.988 264.805 232.806C264.342 235.767 262.934 238.499 260.791 240.595" fill="black"/>
</g>
<path d="M266.492 271.419C271.49 272.515 275.63 276.044 280.424 277.745C283.615 278.884 287.221 279.284 289.766 281.513C289.154 279.966 287.706 278.94 286.3 278.061C282.323 275.584 278.078 273.563 273.648 272.037C271.377 271.25 268.917 270.596 266.618 271.243" fill="#455A64"/>
<path d="M259.273 275.868C253.016 275.77 246.423 270.441 240.195 270.125C246.718 268.016 256.046 269.739 259.273 275.868Z" fill="#455A64"/>
<path d="M261.719 260.86C264.942 259.795 268.381 259.553 271.722 260.157C275.044 260.77 278.31 261.659 281.485 262.815C281.162 260.643 279.377 259.012 277.753 257.564C276.543 256.437 275.23 255.427 273.83 254.548C272.42 253.67 270.789 253.212 269.128 253.226C268.132 253.292 267.159 253.557 266.268 254.006C265.377 254.456 264.585 255.08 263.94 255.841C262.673 257.22 261.893 258.975 261.719 260.839" fill="#455A64"/>
<path d="M248.876 253.951C244.933 250.59 238.972 250.921 233.791 251.033C242.109 255.004 249.956 259.894 257.185 265.612C257.396 261.95 253.853 258.196 248.876 253.951Z" fill="#455A64"/>
<g opacity="0.3">
<path d="M248.876 253.951C244.933 250.59 238.972 250.921 233.791 251.033C242.109 255.004 249.956 259.894 257.185 265.612C257.396 261.95 253.853 258.196 248.876 253.951Z" fill="black"/>
</g>
<path d="M263.49 249.311C265.41 247.978 267.434 246.803 269.542 245.796C271.616 244.855 273.549 243.357 275.553 242.282C278.153 240.876 280.403 238.922 282.786 237.178C285.169 235.435 287.784 233.868 290.701 233.404C288.3 232.975 285.832 233.117 283.496 233.818C281.17 234.522 278.903 235.403 276.712 236.454C273.641 237.86 270.513 239.266 268.003 241.509C265.494 243.751 263.223 245.972 263.49 249.332" fill="#455A64"/>
<path d="M280.311 275.868C280.242 275.85 280.175 275.822 280.114 275.784L279.566 275.503C279.095 275.25 278.42 274.877 277.57 274.448C277.148 274.23 276.677 273.998 276.164 273.745C275.651 273.492 275.117 273.246 274.54 273C273.297 272.443 272.008 271.994 270.688 271.658C269.379 271.293 268 271.26 266.674 271.559C266.095 271.682 265.526 271.851 264.973 272.065C264.495 272.255 264.036 272.491 263.602 272.768C262.968 273.161 262.387 273.633 261.873 274.174C261.515 274.561 261.332 274.8 261.318 274.786C261.346 274.719 261.384 274.658 261.43 274.603C261.546 274.433 261.673 274.271 261.81 274.118C262.304 273.539 262.877 273.033 263.511 272.614C263.956 272.322 264.426 272.073 264.917 271.868C265.476 271.646 266.052 271.467 266.639 271.334C267.995 271.019 269.409 271.048 270.751 271.419C272.086 271.757 273.387 272.216 274.639 272.789C275.215 273.049 275.756 273.302 276.262 273.555C276.768 273.809 277.232 274.048 277.668 274.258C278.512 274.701 279.18 275.095 279.636 275.369L280.164 275.692C280.221 275.743 280.271 275.803 280.311 275.868Z" fill="#263238"/>
<path d="M254.605 272.74C254.741 272.761 254.873 272.802 254.998 272.86C255.348 272.982 255.689 273.13 256.018 273.302C257.112 273.854 258.119 274.565 259.005 275.411C259.888 276.264 260.642 277.242 261.241 278.314C261.422 278.637 261.584 278.97 261.726 279.313C261.786 279.435 261.831 279.565 261.859 279.699C261.824 279.699 261.585 279.186 261.107 278.392C260.477 277.362 259.719 276.418 258.851 275.58C257.974 274.746 256.996 274.026 255.94 273.436C255.125 273.021 254.591 272.803 254.605 272.74Z" fill="#263238"/>
<path d="M240.757 253.634C240.85 253.651 240.939 253.679 241.024 253.719L241.777 253.986L242.965 254.421C243.421 254.59 243.928 254.843 244.49 255.124C247.427 256.479 250.167 258.224 252.637 260.312C253.984 261.473 255.252 262.722 256.433 264.052C257.39 265.144 258.291 266.284 259.132 267.468C259.835 268.48 260.39 269.324 260.763 269.907L261.185 270.61C261.242 270.683 261.29 270.763 261.325 270.849C261.259 270.783 261.2 270.71 261.15 270.631C261.044 270.484 260.882 270.273 260.686 269.985C260.292 269.415 259.73 268.579 259.006 267.588C258.282 266.596 257.361 265.479 256.285 264.22C255.1 262.904 253.832 261.664 252.489 260.509C250.034 258.417 247.322 256.646 244.42 255.237C243.857 254.977 243.365 254.717 242.908 254.534L241.741 254.063L241.003 253.761C240.916 253.729 240.834 253.687 240.757 253.634Z" fill="#263238"/>
<path d="M271.131 257.346C270.963 257.34 270.796 257.318 270.632 257.282L270.056 257.17C269.838 257.128 269.578 257.128 269.289 257.1C267.804 256.97 266.312 257.265 264.987 257.95C264.264 258.327 263.604 258.816 263.033 259.398C262.557 259.867 262.135 260.388 261.775 260.952C261.449 261.478 261.163 262.028 260.917 262.597C260.935 262.429 260.977 262.266 261.044 262.112C261.199 261.679 261.399 261.265 261.642 260.874C261.987 260.286 262.405 259.743 262.886 259.258C263.463 258.646 264.141 258.137 264.889 257.753C266.245 257.045 267.784 256.763 269.304 256.945C269.563 256.965 269.821 257 270.077 257.05L270.653 257.191C270.818 257.222 270.979 257.274 271.131 257.346Z" fill="#263238"/>
<path d="M277.394 237.832C277.319 237.889 277.239 237.938 277.155 237.98L276.453 238.359C275.841 238.69 274.969 239.168 273.908 239.765C272.846 240.363 271.609 241.171 270.288 242.127C268.841 243.135 267.486 244.269 266.239 245.515C265.594 246.154 265.036 246.874 264.58 247.659C264.172 248.447 263.779 249.206 263.42 249.937C262.771 251.224 262.192 252.545 261.684 253.894C261.344 254.814 261.06 255.753 260.833 256.706C260.679 257.409 260.615 257.753 260.594 257.753C260.583 257.662 260.583 257.57 260.594 257.479C260.594 257.297 260.65 257.029 260.721 256.692C260.919 255.738 261.182 254.798 261.508 253.88C261.998 252.518 262.566 251.185 263.209 249.888C263.561 249.185 263.954 248.39 264.362 247.603C264.822 246.797 265.39 246.056 266.049 245.403C267.305 244.145 268.674 243.006 270.14 242.001C271.476 241.059 272.734 240.292 273.802 239.674C274.871 239.055 275.764 238.598 276.382 238.268L277.085 237.924C277.185 237.884 277.289 237.854 277.394 237.832Z" fill="#263238"/>
<path d="M259.884 256.776C259.82 256.607 259.778 256.429 259.758 256.249C259.687 255.87 259.596 255.385 259.483 254.808C259.181 253.221 258.786 251.654 258.303 250.112C257.794 248.578 257.198 247.073 256.517 245.607C256.271 245.079 256.067 244.63 255.906 244.271C255.821 244.109 255.753 243.94 255.702 243.765C255.811 243.91 255.905 244.065 255.983 244.229C256.152 244.538 256.384 244.981 256.686 245.543C258.161 248.445 259.167 251.563 259.666 254.78C259.765 255.392 259.835 255.891 259.87 256.242C259.894 256.419 259.898 256.598 259.884 256.776Z" fill="#263238"/>
<path d="M259.392 242.514C259.199 240.144 258.506 237.842 257.361 235.758C255.814 232.895 253.66 230.405 251.049 228.462C248.439 226.519 245.434 225.171 242.248 224.511L256.236 245.368L258.043 249.086C259.191 247.099 259.664 244.793 259.392 242.514Z" fill="#455A64"/>
<path d="M279.468 283.65H246.929V289.414H279.468V283.65Z" fill="#2A8EF1"/>
<path d="M249.361 288.268L252.131 306.165H273.732L277.036 288.268H249.361Z" fill="#2A8EF1"/>
<path d="M279.447 289.421C279.447 289.484 272.108 289.533 263.061 289.533C254.015 289.533 246.669 289.484 246.669 289.421C246.669 289.358 254.001 289.308 263.061 289.308C272.122 289.308 279.447 289.358 279.447 289.421Z" fill="#263238"/>
<path d="M77.3174 258.695H48.4547C43.2875 258.695 39.0986 262.884 39.0986 268.051V296.914C39.0986 302.081 43.2875 306.27 48.4547 306.27H77.3174C82.4846 306.27 86.6735 302.081 86.6735 296.914V268.051C86.6735 262.884 82.4846 258.695 77.3174 258.695Z" fill="#2A8EF1"/>
<g opacity="0.3">
<path d="M77.3174 258.695H48.4547C43.2875 258.695 39.0986 262.884 39.0986 268.051V296.914C39.0986 302.081 43.2875 306.27 48.4547 306.27H77.3174C82.4846 306.27 86.6735 302.081 86.6735 296.914V268.051C86.6735 262.884 82.4846 258.695 77.3174 258.695Z" fill="black"/>
</g>
<path d="M68.7695 258.695H39.9069C34.7397 258.695 30.5508 262.884 30.5508 268.051V296.914C30.5508 302.081 34.7397 306.27 39.9069 306.27H68.7695C73.9368 306.27 78.1256 302.081 78.1256 296.914V268.051C78.1256 262.884 73.9368 258.695 68.7695 258.695Z" fill="#2A8EF1"/>
<path d="M37.9175 283.165L42.7115 278.378L51.9481 286.588L67.3847 271.095L71.8343 275.889L51.2663 295.832L37.9175 283.165Z" fill="white"/>
<path d="M102.3 275.84H83.44C80.2449 275.84 77.6548 278.43 77.6548 281.625V300.485C77.6548 303.68 80.2449 306.27 83.44 306.27H102.3C105.495 306.27 108.085 303.68 108.085 300.485V281.625C108.085 278.43 105.495 275.84 102.3 275.84Z" fill="#263238"/>
<path d="M96.8379 275.84H77.9781C74.783 275.84 72.1929 278.43 72.1929 281.625V300.485C72.1929 303.68 74.783 306.27 77.9781 306.27H96.8379C100.033 306.27 102.623 303.68 102.623 300.485V281.625C102.623 278.43 100.033 275.84 96.8379 275.84Z" fill="#455A64"/>
<path d="M76.9023 291.494L79.9672 288.43L85.8789 293.681L95.7481 283.769L98.595 286.841L85.443 299.592L76.9023 291.494Z" fill="white"/>
<path d="M177.514 0.18277H30.6559C27.8607 0.18277 25.5947 2.44873 25.5947 5.24393V210.066C25.5947 212.861 27.8607 215.127 30.6559 215.127H177.514C180.309 215.127 182.575 212.861 182.575 210.066V5.24393C182.575 2.44873 180.309 0.18277 177.514 0.18277Z" fill="white"/>
<path d="M177.521 215.099C178.154 215.083 178.779 214.957 179.369 214.727C180.093 214.441 180.739 213.988 181.253 213.405C181.977 212.602 182.421 211.586 182.519 210.509C182.554 205.624 182.519 198.397 182.519 189.097C182.519 170.491 182.483 143.575 182.462 110.319C182.462 93.6876 182.462 75.4745 182.462 55.9187C182.462 46.1432 182.462 36.042 182.462 25.6151C182.462 20.4086 182.462 15.1249 182.462 9.76381V5.76409C182.556 4.43646 182.127 3.1248 181.267 2.10881C180.842 1.60269 180.319 1.18747 179.73 0.887954C179.14 0.588435 178.497 0.410756 177.837 0.365528C176.494 0.365528 175.11 0.365528 173.739 0.365528H30.6769C29.9101 0.366884 29.1541 0.547464 28.4694 0.892857C27.7848 1.23825 27.1903 1.7389 26.7334 2.35484C26.2724 2.9753 25.9707 3.69942 25.8548 4.46366C25.7864 5.23021 25.7699 6.00052 25.8056 6.7693V16.1676C25.8056 22.4378 25.8056 28.6611 25.8056 34.8376V71.3412C25.8056 95.2763 25.8056 118.361 25.8056 140.349C25.8056 162.337 25.8056 183.228 25.8056 202.791V210.059C25.813 211.232 26.2393 212.364 27.0076 213.25C27.7618 214.135 28.8104 214.717 29.9599 214.888C30.5363 214.952 31.1167 214.973 31.6962 214.951H43.7656H69.8657L148.637 215.008L170.056 215.043L148.637 215.078L69.8657 215.134H43.7656H31.64C31.0439 215.156 30.447 215.132 29.8545 215.064C28.6381 214.882 27.5278 214.268 26.7264 213.335C25.9106 212.393 25.457 211.192 25.4471 209.947V202.819C25.4471 183.263 25.4471 162.365 25.4471 140.377C25.4471 118.389 25.4471 95.3044 25.4471 71.3693V34.8657C25.4471 28.6893 25.4471 22.4659 25.4471 16.1957V6.7693C25.4241 5.9718 25.4499 5.17365 25.5244 4.37931C25.6433 3.56035 25.9566 2.7818 26.4382 2.10881C26.9293 1.45405 27.5661 0.922609 28.2981 0.556584C29.0302 0.190558 29.8374 0 30.6558 0L173.739 0C175.145 0 176.473 0 177.858 0C178.562 0.044195 179.249 0.230841 179.879 0.548625C180.508 0.866409 181.067 1.30871 181.52 1.84873C182.42 2.93244 182.862 4.32466 182.751 5.72895C182.751 7.07859 182.751 8.4212 182.751 9.75678V25.6432C182.751 36.0607 182.751 46.162 182.751 55.9469C182.751 75.5026 182.751 93.7157 182.751 110.347C182.751 143.603 182.708 170.519 182.694 189.126C182.694 198.425 182.694 205.645 182.638 210.544C182.532 211.634 182.076 212.66 181.338 213.468C180.815 214.055 180.159 214.508 179.426 214.79C178.975 214.964 178.501 215.073 178.02 215.113L177.521 215.099Z" fill="#263238"/>
<path d="M153.867 64.108H84.2762C81.8304 64.108 79.8477 66.0907 79.8477 68.5365V68.9653C79.8477 71.4111 81.8304 73.3938 84.2762 73.3938H153.867C156.313 73.3938 158.296 71.4111 158.296 68.9653V68.5365C158.296 66.0907 156.313 64.108 153.867 64.108Z" fill="#E0E0E0"/>
<path d="M67.7782 58.5759H53.4945C51.499 58.5759 49.8813 60.1935 49.8813 62.189V76.4727C49.8813 78.4681 51.499 80.0858 53.4945 80.0858H67.7782C69.7736 80.0858 71.3913 78.4681 71.3913 76.4727V62.189C71.3913 60.1935 69.7736 58.5759 67.7782 58.5759Z" fill="#2A8EF1"/>
<path d="M53.2061 69.6401L55.3711 67.4751L59.5536 71.1866L66.5338 64.1853L68.5442 66.3504L59.2443 75.3691L53.2061 69.6401Z" fill="white"/>
<path d="M153.867 97.4835H84.2762C81.8304 97.4835 79.8477 99.4662 79.8477 101.912V102.341C79.8477 104.787 81.8304 106.769 84.2762 106.769H153.867C156.313 106.769 158.296 104.787 158.296 102.341V101.912C158.296 99.4662 156.313 97.4835 153.867 97.4835Z" fill="#E0E0E0"/>
<path d="M67.7782 91.9443H53.4945C51.499 91.9443 49.8813 93.562 49.8813 95.5574V109.841C49.8813 111.837 51.499 113.454 53.4945 113.454H67.7782C69.7736 113.454 71.3913 111.837 71.3913 109.841V95.5574C71.3913 93.562 69.7736 91.9443 67.7782 91.9443Z" fill="#2A8EF1"/>
<path d="M53.2061 103.016L55.3711 100.844L59.5536 104.562L66.5338 97.5538L68.5442 99.7188L59.2443 108.738L53.2061 103.016Z" fill="white"/>
<path d="M153.867 130.852H84.2762C81.8304 130.852 79.8477 132.835 79.8477 135.28V135.709C79.8477 138.155 81.8304 140.138 84.2762 140.138H153.867C156.313 140.138 158.296 138.155 158.296 135.709V135.28C158.296 132.835 156.313 130.852 153.867 130.852Z" fill="#E0E0E0"/>
<path d="M67.7782 125.32H53.4945C51.499 125.32 49.8813 126.937 49.8813 128.933V143.217C49.8813 145.212 51.499 146.83 53.4945 146.83H67.7782C69.7736 146.83 71.3913 145.212 71.3913 143.217V128.933C71.3913 126.937 69.7736 125.32 67.7782 125.32Z" fill="#2A8EF1"/>
<path d="M53.2061 136.384L55.3711 134.219L59.5536 137.931L66.5338 130.929L68.5442 133.094L59.2443 142.113L53.2061 136.384Z" fill="white"/>
<path d="M153.867 164.227H84.2762C81.8304 164.227 79.8477 166.21 79.8477 168.656V169.085C79.8477 171.531 81.8304 173.513 84.2762 173.513H153.867C156.313 173.513 158.296 171.531 158.296 169.085V168.656C158.296 166.21 156.313 164.227 153.867 164.227Z" fill="#E0E0E0"/>
<path d="M67.7782 158.688H53.4945C51.499 158.688 49.8813 160.306 49.8813 162.301V176.585C49.8813 178.581 51.499 180.198 53.4945 180.198H67.7782C69.7736 180.198 71.3913 178.581 71.3913 176.585V162.301C71.3913 160.306 69.7736 158.688 67.7782 158.688Z" fill="#2A8EF1"/>
<path d="M53.2061 169.76L55.3711 167.588L59.5536 171.306L66.5338 164.298L68.5442 166.463L59.2443 175.482L53.2061 169.76Z" fill="white"/>
<path d="M210.221 281.442L209.617 297.343C209.617 297.343 225.546 303.283 225.721 306.228L194.904 306.165L194.827 281.4L210.221 281.442Z" fill="#263238"/>
<path d="M200.092 295.937C199.801 296.025 199.551 296.217 199.391 296.475C199.23 296.734 199.17 297.043 199.221 297.343C199.299 297.641 199.488 297.898 199.749 298.061C200.01 298.224 200.324 298.282 200.626 298.222C200.94 298.125 201.207 297.916 201.376 297.634C201.545 297.353 201.603 297.018 201.54 296.696C201.426 296.392 201.198 296.143 200.905 296.003C200.611 295.863 200.274 295.842 199.966 295.944" fill="#E0E0E0"/>
<path d="M194.904 306.137L194.996 303.641L224.519 304.632C224.519 304.632 225.89 305.237 225.735 306.2L194.904 306.137Z" fill="#455A64"/>
<path d="M210.116 297.16C210.116 297.308 209.357 297.378 208.619 297.863C207.88 298.348 207.48 298.981 207.339 298.917C207.199 298.854 207.431 297.99 208.337 297.42C209.244 296.851 210.151 297.02 210.116 297.16Z" fill="white"/>
<path d="M213.343 298.503C213.343 298.65 212.724 298.903 212.211 299.536C211.698 300.169 211.55 300.858 211.381 300.858C211.213 300.858 211.135 300 211.789 299.22C212.443 298.439 213.343 298.355 213.343 298.503Z" fill="white"/>
<path d="M215.17 302.376C215.036 302.376 214.826 301.673 215.212 300.829C215.599 299.986 216.309 299.677 216.372 299.803C216.435 299.93 215.999 300.373 215.669 301.054C215.339 301.736 215.318 302.362 215.17 302.376Z" fill="white"/>
<path d="M209.849 293.526C209.786 293.66 209.097 293.456 208.246 293.526C207.396 293.596 206.735 293.849 206.658 293.716C206.58 293.582 207.213 293.055 208.218 293.013C209.223 292.971 209.926 293.406 209.849 293.526Z" fill="white"/>
<path d="M172.502 279.284L170.829 298.425L173.88 313.946C173.932 314.211 173.929 314.484 173.871 314.748C173.813 315.012 173.702 315.261 173.544 315.48C173.385 315.699 173.184 315.883 172.951 316.021C172.719 316.158 172.461 316.247 172.193 316.28C171.881 316.32 171.565 316.285 171.27 316.177C170.975 316.069 170.711 315.893 170.498 315.661C167.75 312.667 157.705 301.603 157.909 300.197C158.141 298.58 158.324 279.889 158.324 279.889L172.502 279.284Z" fill="#263238"/>
<path d="M172.192 316.28L157.958 298.917L157.909 299.726C157.862 300.427 158.067 301.122 158.485 301.687C159.61 303.198 162.815 307.311 170.435 315.661C170.654 315.9 170.928 316.081 171.233 316.189C171.538 316.297 171.865 316.328 172.185 316.28H172.192Z" fill="#455A64"/>
<g opacity="0.6">
<path d="M162.323 292.985C162.547 293.173 162.694 293.436 162.735 293.725C162.777 294.015 162.71 294.309 162.548 294.552C162.369 294.786 162.107 294.941 161.816 294.986C161.525 295.031 161.228 294.961 160.988 294.791C160.752 294.589 160.6 294.307 160.56 294C160.52 293.692 160.594 293.381 160.77 293.125C160.984 292.904 161.274 292.774 161.582 292.761C161.889 292.748 162.19 292.853 162.422 293.055" fill="white"/>
</g>
<path d="M168.348 307.62C168.802 307.004 169.416 306.524 170.123 306.23C170.831 305.937 171.604 305.841 172.361 305.954C172.361 305.912 172.144 305.743 171.701 305.652C171.115 305.548 170.512 305.617 169.964 305.848C169.413 306.071 168.939 306.449 168.601 306.938C168.348 307.318 168.298 307.599 168.348 307.62Z" fill="white"/>
<path d="M169.55 310.277C170.117 310.004 170.701 309.769 171.3 309.574C171.927 309.492 172.558 309.452 173.191 309.455C173.247 309.356 172.354 308.892 171.201 309.159C170.049 309.426 169.451 310.221 169.55 310.277Z" fill="white"/>
<path d="M166.014 304.168C166.855 303.672 167.734 303.242 168.643 302.882C170.175 302.376 171.518 302.524 171.532 302.397C170.539 302.135 169.492 302.162 168.514 302.476C167.536 302.79 166.668 303.377 166.014 304.168Z" fill="white"/>
<path d="M166.035 298.306C166.077 298.425 167.166 298.046 168.551 298.088C169.936 298.13 171.004 298.524 171.054 298.411C170.304 297.945 169.442 297.689 168.559 297.67C167.676 297.652 166.804 297.871 166.035 298.306Z" fill="white"/>
<path d="M166.393 292.675C167.232 292.394 168.122 292.293 169.003 292.381C169.883 292.468 170.736 292.741 171.503 293.182C171.539 293.139 171.342 292.886 170.92 292.605C170.355 292.242 169.712 292.02 169.043 291.958C168.375 291.889 167.7 291.981 167.075 292.226C166.597 292.422 166.393 292.626 166.393 292.675Z" fill="white"/>
<path d="M169.029 291.305C169.101 291.078 169.125 290.838 169.099 290.602C169.08 289.932 168.927 289.272 168.65 288.662C168.481 288.2 168.168 287.806 167.757 287.537C167.613 287.46 167.449 287.431 167.288 287.452C167.126 287.474 166.976 287.545 166.857 287.656C166.637 287.883 166.509 288.184 166.499 288.5C166.506 289.146 166.736 289.77 167.149 290.267C167.563 290.764 168.135 291.103 168.769 291.227C169.4 291.333 170.047 291.248 170.629 290.984C171.211 290.719 171.702 290.288 172.038 289.744C172.121 289.606 172.174 289.452 172.194 289.292C172.213 289.132 172.198 288.97 172.15 288.816C172.085 288.666 171.973 288.54 171.832 288.458C171.69 288.376 171.526 288.341 171.363 288.359C170.888 288.435 170.44 288.631 170.062 288.929C169.517 289.313 169.041 289.789 168.657 290.335C168.499 290.524 168.384 290.744 168.319 290.981C168.863 290.292 169.505 289.685 170.224 289.182C170.564 288.932 170.96 288.767 171.377 288.704C171.466 288.694 171.556 288.713 171.634 288.759C171.711 288.804 171.771 288.874 171.806 288.957C171.83 289.06 171.832 289.167 171.813 289.271C171.793 289.375 171.753 289.474 171.693 289.561C171.391 290.014 170.966 290.372 170.468 290.594C169.971 290.815 169.421 290.891 168.881 290.813C168.345 290.708 167.859 290.426 167.503 290.012C167.147 289.597 166.942 289.074 166.92 288.528C166.923 288.307 167.002 288.093 167.145 287.924C167.211 287.862 167.294 287.821 167.384 287.809C167.473 287.796 167.564 287.812 167.644 287.853C167.99 288.082 168.257 288.41 168.411 288.795C168.761 289.589 168.971 290.439 169.029 291.305Z" fill="white"/>
<path d="M225.061 147.659C226.544 154.239 227.047 161.002 226.551 167.728C226.22 171.988 211.831 289.955 211.831 289.955H192.402L197.864 179.088L196.275 179.432C196.275 179.432 185.668 226.719 184.803 234.374C184.023 241.255 175.082 291.248 175.082 291.248L157.318 291.452L162.991 225.327L169.592 161.873L172.073 143.399L225.061 147.659Z" fill="#263238"/>
<path d="M197.161 171.559C197.161 171.559 197.161 171.615 197.288 171.693C197.427 171.799 197.588 171.876 197.759 171.918C198.079 171.986 198.41 171.982 198.728 171.906C199.047 171.831 199.345 171.686 199.6 171.482C199.965 171.167 200.264 170.783 200.479 170.352C200.695 169.922 200.824 169.453 200.859 168.972C200.999 167.918 201.02 166.779 201.098 165.577C201.231 163.18 201.323 161.008 201.379 159.433C201.446 158.584 201.446 157.731 201.379 156.882C201.229 157.72 201.14 158.568 201.112 159.419C200.992 160.987 200.852 163.159 200.718 165.556C200.641 166.751 200.627 167.911 200.514 168.923C200.473 169.815 200.087 170.657 199.439 171.271C199.213 171.465 198.95 171.609 198.666 171.696C198.381 171.784 198.082 171.811 197.787 171.777C197.572 171.722 197.363 171.65 197.161 171.559Z" fill="#455A64"/>
<path d="M168.58 160.157C168.747 160.255 168.93 160.321 169.121 160.354C169.631 160.48 170.151 160.567 170.674 160.614C172.418 160.763 174.173 160.5 175.796 159.847C177.42 159.193 178.868 158.168 180.023 156.854C180.37 156.46 180.685 156.039 180.965 155.595C181.082 155.44 181.168 155.263 181.218 155.075C181.169 155.04 180.733 155.736 179.813 156.678C178.637 157.904 177.215 158.865 175.639 159.498C174.063 160.13 172.371 160.42 170.674 160.347C169.388 160.27 168.594 160.094 168.58 160.157Z" fill="#455A64"/>
<path d="M217.321 155.223C217.316 155.883 217.416 156.541 217.616 157.17C218.441 160.281 220.27 163.034 222.818 165.001C223.322 165.427 223.889 165.773 224.498 166.027C224.589 165.929 221.904 164.396 219.88 161.303C217.855 158.21 217.447 155.181 217.321 155.223Z" fill="#455A64"/>
<path d="M276.663 121.84L281.127 123.253L289.224 118.775L293.822 131.576L282.8 134.198L274.449 133.277L276.663 121.84Z" fill="#AE7461"/>
<path d="M224.808 70.4555C224.808 70.4555 229.363 73.1899 233.137 82.4828C240.546 100.759 245.2 110.6 245.2 110.6L279.229 121.341L276.509 134.964C276.509 134.964 242.023 130.156 237.404 128.427C231.078 126.058 226.396 113.595 226.396 113.595L224.808 70.4555Z" fill="#E0E0E0"/>
<path d="M215.458 29.5234C216.339 29.5703 217.206 29.2909 217.894 28.7388C218.581 28.1867 219.041 27.4005 219.185 26.5306C219.33 25.6606 219.149 24.768 218.676 24.0233C218.204 23.2787 217.474 22.7342 216.625 22.494C217.143 21.9047 217.462 21.1675 217.538 20.3867C217.614 19.6059 217.442 18.821 217.047 18.1432C216.652 17.4654 216.054 16.9289 215.338 16.6096C214.621 16.2904 213.822 16.2046 213.054 16.3644C212.982 15.5956 212.712 14.8585 212.27 14.2251C211.828 13.5918 211.23 13.0836 210.533 12.7502C209.837 12.4168 209.066 12.2695 208.295 12.3226C207.525 12.3758 206.782 12.6276 206.137 13.0536C205.233 12.3894 204.133 12.0472 203.012 12.0816C201.891 12.116 200.813 12.525 199.952 13.2434C199.192 13.1399 198.42 13.2834 197.748 13.6527C197.077 14.022 196.542 14.5976 196.223 15.2942C195.904 15.9909 195.817 16.7718 195.976 17.5215C196.135 18.2712 196.53 18.9499 197.105 19.4573" fill="#263238"/>
<path d="M199.361 16.7932L200.149 16.751C203.971 16.5614 207.725 17.8179 210.664 20.2706C213.602 22.7232 215.51 26.1922 216.007 29.9873C216.963 37.3049 217.926 45.4098 218.073 49.3533C218.383 57.5214 210.278 59.1944 210.278 59.1944L211.452 68.9723L191.608 69.3449L188.093 33.8535C186.94 25.4182 190.891 17.707 199.361 16.7932Z" fill="#AE7461"/>
<path d="M210.341 59.1804C206.549 59.3728 202.781 58.4699 199.488 56.5795C199.488 56.5795 202.3 62.3366 210.411 61.1908L210.341 59.1804Z" fill="#6F4439"/>
<path d="M213.068 37.5228C213.086 37.8267 212.984 38.1255 212.784 38.3553C212.585 38.5851 212.303 38.7278 212 38.753C211.853 38.7716 211.703 38.7606 211.56 38.7206C211.416 38.6806 211.283 38.6125 211.166 38.5202C211.05 38.4279 210.953 38.3133 210.881 38.1831C210.809 38.0529 210.764 37.9097 210.749 37.7618C210.738 37.463 210.843 37.1716 211.04 36.9469C211.237 36.7222 211.513 36.5813 211.81 36.5528C211.957 36.5331 212.105 36.5426 212.248 36.5808C212.391 36.619 212.525 36.6851 212.642 36.7753C212.759 36.8655 212.857 36.978 212.93 37.1064C213.003 37.2347 213.05 37.3762 213.068 37.5228Z" fill="#263238"/>
<path d="M214.446 34.0714C214.313 34.2261 213.399 33.6215 212.141 33.6848C210.882 33.7481 209.997 34.3877 209.856 34.2753C209.715 34.1628 209.919 33.9308 210.306 33.6145C210.83 33.2118 211.466 32.981 212.127 32.9538C212.78 32.9208 213.427 33.0955 213.975 33.4528C214.369 33.741 214.517 33.9941 214.446 34.0714Z" fill="#263238"/>
<path d="M201.624 37.8321C201.642 38.1368 201.54 38.4363 201.341 38.6673C201.141 38.8982 200.86 39.0424 200.556 39.0693C200.408 39.0879 200.259 39.0769 200.116 39.0369C199.972 38.9969 199.839 38.9288 199.722 38.8365C199.606 38.7442 199.509 38.6296 199.437 38.4994C199.365 38.3692 199.32 38.226 199.305 38.0782C199.285 37.7742 199.385 37.4747 199.584 37.2435C199.782 37.0123 200.063 36.8679 200.366 36.841C200.514 36.8224 200.664 36.8333 200.808 36.8732C200.951 36.9131 201.085 36.9811 201.203 37.0734C201.32 37.1656 201.417 37.2802 201.49 37.4104C201.562 37.5407 201.608 37.684 201.624 37.8321Z" fill="#263238"/>
<path d="M202.131 34.915C201.99 35.0766 201.076 34.4651 199.818 34.5283C198.56 34.5916 197.709 35.2664 197.533 35.1258C197.358 34.9852 197.597 34.7744 197.983 34.4651C198.507 34.0624 199.143 33.8316 199.804 33.8043C200.457 33.7693 201.104 33.9415 201.653 34.2964C202.053 34.5775 202.194 34.8447 202.131 34.915Z" fill="#263238"/>
<path d="M207.164 43.9969C207.813 43.7532 208.491 43.5949 209.181 43.5259C209.504 43.4767 209.8 43.3994 209.884 43.1745C209.892 42.8429 209.799 42.5168 209.617 42.2396C209.28 41.4734 208.914 40.679 208.549 39.8425C207.065 36.4333 205.969 33.6286 206.109 33.5723C206.25 33.5161 207.564 36.2224 209.048 39.6317C209.413 40.4752 209.751 41.2765 210.081 42.0427C210.301 42.4201 210.381 42.8634 210.306 43.294C210.266 43.409 210.201 43.5132 210.114 43.5986C210.028 43.684 209.922 43.7481 209.807 43.786C209.631 43.8403 209.449 43.8756 209.265 43.8915C208.572 44.0131 207.866 44.0485 207.164 43.9969Z" fill="#263238"/>
<path d="M202.946 30.0366C202.799 30.3599 201.709 30.0717 200.38 30.0928C199.052 30.1139 197.948 30.388 197.815 30.0928C197.751 29.9381 197.976 29.6429 198.44 29.3899C199.039 29.0538 199.715 28.8771 200.401 28.8767C201.083 28.8629 201.756 29.0329 202.349 29.3688C202.834 29.5867 203.045 29.8819 202.946 30.0366Z" fill="#263238"/>
<path d="M214.249 28.8908C214.003 29.193 212.949 28.947 211.705 28.9962C210.461 29.0454 209.413 29.2985 209.16 28.9962C209.048 28.8556 209.195 28.5604 209.645 28.2933C210.265 27.9268 210.971 27.7303 211.691 27.7239C212.407 27.6941 213.118 27.8568 213.75 28.1949C214.193 28.462 214.362 28.7502 214.249 28.8908Z" fill="#263238"/>
<path d="M215.036 26.2829C215.036 26.2829 212.625 21.2779 210.116 20.2095C207.058 18.909 205.94 22.248 203.051 21.6154C200.162 20.9827 197.252 19.7174 194.454 22.0652C191.39 24.6239 192.964 26.2407 192.95 29.8749C192.88 44.6366 190.405 48.8542 189.302 42.0076C189.182 41.2555 187.045 40.7564 186.574 37.565C185.963 33.4388 185.555 28.4268 186.335 25.4112C186.996 22.8877 188.325 21.1022 190.771 19.0848C194.63 15.9005 200.134 15.5701 203.888 15.7529C207.642 15.9356 215.058 19.865 215.036 26.2829Z" fill="#263238"/>
<path d="M189.794 41.7334C189.769 41.4349 189.684 41.1446 189.543 40.88C189.403 40.6154 189.21 40.382 188.977 40.1941C188.743 40.0061 188.474 39.8675 188.186 39.7865C187.898 39.7055 187.596 39.684 187.299 39.723C185.78 39.941 184.128 40.8899 184.389 44.0321C184.845 49.6064 190.342 47.9966 190.342 47.835C190.342 47.6733 190.005 44.0672 189.794 41.7334Z" fill="#AE7461"/>
<path d="M188.958 45.8386C188.958 45.8386 188.866 45.9159 188.705 46.0003C188.489 46.1157 188.237 46.1434 188.002 46.0776C187.397 45.9089 186.828 45.0162 186.715 44.011C186.664 43.5361 186.719 43.0558 186.877 42.6051C186.914 42.4268 186.994 42.2604 187.11 42.1205C187.227 41.9807 187.376 41.8719 187.545 41.8037C187.653 41.7654 187.772 41.7661 187.879 41.8059C187.987 41.8457 188.078 41.9221 188.135 42.0217C188.227 42.1693 188.198 42.2888 188.227 42.2958C188.255 42.3028 188.339 42.1904 188.276 41.9654C188.239 41.8281 188.151 41.7101 188.03 41.635C187.95 41.5821 187.86 41.5461 187.766 41.5292C187.672 41.5123 187.575 41.5148 187.481 41.5366C187.257 41.6 187.053 41.7198 186.888 41.8848C186.723 42.0497 186.603 42.2541 186.54 42.4786C186.339 42.9801 186.267 43.5236 186.329 44.0602C186.455 45.1849 187.116 46.169 187.938 46.3518C188.092 46.384 188.251 46.3811 188.403 46.3434C188.555 46.3056 188.696 46.234 188.817 46.1338C188.958 45.9722 188.979 45.8456 188.958 45.8386Z" fill="#6F4439"/>
<path d="M189.365 30.9293C190.077 31.4518 190.909 31.7877 191.783 31.9064C192.225 31.9503 192.668 31.8318 193.029 31.5731C193.39 31.3144 193.644 30.9331 193.745 30.5005C193.787 30.1139 193.674 29.664 193.913 29.3547C194.152 29.0454 194.764 29.0665 195.235 29.0876C196.866 29.179 198.672 27.2951 199.01 25.6924C199.237 25.9846 199.567 26.1793 199.933 26.2367C200.298 26.2942 200.672 26.2102 200.978 26.0017C201.469 25.6577 201.897 25.2321 202.243 24.7434C202.446 24.4297 202.722 24.1702 203.048 23.9877C203.374 23.8051 203.74 23.705 204.113 23.6961C204.512 23.8083 204.922 23.8766 205.336 23.8999C206.039 23.8015 206.384 22.9228 206.454 22.1918C206.524 21.4607 206.573 20.6031 207.157 20.1743C207.74 19.7455 208.471 19.9564 209.146 20.0197C209.821 20.0829 210.693 19.8861 210.833 19.2183C210.854 19.0401 210.837 18.8597 210.785 18.688C210.733 18.5163 210.647 18.3571 210.531 18.2202C210.044 17.567 209.351 17.0972 208.564 16.8867C207.777 16.6762 206.942 16.7374 206.194 17.0603C205.866 16.1513 205.278 15.3588 204.503 14.7817C203.728 14.2046 202.8 13.8685 201.836 13.8153C200.871 13.7621 199.912 13.9941 199.078 14.4824C198.244 14.9707 197.572 15.6937 197.147 16.5612C196.527 16.0541 195.794 15.7037 195.01 15.5399C194.226 15.3761 193.414 15.4037 192.643 15.6202C191.872 15.8368 191.165 16.236 190.581 16.784C189.997 17.332 189.553 18.0127 189.288 18.7685C188.596 18.6221 187.876 18.6827 187.217 18.9427C186.559 19.2027 185.992 19.6506 185.587 20.2307C185.181 20.8107 184.955 21.4972 184.937 22.2047C184.919 22.9121 185.11 23.6093 185.485 24.2092C184.98 24.4925 184.555 24.8988 184.249 25.3904C183.943 25.8819 183.766 26.4428 183.735 27.0209C183.777 28.1738 184.958 29.2704 186.055 28.9119C185.865 29.3768 185.857 29.896 186.032 30.3667C186.207 30.8374 186.552 31.2251 187 31.4532C187.447 31.6813 187.964 31.7331 188.447 31.5983C188.931 31.4635 189.346 31.152 189.611 30.7254" fill="#263238"/>
<path d="M206.735 18.6841C206.735 18.6841 206.735 18.7192 206.735 18.7895C206.735 18.8598 206.735 18.9582 206.735 19.0848C206.675 19.4663 206.557 19.8362 206.384 20.1814C206.104 20.7332 205.703 21.2141 205.21 21.5872C204.556 22.0728 203.761 22.3319 202.946 22.3253L203.038 22.1988C203.23 22.6989 203.217 23.2544 203.002 23.7453C202.775 24.2532 202.477 24.7265 202.117 25.1511C201.945 25.4075 201.745 25.6434 201.519 25.8541C201.266 26.0471 200.969 26.175 200.655 26.2266C200.328 26.291 199.99 26.274 199.671 26.1772C199.353 26.0803 199.063 25.9066 198.827 25.6713L199.031 25.601C198.981 26.1849 198.811 26.7522 198.53 27.2666C198.249 27.7809 197.864 28.2312 197.4 28.5885C196.889 29.0112 196.256 29.2577 195.593 29.2914C194.971 29.2946 194.353 29.19 193.766 28.9821L193.913 28.9118C193.658 29.6016 193.232 30.2157 192.676 30.6973C192.425 30.9384 192.123 31.1199 191.792 31.2282C191.461 31.3365 191.11 31.3689 190.764 31.3229C190.172 31.227 189.62 30.9594 189.178 30.5534C188.736 30.1474 188.422 29.6207 188.276 29.0384L188.402 29.0876C187.831 29.4313 187.157 29.5655 186.497 29.4672C186.008 29.4003 185.541 29.2198 185.134 28.94C184.88 28.7593 184.656 28.5385 184.473 28.2862C184.412 28.1982 184.36 28.1039 184.318 28.0051C184.554 28.3253 184.844 28.6013 185.176 28.8205C185.579 29.0795 186.036 29.243 186.512 29.2985C187.136 29.378 187.768 29.2416 188.304 28.9118L188.409 28.8486V28.9611C188.555 29.502 188.854 29.9891 189.271 30.3633C189.688 30.7376 190.204 30.9831 190.757 31.0699C191.072 31.1055 191.391 31.071 191.691 30.9689C191.992 30.8669 192.266 30.6997 192.494 30.4794C193.021 30.0316 193.431 29.4623 193.689 28.8205L193.724 28.715H193.829C194.393 28.908 194.984 29.0077 195.579 29.0103C196.189 28.9767 196.773 28.7502 197.245 28.3636C197.684 28.0282 198.047 27.6048 198.313 27.1205C198.578 26.6363 198.739 26.1019 198.785 25.5518V25.2847L198.968 25.4815C199.177 25.6886 199.433 25.8416 199.715 25.9274C199.997 26.0131 200.295 26.029 200.584 25.9736C200.864 25.9295 201.13 25.8185 201.358 25.6502C201.564 25.4591 201.75 25.2471 201.913 25.0176C202.268 24.6103 202.562 24.1532 202.785 23.6609C202.986 23.2171 203.003 22.7118 202.834 22.255L202.785 22.1285H202.925C203.702 22.1361 204.46 21.8892 205.083 21.4256C205.567 21.0844 205.966 20.6372 206.25 20.1181C206.495 19.6723 206.659 19.1869 206.735 18.6841Z" fill="#455A64"/>
<path d="M207.086 48.2989C207.044 48.095 205.68 48.4465 204.415 47.5397C203.15 46.6329 202.911 45.1497 202.721 45.1849C202.531 45.22 202.538 45.5785 202.686 46.1971C202.881 46.9959 203.354 47.6988 204.021 48.1794C204.659 48.6457 205.454 48.8427 206.236 48.7277C206.819 48.6293 207.114 48.3903 207.086 48.2989Z" fill="#263238"/>
<path d="M240.202 99.9157C240.075 99.4728 232.807 79.6921 230.487 75.362C227.718 70.1814 221.883 67.8898 218.263 67.6648C214.643 67.4399 175.911 70.5258 175.911 70.5258C175.911 70.5258 164.355 73.1056 162.879 83.0733C161.178 94.5241 159.694 120.751 159.694 120.751L177.324 111.718L179.609 105.961L216.084 114.101L224.997 100.928L240.202 99.9157Z" fill="#E0E0E0"/>
<path d="M173.366 71.6575L188.494 64.9866L190.188 58.4634L207.867 66.7791L211.564 62.6951L213.11 67.2993L216.984 68.5646L226.03 84.4721V118.375L227.858 147.617L225.897 152.235L209.729 154.625C207.958 154.882 206.159 154.882 204.387 154.625L171.497 149.248L170.646 139.582L174.161 112.955L173.366 71.6575Z" fill="#E0E0E0"/>
<path d="M190.188 58.4634C190.188 58.4634 192.163 59.0328 197.217 61.7391C202.201 64.3892 207.867 66.7791 207.867 66.7791L207.438 74.7575L188.627 65.3733" fill="#E0E0E0"/>
<path d="M211.55 62.7232L207.853 66.8072L209.828 75.355L213.125 67.6297" fill="#E0E0E0"/>
<g opacity="0.3">
<path d="M207.923 67.693C208.084 67.8125 209.111 77.5341 209.111 77.5341L190.293 66.1746L207.445 74.7856L207.923 67.693Z" fill="black"/>
</g>
<path d="M207.789 104.035C207.508 96.5837 208.682 77.5692 208.682 77.5692L211.142 77.1756C214.276 90.7079 216.39 104.456 217.469 118.305C218.171 127.443 218.171 138.085 218.171 138.085L213.251 148.671L207.796 138.127C207.796 138.127 208.134 113.11 207.789 104.035Z" fill="#455A64"/>
<path d="M172.235 72.8103C172.235 72.8103 172.748 73.2673 173.507 74.0545C174.499 75.0776 175.346 76.2318 176.024 77.4849C176.693 78.7432 177.19 80.0863 177.5 81.4776C177.739 82.5531 177.788 83.2279 177.837 83.2279C177.863 83.0672 177.863 82.9035 177.837 82.7429C177.811 82.3064 177.757 81.8721 177.676 81.4424C177.152 78.5728 175.738 75.941 173.634 73.921C173.319 73.6168 172.986 73.3327 172.636 73.0704C172.516 72.9645 172.381 72.8768 172.235 72.8103Z" fill="#263238"/>
<path d="M207.789 70.6242L209.476 69.9635L211.072 72.7049L211.353 77.1967L209.111 77.5552L207.424 74.7856L207.789 70.6242Z" fill="#455A64"/>
<path d="M225.989 83.9941C225.918 83.9941 225.855 93.7157 225.855 105.715C225.855 117.714 225.918 127.443 225.989 127.443C226.059 127.443 226.115 117.714 226.115 105.715C226.115 93.7157 226.059 83.9941 225.989 83.9941Z" fill="#263238"/>
<path d="M207.67 66.7791C207.67 66.7791 208.035 67.4047 208.633 68.4029C209.403 69.7023 210.107 71.0395 210.742 72.4097L210.925 72.7893L211.037 73.0423L211.156 72.7963C211.793 71.4955 212.338 70.152 212.787 68.7755C212.949 68.2553 213.068 67.8335 213.139 67.5453C213.186 67.3948 213.215 67.239 213.223 67.0814C212.993 67.6164 212.791 68.1631 212.619 68.7192C212.253 69.7385 211.705 71.1303 210.981 72.6487H211.213L211.037 72.2621C210.389 70.882 209.646 69.548 208.816 68.2694C208.499 67.7773 208.225 67.3907 208.028 67.1306C207.832 66.8705 207.691 66.7299 207.67 66.7791Z" fill="#263238"/>
<path d="M188.494 64.9866C188.573 65.0499 188.66 65.1019 188.754 65.1413L189.513 65.542L192.325 66.9971C194.694 68.2272 197.948 69.9845 201.533 71.9176C203.719 73.0845 205.793 74.167 207.6 75.0668L207.761 75.1511V74.9613C207.761 72.6276 207.803 70.6523 207.817 69.2254C207.817 68.5576 207.817 68.0163 207.817 67.6086C207.834 67.4192 207.834 67.2287 207.817 67.0392C207.79 67.2278 207.776 67.4181 207.775 67.6086C207.775 68.0163 207.74 68.5576 207.712 69.2254C207.677 70.6312 207.621 72.6206 207.564 74.9613L207.733 74.8559C205.934 73.9421 203.867 72.8525 201.681 71.6857C198.089 69.7666 194.827 68.0374 192.437 66.8424C191.242 66.2449 190.265 65.7739 189.59 65.4365L188.803 65.078C188.704 65.0352 188.6 65.0045 188.494 64.9866Z" fill="#263238"/>
<path d="M223.718 71.1303C223.676 71.1303 223.971 71.6575 224.351 72.5362C224.847 73.6445 225.21 74.8078 225.433 76.0017C225.649 77.1979 225.724 78.4152 225.658 79.6288C225.597 80.1305 225.562 80.6349 225.553 81.1402C225.608 81.0146 225.645 80.8822 225.665 80.7465C225.747 80.3828 225.806 80.0142 225.841 79.6429C226.096 77.153 225.638 74.6419 224.519 72.4026C224.355 72.0679 224.169 71.7439 223.964 71.4326C223.896 71.3209 223.814 71.2192 223.718 71.1303Z" fill="#263238"/>
<path d="M209.518 77.8504C209.561 77.9066 209.989 77.7098 210.474 77.4005C210.96 77.0912 211.325 76.796 211.29 76.6976C211.255 76.5992 210.826 76.8382 210.334 77.1475C209.842 77.4568 209.483 77.7871 209.518 77.8504Z" fill="#263238"/>
<path d="M208.71 76.7538C209.172 76.0377 209.556 75.2742 209.856 74.4763C210.238 73.7155 210.539 72.9169 210.755 72.0934C210.301 72.8125 209.919 73.5755 209.617 74.3709C209.237 75.1334 208.933 75.9316 208.71 76.7538Z" fill="#263238"/>
<path d="M170.266 73.3305C170.266 73.3305 164.432 77.5482 163.708 79.8397C162.984 82.1313 159.877 119.837 159.336 124.315C158.795 128.792 158.239 137.178 161.705 139.913C165.17 142.647 172.635 144.693 172.635 144.693L179.531 130.437L175.876 122.789L179.531 94.1726L170.266 73.3305Z" fill="#E0E0E0"/>
<path d="M170.969 144.194C171.093 144.177 171.218 144.177 171.342 144.194C171.588 144.194 171.946 144.194 172.417 144.123C173.753 143.993 175.034 143.529 176.143 142.774C177.793 141.547 179.034 139.848 179.7 137.902C180.597 135.445 181.054 132.849 181.049 130.233V130.332L175.693 122.923L175.651 122.867V122.789C175.651 122.599 175.707 122.396 175.728 122.192C176.761 114.164 177.696 106.903 178.371 101.603C178.709 98.9948 178.99 96.879 179.18 95.3676C179.278 94.6647 179.348 94.0953 179.404 93.6735C179.42 93.4751 179.448 93.2779 179.489 93.0831C179.497 93.1343 179.497 93.1865 179.489 93.2377C179.489 93.3361 179.489 93.4838 179.489 93.6806C179.489 94.1023 179.405 94.6717 179.341 95.3817C179.194 96.8649 178.955 99.0018 178.638 101.638C178.02 106.91 177.127 114.192 176.101 122.234C176.101 122.445 176.051 122.649 176.023 122.838L175.988 122.705L181.331 130.135V130.177V130.233C181.33 132.888 180.854 135.521 179.925 138.008C179.214 139.986 177.92 141.702 176.213 142.928C175.568 143.369 174.856 143.701 174.104 143.913L173.626 144.046L173.176 144.123C172.917 144.175 172.654 144.206 172.389 144.215C172.029 144.242 171.667 144.242 171.307 144.215L170.969 144.194Z" fill="#263238"/>
<path d="M163.926 125.425C164.377 124.987 164.894 124.622 165.458 124.343C168.127 122.836 171.213 122.236 174.252 122.635C174.879 122.678 175.494 122.826 176.073 123.07C173.972 122.771 171.839 122.795 169.746 123.141C166.33 123.787 163.982 125.545 163.926 125.425Z" fill="#263238"/>
<path d="M209.666 87.9235C209.666 87.9235 209.997 89.1748 210.531 91.382C211.724 89.661 213.252 88.1979 215.023 87.08C215.023 87.08 224.027 78.1386 226.902 68.7333C229.011 61.9078 228.47 54.3512 228.47 54.3512C228.385 53.9927 227.683 50.7873 227.106 48.1653C226.883 47.1305 227.068 46.0495 227.622 45.1474C228.175 44.2453 229.056 43.5915 230.08 43.3221C234.543 42.1201 246.648 39.7652 249.417 47.8912C253.558 60.0169 246.866 73.1126 246.936 76.8593C246.936 77.5622 246.936 78.1386 246.971 78.6096C250.486 77.7872 253.298 77.2037 253.298 77.2529L276.593 71.8122C276.593 71.8122 284.29 69.4854 286.926 77.3724C289.562 85.2594 280.6 87.9165 280.6 87.9165C280.6 87.9165 284.817 87.7337 285.949 94.9459C287.081 102.158 279.398 104.45 279.398 104.45C279.398 104.45 284.114 104.147 285.331 110.509C286.518 116.702 278.828 120.434 278.414 120.624C279.023 120.444 279.642 120.303 280.269 120.202C279.811 120.371 279.341 120.507 278.863 120.61C282.455 121.067 282.976 125.341 282.976 125.341C285.288 134.107 278.54 135.948 278.54 135.948L235.984 145.909C231.745 146.894 227.32 146.734 223.163 145.445C223.57 147.252 223.788 148.257 223.774 148.257L194.061 155.195C193.998 155.195 190.792 141.705 186.898 125.039C183.004 108.372 179.869 94.8475 179.967 94.8123L209.666 87.9235Z" fill="#2A8EF1"/>
<g opacity="0.3">
<path d="M209.666 87.9235C209.666 87.9235 209.997 89.1748 210.531 91.382C211.724 89.661 213.252 88.1979 215.023 87.08C215.023 87.08 224.027 78.1386 226.902 68.7333C229.011 61.9078 228.47 54.3512 228.47 54.3512C228.385 53.9927 227.683 50.7873 227.106 48.1653C226.883 47.1305 227.068 46.0495 227.622 45.1474C228.175 44.2453 229.056 43.5915 230.08 43.3221C234.543 42.1201 246.648 39.7652 249.417 47.8912C253.558 60.0169 246.866 73.1126 246.936 76.8593C246.936 77.5622 246.936 78.1386 246.971 78.6096C250.486 77.7872 253.298 77.2037 253.298 77.2529L276.593 71.8122C276.593 71.8122 284.29 69.4854 286.926 77.3724C289.562 85.2594 280.6 87.9165 280.6 87.9165C280.6 87.9165 284.817 87.7337 285.949 94.9459C287.081 102.158 279.398 104.45 279.398 104.45C279.398 104.45 284.114 104.147 285.331 110.509C286.518 116.702 278.828 120.434 278.414 120.624C279.023 120.444 279.642 120.303 280.269 120.202C279.811 120.371 279.341 120.507 278.863 120.61C282.455 121.067 282.976 125.341 282.976 125.341C285.288 134.107 278.54 135.948 278.54 135.948L235.984 145.909C231.745 146.894 227.32 146.734 223.163 145.445C223.57 147.252 223.788 148.257 223.774 148.257L194.061 155.195C193.998 155.195 190.792 141.705 186.898 125.039C183.004 108.372 179.869 94.8475 179.967 94.8123L209.666 87.9235Z" fill="black"/>
</g>
<path d="M215.409 96.3869L214.833 100.246L224.33 140.918C227.114 142.764 230.246 144.022 233.534 144.615C236.822 145.207 240.196 145.121 243.45 144.362L285.984 134.43C285.984 134.43 292.733 132.588 290.42 123.823C290.42 123.823 289.865 119.169 285.844 119.043C285.844 119.043 294.005 115.275 292.789 108.913C291.573 102.552 286.849 102.854 286.849 102.854C286.849 102.854 294.546 100.527 293.407 93.3502C292.269 86.1732 288.051 86.3208 288.051 86.3208C288.051 86.3208 297.006 83.6989 294.378 75.8119C291.749 67.9249 284.03 70.2938 284.03 70.2938L253.804 77.3232L227.282 83.5161C224.24 84.2218 221.48 85.8268 219.363 88.1224C217.245 90.4179 215.868 93.2977 215.409 96.3869Z" fill="#2A8EF1"/>
<path d="M222.474 85.5406C222.474 85.5406 231.478 76.5992 234.353 67.1939C236.462 60.3754 235.921 52.8118 235.921 52.8118C235.836 52.4533 235.134 49.2479 234.557 46.6259C234.336 45.5912 234.521 44.5111 235.075 43.6094C235.628 42.7077 236.508 42.0536 237.531 41.7827C241.994 40.5806 250.064 42.8019 252.834 50.9209C256.981 63.0465 254.317 71.5662 254.394 75.3128L254.464 79.0595L222.474 85.5406Z" fill="#2A8EF1"/>
<path d="M217.143 86.3585L187.435 93.299L201.537 153.659L231.244 146.718L217.143 86.3585Z" fill="#2A8EF1"/>
<path d="M231.24 146.738C231.303 146.738 228.196 133.193 224.309 116.512C220.421 99.8313 217.202 86.3419 217.139 86.356C217.075 86.37 220.182 99.8946 224.077 116.582C227.971 133.27 231.176 146.752 231.24 146.738Z" fill="#263238"/>
<path d="M201.54 153.676C201.603 153.676 198.503 140.131 194.609 123.45C190.715 106.769 187.51 93.2799 187.446 93.294C187.383 93.308 190.483 106.833 194.377 123.52C198.272 140.208 201.463 153.69 201.54 153.676Z" fill="#263238"/>
<path d="M209.877 102.629C210.134 103.728 210.059 104.879 209.662 105.936C209.265 106.993 208.563 107.908 207.646 108.566C206.728 109.224 205.636 109.596 204.508 109.633C203.379 109.67 202.265 109.372 201.306 108.776C200.347 108.18 199.587 107.313 199.12 106.284C198.654 105.256 198.504 104.113 198.688 102.999C198.871 101.885 199.381 100.85 200.153 100.026C200.925 99.2021 201.924 98.6255 203.024 98.3692C203.753 98.1981 204.51 98.1727 205.249 98.2943C205.989 98.4159 206.697 98.6821 207.334 99.0778C207.97 99.4735 208.523 99.9908 208.959 100.6C209.396 101.209 209.708 101.899 209.877 102.629Z" fill="white"/>
<path d="M260.735 75.7135C260.735 75.6502 257.473 76.3532 253.473 77.2881C249.474 78.223 246.254 79.0314 246.268 79.0946C246.282 79.1579 249.537 78.4549 253.529 77.52C257.522 76.5851 260.749 75.7838 260.735 75.7135Z" fill="#263238"/>
<path d="M287.524 103.002C285.957 103.243 284.404 103.565 282.87 103.965C280.319 104.562 278.259 105.096 278.273 105.16C279.839 104.916 281.392 104.595 282.926 104.197C285.478 103.599 287.538 103.065 287.524 103.002Z" fill="#263238"/>
<path d="M288.599 86.0748C288.599 86.0115 285.633 86.6442 282.012 87.4807C278.392 88.3172 275.461 89.0623 275.475 89.1256C275.489 89.1888 278.442 88.5562 282.069 87.7197C285.696 86.8832 288.613 86.1381 288.599 86.0748Z" fill="#263238"/>
<path d="M287.721 118.684C287.721 118.621 284.754 119.253 281.134 120.09C277.514 120.926 274.583 121.679 274.597 121.742C274.611 121.805 277.563 121.172 281.19 120.336C284.817 119.499 287.735 118.747 287.721 118.684Z" fill="#263238"/>
<g opacity="0.3">
<path d="M237.784 44.7772C236.856 45.6348 236.751 47.0969 237.081 48.2919C237.526 49.4762 238.069 50.6213 238.705 51.7152C239.923 54.2578 240.271 57.1303 239.696 59.8903C239.52 60.7268 239.288 61.6899 239.822 62.3577C240.582 63.2996 242.114 62.7724 243.077 62.0343C244.876 60.6014 246.23 58.6871 246.983 56.5143C247.736 54.3415 247.856 51.9995 247.33 49.761C246.905 47.8786 245.854 46.1959 244.349 44.988C242.803 43.8352 240.42 42.7879 237.784 44.8123" fill="white"/>
</g>
<g opacity="0.3">
<path d="M286.814 71.3342C285.755 71.214 284.683 71.3243 283.671 71.6575L265.718 76.2196C263.757 76.7187 260.095 77.1615 260.053 79.1579C259.652 80.2474 260.489 81.4776 261.557 81.9275C262.667 82.2828 263.854 82.3266 264.987 82.054C267.391 81.6674 269.76 81.112 272.122 80.5427C276.912 79.5268 281.613 78.1306 286.181 76.3672C286.864 76.1178 287.5 75.7567 288.065 75.2987C288.347 75.0701 288.574 74.7806 288.728 74.4519C288.883 74.1233 288.961 73.764 288.958 73.4008C288.868 72.8726 288.611 72.387 288.225 72.0151C287.839 71.6433 287.345 71.4046 286.814 71.3342Z" fill="white"/>
</g>
<path d="M210.531 89.7231C210.531 89.6598 206.355 90.5736 201.238 91.7686C196.121 92.9636 191.973 93.9899 191.987 94.0532C192.001 94.1164 196.17 93.2026 201.287 92.0076C206.405 90.8126 210.552 89.7863 210.531 89.7231Z" fill="white"/>
<path d="M290.68 96.5556C290.68 96.5556 290.736 96.4361 290.799 96.2041C290.88 95.879 290.932 95.5473 290.954 95.213C290.989 94.711 290.97 94.2067 290.898 93.7087C290.806 93.1004 290.649 92.504 290.427 91.9303C290.189 91.364 289.892 90.8244 289.541 90.3205C289.249 89.9113 288.914 89.5343 288.543 89.1958C288.298 88.9641 288.029 88.7591 287.741 88.5843C287.538 88.4577 287.425 88.3945 287.418 88.4085C287.411 88.4226 287.833 88.7249 288.423 89.3153C288.768 89.6638 289.081 90.0426 289.358 90.4471C289.694 90.9409 289.976 91.4687 290.202 92.0217C290.42 92.5778 290.58 93.1549 290.68 93.7438C290.759 94.2246 290.795 94.7117 290.785 95.1989C290.764 96.0354 290.638 96.5486 290.68 96.5556Z" fill="white"/>
<path d="M291.516 80.2404C291.758 80.0185 291.95 79.7478 292.079 79.4461C292.416 78.7214 292.566 77.9239 292.515 77.1264C292.466 76.3299 292.212 75.5596 291.777 74.891C291.616 74.6096 291.392 74.3691 291.123 74.1881C291.088 74.1881 291.348 74.4833 291.636 74.9895C292.004 75.6585 292.222 76.3997 292.276 77.1615C292.325 77.9212 292.205 78.6823 291.924 79.3899C291.692 79.9171 291.474 80.2193 291.516 80.2404Z" fill="white"/>
<path d="M289.26 114.136C289.587 113.939 289.862 113.667 290.061 113.342C290.593 112.585 290.856 111.672 290.807 110.748C290.739 109.823 290.368 108.946 289.752 108.252C289.519 107.946 289.212 107.704 288.859 107.55C288.859 107.585 289.197 107.817 289.626 108.344C290.193 109.026 290.527 109.871 290.58 110.756C290.633 111.641 290.402 112.52 289.921 113.264C289.562 113.827 289.232 114.101 289.26 114.136Z" fill="white"/>
<path d="M286.596 129.875C286.83 129.634 287.012 129.347 287.13 129.031C287.462 128.283 287.616 127.467 287.58 126.648C287.542 125.833 287.318 125.037 286.926 124.322C286.781 124.014 286.572 123.741 286.314 123.52C286.314 123.52 286.518 123.851 286.778 124.399C287.113 125.109 287.304 125.878 287.341 126.662C287.369 127.447 287.245 128.23 286.975 128.968C286.736 129.53 286.532 129.854 286.596 129.875Z" fill="white"/>
<path d="M253.164 65.1835C253.247 64.9554 253.308 64.7201 253.347 64.4805C253.396 64.2556 253.452 63.9814 253.494 63.6651C253.537 63.3488 253.614 62.9622 253.642 62.5685C253.742 61.6137 253.777 60.6531 253.747 59.6935C253.705 58.514 253.576 57.3393 253.361 56.1788C253.127 55.028 252.81 53.8956 252.412 52.7907C252.081 51.8896 251.691 51.0113 251.245 50.1617C251.062 49.7961 250.865 49.4587 250.697 49.2057C250.563 48.9628 250.415 48.7281 250.254 48.5027C250.129 48.2995 249.988 48.1067 249.832 47.9263C249.925 48.1464 250.04 48.356 250.176 48.5519C250.289 48.7417 250.437 48.9807 250.584 49.2549C250.732 49.529 250.922 49.8594 251.09 50.2249C251.516 51.0751 251.89 51.9508 252.208 52.8469C252.59 53.9469 252.895 55.072 253.122 56.214C253.349 57.3811 253.494 58.5625 253.558 59.7498C253.594 60.7013 253.576 61.6543 253.501 62.6037C253.501 63.0044 253.424 63.3699 253.396 63.6932C253.368 64.0166 253.319 64.2907 253.276 64.5157C253.221 64.7349 253.183 64.9582 253.164 65.1835Z" fill="white"/>
<path d="M185.373 136.37C185.373 136.37 187.706 134.563 189.443 134.486C191.179 134.409 193.435 135.091 193.885 134.866C194.335 134.641 195.397 133.65 196.071 134.479C196.746 135.309 197.583 138.331 193.963 139.161H191.474C191.474 139.161 191.776 141.649 192.381 142.626C192.986 143.603 201.421 154.232 201.421 154.232C201.421 154.232 202.475 155.286 201.948 156.341C201.421 157.395 199.136 156.797 199.136 156.797C199.136 156.797 197.555 158.203 195.741 157.55C194.846 157.243 193.988 156.837 193.182 156.341C192.598 156.787 191.883 157.029 191.147 157.029C190.412 157.029 189.697 156.787 189.112 156.341C187.004 154.759 179.974 145.944 179.974 145.944L182.484 136.103L185.373 136.37Z" fill="#AE7461"/>
<path d="M178.013 130.564L185.373 136.37L179.995 145.944L169.205 142.078C169.205 142.078 169.542 130.747 178.013 130.564Z" fill="#AE7461"/>
<path d="M292.255 117.538C292.255 117.538 292.03 114.916 290.56 115.43C289.091 115.943 288.452 119.05 288.452 119.05L292.255 117.538Z" fill="#AE7461"/>
<path d="M287.01 120.125C287.01 120.125 289.555 117.271 293.105 117.503C296.655 117.735 294.419 120.744 294.419 120.744C294.419 120.744 297.041 122.36 295.122 124.673L294.813 125.292C294.813 125.292 297.048 126.142 294.736 128.532C294.968 128.959 295.063 129.448 295.008 129.931C294.953 130.414 294.75 130.868 294.426 131.232C293.267 132.391 290.377 130.845 290.377 130.845C290.377 130.845 287.713 131.464 287.481 130.381C287.396 130.022 287.408 129.647 287.517 129.295C287.625 128.942 287.827 128.626 288.1 128.378C288.332 128.223 289.717 127.675 289.717 127.675C289.717 127.675 286.631 128.061 286.554 127.288C286.476 126.515 286.167 125.671 288.487 124.898L289.717 124.568C289.717 124.568 286.518 124.666 286.497 123.9C286.476 123.134 286.322 122.817 287.481 122.276C288.21 121.939 288.915 121.551 289.59 121.116C289.59 121.116 286.546 121.742 287.01 120.125Z" fill="#AE7461"/>
<path d="M286.441 123.134C287.603 122.287 288.891 121.627 290.258 121.18C291.658 120.841 293.103 120.729 294.539 120.849C294.138 120.678 293.709 120.585 293.273 120.575C291.17 120.402 289.075 120.996 287.376 122.248C287.013 122.484 286.696 122.784 286.441 123.134Z" fill="#6F4439"/>
<path d="M286.8 127.548C286.8 127.548 286.722 127.45 286.652 127.274C286.559 127.015 286.559 126.732 286.652 126.473C286.77 126.079 287.018 125.737 287.355 125.503C287.782 125.22 288.259 125.019 288.761 124.912C290.096 124.665 291.446 124.503 292.803 124.427C292.413 124.312 292.006 124.267 291.601 124.294C290.619 124.279 289.64 124.383 288.684 124.603C288.142 124.717 287.63 124.942 287.179 125.264C286.8 125.545 286.535 125.955 286.434 126.416C286.349 126.722 286.384 127.049 286.533 127.33C286.666 127.52 286.793 127.562 286.8 127.548Z" fill="#6F4439"/>
<path d="M288.1 130.936C288.1 130.936 287.987 130.873 287.833 130.725C287.702 130.599 287.599 130.446 287.53 130.276C287.462 130.107 287.43 129.926 287.437 129.743C287.444 129.561 287.489 129.382 287.569 129.218C287.649 129.054 287.763 128.909 287.903 128.792C288.366 128.478 288.876 128.241 289.414 128.089C290.431 127.875 291.474 127.821 292.507 127.928C292.946 127.98 293.391 127.957 293.822 127.857C293.392 127.778 292.958 127.726 292.521 127.703C291.459 127.531 290.375 127.559 289.323 127.787C288.743 127.947 288.198 128.211 287.713 128.567C287.493 128.75 287.334 128.995 287.256 129.27C287.206 129.502 287.206 129.742 287.256 129.973C287.282 130.143 287.341 130.305 287.432 130.45C287.523 130.595 287.642 130.72 287.784 130.817C287.959 130.95 288.093 130.957 288.1 130.936Z" fill="#6F4439"/>
<path d="M286.968 120.245C286.968 120.245 287.032 120.153 287.193 120.006C287.415 119.801 287.65 119.611 287.896 119.436C288.693 118.839 289.574 118.365 290.511 118.03C291.438 117.674 292.432 117.53 293.421 117.609C293.823 117.701 294.219 117.813 294.609 117.946C294.295 117.645 293.894 117.448 293.463 117.384C292.434 117.239 291.384 117.357 290.413 117.728C288.107 118.551 286.772 120.146 286.968 120.245Z" fill="#6F4439"/>
<path d="M72.8523 37.1208H68.1623L67.3862 39.3645H64.9062L69.1408 27.572H71.8906L76.1251 39.3645H73.6283L72.8523 37.1208ZM72.2112 35.2313L70.5073 30.3051L68.8033 35.2313H72.2112Z" fill="#2A8EF1"/>
<path d="M86.295 31.2329C86.295 31.8628 86.1432 32.4532 85.8395 33.0044C85.5471 33.5555 85.0804 33.9997 84.4393 34.3371C83.8094 34.6745 83.0109 34.8432 82.0437 34.8432H80.0698V39.3645H77.7079V27.5889H82.0437C82.9547 27.5889 83.7307 27.7464 84.3718 28.0613C85.0129 28.3762 85.4909 28.8092 85.8058 29.3603C86.132 29.9114 86.295 30.5356 86.295 31.2329ZM81.9424 32.9369C82.5948 32.9369 83.0784 32.7907 83.3933 32.4982C83.7082 32.1946 83.8657 31.7728 83.8657 31.2329C83.8657 30.0858 83.2246 29.5122 81.9424 29.5122H80.0698V32.9369H81.9424Z" fill="#2A8EF1"/>
<path d="M96.559 31.2329C96.559 31.8628 96.4072 32.4532 96.1035 33.0044C95.8111 33.5555 95.3444 33.9997 94.7033 34.3371C94.0734 34.6745 93.2749 34.8432 92.3077 34.8432H90.3338V39.3645H87.9719V27.5889H92.3077C93.2187 27.5889 93.9947 27.7464 94.6358 28.0613C95.2769 28.3762 95.7549 28.8092 96.0698 29.3603C96.396 29.9114 96.559 30.5356 96.559 31.2329ZM92.2064 32.9369C92.8588 32.9369 93.3424 32.7907 93.6573 32.4982C93.9722 32.1946 94.1297 31.7728 94.1297 31.2329C94.1297 30.0858 93.4886 29.5122 92.2064 29.5122H90.3338V32.9369H92.2064Z" fill="#2A8EF1"/>
<path d="M104.309 39.3645L101.711 34.7758H100.598V39.3645H98.2359V27.5889H102.656C103.567 27.5889 104.343 27.752 104.984 28.0782C105.625 28.3931 106.103 28.8261 106.418 29.3772C106.744 29.917 106.907 30.5244 106.907 31.1992C106.907 31.9753 106.682 32.6782 106.233 33.308C105.783 33.9266 105.113 34.354 104.225 34.5902L107.042 39.3645H104.309ZM100.598 33.0044H102.572C103.213 33.0044 103.691 32.8525 104.006 32.5488C104.321 32.2339 104.478 31.8009 104.478 31.2498C104.478 30.71 104.321 30.2938 104.006 30.0014C103.691 29.6977 103.213 29.5459 102.572 29.5459H100.598V33.0044Z" fill="#2A8EF1"/>
<path d="M114.51 39.4826C113.407 39.4826 112.395 39.224 111.473 38.7066C110.551 38.1892 109.82 37.475 109.28 36.564C108.74 35.6418 108.47 34.6014 108.47 33.443C108.47 32.2958 108.74 31.2667 109.28 30.3557C109.82 29.4334 110.551 28.7136 111.473 28.1963C112.395 27.6789 113.407 27.4202 114.51 27.4202C115.623 27.4202 116.635 27.6789 117.546 28.1963C118.469 28.7136 119.194 29.4334 119.723 30.3557C120.263 31.2667 120.532 32.2958 120.532 33.443C120.532 34.6014 120.263 35.6418 119.723 36.564C119.194 37.475 118.469 38.1892 117.546 38.7066C116.624 39.224 115.612 39.4826 114.51 39.4826ZM114.51 37.3738C115.218 37.3738 115.842 37.2164 116.382 36.9014C116.922 36.5753 117.344 36.1142 117.648 35.5181C117.951 34.922 118.103 34.2303 118.103 33.443C118.103 32.6557 117.951 31.9696 117.648 31.3848C117.344 30.7887 116.922 30.3332 116.382 30.0183C115.842 29.7034 115.218 29.5459 114.51 29.5459C113.801 29.5459 113.171 29.7034 112.62 30.0183C112.08 30.3332 111.659 30.7887 111.355 31.3848C111.051 31.9696 110.899 32.6557 110.899 33.443C110.899 34.2303 111.051 34.922 111.355 35.5181C111.659 36.1142 112.08 36.5753 112.62 36.9014C113.171 37.2164 113.801 37.3738 114.51 37.3738Z" fill="#2A8EF1"/>
<path d="M132.867 27.5889L128.549 39.3645H125.681L121.362 27.5889H123.892L127.131 36.9521L130.354 27.5889H132.867Z" fill="#2A8EF1"/>
<path d="M136.645 29.4953V32.4476H140.61V34.3203H136.645V37.4413H141.116V39.3645H134.283V27.572H141.116V29.4953H136.645Z" fill="#2A8EF1"/>
<path d="M147.379 27.5889C148.616 27.5889 149.701 27.8307 150.635 28.3143C151.58 28.798 152.305 29.4897 152.811 30.3894C153.329 31.2779 153.587 32.3127 153.587 33.4936C153.587 34.6745 153.329 35.7093 152.811 36.5978C152.305 37.475 151.58 38.1555 150.635 38.6391C149.701 39.1227 148.616 39.3645 147.379 39.3645H143.262V27.5889H147.379ZM147.294 37.3569C148.532 37.3569 149.488 37.0195 150.162 36.3447C150.837 35.6699 151.175 34.7195 151.175 33.4936C151.175 32.2677 150.837 31.3117 150.162 30.6256C149.488 29.9283 148.532 29.5796 147.294 29.5796H145.624V37.3569H147.294Z" fill="#2A8EF1"/>
</g>
<defs>
<clipPath id="clip0_40_1173">
<rect width="300" height="316.301" fill="white" transform="translate(0.5)"/>
</clipPath>
</defs>
</svg>
