<svg width="49" height="49" viewBox="0 0 49 49" fill="none" xmlns="http://www.w3.org/2000/svg">
<path d="M40.9133 18.0832V17.6566C40.8224 14.0445 39.3062 10.6152 36.6957 8.11712C34.0852 5.61905 30.5925 4.25518 26.98 4.32323C24.2895 4.30128 21.6501 5.05726 19.3792 6.5002C17.1084 7.94314 15.3029 10.0116 14.18 12.4566C11.0184 12.8092 8.09619 14.3101 5.96781 16.6744C3.83942 19.0388 2.65288 22.1021 2.6333 25.2832C2.6368 26.9688 2.97247 28.6371 3.62114 30.1928C4.26981 31.7486 5.21875 33.1612 6.41371 34.35C7.60866 35.5387 9.0262 36.4803 10.5853 37.1209C12.1444 37.7615 13.8144 38.0885 15.5 38.0832H20.5V35.4166H15.5C12.9228 35.2771 10.4944 34.1658 8.70409 32.3068C6.91381 30.4477 5.89484 27.9791 5.85256 25.3986C5.81029 22.818 6.74785 20.3173 8.47627 18.4006C10.2047 16.4839 12.5954 15.2937 15.1666 15.0699H16.06L16.3666 14.2299C17.1936 12.0821 18.6599 10.2399 20.5675 8.95224C22.4752 7.6646 24.7321 6.9936 27.0333 7.0299C29.9387 6.96163 32.7533 8.04452 34.8637 10.0425C36.9742 12.0406 38.2093 14.7918 38.3 17.6966C38.3183 18.0519 38.3183 18.4079 38.3 18.7632L38.1933 19.7232L39.06 20.1232C40.7362 20.8784 42.1012 22.1879 42.9252 23.8313C43.7493 25.4747 43.9822 27.3519 43.5847 29.1469C43.1872 30.9419 42.1836 32.5452 40.7427 33.6871C39.3018 34.8289 37.5116 35.4397 35.6733 35.4166H28.5V38.0832H35.6733C38.0446 38.1002 40.354 37.3266 42.2364 35.8845C44.1189 34.4424 45.4672 32.4142 46.0682 30.1203C46.6692 27.8263 46.4887 25.3975 45.5552 23.2177C44.6216 21.0378 42.9883 19.2311 40.9133 18.0832Z" fill="#525252"/>
<path d="M30.2066 29.8834C30.4726 29.8877 30.7338 29.8123 30.9565 29.6669C31.1793 29.5215 31.3535 29.3128 31.4567 29.0677C31.5599 28.8225 31.5875 28.5521 31.5358 28.2912C31.4841 28.0302 31.3555 27.7907 31.1666 27.6034L24.5 20.9368L17.8333 27.6034C17.6149 27.8585 17.5007 28.1866 17.5137 28.5222C17.5267 28.8577 17.6658 29.1761 17.9032 29.4135C18.1407 29.651 18.459 29.7901 18.7946 29.803C19.1301 29.816 19.4582 29.7019 19.7133 29.4834L23.1666 26.0834V42.4168C23.1666 42.7704 23.3071 43.1095 23.5572 43.3596C23.8072 43.6096 24.1464 43.7501 24.5 43.7501C24.8536 43.7501 25.1927 43.6096 25.4428 43.3596C25.6928 43.1095 25.8333 42.7704 25.8333 42.4168V26.0834L29.26 29.5101C29.5138 29.7548 29.8541 29.889 30.2066 29.8834Z" fill="#525252"/>
</svg>
