<svg width="401" height="321" viewBox="0 0 401 321" fill="none" xmlns="http://www.w3.org/2000/svg">
<path d="M205.067 320.069C312.88 320.069 400.28 314.966 400.28 308.671C400.28 302.377 312.88 297.274 205.067 297.274C97.2545 297.274 9.85492 302.377 9.85492 308.671C9.85492 314.966 97.2545 320.069 205.067 320.069Z" fill="#F5F5F5"/>
<path d="M157.777 276.463L151.333 280.611L139.654 267.029L146.098 262.881L157.777 276.463Z" fill="#FF8B7B"/>
<path opacity="0.2" d="M146.108 262.881L139.654 267.029L145.685 274.027L152.129 269.879L146.108 262.881Z" fill="black"/>
<path d="M108.533 298.613L101.123 299.338L93.421 281.719L100.831 280.994L108.533 298.613Z" fill="#FF8B7B"/>
<path opacity="0.2" d="M93.4311 281.719L97.398 290.81H105.12L100.831 281.004L93.4311 281.719Z" fill="black"/>
<path d="M52.2622 60.7518C48.537 61.0941 48.4363 54.7713 41.8919 57.7314C33.5756 61.517 36.3846 67.3868 29.8906 67.1351C23.3966 66.8834 19.0472 71.9779 20.497 75.8038C21.9468 79.6297 24.192 83.1536 19.6009 84.6739C15.0098 86.1942 11.8887 87.5332 12.5532 91.339C13.2177 95.1448 16.4697 96.6752 10.9926 99.0916C5.51549 101.508 6.06924 112.009 11.4356 112.019C16.802 112.029 11.6571 117.265 16.4697 122.571C21.2823 127.877 28.6019 128.662 31.6526 125.994C34.7032 123.326 38.1063 121.201 43.8452 125.229C49.584 129.256 59.2999 130.263 58.8569 123.89C58.4139 117.516 52.8159 113.318 58.0917 109.995C63.3674 106.673 70.1735 105.032 68.0391 98.568C66.6799 94.5407 62.572 91.037 65.8845 88.0165C71.271 83.1334 71.3012 72.0483 64.6964 69.2494C60.8604 67.5781 64.5555 59.6342 52.2622 60.7518Z" fill="#263238"/>
<path d="M45.0935 110.499C44.9123 113.519 44.5297 116.218 44.0867 119.047C43.6437 121.876 42.9993 124.635 42.2643 127.403C41.5479 130.202 40.6362 132.948 39.5359 135.619C38.9922 136.968 38.3679 138.307 37.7034 139.646C37.3712 140.311 37.0087 140.965 36.6362 141.66C36.4651 141.992 36.2536 142.304 36.0623 142.667L35.7703 143.15C35.5721 143.465 35.3499 143.765 35.1058 144.046C34.5474 144.677 33.8609 145.181 33.0922 145.526C32.4066 145.839 31.6695 146.023 30.9175 146.07C29.8124 146.136 28.7049 145.989 27.6554 145.637C26.0936 145.1 24.6053 144.37 23.2254 143.462C20.7952 141.872 18.4957 140.091 16.3488 138.136C12.2096 134.371 8.35 130.309 4.80054 125.984L7.62971 123.316C9.64335 125.088 11.657 126.89 13.7612 128.602C15.8655 130.313 17.9194 132.025 20.0639 133.636C22.1031 135.213 24.257 136.637 26.5076 137.894C27.4581 138.433 28.473 138.849 29.5281 139.133C29.7819 139.211 30.0496 139.236 30.3134 139.203C30.3134 139.203 30.3134 139.203 30.112 139.203C29.9769 139.264 29.8541 139.35 29.7496 139.455H29.6992L29.9207 139.052C30.0617 138.78 30.2228 138.519 30.3537 138.237C30.6356 137.686 30.9074 137.123 31.1692 136.545C31.6726 135.398 32.176 134.22 32.5787 133.011C33.4245 130.595 34.1292 128.098 34.7535 125.561C35.3777 123.024 35.8509 120.426 36.2738 117.829C36.6966 115.231 37.0188 112.543 37.2806 110.076L45.0935 110.499Z" fill="#FF8B7B"/>
<path d="M50.9432 111.455C50.5405 113.892 48.5168 118.503 46.9159 121.926C45.7279 124.403 44.7613 126.266 44.7613 126.266L43.3518 125.641L31.6827 120.446C32.5687 114.154 34.0085 107.307 40.9455 104.267C45.2748 102.354 51.6581 107.106 50.9432 111.455Z" fill="#2A8EF1"/>
<path opacity="0.6" d="M50.9432 111.455C50.5405 113.892 48.5168 118.503 46.9159 121.926C45.7279 124.403 44.7613 126.266 44.7613 126.266L43.3518 125.641L31.6827 120.446C32.5687 114.154 34.0085 107.307 40.9455 104.267C45.2748 102.354 51.6581 107.106 50.9432 111.455Z" fill="black"/>
<path opacity="0.3" d="M46.8857 121.926C45.6976 124.403 44.7311 126.266 44.7311 126.266L43.3215 125.641C43.5128 123.155 44.0062 119.238 45.3352 117.476C46.1653 118.831 46.6941 120.349 46.8857 121.926Z" fill="black"/>
<path d="M8.10295 125.48L9.02923 118.704L1.42773 121.201C1.42773 121.201 2.63592 125.299 5.34427 126.98L8.10295 125.48Z" fill="#FF8B7B"/>
<path d="M5.58598 112.915L0.280029 115.825L1.42781 121.201L9.02931 118.704L5.58598 112.915Z" fill="#FF8B7B"/>
<path d="M148.957 278.577L155.955 273.543C156.075 273.456 156.222 273.414 156.371 273.427C156.519 273.44 156.657 273.507 156.76 273.614L161.522 278.577C161.638 278.706 161.725 278.858 161.778 279.023C161.831 279.188 161.849 279.362 161.83 279.534C161.811 279.706 161.756 279.872 161.668 280.021C161.58 280.17 161.462 280.299 161.321 280.4C158.854 282.101 157.576 282.806 154.495 285.011C152.602 286.37 148.615 289.653 145.997 291.525C143.379 293.398 141.396 290.911 142.312 289.894C146.44 285.353 147.538 282.252 148.192 279.685C148.312 279.239 148.583 278.848 148.957 278.577Z" fill="#263238"/>
<path d="M100.147 297.053H109.208C109.371 297.056 109.529 297.111 109.657 297.211C109.786 297.311 109.879 297.449 109.923 297.606L111.936 304.795C111.985 304.965 111.994 305.144 111.961 305.318C111.928 305.491 111.854 305.655 111.747 305.795C111.639 305.935 111.5 306.048 111.34 306.124C111.181 306.201 111.006 306.239 110.829 306.235C107.627 306.235 106.107 306.235 102.11 306.235H89.887C86.5645 306.235 85.8598 302.882 87.2391 302.58C93.4008 301.211 96.9549 299.328 98.8578 297.546C99.2089 297.224 99.6698 297.047 100.147 297.053Z" fill="#263238"/>
<path d="M86.3128 138.74L56.6418 148.124C36.1026 107.468 39.0325 105.314 39.0325 105.314C39.0325 105.314 43.7746 102.605 48.708 100.35C49.4531 100.008 50.2082 99.6755 50.9532 99.3433C55.3363 97.6014 59.8382 96.1748 64.4245 95.0744C65.0991 94.8931 65.7736 94.732 66.4381 94.5709C70.0905 93.7449 73.7887 93.1364 77.5132 92.7486C77.9562 98.3767 78.3992 103.139 78.8825 107.277C79.5067 112.674 80.1812 116.993 80.8961 120.728C82.2174 126.867 84.0288 132.891 86.3128 138.74Z" fill="#2A8EF1"/>
<path opacity="0.6" d="M86.3128 138.74L56.6418 148.124C36.1026 107.468 39.0325 105.314 39.0325 105.314C39.0325 105.314 43.7746 102.605 48.708 100.35C49.4531 100.008 50.2082 99.6755 50.9532 99.3433C55.3363 97.6014 59.8382 96.1748 64.4245 95.0744C65.0991 94.8931 65.7736 94.732 66.4381 94.5709C70.0905 93.7449 73.7887 93.1364 77.5132 92.7486C77.9562 98.3767 78.3992 103.139 78.8825 107.277C79.5067 112.674 80.1812 116.993 80.8961 120.728C82.2174 126.867 84.0288 132.891 86.3128 138.74Z" fill="black"/>
<path opacity="0.3" d="M80.9767 120.748C78.1274 116.721 75.3989 107.347 76.1037 103.834L78.9227 107.297C79.547 112.694 80.2215 117.013 80.9767 120.748Z" fill="black"/>
<path d="M57.699 112.905C57.699 112.905 65.1797 111.284 67.586 114.526C70.8883 111.284 69.7204 98.5781 68.1296 94.0474C66.8681 94.2616 65.6305 94.5988 64.4346 95.0542L59.1488 103.23L57.699 112.905Z" fill="white"/>
<path d="M57.699 112.905C57.699 112.905 52.6649 114.033 52.1313 118.141C45.0836 112.905 45.5769 105.223 47.1677 100.692C48.3753 100.108 49.6453 99.662 50.9533 99.3634L56.2391 105.173L57.699 112.905Z" fill="white"/>
<path d="M59.4207 86.5164C60.4275 90.2215 61.9579 93.8863 64.4548 95.0945C64.4548 95.0945 66.7806 101.76 57.7192 112.905C48.2349 106.149 50.9735 99.3534 50.9735 99.3534C55.4437 96.6752 54.1852 93.1312 52.2823 90.0201L54.9101 85.8116C55.1692 85.4012 55.5427 85.0756 55.9846 84.8749C56.4265 84.6741 56.9174 84.6071 57.397 84.682C57.8765 84.757 58.3236 84.9706 58.6832 85.2965C59.0428 85.6225 59.2992 86.0465 59.4207 86.5164Z" fill="#FF8B7B"/>
<path opacity="0.2" d="M59.4206 86.5163C59.3002 86.0416 59.0429 85.6128 58.6807 85.2832C58.3184 84.9536 57.8672 84.7378 57.3832 84.6627C56.8993 84.5875 56.4039 84.6564 55.9588 84.8607C55.5137 85.065 55.1385 85.3957 54.8799 85.8116L54.0341 87.1607C54.1046 88.0568 54.1449 88.7918 54.1348 89.1744C54.0543 91.7921 57.7292 91.6713 60.7194 90.4127C60.1864 89.1495 59.7522 87.8468 59.4206 86.5163Z" fill="black"/>
<path d="M41.2073 76.3877C43.825 83.5362 44.7714 86.617 49.5639 89.2549C56.7626 93.2218 64.9582 88.4495 64.5353 80.6768C64.1527 73.6291 59.9442 63.1682 51.9601 62.3929C50.2007 62.2127 48.4244 62.4854 46.8001 63.1851C45.1758 63.8849 43.7575 64.9885 42.6799 66.3909C41.6024 67.7934 40.9014 69.4481 40.6436 71.1978C40.3859 72.9476 40.5799 74.7341 41.2073 76.3877Z" fill="#FF8B7B"/>
<path d="M59.7227 65.6651C57.2661 63.2991 54.6886 60.5505 49.7552 61.0841C44.2982 61.6781 42.1436 64.9805 42.1436 64.9805L37.4518 75.24C37.4518 75.24 40.3616 88.4495 45.1641 82.2877C47.9329 78.7337 48.0436 73.3472 46.9663 69.3199C48.8532 69.05 50.7129 68.6154 52.524 68.0211C54.739 68.8567 57.2258 68.8567 59.0683 67.1653C59.471 66.7928 59.763 66.5008 59.9744 66.2692L60.1456 66.0779C60.7195 65.3731 60.2664 65.4436 59.7227 65.6651ZM53.3798 67.7492C55.0997 67.193 56.8471 66.7258 58.6152 66.3498C57.9578 67.0451 57.1202 67.5442 56.1958 67.7913C55.2713 68.0384 54.2964 68.0239 53.3798 67.7492Z" fill="#263238"/>
<path d="M41.5698 83.6469C41.9423 84.2769 42.4355 84.8271 43.0213 85.266C43.607 85.7049 44.2736 86.0237 44.9829 86.2042C46.8757 86.6775 47.7718 84.9759 47.1979 83.1838C46.6844 81.593 45.0836 79.4485 43.1706 79.7505C42.7572 79.8245 42.3692 80.0016 42.0424 80.2653C41.7156 80.5291 41.4606 80.871 41.301 81.2595C41.1414 81.6479 41.0824 82.0703 41.1294 82.4876C41.1763 82.9049 41.3278 83.3037 41.5698 83.6469Z" fill="#FF8B7B"/>
<path d="M56.6419 148.124C56.6419 148.124 55.6351 208.936 63.5789 230.905C71.2307 251.967 94.0554 288.173 94.0554 288.173L107.285 287.83C107.285 287.83 86.2626 241.99 82.8293 223.857C77.1105 193.783 78.3691 141.297 78.3691 141.297L56.6419 148.124Z" fill="#2A8EF1"/>
<path opacity="0.3" d="M68.5223 153.329L72.0764 143.261L78.369 141.247C78.369 141.247 77.7951 165.139 79.1744 189.917C73.4658 178.973 68.5223 158.836 68.5223 153.329Z" fill="black"/>
<path d="M92.1927 288.857L108.533 288.444L107.587 283.42L89.7461 284.266L92.1927 288.857Z" fill="#263238"/>
<path d="M63.1057 146.16C63.1057 146.16 83.7455 193.38 97.0859 220.252C107.859 241.949 141.386 271.077 141.386 271.077L150.578 264.693C150.578 264.693 125.347 230.21 117.907 215.49C94.0956 168.381 99.9654 148.98 86.2726 138.74L63.1057 146.16Z" fill="#2A8EF1"/>
<path d="M141.93 274.117L152.723 266.435L150.276 261.723L138.416 270.694L141.93 274.117Z" fill="#263238"/>
<path d="M86.2625 136.857L88.4372 139.093C88.6084 139.264 88.4372 139.556 88.0848 139.656L56.964 149.503C56.7022 149.594 56.4404 149.503 56.37 149.362L55.2625 146.795C55.1819 146.614 55.3631 146.392 55.6551 146.291L85.7087 136.787C85.7992 136.75 85.8978 136.736 85.9949 136.749C86.092 136.761 86.1842 136.799 86.2625 136.857Z" fill="#263238"/>
<path d="M83.2421 141.499L84.0475 141.237C84.2086 141.187 84.3093 141.066 84.2589 140.975L82.7991 137.643C82.7559 137.588 82.6958 137.55 82.6283 137.534C82.5609 137.517 82.4899 137.524 82.4265 137.552L81.6211 137.804C81.46 137.864 81.3593 137.985 81.4096 138.076L82.8796 141.408C82.9098 141.509 83.0709 141.549 83.2421 141.499Z" fill="#2A8EF1"/>
<path d="M59.2697 149.08L60.0751 148.818C60.2362 148.768 60.3268 148.647 60.2866 148.557L58.8166 145.274C58.8166 145.174 58.6052 145.134 58.4441 145.184L57.6386 145.446C57.4876 145.446 57.3869 145.617 57.4272 145.707L58.8971 149.04C58.9465 149.086 59.0095 149.115 59.0767 149.122C59.1439 149.129 59.2116 149.115 59.2697 149.08Z" fill="#2A8EF1"/>
<path d="M71.2508 145.274L72.0563 145.023C72.2174 145.023 72.3181 144.852 72.2677 144.751L70.7978 141.418C70.7978 141.328 70.5964 141.287 70.4353 141.338L69.6299 141.589C69.4688 141.64 69.3681 141.761 69.4184 141.861L70.8783 145.194C70.9238 145.245 70.9844 145.281 71.0514 145.295C71.1184 145.31 71.1883 145.302 71.2508 145.274Z" fill="#2A8EF1"/>
<path d="M53.7322 74.797C53.9134 75.391 54.3665 75.8038 54.739 75.6629C55.1115 75.5219 55.2927 74.9681 55.1115 74.3741C54.9303 73.7801 54.4873 73.3673 54.1047 73.5183C53.7221 73.6694 53.561 74.2332 53.7322 74.797Z" fill="#263238"/>
<path d="M60.4275 72.8337C60.6087 73.4277 61.0618 73.8405 61.4343 73.6995C61.8068 73.5586 61.9881 73.0048 61.8169 72.4108C61.6457 71.8168 61.1826 71.404 60.8101 71.555C60.4376 71.706 60.2563 72.2397 60.4275 72.8337Z" fill="#263238"/>
<path d="M60.6489 71.6355L61.9477 70.7999C61.9477 70.7999 61.5551 72.1289 60.6489 71.6355Z" fill="#263238"/>
<path d="M58.7562 74.3641C59.6874 75.558 60.7783 76.6184 61.9981 77.5154C61.7571 77.8209 61.4517 78.0695 61.1036 78.2435C60.7556 78.4175 60.3735 78.5127 59.9845 78.5222L58.7562 74.3641Z" fill="#FF5652"/>
<path d="M57.991 81.7843C58.0199 81.7628 58.0413 81.7328 58.0521 81.6984C58.063 81.6641 58.0627 81.6272 58.0514 81.593C58.0374 81.548 58.0065 81.5103 57.9651 81.4877C57.9238 81.4652 57.8753 81.4596 57.8299 81.4722C57.0986 81.711 56.321 81.7726 55.5613 81.6518C54.8016 81.531 54.0814 81.2313 53.4603 80.7775C53.4418 80.7616 53.4203 80.7496 53.3971 80.742C53.374 80.7344 53.3495 80.7315 53.3252 80.7333C53.2761 80.7371 53.2306 80.7602 53.1985 80.7976C53.1665 80.835 53.1506 80.8836 53.1544 80.9327C53.1581 80.9818 53.1813 81.0274 53.2186 81.0594C53.8864 81.5528 54.6624 81.8796 55.4819 82.0127C56.3015 82.1458 57.141 82.0813 57.9306 81.8246C57.9429 81.8224 57.9546 81.8177 57.965 81.8108C57.9754 81.8038 57.9842 81.7948 57.991 81.7843Z" fill="#263238"/>
<path d="M51.205 73.1961C51.2496 73.1541 51.284 73.1025 51.3057 73.0451C51.4551 72.6153 51.7033 72.2265 52.0303 71.91C52.3573 71.5935 52.754 71.3581 53.1884 71.2228C53.2356 71.2132 53.2803 71.1944 53.3201 71.1673C53.3598 71.1403 53.3938 71.1056 53.4201 71.0653C53.4463 71.025 53.4643 70.9799 53.4729 70.9326C53.4815 70.8853 53.4807 70.8368 53.4703 70.7898C53.4486 70.696 53.3914 70.6142 53.3107 70.5616C53.23 70.5091 53.132 70.4898 53.0374 70.5079C52.4844 70.6687 51.9777 70.959 51.5592 71.3547C51.1407 71.7504 50.8226 72.2402 50.6311 72.7833C50.6033 72.8584 50.6011 72.9406 50.6249 73.0171C50.6487 73.0935 50.6972 73.16 50.7628 73.206C50.8283 73.252 50.9073 73.275 50.9873 73.2714C51.0673 73.2678 51.1438 73.2378 51.205 73.1861V73.1961Z" fill="#263238"/>
<path d="M62.4714 69.038C62.467 69.0147 62.467 68.9908 62.4714 68.9675C62.4839 68.8733 62.4609 68.7779 62.407 68.6997C62.353 68.6216 62.2719 68.5663 62.1794 68.5446C61.6154 68.4212 61.03 68.4355 60.4727 68.5862C59.9154 68.7369 59.4026 69.0197 58.9777 69.4105C58.911 69.4799 58.8745 69.573 58.8764 69.6693C58.8783 69.7656 58.9184 69.8572 58.9878 69.924C59.0572 69.9907 59.1503 70.0272 59.2466 70.0253C59.3429 70.0234 59.4345 69.9833 59.5013 69.9139C59.8423 69.6119 60.2501 69.3951 60.6911 69.2814C61.1322 69.1676 61.5939 69.1601 62.0385 69.2595C62.1252 69.2805 62.2166 69.2698 62.2961 69.2291C62.3755 69.1885 62.4377 69.1206 62.4714 69.038Z" fill="#263238"/>
<path d="M82.0641 99.8668C83.2622 100.773 84.269 101.609 85.3161 102.515C86.3632 103.421 87.3297 104.327 88.3366 105.263C90.2999 107.156 92.1927 109.14 93.9848 111.214C95.7969 113.299 97.4781 115.495 99.0189 117.788C99.4217 118.352 99.774 118.966 100.147 119.55C100.519 120.134 100.892 120.728 101.224 121.342C101.556 121.956 101.909 122.53 102.231 123.215L102.764 124.333L103.197 125.46C104.124 128.32 104.56 131.315 104.486 134.32C104.426 137.113 104.126 139.895 103.59 142.637C103.052 145.303 102.38 147.941 101.576 150.54C100.762 153.122 99.8147 155.659 98.737 158.142L95.0923 156.792C95.7166 154.376 96.3106 151.839 96.7536 149.332C97.2456 146.849 97.6052 144.342 97.8309 141.821C98.0728 139.379 98.1301 136.922 98.002 134.471C97.9299 133.309 97.7887 132.153 97.5792 131.008C97.3597 129.951 97.0532 128.913 96.663 127.907L96.3509 127.212L96.0085 126.568C95.7367 126.105 95.3642 125.561 95.0017 125.057C94.6392 124.554 94.3372 124.051 93.9949 123.537C93.6526 123.024 93.3002 122.53 92.9176 122.037C91.4476 120.023 89.7864 118.201 88.1352 116.338C86.484 114.476 84.6717 112.714 82.8292 111.012C81.9231 110.146 80.9868 109.301 80.0504 108.475C79.1141 107.65 78.1073 106.824 77.2414 106.119L82.0641 99.8668Z" fill="#FF8B7B"/>
<path d="M96.2502 154.386L90.7328 158.413L97.7806 162.139C97.7806 162.139 99.8848 158.413 99.2103 155.302L96.2502 154.386Z" fill="#FF8B7B"/>
<path d="M88.991 164.938L94.7601 166.73L97.8309 162.159L90.7328 158.434L88.991 164.938Z" fill="#FF8B7B"/>
<path d="M77.5535 92.7687C81.4097 92.5976 88.991 102.072 88.991 102.072L81.1177 113.147C81.1177 113.147 72.2778 106.099 71.5932 101.196C71.0193 97.0678 72.6403 92.9902 77.5535 92.7687Z" fill="#2A8EF1"/>
<path opacity="0.6" d="M77.5535 92.7687C81.4097 92.5976 88.991 102.072 88.991 102.072L81.1177 113.147C81.1177 113.147 72.2778 106.099 71.5932 101.196C71.0193 97.0678 72.6403 92.9902 77.5535 92.7687Z" fill="black"/>
<path d="M146.309 281.729H146.188C146.013 281.708 145.846 281.641 145.705 281.535C145.563 281.429 145.452 281.287 145.383 281.125C145.33 281.029 145.302 280.922 145.302 280.813C145.302 280.703 145.33 280.596 145.383 280.5C145.876 279.655 148.645 279.494 148.957 279.494C148.992 279.493 149.027 279.502 149.057 279.52C149.087 279.538 149.112 279.564 149.128 279.594C149.148 279.624 149.159 279.659 149.159 279.695C149.159 279.731 149.148 279.766 149.128 279.796C148.454 280.531 147.256 281.729 146.309 281.729ZM148.524 279.886C147.417 279.967 145.947 280.229 145.695 280.672C145.668 280.712 145.653 280.759 145.653 280.808C145.653 280.856 145.668 280.903 145.695 280.943C145.739 281.053 145.811 281.149 145.902 281.223C145.994 281.297 146.103 281.346 146.219 281.366C146.752 281.427 147.598 280.873 148.524 279.886Z" fill="#2A8EF1"/>
<path d="M148.766 279.866C147.84 279.866 146.017 279.353 145.675 278.608C145.62 278.476 145.611 278.329 145.647 278.191C145.683 278.053 145.764 277.931 145.876 277.843C145.979 277.746 146.101 277.673 146.235 277.629C146.37 277.585 146.512 277.572 146.652 277.591C147.749 277.702 149.048 279.494 149.098 279.605C149.115 279.632 149.124 279.663 149.124 279.695C149.124 279.727 149.115 279.759 149.098 279.786C149.086 279.815 149.067 279.84 149.042 279.86C149.018 279.879 148.988 279.892 148.957 279.897L148.766 279.866ZM146.531 277.953C146.381 277.952 146.236 278.01 146.128 278.114C145.957 278.265 145.977 278.376 146.007 278.457C146.229 278.95 147.658 279.464 148.595 279.464C148.132 278.89 147.266 277.984 146.581 277.913L146.531 277.953Z" fill="#2A8EF1"/>
<path d="M96.1092 298.553C95.4891 298.598 94.8702 298.45 94.3372 298.13C94.2 298.027 94.0873 297.896 94.0072 297.744C93.9271 297.593 93.8816 297.425 93.874 297.254C93.8647 297.159 93.8813 297.062 93.9221 296.976C93.9628 296.889 94.0262 296.815 94.1056 296.761C94.9312 296.197 98.0221 297.606 98.6363 297.898C98.6706 297.913 98.699 297.939 98.7172 297.972C98.7354 298.005 98.7423 298.043 98.737 298.08C98.7336 298.118 98.7182 298.154 98.6928 298.183C98.6675 298.212 98.6336 298.232 98.596 298.241C97.7796 298.428 96.9465 298.532 96.1092 298.553ZM94.6694 296.982C94.5432 296.97 94.4163 296.999 94.307 297.063C94.307 297.063 94.2365 297.123 94.2365 297.234C94.2418 297.352 94.2735 297.468 94.3293 297.572C94.385 297.677 94.4634 297.768 94.5587 297.838C95.0923 298.241 96.3508 298.291 97.9718 297.989C96.9288 297.487 95.8151 297.147 94.6694 296.982Z" fill="#2A8EF1"/>
<path d="M98.5558 298.241H98.4954C97.4886 297.818 95.3944 296.157 95.4749 295.301C95.4749 295.11 95.6259 294.878 96.0891 294.818C97.9014 294.606 98.6665 297.888 98.6968 298.029C98.7016 298.062 98.6987 298.096 98.6882 298.127C98.6777 298.159 98.6599 298.187 98.6363 298.211C98.6118 298.226 98.5844 298.236 98.5558 298.241ZM96.3307 295.16H96.2099C96.0186 295.16 95.9179 295.24 95.8978 295.331C95.8374 295.824 97.2671 297.133 98.3142 297.707C98.0423 296.932 97.3879 295.16 96.3307 295.16Z" fill="#2A8EF1"/>
<path d="M53.9536 73.6291L55.2524 72.7934C55.2524 72.7934 54.8598 74.1224 53.9536 73.6291Z" fill="#263238"/>
<path d="M243.961 0.000265831H97.6396C96.0763 -0.0103876 94.5274 0.299273 93.0884 0.910151C91.6493 1.52103 90.3507 2.42018 89.2725 3.55217C88.1942 4.68417 87.3593 6.02501 86.8191 7.49204C86.2789 8.95907 86.045 10.5212 86.1316 12.0821L99.8546 296.59C100.05 299.831 101.465 302.878 103.814 305.119C106.163 307.36 109.274 308.629 112.52 308.671H258.842C260.405 308.682 261.953 308.372 263.392 307.762C264.83 307.151 266.128 306.251 267.206 305.119C268.283 303.987 269.117 302.646 269.656 301.179C270.195 299.712 270.428 298.15 270.34 296.59L256.627 12.0821C256.431 8.84112 255.017 5.7941 252.667 3.55299C250.318 1.31189 247.208 0.042684 243.961 0.000265831Z" fill="black"/>
<path d="M249.368 0.000270037H103.006C101.443 -0.0104691 99.8946 0.299211 98.4561 0.910197C97.0176 1.52118 95.7195 2.42051 94.6421 3.55267C93.5646 4.68483 92.7307 6.02579 92.1916 7.49279C91.6526 8.9598 91.42 10.5217 91.5081 12.0821L105.221 296.59C105.416 299.831 106.831 302.878 109.18 305.119C111.53 307.36 114.64 308.629 117.887 308.671H264.208C265.771 308.682 267.319 308.373 268.758 307.762C270.196 307.151 271.494 306.251 272.572 305.119C273.649 303.987 274.483 302.646 275.022 301.179C275.561 299.712 275.794 298.15 275.706 296.59L261.993 12.0821C261.798 8.84796 260.389 5.80663 258.048 3.56654C255.707 1.32644 252.607 0.0527564 249.368 0.000270037Z" fill="#263238"/>
<path d="M117.474 300.617C116.396 300.59 115.367 300.162 114.587 299.418C113.807 298.673 113.333 297.665 113.255 296.59L99.5626 12.0822C99.5396 11.5632 99.6216 11.045 99.8038 10.5586C99.9859 10.0721 100.265 9.62751 100.623 9.25139C100.981 8.87527 101.412 8.57541 101.889 8.3698C102.366 8.16419 102.879 8.05707 103.399 8.05487H249.72C250.798 8.07986 251.829 8.50662 252.609 9.25157C253.389 9.99651 253.864 11.0059 253.939 12.0822L267.651 296.59C267.674 297.108 267.593 297.625 267.411 298.111C267.23 298.597 266.952 299.041 266.595 299.417C266.238 299.793 265.808 300.093 265.332 300.299C264.857 300.505 264.344 300.613 263.825 300.617H117.474Z" fill="#2A8EF1"/>
<path opacity="0.1" d="M117.404 298.603C116.865 298.585 116.353 298.37 115.963 297.999C115.573 297.628 115.333 297.126 115.289 296.59L101.576 12.0821C101.568 11.8239 101.612 11.5667 101.704 11.3254C101.796 11.084 101.935 10.8633 102.113 10.676C102.29 10.4888 102.504 10.3386 102.74 10.2343C102.976 10.1301 103.231 10.0737 103.489 10.0685H249.811C250.349 10.0864 250.861 10.3015 251.251 10.6727C251.641 11.044 251.881 11.5456 251.925 12.0821L265.638 296.59C265.647 296.848 265.605 297.106 265.513 297.348C265.422 297.59 265.283 297.811 265.105 297.999C264.927 298.186 264.713 298.336 264.476 298.44C264.239 298.544 263.983 298.599 263.725 298.603H117.404Z" fill="black"/>
<g opacity="0.3">
<path d="M161.563 282.202H132.576C131.781 282.193 131.018 281.883 130.442 281.333C129.867 280.784 129.521 280.036 129.475 279.242L127.361 235.234C127.337 234.845 127.393 234.456 127.526 234.091C127.66 233.725 127.867 233.391 128.136 233.11C128.404 232.83 128.726 232.609 129.083 232.458C129.44 232.307 129.823 232.231 130.21 232.234H159.247C160.041 232.24 160.802 232.549 161.376 233.097C161.951 233.645 162.294 234.391 162.338 235.184L164.422 279.182C164.447 279.571 164.391 279.962 164.259 280.329C164.126 280.696 163.919 281.031 163.65 281.315C163.382 281.598 163.058 281.823 162.699 281.976C162.34 282.129 161.953 282.206 161.563 282.202ZM130.17 233.24C129.918 233.237 129.668 233.286 129.436 233.384C129.204 233.481 128.994 233.626 128.82 233.808C128.646 233.991 128.512 234.207 128.425 234.443C128.339 234.68 128.302 234.932 128.317 235.184L130.442 279.182C130.47 279.72 130.702 280.228 131.091 280.602C131.48 280.976 131.997 281.188 132.536 281.195H161.563C161.815 281.197 162.065 281.147 162.297 281.048C162.53 280.949 162.739 280.804 162.913 280.621C163.087 280.438 163.221 280.221 163.307 279.984C163.394 279.746 163.43 279.494 163.415 279.242L161.291 235.234C161.268 234.695 161.038 234.186 160.651 233.811C160.263 233.436 159.746 233.225 159.207 233.22L130.17 233.24Z" fill="#FAFAFA"/>
<path d="M158.824 243.51H131.569C131.436 243.51 131.308 243.457 131.213 243.363C131.119 243.268 131.066 243.14 131.066 243.007C131.066 242.873 131.119 242.745 131.213 242.651C131.308 242.556 131.436 242.503 131.569 242.503H158.854C158.988 242.503 159.116 242.556 159.21 242.651C159.305 242.745 159.358 242.873 159.358 243.007C159.358 243.075 159.344 243.143 159.317 243.206C159.29 243.27 159.25 243.327 159.2 243.374C159.15 243.421 159.091 243.457 159.026 243.481C158.961 243.504 158.893 243.514 158.824 243.51Z" fill="#FAFAFA"/>
<path d="M159.106 249.198H131.811C131.678 249.196 131.552 249.142 131.458 249.048C131.364 248.954 131.31 248.828 131.308 248.695C131.308 248.562 131.361 248.434 131.455 248.339C131.55 248.245 131.678 248.192 131.811 248.192H159.106C159.24 248.192 159.368 248.245 159.462 248.339C159.556 248.434 159.609 248.562 159.609 248.695C159.607 248.828 159.553 248.954 159.459 249.048C159.365 249.142 159.239 249.196 159.106 249.198Z" fill="#FAFAFA"/>
<path d="M159.378 254.887H132.083C131.95 254.884 131.824 254.831 131.73 254.737C131.636 254.643 131.582 254.516 131.58 254.384C131.58 254.25 131.633 254.122 131.727 254.028C131.821 253.933 131.949 253.88 132.083 253.88H159.378C159.511 253.88 159.639 253.933 159.734 254.028C159.828 254.122 159.881 254.25 159.881 254.384C159.881 254.517 159.828 254.645 159.734 254.74C159.639 254.834 159.511 254.887 159.378 254.887Z" fill="#FAFAFA"/>
<path d="M159.65 260.576H132.365C132.231 260.576 132.103 260.523 132.009 260.428C131.914 260.334 131.861 260.206 131.861 260.072C131.861 259.939 131.914 259.811 132.009 259.716C132.103 259.622 132.231 259.569 132.365 259.569H159.65C159.783 259.569 159.911 259.622 160.006 259.716C160.1 259.811 160.153 259.939 160.153 260.072C160.153 260.206 160.1 260.334 160.006 260.428C159.911 260.523 159.783 260.576 159.65 260.576Z" fill="#FAFAFA"/>
<path d="M159.922 266.254H132.637C132.503 266.254 132.375 266.201 132.281 266.107C132.186 266.012 132.133 265.884 132.133 265.751C132.133 265.617 132.186 265.489 132.281 265.395C132.375 265.3 132.503 265.247 132.637 265.247H159.922C160.055 265.247 160.183 265.3 160.278 265.395C160.372 265.489 160.425 265.617 160.425 265.751C160.425 265.884 160.372 266.012 160.278 266.107C160.183 266.201 160.055 266.254 159.922 266.254Z" fill="#FAFAFA"/>
<path d="M154.606 271.943H132.909C132.775 271.943 132.647 271.89 132.553 271.795C132.458 271.701 132.405 271.573 132.405 271.439C132.405 271.306 132.458 271.178 132.553 271.083C132.647 270.989 132.775 270.936 132.909 270.936H154.606C154.738 270.938 154.865 270.992 154.959 271.086C155.053 271.18 155.106 271.306 155.109 271.439C155.109 271.573 155.056 271.701 154.962 271.795C154.867 271.89 154.739 271.943 154.606 271.943Z" fill="#FAFAFA"/>
</g>
<path opacity="0.2" d="M232.453 37.1419H132.778L142.493 238.617C142.965 246.872 146.555 254.641 152.536 260.351C158.517 266.061 166.443 269.287 174.712 269.375H274.387L264.671 67.8902C264.199 59.6355 260.61 51.8682 254.628 46.1598C248.647 40.4513 240.721 37.228 232.453 37.1419Z" fill="black"/>
<path d="M256.868 37.1419H132.808C141.075 37.2304 149 40.4545 154.981 46.1625C160.962 51.8704 164.552 59.6364 165.026 67.8902L172.95 231.861C173.422 240.117 177.011 247.885 182.992 253.595C188.973 259.305 196.899 262.531 205.168 262.619H267.722C271.705 262.66 275.654 261.88 279.323 260.329C282.992 258.778 286.303 256.489 289.05 253.605C291.797 250.72 293.921 247.301 295.29 243.56C296.66 239.82 297.245 235.838 297.01 231.861L289.097 67.86C288.617 59.609 285.023 51.8477 279.04 46.1453C273.058 40.443 265.133 37.225 256.868 37.1419Z" fill="#FAFAFA"/>
<path d="M234.446 231.861C234.684 235.836 234.102 239.817 232.735 243.556C231.369 247.296 229.247 250.715 226.503 253.6C223.759 256.485 220.45 258.774 216.783 260.326C213.117 261.878 209.17 262.658 205.188 262.619H329.239C333.221 262.658 337.168 261.878 340.835 260.326C344.503 258.774 347.812 256.485 350.557 253.6C353.302 250.716 355.424 247.297 356.792 243.557C358.159 239.817 358.743 235.836 358.507 231.861H234.446Z" fill="#E6E6E6"/>
<path d="M274.337 138.942H186.663C186.048 138.935 185.459 138.695 185.014 138.271C184.569 137.847 184.302 137.27 184.266 136.656C184.25 136.361 184.294 136.066 184.396 135.788C184.498 135.511 184.656 135.257 184.86 135.043C185.063 134.829 185.309 134.659 185.581 134.543C185.853 134.428 186.146 134.369 186.441 134.371H274.115C274.729 134.38 275.317 134.62 275.761 135.044C276.205 135.467 276.473 136.043 276.511 136.656C276.528 136.951 276.484 137.247 276.382 137.524C276.28 137.801 276.122 138.055 275.918 138.269C275.715 138.483 275.469 138.653 275.197 138.769C274.925 138.885 274.632 138.943 274.337 138.942Z" fill="#2A8EF1"/>
<path d="M275.021 153.218H187.347C186.733 153.212 186.144 152.972 185.699 152.548C185.254 152.124 184.987 151.546 184.951 150.933C184.935 150.638 184.979 150.342 185.081 150.065C185.183 149.787 185.34 149.534 185.544 149.32C185.748 149.106 185.993 148.935 186.265 148.82C186.537 148.704 186.83 148.645 187.126 148.647H274.81C275.423 148.656 276.009 148.897 276.452 149.321C276.895 149.745 277.161 150.321 277.196 150.933C277.213 151.228 277.168 151.523 277.066 151.801C276.964 152.078 276.807 152.332 276.603 152.546C276.399 152.76 276.154 152.93 275.882 153.046C275.61 153.161 275.317 153.22 275.021 153.218Z" fill="#2A8EF1"/>
<path d="M275.716 167.485H188.032C187.417 167.478 186.828 167.239 186.383 166.814C185.939 166.39 185.671 165.813 185.636 165.199C185.619 164.904 185.663 164.609 185.765 164.332C185.867 164.054 186.025 163.801 186.229 163.586C186.433 163.372 186.678 163.202 186.95 163.087C187.222 162.971 187.515 162.912 187.81 162.914H275.545C276.159 162.921 276.749 163.16 277.193 163.584C277.638 164.009 277.905 164.586 277.941 165.199C277.958 165.499 277.912 165.799 277.807 166.079C277.702 166.36 277.54 166.616 277.331 166.831C277.122 167.046 276.87 167.215 276.592 167.328C276.314 167.44 276.016 167.494 275.716 167.485Z" fill="#2A8EF1"/>
<path d="M276.401 181.752H188.727C188.112 181.745 187.523 181.505 187.078 181.081C186.633 180.657 186.366 180.08 186.33 179.466C186.314 179.171 186.358 178.876 186.46 178.598C186.562 178.321 186.72 178.067 186.924 177.853C187.127 177.639 187.373 177.469 187.645 177.353C187.917 177.238 188.21 177.179 188.505 177.181H276.179C276.798 177.193 277.389 177.44 277.832 177.872C278.275 178.304 278.537 178.888 278.565 179.506C278.576 179.797 278.528 180.088 278.424 180.36C278.32 180.632 278.163 180.88 277.961 181.089C277.758 181.299 277.516 181.466 277.248 181.579C276.98 181.693 276.692 181.752 276.401 181.752Z" fill="#2A8EF1"/>
<path d="M242.229 196.028H189.411C188.797 196.022 188.208 195.782 187.763 195.358C187.318 194.934 187.051 194.356 187.015 193.743C186.999 193.448 187.043 193.152 187.145 192.875C187.247 192.597 187.404 192.344 187.608 192.13C187.812 191.916 188.057 191.746 188.329 191.63C188.601 191.514 188.894 191.455 189.19 191.457H242.008C242.622 191.464 243.211 191.704 243.656 192.128C244.101 192.552 244.368 193.129 244.404 193.743C244.42 194.038 244.376 194.333 244.274 194.611C244.172 194.888 244.015 195.142 243.811 195.356C243.607 195.57 243.362 195.74 243.09 195.856C242.818 195.971 242.525 196.03 242.229 196.028Z" fill="#2A8EF1"/>
<path d="M248.313 109.367C258.688 98.7394 258.057 81.2978 246.904 70.4103C235.751 59.5227 218.299 59.3121 207.924 69.9399C197.549 80.5677 198.18 98.0093 209.333 108.897C220.486 119.784 237.938 119.995 248.313 109.367Z" fill="#2A8EF1"/>
<path d="M250.858 89.6476C251.048 93.3891 250.282 97.1174 248.633 100.481C246.842 104.086 244.073 107.114 240.642 109.219C237.211 111.324 233.256 112.42 229.231 112.382C225.067 112.348 220.983 111.234 217.379 109.148C213.775 107.062 210.775 104.075 208.672 100.481C206.711 97.192 205.588 93.4721 205.4 89.6476C205.226 86.7094 205.658 83.7668 206.669 81.0026C207.68 78.2384 209.249 75.7117 211.278 73.5796C213.308 71.4475 215.754 69.7555 218.464 68.6087C221.175 67.462 224.093 66.885 227.036 66.9136C233.145 66.9895 238.999 69.3767 243.419 73.5948C247.839 77.8129 250.497 83.5487 250.858 89.6476Z" fill="white"/>
<path opacity="0.4" d="M248.632 100.481C246.842 104.086 244.073 107.114 240.642 109.219C237.211 111.324 233.256 112.42 229.231 112.382C225.067 112.348 220.983 111.234 217.379 109.148C213.775 107.062 210.775 104.075 208.672 100.481C214.466 96.505 221.338 94.397 228.365 94.4401C235.563 94.4535 242.602 96.5518 248.632 100.481Z" fill="#2A8EF1"/>
<path opacity="0.4" d="M235.164 89.0968C238.978 85.1894 238.748 78.7787 234.65 74.7779C230.551 70.7771 224.137 70.7014 220.323 74.6087C216.508 78.516 216.738 84.9268 220.837 88.9276C224.935 92.9283 231.35 93.0041 235.164 89.0968Z" fill="#2A8EF1"/>
<path d="M312.556 301.11H305.166L304.421 283.984H311.821L312.556 301.11Z" fill="#B55B52"/>
<path opacity="0.2" d="M304.431 283.994L304.803 292.824H312.203L311.821 283.994H304.431Z" fill="black"/>
<path d="M375.512 281.044L368.484 283.34L359.635 268.197L366.672 265.912L375.512 281.044Z" fill="#B55B52"/>
<path opacity="0.2" d="M366.672 265.912L359.635 268.207L364.205 276.01L371.233 273.715L366.672 265.912Z" fill="black"/>
<path d="M337.565 53.6537C338.481 54.7814 339.257 55.7781 340.052 56.8655C340.847 57.9529 341.602 59.01 342.358 60.1075C343.848 62.2822 345.277 64.5173 346.616 66.823C349.405 71.5033 351.677 76.4725 353.392 81.6434L353.563 82.1367L353.644 82.4086L353.755 82.8113L353.956 83.6469L354.067 84.4021C354.186 85.3063 354.223 86.2196 354.178 87.1305C354.083 88.6667 353.861 90.1922 353.513 91.6914C352.876 94.374 352.031 97.003 350.986 99.5547C348.997 104.437 346.584 109.137 343.777 113.6L338.743 111.194C340.253 106.482 341.764 101.639 342.871 96.9471C343.448 94.6804 343.885 92.3806 344.18 90.0604C344.304 89.0587 344.341 88.0481 344.291 87.0399C344.276 86.6807 344.228 86.3235 344.15 85.9727L344.099 85.7814C344.079 85.7534 344.062 85.723 344.049 85.6908L343.968 85.5096L343.807 85.1169L343.133 83.5362L342.378 81.9655C341.874 80.9587 341.321 79.8714 340.767 78.8243C339.619 76.7402 338.381 74.6762 337.092 72.6323C335.803 70.5885 334.434 68.605 333.065 66.5914C331.695 64.5778 330.195 62.5641 328.836 60.7418L337.565 53.6537Z" fill="#B55B52"/>
<path d="M339.206 109.955L336.317 116.359H344.583C344.583 116.359 345.901 111.506 342.901 109.542L339.206 109.955Z" fill="#B55B52"/>
<path d="M337.283 123.547L344.955 122.057L344.583 116.359H336.317L337.283 123.547Z" fill="#B55B52"/>
<path d="M300.937 21.1737C300.937 21.7678 300.625 22.251 300.232 22.251C299.839 22.251 299.527 21.7678 299.527 21.1737C299.527 20.5797 299.85 20.0964 300.232 20.0964C300.615 20.0964 300.937 20.5797 300.937 21.1737Z" fill="#263238"/>
<path d="M300.715 22.251C300.007 24.0762 299.048 25.7942 297.866 27.3556C298.273 27.6469 298.739 27.8457 299.232 27.9378C299.724 28.03 300.23 28.0134 300.715 27.8892V22.251Z" fill="#A02724"/>
<path d="M303.051 17.8713C302.978 17.8722 302.907 17.8473 302.85 17.8009C302.502 17.5319 302.094 17.3503 301.662 17.2715C301.229 17.1926 300.784 17.2188 300.363 17.3478C300.279 17.3707 300.189 17.3616 300.111 17.3222C300.033 17.2827 299.973 17.2158 299.941 17.1343C299.91 17.0528 299.91 16.9626 299.942 16.8811C299.973 16.7997 300.033 16.7328 300.111 16.6934C300.641 16.5223 301.205 16.4825 301.754 16.5772C302.303 16.6719 302.82 16.8983 303.263 17.237C303.322 17.2814 303.366 17.3433 303.388 17.4139C303.41 17.4845 303.409 17.5602 303.386 17.6304C303.362 17.7005 303.317 17.7616 303.257 17.8048C303.197 17.8481 303.125 17.8713 303.051 17.8713Z" fill="#263238"/>
<path d="M320.197 28.0503C319.13 33.467 318.073 43.3741 321.859 46.9886C321.859 46.9886 320.379 52.4758 310.331 52.4758C299.255 52.4758 305.045 46.9886 305.045 46.9886C311.086 45.5488 310.925 41.0685 309.867 36.9204L320.197 28.0503Z" fill="#B55B52"/>
<path d="M323.308 48.8714C324.104 47.1396 324.98 45.1461 323.167 44.5219C321.154 43.8373 310.32 43.1426 306.565 44.4212C306.071 44.558 305.609 44.7917 305.207 45.1086C304.804 45.4255 304.468 45.8193 304.219 46.2671C303.97 46.7149 303.812 47.2078 303.755 47.7171C303.698 48.2264 303.743 48.742 303.887 49.2338L323.308 48.8714Z" fill="#263238"/>
<path d="M366.964 285.092C366.421 285.625 365.806 286.048 365.343 285.968C365.152 285.968 364.89 285.817 364.769 285.364C364.739 285.249 364.735 285.129 364.755 285.013C364.776 284.896 364.822 284.786 364.89 284.689C365.494 283.763 367.911 283.36 368.042 283.34C368.075 283.335 368.109 283.34 368.139 283.354C368.17 283.369 368.195 283.392 368.213 283.42C368.232 283.449 368.242 283.482 368.242 283.516C368.242 283.55 368.232 283.583 368.213 283.612C367.852 284.149 367.433 284.645 366.964 285.092ZM365.323 284.719C365.271 284.768 365.223 284.822 365.182 284.88C365.142 284.936 365.115 285.001 365.102 285.069C365.09 285.137 365.093 285.206 365.112 285.273C365.192 285.595 365.343 285.615 365.394 285.625C365.907 285.706 367.004 284.669 367.679 283.773C366.832 283.906 366.027 284.23 365.323 284.719Z" fill="#2A8EF1"/>
<path d="M368.172 283.642C368.146 283.651 368.118 283.651 368.092 283.642C367.256 283.873 365.071 283.722 364.608 283.028C364.539 282.915 364.51 282.783 364.524 282.651C364.539 282.52 364.597 282.398 364.689 282.303C364.775 282.201 364.882 282.117 365.001 282.057C365.12 281.996 365.25 281.96 365.384 281.95C366.491 281.87 368.092 283.29 368.162 283.35C368.188 283.369 368.207 283.397 368.216 283.427C368.225 283.458 368.224 283.491 368.213 283.521C368.218 283.543 368.217 283.566 368.21 283.587C368.203 283.609 368.19 283.628 368.172 283.642ZM365.021 282.504L364.961 282.565C364.82 282.746 364.88 282.836 364.9 282.877C365.172 283.29 366.703 283.521 367.649 283.41C367.029 282.837 366.249 282.465 365.414 282.343C365.275 282.355 365.144 282.411 365.041 282.504H365.021Z" fill="#2A8EF1"/>
<path d="M302.185 301.493C301.239 301.493 300.323 301.362 300.021 300.939C299.939 300.828 299.895 300.694 299.895 300.557C299.895 300.419 299.939 300.285 300.021 300.174C300.08 300.071 300.16 299.982 300.255 299.911C300.35 299.84 300.459 299.789 300.574 299.761C301.803 299.429 304.39 300.899 304.501 300.959C304.532 300.977 304.556 301.005 304.57 301.037C304.585 301.069 304.589 301.106 304.582 301.14C304.577 301.176 304.562 301.209 304.539 301.236C304.516 301.262 304.485 301.282 304.451 301.291C303.703 301.422 302.945 301.489 302.185 301.493ZM301.017 300.063C300.904 300.047 300.789 300.047 300.675 300.063C300.604 300.077 300.537 300.106 300.478 300.147C300.419 300.189 300.37 300.243 300.333 300.305C300.212 300.526 300.252 300.627 300.333 300.687C300.675 301.171 302.548 301.181 303.917 300.989C303.02 300.495 302.035 300.18 301.017 300.063Z" fill="#2A8EF1"/>
<path d="M304.42 301.332H304.35C303.464 300.939 301.692 299.318 301.823 298.503C301.823 298.301 301.994 298.06 302.477 298.009C302.657 297.984 302.84 297.998 303.014 298.05C303.188 298.102 303.348 298.191 303.484 298.311C304.421 299.087 304.622 301.07 304.632 301.161C304.631 301.192 304.624 301.222 304.61 301.25C304.596 301.278 304.576 301.302 304.551 301.322C304.531 301.332 304.509 301.338 304.487 301.34C304.464 301.342 304.442 301.339 304.42 301.332ZM302.618 298.311H302.518C302.195 298.311 302.175 298.462 302.175 298.503C302.095 299.006 303.293 300.265 304.189 300.808C304.102 299.963 303.749 299.166 303.182 298.533C303.027 298.394 302.827 298.316 302.618 298.311Z" fill="#2A8EF1"/>
<path d="M367.87 282.514L373.911 276.775C374.016 276.672 374.154 276.608 374.301 276.595C374.448 276.582 374.595 276.621 374.717 276.705L380.315 280.44C380.45 280.533 380.563 280.655 380.645 280.797C380.727 280.939 380.775 281.098 380.787 281.262C380.799 281.425 380.773 281.59 380.712 281.742C380.651 281.894 380.557 282.031 380.436 282.142C378.311 284.155 377.173 284.961 374.536 287.488C372.905 289.049 368.052 294.334 365.806 296.479C363.561 298.623 361.145 296.69 361.87 295.613C365.132 290.77 367.166 286.119 367.347 283.672C367.384 283.238 367.568 282.829 367.87 282.514Z" fill="#263238"/>
<path d="M305.206 300.254H313.26C313.408 300.254 313.551 300.305 313.665 300.399C313.779 300.493 313.856 300.623 313.885 300.768L315.345 307.342C315.381 307.5 315.381 307.665 315.345 307.823C315.309 307.981 315.237 308.129 315.135 308.255C315.033 308.381 314.904 308.482 314.757 308.551C314.61 308.62 314.45 308.654 314.287 308.651C311.368 308.651 307.159 308.43 303.494 308.43C299.215 308.43 295.52 308.671 290.496 308.671C287.476 308.671 286.62 305.601 287.889 305.319C293.668 304.05 298.4 303.919 303.394 300.838C303.929 300.474 304.558 300.272 305.206 300.254Z" fill="#263238"/>
<path d="M294.675 63.7925C291.735 68.1218 288.704 72.1592 285.442 76.1663C282.167 80.2122 278.668 84.071 274.961 87.7246L273.531 89.0939L273.169 89.4362L272.907 89.6678L272.535 89.99C272.058 90.3689 271.549 90.7058 271.014 90.9968C269.315 91.8908 267.444 92.4125 265.527 92.5272C262.601 92.7084 259.665 92.4677 256.808 91.8123C251.632 90.6658 246.612 88.9012 241.857 86.5567L243.709 81.3212C248.424 82.2605 253.192 82.9094 257.986 83.2644C260.093 83.436 262.213 83.348 264.299 83.0026C264.897 82.916 265.468 82.6958 265.97 82.3583C266.02 82.3583 265.97 82.2878 265.97 82.2878L266.051 82.2072L266.343 81.875L267.541 80.5661C270.682 76.9718 273.733 73.1559 276.693 69.2495C279.653 65.343 282.623 61.3358 285.452 57.4193L294.675 63.7925Z" fill="#B55B52"/>
<path d="M335.108 48.6197C342.035 50.2105 349.989 69.1085 349.989 69.1085L336.065 78.6532C332.609 73.6998 329.542 68.4855 326.893 63.0575C322.765 54.4089 328.02 47.039 335.108 48.6197Z" fill="#2A8EF1"/>
<path opacity="0.3" d="M330.135 60.7015L336.719 78.2302L336.065 78.6833C336.065 78.6833 333.216 74.656 330.135 69.2897V60.7015Z" fill="black"/>
<path d="M293.668 49.0425C293.668 49.0425 285.794 57.9327 293.235 112.976H332.793C333.065 106.935 329.249 77.2738 335.108 48.6599C330.732 47.8183 326.307 47.26 321.859 46.9886C316.259 46.6662 310.645 46.6662 305.045 46.9886C301.205 47.3755 297.401 48.0622 293.668 49.0425Z" fill="#2A8EF1"/>
<path opacity="0.3" d="M298.057 64.9503C297.021 71.1823 294.322 77.0191 290.244 81.8448C290.083 78.3008 290.023 75.1192 290.033 72.2699L298.057 64.9503Z" fill="black"/>
<path d="M301.47 55.0431C302.477 62.0909 288.644 79.9318 288.644 79.9318L274.78 70.3871C274.78 70.3871 278.626 60.5303 285.1 54.0665C292.5 46.6966 300.413 47.4114 301.47 55.0431Z" fill="#2A8EF1"/>
<path d="M244.656 81.8447L239.229 76.2267L233.44 83.6973C233.44 83.6973 237.849 87.9461 243.095 86.7178L244.656 81.8447Z" fill="#B55B52"/>
<path d="M231.778 73.166L229.292 80.999L233.44 83.7174L239.229 76.2468L231.778 73.166Z" fill="#B55B52"/>
<path d="M320.852 19.9051C320.399 27.2348 320.509 31.544 316.825 35.3095C311.257 40.9678 302.216 37.6051 300.474 30.2754C298.893 23.6908 299.9 12.8171 307.068 9.89734C308.648 9.26606 310.361 9.04521 312.049 9.25539C313.737 9.46557 315.344 10.0999 316.721 11.0993C318.097 12.0986 319.198 13.4304 319.92 14.9702C320.643 16.5101 320.963 18.2079 320.852 19.9051Z" fill="#B55B52"/>
<path d="M327.225 4.62159C329.48 6.69564 328.524 9.01133 327.346 9.44426C331.001 10.1994 331.534 13.1091 329.611 19.2507C327.779 25.1205 323.339 33.0039 317.831 33.5174C309.495 34.2523 307.058 25.5635 306.998 16.9451C302.286 17.227 304.32 13.0487 298.531 14.0152C293.496 14.861 295.389 10.9243 291.11 9.2127C286.147 7.19906 287.143 -0.402444 291.775 1.78236C291.775 1.78236 289.63 3.20198 292.127 4.52091C294.624 5.83985 294.382 2.78918 299.326 2.41666C304.269 2.04413 304.843 6.27278 310.622 3.72552C317.831 0.493627 322.594 0.36274 327.225 4.62159Z" fill="#263238"/>
<path d="M324.446 9.35362C324.775 8.8264 325.265 8.41923 325.844 8.19252C326.422 7.96582 327.058 7.93165 327.658 8.0951C329.923 8.57837 330.104 9.57512 331.524 9.44423C332.944 9.31335 332.43 10.8236 332.43 10.8236C332.43 10.8236 332.048 9.68587 330.336 10.3202C328.624 10.9545 327.507 9.39389 326.772 10.0987C326.037 10.8034 324.446 9.35362 324.446 9.35362Z" fill="#263238"/>
<path d="M310.904 21.8986C310.585 23.6972 309.674 25.3377 308.317 26.5602C306.525 28.151 304.974 26.8723 304.914 24.6875C304.914 22.6739 305.749 19.5326 307.813 18.7674C309.877 18.0022 311.277 19.734 310.904 21.8986Z" fill="#B55B52"/>
<path d="M307.26 112.976C307.26 112.976 315.657 169.499 320.268 190.672C325.302 213.829 360.39 275.446 360.39 275.446L373.277 271.248C373.277 271.248 345.338 215.752 342.458 192.776C339.327 167.857 332.793 112.976 332.793 112.976H307.26Z" fill="#263238"/>
<path d="M356.785 271.369C356.735 271.369 359.735 275.889 359.735 275.889L374.213 271.127L372.512 266.798L356.785 271.369Z" fill="#2A8EF1"/>
<path opacity="0.3" d="M312.566 133.112C322.271 135.015 321.244 171.21 320.077 189.826C317.278 176.667 313.18 151.346 310.381 133.374C311.058 133.04 311.829 132.948 312.566 133.112Z" fill="black"/>
<path d="M293.235 112.976C293.235 112.976 292.228 168.27 293.013 190.833C293.849 214.292 302.075 291.113 302.075 291.113H314.61C314.61 291.113 315.063 215.661 315.616 192.625C316.22 167.505 319.251 112.976 319.251 112.976H293.235Z" fill="#263238"/>
<path d="M299.638 286.119C299.578 286.119 300.343 291.324 300.343 291.324H315.586L315.999 286.682L299.638 286.119Z" fill="#2A8EF1"/>
</svg>
