<svg width="16" height="20" viewBox="0 0 16 20" fill="none" xmlns="http://www.w3.org/2000/svg">
<path fill-rule="evenodd" clip-rule="evenodd" d="M8 0.45166C8.42758 0.45166 8.77419 0.798278 8.77419 1.22585V9.48392C8.77419 9.91149 8.42758 10.2581 8 10.2581C7.57242 10.2581 7.22581 9.91149 7.22581 9.48392V1.22585C7.22581 0.798278 7.57242 0.45166 8 0.45166ZM4.50595 5.17487C4.75056 5.52556 4.66457 6.00815 4.31388 6.25276C2.64058 7.41994 1.54839 9.35665 1.54839 11.5484C1.54839 15.1116 4.43688 18 8 18C11.5631 18 14.4516 15.1116 14.4516 11.5484C14.4516 9.35664 13.3594 7.41994 11.6861 6.25276C11.3354 6.00815 11.2494 5.52556 11.494 5.17487C11.7387 4.82418 12.2213 4.73818 12.5719 4.9828C14.6426 6.42714 16 8.82915 16 11.5484C16 15.9667 12.4183 19.5484 8 19.5484C3.58173 19.5484 0 15.9667 0 11.5484C0 8.82915 1.3574 6.42714 3.42805 4.9828C3.77874 4.73818 4.26133 4.82417 4.50595 5.17487Z" fill="#F1F8FF" fill-opacity="0.7"/>
</svg>
