<svg width="19" height="16" viewBox="0 0 19 16" fill="none" xmlns="http://www.w3.org/2000/svg">
<path d="M0.166672 12H18.8333V13.3333H0.166672V12Z" fill="#fff"/>
<path d="M0.166672 14.6665H18.8333V15.9998H0.166672V14.6665Z" fill="#fff"/>
<path d="M14.8333 4C14.5696 4 14.3118 4.0782 14.0926 4.22471C13.8733 4.37122 13.7024 4.57945 13.6015 4.82309C13.5006 5.06672 13.4742 5.33481 13.5256 5.59345C13.5771 5.8521 13.7041 6.08967 13.8905 6.27614C14.077 6.46261 14.3146 6.5896 14.5732 6.64105C14.8319 6.69249 15.1 6.66609 15.3436 6.56517C15.5872 6.46426 15.7955 6.29336 15.942 6.07409C16.0885 5.85483 16.1667 5.59704 16.1667 5.33333C16.1667 4.97971 16.0262 4.64057 15.7762 4.39052C15.5261 4.14048 15.187 4 14.8333 4Z" fill="#fff"/>
<path d="M9.5 7.99984C8.97259 7.99984 8.45701 7.84344 8.01848 7.55042C7.57995 7.25741 7.23816 6.84093 7.03632 6.35366C6.83449 5.86639 6.78168 5.33021 6.88458 4.81293C6.98747 4.29565 7.24145 3.82049 7.61439 3.44755C7.98733 3.07461 8.46248 2.82064 8.97976 2.71774C9.49705 2.61485 10.0332 2.66766 10.5205 2.86949C11.0078 3.07133 11.4242 3.41312 11.7173 3.85165C12.0103 4.29018 12.1667 4.80576 12.1667 5.33317C12.1658 6.04015 11.8846 6.71791 11.3846 7.21782C10.8847 7.71772 10.207 7.99896 9.5 7.99984ZM9.5 3.99984C9.2363 3.99984 8.97851 4.07804 8.75924 4.22455C8.53998 4.37105 8.36908 4.57929 8.26816 4.82293C8.16725 5.06656 8.14084 5.33465 8.19229 5.59329C8.24374 5.85193 8.37073 6.08951 8.5572 6.27598C8.74367 6.46245 8.98124 6.58944 9.23988 6.64089C9.49852 6.69233 9.76661 6.66593 10.0102 6.56501C10.2539 6.46409 10.4621 6.2932 10.6086 6.07393C10.7551 5.85467 10.8333 5.59688 10.8333 5.33317C10.833 4.97966 10.6924 4.64072 10.4424 4.39075C10.1925 4.14078 9.85352 4.00019 9.5 3.99984Z" fill="#fff"/>
<path d="M4.16667 4C3.90296 4 3.64518 4.0782 3.42591 4.22471C3.20664 4.37122 3.03575 4.57945 2.93483 4.82309C2.83391 5.06672 2.80751 5.33481 2.85896 5.59345C2.9104 5.8521 3.03739 6.08967 3.22386 6.27614C3.41033 6.46261 3.64791 6.5896 3.90655 6.64105C4.16519 6.69249 4.43328 6.66609 4.67691 6.56517C4.92055 6.46426 5.12879 6.29336 5.2753 6.07409C5.4218 5.85483 5.5 5.59704 5.5 5.33333C5.5 4.97971 5.35953 4.64057 5.10948 4.39052C4.85943 4.14048 4.52029 4 4.16667 4Z" fill="#fff"/>
<path d="M17.5 10.6667H1.50001C1.14665 10.6658 0.808026 10.525 0.558168 10.2752C0.30831 10.0253 0.167552 9.68668 0.166672 9.33333V1.33333C0.167552 0.979982 0.30831 0.641354 0.558168 0.391496C0.808026 0.141638 1.14665 0.000880082 1.50001 0H17.5C17.8534 0.000880082 18.192 0.141638 18.4418 0.391496C18.6917 0.641354 18.8325 0.979982 18.8333 1.33333V9.33333C18.8328 9.68679 18.6922 10.0256 18.4422 10.2756C18.1923 10.5255 17.8535 10.6661 17.5 10.6667ZM17.5 1.33333H1.50001V9.33333H17.5V1.33333Z" fill="#fff"/>
</svg>
