<svg width="16" height="16" viewBox="0 0 16 16" fill="none" xmlns="http://www.w3.org/2000/svg">
<path d="M14.0897 8.43552V8V7.55875L15.19 6.59603C15.3928 6.41726 15.5259 6.17256 15.5657 5.90516C15.6056 5.63776 15.5496 5.36488 15.4077 5.13475L14.0553 2.84254C13.9548 2.66849 13.8103 2.52392 13.6363 2.42333C13.4623 2.32275 13.2649 2.2697 13.0639 2.26949C12.9394 2.26854 12.8155 2.28789 12.6972 2.3268L11.3047 2.7967C11.0642 2.63694 10.8135 2.49336 10.554 2.36691L10.2617 0.922822C10.2093 0.658993 10.0658 0.421999 9.85626 0.253328C9.64673 0.0846577 9.38455 -0.00494324 9.11561 0.000210557H6.43374C6.1648 -0.00494324 5.90262 0.0846577 5.69309 0.253328C5.48357 0.421999 5.34004 0.658993 5.28764 0.922822L4.99538 2.36691C4.73403 2.49333 4.48134 2.6369 4.23895 2.7967L2.87509 2.30388C2.75549 2.27271 2.63164 2.2611 2.50834 2.26949C2.30736 2.2697 2.10996 2.32275 1.93595 2.42333C1.76195 2.52392 1.61745 2.66849 1.51696 2.84254L0.164561 5.13475C0.0308035 5.36453 -0.0189002 5.63368 0.0239626 5.89608C0.0668254 6.15848 0.199588 6.39782 0.399512 6.5731L1.48258 7.56448V8.44125L0.399512 9.40398C0.193941 9.58047 0.0575469 9.8241 0.0145356 10.0916C-0.0284758 10.3591 0.024677 10.6332 0.164561 10.8653L1.51696 13.1575C1.61745 13.3315 1.76195 13.4761 1.93595 13.5767C2.10996 13.6772 2.30736 13.7303 2.50834 13.7305C2.63289 13.7315 2.75677 13.7121 2.87509 13.6732L4.2676 13.2033C4.50802 13.3631 4.75881 13.5066 5.0183 13.6331L5.31056 15.0772C5.36296 15.341 5.50649 15.578 5.71602 15.7467C5.92555 15.9153 6.18773 16.0049 6.45666 15.9998H9.16146C9.43039 16.0049 9.69257 15.9153 9.9021 15.7467C10.1116 15.578 10.2552 15.341 10.3076 15.0772L10.5998 13.6331C10.8612 13.5067 11.1139 13.3631 11.3562 13.2033L12.743 13.6732C12.8614 13.7121 12.9852 13.7315 13.1098 13.7305C13.3108 13.7303 13.5082 13.6772 13.6822 13.5767C13.8562 13.4761 14.0007 13.3315 14.1012 13.1575L15.4077 10.8653C15.5415 10.6355 15.5912 10.3663 15.5483 10.1039C15.5054 9.84152 15.3727 9.60218 15.1728 9.4269L14.0897 8.43552ZM13.0639 12.5844L11.0984 11.9197C10.6382 12.3094 10.1124 12.6141 9.5454 12.8194L9.13854 14.8766H6.43374L6.02687 12.8423C5.46438 12.6312 4.94135 12.327 4.47963 11.9426L2.50834 12.5844L1.15594 10.2922L2.71464 8.91688C2.60868 8.32369 2.60868 7.71642 2.71464 7.12323L1.15594 5.7078L2.50834 3.41559L4.4739 4.08033C4.93403 3.6906 5.4599 3.38594 6.02687 3.18064L6.43374 1.12339H9.13854L9.5454 3.15772C10.1079 3.36885 10.6309 3.67298 11.0926 4.05741L13.0639 3.41559L14.4163 5.7078L12.8576 7.08312C12.9636 7.67631 12.9636 8.28358 12.8576 8.87677L14.4163 10.2922L13.0639 12.5844Z" fill="#F1F8FF" fill-opacity="0.7"/>
<path d="M7.78547 11.4381C7.10544 11.4381 6.44068 11.2365 5.87525 10.8587C5.30983 10.4809 4.86913 9.94388 4.60889 9.31561C4.34866 8.68734 4.28057 7.99602 4.41324 7.32905C4.5459 6.66208 4.87337 6.04944 5.35423 5.56858C5.83508 5.08773 6.44773 4.76026 7.11469 4.62759C7.78166 4.49492 8.47299 4.56301 9.10126 4.82325C9.72952 5.08349 10.2665 5.52418 10.6443 6.08961C11.0221 6.65504 11.2238 7.3198 11.2238 7.99983C11.2284 8.45263 11.1426 8.9018 10.9714 9.32103C10.8003 9.74026 10.5472 10.1211 10.227 10.4413C9.90677 10.7615 9.52591 11.0146 9.10668 11.1858C8.68745 11.3569 8.23828 11.4427 7.78547 11.4381ZM7.78547 5.70763C7.48253 5.70057 7.1813 5.75504 6.90001 5.86773C6.61871 5.98043 6.3632 6.14901 6.14893 6.36328C5.93465 6.57756 5.76607 6.83307 5.65338 7.11436C5.54068 7.39565 5.48621 7.69688 5.49327 7.99983C5.48621 8.30278 5.54068 8.604 5.65338 8.8853C5.76607 9.16659 5.93465 9.4221 6.14893 9.63638C6.3632 9.85065 6.61871 10.0192 6.90001 10.1319C7.1813 10.2446 7.48253 10.2991 7.78547 10.292C8.08842 10.2991 8.38965 10.2446 8.67094 10.1319C8.95224 10.0192 9.20775 9.85065 9.42202 9.63638C9.63629 9.4221 9.80488 9.16659 9.91757 8.8853C10.0303 8.604 10.0847 8.30278 10.0777 7.99983C10.0847 7.69688 10.0303 7.39565 9.91757 7.11436C9.80488 6.83307 9.63629 6.57756 9.42202 6.36328C9.20775 6.14901 8.95224 5.98043 8.67094 5.86773C8.38965 5.75504 8.08842 5.70057 7.78547 5.70763Z" fill="#F1F8FF" fill-opacity="0.7"/>
</svg>
