<svg width="337" height="300" viewBox="0 0 337 300" fill="none" xmlns="http://www.w3.org/2000/svg">
<path d="M325.003 158.72C326.685 136.378 321.488 113.053 314.526 92.2922C304.167 61.3824 284.112 29.7074 250.352 22.3919C230.861 18.1877 211.025 22.6947 194.318 33.2558C178.241 43.4133 165.729 56.539 145.952 59.0784C125.965 61.6514 105.465 60.6172 85.4102 60.6172C33.7565 60.6172 -8.16007 114.878 2.31697 171.4C12.794 227.922 62.1185 267.114 104.044 267.114C141.714 267.114 172.699 244.52 208.478 238.449C226.22 235.439 244.037 239.004 261.594 234.497C282.002 229.251 301.19 216.747 312.5 198.643C320.202 186.3 323.952 172.703 325.003 158.72Z" fill="#2A8EF1"/>
<path opacity="0.7" d="M325.003 158.72C326.685 136.378 321.488 113.053 314.526 92.2922C304.167 61.3824 284.112 29.7074 250.352 22.3919C230.861 18.1877 211.025 22.6947 194.318 33.2558C178.241 43.4133 165.729 56.539 145.952 59.0784C125.965 61.6514 105.465 60.6172 85.4102 60.6172C33.7565 60.6172 -8.16007 114.878 2.31697 171.4C12.794 227.922 62.1185 267.114 104.044 267.114C141.714 267.114 172.699 244.52 208.478 238.449C226.22 235.439 244.037 239.004 261.594 234.497C282.002 229.251 301.19 216.747 312.5 198.643C320.202 186.3 323.952 172.703 325.003 158.72Z" fill="white"/>
<path d="M318.966 150.874C318.966 150.874 318.966 146.67 313.08 140.843C307.194 135.016 303.461 131.636 303.461 131.636C303.461 131.636 300.534 141.255 305.983 147.116C309.981 151.234 314.318 155.009 318.949 158.4L318.966 150.874Z" fill="#2A8EF1"/>
<path d="M310.465 176.991C310.465 176.991 310.465 172.787 304.579 166.96C298.693 161.133 294.96 157.753 294.96 157.753C294.96 157.753 292.033 167.372 297.482 173.233C301.482 177.349 305.819 181.124 310.448 184.517L310.465 176.991Z" fill="#2A8EF1"/>
<path d="M318.596 157.996C318.596 157.996 319.033 153.843 325.474 148.638C331.915 143.433 336.019 140.507 336.019 140.507C336.019 140.507 337.911 150.378 331.882 155.642C327.471 159.316 322.76 162.612 317.797 165.497L318.596 157.996Z" fill="#2A8EF1"/>
<path d="M308.371 188.839C308.371 188.839 309.212 184.752 316.2 180.254C323.187 175.755 327.534 173.275 327.534 173.275C327.534 173.275 328.375 183.298 321.833 187.88C317.062 191.068 312.033 193.853 306.799 196.205L308.371 188.839Z" fill="#2A8EF1"/>
<path d="M310.263 222.473C310.263 222.473 310.263 218.269 316.149 212.433C322.035 206.598 325.769 203.234 325.769 203.234C325.769 203.234 328.695 212.854 323.246 218.706C319.252 222.828 314.917 226.605 310.288 229.999L310.263 222.473Z" fill="#2A8EF1"/>
<path d="M310.162 230.68C310.162 230.68 310.759 226.543 305.79 219.917C300.82 213.291 297.583 209.44 297.583 209.44C297.583 209.44 293.311 218.546 297.86 225.113C301.234 229.759 304.992 234.113 309.094 238.13L310.162 230.68Z" fill="#2A8EF1"/>
<path d="M304.385 255.006C304.385 255.006 304.385 250.802 310.271 244.974C316.157 239.147 319.891 235.767 319.891 235.767C319.891 235.767 322.817 245.387 317.368 251.247C313.369 255.367 309.032 259.145 304.402 262.54L304.385 255.006Z" fill="#2A8EF1"/>
<path d="M308.295 277.061C308.295 277.061 307.236 273.017 311.423 265.87C315.611 258.722 318.394 254.535 318.394 254.535C318.394 254.535 323.666 263.095 319.891 270.141C317.062 275.136 313.822 279.886 310.204 284.343L308.295 277.061Z" fill="#2A8EF1"/>
<path d="M319.496 149.807C319.199 154.16 318.662 158.494 317.889 162.789C315.577 174.746 309.792 182.465 307.471 193.262C305.151 204.058 311.802 217.975 309.994 231.849C308.186 245.723 302.813 253.433 304.352 262.691C305.89 271.949 313.996 297.023 313.996 297.023" stroke="#263238" stroke-linecap="round" stroke-linejoin="round"/>
<path d="M318.537 160.78L324.844 155.936" stroke="#263238" stroke-linecap="round" stroke-linejoin="round"/>
<path d="M318.831 155.205L316.191 150.505" stroke="#263238" stroke-linecap="round" stroke-linejoin="round"/>
<path d="M307.825 192.766C307.825 192.766 313.105 188.805 318.537 184.845" stroke="#263238" stroke-linecap="round" stroke-linejoin="round"/>
<path d="M310.465 184.517C310.465 184.517 306.067 175.89 301.072 170.172" stroke="#263238" stroke-linecap="round" stroke-linejoin="round"/>
<path d="M310.465 228.426C313.481 222.862 317.287 217.763 321.766 213.291" stroke="#263238" stroke-linecap="round" stroke-linejoin="round"/>
<path d="M309.439 234.296C307.837 230.522 305.925 226.888 303.721 223.432C300.635 218.883 300.198 218.294 300.198 218.294" stroke="#263238" stroke-linecap="round" stroke-linejoin="round"/>
<path d="M304.385 262.691C305.726 259.377 307.317 256.17 309.144 253.097C310.973 250.241 313.035 247.541 315.308 245.025" stroke="#263238" stroke-linecap="round" stroke-linejoin="round"/>
<path d="M310.204 284.343C309.902 281.175 310.448 277.983 311.785 275.094C313.988 270.839 316.485 265.264 317.511 263.061" stroke="#263238" stroke-linecap="round" stroke-linejoin="round"/>
<path d="M271.18 206.749C271.18 206.749 270.726 204.126 273.761 199.812C276.797 195.499 278.806 193.001 278.806 193.001C278.806 193.001 281.691 198.719 278.916 202.974C276.855 205.992 274.546 208.833 272.012 211.466L271.18 206.749Z" fill="#2A8EF1"/>
<path d="M279.345 222.204C279.345 222.204 278.891 219.581 281.926 215.267C284.962 210.954 286.971 208.456 286.971 208.456C286.971 208.456 289.847 214.174 287.081 218.437C285.018 221.451 282.709 224.289 280.177 226.921L279.345 222.204Z" fill="#2A8EF1"/>
<path d="M272.214 211.172C272.214 211.172 271.483 208.65 266.883 206.051C262.284 203.453 259.391 202.091 259.391 202.091C259.391 202.091 259.274 208.49 263.596 211.13C266.763 212.952 270.076 214.508 273.501 215.78L272.214 211.172Z" fill="#2A8EF1"/>
<path d="M281.977 229.402C281.977 229.402 280.976 226.93 276.133 224.861C271.29 222.793 268.271 221.716 268.271 221.716C268.271 221.716 268.826 228.09 273.425 230.26C276.765 231.739 280.221 232.937 283.76 233.842L281.977 229.402Z" fill="#2A8EF1"/>
<path d="M284.415 250.701C284.415 250.701 283.961 248.077 279.656 245.042C275.35 242.006 272.626 240.316 272.626 240.316C272.626 240.316 271.827 246.665 275.872 249.742C278.826 251.894 281.957 253.792 285.23 255.418L284.415 250.701Z" fill="#2A8EF1"/>
<path d="M285.365 255.838C285.365 255.838 284.525 253.316 286.938 248.607C289.351 243.898 290.949 241.149 290.949 241.149C290.949 241.149 294.615 246.395 292.471 251.012C290.862 254.289 288.98 257.425 286.845 260.387L285.365 255.838Z" fill="#2A8EF1"/>
<path d="M292.714 276.986C292.714 276.986 293.017 274.346 297.146 271.1C301.274 267.854 303.872 265.979 303.872 265.979C303.872 265.979 305.024 272.277 301.157 275.582C298.33 277.895 295.315 279.968 292.143 281.779L292.714 276.986Z" fill="#2A8EF1"/>
<path d="M291.63 270.461C291.63 270.461 291.176 267.837 286.87 264.802C282.565 261.766 279.832 260.076 279.832 260.076C279.832 260.076 279.042 266.425 283.087 269.511C286.043 271.659 289.174 273.557 292.445 275.186L291.63 270.461Z" fill="#2A8EF1"/>
<path d="M291.554 284.722C291.554 284.722 291.781 282.065 288.384 278.037C284.987 274.009 282.776 271.688 282.776 271.688C282.776 271.688 280.404 277.625 283.532 281.636C285.849 284.461 288.397 287.088 291.15 289.489L291.554 284.722Z" fill="#2A8EF1"/>
<path d="M270.734 206.127C271.392 208.826 272.198 211.487 273.148 214.098C275.897 221.346 280.362 225.559 282.986 232.076C285.609 238.592 282.986 248.052 285.575 256.553C288.165 265.054 292.42 269.309 292.462 275.279C292.504 281.249 290.141 297.856 290.141 297.856" stroke="#263238" stroke-linecap="round" stroke-linejoin="round"/>
<path d="M272.526 212.904L268.044 210.558" stroke="#263238" stroke-linecap="round" stroke-linejoin="round"/>
<path d="M271.735 209.44L272.887 206.211" stroke="#263238" stroke-linecap="round" stroke-linejoin="round"/>
<path d="M282.717 231.807C282.717 231.807 278.975 229.898 275.149 227.998" stroke="#263238" stroke-linecap="round" stroke-linejoin="round"/>
<path d="M280.169 226.921C281.267 223.456 282.715 220.112 284.491 216.94" stroke="#263238" stroke-linecap="round" stroke-linejoin="round"/>
<path d="M284.928 254.451C282.435 251.291 279.495 248.512 276.2 246.202" stroke="#263238" stroke-linecap="round" stroke-linejoin="round"/>
<path d="M286.214 258.016C286.808 255.479 287.612 252.995 288.619 250.591C290.057 247.405 290.301 246.984 290.301 246.984" stroke="#263238" stroke-linecap="round" stroke-linejoin="round"/>
<path d="M292.26 279.811C293.715 278.004 295.327 276.329 297.078 274.808C298.194 273.987 299.24 273.076 300.206 272.084" stroke="#263238" stroke-linecap="round" stroke-linejoin="round"/>
<path d="M292.462 275.279C291.261 273.341 289.914 271.497 288.434 269.763C286.977 268.172 285.391 266.704 283.692 265.374" stroke="#263238" stroke-linecap="round" stroke-linejoin="round"/>
<path d="M291.167 289.489C291.011 287.467 290.321 285.523 289.166 283.856C287.324 281.426 285.155 278.197 284.272 276.927" stroke="#263238" stroke-linecap="round" stroke-linejoin="round"/>
<path d="M32.3607 170.122L28.6777 159.603L32.3607 164.068L29.4597 148.285L33.9331 159.603L35.5139 137.497L38.1458 158.543L41.0383 154.339V159.603L44.4606 152.497L42.6191 164.858L45.7723 162.756L40.7776 169.592L32.3607 170.122Z" fill="#2A8EF1"/>
<path d="M43.9312 167.49H30.2505L32.7142 195.112H41.4759L43.9312 167.49Z" fill="#263238" stroke="#263238" stroke-linecap="round" stroke-linejoin="round"/>
<path d="M69.5939 194.801H22.9854V293.517H69.5939V194.801Z" fill="white" stroke="#263238" stroke-linecap="round" stroke-linejoin="round"/>
<path d="M72.1414 194.801H46.2852V293.517H72.1414V194.801Z" fill="white" stroke="#263238" stroke-linecap="round" stroke-linejoin="round"/>
<path d="M69.2321 194.801H46.2852V293.517H69.2321V194.801Z" fill="#263238" stroke="#263238" stroke-linecap="round" stroke-linejoin="round"/>
<path d="M66.6506 270.562H46.2852V290.776H66.6506V270.562Z" fill="#2A8EF1" stroke="#263238" stroke-linecap="round" stroke-linejoin="round"/>
<path d="M66.6506 271.655H46.2852V274.245H66.6506V271.655Z" fill="white" stroke="#263238" stroke-linecap="round" stroke-linejoin="round"/>
<path d="M66.6506 286.538H46.2852V289.128H66.6506V286.538Z" fill="white" stroke="#263238" stroke-linecap="round" stroke-linejoin="round"/>
<path d="M50.1533 270.982V296.544" stroke="#263238" stroke-linecap="round" stroke-linejoin="round"/>
<path d="M57.25 270.982V296.544" stroke="#263238" stroke-linecap="round" stroke-linejoin="round"/>
<path d="M63.4893 270.982V296.544" stroke="#263238" stroke-linecap="round" stroke-linejoin="round"/>
<path d="M66.6506 198.467H46.2852V228.191H66.6506V198.467Z" fill="#2A8EF1" stroke="#263238" stroke-linecap="round" stroke-linejoin="round"/>
<path d="M66.6506 199.711H46.2852V202.654H66.6506V199.711Z" fill="white" stroke="#263238" stroke-linecap="round" stroke-linejoin="round"/>
<path d="M66.6506 218.765H46.2852V221.708H66.6506V218.765Z" fill="white" stroke="#263238" stroke-linecap="round" stroke-linejoin="round"/>
<path d="M50.1533 198.938V227.989" stroke="#263238" stroke-linecap="round" stroke-linejoin="round"/>
<path d="M57.25 198.938V227.989" stroke="#263238" stroke-linecap="round" stroke-linejoin="round"/>
<path d="M63.4893 198.938V227.989" stroke="#263238" stroke-linecap="round" stroke-linejoin="round"/>
<path d="M66.6506 234.287H46.2852V264.011H66.6506V234.287Z" fill="#2A8EF1" stroke="#263238" stroke-linecap="round" stroke-linejoin="round"/>
<path d="M66.6506 235.532H46.2852V238.475H66.6506V235.532Z" fill="white" stroke="#263238" stroke-linecap="round" stroke-linejoin="round"/>
<path d="M66.6506 254.585H46.2852V257.528H66.6506V254.585Z" fill="white" stroke="#263238" stroke-linecap="round" stroke-linejoin="round"/>
<path d="M50.1533 234.767V263.81" stroke="#263238" stroke-linecap="round" stroke-linejoin="round"/>
<path d="M57.25 234.767V263.81" stroke="#263238" stroke-linecap="round" stroke-linejoin="round"/>
<path d="M63.4893 234.767V263.81" stroke="#263238" stroke-linecap="round" stroke-linejoin="round"/>
<path d="M69.5852 227.779H46.2852V231.159H69.5852V227.779Z" fill="white" stroke="#263238" stroke-linecap="round" stroke-linejoin="round"/>
<path d="M69.5852 263.826H46.2852V267.207H69.5852V263.826Z" fill="white" stroke="#263238" stroke-linecap="round" stroke-linejoin="round"/>
<path d="M69.5942 194.801V293.509" stroke="#263238" stroke-linecap="round" stroke-linejoin="round"/>
<path d="M43.0059 194.792V293.509H46.2852V198.467H69.1901V194.759L43.0059 194.792Z" fill="white" stroke="#263238" stroke-linecap="round" stroke-linejoin="round"/>
<path d="M46.2852 198.467V194.801" stroke="#263238" stroke-linecap="round" stroke-linejoin="round"/>
<path d="M69.4172 149.454C66.9619 144.736 65.936 141.356 65.936 140.574C65.936 139.027 69.2995 138.102 69.2995 138.102C74.538 135.327 99.217 139.338 110.325 141.188C116.543 142.272 122.833 142.89 129.143 143.038C129.143 143.038 130.69 141.81 132.506 140.263C134.323 138.716 142.992 128.541 146.389 127.65C149.786 126.759 152.864 128.886 152.864 128.886C152.864 128.886 158.422 132.25 157.497 132.897C156.572 133.545 142.992 145.232 139.603 147.393C136.215 149.554 129.109 148.629 122.946 149.866C117.632 150.925 96.1059 152.237 91.1701 152.64C87.4632 153.519 83.5729 153.195 80.0624 151.715" fill="white"/>
<mask id="mask0_40_910" style="mask-type:luminance" maskUnits="userSpaceOnUse" x="65" y="127" width="93" height="27">
<path d="M69.4172 149.454C66.9619 144.736 65.936 141.356 65.936 140.574C65.936 139.027 69.2995 138.102 69.2995 138.102C74.538 135.327 99.217 139.338 110.325 141.188C116.543 142.272 122.833 142.89 129.143 143.038C129.143 143.038 130.69 141.81 132.506 140.263C134.323 138.716 142.992 128.541 146.389 127.65C149.786 126.759 152.864 128.886 152.864 128.886C152.864 128.886 158.422 132.25 157.497 132.897C156.572 133.545 142.992 145.232 139.603 147.393C136.215 149.554 129.109 148.629 122.946 149.866C117.632 150.925 96.1059 152.237 91.1701 152.64C87.4632 153.519 83.5729 153.195 80.0624 151.715" fill="white"/>
</mask>
<g mask="url(#mask0_40_910)">
<path d="M152.931 128.853C152.931 128.853 149.853 126.692 146.456 127.616C143.059 128.541 134.424 138.724 132.574 140.229C130.724 141.734 129.21 143.004 129.21 143.004C122.9 142.857 116.61 142.238 110.392 141.154C99.2844 139.304 74.6054 135.268 69.3668 138.068C69.3668 138.068 66.0034 138.993 66.0034 140.54C66.1205 141.406 66.3466 142.254 66.6761 143.063L67.1386 143.231C67.1386 143.231 73.302 142.584 86.5959 142.903C99.8898 143.223 130.674 145.047 132.641 145.762C133.532 146.082 139.444 144.736 146.053 142.399C151.098 138.287 157.026 133.149 157.631 132.788C158.489 132.241 152.931 128.853 152.931 128.853Z" fill="#2A8EF1"/>
<path opacity="0.5" d="M152.931 128.853C152.931 128.853 149.853 126.692 146.456 127.616C143.059 128.541 134.424 138.724 132.574 140.229C130.724 141.734 129.21 143.004 129.21 143.004C122.9 142.857 116.61 142.238 110.392 141.154C99.2844 139.304 74.6054 135.268 69.3668 138.068C69.3668 138.068 66.0034 138.993 66.0034 140.54C66.1205 141.406 66.3466 142.254 66.6761 143.063L67.1386 143.231C67.1386 143.231 73.302 142.584 86.5959 142.903C99.8898 143.223 130.674 145.047 132.641 145.762C133.532 146.082 139.444 144.736 146.053 142.399C151.098 138.287 157.026 133.149 157.631 132.788C158.489 132.241 152.931 128.853 152.931 128.853Z" fill="white"/>
</g>
<path d="M69.4172 149.453C66.9619 144.736 65.936 141.356 65.936 140.574C65.936 139.027 69.2995 138.102 69.2995 138.102C74.538 135.327 99.217 139.338 110.325 141.188C116.543 142.272 122.833 142.89 129.143 143.038C129.143 143.038 130.69 141.81 132.506 140.263C134.323 138.716 142.992 128.541 146.389 127.65C149.786 126.759 152.864 128.886 152.864 128.886C152.864 128.886 158.422 132.25 157.497 132.897C156.572 133.545 142.992 145.232 139.603 147.393C136.215 149.554 129.109 148.629 122.946 149.866C117.632 150.925 96.1059 152.237 91.1701 152.64C87.4632 153.519 83.5729 153.195 80.0624 151.715" stroke="#263238" stroke-linecap="round" stroke-linejoin="round"/>
<path d="M191.257 176.882C191.815 175.823 192.652 174.936 193.678 174.318C194.703 173.7 195.878 173.374 197.076 173.376H253.169C253.169 173.376 257.222 173.376 256.003 181.078C254.784 188.78 238.168 235.809 234.141 250.028C230.113 264.247 229.281 294.215 229.281 294.215H162.012C162.012 294.215 167.335 222.549 191.257 176.882Z" fill="white"/>
<mask id="mask1_40_910" style="mask-type:luminance" maskUnits="userSpaceOnUse" x="162" y="173" width="95" height="122">
<path d="M191.257 176.882C191.815 175.823 192.652 174.936 193.678 174.318C194.703 173.7 195.878 173.374 197.076 173.376H253.169C253.169 173.376 257.222 173.376 256.003 181.078C254.784 188.78 238.168 235.809 234.141 250.028C230.113 264.247 229.281 294.215 229.281 294.215H162.012C162.012 294.215 167.335 222.549 191.257 176.882Z" fill="white"/>
</mask>
<g mask="url(#mask1_40_910)">
<path opacity="0.16" d="M216.525 173.376H197.076C195.878 173.374 194.703 173.7 193.678 174.318C192.652 174.936 191.815 175.823 191.257 176.882C167.335 222.549 161.945 294.19 161.945 294.19H192.123L199.556 265.929L230.584 272.327C230.802 269.956 231.063 267.543 231.349 265.163L230.676 257.596C230.676 257.596 224.319 250.911 222.268 249.238C220.216 247.564 221.595 244.546 221.267 231.504C220.939 218.462 209.218 209.087 204.87 201.057C200.523 193.027 207.208 188.007 213.237 179.976C215.423 177.075 216.289 174.94 216.525 173.376Z" fill="black"/>
</g>
<path d="M191.257 176.882C191.815 175.823 192.652 174.936 193.678 174.318C194.703 173.7 195.878 173.374 197.076 173.376H253.169C253.169 173.376 257.222 173.376 256.003 181.078C254.784 188.78 238.168 235.809 234.141 250.028C230.113 264.247 229.281 294.215 229.281 294.215H162.012C162.012 294.215 167.335 222.549 191.257 176.882Z" stroke="#263238" stroke-linecap="round" stroke-linejoin="round"/>
<path d="M243.432 186.754C237.765 199.98 225.774 252.34 223.823 294.19H229.247C229.247 294.19 230.088 264.188 234.107 250.003C238.126 235.818 254.783 188.78 255.969 181.053C257.155 173.325 253.135 173.351 253.135 173.351C253.135 173.351 247.981 176.151 243.432 186.754Z" fill="#263238" stroke="#263238" stroke-linecap="round" stroke-linejoin="round"/>
<path d="M144.918 160.317C144.918 160.317 135.971 155.07 132.574 145.821C129.177 136.572 159.103 121.756 172.094 120.831C185.085 119.906 188.751 123.294 196.479 136.563C204.206 149.832 209.436 168.028 205.426 176.975C201.415 185.921 194.629 188.082 199.54 195.473C204.45 202.864 218.358 223.852 217.433 233.724C216.508 243.595 206.939 252.223 193.048 253.164C179.157 254.106 160.658 245.756 145.229 232.143C129.799 218.53 133.818 198.509 139.343 192.034C144.867 185.56 153.225 183.088 153.848 176.613C154.47 170.138 144.918 160.317 144.918 160.317Z" fill="#263238" stroke="#263238" stroke-linecap="round" stroke-linejoin="round"/>
<path d="M183.084 145.678C187.843 154.524 193.78 166.371 195.638 173.527C198.884 186.056 182.184 193.943 186.826 199.972" stroke="white" stroke-linecap="round" stroke-linejoin="round"/>
<path d="M176.576 134.091C176.576 134.091 178.417 137.244 180.982 141.886" stroke="white" stroke-linecap="round" stroke-linejoin="round"/>
<path d="M201.49 156.348C202.037 158.007 202.395 159.722 202.558 161.461" stroke="white" stroke-linecap="round" stroke-linejoin="round"/>
<path d="M179.821 129.492C179.821 129.492 194.427 140.288 200.262 153.212" stroke="white" stroke-linecap="round" stroke-linejoin="round"/>
<path d="M159.54 137.589C149.105 140.515 134.105 145.266 135.324 148.007" stroke="white" stroke-linecap="round" stroke-linejoin="round"/>
<path d="M169.151 135.016C169.151 135.016 166.915 135.571 163.593 136.462" stroke="white" stroke-linecap="round" stroke-linejoin="round"/>
<path d="M156.227 129.567C162.204 127.683 168.465 126.858 174.726 127.129" stroke="white" stroke-linecap="round" stroke-linejoin="round"/>
<path d="M151.972 131.308C152.917 130.815 153.895 130.388 154.898 130.03" stroke="white" stroke-linecap="round" stroke-linejoin="round"/>
<path d="M65.9528 140.801C65.9528 140.852 65.9528 140.91 65.9528 140.986C65.9696 140.91 65.9612 140.852 65.9528 140.801ZM65.9528 141.037C65.9528 141.112 65.9528 141.188 66.0032 141.28C66.0285 141.188 66.0116 141.112 65.9948 141.037H65.9528ZM69.3751 149.445C72.5168 155.403 76.4296 160.922 81.0125 165.859C92.1202 177.891 124.199 209.364 127.259 211.525C130.32 213.686 129.42 219.85 127.259 226.022C125.098 232.194 117.077 241.157 117.388 251.012C117.699 260.867 120.751 276.002 120.474 279.088C120.196 282.174 112.452 292.659 112.452 292.659H192.047C192.047 292.659 182.243 280.063 182.243 275.741C182.243 271.419 195.856 216.158 196.479 212.148C197.101 208.137 194.629 205.362 189.693 205.051C184.757 204.74 165.93 200.729 165.005 197.643C164.08 194.557 169.941 182.835 169.941 182.835L151.442 183.76C151.442 183.76 150.518 191.782 149.281 193.329C148.045 194.876 146.196 191.782 141.882 189.629C137.568 187.477 129.227 185.619 126.141 183.146C123.055 180.674 93.4403 152.876 93.4403 152.876" fill="white"/>
<mask id="mask2_40_910" style="mask-type:luminance" maskUnits="userSpaceOnUse" x="65" y="140" width="132" height="153">
<path d="M65.9528 140.801C65.9528 140.852 65.9528 140.91 65.9528 140.986C65.9696 140.91 65.9612 140.852 65.9528 140.801ZM65.9528 141.037C65.9528 141.112 65.9528 141.188 66.0032 141.28C66.0285 141.188 66.0116 141.112 65.9948 141.037H65.9528ZM69.3751 149.445C72.5168 155.403 76.4296 160.922 81.0125 165.859C92.1202 177.891 124.199 209.364 127.259 211.525C130.32 213.686 129.42 219.85 127.259 226.022C125.098 232.194 117.077 241.157 117.388 251.012C117.699 260.867 120.751 276.002 120.474 279.088C120.196 282.174 112.452 292.659 112.452 292.659H192.047C192.047 292.659 182.243 280.063 182.243 275.741C182.243 271.419 195.856 216.158 196.479 212.148C197.101 208.137 194.629 205.362 189.693 205.051C184.757 204.74 165.93 200.729 165.005 197.643C164.08 194.557 169.941 182.835 169.941 182.835L151.442 183.76C151.442 183.76 150.518 191.782 149.281 193.329C148.045 194.876 146.196 191.782 141.882 189.629C137.568 187.477 129.227 185.619 126.141 183.146C123.055 180.674 93.4403 152.876 93.4403 152.876" fill="white"/>
</mask>
<g mask="url(#mask2_40_910)">
<path d="M130.816 185.526C132.364 188.217 133.894 190.647 133.894 190.647C133.894 190.647 139.082 193.565 140.385 193.565C141.689 193.565 149.467 197.769 149.467 197.769C149.467 197.769 155.95 196.146 153.671 190.63C152.952 189.216 152.041 187.909 150.963 186.745C150.585 189.192 149.954 192.396 149.223 193.312C147.987 194.851 146.137 191.765 141.823 189.613C139.006 188.217 134.483 186.939 130.816 185.526Z" fill="#2A8EF1"/>
<path d="M114.975 173.039C105.439 164.219 93.3814 152.909 93.3814 152.909L86.3687 151.9L85.5278 152.371C85.5278 152.371 105.313 169.886 109.534 171.837C111.241 172.623 113.096 173.033 114.975 173.039Z" fill="#2A8EF1"/>
<path d="M124.964 182.171L124.207 181.498C124.585 182.137 124.812 182.541 124.812 182.541C124.812 182.541 124.863 182.398 124.964 182.171Z" fill="#2A8EF1"/>
<g opacity="0.5">
<path d="M130.816 185.526C132.364 188.217 133.894 190.647 133.894 190.647C133.894 190.647 139.082 193.565 140.385 193.565C141.689 193.565 149.467 197.769 149.467 197.769C149.467 197.769 155.95 196.146 153.671 190.63C152.952 189.216 152.041 187.909 150.963 186.745C150.585 189.192 149.954 192.396 149.223 193.312C147.987 194.851 146.137 191.765 141.823 189.613C139.006 188.217 134.483 186.939 130.816 185.526Z" fill="white"/>
<path d="M114.975 173.039C105.439 164.219 93.3814 152.909 93.3814 152.909L86.3687 151.9L85.5278 152.371C85.5278 152.371 105.313 169.886 109.534 171.837C111.241 172.623 113.096 173.033 114.975 173.039Z" fill="white"/>
<path d="M124.964 182.171L124.207 181.498C124.585 182.137 124.812 182.541 124.812 182.541C124.812 182.541 124.863 182.398 124.964 182.171Z" fill="white"/>
</g>
</g>
<path d="M65.936 140.574C65.9322 140.633 65.9322 140.692 65.936 140.751M69.4171 149.453C67.9986 146.861 66.8706 144.12 66.0537 141.28M69.3751 149.445C72.5168 155.403 76.4296 160.922 81.0125 165.859C92.1202 177.891 124.199 209.364 127.259 211.525C130.32 213.686 129.42 219.85 127.259 226.022C125.098 232.194 117.077 241.157 117.388 251.012C117.699 260.867 120.751 276.002 120.474 279.088C120.196 282.174 112.452 292.659 112.452 292.659H192.047C192.047 292.659 182.243 280.063 182.243 275.741C182.243 271.419 195.856 216.158 196.479 212.148C197.101 208.137 194.629 205.362 189.693 205.051C184.757 204.74 165.93 200.729 165.005 197.643C164.08 194.557 169.941 182.835 169.941 182.835L151.442 183.76C151.442 183.76 150.518 191.782 149.281 193.329C148.045 194.876 146.196 191.782 141.882 189.629C137.568 187.477 129.227 185.619 126.141 183.146C123.055 180.674 93.4403 152.876 93.4403 152.876M65.9528 140.801C65.9528 140.852 65.9528 140.91 65.9528 140.986C65.9696 140.91 65.9612 140.852 65.9528 140.801ZM65.9528 141.037C65.9528 141.112 65.9528 141.188 66.0032 141.28C66.0285 141.188 66.0116 141.112 65.9948 141.037H65.9528Z" stroke="#263238" stroke-linecap="round" stroke-linejoin="round"/>
<path d="M93.3901 152.909C93.3901 152.909 83.5437 153.094 78.0361 148.562" stroke="#263238" stroke-linecap="round" stroke-linejoin="round"/>
<path d="M164.964 197.643C164.039 194.565 169.899 182.835 169.899 182.835L151.401 183.76C151.401 183.76 150.476 191.782 149.24 193.329C148.003 194.876 146.154 191.782 141.84 189.629C141.512 189.461 141.151 189.302 140.781 189.142L139.654 206.724C139.654 206.724 141.277 223.751 160.734 220.514C168.613 219.202 177.021 212.173 184.278 204.269C176.811 202.898 165.67 200.006 164.964 197.643Z" fill="white"/>
<mask id="mask3_40_910" style="mask-type:luminance" maskUnits="userSpaceOnUse" x="139" y="182" width="46" height="39">
<path d="M164.964 197.643C164.039 194.565 169.899 182.835 169.899 182.835L151.401 183.76C151.401 183.76 150.476 191.782 149.24 193.329C148.003 194.876 146.154 191.782 141.84 189.629C141.512 189.461 141.151 189.302 140.781 189.142L139.654 206.724C139.654 206.724 141.277 223.751 160.734 220.514C168.613 219.202 177.021 212.173 184.278 204.269C176.811 202.898 165.67 200.006 164.964 197.643Z" fill="white"/>
</mask>
<g mask="url(#mask3_40_910)">
<path d="M164.442 185.165C164.442 185.165 163.324 191.437 162.424 198.374C161.525 205.311 160.86 210.474 160.86 210.474L164.964 197.643L169.63 184.046C169.63 184.046 165.115 184.046 164.442 185.165Z" fill="#2A8EF1"/>
<path opacity="0.5" d="M164.442 185.165C164.442 185.165 163.324 191.437 162.424 198.374C161.525 205.311 160.86 210.474 160.86 210.474L164.964 197.643L169.63 184.046C169.63 184.046 165.115 184.046 164.442 185.165Z" fill="white"/>
</g>
<path d="M164.964 197.643C164.039 194.565 169.899 182.835 169.899 182.835L151.401 183.76C151.401 183.76 150.476 191.782 149.24 193.329C148.003 194.876 146.154 191.782 141.84 189.629C141.512 189.461 141.151 189.302 140.781 189.142L139.654 206.724C139.654 206.724 141.277 223.751 160.734 220.514C168.613 219.202 177.021 212.173 184.278 204.269C176.811 202.898 165.67 200.006 164.964 197.643Z" stroke="#263238" stroke-linecap="round" stroke-linejoin="round"/>
<path d="M149.231 193.329C147.995 194.868 146.145 191.782 141.831 189.629C139.099 188.259 134.768 187.014 131.169 185.669C130.152 183.256 128.807 180.111 127.949 178.211C126.402 174.847 123.938 176.975 123.938 176.975C122.648 175.51 121.608 173.842 120.861 172.039C119.313 168.675 116.85 168.953 113.453 168.339C110.056 167.725 102.967 161.242 102.967 161.242C102.967 161.242 99.6457 158.72 98.2667 157.467C96.6775 160.612 92.8432 166.144 84.5776 169.6C97.7622 183.382 124.535 209.566 127.335 211.534C130.421 213.686 129.496 219.858 127.335 226.03C125.174 232.202 117.152 241.165 117.463 251.02C117.775 260.875 120.827 276.01 120.549 279.096C120.272 281.846 114.125 290.465 112.788 292.315L115.925 292.668H132.246C132.153 284.394 132.162 250.625 137.829 237.171C144.295 221.708 149.231 193.329 149.231 193.329Z" fill="#2A8EF1"/>
<mask id="mask4_40_910" style="mask-type:luminance" maskUnits="userSpaceOnUse" x="84" y="157" width="66" height="136">
<path d="M149.231 193.329C147.995 194.868 146.145 191.782 141.831 189.629C139.099 188.259 134.768 187.014 131.169 185.669C130.152 183.256 128.807 180.111 127.949 178.211C126.402 174.847 123.938 176.975 123.938 176.975C122.648 175.51 121.608 173.842 120.861 172.039C119.313 168.675 116.85 168.953 113.453 168.339C110.056 167.725 102.967 161.242 102.967 161.242C102.967 161.242 99.6457 158.72 98.2667 157.467C96.6775 160.612 92.8432 166.144 84.5776 169.6C97.7622 183.382 124.535 209.566 127.335 211.534C130.421 213.686 129.496 219.858 127.335 226.03C125.174 232.202 117.152 241.165 117.463 251.02C117.775 260.875 120.827 276.01 120.549 279.096C120.272 281.846 114.125 290.465 112.788 292.315L115.925 292.668H132.246C132.153 284.394 132.162 250.625 137.829 237.171C144.295 221.708 149.231 193.329 149.231 193.329Z" fill="white"/>
</mask>
<g mask="url(#mask4_40_910)">
<path opacity="0.16" d="M141.832 189.629C139.099 188.259 134.768 187.014 131.17 185.669C130.152 183.256 128.807 180.111 127.949 178.211C126.402 174.847 123.938 176.975 123.938 176.975C122.648 175.51 121.608 173.842 120.861 172.039C119.314 168.675 116.85 168.953 113.453 168.339C110.056 167.725 102.967 161.242 102.967 161.242C102.967 161.242 99.646 158.72 98.267 157.467C97.5831 158.802 96.7691 160.067 95.8369 161.242C101.353 165.909 107.441 170.853 109.576 171.837C113.781 173.779 114.765 172.157 117.985 174.107C121.205 176.058 124.796 182.516 124.796 182.516C124.796 182.516 126.738 177.319 128.361 180.893C129.984 184.467 133.877 190.622 133.877 190.622C133.877 190.622 139.065 193.539 140.369 193.539C141.378 193.539 146.372 196.129 148.483 197.248C148.954 194.784 149.214 193.304 149.214 193.304C147.995 194.868 146.145 191.782 141.832 189.629Z" fill="black"/>
</g>
<path d="M149.231 193.329C147.995 194.868 146.145 191.782 141.831 189.629C139.099 188.259 134.768 187.014 131.169 185.669C130.152 183.256 128.807 180.111 127.949 178.211C126.402 174.847 123.938 176.975 123.938 176.975C122.648 175.51 121.608 173.842 120.861 172.039C119.313 168.675 116.85 168.953 113.453 168.339C110.056 167.725 102.967 161.242 102.967 161.242C102.967 161.242 99.6457 158.72 98.2667 157.467C96.6775 160.612 92.8432 166.144 84.5776 169.6C97.7622 183.382 124.535 209.566 127.335 211.534C130.421 213.686 129.496 219.858 127.335 226.03C125.174 232.202 117.152 241.165 117.463 251.02C117.775 260.875 120.827 276.01 120.549 279.096C120.272 281.846 114.125 290.465 112.788 292.315L115.925 292.668H132.246C132.153 284.394 132.162 250.625 137.829 237.171C144.295 221.708 149.231 193.329 149.231 193.329Z" stroke="#263238" stroke-linecap="round" stroke-linejoin="round"/>
<path d="M149.45 192.253C149.45 192.253 145.615 191.076 143.261 193.144C140.907 195.213 137.375 205.824 135.29 217.336C134.013 224.037 134.896 230.971 137.812 237.138C137.812 237.138 142.656 224.416 144.136 218.219C145.615 212.021 149.45 192.253 149.45 192.253Z" fill="#2A8EF1"/>
<mask id="mask5_40_910" style="mask-type:luminance" maskUnits="userSpaceOnUse" x="134" y="191" width="16" height="47">
<path d="M149.45 192.253C149.45 192.253 145.615 191.076 143.261 193.144C140.907 195.213 137.375 205.824 135.29 217.336C134.013 224.037 134.896 230.971 137.812 237.138C137.812 237.138 142.656 224.416 144.136 218.219C145.615 212.021 149.45 192.253 149.45 192.253Z" fill="white"/>
</mask>
<g mask="url(#mask5_40_910)">
<path opacity="0.16" d="M142.093 194.128C142.093 194.128 144.868 193.455 146.011 193.842C146.975 194.253 147.876 194.799 148.685 195.465L149.45 192.253C148.302 191.666 147.001 191.452 145.725 191.639C143.817 192.026 142.093 194.128 142.093 194.128Z" fill="black"/>
</g>
<path d="M149.45 192.253C149.45 192.253 145.615 191.076 143.261 193.144C140.907 195.213 137.375 205.824 135.29 217.336C134.013 224.037 134.896 230.971 137.812 237.138C137.812 237.138 142.656 224.416 144.136 218.219C145.615 212.021 149.45 192.253 149.45 192.253Z" stroke="#263238" stroke-linecap="round" stroke-linejoin="round"/>
<path d="M123.627 193.262L128.563 213.316L117.456 188.015" stroke="#263238" stroke-linecap="round" stroke-linejoin="round"/>
<path d="M156.177 292.668H192.14C192.14 292.668 182.243 280.063 182.243 275.741C182.243 271.419 195.857 216.158 196.479 212.148C197.101 208.137 194.629 205.362 189.693 205.051C184.757 204.74 165.931 200.729 165.006 197.643C165.006 197.643 157.909 222.633 155.445 239.601C153.284 254.157 155.479 284.36 156.177 292.668Z" fill="#2A8EF1"/>
<mask id="mask6_40_910" style="mask-type:luminance" maskUnits="userSpaceOnUse" x="154" y="197" width="43" height="96">
<path d="M156.177 292.668H192.14C192.14 292.668 182.243 280.063 182.243 275.741C182.243 271.419 195.857 216.158 196.479 212.148C197.101 208.137 194.629 205.362 189.693 205.051C184.757 204.74 165.931 200.729 165.006 197.643C165.006 197.643 157.909 222.633 155.445 239.601C153.284 254.157 155.479 284.36 156.177 292.668Z" fill="white"/>
</mask>
<g mask="url(#mask6_40_910)">
<path opacity="0.16" d="M189.651 205.051C185.598 204.799 172.237 202.057 167.032 199.383L168.924 203.756C172.365 205.578 176.066 206.86 179.897 207.557C186.17 208.675 191.989 208.456 195.798 214.056L195.983 214.334C196.227 213.258 196.378 212.501 196.437 212.148C197.051 208.137 194.587 205.362 189.651 205.051Z" fill="black"/>
</g>
<path d="M156.177 292.668H192.14C192.14 292.668 182.243 280.063 182.243 275.741C182.243 271.419 195.857 216.158 196.479 212.148C197.101 208.137 194.629 205.362 189.693 205.051C184.757 204.74 165.931 200.729 165.006 197.643C165.006 197.643 157.909 222.633 155.445 239.601C153.284 254.157 155.479 284.36 156.177 292.668Z" stroke="#263238" stroke-linecap="round" stroke-linejoin="round"/>
<path d="M164.963 197.643C164.963 197.643 155.453 227.914 155.403 239.601C155.403 239.601 168.924 223.23 170.698 211.727C172.472 200.224 164.963 197.643 164.963 197.643Z" fill="#2A8EF1"/>
<mask id="mask7_40_910" style="mask-type:luminance" maskUnits="userSpaceOnUse" x="155" y="197" width="16" height="43">
<path d="M164.963 197.643C164.963 197.643 155.453 227.914 155.403 239.601C155.403 239.601 168.924 223.23 170.698 211.727C172.472 200.224 164.963 197.643 164.963 197.643Z" fill="white"/>
</mask>
<g mask="url(#mask7_40_910)">
<path opacity="0.16" d="M163.324 201.511C164.754 201.463 166.174 201.764 167.462 202.388C168.75 203.012 169.866 203.94 170.715 205.093C170.715 205.093 168.848 199.602 164.963 197.643L163.324 201.511Z" fill="black"/>
</g>
<path d="M164.963 197.643C164.963 197.643 155.453 227.914 155.403 239.601C155.403 239.601 168.924 223.23 170.698 211.727C172.472 200.224 164.963 197.643 164.963 197.643Z" stroke="#263238" stroke-linecap="round" stroke-linejoin="round"/>
<path d="M266.589 286.975C266.589 286.975 273.56 287.261 278.117 287.917C281.162 288.329 284.228 288.574 287.3 288.648C287.3 288.648 284.777 283.553 282.095 282.115C279.412 280.677 274.527 278.104 270.432 278.676C266.337 279.248 260.518 283.334 260.989 284.68C261.46 286.025 263.663 286.58 266.589 286.975Z" fill="white"/>
<mask id="mask8_40_910" style="mask-type:luminance" maskUnits="userSpaceOnUse" x="260" y="278" width="28" height="11">
<path d="M266.589 286.975C266.589 286.975 273.56 287.261 278.117 287.917C281.162 288.329 284.228 288.574 287.3 288.648C287.3 288.648 284.777 283.553 282.095 282.115C279.412 280.677 274.527 278.104 270.432 278.676C266.337 279.248 260.518 283.334 260.989 284.68C261.46 286.025 263.663 286.58 266.589 286.975Z" fill="white"/>
</mask>
<g mask="url(#mask8_40_910)">
<path d="M266.589 286.975C266.589 286.975 273.56 287.261 278.117 287.917C281.162 288.329 284.228 288.574 287.3 288.648C287.3 288.648 284.777 283.553 282.095 282.115C279.412 280.677 274.527 278.104 270.432 278.676C266.337 279.248 260.518 283.334 260.989 284.68C261.46 286.025 263.663 286.58 266.589 286.975Z" fill="#2A8EF1"/>
<path opacity="0.5" d="M266.589 286.975C266.589 286.975 273.56 287.261 278.117 287.917C281.162 288.329 284.228 288.574 287.3 288.648C287.3 288.648 284.777 283.553 282.095 282.115C279.412 280.677 274.527 278.104 270.432 278.676C266.337 279.248 260.518 283.334 260.989 284.68C261.46 286.025 263.663 286.58 266.589 286.975Z" fill="white"/>
</g>
<path d="M266.589 286.975C266.589 286.975 273.56 287.261 278.117 287.917C281.162 288.329 284.228 288.574 287.3 288.648C287.3 288.648 284.777 283.553 282.095 282.115C279.412 280.677 274.527 278.104 270.432 278.676C266.337 279.248 260.518 283.334 260.989 284.68C261.46 286.025 263.663 286.58 266.589 286.975Z" stroke="#263238" stroke-linecap="round" stroke-linejoin="round"/>
<path d="M278.101 284.89C278.101 284.89 283.625 282.023 285.012 282.065C286.4 282.107 295.557 288.304 295.103 289.296C294.792 289.756 294.345 290.107 293.825 290.3C293.305 290.493 292.737 290.518 292.202 290.372C291.193 289.893 285.021 287.269 285.021 287.269L280.985 288.22L278.101 284.89Z" fill="white"/>
<mask id="mask9_40_910" style="mask-type:luminance" maskUnits="userSpaceOnUse" x="278" y="282" width="18" height="9">
<path d="M278.101 284.89C278.101 284.89 283.625 282.023 285.012 282.065C286.4 282.107 295.557 288.304 295.103 289.296C294.792 289.756 294.345 290.107 293.825 290.3C293.305 290.493 292.737 290.518 292.202 290.372C291.193 289.893 285.021 287.269 285.021 287.269L280.985 288.22L278.101 284.89Z" fill="white"/>
</mask>
<g mask="url(#mask9_40_910)">
<path d="M278.101 284.89C278.101 284.89 283.625 282.023 285.012 282.065C286.4 282.107 295.557 288.304 295.103 289.296C294.649 290.288 292.471 291.095 292.202 290.372C291.933 289.649 285.021 287.269 285.021 287.269L280.985 288.22L278.101 284.89Z" fill="#2A8EF1"/>
<path opacity="0.5" d="M278.101 284.89C278.101 284.89 283.625 282.023 285.012 282.065C286.4 282.107 295.557 288.304 295.103 289.296C294.649 290.288 292.471 291.095 292.202 290.372C291.933 289.649 285.021 287.269 285.021 287.269L280.985 288.22L278.101 284.89Z" fill="white"/>
</g>
<path d="M278.101 284.89C278.101 284.89 283.625 282.023 285.012 282.065C286.4 282.107 295.557 288.304 295.103 289.296C294.792 289.756 294.345 290.107 293.825 290.3C293.305 290.493 292.737 290.518 292.202 290.372C291.193 289.893 285.021 287.269 285.021 287.269L280.985 288.22L278.101 284.89Z" stroke="#263238" stroke-linecap="round" stroke-linejoin="round"/>
<path d="M274.216 280.173C274.216 280.173 281.59 279.937 283.045 280.677C284.499 281.417 291.117 292.752 290.125 293.576C289.133 294.4 286.4 294.156 286.484 293.24C286.568 292.323 280.388 286.252 280.388 286.252L275.578 285.201L274.216 280.173Z" fill="white"/>
<mask id="mask10_40_910" style="mask-type:luminance" maskUnits="userSpaceOnUse" x="274" y="280" width="17" height="15">
<path d="M274.216 280.173C274.216 280.173 281.59 279.937 283.045 280.677C284.499 281.417 291.117 292.752 290.125 293.576C289.133 294.4 286.4 294.156 286.484 293.24C286.568 292.323 280.388 286.252 280.388 286.252L275.578 285.201L274.216 280.173Z" fill="white"/>
</mask>
<g mask="url(#mask10_40_910)">
<path d="M274.216 280.173C274.216 280.173 281.59 279.937 283.045 280.677C284.499 281.417 291.117 292.752 290.125 293.576C289.133 294.4 286.4 294.156 286.484 293.24C286.568 292.323 280.388 286.252 280.388 286.252L275.578 285.201L274.216 280.173Z" fill="#2A8EF1"/>
<path opacity="0.5" d="M274.216 280.173C274.216 280.173 281.59 279.937 283.045 280.677C284.499 281.417 291.117 292.752 290.125 293.576C289.133 294.4 286.4 294.156 286.484 293.24C286.568 292.323 280.388 286.252 280.388 286.252L275.578 285.201L274.216 280.173Z" fill="white"/>
</g>
<path d="M274.216 280.173C274.216 280.173 281.59 279.937 283.045 280.677C284.499 281.417 291.117 292.752 290.125 293.576C289.133 294.4 286.4 294.156 286.484 293.24C286.568 292.323 280.388 286.252 280.388 286.252L275.578 285.201L274.216 280.173Z" stroke="#263238" stroke-linecap="round" stroke-linejoin="round"/>
<path d="M269.86 278.651C269.86 278.651 277.319 278.407 278.799 279.164C280.279 279.92 286.963 291.381 285.954 292.222C284.945 293.063 282.187 292.802 282.271 291.877C282.355 290.952 276.108 284.806 276.108 284.806L271.248 283.738L269.86 278.651Z" fill="white"/>
<mask id="mask11_40_910" style="mask-type:luminance" maskUnits="userSpaceOnUse" x="269" y="278" width="18" height="15">
<path d="M269.86 278.651C269.86 278.651 277.319 278.407 278.799 279.164C280.279 279.92 286.963 291.381 285.954 292.222C284.945 293.063 282.187 292.802 282.271 291.877C282.355 290.952 276.108 284.806 276.108 284.806L271.248 283.738L269.86 278.651Z" fill="white"/>
</mask>
<g mask="url(#mask11_40_910)">
<path d="M269.86 278.651C269.86 278.651 277.319 278.407 278.799 279.164C280.279 279.92 286.963 291.381 285.954 292.222C284.945 293.063 282.187 292.802 282.271 291.877C282.355 290.952 276.108 284.806 276.108 284.806L271.248 283.738L269.86 278.651Z" fill="#2A8EF1"/>
<path opacity="0.5" d="M269.86 278.651C269.86 278.651 277.319 278.407 278.799 279.164C280.279 279.92 286.963 291.381 285.954 292.222C284.945 293.063 282.187 292.802 282.271 291.877C282.355 290.952 276.108 284.806 276.108 284.806L271.248 283.738L269.86 278.651Z" fill="white"/>
</g>
<path d="M269.86 278.651C269.86 278.651 277.319 278.407 278.799 279.164C280.279 279.92 286.963 291.381 285.954 292.222C284.945 293.063 282.187 292.802 282.271 291.877C282.355 290.952 276.108 284.806 276.108 284.806L271.248 283.738L269.86 278.651Z" stroke="#263238" stroke-linecap="round" stroke-linejoin="round"/>
<path d="M185.051 235.918C190.45 244.235 201.288 265.306 204.458 267.678C209.394 271.377 242.389 280.358 245.568 282.813C248.746 285.268 248.519 287.732 251.538 288.632C254.556 289.531 265.832 292.113 270.137 292.516C274.443 292.92 272.517 290.255 272.517 290.255L265.168 285.209L271.575 283.629C271.575 283.629 277.983 291.348 279.185 291.768C280.387 292.188 282.548 291.768 282.372 290.818C282.145 289.296 275.292 276.843 272.87 276.313C270.449 275.783 255.683 277.827 255.683 277.827C255.683 277.827 224.757 256.965 224.202 256.225C224.202 256.225 222.352 250.978 220.838 248.817C219.325 246.656 218.374 247.278 218.374 247.278C218.374 247.278 218.988 244.495 218.063 243.57L213.128 238.634L212.951 238.87C212.11 237.188 211.269 235.271 210.353 233.085C207.763 227.005 198.631 209.944 197.084 207.481C195.94 205.639 186.279 204.319 181.385 203.764" fill="#2A8EF1"/>
<mask id="mask12_40_910" style="mask-type:luminance" maskUnits="userSpaceOnUse" x="181" y="203" width="102" height="90">
<path d="M185.051 235.918C190.45 244.235 201.288 265.306 204.458 267.678C209.394 271.377 242.389 280.358 245.568 282.813C248.746 285.268 248.519 287.732 251.538 288.632C254.556 289.531 265.832 292.113 270.137 292.516C274.443 292.92 272.517 290.255 272.517 290.255L265.168 285.209L271.575 283.629C271.575 283.629 277.983 291.348 279.185 291.768C280.387 292.188 282.548 291.768 282.372 290.818C282.145 289.296 275.292 276.843 272.87 276.313C270.449 275.783 255.683 277.827 255.683 277.827C255.683 277.827 224.757 256.965 224.202 256.225C224.202 256.225 222.352 250.978 220.838 248.817C219.325 246.656 218.374 247.278 218.374 247.278C218.374 247.278 218.988 244.495 218.063 243.57L213.128 238.634L212.951 238.87C212.11 237.188 211.269 235.271 210.353 233.085C207.763 227.005 198.631 209.944 197.084 207.481C195.94 205.639 186.279 204.319 181.385 203.764" fill="white"/>
</mask>
<g mask="url(#mask12_40_910)">
<path opacity="0.16" d="M206.552 236.448C210.58 240.03 209.234 240.03 208.343 243.175C207.452 246.32 209.016 242.057 212.816 242.284C216.617 242.511 215.507 247.43 215.061 248.33C214.616 249.229 219.762 250.348 218.862 252.357C217.962 254.367 212.816 257.285 209.907 260.202C206.998 263.12 217.525 255.494 221.107 255.275C222.192 255.199 223.092 255.342 223.848 255.325C223.058 253.074 222.038 250.91 220.804 248.868C219.266 246.707 218.341 247.329 218.341 247.329C218.341 247.329 218.955 244.546 218.03 243.621L213.094 238.685L212.917 238.92C212.076 237.239 211.236 235.322 210.319 233.135C207.729 227.056 198.597 209.995 197.05 207.531C195.907 205.69 186.245 204.37 181.352 203.815L181.806 207.708L181.915 207.792C181.915 207.792 187.961 208.91 189.979 209.137C191.997 209.364 194.452 211.147 194.233 212.501C194.015 213.854 188.179 219.892 189.979 220.346C191.778 220.8 193.779 215.864 195.797 216.537C197.815 217.209 202.516 232.866 206.552 236.448Z" fill="black"/>
</g>
<path d="M185.051 235.918C190.45 244.235 201.288 265.306 204.458 267.678C209.394 271.377 242.389 280.358 245.568 282.813C248.746 285.268 248.519 287.732 251.538 288.632C254.556 289.531 265.832 292.113 270.137 292.516C274.443 292.92 272.517 290.254 272.517 290.254L265.168 285.209L271.575 283.629C271.575 283.629 277.983 291.348 279.185 291.768C280.387 292.188 282.548 291.768 282.372 290.818C282.145 289.296 275.292 276.843 272.87 276.313C270.449 275.783 255.683 277.827 255.683 277.827C255.683 277.827 224.757 256.965 224.202 256.225C224.202 256.225 222.352 250.978 220.838 248.817C219.325 246.656 218.374 247.278 218.374 247.278C218.374 247.278 218.988 244.495 218.063 243.57L213.128 238.634L212.951 238.87C212.11 237.188 211.269 235.271 210.353 233.085C207.763 227.005 198.631 209.944 197.084 207.481C195.94 205.639 186.279 204.319 181.385 203.764" stroke="#263238" stroke-linecap="round" stroke-linejoin="round"/>
<path d="M185.136 224.508C184.909 225.265 184.715 226.022 184.564 226.795" stroke="#263238" stroke-linecap="round" stroke-linejoin="round"/>
<path d="M193.309 210.592C190.667 213.604 188.438 216.955 186.683 220.556" stroke="#263238" stroke-linecap="round" stroke-linejoin="round"/>
<path d="M205.661 258.336C207.931 254.972 211.547 250.709 215.533 249.49" stroke="#263238" stroke-linecap="round" stroke-linejoin="round"/>
<path d="M203.147 262.473C203.147 262.473 203.551 261.682 204.274 260.488" stroke="#263238" stroke-linecap="round" stroke-linejoin="round"/>
<path d="M203.147 257.159C203.147 257.159 207.276 246.833 211.404 244.176C215.533 241.519 213.178 246.833 213.178 246.833" stroke="#263238" stroke-linecap="round" stroke-linejoin="round"/>
<path d="M245.568 282.821C248.746 285.285 248.519 287.74 251.538 288.64C254.557 289.54 265.833 292.121 270.138 292.525C274.443 292.928 272.517 290.263 272.517 290.263L265.168 285.218L271.576 283.637C271.576 283.637 277.983 291.356 279.185 291.776C280.388 292.197 282.675 292.348 282.372 290.826C281.784 287.883 275.292 276.851 272.87 276.322C270.449 275.792 255.683 277.835 255.683 277.835C255.683 277.835 227.506 258.495 224.42 256.402C212.455 257.554 206.763 263.818 204.375 267.577L204.459 267.644C209.394 271.377 242.39 280.358 245.568 282.821Z" fill="white"/>
<mask id="mask13_40_910" style="mask-type:luminance" maskUnits="userSpaceOnUse" x="204" y="256" width="79" height="37">
<path d="M245.568 282.821C248.746 285.285 248.519 287.74 251.538 288.64C254.557 289.54 265.833 292.121 270.138 292.525C274.443 292.928 272.517 290.263 272.517 290.263L265.168 285.218L271.576 283.637C271.576 283.637 277.983 291.356 279.185 291.776C280.388 292.197 282.675 292.348 282.372 290.826C281.784 287.883 275.292 276.851 272.87 276.322C270.449 275.792 255.683 277.835 255.683 277.835C255.683 277.835 227.506 258.495 224.42 256.402C212.455 257.554 206.763 263.818 204.375 267.577L204.459 267.644C209.394 271.377 242.39 280.358 245.568 282.821Z" fill="white"/>
</mask>
<g mask="url(#mask13_40_910)">
<path d="M282.373 290.86C280.851 287.118 275.293 276.885 272.871 276.355C270.449 275.825 255.684 277.869 255.684 277.869C255.684 277.869 227.507 258.529 224.421 256.435C221.28 256.709 218.199 257.455 215.281 258.647C219.729 261.169 249.377 277.986 253.119 278.735C257.088 279.576 270.332 277.398 272.669 278.962C274.149 279.954 278.555 286.941 281.523 291.903C282.381 291.776 282.684 291.617 282.373 290.86Z" fill="#2A8EF1"/>
<path opacity="0.5" d="M282.373 290.86C279.985 285.504 275.293 276.885 272.871 276.355C270.449 275.825 255.684 277.869 255.684 277.869C255.684 277.869 227.507 258.529 224.421 256.435C221.28 256.709 218.199 257.455 215.281 258.647C219.729 261.169 249.377 277.986 253.119 278.735C257.088 279.576 270.332 277.398 272.669 278.962C274.149 279.954 278.555 286.941 281.523 291.903C282.381 291.776 282.709 291.608 282.373 290.86Z" fill="white"/>
</g>
<path d="M245.568 282.821C248.746 285.285 248.519 287.74 251.538 288.64C254.557 289.54 265.833 292.121 270.138 292.525C274.443 292.928 272.517 290.263 272.517 290.263L265.168 285.218L271.576 283.637C271.576 283.637 277.983 291.356 279.185 291.776C280.388 292.197 282.675 292.348 282.372 290.826C281.784 287.883 275.292 276.851 272.87 276.322C270.449 275.792 255.683 277.835 255.683 277.835C255.683 277.835 227.506 258.495 224.42 256.402C212.455 257.554 206.763 263.818 204.375 267.577L204.459 267.644C209.394 271.377 242.39 280.358 245.568 282.821Z" stroke="#263238" stroke-linecap="round" stroke-linejoin="round"/>
<path d="M171.245 135.991L145.918 146.561C145.617 151.012 144.517 155.372 142.673 159.434C139.679 165.766 141.42 177.748 144.295 184.214C147.171 190.681 159.843 188.15 164.476 187.342C167.621 186.745 170.702 185.847 173.675 184.66C175.026 185.181 176.488 185.35 177.922 185.15C179.357 184.95 180.716 184.388 181.873 183.516C181.873 183.516 168.327 145.468 171.245 135.991Z" fill="white"/>
<mask id="mask14_40_910" style="mask-type:luminance" maskUnits="userSpaceOnUse" x="141" y="135" width="41" height="54">
<path d="M171.245 135.991L145.918 146.561C145.617 151.012 144.517 155.372 142.673 159.434C139.679 165.766 141.42 177.748 144.295 184.214C147.171 190.681 159.843 188.15 164.476 187.342C167.621 186.745 170.702 185.847 173.675 184.66C175.026 185.181 176.488 185.35 177.922 185.15C179.357 184.95 180.716 184.388 181.873 183.516C181.873 183.516 168.327 145.468 171.245 135.991Z" fill="white"/>
</mask>
<g mask="url(#mask14_40_910)">
<path d="M171.245 135.991L145.918 146.561C145.617 151.012 144.517 155.372 142.673 159.434C139.679 165.766 141.42 177.748 144.295 184.214C144.78 185.252 145.554 186.128 146.524 186.737V186.249C146.524 186.249 141.823 174.603 142.723 167.885C143.623 161.167 147.423 157.795 147.869 153.59C148.315 149.386 148.096 147.326 156.606 144.19C165.115 141.053 168.697 138.136 169.63 141.263C170.564 144.391 174.104 165.009 176.567 169.937C179.031 174.864 178.813 180.027 175.003 182.255C171.163 184.563 167.047 186.376 162.752 187.653L164.543 187.342C167.689 186.745 170.769 185.847 173.742 184.66C175.093 185.181 176.555 185.35 177.989 185.15C179.424 184.95 180.784 184.388 181.941 183.516C181.941 183.516 168.327 145.468 171.245 135.991Z" fill="#2A8EF1"/>
<path opacity="0.5" d="M171.245 135.991L145.918 146.561C145.617 151.012 144.517 155.372 142.673 159.434C139.679 165.766 141.42 177.748 144.295 184.214C144.78 185.252 145.554 186.128 146.524 186.737V186.249C146.524 186.249 141.823 174.603 142.723 167.885C143.623 161.167 147.423 157.795 147.869 153.59C148.315 149.386 148.096 147.326 156.606 144.19C165.115 141.053 168.697 138.136 169.63 141.263C170.564 144.391 174.104 165.009 176.567 169.937C179.031 174.864 178.813 180.027 175.003 182.255C171.163 184.563 167.047 186.376 162.752 187.653L164.543 187.342C167.689 186.745 170.769 185.847 173.742 184.66C175.093 185.181 176.555 185.35 177.989 185.15C179.424 184.95 180.784 184.388 181.941 183.516C181.941 183.516 168.327 145.468 171.245 135.991Z" fill="white"/>
</g>
<path d="M171.245 135.991L145.918 146.561C145.617 151.012 144.517 155.372 142.673 159.434C139.679 165.766 141.42 177.748 144.295 184.214C147.171 190.681 159.843 188.15 164.476 187.342C167.621 186.745 170.702 185.847 173.675 184.66C175.026 185.181 176.488 185.35 177.922 185.15C179.357 184.95 180.716 184.388 181.873 183.516C181.873 183.516 168.327 145.468 171.245 135.991Z" stroke="#263238" stroke-linecap="round" stroke-linejoin="round"/>
<path d="M158.447 152.565C158.52 154.053 158.338 155.543 157.909 156.971C157.236 158.652 150.888 165.262 151.081 165.976C151.274 166.691 151.838 168.987 152.964 169.205" stroke="#263238" stroke-linecap="round" stroke-linejoin="round"/>
<path d="M165.468 158.476C166.309 156.71 169.261 158.434 169.218 162.411" stroke="#263238" stroke-linecap="round" stroke-linejoin="round"/>
<path d="M151.131 153.279C151.131 153.279 153.603 152.195 155.806 156.197" stroke="#263238" stroke-linecap="round" stroke-linejoin="round"/>
<path d="M161.97 164.303C164.827 164.447 167.543 165.586 169.647 167.523" stroke="#263238" stroke-width="0.5" stroke-linecap="round" stroke-linejoin="round"/>
<path d="M148.13 159.048C149.604 159.245 151.044 159.644 152.41 160.233" stroke="#263238" stroke-width="0.5" stroke-linecap="round" stroke-linejoin="round"/>
<path d="M158.178 148.831C157.523 148.486 156.798 148.298 156.058 148.28C155.319 148.263 154.585 148.417 153.915 148.73C151.653 149.815 150.266 151.009 150.417 149.622C150.568 148.234 153.234 146.704 154.024 146.502C154.815 146.3 158.397 145.745 158.178 148.831Z" fill="#263238"/>
<path d="M164.518 145.695C166.871 147.604 168.741 150.041 169.975 152.808C171.656 157.013 172.985 152.422 171.656 149.672C170.328 146.923 166.494 143.996 164.518 145.695Z" fill="#263238"/>
<path d="M182.243 190.706C182.243 192.665 181.142 194.254 179.771 194.254C178.401 194.254 177.308 192.665 177.308 190.706C177.308 188.747 178.409 183.76 179.771 183.76C181.133 183.76 182.243 188.747 182.243 190.706Z" fill="#2A8EF1" stroke="#263238" stroke-linecap="round" stroke-linejoin="round"/>
<path d="M165.704 157.711C165.61 157.968 165.537 158.232 165.485 158.501C165.233 159.746 164.989 162.344 165.527 162.453C166.065 162.562 167.167 160.132 167.411 158.888C167.456 158.643 167.487 158.396 167.503 158.148C166.913 157.966 166.312 157.82 165.704 157.711Z" fill="#263238"/>
<path d="M151.367 153.035C151.289 153.255 151.227 153.48 151.182 153.708C150.938 154.953 150.938 157.685 151.476 157.786C152.014 157.887 152.863 155.331 153.158 154.087C153.216 153.784 153.247 153.478 153.25 153.17C152.638 152.999 151.997 152.953 151.367 153.035Z" fill="#263238"/>
<path d="M165.51 158.518L166.351 156.954C167.686 157.214 168.897 157.913 169.79 158.938" stroke="#263238" stroke-width="0.75" stroke-linecap="round" stroke-linejoin="round"/>
<path d="M151.367 153.036L152.208 152.052C152.208 152.052 152.57 151.875 154.562 152.775" stroke="#263238" stroke-width="0.75" stroke-linecap="round" stroke-linejoin="round"/>
<path d="M148.171 175.839C148.171 175.839 149.592 173.241 151.476 173.241C153.359 173.241 154.781 177.488 154.781 177.488" stroke="#263238" stroke-linecap="round" stroke-linejoin="round"/>
<path d="M87.3185 287.892C85.4902 287.801 83.6943 287.373 82.0211 286.63C81.5999 286.423 81.2744 286.061 81.1119 285.621C80.9493 285.18 80.9622 284.694 81.1477 284.262C81.3332 283.831 81.6773 283.487 82.109 283.302C82.5406 283.116 83.0269 283.104 83.4674 283.267C85.1491 283.982 87.3269 284.427 87.9155 284.175C88.975 282.981 90.6231 275.767 88.4957 272.285C88.0249 271.512 87.5792 271.369 87.2849 271.335C86.0825 271.167 84.2915 272.403 83.6608 273.017C83.3062 273.351 82.8333 273.531 82.346 273.517C81.8588 273.503 81.3971 273.296 81.0626 272.941C80.7281 272.587 80.5481 272.114 80.5623 271.626C80.5765 271.139 80.7837 270.678 81.1383 270.343C81.4746 270.024 84.5017 267.291 87.7474 267.728C88.549 267.846 89.3127 268.147 89.9791 268.608C90.6455 269.068 91.1968 269.677 91.5901 270.385C94.7181 275.472 92.5739 285.15 90.1774 287.068C89.3452 287.658 88.3373 287.949 87.3185 287.892Z" fill="white"/>
<mask id="mask15_40_910" style="mask-type:luminance" maskUnits="userSpaceOnUse" x="80" y="267" width="14" height="21">
<path d="M87.3185 287.892C85.4902 287.801 83.6943 287.373 82.0211 286.63C81.5999 286.423 81.2744 286.061 81.1119 285.621C80.9493 285.18 80.9622 284.694 81.1477 284.262C81.3332 283.831 81.6773 283.487 82.109 283.302C82.5406 283.116 83.0269 283.104 83.4674 283.267C85.1491 283.982 87.3269 284.427 87.9155 284.175C88.975 282.981 90.6231 275.767 88.4957 272.285C88.0249 271.512 87.5792 271.369 87.2849 271.335C86.0825 271.167 84.2915 272.403 83.6608 273.017C83.3062 273.351 82.8333 273.531 82.346 273.517C81.8588 273.503 81.3971 273.296 81.0626 272.941C80.7281 272.587 80.5481 272.114 80.5623 271.626C80.5765 271.139 80.7837 270.678 81.1383 270.343C81.4746 270.024 84.5017 267.291 87.7474 267.728C88.549 267.846 89.3127 268.147 89.9791 268.608C90.6455 269.068 91.1968 269.677 91.5901 270.385C94.7181 275.472 92.5739 285.15 90.1774 287.068C89.3452 287.658 88.3373 287.949 87.3185 287.892Z" fill="white"/>
</mask>
<g mask="url(#mask15_40_910)">
<path d="M89.7487 271.73C89.5269 271.209 89.1813 270.75 88.7417 270.392C88.3021 270.034 87.7818 269.79 87.2261 269.679C85.124 269.342 83.148 271.453 82.9294 271.688C82.7291 271.931 82.6047 272.227 82.5718 272.539C82.5389 272.852 82.5989 273.167 82.7444 273.446C83.0757 273.381 83.3819 273.224 83.6273 272.992C84.2579 272.403 86.0489 271.167 87.2513 271.31C87.5456 271.31 87.9913 271.487 88.4622 272.26C90.5895 275.708 88.9415 282.956 87.882 284.15C87.2934 284.402 85.124 283.956 83.4339 283.242C83.2258 283.154 83.0035 283.106 82.778 283.099C82.7933 283.329 82.866 283.552 82.9893 283.748C83.1126 283.943 83.2828 284.104 83.4843 284.217C84.5501 284.786 85.7259 285.119 86.9318 285.193C87.6181 285.225 88.2902 284.989 88.8069 284.537C90.3961 283.082 91.7835 275.64 89.7487 271.73Z" fill="#2A8EF1"/>
<path opacity="0.5" d="M89.7487 271.73C89.5269 271.209 89.1813 270.75 88.7417 270.392C88.3021 270.034 87.7818 269.79 87.2261 269.679C85.124 269.342 83.148 271.453 82.9294 271.688C82.7291 271.931 82.6047 272.227 82.5718 272.539C82.5389 272.852 82.5989 273.167 82.7444 273.446C83.0757 273.381 83.3819 273.224 83.6273 272.992C84.2579 272.403 86.0489 271.167 87.2513 271.31C87.5456 271.31 87.9913 271.487 88.4622 272.26C90.5895 275.708 88.9415 282.956 87.882 284.15C87.2934 284.402 85.124 283.956 83.4339 283.242C83.2258 283.154 83.0035 283.106 82.778 283.099C82.7933 283.329 82.866 283.552 82.9893 283.748C83.1126 283.943 83.2828 284.104 83.4843 284.217C84.5501 284.786 85.7259 285.119 86.9318 285.193C87.6181 285.225 88.2902 284.989 88.8069 284.537C90.3961 283.082 91.7835 275.64 89.7487 271.73Z" fill="white"/>
</g>
<path d="M87.3185 287.892C85.4902 287.801 83.6943 287.373 82.0211 286.63C81.5999 286.423 81.2744 286.061 81.1119 285.621C80.9493 285.18 80.9622 284.694 81.1477 284.262C81.3332 283.831 81.6773 283.487 82.109 283.302C82.5406 283.116 83.0269 283.104 83.4674 283.267C85.1491 283.982 87.3269 284.427 87.9155 284.175C88.975 282.981 90.6231 275.767 88.4957 272.285C88.0249 271.512 87.5792 271.369 87.2849 271.335C86.0825 271.167 84.2915 272.403 83.6608 273.017C83.3062 273.351 82.8333 273.531 82.346 273.517C81.8588 273.503 81.3971 273.296 81.0626 272.941C80.7281 272.587 80.5481 272.114 80.5623 271.626C80.5765 271.139 80.7837 270.678 81.1383 270.343C81.4746 270.024 84.5017 267.291 87.7474 267.728C88.549 267.846 89.3127 268.147 89.9791 268.608C90.6455 269.068 91.1968 269.677 91.5901 270.385C94.7181 275.472 92.5739 285.15 90.1774 287.068C89.3452 287.658 88.3373 287.949 87.3185 287.892Z" stroke="#263238" stroke-linecap="round" stroke-linejoin="round"/>
<path d="M84.0731 266.198H63.8506V293.038H84.0731V266.198Z" fill="white"/>
<mask id="mask16_40_910" style="mask-type:luminance" maskUnits="userSpaceOnUse" x="63" y="266" width="22" height="28">
<path d="M84.0731 266.198H63.8506V293.038H84.0731V266.198Z" fill="white"/>
</mask>
<g mask="url(#mask16_40_910)">
<path d="M72.133 266.198H63.8506V293.038H72.133V266.198Z" fill="#2A8EF1"/>
<path opacity="0.5" d="M72.133 266.198H63.8506V293.038H72.133V266.198Z" fill="white"/>
</g>
<path d="M84.0731 266.198H63.8506V293.038H84.0731V266.198Z" stroke="#263238" stroke-linecap="round" stroke-linejoin="round"/>
<path d="M195.201 292.668H108.82L105.994 245.176C105.918 244.713 105.942 244.239 106.067 243.786C106.192 243.334 106.413 242.914 106.716 242.556C107.02 242.197 107.397 241.909 107.823 241.711C108.248 241.513 108.712 241.41 109.181 241.409H194.856C195.325 241.41 195.789 241.513 196.214 241.711C196.64 241.909 197.017 242.197 197.321 242.556C197.624 242.914 197.845 243.334 197.97 243.786C198.095 244.239 198.119 244.713 198.043 245.176L195.201 292.668Z" fill="#263238" stroke="#263238" stroke-linecap="round" stroke-linejoin="round"/>
<path d="M113.066 242.544H194.208C194.667 242.54 195.121 242.636 195.539 242.825C195.957 243.014 196.328 243.292 196.628 243.639C196.927 243.987 197.147 244.395 197.273 244.836C197.398 245.278 197.425 245.741 197.353 246.194" stroke="white" stroke-linecap="round" stroke-linejoin="round"/>
<path d="M106.633 245.445C106.701 244.651 107.066 243.911 107.655 243.373C108.244 242.835 109.014 242.539 109.812 242.544" stroke="white" stroke-linecap="round" stroke-linejoin="round"/>
<path d="M195.562 288.043H108.449V292.668H195.562V288.043Z" fill="white" stroke="#263238" stroke-linecap="round" stroke-linejoin="round"/>
<path d="M151.703 270.923C155.112 270.923 157.875 269.267 157.875 267.223C157.875 265.18 155.112 263.524 151.703 263.524C148.294 263.524 145.531 265.18 145.531 267.223C145.531 269.267 148.294 270.923 151.703 270.923Z" fill="white" stroke="#263238" stroke-linecap="round" stroke-linejoin="round"/>
<path d="M326.954 292.121H2.50195V300H326.954V292.121Z" fill="#263238"/>
<path d="M242.827 0H86.7388C81.4772 0 77.2119 4.26533 77.2119 9.52688V99.0863C77.2119 104.348 81.4772 108.613 86.7388 108.613H242.827C248.088 108.613 252.353 104.348 252.353 99.0863V9.52688C252.353 4.26533 248.088 0 242.827 0Z" fill="#2A8EF1"/>
<path d="M168.906 62.4206C183.064 60.1451 192.698 46.8226 190.422 32.6639C188.147 18.5052 174.824 8.8719 160.665 11.1474C146.507 13.4228 136.873 26.7454 139.149 40.9041C141.424 55.0628 154.747 64.6961 168.906 62.4206Z" fill="#263238"/>
<path d="M164.585 41.5803L155.941 52.688C155.646 53.1515 155.24 53.5342 154.76 53.8014C154.28 54.0686 153.741 54.2119 153.191 54.2183C152.816 54.2179 152.445 54.1433 152.098 53.999C151.752 53.8548 151.438 53.6435 151.173 53.3775C150.899 53.1241 150.683 52.8154 150.538 52.4717C150.393 52.1281 150.323 51.7575 150.332 51.3846C150.36 50.5491 150.654 49.7444 151.173 49.0891L161.053 36.9303L151.804 24.7211C151.367 24.139 151.131 23.4308 151.131 22.7031C151.15 21.8483 151.499 21.0339 152.103 20.4294C152.708 19.8248 153.522 19.4767 154.377 19.4574C154.919 19.474 155.448 19.6257 155.917 19.8988C156.385 20.172 156.778 20.5578 157.059 21.0214L165.426 32.0534L173.834 21.2316C174.136 20.7261 174.558 20.3028 175.063 19.9992C175.567 19.6956 176.139 19.5211 176.727 19.491C177.09 19.4898 177.449 19.5638 177.782 19.7086C178.115 19.8533 178.414 20.0656 178.661 20.3319C178.925 20.5817 179.136 20.8827 179.281 21.2166C179.425 21.5506 179.501 21.9104 179.502 22.2743C179.493 22.9177 179.275 23.5407 178.879 24.0485L168.957 36.7117L178.509 49.3245C178.961 49.8883 179.213 50.5865 179.224 51.309C179.229 51.727 179.141 52.1409 178.968 52.5216C178.796 52.9022 178.541 53.2403 178.224 53.512C177.877 53.8569 177.457 54.1188 176.994 54.2781C176.532 54.4373 176.04 54.4898 175.554 54.4315C175.069 54.3733 174.603 54.2058 174.191 53.9417C173.78 53.6776 173.434 53.3237 173.178 52.9066L164.585 41.5803Z" fill="white"/>
<path d="M214.288 89.8032H115.285C113.278 89.8032 111.354 89.0059 109.934 87.5867C108.515 86.1675 107.718 84.2426 107.718 82.2355C107.718 80.2285 108.515 78.3036 109.934 76.8844C111.354 75.4651 113.278 74.6678 115.285 74.6678H214.288C216.295 74.6678 218.22 75.4651 219.639 76.8844C221.058 78.3036 221.855 80.2285 221.855 82.2355C221.855 84.2426 221.058 86.1675 219.639 87.5867C218.22 89.0059 216.295 89.8032 214.288 89.8032Z" fill="white"/>
<path d="M128.841 84.6741C128.775 84.6741 128.709 84.6606 128.648 84.6346C128.588 84.6086 128.533 84.5705 128.487 84.5227C128.438 84.4733 128.399 84.4143 128.373 84.3492C128.347 84.2841 128.334 84.2144 128.336 84.1443C128.339 84.0252 128.374 83.9092 128.437 83.808L129.185 82.6308H127.647C127.575 82.635 127.503 82.6237 127.437 82.5975C127.37 82.5714 127.309 82.5311 127.26 82.4794C127.168 82.3813 127.117 82.2521 127.117 82.1179C127.117 81.9836 127.168 81.8544 127.26 81.7563C127.309 81.7046 127.37 81.6643 127.437 81.6382C127.503 81.6121 127.575 81.6007 127.647 81.6049L129.16 81.647L128.429 80.5539C128.361 80.4419 128.323 80.3145 128.319 80.1839C128.317 80.1151 128.329 80.0466 128.353 79.9824C128.378 79.9183 128.416 79.8597 128.463 79.8103C128.511 79.7609 128.569 79.7216 128.632 79.6947C128.695 79.6679 128.763 79.6541 128.832 79.6542C128.927 79.6533 129.021 79.6797 129.101 79.7304C129.182 79.7811 129.246 79.8539 129.286 79.94L130.018 81.2602L130.724 79.9989C130.769 79.8995 130.841 79.8147 130.932 79.7538C131.022 79.6929 131.128 79.6584 131.237 79.6542C131.302 79.6533 131.366 79.6663 131.426 79.6924C131.485 79.7185 131.538 79.7571 131.582 79.8055C131.631 79.8517 131.67 79.9078 131.696 79.9701C131.722 80.0324 131.735 80.0995 131.733 80.1671C131.732 80.2865 131.697 80.4031 131.632 80.5034L130.951 81.689L132.49 81.647C132.561 81.6428 132.633 81.6541 132.7 81.6802C132.767 81.7064 132.827 81.7466 132.877 81.7983C132.963 81.899 133.011 82.0272 133.011 82.1599C133.011 82.2926 132.963 82.4208 132.877 82.5215C132.827 82.5731 132.767 82.6134 132.7 82.6396C132.633 82.6657 132.561 82.677 132.49 82.6728H130.934L131.624 83.7491C131.704 83.8785 131.75 84.026 131.758 84.178C131.761 84.2469 131.749 84.3156 131.723 84.3795C131.697 84.4433 131.657 84.5008 131.607 84.5479C131.563 84.5959 131.51 84.6342 131.451 84.6603C131.391 84.6863 131.327 84.6996 131.262 84.6993C131.158 84.6958 131.058 84.6631 130.971 84.6052C130.885 84.5472 130.817 84.4662 130.775 84.3713L130.077 83.1353L129.379 84.3713C129.329 84.4694 129.251 84.5506 129.156 84.6045C129.06 84.6583 128.95 84.6826 128.841 84.6741Z" fill="black"/>
<path d="M136.559 84.674C136.493 84.674 136.428 84.6606 136.367 84.6346C136.306 84.6086 136.251 84.5705 136.206 84.5227C136.156 84.4733 136.117 84.4142 136.091 84.3492C136.065 84.2841 136.053 84.2144 136.054 84.1443C136.058 84.0252 136.093 83.9091 136.155 83.8079L136.904 82.6307H135.365C135.293 82.635 135.222 82.6236 135.155 82.5975C135.088 82.5714 135.028 82.5311 134.978 82.4794C134.892 82.3788 134.844 82.2505 134.844 82.1178C134.844 81.9852 134.892 81.8569 134.978 81.7563C135.028 81.7046 135.088 81.6643 135.155 81.6382C135.222 81.612 135.293 81.6007 135.365 81.6049L136.879 81.6469L136.164 80.5118C136.096 80.3998 136.059 80.2725 136.054 80.1418C136.052 80.0731 136.064 80.0046 136.089 79.9404C136.113 79.8762 136.151 79.8176 136.199 79.7682C136.246 79.7188 136.304 79.6795 136.367 79.6527C136.43 79.6258 136.499 79.612 136.567 79.6121C136.663 79.6112 136.756 79.6377 136.836 79.6883C136.917 79.739 136.981 79.8118 137.021 79.898L137.753 81.2181L138.459 79.9568C138.506 79.8586 138.578 79.7747 138.668 79.7141C138.759 79.6534 138.864 79.6182 138.972 79.6121C139.038 79.6121 139.104 79.6255 139.164 79.6515C139.225 79.6775 139.28 79.7156 139.325 79.7634C139.372 79.8113 139.409 79.8678 139.433 79.9299C139.458 79.992 139.47 80.0583 139.468 80.125C139.467 80.2444 139.432 80.361 139.367 80.4613L138.627 81.6469H140.2C140.271 81.6427 140.343 81.6541 140.41 81.6802C140.477 81.7063 140.537 81.7466 140.587 81.7983C140.673 81.8989 140.721 82.0272 140.721 82.1599C140.721 82.2925 140.673 82.4208 140.587 82.5214C140.537 82.5731 140.477 82.6134 140.41 82.6395C140.343 82.6657 140.271 82.677 140.2 82.6728H138.644L139.334 83.7491C139.417 83.8772 139.463 84.0254 139.468 84.1779C139.471 84.2469 139.459 84.3156 139.433 84.3794C139.407 84.4433 139.367 84.5008 139.317 84.5479C139.273 84.5959 139.22 84.6342 139.161 84.6602C139.101 84.6863 139.037 84.6996 138.972 84.6993C138.868 84.6957 138.768 84.6631 138.681 84.6051C138.595 84.5472 138.527 84.4661 138.485 84.3713L137.787 83.1353L137.089 84.3713C137.04 84.468 136.963 84.5482 136.869 84.602C136.775 84.6558 136.667 84.6808 136.559 84.674Z" fill="black"/>
<path d="M144.278 84.674C144.212 84.674 144.147 84.6606 144.086 84.6346C144.025 84.6086 143.971 84.5705 143.925 84.5227C143.875 84.4733 143.836 84.4142 143.81 84.3492C143.784 84.2841 143.772 84.2144 143.774 84.1443C143.777 84.0252 143.812 83.9091 143.875 83.8079L144.623 82.6307H143.084C143.013 82.635 142.941 82.6236 142.874 82.5975C142.807 82.5714 142.747 82.5311 142.697 82.4794C142.611 82.3788 142.563 82.2505 142.563 82.1178C142.563 81.9852 142.611 81.8569 142.697 81.7563C142.747 81.7046 142.807 81.6643 142.874 81.6382C142.941 81.612 143.013 81.6007 143.084 81.6049L144.598 81.6469L143.883 80.5118C143.816 80.3998 143.778 80.2725 143.774 80.1418C143.771 80.0731 143.783 80.0046 143.808 79.9404C143.833 79.8762 143.87 79.8176 143.918 79.7682C143.966 79.7188 144.023 79.6795 144.086 79.6527C144.15 79.6258 144.218 79.612 144.287 79.6121C144.382 79.6112 144.475 79.6377 144.556 79.6883C144.636 79.739 144.7 79.8118 144.741 79.898L145.472 81.2181L146.179 79.9568C146.225 79.8586 146.297 79.7747 146.388 79.7141C146.478 79.6534 146.583 79.6182 146.691 79.6121C146.758 79.6121 146.823 79.6255 146.884 79.6515C146.944 79.6775 146.999 79.7156 147.045 79.7634C147.091 79.8113 147.128 79.8678 147.152 79.9299C147.177 79.992 147.189 80.0583 147.188 80.125C147.186 80.2444 147.151 80.361 147.087 80.4613L146.347 81.6469L147.885 81.6049C147.957 81.6007 148.029 81.612 148.095 81.6382C148.162 81.6643 148.223 81.7046 148.272 81.7563C148.359 81.8569 148.406 81.9852 148.406 82.1178C148.406 82.2505 148.359 82.3788 148.272 82.4794C148.223 82.5311 148.162 82.5714 148.095 82.5975C148.029 82.6236 147.957 82.635 147.885 82.6307H146.33L147.019 83.707C147.102 83.8351 147.149 83.9834 147.154 84.1359C147.157 84.2048 147.145 84.2735 147.119 84.3374C147.093 84.4012 147.053 84.4587 147.003 84.5059C146.959 84.5538 146.906 84.5921 146.846 84.6182C146.787 84.6443 146.723 84.6576 146.658 84.6572C146.554 84.6537 146.453 84.6211 146.367 84.5631C146.281 84.5051 146.213 84.4241 146.17 84.3293L145.472 83.0932L144.774 84.3293C144.734 84.4285 144.665 84.5139 144.577 84.5751C144.489 84.6362 144.385 84.6706 144.278 84.674Z" fill="black"/>
<path d="M151.972 84.674C151.906 84.674 151.841 84.6606 151.78 84.6346C151.719 84.6086 151.664 84.5705 151.619 84.5227C151.569 84.4733 151.53 84.4142 151.504 84.3492C151.478 84.2841 151.466 84.2144 151.468 84.1443C151.471 84.0252 151.506 83.9091 151.568 83.8079L152.317 82.6307H150.778C150.706 82.635 150.635 82.6236 150.568 82.5975C150.501 82.5714 150.441 82.5311 150.391 82.4794C150.305 82.3788 150.257 82.2505 150.257 82.1178C150.257 81.9852 150.305 81.8569 150.391 81.7563C150.441 81.7046 150.501 81.6643 150.568 81.6382C150.635 81.612 150.706 81.6007 150.778 81.6049L152.292 81.6469L151.585 80.5118C151.512 80.4021 151.471 80.2738 151.468 80.1418C151.465 80.0731 151.477 80.0046 151.502 79.9404C151.526 79.8762 151.564 79.8176 151.612 79.7682C151.66 79.7188 151.717 79.6795 151.78 79.6527C151.844 79.6258 151.912 79.612 151.98 79.6121C152.076 79.6112 152.169 79.6377 152.25 79.6883C152.33 79.739 152.394 79.8118 152.435 79.898L153.166 81.2181L153.872 79.9568C153.919 79.8586 153.991 79.7747 154.082 79.7141C154.172 79.6534 154.277 79.6182 154.385 79.6121C154.451 79.6121 154.517 79.6255 154.577 79.6515C154.638 79.6775 154.693 79.7156 154.738 79.7634C154.785 79.8113 154.822 79.8678 154.846 79.9299C154.871 79.992 154.883 80.0583 154.881 80.125C154.88 80.2444 154.845 80.361 154.781 80.4613L154.041 81.6469L155.579 81.6049C155.651 81.6007 155.723 81.612 155.789 81.6382C155.856 81.6643 155.916 81.7046 155.966 81.7563C156.058 81.8544 156.109 81.9836 156.109 82.1178C156.109 82.2521 156.058 82.3813 155.966 82.4794C155.916 82.5311 155.856 82.5714 155.789 82.5975C155.723 82.6236 155.651 82.635 155.579 82.6307H154.024L154.713 83.707C154.796 83.8351 154.843 83.9834 154.848 84.1359C154.851 84.2048 154.839 84.2735 154.813 84.3374C154.786 84.4012 154.747 84.4587 154.696 84.5059C154.653 84.5538 154.6 84.5921 154.54 84.6182C154.481 84.6443 154.417 84.6576 154.352 84.6572C154.248 84.6537 154.147 84.6211 154.061 84.5631C153.975 84.5051 153.906 84.4241 153.864 84.3293L153.166 83.0932L152.468 84.3293C152.428 84.4285 152.359 84.5139 152.271 84.5751C152.183 84.6362 152.079 84.6706 151.972 84.674Z" fill="black"/>
<path d="M159.725 84.674C159.657 84.6752 159.59 84.6623 159.528 84.6363C159.466 84.6102 159.41 84.5715 159.363 84.5227C159.313 84.4733 159.274 84.4142 159.248 84.3492C159.222 84.2841 159.21 84.2144 159.212 84.1443C159.215 84.0252 159.25 83.9091 159.313 83.8079L160.061 82.6307H158.522C158.451 82.635 158.379 82.6236 158.312 82.5975C158.245 82.5714 158.185 82.5311 158.135 82.4794C158.049 82.3788 158.001 82.2505 158.001 82.1178C158.001 81.9852 158.049 81.8569 158.135 81.7563C158.185 81.7046 158.245 81.6643 158.312 81.6382C158.379 81.612 158.451 81.6007 158.522 81.6049L160.036 81.6469L159.329 80.5118C159.256 80.4021 159.215 80.2738 159.212 80.1418C159.209 80.0709 159.222 80.0003 159.25 79.935C159.277 79.8696 159.319 79.8111 159.371 79.7634C159.417 79.7156 159.472 79.6775 159.533 79.6515C159.593 79.6255 159.659 79.6121 159.725 79.6121C159.82 79.6112 159.913 79.6377 159.994 79.6883C160.074 79.739 160.138 79.8118 160.179 79.898L160.91 81.2181L161.617 79.9568C161.663 79.8586 161.735 79.7747 161.826 79.7141C161.916 79.6534 162.021 79.6182 162.129 79.6121C162.196 79.6121 162.261 79.6255 162.322 79.6515C162.382 79.6775 162.437 79.7156 162.483 79.7634C162.529 79.8113 162.566 79.8678 162.59 79.9299C162.615 79.992 162.627 80.0583 162.626 80.125C162.624 80.2444 162.589 80.361 162.525 80.4613L161.785 81.6469L163.323 81.6049C163.395 81.6007 163.467 81.612 163.533 81.6382C163.6 81.6643 163.661 81.7046 163.71 81.7563C163.802 81.8544 163.853 81.9836 163.853 82.1178C163.853 82.2521 163.802 82.3813 163.71 82.4794C163.661 82.5311 163.6 82.5714 163.533 82.5975C163.467 82.6236 163.395 82.635 163.323 82.6307H161.768L162.457 83.707C162.54 83.8351 162.587 83.9834 162.592 84.1359C162.595 84.2048 162.583 84.2735 162.557 84.3374C162.531 84.4013 162.491 84.4587 162.441 84.5059C162.397 84.5538 162.344 84.5921 162.284 84.6182C162.225 84.6443 162.161 84.6576 162.096 84.6572C161.992 84.6537 161.891 84.6211 161.805 84.5631C161.719 84.5051 161.651 84.4241 161.608 84.3293L160.91 83.0932L160.212 84.3293C160.173 84.4279 160.106 84.5129 160.02 84.5742C159.933 84.6354 159.831 84.6701 159.725 84.674Z" fill="black"/>
<path d="M167.435 84.674C167.369 84.674 167.304 84.6606 167.243 84.6346C167.183 84.6086 167.128 84.5705 167.082 84.5227C167.033 84.4733 166.993 84.4142 166.967 84.3492C166.941 84.2841 166.929 84.2144 166.931 84.1443C166.934 84.0252 166.969 83.9091 167.032 83.8079L167.78 82.6307H166.241C166.17 82.635 166.098 82.6236 166.031 82.5975C165.965 82.5714 165.904 82.5311 165.855 82.4794C165.768 82.3788 165.721 82.2505 165.721 82.1178C165.721 81.9852 165.768 81.8569 165.855 81.7563C165.904 81.7046 165.965 81.6643 166.031 81.6382C166.098 81.612 166.17 81.6007 166.241 81.6049L167.755 81.6469L167.04 80.5118C166.976 80.3986 166.938 80.2719 166.931 80.1418C166.929 80.0731 166.94 80.0046 166.965 79.9404C166.99 79.8762 167.027 79.8176 167.075 79.7682C167.123 79.7188 167.18 79.6795 167.244 79.6527C167.307 79.6258 167.375 79.612 167.444 79.6121C167.539 79.6112 167.632 79.6377 167.713 79.6883C167.793 79.739 167.858 79.8118 167.898 79.898L168.629 81.2181L169.336 79.9568C169.382 79.8586 169.455 79.7747 169.545 79.7141C169.635 79.6534 169.74 79.6182 169.849 79.6121C169.915 79.6121 169.98 79.6255 170.041 79.6515C170.102 79.6775 170.156 79.7156 170.202 79.7634C170.248 79.8113 170.285 79.8678 170.31 79.9299C170.334 79.992 170.346 80.0583 170.345 80.125C170.344 80.2444 170.309 80.361 170.244 80.4613L169.504 81.6469L171.043 81.6049C171.114 81.6007 171.186 81.612 171.253 81.6382C171.32 81.6643 171.38 81.7046 171.43 81.7563C171.521 81.8544 171.572 81.9836 171.572 82.1178C171.572 82.2521 171.521 82.3813 171.43 82.4794C171.38 82.5311 171.32 82.5714 171.253 82.5975C171.186 82.6236 171.114 82.635 171.043 82.6307H169.487L170.177 83.707C170.26 83.8351 170.306 83.9834 170.311 84.1359C170.314 84.2048 170.302 84.2735 170.276 84.3374C170.25 84.4012 170.21 84.4587 170.16 84.5059C170.116 84.5538 170.063 84.5921 170.004 84.6182C169.944 84.6443 169.88 84.6576 169.815 84.6572C169.711 84.6537 169.61 84.6211 169.524 84.5631C169.438 84.5051 169.37 84.4241 169.327 84.3293L168.629 83.0932L167.932 84.3293C167.891 84.4285 167.823 84.5139 167.735 84.5751C167.646 84.6362 167.543 84.6706 167.435 84.674Z" fill="black"/>
<path d="M175.155 84.674C175.089 84.674 175.023 84.6606 174.963 84.6346C174.902 84.6086 174.847 84.5705 174.802 84.5227C174.752 84.4733 174.713 84.4142 174.687 84.3492C174.661 84.2841 174.648 84.2144 174.65 84.1443C174.653 84.0252 174.688 83.9091 174.751 83.8079L175.499 82.6307H173.961C173.889 82.635 173.817 82.6236 173.751 82.5975C173.684 82.5714 173.624 82.5311 173.574 82.4794C173.487 82.3788 173.44 82.2505 173.44 82.1178C173.44 81.9852 173.487 81.8569 173.574 81.7563C173.624 81.7046 173.684 81.6643 173.751 81.6382C173.817 81.612 173.889 81.6007 173.961 81.6049L175.474 81.6469L174.759 80.5118C174.695 80.3986 174.657 80.2719 174.65 80.1418C174.648 80.0731 174.66 80.0046 174.684 79.9404C174.709 79.8762 174.746 79.8176 174.794 79.7682C174.842 79.7188 174.899 79.6795 174.963 79.6527C175.026 79.6258 175.094 79.612 175.163 79.6121C175.258 79.6112 175.352 79.6377 175.432 79.6883C175.513 79.739 175.577 79.8118 175.617 79.898L176.349 81.2181L177.055 79.9568C177.102 79.8586 177.174 79.7747 177.264 79.7141C177.354 79.6534 177.459 79.6182 177.568 79.6121C177.634 79.6121 177.699 79.6255 177.76 79.6515C177.821 79.6775 177.876 79.7156 177.921 79.7634C177.968 79.8113 178.004 79.8678 178.029 79.9299C178.053 79.992 178.065 80.0583 178.064 80.125C178.063 80.2444 178.028 80.361 177.963 80.4613L177.198 81.689L178.737 81.6469C178.808 81.6427 178.88 81.6541 178.947 81.6802C179.014 81.7063 179.074 81.7466 179.124 81.7983C179.21 81.8989 179.257 82.0272 179.257 82.1599C179.257 82.2925 179.21 82.4208 179.124 82.5214C179.074 82.5731 179.014 82.6134 178.947 82.6395C178.88 82.6657 178.808 82.677 178.737 82.6728H177.181L177.871 83.7491C177.954 83.8772 178 84.0254 178.005 84.1779C178.008 84.2469 177.996 84.3156 177.97 84.3794C177.944 84.4433 177.904 84.5008 177.854 84.5479C177.81 84.5959 177.757 84.6342 177.698 84.6602C177.638 84.6863 177.574 84.6996 177.509 84.6993C177.405 84.6957 177.304 84.6631 177.218 84.6051C177.132 84.5472 177.064 84.4661 177.021 84.3713L176.357 83.0932L175.659 84.3293C175.618 84.4298 175.548 84.5161 175.459 84.5773C175.369 84.6386 175.263 84.6722 175.155 84.674Z" fill="black"/>
<path d="M182.882 84.674C182.814 84.6752 182.747 84.6623 182.685 84.6363C182.623 84.6102 182.567 84.5715 182.52 84.5227C182.471 84.4733 182.431 84.4142 182.405 84.3492C182.379 84.2841 182.367 84.2144 182.369 84.1443C182.372 84.0252 182.407 83.9091 182.47 83.8079L183.218 82.6307H181.679C181.608 82.635 181.536 82.6236 181.469 82.5975C181.403 82.5714 181.342 82.5311 181.293 82.4794C181.206 82.3788 181.159 82.2505 181.159 82.1178C181.159 81.9852 181.206 81.8569 181.293 81.7563C181.342 81.7046 181.403 81.6643 181.469 81.6382C181.536 81.612 181.608 81.6007 181.679 81.6049L183.193 81.6469L182.487 80.5118C182.417 80.4003 182.376 80.2731 182.369 80.1418C182.366 80.0709 182.379 80.0003 182.407 79.935C182.435 79.8696 182.476 79.8111 182.529 79.7634C182.574 79.7156 182.629 79.6775 182.69 79.6515C182.75 79.6255 182.816 79.6121 182.882 79.6121C182.977 79.6112 183.07 79.6377 183.151 79.6883C183.231 79.739 183.296 79.8118 183.336 79.898L184.067 81.2181L184.774 79.9568C184.82 79.8586 184.893 79.7747 184.983 79.7141C185.073 79.6534 185.178 79.6182 185.287 79.6121C185.353 79.6121 185.418 79.6255 185.479 79.6515C185.54 79.6775 185.594 79.7156 185.64 79.7634C185.686 79.8113 185.723 79.8678 185.748 79.9299C185.772 79.992 185.784 80.0583 185.783 80.125C185.782 80.2444 185.747 80.361 185.682 80.4613L184.942 81.6469H186.447C186.519 81.6415 186.591 81.6523 186.658 81.6786C186.725 81.7047 186.785 81.7457 186.834 81.7983C186.926 81.8964 186.976 82.0256 186.976 82.1599C186.976 82.2941 186.926 82.4233 186.834 82.5214C186.785 82.5741 186.725 82.615 186.658 82.6412C186.591 82.6674 186.519 82.6782 186.447 82.6728H184.891L185.581 83.7491C185.664 83.8772 185.71 84.0254 185.716 84.1779C185.718 84.2469 185.706 84.3156 185.68 84.3794C185.654 84.4433 185.615 84.5008 185.564 84.5479C185.521 84.5959 185.467 84.6342 185.408 84.6602C185.349 84.6863 185.284 84.6996 185.219 84.6993C185.116 84.6957 185.015 84.6631 184.929 84.6051C184.842 84.5472 184.774 84.4661 184.732 84.3713L184.034 83.1353L183.336 84.3713C183.293 84.4571 183.229 84.5303 183.149 84.5834C183.07 84.6365 182.977 84.6678 182.882 84.674Z" fill="black"/>
<path d="M190.601 84.674C190.534 84.6752 190.467 84.6623 190.404 84.6363C190.342 84.6102 190.286 84.5715 190.24 84.5227C190.19 84.4733 190.151 84.4142 190.125 84.3492C190.099 84.2841 190.086 84.2144 190.088 84.1443C190.091 84.0252 190.126 83.9091 190.189 83.8079L190.937 82.6307H189.399C189.327 82.635 189.255 82.6236 189.189 82.5975C189.122 82.5714 189.062 82.5311 189.012 82.4794C188.925 82.3788 188.878 82.2505 188.878 82.1178C188.878 81.9852 188.925 81.8569 189.012 81.7563C189.062 81.7046 189.122 81.6643 189.189 81.6382C189.255 81.612 189.327 81.6007 189.399 81.6049L190.912 81.6469L190.206 80.5118C190.136 80.4003 190.096 80.2731 190.088 80.1418C190.086 80.0709 190.099 80.0003 190.126 79.935C190.154 79.8696 190.195 79.8111 190.248 79.7634C190.293 79.7156 190.348 79.6775 190.409 79.6515C190.47 79.6255 190.535 79.6121 190.601 79.6121C190.696 79.6112 190.79 79.6377 190.87 79.6883C190.951 79.739 191.015 79.8118 191.055 79.898L191.787 81.2181L192.493 79.9568C192.54 79.8586 192.612 79.7747 192.702 79.7141C192.792 79.6534 192.897 79.6182 193.006 79.6121C193.072 79.6121 193.137 79.6255 193.198 79.6515C193.259 79.6775 193.314 79.7156 193.359 79.7634C193.406 79.8113 193.442 79.8678 193.467 79.9299C193.491 79.992 193.503 80.0583 193.502 80.125C193.501 80.2444 193.466 80.361 193.401 80.4613L192.661 81.6469L194.2 81.6049C194.272 81.5995 194.344 81.6103 194.411 81.6365C194.478 81.6627 194.538 81.7036 194.587 81.7563C194.678 81.8544 194.729 81.9836 194.729 82.1178C194.729 82.2521 194.678 82.3813 194.587 82.4794C194.538 82.532 194.478 82.5729 194.411 82.5991C194.344 82.6253 194.272 82.6361 194.2 82.6307H192.644L193.334 83.707C193.417 83.8351 193.463 83.9834 193.468 84.1359C193.471 84.2048 193.459 84.2735 193.433 84.3374C193.407 84.4013 193.367 84.4587 193.317 84.5059C193.273 84.5538 193.22 84.5921 193.161 84.6182C193.101 84.6443 193.037 84.6576 192.972 84.6572C192.868 84.6537 192.768 84.6211 192.681 84.5631C192.595 84.5051 192.527 84.4241 192.485 84.3293L191.787 83.0932L191.089 84.3293C191.05 84.4279 190.983 84.5129 190.896 84.5742C190.81 84.6354 190.707 84.6701 190.601 84.674Z" fill="black"/>
<path d="M198.32 84.674C198.252 84.6752 198.185 84.6623 198.123 84.6363C198.061 84.6102 198.005 84.5715 197.958 84.5227C197.909 84.4733 197.869 84.4142 197.843 84.3492C197.817 84.2841 197.805 84.2144 197.807 84.1443C197.81 84.0252 197.845 83.9091 197.908 83.8079L198.656 82.6307H197.117C197.046 82.635 196.974 82.6236 196.907 82.5975C196.841 82.5714 196.78 82.5311 196.731 82.4794C196.644 82.3788 196.597 82.2505 196.597 82.1178C196.597 81.9852 196.644 81.8569 196.731 81.7563C196.78 81.7046 196.841 81.6643 196.907 81.6382C196.974 81.612 197.046 81.6007 197.117 81.6049L198.631 81.6469L197.925 80.5118C197.855 80.4003 197.814 80.2731 197.807 80.1418C197.804 80.0709 197.817 80.0003 197.845 79.935C197.873 79.8696 197.914 79.8111 197.967 79.7634C198.012 79.7156 198.067 79.6775 198.128 79.6515C198.188 79.6255 198.254 79.6121 198.32 79.6121C198.415 79.6112 198.508 79.6377 198.589 79.6883C198.669 79.739 198.734 79.8118 198.774 79.898L199.505 81.2181L200.212 79.9568C200.258 79.8586 200.331 79.7747 200.421 79.7141C200.511 79.6534 200.616 79.6182 200.725 79.6121C200.791 79.6121 200.856 79.6255 200.917 79.6515C200.978 79.6775 201.032 79.7156 201.078 79.7634C201.124 79.8113 201.161 79.8678 201.186 79.9299C201.21 79.992 201.222 80.0583 201.221 80.125C201.22 80.2444 201.185 80.361 201.12 80.4613L200.38 81.6469L201.919 81.6049C201.99 81.5995 202.062 81.6103 202.129 81.6365C202.196 81.6627 202.257 81.7036 202.305 81.7563C202.397 81.8544 202.448 81.9836 202.448 82.1178C202.448 82.2521 202.397 82.3813 202.305 82.4794C202.257 82.532 202.196 82.5729 202.129 82.5991C202.062 82.6253 201.99 82.6361 201.919 82.6307H200.363L201.053 83.707C201.136 83.8351 201.182 83.9834 201.187 84.1359C201.19 84.2048 201.178 84.2735 201.152 84.3374C201.126 84.4013 201.086 84.4587 201.036 84.5059C200.992 84.5538 200.939 84.5921 200.88 84.6182C200.82 84.6443 200.756 84.6576 200.691 84.6572C200.587 84.6537 200.486 84.6211 200.4 84.5631C200.314 84.5051 200.246 84.4241 200.203 84.3293L199.505 83.0932L198.808 84.3293C198.768 84.4279 198.702 84.5129 198.615 84.5742C198.528 84.6354 198.426 84.6701 198.32 84.674Z" fill="black"/>
<path d="M224.731 103.274H235.015" stroke="white" stroke-width="3" stroke-linecap="round" stroke-linejoin="round"/>
<path d="M82.0972 27.5548V95.8574C82.0972 96.8376 82.2904 97.8081 82.6657 98.7135C83.041 99.619 83.5912 100.442 84.2846 101.134C84.9781 101.827 85.8013 102.376 86.7072 102.75C87.613 103.125 88.5838 103.317 89.564 103.316H214.977" stroke="white" stroke-width="3" stroke-linecap="round" stroke-linejoin="round"/>
<path d="M82.0972 9.44281V19.6844" stroke="white" stroke-width="3" stroke-linecap="round" stroke-linejoin="round"/>
</svg>
